<svg width="406" height="174" viewBox="0 0 406 174" fill="none" xmlns="http://www.w3.org/2000/svg">
<path d="M0 32.9768C0 28.6589 0 26.5 0.435011 25.1521C1.97831 20.3702 7.13825 17.7782 11.8958 19.395C13.2369 19.8507 14.9688 21.1396 18.4327 23.7174C19.1007 24.2145 19.4346 24.463 19.7816 24.6754C20.9613 25.3978 22.2917 25.8385 23.6693 25.9633C24.0745 26 24.4908 26 25.3234 26H298C335.712 26 354.569 26 366.284 37.7157C378 49.4315 378 68.2876 378 106V160C378 166.6 378 169.899 375.95 171.95C373.9 174 370.6 174 364 174H41.0294C31.3251 174 21.9349 170.56 14.5268 164.292C5.3136 156.496 0 145.039 0 132.971V32.9768Z" fill="#CCA298"/>
<path d="M10 22.9768C10 18.6589 10 16.5 10.435 15.1521C11.9783 10.3702 17.1383 7.77819 21.8958 9.39496C23.2369 9.85069 24.9688 11.1396 28.4327 13.7174C29.1007 14.2145 29.4346 14.463 29.7816 14.6754C30.9613 15.3978 32.2917 15.8385 33.6693 15.9633C34.0745 16 34.4908 16 35.3234 16H308C345.712 16 364.569 16 376.284 27.7157C388 39.4315 388 58.2876 388 96V137.887C388 139.482 388 140.28 388.171 141.039C388.296 141.592 388.487 142.128 388.741 142.636C389.089 143.332 389.594 143.949 390.604 145.183C395.759 151.483 398.337 154.634 398.222 157.301C398.141 159.189 397.299 160.964 395.89 162.222C393.898 164 389.828 164 381.687 164H41.7524C35.0869 164 28.5904 161.902 23.1835 158.004C14.9052 152.036 10 142.453 10 132.248V22.9768Z" fill="white"/>
<path d="M16.9823 138.446C16.1158 136.168 15.5206 133.779 15.2221 131.325L15.7185 131.265C15.5738 130.076 15.5 128.872 15.5 127.658V124.344H15V117.715H15.5V111.087H15V104.458H15.5V97.8299H15V91.2014H15.5V84.5729H15V77.9445H15.5V71.316H15V64.6875H15.5V58.059H15V51.4305H15.5V44.8021H15V38.1736H15.5V31.5451H15V24.9166H15.5V21.6024C15.5 20.5499 15.8226 19.6586 16.3405 18.9556L15.9379 18.659C17.2018 16.9433 19.5268 16.2036 21.5498 16.8734L21.3926 17.3481C22.2215 17.6226 22.9999 18.1635 23.6081 19.0225C23.8624 19.3817 24.156 19.7047 24.481 19.9874L24.8092 19.6102C25.4078 20.131 26.1232 20.501 26.8941 20.6886L26.7759 21.1744C27.1944 21.2763 27.6278 21.3293 28.0678 21.3293H31.5045V20.8293H38.3777V21.3293H45.251V20.8293H52.1243V21.3293H58.9976V20.8293H65.8709V21.3293H72.7442V20.8293H79.6175V21.3293H86.4909V20.8293H93.3642V21.3293H100.237V20.8293H107.111V21.3293H113.984V20.8293H120.857V21.3293H127.731V20.8293H134.604V21.3293H141.477V20.8293H148.351V21.3293H155.224V20.8293H162.097V21.3293H168.971V20.8293H175.844V21.3293H182.717V20.8293H189.59V21.3293H196.464V20.8293H203.337V21.3293H210.21V20.8293H217.084V21.3293H223.957V20.8293H230.83V21.3293H237.704V20.8293H244.577V21.3293H251.45V20.8293H258.324V21.3293H265.197V20.8293H272.07V21.3293H278.943V20.8293H285.817V21.3293H292.69V20.8293H299.563V21.3293H303C304.201 21.3293 305.383 21.3293 306.546 21.3296L306.546 20.8296C308.994 20.8304 311.358 20.8329 313.643 20.8406L313.642 21.3406C316.096 21.3488 318.459 21.3631 320.734 21.3877L320.739 20.8877C323.199 20.9143 325.557 20.9531 327.818 21.0095L327.806 21.5093C330.281 21.571 332.639 21.6539 334.887 21.7651L334.912 21.2657C337.398 21.3887 339.753 21.5463 341.985 21.7483L341.94 22.2463C344.423 22.4711 346.75 22.7508 348.937 23.0987L349.016 22.6049C351.498 22.9998 353.804 23.4825 355.951 24.0726L355.819 24.5547C358.203 25.2099 360.384 25.997 362.393 26.9421L362.606 26.4897C364.803 27.5231 366.801 28.7451 368.636 30.1903L368.326 30.583C369.234 31.2977 370.1 32.068 370.931 32.8986C371.761 33.7291 372.532 34.5958 373.246 35.5029L373.639 35.1935C375.084 37.028 376.306 39.0263 377.34 41.223L376.887 41.4359C377.832 43.4448 378.619 45.6267 379.275 48.0108L379.757 47.8783C380.347 50.0257 380.829 52.3309 381.224 54.8135L380.731 54.892C381.078 57.0789 381.358 59.4067 381.583 61.8898L382.081 61.8447C382.283 64.0765 382.441 66.4308 382.564 68.9175L382.064 68.9422C382.175 71.1907 382.258 73.5486 382.32 76.0234L382.82 76.011C382.876 78.2723 382.915 80.6302 382.942 83.0902L382.442 83.0956C382.466 85.3704 382.48 87.7329 382.489 90.1877L382.989 90.1861C382.996 92.471 382.999 94.8354 383 97.2829L382.5 97.283C382.5 97.7218 382.5 98.1632 382.5 98.6073L382.5 100.829V104.096H383V110.628H382.5V117.161H383V123.694H382.5V130.226H383V136.759H382.5V140.025C382.5 141.259 382.605 142.483 382.812 143.685L383.305 143.6C383.711 145.966 384.518 148.245 385.691 150.339L385.254 150.584C385.85 151.648 386.538 152.666 387.314 153.624C387.622 154.004 387.786 154.423 387.834 154.84L388.331 154.782C388.458 155.874 387.934 156.973 387.005 157.562L386.737 157.139C386.383 157.364 385.954 157.5 385.465 157.5H381.922V158H374.837V157.5H367.751V158H360.665V157.5H353.579V158H346.493V157.5H339.407V158H332.321V157.5H325.235V158H318.149V157.5H311.063V158H303.977V157.5H296.892V158H289.806V157.5H282.72V158H275.634V157.5H268.548V158H261.462V157.5H254.376V158H247.29V157.5H240.204V158H233.118V157.5H226.033V158H218.947V157.5H211.861V158H204.775V157.5H197.689V158H190.603V157.5H183.517V158H176.431V157.5H169.345V158H162.259V157.5H155.173V158H148.088V157.5H141.002V158H133.916V157.5H126.83V158H119.744V157.5H112.658V158H105.572V157.5H98.4863V158H91.4004V157.5H84.3145V158H77.2286V157.5H70.1427V158H63.0568V157.5H55.9709V158H48.885V157.5H45.342C43.839 157.5 42.3448 157.387 40.8714 157.163L40.7965 157.658C37.7835 157.201 34.8561 156.293 32.1136 154.965L32.3316 154.515C30.9905 153.865 29.6943 153.113 28.4551 152.262C27.4542 151.576 26.5031 150.833 25.6047 150.041L25.2741 150.416C23.4202 148.782 21.7869 146.939 20.3995 144.936L20.8106 144.651C19.4366 142.667 18.3078 140.523 17.4496 138.268L16.9823 138.446Z" fill="white" stroke="#C17766" stroke-dasharray="7 7"/>
<path d="M230.935 124.084H244.195L243.974 125.376H230.714L230.935 124.084ZM248.744 119.324L248.064 123.183H253.062L252.807 124.645H247.809L247.129 128.504H252.671L252.399 130H245.293L247.452 117.828H254.558L254.286 119.324H248.744ZM257.575 130.272C257.088 130.272 256.634 130.181 256.215 130C255.796 129.819 255.427 129.564 255.11 129.235C254.804 128.895 254.56 128.487 254.379 128.011C254.209 127.524 254.124 126.98 254.124 126.379C254.124 125.733 254.243 125.115 254.481 124.526C254.73 123.925 255.07 123.393 255.501 122.928C255.932 122.463 256.442 122.095 257.031 121.823C257.62 121.54 258.261 121.398 258.952 121.398C259.519 121.398 260.029 121.534 260.482 121.806C260.947 122.078 261.298 122.418 261.536 122.826H261.604L261.74 121.67L262.42 117.828H263.984L261.842 130H260.346L260.55 128.844H260.482C260.199 129.229 259.819 129.564 259.343 129.847C258.878 130.13 258.289 130.272 257.575 130.272ZM258.833 122.826C258.402 122.826 257.994 122.917 257.609 123.098C257.235 123.268 256.906 123.512 256.623 123.829C256.34 124.135 256.119 124.498 255.96 124.917C255.801 125.336 255.722 125.79 255.722 126.277C255.722 127.082 255.915 127.711 256.3 128.164C256.697 128.617 257.269 128.844 258.017 128.844C258.459 128.844 258.873 128.748 259.258 128.555C259.643 128.351 259.972 128.085 260.244 127.756C260.527 127.427 260.748 127.053 260.907 126.634C261.066 126.203 261.145 125.761 261.145 125.308C261.145 124.492 260.924 123.874 260.482 123.455C260.04 123.036 259.49 122.826 258.833 122.826ZM263.834 130L265.296 121.67H266.86L265.398 130H263.834ZM266.588 119.902C266.282 119.902 266.021 119.794 265.806 119.579C265.591 119.364 265.483 119.103 265.483 118.797C265.483 118.491 265.591 118.23 265.806 118.015C266.021 117.8 266.282 117.692 266.588 117.692C266.894 117.692 267.155 117.8 267.37 118.015C267.585 118.23 267.693 118.491 267.693 118.797C267.693 119.103 267.585 119.364 267.37 119.579C267.155 119.794 266.894 119.902 266.588 119.902ZM270.699 130.136C270.416 130.136 270.15 130.091 269.9 130C269.651 129.909 269.436 129.785 269.254 129.626C269.073 129.456 268.926 129.252 268.812 129.014C268.71 128.776 268.659 128.51 268.659 128.215C268.659 128.124 268.665 128.005 268.676 127.858C268.688 127.711 268.71 127.546 268.744 127.365L269.492 123.098H268.03L268.285 121.67H269.747L270.206 119.12H271.77L271.311 121.67H273.351L273.096 123.098H271.056L270.342 127.144C270.32 127.291 270.303 127.416 270.291 127.518C270.269 127.631 270.257 127.733 270.257 127.824C270.257 128.073 270.325 128.277 270.461 128.436C270.597 128.595 270.807 128.674 271.09 128.674C271.283 128.674 271.425 128.663 271.515 128.64C271.617 128.617 271.731 128.578 271.855 128.521L272.11 129.915C271.884 129.994 271.657 130.051 271.43 130.085C271.215 130.119 270.971 130.136 270.699 130.136ZM276.486 121.67L276.214 122.826H276.282C276.588 122.418 276.996 122.078 277.506 121.806C278.016 121.534 278.571 121.398 279.172 121.398C279.637 121.398 280.039 121.466 280.379 121.602C280.719 121.727 280.997 121.902 281.212 122.129C281.427 122.356 281.586 122.622 281.688 122.928C281.79 123.223 281.841 123.54 281.841 123.88C281.841 124.016 281.83 124.169 281.807 124.339C281.796 124.498 281.767 124.707 281.722 124.968L280.821 130H279.257L280.141 125.002C280.164 124.889 280.181 124.781 280.192 124.679C280.203 124.566 280.209 124.464 280.209 124.373C280.209 123.863 280.056 123.478 279.75 123.217C279.455 122.956 279.053 122.826 278.543 122.826C278.192 122.826 277.863 122.9 277.557 123.047C277.251 123.194 276.979 123.393 276.741 123.642C276.503 123.88 276.299 124.158 276.129 124.475C275.97 124.792 275.863 125.121 275.806 125.461L275.024 130H273.46L275.602 117.828H277.166L276.486 121.67ZM288.823 117.828H290.387L289.452 123.047H295.538L296.473 117.828H298.037L295.878 130H294.314L295.283 124.509H289.197L288.228 130H286.664L288.823 117.828ZM305.986 128.028C305.544 128.765 304.977 129.326 304.286 129.711C303.594 130.085 302.852 130.272 302.059 130.272C301.447 130.272 300.903 130.17 300.427 129.966C299.962 129.762 299.565 129.49 299.237 129.15C298.919 128.799 298.676 128.396 298.506 127.943C298.347 127.478 298.268 126.985 298.268 126.464C298.268 125.818 298.375 125.195 298.591 124.594C298.817 123.982 299.14 123.438 299.56 122.962C299.979 122.486 300.483 122.106 301.073 121.823C301.673 121.54 302.342 121.398 303.079 121.398C303.657 121.398 304.167 121.489 304.609 121.67C305.051 121.851 305.419 122.101 305.714 122.418C306.008 122.735 306.229 123.104 306.377 123.523C306.524 123.942 306.598 124.396 306.598 124.883C306.598 125.087 306.586 125.302 306.564 125.529C306.541 125.756 306.501 125.954 306.445 126.124H299.883C299.871 126.237 299.866 126.328 299.866 126.396C299.866 126.464 299.866 126.538 299.866 126.617C299.866 126.991 299.928 127.32 300.053 127.603C300.189 127.886 300.364 128.119 300.58 128.3C300.795 128.481 301.039 128.617 301.311 128.708C301.583 128.799 301.86 128.844 302.144 128.844C302.71 128.844 303.215 128.708 303.657 128.436C304.11 128.164 304.484 127.801 304.779 127.348L305.986 128.028ZM305.017 124.832V124.645C305.017 124.407 304.971 124.18 304.881 123.965C304.801 123.738 304.671 123.546 304.49 123.387C304.32 123.217 304.104 123.081 303.844 122.979C303.583 122.877 303.277 122.826 302.926 122.826C302.246 122.826 301.662 123.013 301.175 123.387C300.699 123.75 300.364 124.231 300.172 124.832H305.017ZM312.259 121.398C313.336 121.398 314.146 121.647 314.69 122.146C315.245 122.645 315.523 123.319 315.523 124.169C315.523 124.305 315.512 124.452 315.489 124.611C315.478 124.758 315.461 124.911 315.438 125.07L314.554 130H313.058L313.262 128.844H313.194C312.922 129.241 312.548 129.581 312.072 129.864C311.596 130.136 311.063 130.272 310.474 130.272C310.066 130.272 309.686 130.21 309.335 130.085C308.984 129.972 308.678 129.802 308.417 129.575C308.168 129.348 307.969 129.082 307.822 128.776C307.675 128.459 307.601 128.102 307.601 127.705C307.601 127.229 307.703 126.798 307.907 126.413C308.122 126.028 308.411 125.705 308.774 125.444C309.137 125.172 309.562 124.962 310.049 124.815C310.548 124.668 311.086 124.594 311.664 124.594C312.129 124.594 312.537 124.645 312.888 124.747C313.251 124.838 313.596 124.957 313.925 125.104L313.993 124.747C314.016 124.656 314.027 124.543 314.027 124.407C314.027 123.92 313.851 123.529 313.5 123.234C313.149 122.939 312.684 122.792 312.106 122.792C311.664 122.792 311.267 122.877 310.916 123.047C310.576 123.217 310.242 123.5 309.913 123.897L308.689 123.03C309.086 122.497 309.59 122.095 310.202 121.823C310.825 121.54 311.511 121.398 312.259 121.398ZM310.797 128.878C311.148 128.878 311.483 128.816 311.8 128.691C312.129 128.566 312.418 128.396 312.667 128.181C312.928 127.954 313.149 127.694 313.33 127.399C313.511 127.093 313.63 126.77 313.687 126.43C313.551 126.328 313.381 126.232 313.177 126.141C312.996 126.073 312.769 126.011 312.497 125.954C312.236 125.886 311.919 125.852 311.545 125.852C311.262 125.852 310.978 125.886 310.695 125.954C310.423 126.022 310.179 126.13 309.964 126.277C309.749 126.424 309.573 126.606 309.437 126.821C309.301 127.036 309.233 127.286 309.233 127.569C309.233 127.784 309.278 127.977 309.369 128.147C309.46 128.306 309.573 128.442 309.709 128.555C309.856 128.657 310.021 128.736 310.202 128.793C310.395 128.85 310.593 128.878 310.797 128.878ZM319.499 130.272C319.012 130.272 318.558 130.181 318.139 130C317.72 129.819 317.351 129.564 317.034 129.235C316.728 128.895 316.484 128.487 316.303 128.011C316.133 127.524 316.048 126.98 316.048 126.379C316.048 125.733 316.167 125.115 316.405 124.526C316.654 123.925 316.994 123.393 317.425 122.928C317.856 122.463 318.366 122.095 318.955 121.823C319.544 121.54 320.185 121.398 320.876 121.398C321.443 121.398 321.953 121.534 322.406 121.806C322.871 122.078 323.222 122.418 323.46 122.826H323.528L323.664 121.67L324.344 117.828H325.908L323.766 130H322.27L322.474 128.844H322.406C322.123 129.229 321.743 129.564 321.267 129.847C320.802 130.13 320.213 130.272 319.499 130.272ZM320.757 122.826C320.326 122.826 319.918 122.917 319.533 123.098C319.159 123.268 318.83 123.512 318.547 123.829C318.264 124.135 318.043 124.498 317.884 124.917C317.725 125.336 317.646 125.79 317.646 126.277C317.646 127.082 317.839 127.711 318.224 128.164C318.621 128.617 319.193 128.844 319.941 128.844C320.383 128.844 320.797 128.748 321.182 128.555C321.567 128.351 321.896 128.085 322.168 127.756C322.451 127.427 322.672 127.053 322.831 126.634C322.99 126.203 323.069 125.761 323.069 125.308C323.069 124.492 322.848 123.874 322.406 123.455C321.964 123.036 321.414 122.826 320.757 122.826Z" fill="#C17766"/>
<path d="M61.7734 48.1309C61.3757 48.3424 61.0583 48.5286 60.8213 48.6895C60.5843 48.8503 60.3854 49.0534 60.2246 49.2988C60.0723 49.5443 59.9961 49.8405 59.9961 50.1875C60.123 50.3737 60.2712 50.5218 60.4404 50.6318C60.6182 50.7419 60.834 50.818 61.0879 50.8604C61.9766 51.0212 62.4209 51.4993 62.4209 52.2949C62.4209 52.7689 62.2559 53.1624 61.9258 53.4756C61.5957 53.7887 61.1683 53.9453 60.6436 53.9453C60.195 53.9453 59.7972 53.8353 59.4502 53.6152C59.1032 53.3952 58.8324 53.0863 58.6377 52.6885C58.4515 52.2907 58.3584 51.8379 58.3584 51.3301C58.3584 50.7122 58.4938 50.1071 58.7646 49.5146C59.0439 48.9137 59.446 48.4017 59.9707 47.9785C60.4954 47.5553 61.109 47.2803 61.8115 47.1533C62.0485 47.348 62.2008 47.585 62.2686 47.8643L61.7734 48.1309ZM67.1689 48.1309C66.7712 48.3424 66.4538 48.5286 66.2168 48.6895C65.9798 48.8503 65.7809 49.0534 65.6201 49.2988C65.4678 49.5443 65.3916 49.8405 65.3916 50.1875C65.6286 50.5514 65.9925 50.7757 66.4834 50.8604C67.3636 51.0212 67.8037 51.4993 67.8037 52.2949C67.8037 52.7689 67.6387 53.1624 67.3086 53.4756C66.987 53.7887 66.5638 53.9453 66.0391 53.9453C65.5905 53.9453 65.1927 53.8353 64.8457 53.6152C64.4987 53.3952 64.2279 53.0863 64.0332 52.6885C63.847 52.2907 63.7539 51.8379 63.7539 51.3301C63.7539 50.7122 63.8893 50.1071 64.1602 49.5146C64.4395 48.9137 64.8415 48.4017 65.3662 47.9785C65.891 47.5553 66.5046 47.2803 67.207 47.1533C67.444 47.348 67.5964 47.585 67.6641 47.8643L67.1689 48.1309ZM86.0215 48.2197C85.5391 48.4144 85.1497 48.5879 84.8535 48.7402C84.5573 48.8926 84.2653 49.0872 83.9775 49.3242C83.6982 49.5612 83.4443 49.8574 83.2158 50.2129L79.0518 56.5986V60.877C79.0518 61.4609 79.1068 61.8926 79.2168 62.1719C79.3268 62.4512 79.4749 62.6374 79.6611 62.7305C79.8558 62.8236 80.1393 62.904 80.5117 62.9717C81.0111 63.0563 81.4427 63.179 81.8066 63.3398L81.7812 64H73.5801L73.5547 63.3398C73.7747 63.2129 73.9821 63.124 74.1768 63.0732C74.3799 63.0225 74.6296 62.9759 74.9258 62.9336C75.2812 62.8828 75.5479 62.8151 75.7256 62.7305C75.9033 62.6458 76.0472 62.4554 76.1572 62.1592C76.2673 61.863 76.3223 61.4017 76.3223 60.7754V56.8652L71.6885 49.6035C71.4938 49.2988 71.1299 48.9984 70.5967 48.7021C70.0635 48.4059 69.5938 48.2113 69.1875 48.1182V47.4707H77.0586L77.084 48.1309C76.5931 48.2155 76.1276 48.3721 75.6875 48.6006C75.2559 48.8206 75.04 49.1211 75.04 49.502C75.04 49.7728 75.3193 50.361 75.8779 51.2666C76.4365 52.1637 77.1644 53.2852 78.0615 54.6309L78.6582 55.5322C78.709 55.4391 78.8275 55.2614 79.0137 54.999C80.9772 52.096 81.959 50.2721 81.959 49.5273C81.959 49.1888 81.7939 48.9307 81.4639 48.7529C81.1338 48.5667 80.7064 48.4059 80.1816 48.2705C80.1647 48.2705 80.0589 48.2409 79.8643 48.1816L79.8389 47.8389C79.8389 47.7796 79.8473 47.6569 79.8643 47.4707H86.2373V48.1309L86.0215 48.2197ZM91.2393 52.2441C92.3649 52.2441 93.389 52.4896 94.3115 52.9805C95.2425 53.4629 95.9788 54.1569 96.5205 55.0625C97.0622 55.9596 97.333 57.0049 97.333 58.1982C97.333 59.3916 97.0622 60.4495 96.5205 61.3721C95.9788 62.2861 95.2552 62.9971 94.3496 63.5049C93.444 64.0042 92.4538 64.2539 91.3789 64.2539C90.3125 64.2539 89.3138 63.9958 88.3828 63.4795C87.4518 62.9632 86.707 62.248 86.1484 61.334C85.5898 60.4115 85.3105 59.3704 85.3105 58.2109C85.3105 57.0514 85.5814 56.0189 86.123 55.1133C86.6647 54.1992 87.3883 53.4925 88.2939 52.9932C89.208 52.4938 90.1898 52.2441 91.2393 52.2441ZM91.5439 63.2637C92.6188 63.2637 93.4355 62.8786 93.9941 62.1084C94.5527 61.3382 94.832 60.3268 94.832 59.0742C94.832 57.9909 94.6797 56.9964 94.375 56.0908C94.0788 55.1768 93.6514 54.4489 93.0928 53.9072C92.5342 53.3656 91.891 53.0947 91.1631 53.0947C90.5199 53.0947 89.9486 53.2513 89.4492 53.5645C88.9583 53.8776 88.569 54.36 88.2812 55.0117C87.9935 55.6634 87.8496 56.4801 87.8496 57.4619C87.8496 58.4268 88.002 59.3577 88.3066 60.2549C88.6113 61.1436 89.043 61.8672 89.6016 62.4258C90.1602 62.9844 90.8076 63.2637 91.5439 63.2637ZM103.896 64.2539C102.872 64.2539 102.081 64 101.522 63.4922C100.972 62.9759 100.6 62.3073 100.405 61.4863C100.211 60.6654 100.113 59.6878 100.113 58.5537V54.7705C100.003 54.5758 99.7959 54.4023 99.4912 54.25C99.195 54.0892 98.8861 53.958 98.5645 53.8564C98.2513 53.7464 98.0947 53.6956 98.0947 53.7041L98.1201 53.2598L101.688 52.3965L102.475 52.3457V58.4141C102.475 59.4974 102.542 60.3522 102.678 60.9785C102.813 61.5964 103.042 62.0492 103.363 62.3369C103.685 62.6162 104.133 62.7559 104.709 62.7559C105.885 62.7559 106.994 62.2396 108.035 61.207V54.7705C107.925 54.5758 107.718 54.4023 107.413 54.25C107.117 54.0892 106.808 53.958 106.486 53.8564C106.173 53.7464 106.017 53.6956 106.017 53.7041L106.042 53.2598L109.609 52.3965L110.396 52.3457V61.4482C110.396 61.8037 110.485 62.0788 110.663 62.2734C110.841 62.4596 111.061 62.5951 111.323 62.6797C111.586 62.7643 111.945 62.8447 112.402 62.9209C112.402 63.0479 112.394 63.179 112.377 63.3145C112.368 63.4499 112.364 63.543 112.364 63.5938L108.2 64.1904L108.099 62.1592C106.846 63.5557 105.445 64.2539 103.896 64.2539ZM130.062 61.6133C129.884 62.1803 129.566 62.6628 129.109 63.0605C128.652 63.4583 128.115 63.7588 127.497 63.9619C126.879 64.1566 126.236 64.2539 125.567 64.2539C124.399 64.2539 123.388 63.9831 122.533 63.4414C121.687 62.8913 121.044 62.1634 120.604 61.2578C120.163 60.3522 119.943 59.3704 119.943 58.3125C119.943 57.1953 120.21 56.1755 120.743 55.2529C121.276 54.3219 122.025 53.5898 122.99 53.0566C123.955 52.515 125.051 52.2441 126.278 52.2441C126.989 52.2441 127.641 52.3499 128.233 52.5615C128.826 52.7646 129.291 53.0566 129.63 53.4375C129.977 53.8184 130.15 54.2585 130.15 54.7578C130.15 55.1387 130.028 55.418 129.782 55.5957C129.537 55.765 129.274 55.8496 128.995 55.8496C128.733 55.8496 128.53 55.8031 128.386 55.71C128.242 55.6084 128.136 55.4899 128.068 55.3545C128.009 55.2106 127.95 55.0117 127.891 54.7578C127.823 54.4362 127.738 54.1738 127.637 53.9707C127.544 53.7676 127.366 53.5898 127.104 53.4375C126.841 53.2852 126.465 53.2005 125.974 53.1836C125.322 53.1582 124.713 53.319 124.146 53.666C123.578 54.0046 123.121 54.5124 122.774 55.1895C122.436 55.8665 122.267 56.679 122.267 57.627C122.267 58.5072 122.423 59.3154 122.736 60.0518C123.049 60.7881 123.507 61.3763 124.107 61.8164C124.717 62.2565 125.445 62.4766 126.291 62.4766C127.027 62.4766 127.641 62.3877 128.132 62.21C128.623 62.0322 129.131 61.736 129.655 61.3213L130.062 61.6133ZM139.342 56.2686C139.342 55.6338 139.283 55.0964 139.164 54.6562C139.054 54.2161 138.826 53.8607 138.479 53.5898C138.14 53.319 137.653 53.1836 137.019 53.1836C136.799 53.1836 136.528 53.2301 136.206 53.3232C135.884 53.4163 135.601 53.5518 135.355 53.7295C135.118 53.8988 135 54.0977 135 54.3262C135 54.4193 135.017 54.5124 135.051 54.6055C135.085 54.6901 135.14 54.8001 135.216 54.9355C135.292 55.0625 135.347 55.1725 135.381 55.2656C135.415 55.3587 135.432 55.4561 135.432 55.5576C135.432 55.8962 135.322 56.1797 135.102 56.4082C134.89 56.6283 134.615 56.7383 134.276 56.7383C133.853 56.7383 133.515 56.5817 133.261 56.2686C133.015 55.9554 132.893 55.5788 132.893 55.1387C132.893 54.4785 133.151 53.9326 133.667 53.501C134.183 53.0693 134.805 52.752 135.533 52.5488C136.27 52.3457 136.955 52.2441 137.59 52.2441C138.783 52.2441 139.672 52.4219 140.256 52.7773C140.848 53.1243 141.238 53.6364 141.424 54.3135C141.618 54.9821 141.716 55.9215 141.716 57.1318L141.69 57.7666C141.682 57.9528 141.669 58.2617 141.652 58.6934C141.644 59.125 141.64 59.5228 141.64 59.8867C141.64 61.791 141.839 62.7432 142.236 62.7432C142.524 62.7432 142.896 62.4512 143.354 61.8672L143.887 62.4385C143.514 63.0479 143.146 63.5049 142.782 63.8096C142.418 64.1058 141.94 64.2539 141.348 64.2539C140.789 64.2539 140.328 64.0804 139.964 63.7334C139.608 63.3779 139.414 62.9209 139.38 62.3623C138.838 62.9548 138.229 63.4202 137.552 63.7588C136.883 64.0889 136.172 64.2539 135.419 64.2539C134.894 64.2539 134.408 64.1608 133.959 63.9746C133.519 63.7799 133.163 63.4922 132.893 63.1113C132.63 62.7305 132.499 62.2734 132.499 61.7402C132.499 60.9362 132.808 60.2676 133.426 59.7344C134.044 59.2012 134.755 58.7949 135.559 58.5156C136.363 58.2363 137.344 57.957 138.504 57.6777C138.605 57.6608 138.885 57.5931 139.342 57.4746V56.2686ZM139.342 58.2236C139.215 58.266 139.054 58.3167 138.859 58.376C138.132 58.613 137.509 58.8415 136.993 59.0615C136.477 59.2731 136.016 59.5609 135.609 59.9248C135.203 60.2887 135 60.7161 135 61.207C135 61.7064 135.135 62.0999 135.406 62.3877C135.686 62.6755 136.075 62.8193 136.574 62.8193C137.074 62.8193 137.556 62.6966 138.021 62.4512C138.487 62.1973 138.927 61.8672 139.342 61.4609V58.2236ZM149.104 61.1816C149.104 61.9095 149.286 62.4385 149.65 62.7686C150.023 63.0902 150.586 63.2891 151.339 63.3652C151.339 63.4922 151.335 63.6191 151.326 63.7461C151.318 63.873 151.313 63.9577 151.313 64H144.775L144.763 63.5938C144.763 63.4583 144.767 63.3652 144.775 63.3145C145.266 63.196 145.634 63.0902 145.88 62.9971C146.134 62.904 146.341 62.7516 146.502 62.54C146.663 62.3285 146.743 62.0322 146.743 61.6514V54.7705C146.642 54.5758 146.443 54.4023 146.146 54.25C145.85 54.0892 145.537 53.958 145.207 53.8564C144.885 53.7464 144.725 53.6956 144.725 53.7041L144.763 53.2725L148.229 52.4092L149.003 52.3584L149.143 54.415C149.608 53.7887 150.201 53.2725 150.92 52.8662C151.648 52.4515 152.431 52.2441 153.269 52.2441C154.496 52.2441 155.448 52.5911 156.125 53.2852C156.802 53.9792 157.17 55.016 157.229 56.3955C157.255 56.9372 157.268 57.4915 157.268 58.0586V60.8896C157.268 61.5075 157.306 61.9561 157.382 62.2354C157.458 62.5146 157.576 62.7093 157.737 62.8193C157.907 62.9209 158.186 63.0309 158.575 63.1494L159.108 63.3145C159.117 63.3652 159.121 63.4583 159.121 63.5938L159.108 64H152.85C152.85 63.9492 152.845 63.8646 152.837 63.7461C152.828 63.6191 152.824 63.4922 152.824 63.3652C152.883 63.3398 153.053 63.2891 153.332 63.2129C153.781 63.0859 154.128 62.9505 154.373 62.8066C154.627 62.6628 154.779 62.43 154.83 62.1084C154.872 61.863 154.894 61.5371 154.894 61.1309V58.2998C154.894 57.1742 154.851 56.3066 154.767 55.6973C154.69 55.0879 154.479 54.5885 154.132 54.1992C153.793 53.8099 153.243 53.6152 152.481 53.6152C151.881 53.6152 151.301 53.7887 150.742 54.1357C150.192 54.4827 149.646 54.944 149.104 55.5195V61.1816ZM178.735 61.1943C178.735 61.846 178.9 62.3581 179.23 62.7305C179.569 63.0944 180.047 63.306 180.665 63.3652C180.665 63.4922 180.661 63.6191 180.652 63.7461C180.644 63.8646 180.64 63.9492 180.64 64H174.394C174.394 63.9492 174.389 63.8646 174.381 63.7461C174.372 63.6191 174.368 63.4922 174.368 63.3652C174.512 63.2975 174.791 63.2002 175.206 63.0732C175.528 62.9717 175.76 62.8786 175.904 62.7939C176.057 62.7008 176.171 62.54 176.247 62.3115C176.332 62.083 176.374 61.7402 176.374 61.2832V56.6748C176.374 55.7438 176.175 55.0033 175.777 54.4531C175.388 53.8945 174.774 53.6152 173.937 53.6152C173.336 53.6152 172.752 53.776 172.185 54.0977C171.626 54.4108 171.11 54.8171 170.636 55.3164V61.042C170.636 61.8037 170.809 62.3623 171.156 62.7178C171.503 63.0732 172.07 63.2891 172.857 63.3652L172.845 64H166.078C166.078 63.9492 166.074 63.8646 166.065 63.7461C166.057 63.6191 166.053 63.4922 166.053 63.3652C167.534 63.2467 168.274 62.4723 168.274 61.042V49.2227C168.19 49.0957 168.004 48.9434 167.716 48.7656C167.428 48.5794 167.123 48.4144 166.802 48.2705C166.489 48.1266 166.256 48.0462 166.104 48.0293V47.585L169.734 46.6201L170.636 46.5312V54.25C171.304 53.5814 171.96 53.082 172.604 52.752C173.247 52.4134 173.992 52.2441 174.838 52.2441C176.014 52.2441 176.958 52.6208 177.669 53.374C178.38 54.1188 178.735 55.2572 178.735 56.7891V61.1943ZM189.006 56.2686C189.006 55.6338 188.947 55.0964 188.828 54.6562C188.718 54.2161 188.49 53.8607 188.143 53.5898C187.804 53.319 187.317 53.1836 186.683 53.1836C186.463 53.1836 186.192 53.2301 185.87 53.3232C185.549 53.4163 185.265 53.5518 185.02 53.7295C184.783 53.8988 184.664 54.0977 184.664 54.3262C184.664 54.4193 184.681 54.5124 184.715 54.6055C184.749 54.6901 184.804 54.8001 184.88 54.9355C184.956 55.0625 185.011 55.1725 185.045 55.2656C185.079 55.3587 185.096 55.4561 185.096 55.5576C185.096 55.8962 184.986 56.1797 184.766 56.4082C184.554 56.6283 184.279 56.7383 183.94 56.7383C183.517 56.7383 183.179 56.5817 182.925 56.2686C182.679 55.9554 182.557 55.5788 182.557 55.1387C182.557 54.4785 182.815 53.9326 183.331 53.501C183.847 53.0693 184.469 52.752 185.197 52.5488C185.934 52.3457 186.619 52.2441 187.254 52.2441C188.447 52.2441 189.336 52.4219 189.92 52.7773C190.512 53.1243 190.902 53.6364 191.088 54.3135C191.283 54.9821 191.38 55.9215 191.38 57.1318L191.354 57.7666C191.346 57.9528 191.333 58.2617 191.316 58.6934C191.308 59.125 191.304 59.5228 191.304 59.8867C191.304 61.791 191.503 62.7432 191.9 62.7432C192.188 62.7432 192.561 62.4512 193.018 61.8672L193.551 62.4385C193.178 63.0479 192.81 63.5049 192.446 63.8096C192.082 64.1058 191.604 64.2539 191.012 64.2539C190.453 64.2539 189.992 64.0804 189.628 63.7334C189.272 63.3779 189.078 62.9209 189.044 62.3623C188.502 62.9548 187.893 63.4202 187.216 63.7588C186.547 64.0889 185.836 64.2539 185.083 64.2539C184.558 64.2539 184.072 64.1608 183.623 63.9746C183.183 63.7799 182.827 63.4922 182.557 63.1113C182.294 62.7305 182.163 62.2734 182.163 61.7402C182.163 60.9362 182.472 60.2676 183.09 59.7344C183.708 59.2012 184.419 58.7949 185.223 58.5156C186.027 58.2363 187.008 57.957 188.168 57.6777C188.27 57.6608 188.549 57.5931 189.006 57.4746V56.2686ZM189.006 58.2236C188.879 58.266 188.718 58.3167 188.523 58.376C187.796 58.613 187.174 58.8415 186.657 59.0615C186.141 59.2731 185.68 59.5609 185.273 59.9248C184.867 60.2887 184.664 60.7161 184.664 61.207C184.664 61.7064 184.799 62.0999 185.07 62.3877C185.35 62.6755 185.739 62.8193 186.238 62.8193C186.738 62.8193 187.22 62.6966 187.686 62.4512C188.151 62.1973 188.591 61.8672 189.006 61.4609V58.2236ZM199.822 64.1523C199.721 64.2031 199.594 64.2285 199.441 64.2285C199.281 64.2285 199.154 64.2031 199.061 64.1523L195.176 54.8086C195.032 54.4531 194.901 54.1908 194.782 54.0215C194.664 53.8438 194.549 53.721 194.439 53.6533C194.329 53.5856 194.173 53.5221 193.97 53.4629C193.758 53.3952 193.563 53.3232 193.386 53.2471V52.5869H199.099C199.099 52.6546 199.107 52.7562 199.124 52.8916C199.149 53.027 199.162 53.154 199.162 53.2725C198.612 53.4248 198.201 53.5729 197.931 53.7168C197.66 53.8607 197.524 54.0723 197.524 54.3516C197.524 54.4362 197.546 54.5505 197.588 54.6943L200.178 61.0801L202.361 55.7607C202.598 55.1768 202.717 54.7282 202.717 54.415C202.691 54.1188 202.548 53.8945 202.285 53.7422C202.031 53.5814 201.625 53.4333 201.066 53.2979C201.058 53.2471 201.054 53.1497 201.054 53.0059C201.054 52.9043 201.054 52.8154 201.054 52.7393C201.062 52.6631 201.066 52.6123 201.066 52.5869H205.789C205.806 52.7308 205.814 52.9466 205.814 53.2344C205.654 53.3275 205.497 53.4036 205.345 53.4629C205.099 53.5729 204.896 53.6787 204.735 53.7803C204.583 53.8734 204.418 54.0215 204.24 54.2246C204.071 54.4277 203.91 54.6986 203.758 55.0371L199.822 64.1523ZM209.026 57.3223C209.018 57.4069 209.014 57.5296 209.014 57.6904C209.014 58.7568 209.204 59.6497 209.585 60.3691C209.974 61.0801 210.491 61.609 211.134 61.9561C211.785 62.2946 212.513 62.4639 213.317 62.4639C214.384 62.4639 215.412 62.1592 216.402 61.5498L216.771 61.9053C216.567 62.3962 216.225 62.8193 215.742 63.1748C215.268 63.5303 214.727 63.8011 214.117 63.9873C213.516 64.165 212.932 64.2539 212.365 64.2539C211.299 64.2539 210.338 64.0042 209.483 63.5049C208.637 63.0055 207.973 62.3073 207.49 61.4102C207.016 60.513 206.779 59.4847 206.779 58.3252C206.779 57.1488 207.037 56.0993 207.554 55.1768C208.07 54.2458 208.756 53.5264 209.61 53.0186C210.474 52.5023 211.396 52.2441 212.378 52.2441C213.182 52.2441 213.906 52.4092 214.549 52.7393C215.201 53.0609 215.729 53.5179 216.136 54.1104C216.542 54.6943 216.8 55.3672 216.91 56.1289C217.003 56.5182 217.05 56.8779 217.05 57.208V57.3223H209.026ZM213.597 56.5098C213.969 56.4928 214.282 56.4251 214.536 56.3066C214.477 55.2995 214.24 54.5124 213.825 53.9453C213.419 53.3783 212.839 53.0947 212.086 53.0947C211.536 53.0947 211.045 53.2598 210.613 53.5898C210.19 53.9199 209.847 54.36 209.585 54.9102C209.323 55.4518 209.153 56.0485 209.077 56.7002L213.597 56.5098ZM232.068 56.2686C232.068 55.6338 232.009 55.0964 231.891 54.6562C231.781 54.2161 231.552 53.8607 231.205 53.5898C230.867 53.319 230.38 53.1836 229.745 53.1836C229.525 53.1836 229.254 53.2301 228.933 53.3232C228.611 53.4163 228.327 53.5518 228.082 53.7295C227.845 53.8988 227.727 54.0977 227.727 54.3262C227.727 54.4193 227.743 54.5124 227.777 54.6055C227.811 54.6901 227.866 54.8001 227.942 54.9355C228.019 55.0625 228.074 55.1725 228.107 55.2656C228.141 55.3587 228.158 55.4561 228.158 55.5576C228.158 55.8962 228.048 56.1797 227.828 56.4082C227.617 56.6283 227.341 56.7383 227.003 56.7383C226.58 56.7383 226.241 56.5817 225.987 56.2686C225.742 55.9554 225.619 55.5788 225.619 55.1387C225.619 54.4785 225.877 53.9326 226.394 53.501C226.91 53.0693 227.532 52.752 228.26 52.5488C228.996 52.3457 229.682 52.2441 230.316 52.2441C231.51 52.2441 232.398 52.4219 232.982 52.7773C233.575 53.1243 233.964 53.6364 234.15 54.3135C234.345 54.9821 234.442 55.9215 234.442 57.1318L234.417 57.7666C234.409 57.9528 234.396 58.2617 234.379 58.6934C234.37 59.125 234.366 59.5228 234.366 59.8867C234.366 61.791 234.565 62.7432 234.963 62.7432C235.251 62.7432 235.623 62.4512 236.08 61.8672L236.613 62.4385C236.241 63.0479 235.873 63.5049 235.509 63.8096C235.145 64.1058 234.667 64.2539 234.074 64.2539C233.516 64.2539 233.054 64.0804 232.69 63.7334C232.335 63.3779 232.14 62.9209 232.106 62.3623C231.565 62.9548 230.955 63.4202 230.278 63.7588C229.61 64.0889 228.899 64.2539 228.146 64.2539C227.621 64.2539 227.134 64.1608 226.686 63.9746C226.245 63.7799 225.89 63.4922 225.619 63.1113C225.357 62.7305 225.226 62.2734 225.226 61.7402C225.226 60.9362 225.535 60.2676 226.152 59.7344C226.77 59.2012 227.481 58.7949 228.285 58.5156C229.089 58.2363 230.071 57.957 231.23 57.6777C231.332 57.6608 231.611 57.5931 232.068 57.4746V56.2686ZM232.068 58.2236C231.941 58.266 231.781 58.3167 231.586 58.376C230.858 58.613 230.236 58.8415 229.72 59.0615C229.203 59.2731 228.742 59.5609 228.336 59.9248C227.93 60.2887 227.727 60.7161 227.727 61.207C227.727 61.7064 227.862 62.0999 228.133 62.3877C228.412 62.6755 228.801 62.8193 229.301 62.8193C229.8 62.8193 230.283 62.6966 230.748 62.4512C231.214 62.1973 231.654 61.8672 232.068 61.4609V58.2236ZM241.831 61.1816C241.831 61.9095 242.013 62.4385 242.377 62.7686C242.749 63.0902 243.312 63.2891 244.065 63.3652C244.065 63.4922 244.061 63.6191 244.053 63.7461C244.044 63.873 244.04 63.9577 244.04 64H237.502L237.489 63.5938C237.489 63.4583 237.493 63.3652 237.502 63.3145C237.993 63.196 238.361 63.0902 238.606 62.9971C238.86 62.904 239.068 62.7516 239.229 62.54C239.389 62.3285 239.47 62.0322 239.47 61.6514V54.7705C239.368 54.5758 239.169 54.4023 238.873 54.25C238.577 54.0892 238.264 53.958 237.934 53.8564C237.612 53.7464 237.451 53.6956 237.451 53.7041L237.489 53.2725L240.955 52.4092L241.729 52.3584L241.869 54.415C242.335 53.7887 242.927 53.2725 243.646 52.8662C244.374 52.4515 245.157 52.2441 245.995 52.2441C247.222 52.2441 248.174 52.5911 248.852 53.2852C249.529 53.9792 249.897 55.016 249.956 56.3955C249.981 56.9372 249.994 57.4915 249.994 58.0586V60.8896C249.994 61.5075 250.032 61.9561 250.108 62.2354C250.185 62.5146 250.303 62.7093 250.464 62.8193C250.633 62.9209 250.912 63.0309 251.302 63.1494L251.835 63.3145C251.843 63.3652 251.848 63.4583 251.848 63.5938L251.835 64H245.576C245.576 63.9492 245.572 63.8646 245.563 63.7461C245.555 63.6191 245.551 63.4922 245.551 63.3652C245.61 63.3398 245.779 63.2891 246.059 63.2129C246.507 63.0859 246.854 62.9505 247.1 62.8066C247.354 62.6628 247.506 62.43 247.557 62.1084C247.599 61.863 247.62 61.5371 247.62 61.1309V58.2998C247.62 57.1742 247.578 56.3066 247.493 55.6973C247.417 55.0879 247.205 54.5885 246.858 54.1992C246.52 53.8099 245.97 53.6152 245.208 53.6152C244.607 53.6152 244.027 53.7887 243.469 54.1357C242.919 54.4827 242.373 54.944 241.831 55.5195V61.1816ZM254.057 54.9609C253.854 54.5039 253.659 54.1611 253.473 53.9326C253.286 53.7041 253.113 53.556 252.952 53.4883C252.8 53.4121 252.618 53.3571 252.406 53.3232C252.279 53.3063 252.161 53.2809 252.051 53.2471V52.5869H258.005C258.022 52.6631 258.043 52.8027 258.068 53.0059C258.102 53.2005 258.102 53.3021 258.068 53.3105C257.51 53.4121 257.099 53.5306 256.837 53.666C256.575 53.793 256.443 53.9919 256.443 54.2627C256.443 54.4404 256.498 54.7028 256.608 55.0498L259.122 61.3086L261.293 55.4307C261.42 55.1006 261.483 54.8128 261.483 54.5674C261.483 54.2035 261.352 53.9284 261.09 53.7422C260.827 53.5475 260.409 53.3994 259.833 53.2979C259.825 53.2471 259.82 53.1497 259.82 53.0059C259.82 52.9043 259.82 52.8154 259.82 52.7393C259.829 52.6631 259.833 52.6123 259.833 52.5869H264.492L264.505 53.2344C264.369 53.3444 264.183 53.4417 263.946 53.5264C263.726 53.6195 263.54 53.7126 263.388 53.8057C263.244 53.8903 263.1 54.0299 262.956 54.2246C262.821 54.4193 262.706 54.6859 262.613 55.0244L258.106 66.1201C257.734 67.0511 257.29 67.7663 256.773 68.2656C256.266 68.765 255.618 69.0146 254.831 69.0146C254.264 69.0146 253.794 68.8792 253.422 68.6084C253.058 68.346 252.876 67.9906 252.876 67.542C252.876 67.2119 252.99 66.9326 253.219 66.7041C253.456 66.4756 253.739 66.3613 254.069 66.3613C254.366 66.3613 254.586 66.4121 254.729 66.5137C254.882 66.6152 255.03 66.7676 255.174 66.9707C255.284 67.123 255.385 67.2373 255.479 67.3135C255.58 67.3981 255.715 67.4404 255.885 67.4404C256.147 67.4404 256.38 67.3219 256.583 67.085C256.786 66.848 256.977 66.5264 257.154 66.1201C257.34 65.7223 257.599 65.096 257.929 64.2412L258.018 64L254.057 54.9609ZM269.405 60.0137C269.405 60.877 269.435 61.4948 269.494 61.8672C269.553 62.2311 269.697 62.4977 269.926 62.667C270.154 62.8278 270.539 62.9082 271.081 62.9082C271.403 62.9082 271.724 62.8786 272.046 62.8193C272.368 62.7601 272.638 62.6966 272.858 62.6289L272.96 63.5557C272.528 63.7673 272.092 63.9365 271.652 64.0635C271.212 64.1904 270.683 64.2539 270.065 64.2539C269.244 64.2539 268.618 64.1185 268.187 63.8477C267.755 63.5768 267.454 63.141 267.285 62.54C267.116 61.9307 267.031 61.0758 267.031 59.9756V53.5391H265.14V53.0947C265.715 52.8662 266.198 52.5996 266.587 52.2949C266.985 51.9818 267.311 51.6602 267.564 51.3301C267.818 51 268.123 50.5641 268.479 50.0225C268.631 49.777 268.749 49.6162 268.834 49.54C268.919 49.4554 269.003 49.4131 269.088 49.4131C269.173 49.4131 269.24 49.4554 269.291 49.54C269.35 49.6162 269.38 49.7389 269.38 49.9082V52.5869H272.566V53.5391H269.405V60.0137ZM286.62 61.1943C286.62 61.846 286.785 62.3581 287.115 62.7305C287.454 63.0944 287.932 63.306 288.55 63.3652C288.55 63.4922 288.546 63.6191 288.537 63.7461C288.529 63.8646 288.524 63.9492 288.524 64H282.278C282.278 63.9492 282.274 63.8646 282.266 63.7461C282.257 63.6191 282.253 63.4922 282.253 63.3652C282.397 63.2975 282.676 63.2002 283.091 63.0732C283.412 62.9717 283.645 62.8786 283.789 62.7939C283.941 62.7008 284.056 62.54 284.132 62.3115C284.216 62.083 284.259 61.7402 284.259 61.2832V56.6748C284.259 55.7438 284.06 55.0033 283.662 54.4531C283.273 53.8945 282.659 53.6152 281.821 53.6152C281.22 53.6152 280.636 53.776 280.069 54.0977C279.511 54.4108 278.994 54.8171 278.521 55.3164V61.042C278.521 61.8037 278.694 62.3623 279.041 62.7178C279.388 63.0732 279.955 63.2891 280.742 63.3652L280.729 64H273.963C273.963 63.9492 273.959 63.8646 273.95 63.7461C273.942 63.6191 273.938 63.4922 273.938 63.3652C275.419 63.2467 276.159 62.4723 276.159 61.042V49.2227C276.075 49.0957 275.888 48.9434 275.601 48.7656C275.313 48.5794 275.008 48.4144 274.687 48.2705C274.373 48.1266 274.141 48.0462 273.988 48.0293V47.585L277.619 46.6201L278.521 46.5312V54.25C279.189 53.5814 279.845 53.082 280.488 52.752C281.132 52.4134 281.876 52.2441 282.723 52.2441C283.899 52.2441 284.843 52.6208 285.554 53.374C286.265 54.1188 286.62 55.2572 286.62 56.7891V61.1943ZM292.612 46.5312C293.019 46.5312 293.366 46.6751 293.653 46.9629C293.941 47.2507 294.085 47.5977 294.085 48.0039C294.085 48.4186 293.941 48.7699 293.653 49.0576C293.366 49.3369 293.019 49.4766 292.612 49.4766C292.198 49.4766 291.846 49.3369 291.559 49.0576C291.279 48.7699 291.14 48.4186 291.14 48.0039C291.14 47.5977 291.279 47.2507 291.559 46.9629C291.846 46.6751 292.198 46.5312 292.612 46.5312ZM291.597 54.7705C291.487 54.5758 291.279 54.4023 290.975 54.25C290.678 54.0892 290.369 53.958 290.048 53.8564C289.735 53.7464 289.578 53.6956 289.578 53.7041L289.604 53.2598L293.171 52.3965L293.958 52.3457V61.207C293.958 61.5033 293.988 61.7826 294.047 62.0449C294.115 62.3073 294.309 62.5739 294.631 62.8447C294.961 63.1156 295.477 63.2891 296.18 63.3652C296.18 63.6445 296.175 63.8561 296.167 64H289.54C289.523 63.8477 289.515 63.6361 289.515 63.3652L289.87 63.2637C290.243 63.1621 290.543 63.0605 290.771 62.959C291 62.8574 291.195 62.7093 291.355 62.5146C291.516 62.3115 291.597 62.0407 291.597 61.7021V54.7705ZM301.321 61.1816C301.321 61.9095 301.503 62.4385 301.867 62.7686C302.24 63.0902 302.802 63.2891 303.556 63.3652C303.556 63.4922 303.551 63.6191 303.543 63.7461C303.535 63.873 303.53 63.9577 303.53 64H296.992L296.979 63.5938C296.979 63.4583 296.984 63.3652 296.992 63.3145C297.483 63.196 297.851 63.0902 298.097 62.9971C298.351 62.904 298.558 62.7516 298.719 62.54C298.88 62.3285 298.96 62.0322 298.96 61.6514V54.7705C298.858 54.5758 298.66 54.4023 298.363 54.25C298.067 54.0892 297.754 53.958 297.424 53.8564C297.102 53.7464 296.941 53.6956 296.941 53.7041L296.979 53.2725L300.445 52.4092L301.22 52.3584L301.359 54.415C301.825 53.7887 302.417 53.2725 303.137 52.8662C303.865 52.4515 304.647 52.2441 305.485 52.2441C306.713 52.2441 307.665 52.5911 308.342 53.2852C309.019 53.9792 309.387 55.016 309.446 56.3955C309.472 56.9372 309.484 57.4915 309.484 58.0586V60.8896C309.484 61.5075 309.522 61.9561 309.599 62.2354C309.675 62.5146 309.793 62.7093 309.954 62.8193C310.123 62.9209 310.403 63.0309 310.792 63.1494L311.325 63.3145C311.334 63.3652 311.338 63.4583 311.338 63.5938L311.325 64H305.066C305.066 63.9492 305.062 63.8646 305.054 63.7461C305.045 63.6191 305.041 63.4922 305.041 63.3652C305.1 63.3398 305.27 63.2891 305.549 63.2129C305.997 63.0859 306.344 62.9505 306.59 62.8066C306.844 62.6628 306.996 62.43 307.047 62.1084C307.089 61.863 307.11 61.5371 307.11 61.1309V58.2998C307.11 57.1742 307.068 56.3066 306.983 55.6973C306.907 55.0879 306.696 54.5885 306.349 54.1992C306.01 53.8099 305.46 53.6152 304.698 53.6152C304.097 53.6152 303.518 53.7887 302.959 54.1357C302.409 54.4827 301.863 54.944 301.321 55.5195V61.1816ZM323.64 53.7803C323.453 53.721 323.149 53.6914 322.726 53.6914C322.387 53.6914 322.032 53.7083 321.659 53.7422C321.287 53.7676 321.046 53.7887 320.936 53.8057C320.936 53.7887 321.029 53.9115 321.215 54.1738C321.401 54.4277 321.566 54.724 321.71 55.0625C321.862 55.3926 321.938 55.7227 321.938 56.0527C321.938 56.9076 321.723 57.6396 321.291 58.249C320.859 58.8584 320.297 59.3197 319.603 59.6328C318.917 59.9375 318.198 60.0898 317.444 60.0898C317.021 60.0898 316.479 60.0137 315.819 59.8613C315.794 59.8783 315.697 59.9417 315.527 60.0518C315.316 60.1872 315.159 60.3141 315.058 60.4326C314.965 60.5426 314.918 60.7035 314.918 60.915C314.918 61.1266 315.028 61.2874 315.248 61.3975C315.468 61.499 315.764 61.571 316.137 61.6133C316.509 61.6471 317.102 61.681 317.914 61.7148C318.523 61.7402 319.205 61.7783 319.958 61.8291C321.033 61.9053 321.9 62.1846 322.561 62.667C323.221 63.1494 323.551 63.8138 323.551 64.6602C323.551 65.4219 323.267 66.0905 322.7 66.666C322.133 67.2415 321.367 67.6816 320.402 67.9863C319.446 68.2995 318.392 68.4561 317.241 68.4561C316.285 68.4561 315.455 68.3503 314.753 68.1387C314.05 67.9355 313.513 67.6689 313.141 67.3389C312.777 67.0173 312.595 66.6829 312.595 66.3359C312.595 65.9635 312.751 65.5531 313.064 65.1045C313.378 64.6559 313.868 64.1862 314.537 63.6953C314.063 63.5007 313.691 63.251 313.42 62.9463C313.158 62.6416 313.026 62.3031 313.026 61.9307C313.026 61.4821 313.208 61.0674 313.572 60.6865C313.936 60.3057 314.452 59.9206 315.121 59.5312C314.452 59.1504 313.936 58.6807 313.572 58.1221C313.208 57.5635 313.026 56.9287 313.026 56.2178C313.026 55.4561 313.213 54.7747 313.585 54.1738C313.966 53.5645 314.491 53.0905 315.159 52.752C315.836 52.4134 316.594 52.2441 317.432 52.2441C318.439 52.2441 319.37 52.4684 320.225 52.917C320.309 52.8831 320.5 52.8197 320.796 52.7266C321.092 52.625 321.443 52.5277 321.85 52.4346C322.264 52.3415 322.641 52.2949 322.979 52.2949C323.098 52.2949 323.216 52.3034 323.335 52.3203C323.462 52.3288 323.542 52.3372 323.576 52.3457L323.64 53.7803ZM315.286 55.9512C315.286 56.916 315.485 57.7074 315.883 58.3252C316.289 58.943 316.89 59.252 317.686 59.252C318.371 59.252 318.879 58.998 319.209 58.4902C319.548 57.9824 319.717 57.2926 319.717 56.4209C319.717 55.7354 319.611 55.1514 319.399 54.6689C319.196 54.1781 318.913 53.8099 318.549 53.5645C318.185 53.3105 317.779 53.1836 317.33 53.1836C316.949 53.1836 316.602 53.3021 316.289 53.5391C315.984 53.7676 315.739 54.0934 315.553 54.5166C315.375 54.9313 315.286 55.4095 315.286 55.9512ZM317.66 63.9619C317.017 63.9535 316.289 63.9027 315.477 63.8096C314.656 64.512 314.245 65.1553 314.245 65.7393C314.245 66.1455 314.431 66.4714 314.804 66.7168C315.185 66.9707 315.629 67.1484 316.137 67.25C316.653 67.3516 317.131 67.4023 317.571 67.4023C318.189 67.4023 318.828 67.3304 319.488 67.1865C320.148 67.0511 320.703 66.8395 321.151 66.5518C321.6 66.264 321.824 65.9128 321.824 65.498C321.824 65.041 321.57 64.6813 321.062 64.4189C320.563 64.1566 319.789 64.0127 318.739 63.9873L317.66 63.9619ZM71.1934 87.9609C70.9902 87.5039 70.7956 87.1611 70.6094 86.9326C70.4232 86.7041 70.2497 86.556 70.0889 86.4883C69.9365 86.4121 69.7546 86.3571 69.543 86.3232C69.416 86.3063 69.2975 86.2809 69.1875 86.2471V85.5869H75.1416C75.1585 85.6631 75.1797 85.8027 75.2051 86.0059C75.2389 86.2005 75.2389 86.3021 75.2051 86.3105C74.6465 86.4121 74.236 86.5306 73.9736 86.666C73.7113 86.793 73.5801 86.9919 73.5801 87.2627C73.5801 87.4404 73.6351 87.7028 73.7451 88.0498L76.2588 94.3086L78.4297 88.4307C78.5566 88.1006 78.6201 87.8128 78.6201 87.5674C78.6201 87.2035 78.4889 86.9284 78.2266 86.7422C77.9642 86.5475 77.5452 86.3994 76.9697 86.2979C76.9613 86.2471 76.957 86.1497 76.957 86.0059C76.957 85.9043 76.957 85.8154 76.957 85.7393C76.9655 85.6631 76.9697 85.6123 76.9697 85.5869H81.6289L81.6416 86.2344C81.5062 86.3444 81.32 86.4417 81.083 86.5264C80.863 86.6195 80.6768 86.7126 80.5244 86.8057C80.3805 86.8903 80.2367 87.0299 80.0928 87.2246C79.9574 87.4193 79.8431 87.6859 79.75 88.0244L75.2432 99.1201C74.8708 100.051 74.4264 100.766 73.9102 101.266C73.4023 101.765 72.7549 102.015 71.9678 102.015C71.4007 102.015 70.931 101.879 70.5586 101.608C70.1947 101.346 70.0127 100.991 70.0127 100.542C70.0127 100.212 70.127 99.9326 70.3555 99.7041C70.5924 99.4756 70.876 99.3613 71.2061 99.3613C71.5023 99.3613 71.7223 99.4121 71.8662 99.5137C72.0186 99.6152 72.1667 99.7676 72.3105 99.9707C72.4206 100.123 72.5221 100.237 72.6152 100.313C72.7168 100.398 72.8522 100.44 73.0215 100.44C73.2839 100.44 73.5166 100.322 73.7197 100.085C73.9229 99.848 74.1133 99.5264 74.291 99.1201C74.4772 98.7223 74.7354 98.096 75.0654 97.2412L75.1543 97L71.1934 87.9609ZM88.1162 85.2441C89.2419 85.2441 90.266 85.4896 91.1885 85.9805C92.1195 86.4629 92.8558 87.1569 93.3975 88.0625C93.9391 88.9596 94.21 90.0049 94.21 91.1982C94.21 92.3916 93.9391 93.4495 93.3975 94.3721C92.8558 95.2861 92.1322 95.9971 91.2266 96.5049C90.321 97.0042 89.3307 97.2539 88.2559 97.2539C87.1895 97.2539 86.1908 96.9958 85.2598 96.4795C84.3288 95.9632 83.584 95.248 83.0254 94.334C82.4668 93.4115 82.1875 92.3704 82.1875 91.2109C82.1875 90.0514 82.4583 89.0189 83 88.1133C83.5417 87.1992 84.2653 86.4925 85.1709 85.9932C86.085 85.4938 87.0667 85.2441 88.1162 85.2441ZM88.4209 96.2637C89.4958 96.2637 90.3125 95.8786 90.8711 95.1084C91.4297 94.3382 91.709 93.3268 91.709 92.0742C91.709 90.9909 91.5566 89.9964 91.252 89.0908C90.9557 88.1768 90.5283 87.4489 89.9697 86.9072C89.4111 86.3656 88.7679 86.0947 88.04 86.0947C87.3968 86.0947 86.8255 86.2513 86.3262 86.5645C85.8353 86.8776 85.446 87.36 85.1582 88.0117C84.8704 88.6634 84.7266 89.4801 84.7266 90.4619C84.7266 91.4268 84.8789 92.3577 85.1836 93.2549C85.4883 94.1436 85.9199 94.8672 86.4785 95.4258C87.0371 95.9844 87.6846 96.2637 88.4209 96.2637ZM100.773 97.2539C99.7493 97.2539 98.958 97 98.3994 96.4922C97.8493 95.9759 97.4769 95.3073 97.2822 94.4863C97.0876 93.6654 96.9902 92.6878 96.9902 91.5537V87.7705C96.8802 87.5758 96.6729 87.4023 96.3682 87.25C96.0719 87.0892 95.763 86.958 95.4414 86.8564C95.1283 86.7464 94.9717 86.6956 94.9717 86.7041L94.9971 86.2598L98.5645 85.3965L99.3516 85.3457V91.4141C99.3516 92.4974 99.4193 93.3522 99.5547 93.9785C99.6901 94.5964 99.9186 95.0492 100.24 95.3369C100.562 95.6162 101.01 95.7559 101.586 95.7559C102.762 95.7559 103.871 95.2396 104.912 94.207V87.7705C104.802 87.5758 104.595 87.4023 104.29 87.25C103.994 87.0892 103.685 86.958 103.363 86.8564C103.05 86.7464 102.894 86.6956 102.894 86.7041L102.919 86.2598L106.486 85.3965L107.273 85.3457V94.4482C107.273 94.8037 107.362 95.0788 107.54 95.2734C107.718 95.4596 107.938 95.5951 108.2 95.6797C108.463 95.7643 108.822 95.8447 109.279 95.9209C109.279 96.0479 109.271 96.179 109.254 96.3145C109.245 96.4499 109.241 96.543 109.241 96.5938L105.077 97.1904L104.976 95.1592C103.723 96.5557 102.322 97.2539 100.773 97.2539ZM121.911 93.915L124.234 88.2656C124.074 87.6901 123.815 87.2077 123.46 86.8184C123.104 86.429 122.652 86.2217 122.102 86.1963L122.127 85.5869H127.738C127.755 85.8747 127.764 86.0778 127.764 86.1963C127.654 86.2471 127.48 86.3148 127.243 86.3994C126.922 86.5094 126.685 86.6195 126.532 86.7295C126.38 86.8395 126.304 87.013 126.304 87.25C126.304 87.4277 126.38 87.724 126.532 88.1387L128.602 93.8135L130.582 88.4688C130.743 88.054 130.823 87.707 130.823 87.4277C130.823 87.1738 130.785 86.9834 130.709 86.8564C130.633 86.721 130.527 86.6237 130.392 86.5645C130.256 86.5052 130.045 86.4375 129.757 86.3613L129.287 86.2344C129.27 86.1159 129.262 86.0143 129.262 85.9297C129.262 85.8535 129.27 85.7393 129.287 85.5869H133.743V86.2598C133.506 86.2936 133.244 86.3994 132.956 86.5771C132.677 86.7549 132.423 86.9707 132.194 87.2246C131.974 87.4701 131.822 87.707 131.737 87.9355L128.31 97.1777C128.225 97.2285 128.098 97.2539 127.929 97.2539C127.768 97.2539 127.637 97.2285 127.535 97.1777L124.653 89.4336L121.594 97.1777C121.492 97.2285 121.361 97.2539 121.2 97.2539C121.022 97.2539 120.887 97.2285 120.794 97.1777L117.252 88.126C117.091 87.7113 116.947 87.3896 116.82 87.1611C116.693 86.9326 116.524 86.738 116.312 86.5771C116.109 86.4079 115.839 86.2852 115.5 86.209L115.525 85.5869H120.756C120.764 85.7308 120.769 85.9339 120.769 86.1963C120.362 86.3317 120.045 86.484 119.816 86.6533C119.596 86.8226 119.486 87.0638 119.486 87.377C119.486 87.5208 119.507 87.6562 119.55 87.7832C119.55 87.8171 119.554 87.8467 119.562 87.8721L121.911 93.915ZM141.525 89.2686C141.525 88.6338 141.466 88.0964 141.348 87.6562C141.238 87.2161 141.009 86.8607 140.662 86.5898C140.324 86.319 139.837 86.1836 139.202 86.1836C138.982 86.1836 138.711 86.2301 138.39 86.3232C138.068 86.4163 137.785 86.5518 137.539 86.7295C137.302 86.8988 137.184 87.0977 137.184 87.3262C137.184 87.4193 137.201 87.5124 137.234 87.6055C137.268 87.6901 137.323 87.8001 137.399 87.9355C137.476 88.0625 137.531 88.1725 137.564 88.2656C137.598 88.3587 137.615 88.4561 137.615 88.5576C137.615 88.8962 137.505 89.1797 137.285 89.4082C137.074 89.6283 136.799 89.7383 136.46 89.7383C136.037 89.7383 135.698 89.5817 135.444 89.2686C135.199 88.9554 135.076 88.5788 135.076 88.1387C135.076 87.4785 135.334 86.9326 135.851 86.501C136.367 86.0693 136.989 85.752 137.717 85.5488C138.453 85.3457 139.139 85.2441 139.773 85.2441C140.967 85.2441 141.855 85.4219 142.439 85.7773C143.032 86.1243 143.421 86.6364 143.607 87.3135C143.802 87.9821 143.899 88.9215 143.899 90.1318L143.874 90.7666C143.866 90.9528 143.853 91.2617 143.836 91.6934C143.827 92.125 143.823 92.5228 143.823 92.8867C143.823 94.791 144.022 95.7432 144.42 95.7432C144.708 95.7432 145.08 95.4512 145.537 94.8672L146.07 95.4385C145.698 96.0479 145.33 96.5049 144.966 96.8096C144.602 97.1058 144.124 97.2539 143.531 97.2539C142.973 97.2539 142.511 97.0804 142.147 96.7334C141.792 96.3779 141.597 95.9209 141.563 95.3623C141.022 95.9548 140.412 96.4202 139.735 96.7588C139.067 97.0889 138.356 97.2539 137.603 97.2539C137.078 97.2539 136.591 97.1608 136.143 96.9746C135.702 96.7799 135.347 96.4922 135.076 96.1113C134.814 95.7305 134.683 95.2734 134.683 94.7402C134.683 93.9362 134.992 93.2676 135.609 92.7344C136.227 92.2012 136.938 91.7949 137.742 91.5156C138.546 91.2363 139.528 90.957 140.688 90.6777C140.789 90.6608 141.068 90.5931 141.525 90.4746V89.2686ZM141.525 91.2236C141.398 91.266 141.238 91.3167 141.043 91.376C140.315 91.613 139.693 91.8415 139.177 92.0615C138.66 92.2731 138.199 92.5609 137.793 92.9248C137.387 93.2887 137.184 93.7161 137.184 94.207C137.184 94.7064 137.319 95.0999 137.59 95.3877C137.869 95.6755 138.258 95.8193 138.758 95.8193C139.257 95.8193 139.74 95.6966 140.205 95.4512C140.671 95.1973 141.111 94.8672 141.525 94.4609V91.2236ZM151.288 94.1816C151.288 94.9095 151.47 95.4385 151.834 95.7686C152.206 96.0902 152.769 96.2891 153.522 96.3652C153.522 96.4922 153.518 96.6191 153.51 96.7461C153.501 96.873 153.497 96.9577 153.497 97H146.959L146.946 96.5938C146.946 96.4583 146.951 96.3652 146.959 96.3145C147.45 96.196 147.818 96.0902 148.063 95.9971C148.317 95.904 148.525 95.7516 148.686 95.54C148.846 95.3285 148.927 95.0322 148.927 94.6514V87.7705C148.825 87.5758 148.626 87.4023 148.33 87.25C148.034 87.0892 147.721 86.958 147.391 86.8564C147.069 86.7464 146.908 86.6956 146.908 86.7041L146.946 86.2725L150.412 85.4092L151.187 85.3584L151.326 87.415C151.792 86.7887 152.384 86.2725 153.104 85.8662C153.831 85.4515 154.614 85.2441 155.452 85.2441C156.679 85.2441 157.632 85.5911 158.309 86.2852C158.986 86.9792 159.354 88.016 159.413 89.3955C159.438 89.9372 159.451 90.4915 159.451 91.0586V93.8896C159.451 94.5075 159.489 94.9561 159.565 95.2354C159.642 95.5146 159.76 95.7093 159.921 95.8193C160.09 95.9209 160.369 96.0309 160.759 96.1494L161.292 96.3145C161.3 96.3652 161.305 96.4583 161.305 96.5938L161.292 97H155.033C155.033 96.9492 155.029 96.8646 155.021 96.7461C155.012 96.6191 155.008 96.4922 155.008 96.3652C155.067 96.3398 155.236 96.2891 155.516 96.2129C155.964 96.0859 156.311 95.9505 156.557 95.8066C156.811 95.6628 156.963 95.43 157.014 95.1084C157.056 94.863 157.077 94.5371 157.077 94.1309V91.2998C157.077 90.1742 157.035 89.3066 156.95 88.6973C156.874 88.0879 156.662 87.5885 156.315 87.1992C155.977 86.8099 155.427 86.6152 154.665 86.6152C154.064 86.6152 153.484 86.7887 152.926 87.1357C152.376 87.4827 151.83 87.944 151.288 88.5195V94.1816ZM166.294 93.0137C166.294 93.877 166.324 94.4948 166.383 94.8672C166.442 95.2311 166.586 95.4977 166.814 95.667C167.043 95.8278 167.428 95.9082 167.97 95.9082C168.291 95.9082 168.613 95.8786 168.935 95.8193C169.256 95.7601 169.527 95.6966 169.747 95.6289L169.849 96.5557C169.417 96.7673 168.981 96.9365 168.541 97.0635C168.101 97.1904 167.572 97.2539 166.954 97.2539C166.133 97.2539 165.507 97.1185 165.075 96.8477C164.644 96.5768 164.343 96.141 164.174 95.54C164.005 94.9307 163.92 94.0758 163.92 92.9756V86.5391H162.028V86.0947C162.604 85.8662 163.086 85.5996 163.476 85.2949C163.873 84.9818 164.199 84.6602 164.453 84.3301C164.707 84 165.012 83.5641 165.367 83.0225C165.52 82.777 165.638 82.6162 165.723 82.54C165.807 82.4554 165.892 82.4131 165.977 82.4131C166.061 82.4131 166.129 82.4554 166.18 82.54C166.239 82.6162 166.269 82.7389 166.269 82.9082V85.5869H169.455V86.5391H166.294V93.0137ZM180.132 79.5312C180.538 79.5312 180.885 79.6751 181.173 79.9629C181.461 80.2507 181.604 80.5977 181.604 81.0039C181.604 81.4186 181.461 81.7699 181.173 82.0576C180.885 82.3369 180.538 82.4766 180.132 82.4766C179.717 82.4766 179.366 82.3369 179.078 82.0576C178.799 81.7699 178.659 81.4186 178.659 81.0039C178.659 80.5977 178.799 80.2507 179.078 79.9629C179.366 79.6751 179.717 79.5312 180.132 79.5312ZM179.116 87.7705C179.006 87.5758 178.799 87.4023 178.494 87.25C178.198 87.0892 177.889 86.958 177.567 86.8564C177.254 86.7464 177.098 86.6956 177.098 86.7041L177.123 86.2598L180.69 85.3965L181.478 85.3457V94.207C181.478 94.5033 181.507 94.7826 181.566 95.0449C181.634 95.3073 181.829 95.5739 182.15 95.8447C182.48 96.1156 182.997 96.2891 183.699 96.3652C183.699 96.6445 183.695 96.8561 183.687 97H177.06C177.043 96.8477 177.034 96.6361 177.034 96.3652L177.39 96.2637C177.762 96.1621 178.062 96.0605 178.291 95.959C178.52 95.8574 178.714 95.7093 178.875 95.5146C179.036 95.3115 179.116 95.0407 179.116 94.7021V87.7705ZM188.841 94.1816C188.841 94.9095 189.023 95.4385 189.387 95.7686C189.759 96.0902 190.322 96.2891 191.075 96.3652C191.075 96.4922 191.071 96.6191 191.062 96.7461C191.054 96.873 191.05 96.9577 191.05 97H184.512L184.499 96.5938C184.499 96.4583 184.503 96.3652 184.512 96.3145C185.003 96.196 185.371 96.0902 185.616 95.9971C185.87 95.904 186.077 95.7516 186.238 95.54C186.399 95.3285 186.479 95.0322 186.479 94.6514V87.7705C186.378 87.5758 186.179 87.4023 185.883 87.25C185.587 87.0892 185.273 86.958 184.943 86.8564C184.622 86.7464 184.461 86.6956 184.461 86.7041L184.499 86.2725L187.965 85.4092L188.739 85.3584L188.879 87.415C189.344 86.7887 189.937 86.2725 190.656 85.8662C191.384 85.4515 192.167 85.2441 193.005 85.2441C194.232 85.2441 195.184 85.5911 195.861 86.2852C196.538 86.9792 196.907 88.016 196.966 89.3955C196.991 89.9372 197.004 90.4915 197.004 91.0586V93.8896C197.004 94.5075 197.042 94.9561 197.118 95.2354C197.194 95.5146 197.313 95.7093 197.474 95.8193C197.643 95.9209 197.922 96.0309 198.312 96.1494L198.845 96.3145C198.853 96.3652 198.857 96.4583 198.857 96.5938L198.845 97H192.586C192.586 96.9492 192.582 96.8646 192.573 96.7461C192.565 96.6191 192.561 96.4922 192.561 96.3652C192.62 96.3398 192.789 96.2891 193.068 96.2129C193.517 96.0859 193.864 95.9505 194.109 95.8066C194.363 95.6628 194.516 95.43 194.566 95.1084C194.609 94.863 194.63 94.5371 194.63 94.1309V91.2998C194.63 90.1742 194.588 89.3066 194.503 88.6973C194.427 88.0879 194.215 87.5885 193.868 87.1992C193.53 86.8099 192.979 86.6152 192.218 86.6152C191.617 86.6152 191.037 86.7887 190.479 87.1357C189.928 87.4827 189.382 87.944 188.841 88.5195V94.1816ZM210.258 94.0293C210.258 94.7402 210.402 95.2904 210.689 95.6797C210.986 96.0605 211.472 96.2891 212.149 96.3652C212.149 96.4922 212.145 96.6191 212.137 96.7461C212.128 96.873 212.124 96.9577 212.124 97H205.878L205.865 96.3652C205.941 96.3145 206.039 96.2679 206.157 96.2256C206.284 96.1833 206.411 96.1452 206.538 96.1113C206.91 96.0098 207.202 95.8997 207.414 95.7812C207.626 95.6543 207.753 95.4681 207.795 95.2227C207.863 94.8587 207.896 94.4863 207.896 94.1055L207.884 82.1592C207.782 81.9899 207.575 81.8249 207.262 81.6641C206.957 81.4948 206.657 81.3551 206.36 81.2451C206.064 81.1266 205.874 81.0547 205.789 81.0293L205.814 80.585L209.344 79.6201L210.258 79.5312V94.0293ZM216.542 79.5312C216.948 79.5312 217.295 79.6751 217.583 79.9629C217.871 80.2507 218.015 80.5977 218.015 81.0039C218.015 81.4186 217.871 81.7699 217.583 82.0576C217.295 82.3369 216.948 82.4766 216.542 82.4766C216.127 82.4766 215.776 82.3369 215.488 82.0576C215.209 81.7699 215.069 81.4186 215.069 81.0039C215.069 80.5977 215.209 80.2507 215.488 79.9629C215.776 79.6751 216.127 79.5312 216.542 79.5312ZM215.526 87.7705C215.416 87.5758 215.209 87.4023 214.904 87.25C214.608 87.0892 214.299 86.958 213.978 86.8564C213.664 86.7464 213.508 86.6956 213.508 86.7041L213.533 86.2598L217.101 85.3965L217.888 85.3457V94.207C217.888 94.5033 217.917 94.7826 217.977 95.0449C218.044 95.3073 218.239 95.5739 218.561 95.8447C218.891 96.1156 219.407 96.2891 220.109 96.3652C220.109 96.6445 220.105 96.8561 220.097 97H213.47C213.453 96.8477 213.444 96.6361 213.444 96.3652L213.8 96.2637C214.172 96.1621 214.473 96.0605 214.701 95.959C214.93 95.8574 215.124 95.7093 215.285 95.5146C215.446 95.3115 215.526 95.0407 215.526 94.7021V87.7705ZM226.114 93.7119C226.114 94.2197 226.14 94.6302 226.19 94.9434C226.25 95.248 226.461 95.5527 226.825 95.8574C227.198 96.1536 227.799 96.3229 228.628 96.3652C228.628 96.6276 228.624 96.8392 228.615 97H221.493C221.476 96.6784 221.468 96.4668 221.468 96.3652C221.671 96.306 221.87 96.2552 222.064 96.2129C222.521 96.0944 222.856 95.9844 223.067 95.8828C223.279 95.7812 223.444 95.612 223.562 95.375C223.689 95.1296 223.753 94.7614 223.753 94.2705V86.5391H221.772L221.747 85.5869H222.623C222.936 85.5869 223.16 85.5742 223.296 85.5488C223.431 85.515 223.533 85.4346 223.601 85.3076C223.668 85.1807 223.702 84.9691 223.702 84.6729C223.736 83.0225 224.146 81.7572 224.934 80.877C225.721 79.9967 226.834 79.5566 228.272 79.5566C229.153 79.5566 229.885 79.7217 230.469 80.0518C231.053 80.3734 231.345 80.8177 231.345 81.3848C231.345 81.7148 231.239 81.9899 231.027 82.21C230.816 82.4215 230.524 82.5273 230.151 82.5273C229.847 82.5273 229.614 82.4385 229.453 82.2607C229.301 82.0745 229.144 81.7995 228.983 81.4355C228.823 81.0716 228.666 80.8008 228.514 80.623C228.37 80.4453 228.15 80.3564 227.854 80.3564C227.464 80.3564 227.143 80.4665 226.889 80.6865C226.643 80.9066 226.453 81.2874 226.317 81.8291C226.182 82.3623 226.114 83.0986 226.114 84.0381V85.5869H229.034L229.06 86.5391H226.114V93.7119ZM233.224 90.3223C233.215 90.4069 233.211 90.5296 233.211 90.6904C233.211 91.7568 233.401 92.6497 233.782 93.3691C234.172 94.0801 234.688 94.609 235.331 94.9561C235.983 95.2946 236.711 95.4639 237.515 95.4639C238.581 95.4639 239.609 95.1592 240.6 94.5498L240.968 94.9053C240.765 95.3962 240.422 95.8193 239.939 96.1748C239.465 96.5303 238.924 96.8011 238.314 96.9873C237.714 97.165 237.13 97.2539 236.562 97.2539C235.496 97.2539 234.535 97.0042 233.681 96.5049C232.834 96.0055 232.17 95.3073 231.688 94.4102C231.214 93.513 230.977 92.4847 230.977 91.3252C230.977 90.1488 231.235 89.0993 231.751 88.1768C232.267 87.2458 232.953 86.5264 233.808 86.0186C234.671 85.5023 235.593 85.2441 236.575 85.2441C237.379 85.2441 238.103 85.4092 238.746 85.7393C239.398 86.0609 239.927 86.5179 240.333 87.1104C240.739 87.6943 240.997 88.3672 241.107 89.1289C241.201 89.5182 241.247 89.8779 241.247 90.208V90.3223H233.224ZM237.794 89.5098C238.166 89.4928 238.479 89.4251 238.733 89.3066C238.674 88.2995 238.437 87.5124 238.022 86.9453C237.616 86.3783 237.036 86.0947 236.283 86.0947C235.733 86.0947 235.242 86.2598 234.811 86.5898C234.387 86.9199 234.045 87.36 233.782 87.9102C233.52 88.4518 233.351 89.0485 233.274 89.7002L237.794 89.5098ZM251.987 79.5312C252.394 79.5312 252.741 79.6751 253.028 79.9629C253.316 80.2507 253.46 80.5977 253.46 81.0039C253.46 81.4186 253.316 81.7699 253.028 82.0576C252.741 82.3369 252.394 82.4766 251.987 82.4766C251.573 82.4766 251.221 82.3369 250.934 82.0576C250.654 81.7699 250.515 81.4186 250.515 81.0039C250.515 80.5977 250.654 80.2507 250.934 79.9629C251.221 79.6751 251.573 79.5312 251.987 79.5312ZM250.972 87.7705C250.862 87.5758 250.654 87.4023 250.35 87.25C250.053 87.0892 249.744 86.958 249.423 86.8564C249.11 86.7464 248.953 86.6956 248.953 86.7041L248.979 86.2598L252.546 85.3965L253.333 85.3457V94.207C253.333 94.5033 253.363 94.7826 253.422 95.0449C253.49 95.3073 253.684 95.5739 254.006 95.8447C254.336 96.1156 254.852 96.2891 255.555 96.3652C255.555 96.6445 255.55 96.8561 255.542 97H248.915C248.898 96.8477 248.89 96.6361 248.89 96.3652L249.245 96.2637C249.618 96.1621 249.918 96.0605 250.146 95.959C250.375 95.8574 250.57 95.7093 250.73 95.5146C250.891 95.3115 250.972 95.0407 250.972 94.7021V87.7705ZM261.56 93.7119C261.56 94.2197 261.585 94.6302 261.636 94.9434C261.695 95.248 261.907 95.5527 262.271 95.8574C262.643 96.1536 263.244 96.3229 264.073 96.3652C264.073 96.6276 264.069 96.8392 264.061 97H256.938C256.922 96.6784 256.913 96.4668 256.913 96.3652C257.116 96.306 257.315 96.2552 257.51 96.2129C257.967 96.0944 258.301 95.9844 258.513 95.8828C258.724 95.7812 258.889 95.612 259.008 95.375C259.135 95.1296 259.198 94.7614 259.198 94.2705V86.5391H257.218L257.192 85.5869H258.068C258.382 85.5869 258.606 85.5742 258.741 85.5488C258.877 85.515 258.978 85.4346 259.046 85.3076C259.114 85.1807 259.147 84.9691 259.147 84.6729C259.181 83.0225 259.592 81.7572 260.379 80.877C261.166 79.9967 262.279 79.5566 263.718 79.5566C264.598 79.5566 265.33 79.7217 265.914 80.0518C266.498 80.3734 266.79 80.8177 266.79 81.3848C266.79 81.7148 266.684 81.9899 266.473 82.21C266.261 82.4215 265.969 82.5273 265.597 82.5273C265.292 82.5273 265.059 82.4385 264.898 82.2607C264.746 82.0745 264.59 81.7995 264.429 81.4355C264.268 81.0716 264.111 80.8008 263.959 80.623C263.815 80.4453 263.595 80.3564 263.299 80.3564C262.91 80.3564 262.588 80.4665 262.334 80.6865C262.089 80.9066 261.898 81.2874 261.763 81.8291C261.627 82.3623 261.56 83.0986 261.56 84.0381V85.5869H264.479L264.505 86.5391H261.56V93.7119ZM273.48 87.9609C273.277 87.5039 273.083 87.1611 272.896 86.9326C272.71 86.7041 272.537 86.556 272.376 86.4883C272.224 86.4121 272.042 86.3571 271.83 86.3232C271.703 86.3063 271.585 86.2809 271.475 86.2471V85.5869H277.429C277.446 85.6631 277.467 85.8027 277.492 86.0059C277.526 86.2005 277.526 86.3021 277.492 86.3105C276.934 86.4121 276.523 86.5306 276.261 86.666C275.998 86.793 275.867 86.9919 275.867 87.2627C275.867 87.4404 275.922 87.7028 276.032 88.0498L278.546 94.3086L280.717 88.4307C280.844 88.1006 280.907 87.8128 280.907 87.5674C280.907 87.2035 280.776 86.9284 280.514 86.7422C280.251 86.5475 279.832 86.3994 279.257 86.2979C279.248 86.2471 279.244 86.1497 279.244 86.0059C279.244 85.9043 279.244 85.8154 279.244 85.7393C279.253 85.6631 279.257 85.6123 279.257 85.5869H283.916L283.929 86.2344C283.793 86.3444 283.607 86.4417 283.37 86.5264C283.15 86.6195 282.964 86.7126 282.812 86.8057C282.668 86.8903 282.524 87.0299 282.38 87.2246C282.244 87.4193 282.13 87.6859 282.037 88.0244L277.53 99.1201C277.158 100.051 276.714 100.766 276.197 101.266C275.689 101.765 275.042 102.015 274.255 102.015C273.688 102.015 273.218 101.879 272.846 101.608C272.482 101.346 272.3 100.991 272.3 100.542C272.3 100.212 272.414 99.9326 272.643 99.7041C272.88 99.4756 273.163 99.3613 273.493 99.3613C273.789 99.3613 274.009 99.4121 274.153 99.5137C274.306 99.6152 274.454 99.7676 274.598 99.9707C274.708 100.123 274.809 100.237 274.902 100.313C275.004 100.398 275.139 100.44 275.309 100.44C275.571 100.44 275.804 100.322 276.007 100.085C276.21 99.848 276.4 99.5264 276.578 99.1201C276.764 98.7223 277.022 98.096 277.353 97.2412L277.441 97L273.48 87.9609ZM290.403 85.2441C291.529 85.2441 292.553 85.4896 293.476 85.9805C294.407 86.4629 295.143 87.1569 295.685 88.0625C296.226 88.9596 296.497 90.0049 296.497 91.1982C296.497 92.3916 296.226 93.4495 295.685 94.3721C295.143 95.2861 294.419 95.9971 293.514 96.5049C292.608 97.0042 291.618 97.2539 290.543 97.2539C289.477 97.2539 288.478 96.9958 287.547 96.4795C286.616 95.9632 285.871 95.248 285.312 94.334C284.754 93.4115 284.475 92.3704 284.475 91.2109C284.475 90.0514 284.745 89.0189 285.287 88.1133C285.829 87.1992 286.552 86.4925 287.458 85.9932C288.372 85.4938 289.354 85.2441 290.403 85.2441ZM290.708 96.2637C291.783 96.2637 292.6 95.8786 293.158 95.1084C293.717 94.3382 293.996 93.3268 293.996 92.0742C293.996 90.9909 293.844 89.9964 293.539 89.0908C293.243 88.1768 292.815 87.4489 292.257 86.9072C291.698 86.3656 291.055 86.0947 290.327 86.0947C289.684 86.0947 289.113 86.2513 288.613 86.5645C288.122 86.8776 287.733 87.36 287.445 88.0117C287.158 88.6634 287.014 89.4801 287.014 90.4619C287.014 91.4268 287.166 92.3577 287.471 93.2549C287.775 94.1436 288.207 94.8672 288.766 95.4258C289.324 95.9844 289.972 96.2637 290.708 96.2637ZM303.061 97.2539C302.036 97.2539 301.245 97 300.687 96.4922C300.136 95.9759 299.764 95.3073 299.569 94.4863C299.375 93.6654 299.277 92.6878 299.277 91.5537V87.7705C299.167 87.5758 298.96 87.4023 298.655 87.25C298.359 87.0892 298.05 86.958 297.729 86.8564C297.415 86.7464 297.259 86.6956 297.259 86.7041L297.284 86.2598L300.852 85.3965L301.639 85.3457V91.4141C301.639 92.4974 301.706 93.3522 301.842 93.9785C301.977 94.5964 302.206 95.0492 302.527 95.3369C302.849 95.6162 303.298 95.7559 303.873 95.7559C305.049 95.7559 306.158 95.2396 307.199 94.207V87.7705C307.089 87.5758 306.882 87.4023 306.577 87.25C306.281 87.0892 305.972 86.958 305.65 86.8564C305.337 86.7464 305.181 86.6956 305.181 86.7041L305.206 86.2598L308.773 85.3965L309.561 85.3457V94.4482C309.561 94.8037 309.649 95.0788 309.827 95.2734C310.005 95.4596 310.225 95.5951 310.487 95.6797C310.75 95.7643 311.109 95.8447 311.566 95.9209C311.566 96.0479 311.558 96.179 311.541 96.3145C311.533 96.4499 311.528 96.543 311.528 96.5938L307.364 97.1904L307.263 95.1592C306.01 96.5557 304.609 97.2539 303.061 97.2539ZM79.623 115.083C79.513 114.914 79.2972 114.744 78.9756 114.575C78.6624 114.406 78.3535 114.262 78.0488 114.144C77.7526 114.025 77.5579 113.953 77.4648 113.928L77.4902 113.483L81.0703 112.62L81.9844 112.531V127.474C81.9844 127.981 82.2002 128.345 82.6318 128.565C83.0719 128.785 83.5417 128.896 84.041 128.896V129.594L80.6514 130.152H79.8008L79.6865 128.185C79.0856 128.879 78.4551 129.399 77.7949 129.746C77.1348 130.085 76.4281 130.254 75.6748 130.254C74.7184 130.254 73.8424 130.025 73.0469 129.568C72.2598 129.103 71.6377 128.455 71.1807 127.626C70.7236 126.788 70.4951 125.827 70.4951 124.744C70.4951 123.5 70.749 122.387 71.2568 121.405C71.7731 120.424 72.4798 119.658 73.377 119.107C74.2741 118.557 75.277 118.282 76.3857 118.282C76.902 118.282 77.4056 118.363 77.8965 118.523C78.3874 118.676 78.9629 118.909 79.623 119.222V115.083ZM79.623 123.525C79.623 122.704 79.5511 122.044 79.4072 121.545C79.2633 121.037 78.9714 120.589 78.5312 120.199C78.1927 119.903 77.8288 119.674 77.4395 119.514C77.0501 119.344 76.6566 119.26 76.2588 119.26C75.5902 119.26 74.9977 119.476 74.4814 119.907C73.9652 120.339 73.5632 120.914 73.2754 121.634C72.9961 122.345 72.8564 123.115 72.8564 123.944C72.8564 124.748 72.9961 125.519 73.2754 126.255C73.5632 126.983 73.9906 127.579 74.5576 128.045C75.1247 128.51 75.8102 128.743 76.6143 128.743C77.2575 128.743 77.8288 128.604 78.3281 128.324C78.8359 128.036 79.2676 127.656 79.623 127.182V123.525ZM89.2969 127.067C89.2969 127.465 89.3392 127.821 89.4238 128.134C89.5169 128.438 89.7327 128.709 90.0713 128.946C90.4098 129.183 90.9176 129.323 91.5947 129.365L91.582 130H84.9678C84.9678 129.932 84.9635 129.822 84.9551 129.67C84.9551 129.518 84.9593 129.399 84.9678 129.314L85.3867 129.2C85.8353 129.082 86.1569 128.972 86.3516 128.87C86.5462 128.769 86.6901 128.591 86.7832 128.337C86.8848 128.075 86.9355 127.677 86.9355 127.144V120.758C86.8255 120.572 86.6224 120.402 86.3262 120.25C86.0299 120.089 85.721 119.958 85.3994 119.856C85.0863 119.755 84.9297 119.708 84.9297 119.717L84.9551 119.272L88.332 118.371H89.0557L89.2588 120.707C89.7327 119.835 90.2236 119.217 90.7314 118.854C91.2477 118.49 91.8359 118.308 92.4961 118.308C92.8346 118.308 93.1393 118.38 93.4102 118.523C93.6895 118.659 93.9053 118.837 94.0576 119.057C94.2184 119.268 94.2988 119.484 94.2988 119.704C94.2988 119.848 94.2565 120.043 94.1719 120.288C94.0957 120.534 93.973 120.749 93.8037 120.936C93.6429 121.122 93.444 121.215 93.207 121.215C92.9362 121.215 92.7246 121.156 92.5723 121.037C92.4199 120.91 92.2633 120.724 92.1025 120.479C91.984 120.292 91.8698 120.153 91.7598 120.06C91.6582 119.966 91.527 119.92 91.3662 119.92C91.0954 119.92 90.8499 120 90.6299 120.161C90.4183 120.313 90.2321 120.504 90.0713 120.732C89.9105 120.961 89.7158 121.266 89.4873 121.646L89.2969 121.964V127.067ZM97.5361 123.322C97.5277 123.407 97.5234 123.53 97.5234 123.69C97.5234 124.757 97.7139 125.65 98.0947 126.369C98.484 127.08 99.0003 127.609 99.6436 127.956C100.295 128.295 101.023 128.464 101.827 128.464C102.894 128.464 103.922 128.159 104.912 127.55L105.28 127.905C105.077 128.396 104.734 128.819 104.252 129.175C103.778 129.53 103.236 129.801 102.627 129.987C102.026 130.165 101.442 130.254 100.875 130.254C99.8086 130.254 98.848 130.004 97.9932 129.505C97.1468 129.006 96.4824 128.307 96 127.41C95.526 126.513 95.2891 125.485 95.2891 124.325C95.2891 123.149 95.5472 122.099 96.0635 121.177C96.5798 120.246 97.2653 119.526 98.1201 119.019C98.9834 118.502 99.9059 118.244 100.888 118.244C101.692 118.244 102.415 118.409 103.059 118.739C103.71 119.061 104.239 119.518 104.646 120.11C105.052 120.694 105.31 121.367 105.42 122.129C105.513 122.518 105.56 122.878 105.56 123.208V123.322H97.5361ZM102.106 122.51C102.479 122.493 102.792 122.425 103.046 122.307C102.987 121.299 102.75 120.512 102.335 119.945C101.929 119.378 101.349 119.095 100.596 119.095C100.046 119.095 99.5547 119.26 99.123 119.59C98.6999 119.92 98.3571 120.36 98.0947 120.91C97.8324 121.452 97.6631 122.049 97.5869 122.7L102.106 122.51ZM115.259 121.989C115.14 121.998 114.941 122.002 114.662 122.002C114.417 121.147 114.044 120.449 113.545 119.907C113.054 119.366 112.424 119.095 111.653 119.095C111.12 119.095 110.697 119.226 110.384 119.488C110.079 119.751 109.927 120.132 109.927 120.631C109.927 120.978 110.054 121.299 110.308 121.596C110.562 121.892 110.87 122.154 111.234 122.383C111.607 122.603 112.093 122.865 112.694 123.17C112.838 123.238 113.054 123.348 113.342 123.5C114.29 124.008 114.979 124.528 115.411 125.062C115.851 125.586 116.071 126.229 116.071 126.991C116.071 127.694 115.898 128.29 115.551 128.781C115.204 129.264 114.726 129.632 114.116 129.886C113.507 130.131 112.809 130.254 112.021 130.254C111.327 130.254 110.625 130.169 109.914 130C109.203 129.839 108.619 129.619 108.162 129.34V126.242C108.492 126.2 108.716 126.179 108.835 126.179C109.03 127.118 109.372 127.884 109.863 128.477C110.363 129.069 111.044 129.365 111.907 129.365C112.525 129.365 113.037 129.213 113.443 128.908C113.858 128.595 114.065 128.185 114.065 127.677C114.065 127.355 113.972 127.072 113.786 126.826C113.6 126.581 113.359 126.365 113.062 126.179C112.766 125.993 112.322 125.743 111.729 125.43C110.934 125.007 110.329 124.664 109.914 124.401C109.271 124.004 108.784 123.559 108.454 123.068C108.132 122.577 107.972 121.993 107.972 121.316C107.972 120.665 108.137 120.11 108.467 119.653C108.797 119.188 109.245 118.837 109.812 118.6C110.38 118.363 111.019 118.244 111.729 118.244C112.381 118.244 112.999 118.325 113.583 118.485C114.175 118.646 114.709 118.875 115.183 119.171L115.259 121.989ZM126.101 121.989C125.982 121.998 125.783 122.002 125.504 122.002C125.258 121.147 124.886 120.449 124.387 119.907C123.896 119.366 123.265 119.095 122.495 119.095C121.962 119.095 121.539 119.226 121.226 119.488C120.921 119.751 120.769 120.132 120.769 120.631C120.769 120.978 120.896 121.299 121.149 121.596C121.403 121.892 121.712 122.154 122.076 122.383C122.449 122.603 122.935 122.865 123.536 123.17C123.68 123.238 123.896 123.348 124.184 123.5C125.132 124.008 125.821 124.528 126.253 125.062C126.693 125.586 126.913 126.229 126.913 126.991C126.913 127.694 126.74 128.29 126.393 128.781C126.046 129.264 125.567 129.632 124.958 129.886C124.349 130.131 123.65 130.254 122.863 130.254C122.169 130.254 121.467 130.169 120.756 130C120.045 129.839 119.461 129.619 119.004 129.34V126.242C119.334 126.2 119.558 126.179 119.677 126.179C119.871 127.118 120.214 127.884 120.705 128.477C121.204 129.069 121.886 129.365 122.749 129.365C123.367 129.365 123.879 129.213 124.285 128.908C124.7 128.595 124.907 128.185 124.907 127.677C124.907 127.355 124.814 127.072 124.628 126.826C124.442 126.581 124.201 126.365 123.904 126.179C123.608 125.993 123.164 125.743 122.571 125.43C121.776 125.007 121.171 124.664 120.756 124.401C120.113 124.004 119.626 123.559 119.296 123.068C118.974 122.577 118.813 121.993 118.813 121.316C118.813 120.665 118.979 120.11 119.309 119.653C119.639 119.188 120.087 118.837 120.654 118.6C121.221 118.363 121.86 118.244 122.571 118.244C123.223 118.244 123.841 118.325 124.425 118.485C125.017 118.646 125.55 118.875 126.024 119.171L126.101 121.989ZM140.015 126.712C140.015 127.22 140.04 127.63 140.091 127.943C140.15 128.248 140.362 128.553 140.726 128.857C141.098 129.154 141.699 129.323 142.528 129.365C142.528 129.628 142.524 129.839 142.516 130H135.394C135.377 129.678 135.368 129.467 135.368 129.365C135.571 129.306 135.77 129.255 135.965 129.213C136.422 129.094 136.756 128.984 136.968 128.883C137.179 128.781 137.344 128.612 137.463 128.375C137.59 128.13 137.653 127.761 137.653 127.271V119.539H135.673L135.647 118.587H136.523C136.837 118.587 137.061 118.574 137.196 118.549C137.332 118.515 137.433 118.435 137.501 118.308C137.569 118.181 137.603 117.969 137.603 117.673C137.636 116.022 138.047 114.757 138.834 113.877C139.621 112.997 140.734 112.557 142.173 112.557C143.053 112.557 143.785 112.722 144.369 113.052C144.953 113.373 145.245 113.818 145.245 114.385C145.245 114.715 145.139 114.99 144.928 115.21C144.716 115.422 144.424 115.527 144.052 115.527C143.747 115.527 143.514 115.438 143.354 115.261C143.201 115.075 143.045 114.799 142.884 114.436C142.723 114.072 142.566 113.801 142.414 113.623C142.27 113.445 142.05 113.356 141.754 113.356C141.365 113.356 141.043 113.466 140.789 113.687C140.544 113.907 140.353 114.287 140.218 114.829C140.082 115.362 140.015 116.099 140.015 117.038V118.587H142.935L142.96 119.539H140.015V126.712ZM150.806 118.244C151.931 118.244 152.955 118.49 153.878 118.98C154.809 119.463 155.545 120.157 156.087 121.062C156.629 121.96 156.899 123.005 156.899 124.198C156.899 125.392 156.629 126.45 156.087 127.372C155.545 128.286 154.822 128.997 153.916 129.505C153.01 130.004 152.02 130.254 150.945 130.254C149.879 130.254 148.88 129.996 147.949 129.479C147.018 128.963 146.273 128.248 145.715 127.334C145.156 126.411 144.877 125.37 144.877 124.211C144.877 123.051 145.148 122.019 145.689 121.113C146.231 120.199 146.955 119.493 147.86 118.993C148.774 118.494 149.756 118.244 150.806 118.244ZM151.11 129.264C152.185 129.264 153.002 128.879 153.561 128.108C154.119 127.338 154.398 126.327 154.398 125.074C154.398 123.991 154.246 122.996 153.941 122.091C153.645 121.177 153.218 120.449 152.659 119.907C152.101 119.366 151.457 119.095 150.729 119.095C150.086 119.095 149.515 119.251 149.016 119.564C148.525 119.878 148.135 120.36 147.848 121.012C147.56 121.663 147.416 122.48 147.416 123.462C147.416 124.427 147.568 125.358 147.873 126.255C148.178 127.144 148.609 127.867 149.168 128.426C149.727 128.984 150.374 129.264 151.11 129.264ZM162.828 127.067C162.828 127.465 162.87 127.821 162.955 128.134C163.048 128.438 163.264 128.709 163.603 128.946C163.941 129.183 164.449 129.323 165.126 129.365L165.113 130H158.499C158.499 129.932 158.495 129.822 158.486 129.67C158.486 129.518 158.491 129.399 158.499 129.314L158.918 129.2C159.367 129.082 159.688 128.972 159.883 128.87C160.077 128.769 160.221 128.591 160.314 128.337C160.416 128.075 160.467 127.677 160.467 127.144V120.758C160.357 120.572 160.154 120.402 159.857 120.25C159.561 120.089 159.252 119.958 158.931 119.856C158.618 119.755 158.461 119.708 158.461 119.717L158.486 119.272L161.863 118.371H162.587L162.79 120.707C163.264 119.835 163.755 119.217 164.263 118.854C164.779 118.49 165.367 118.308 166.027 118.308C166.366 118.308 166.671 118.38 166.941 118.523C167.221 118.659 167.437 118.837 167.589 119.057C167.75 119.268 167.83 119.484 167.83 119.704C167.83 119.848 167.788 120.043 167.703 120.288C167.627 120.534 167.504 120.749 167.335 120.936C167.174 121.122 166.975 121.215 166.738 121.215C166.467 121.215 166.256 121.156 166.104 121.037C165.951 120.91 165.795 120.724 165.634 120.479C165.515 120.292 165.401 120.153 165.291 120.06C165.189 119.966 165.058 119.92 164.897 119.92C164.627 119.92 164.381 120 164.161 120.161C163.95 120.313 163.763 120.504 163.603 120.732C163.442 120.961 163.247 121.266 163.019 121.646L162.828 121.964V127.067ZM177.923 112.531C178.329 112.531 178.676 112.675 178.964 112.963C179.252 113.251 179.396 113.598 179.396 114.004C179.396 114.419 179.252 114.77 178.964 115.058C178.676 115.337 178.329 115.477 177.923 115.477C177.508 115.477 177.157 115.337 176.869 115.058C176.59 114.77 176.45 114.419 176.45 114.004C176.45 113.598 176.59 113.251 176.869 112.963C177.157 112.675 177.508 112.531 177.923 112.531ZM176.907 120.771C176.797 120.576 176.59 120.402 176.285 120.25C175.989 120.089 175.68 119.958 175.358 119.856C175.045 119.746 174.889 119.696 174.889 119.704L174.914 119.26L178.481 118.396L179.269 118.346V127.207C179.269 127.503 179.298 127.783 179.357 128.045C179.425 128.307 179.62 128.574 179.941 128.845C180.271 129.116 180.788 129.289 181.49 129.365C181.49 129.645 181.486 129.856 181.478 130H174.851C174.834 129.848 174.825 129.636 174.825 129.365L175.181 129.264C175.553 129.162 175.854 129.061 176.082 128.959C176.311 128.857 176.505 128.709 176.666 128.515C176.827 128.312 176.907 128.041 176.907 127.702V120.771ZM186.403 126.014C186.403 126.877 186.433 127.495 186.492 127.867C186.551 128.231 186.695 128.498 186.924 128.667C187.152 128.828 187.537 128.908 188.079 128.908C188.401 128.908 188.722 128.879 189.044 128.819C189.366 128.76 189.636 128.697 189.856 128.629L189.958 129.556C189.526 129.767 189.09 129.937 188.65 130.063C188.21 130.19 187.681 130.254 187.063 130.254C186.243 130.254 185.616 130.118 185.185 129.848C184.753 129.577 184.452 129.141 184.283 128.54C184.114 127.931 184.029 127.076 184.029 125.976V119.539H182.138V119.095C182.713 118.866 183.196 118.6 183.585 118.295C183.983 117.982 184.309 117.66 184.562 117.33C184.816 117 185.121 116.564 185.477 116.022C185.629 115.777 185.747 115.616 185.832 115.54C185.917 115.455 186.001 115.413 186.086 115.413C186.171 115.413 186.238 115.455 186.289 115.54C186.348 115.616 186.378 115.739 186.378 115.908V118.587H189.564V119.539H186.403V126.014ZM195.696 128.527C195.696 128.832 195.616 129.116 195.455 129.378C195.303 129.64 195.091 129.852 194.82 130.013C194.558 130.174 194.266 130.254 193.944 130.254C193.631 130.254 193.339 130.174 193.068 130.013C192.806 129.86 192.594 129.653 192.434 129.391C192.281 129.12 192.205 128.832 192.205 128.527C192.205 128.223 192.281 127.939 192.434 127.677C192.594 127.414 192.806 127.207 193.068 127.055C193.339 126.894 193.631 126.813 193.944 126.813C194.266 126.813 194.558 126.894 194.82 127.055C195.091 127.207 195.303 127.414 195.455 127.677C195.616 127.939 195.696 128.223 195.696 128.527ZM199.073 119.209C199.124 119.175 199.293 119.082 199.581 118.93C199.979 118.727 200.296 118.549 200.533 118.396C200.77 118.236 200.965 118.033 201.117 117.787C201.278 117.542 201.358 117.241 201.358 116.886C201.231 116.708 201.079 116.564 200.901 116.454C200.732 116.344 200.516 116.268 200.254 116.226C199.814 116.149 199.484 115.989 199.264 115.743C199.044 115.498 198.934 115.176 198.934 114.778C198.934 114.313 199.099 113.924 199.429 113.61C199.759 113.297 200.182 113.141 200.698 113.141C201.147 113.141 201.545 113.251 201.892 113.471C202.247 113.691 202.518 114 202.704 114.397C202.899 114.787 202.996 115.235 202.996 115.743C202.996 116.369 202.856 116.979 202.577 117.571C202.298 118.164 201.896 118.676 201.371 119.107C200.855 119.531 200.245 119.806 199.543 119.933C199.289 119.713 199.132 119.471 199.073 119.209ZM204.558 119.209C204.668 119.141 204.841 119.048 205.078 118.93C205.484 118.718 205.798 118.536 206.018 118.384C206.246 118.223 206.437 118.02 206.589 117.774C206.75 117.529 206.83 117.233 206.83 116.886C206.703 116.708 206.551 116.564 206.373 116.454C206.204 116.344 205.992 116.268 205.738 116.226C205.298 116.149 204.968 115.989 204.748 115.743C204.528 115.498 204.418 115.176 204.418 114.778C204.418 114.313 204.579 113.924 204.9 113.61C205.23 113.297 205.658 113.141 206.183 113.141C206.631 113.141 207.029 113.251 207.376 113.471C207.723 113.691 207.99 114 208.176 114.397C208.37 114.787 208.468 115.235 208.468 115.743C208.468 116.369 208.328 116.979 208.049 117.571C207.77 118.164 207.368 118.676 206.843 119.107C206.326 119.531 205.717 119.806 205.015 119.933C204.769 119.721 204.617 119.48 204.558 119.209Z" fill="#CCA298"/>
</svg>
