<svg width="406" height="174" viewBox="0 0 406 174" fill="none" xmlns="http://www.w3.org/2000/svg">
<path d="M0 32.9768C0 28.6589 0 26.5 0.435011 25.1521C1.97831 20.3702 7.13825 17.7782 11.8958 19.395C13.2369 19.8507 14.9688 21.1396 18.4327 23.7174C19.1007 24.2145 19.4346 24.463 19.7816 24.6754C20.9613 25.3978 22.2917 25.8385 23.6693 25.9633C24.0745 26 24.4908 26 25.3234 26H298C335.712 26 354.569 26 366.284 37.7157C378 49.4315 378 68.2876 378 106V160C378 166.6 378 169.899 375.95 171.95C373.9 174 370.6 174 364 174H41.0294C31.3251 174 21.9349 170.56 14.5268 164.292C5.3136 156.496 0 145.039 0 132.971V32.9768Z" fill="#CCA298"/>
<path d="M10 22.9768C10 18.6589 10 16.5 10.435 15.1521C11.9783 10.3702 17.1383 7.77819 21.8958 9.39496C23.2369 9.85069 24.9688 11.1396 28.4327 13.7174C29.1007 14.2145 29.4346 14.463 29.7816 14.6754C30.9613 15.3978 32.2917 15.8385 33.6693 15.9633C34.0745 16 34.4908 16 35.3234 16H308C345.712 16 364.569 16 376.284 27.7157C388 39.4315 388 58.2876 388 96V137.887C388 139.482 388 140.28 388.171 141.039C388.296 141.592 388.487 142.128 388.741 142.636C389.089 143.332 389.594 143.949 390.604 145.183C395.759 151.483 398.337 154.634 398.222 157.301C398.141 159.189 397.299 160.964 395.89 162.222C393.898 164 389.828 164 381.687 164H41.7524C35.0869 164 28.5904 161.902 23.1835 158.004C14.9052 152.036 10 142.453 10 132.248V22.9768Z" fill="white"/>
<path d="M16.9823 138.446C16.1158 136.168 15.5206 133.779 15.2221 131.325L15.7185 131.265C15.5738 130.076 15.5 128.872 15.5 127.658V124.344H15V117.715H15.5V111.087H15V104.458H15.5V97.8299H15V91.2014H15.5V84.5729H15V77.9445H15.5V71.316H15V64.6875H15.5V58.059H15V51.4305H15.5V44.8021H15V38.1736H15.5V31.5451H15V24.9166H15.5V21.6024C15.5 20.5499 15.8226 19.6586 16.3405 18.9556L15.9379 18.659C17.2018 16.9433 19.5268 16.2036 21.5498 16.8734L21.3926 17.3481C22.2215 17.6226 22.9999 18.1635 23.6081 19.0225C23.8624 19.3817 24.156 19.7047 24.481 19.9874L24.8092 19.6102C25.4078 20.131 26.1232 20.501 26.8941 20.6886L26.7759 21.1744C27.1944 21.2763 27.6278 21.3293 28.0678 21.3293H31.5045V20.8293H38.3777V21.3293H45.251V20.8293H52.1243V21.3293H58.9976V20.8293H65.8709V21.3293H72.7442V20.8293H79.6175V21.3293H86.4909V20.8293H93.3642V21.3293H100.237V20.8293H107.111V21.3293H113.984V20.8293H120.857V21.3293H127.731V20.8293H134.604V21.3293H141.477V20.8293H148.351V21.3293H155.224V20.8293H162.097V21.3293H168.971V20.8293H175.844V21.3293H182.717V20.8293H189.59V21.3293H196.464V20.8293H203.337V21.3293H210.21V20.8293H217.084V21.3293H223.957V20.8293H230.83V21.3293H237.704V20.8293H244.577V21.3293H251.45V20.8293H258.324V21.3293H265.197V20.8293H272.07V21.3293H278.943V20.8293H285.817V21.3293H292.69V20.8293H299.563V21.3293H303C304.201 21.3293 305.383 21.3293 306.546 21.3296L306.546 20.8296C308.994 20.8304 311.358 20.8329 313.643 20.8406L313.642 21.3406C316.096 21.3488 318.459 21.3631 320.734 21.3877L320.739 20.8877C323.199 20.9143 325.557 20.9531 327.818 21.0095L327.806 21.5093C330.281 21.571 332.639 21.6539 334.887 21.7651L334.912 21.2657C337.398 21.3887 339.753 21.5463 341.985 21.7483L341.94 22.2463C344.423 22.4711 346.75 22.7508 348.937 23.0987L349.016 22.6049C351.498 22.9998 353.804 23.4825 355.951 24.0726L355.819 24.5547C358.203 25.2099 360.384 25.997 362.393 26.9421L362.606 26.4897C364.803 27.5231 366.801 28.7451 368.636 30.1903L368.326 30.583C369.234 31.2977 370.1 32.068 370.931 32.8986C371.761 33.7291 372.532 34.5958 373.246 35.5029L373.639 35.1935C375.084 37.028 376.306 39.0263 377.34 41.223L376.887 41.4359C377.832 43.4448 378.619 45.6267 379.275 48.0108L379.757 47.8783C380.347 50.0257 380.829 52.3309 381.224 54.8135L380.731 54.892C381.078 57.0789 381.358 59.4067 381.583 61.8898L382.081 61.8447C382.283 64.0765 382.441 66.4308 382.564 68.9175L382.064 68.9422C382.175 71.1907 382.258 73.5486 382.32 76.0234L382.82 76.011C382.876 78.2723 382.915 80.6302 382.942 83.0902L382.442 83.0956C382.466 85.3704 382.48 87.7329 382.489 90.1877L382.989 90.1861C382.996 92.471 382.999 94.8354 383 97.2829L382.5 97.283C382.5 97.7218 382.5 98.1632 382.5 98.6073L382.5 100.829V104.096H383V110.628H382.5V117.161H383V123.694H382.5V130.226H383V136.759H382.5V140.025C382.5 141.259 382.605 142.483 382.812 143.685L383.305 143.6C383.711 145.966 384.518 148.245 385.691 150.339L385.254 150.584C385.85 151.648 386.538 152.666 387.314 153.624C387.622 154.004 387.786 154.423 387.834 154.84L388.331 154.782C388.458 155.874 387.934 156.973 387.005 157.562L386.737 157.139C386.383 157.364 385.954 157.5 385.465 157.5H381.922V158H374.837V157.5H367.751V158H360.665V157.5H353.579V158H346.493V157.5H339.407V158H332.321V157.5H325.235V158H318.149V157.5H311.063V158H303.977V157.5H296.892V158H289.806V157.5H282.72V158H275.634V157.5H268.548V158H261.462V157.5H254.376V158H247.29V157.5H240.204V158H233.118V157.5H226.033V158H218.947V157.5H211.861V158H204.775V157.5H197.689V158H190.603V157.5H183.517V158H176.431V157.5H169.345V158H162.259V157.5H155.173V158H148.088V157.5H141.002V158H133.916V157.5H126.83V158H119.744V157.5H112.658V158H105.572V157.5H98.4863V158H91.4004V157.5H84.3145V158H77.2286V157.5H70.1427V158H63.0568V157.5H55.9709V158H48.885V157.5H45.342C43.839 157.5 42.3448 157.387 40.8714 157.163L40.7965 157.658C37.7835 157.201 34.8561 156.293 32.1136 154.965L32.3316 154.515C30.9905 153.865 29.6943 153.113 28.4551 152.262C27.4542 151.576 26.5031 150.833 25.6047 150.041L25.2741 150.416C23.4202 148.782 21.7869 146.939 20.3995 144.936L20.8106 144.651C19.4366 142.667 18.3078 140.523 17.4496 138.268L16.9823 138.446Z" fill="white" stroke="#C17766" stroke-dasharray="7 7"/>
<path d="M217.935 124.084H231.195L230.974 125.376H217.714L217.935 124.084ZM243.241 128.113C242.856 128.476 242.471 128.793 242.085 129.065C241.7 129.337 241.298 129.564 240.878 129.745C240.47 129.926 240.034 130.057 239.569 130.136C239.105 130.227 238.6 130.272 238.056 130.272C237.274 130.272 236.555 130.142 235.897 129.881C235.24 129.62 234.673 129.252 234.197 128.776C233.721 128.3 233.347 127.728 233.075 127.059C232.815 126.39 232.684 125.642 232.684 124.815C232.684 123.874 232.866 122.968 233.228 122.095C233.602 121.222 234.118 120.452 234.775 119.783C235.433 119.103 236.209 118.565 237.104 118.168C238.011 117.76 238.997 117.556 240.062 117.556C240.538 117.556 240.986 117.613 241.405 117.726C241.825 117.828 242.21 117.97 242.561 118.151C242.924 118.332 243.247 118.548 243.53 118.797C243.814 119.046 244.046 119.313 244.227 119.596L242.969 120.633C242.595 120.089 242.165 119.692 241.677 119.443C241.19 119.182 240.595 119.052 239.892 119.052C239.11 119.052 238.374 119.211 237.682 119.528C237.002 119.845 236.407 120.27 235.897 120.803C235.399 121.324 235.002 121.925 234.707 122.605C234.424 123.285 234.282 123.993 234.282 124.73C234.282 125.342 234.379 125.897 234.571 126.396C234.775 126.895 235.053 127.32 235.404 127.671C235.767 128.022 236.186 128.294 236.662 128.487C237.15 128.68 237.677 128.776 238.243 128.776C239.093 128.776 239.83 128.617 240.453 128.3C241.077 127.971 241.672 127.529 242.238 126.974L243.241 128.113ZM249.089 121.398C250.166 121.398 250.976 121.647 251.52 122.146C252.075 122.645 252.353 123.319 252.353 124.169C252.353 124.305 252.342 124.452 252.319 124.611C252.308 124.758 252.291 124.911 252.268 125.07L251.384 130H249.888L250.092 128.844H250.024C249.752 129.241 249.378 129.581 248.902 129.864C248.426 130.136 247.893 130.272 247.304 130.272C246.896 130.272 246.516 130.21 246.165 130.085C245.814 129.972 245.508 129.802 245.247 129.575C244.998 129.348 244.799 129.082 244.652 128.776C244.505 128.459 244.431 128.102 244.431 127.705C244.431 127.229 244.533 126.798 244.737 126.413C244.952 126.028 245.241 125.705 245.604 125.444C245.967 125.172 246.392 124.962 246.879 124.815C247.378 124.668 247.916 124.594 248.494 124.594C248.959 124.594 249.367 124.645 249.718 124.747C250.081 124.838 250.426 124.957 250.755 125.104L250.823 124.747C250.846 124.656 250.857 124.543 250.857 124.407C250.857 123.92 250.681 123.529 250.33 123.234C249.979 122.939 249.514 122.792 248.936 122.792C248.494 122.792 248.097 122.877 247.746 123.047C247.406 123.217 247.072 123.5 246.743 123.897L245.519 123.03C245.916 122.497 246.42 122.095 247.032 121.823C247.655 121.54 248.341 121.398 249.089 121.398ZM247.627 128.878C247.978 128.878 248.313 128.816 248.63 128.691C248.959 128.566 249.248 128.396 249.497 128.181C249.758 127.954 249.979 127.694 250.16 127.399C250.341 127.093 250.46 126.77 250.517 126.43C250.381 126.328 250.211 126.232 250.007 126.141C249.826 126.073 249.599 126.011 249.327 125.954C249.066 125.886 248.749 125.852 248.375 125.852C248.092 125.852 247.808 125.886 247.525 125.954C247.253 126.022 247.009 126.13 246.794 126.277C246.579 126.424 246.403 126.606 246.267 126.821C246.131 127.036 246.063 127.286 246.063 127.569C246.063 127.784 246.108 127.977 246.199 128.147C246.29 128.306 246.403 128.442 246.539 128.555C246.686 128.657 246.851 128.736 247.032 128.793C247.225 128.85 247.423 128.878 247.627 128.878ZM252.757 130L254.219 121.67H255.715L255.477 123.03H255.545C255.806 122.554 256.18 122.169 256.667 121.874C257.166 121.579 257.698 121.432 258.265 121.432C258.526 121.432 258.724 121.449 258.86 121.483C259.007 121.517 259.155 121.568 259.302 121.636L258.639 123.149C258.492 123.104 258.35 123.075 258.214 123.064C258.089 123.041 257.931 123.03 257.738 123.03C257.432 123.03 257.132 123.092 256.837 123.217C256.554 123.342 256.293 123.517 256.055 123.744C255.817 123.959 255.613 124.226 255.443 124.543C255.284 124.849 255.171 125.189 255.103 125.563L254.321 130H252.757ZM260.395 121.67H261.891L261.687 122.826H261.755C262.049 122.384 262.429 122.038 262.894 121.789C263.358 121.528 263.902 121.398 264.526 121.398C265.149 121.398 265.665 121.54 266.073 121.823C266.492 122.106 266.781 122.497 266.94 122.996C267.246 122.509 267.659 122.123 268.181 121.84C268.713 121.545 269.325 121.398 270.017 121.398C270.878 121.398 271.518 121.625 271.938 122.078C272.368 122.531 272.584 123.104 272.584 123.795C272.584 123.988 272.572 124.186 272.55 124.39C272.527 124.594 272.487 124.838 272.431 125.121L271.581 130H270.017L270.884 125.036C270.906 124.877 270.923 124.736 270.935 124.611C270.957 124.475 270.969 124.345 270.969 124.22C270.969 123.778 270.844 123.438 270.595 123.2C270.345 122.951 269.954 122.826 269.422 122.826C269.082 122.826 268.77 122.9 268.487 123.047C268.203 123.194 267.948 123.387 267.722 123.625C267.506 123.863 267.319 124.135 267.161 124.441C267.013 124.747 266.911 125.064 266.855 125.393L266.039 130H264.475L265.342 125.036C265.364 124.877 265.381 124.736 265.393 124.611C265.415 124.475 265.427 124.345 265.427 124.22C265.427 123.778 265.291 123.438 265.019 123.2C264.758 122.951 264.378 122.826 263.88 122.826C263.54 122.826 263.222 122.9 262.928 123.047C262.644 123.194 262.389 123.393 262.163 123.642C261.947 123.88 261.766 124.152 261.619 124.458C261.471 124.764 261.369 125.076 261.313 125.393L260.497 130H258.933L260.395 121.67ZM281.331 128.028C280.889 128.765 280.323 129.326 279.631 129.711C278.94 130.085 278.198 130.272 277.404 130.272C276.792 130.272 276.248 130.17 275.772 129.966C275.308 129.762 274.911 129.49 274.582 129.15C274.265 128.799 274.021 128.396 273.851 127.943C273.693 127.478 273.613 126.985 273.613 126.464C273.613 125.818 273.721 125.195 273.936 124.594C274.163 123.982 274.486 123.438 274.905 122.962C275.325 122.486 275.829 122.106 276.418 121.823C277.019 121.54 277.688 121.398 278.424 121.398C279.002 121.398 279.512 121.489 279.954 121.67C280.396 121.851 280.765 122.101 281.059 122.418C281.354 122.735 281.575 123.104 281.722 123.523C281.87 123.942 281.943 124.396 281.943 124.883C281.943 125.087 281.932 125.302 281.909 125.529C281.887 125.756 281.847 125.954 281.79 126.124H275.228C275.217 126.237 275.211 126.328 275.211 126.396C275.211 126.464 275.211 126.538 275.211 126.617C275.211 126.991 275.274 127.32 275.398 127.603C275.534 127.886 275.71 128.119 275.925 128.3C276.141 128.481 276.384 128.617 276.656 128.708C276.928 128.799 277.206 128.844 277.489 128.844C278.056 128.844 278.56 128.708 279.002 128.436C279.456 128.164 279.83 127.801 280.124 127.348L281.331 128.028ZM280.362 124.832V124.645C280.362 124.407 280.317 124.18 280.226 123.965C280.147 123.738 280.017 123.546 279.835 123.387C279.665 123.217 279.45 123.081 279.189 122.979C278.929 122.877 278.623 122.826 278.271 122.826C277.591 122.826 277.008 123.013 276.52 123.387C276.044 123.75 275.71 124.231 275.517 124.832H280.362ZM282.524 130L284.666 117.828H286.23L284.088 130H282.524ZM293.141 130.272C292.654 130.272 292.195 130.198 291.764 130.051C291.333 129.915 290.942 129.705 290.591 129.422C290.251 129.139 289.968 128.793 289.741 128.385C289.514 127.977 289.361 127.507 289.282 126.974L290.795 126.362C290.829 126.702 290.903 127.019 291.016 127.314C291.141 127.597 291.311 127.852 291.526 128.079C291.741 128.294 291.996 128.464 292.291 128.589C292.597 128.714 292.943 128.776 293.328 128.776C293.657 128.776 293.98 128.725 294.297 128.623C294.626 128.51 294.915 128.357 295.164 128.164C295.413 127.96 295.612 127.722 295.759 127.45C295.918 127.167 295.997 126.849 295.997 126.498C295.997 125.988 295.827 125.58 295.487 125.274C295.147 124.957 294.597 124.651 293.838 124.356L293.107 124.084C292.801 123.971 292.501 123.829 292.206 123.659C291.923 123.489 291.668 123.285 291.441 123.047C291.214 122.798 291.027 122.514 290.88 122.197C290.744 121.868 290.676 121.489 290.676 121.058C290.676 120.548 290.784 120.078 290.999 119.647C291.226 119.216 291.526 118.848 291.9 118.542C292.274 118.236 292.71 117.998 293.209 117.828C293.708 117.647 294.235 117.556 294.79 117.556C295.391 117.556 295.906 117.641 296.337 117.811C296.768 117.981 297.125 118.196 297.408 118.457C297.691 118.706 297.907 118.978 298.054 119.273C298.201 119.568 298.292 119.834 298.326 120.072L296.813 120.633C296.79 120.474 296.739 120.304 296.66 120.123C296.581 119.93 296.456 119.755 296.286 119.596C296.116 119.437 295.901 119.307 295.64 119.205C295.379 119.103 295.056 119.052 294.671 119.052C294.354 119.052 294.048 119.097 293.753 119.188C293.47 119.267 293.22 119.386 293.005 119.545C292.79 119.704 292.62 119.902 292.495 120.14C292.37 120.367 292.308 120.627 292.308 120.922C292.308 121.398 292.467 121.778 292.784 122.061C293.113 122.344 293.572 122.594 294.161 122.809L294.892 123.081C295.266 123.217 295.617 123.387 295.946 123.591C296.286 123.784 296.575 124.01 296.813 124.271C297.062 124.52 297.261 124.815 297.408 125.155C297.555 125.484 297.629 125.852 297.629 126.26C297.629 126.883 297.51 127.444 297.272 127.943C297.045 128.442 296.728 128.867 296.32 129.218C295.923 129.558 295.447 129.819 294.892 130C294.348 130.181 293.764 130.272 293.141 130.272ZM301.364 122.826H301.432C301.716 122.418 302.101 122.078 302.588 121.806C303.076 121.534 303.631 121.398 304.254 121.398C305.07 121.398 305.722 121.63 306.209 122.095C306.708 122.56 306.957 123.183 306.957 123.965C306.957 124.135 306.946 124.328 306.923 124.543C306.912 124.758 306.884 124.979 306.838 125.206L305.988 130H304.424L305.308 125.002C305.354 124.775 305.376 124.549 305.376 124.322C305.376 123.812 305.218 123.438 304.9 123.2C304.594 122.951 304.181 122.826 303.659 122.826C303.319 122.826 302.996 122.894 302.69 123.03C302.396 123.166 302.129 123.353 301.891 123.591C301.665 123.818 301.472 124.09 301.313 124.407C301.155 124.713 301.047 125.042 300.99 125.393L300.174 130H298.61L300.072 121.67H301.568L301.364 122.826ZM313.009 121.398C313.587 121.398 314.114 121.506 314.59 121.721C315.078 121.925 315.491 122.208 315.831 122.571C316.171 122.934 316.432 123.359 316.613 123.846C316.806 124.322 316.902 124.832 316.902 125.376C316.902 126.067 316.778 126.713 316.528 127.314C316.279 127.903 315.933 128.419 315.491 128.861C315.049 129.303 314.522 129.649 313.91 129.898C313.298 130.147 312.635 130.272 311.921 130.272C311.343 130.272 310.811 130.17 310.323 129.966C309.847 129.751 309.439 129.462 309.099 129.099C308.759 128.736 308.493 128.317 308.3 127.841C308.119 127.354 308.028 126.838 308.028 126.294C308.028 125.603 308.153 124.962 308.402 124.373C308.652 123.772 308.997 123.251 309.439 122.809C309.881 122.367 310.408 122.021 311.02 121.772C311.632 121.523 312.295 121.398 313.009 121.398ZM312.074 128.844C312.573 128.844 313.021 128.753 313.417 128.572C313.825 128.379 314.165 128.13 314.437 127.824C314.721 127.507 314.936 127.15 315.083 126.753C315.231 126.345 315.304 125.92 315.304 125.478C315.304 125.093 315.236 124.741 315.1 124.424C314.976 124.095 314.8 123.812 314.573 123.574C314.358 123.336 314.097 123.155 313.791 123.03C313.497 122.894 313.185 122.826 312.856 122.826C312.358 122.826 311.904 122.922 311.496 123.115C311.1 123.296 310.76 123.546 310.476 123.863C310.204 124.169 309.995 124.526 309.847 124.934C309.7 125.331 309.626 125.75 309.626 126.192C309.626 126.577 309.689 126.934 309.813 127.263C309.949 127.58 310.125 127.858 310.34 128.096C310.567 128.334 310.828 128.521 311.122 128.657C311.428 128.782 311.746 128.844 312.074 128.844ZM324.668 130L323.733 123.608L320.537 130H318.956L317.749 121.67H319.347L320.078 127.96H320.095L323.274 121.67H324.889L325.824 127.96H325.841L328.799 121.67H330.431L326.266 130H324.668Z" fill="#C17766"/>
<path d="M64.7734 48.1309C64.3757 48.3424 64.0583 48.5286 63.8213 48.6895C63.5843 48.8503 63.3854 49.0534 63.2246 49.2988C63.0723 49.5443 62.9961 49.8405 62.9961 50.1875C63.123 50.3737 63.2712 50.5218 63.4404 50.6318C63.6182 50.7419 63.834 50.818 64.0879 50.8604C64.9766 51.0212 65.4209 51.4993 65.4209 52.2949C65.4209 52.7689 65.2559 53.1624 64.9258 53.4756C64.5957 53.7887 64.1683 53.9453 63.6436 53.9453C63.195 53.9453 62.7972 53.8353 62.4502 53.6152C62.1032 53.3952 61.8324 53.0863 61.6377 52.6885C61.4515 52.2907 61.3584 51.8379 61.3584 51.3301C61.3584 50.7122 61.4938 50.1071 61.7646 49.5146C62.0439 48.9137 62.446 48.4017 62.9707 47.9785C63.4954 47.5553 64.109 47.2803 64.8115 47.1533C65.0485 47.348 65.2008 47.585 65.2686 47.8643L64.7734 48.1309ZM70.1689 48.1309C69.7712 48.3424 69.4538 48.5286 69.2168 48.6895C68.9798 48.8503 68.7809 49.0534 68.6201 49.2988C68.4678 49.5443 68.3916 49.8405 68.3916 50.1875C68.6286 50.5514 68.9925 50.7757 69.4834 50.8604C70.3636 51.0212 70.8037 51.4993 70.8037 52.2949C70.8037 52.7689 70.6387 53.1624 70.3086 53.4756C69.987 53.7887 69.5638 53.9453 69.0391 53.9453C68.5905 53.9453 68.1927 53.8353 67.8457 53.6152C67.4987 53.3952 67.2279 53.0863 67.0332 52.6885C66.847 52.2907 66.7539 51.8379 66.7539 51.3301C66.7539 50.7122 66.8893 50.1071 67.1602 49.5146C67.4395 48.9137 67.8415 48.4017 68.3662 47.9785C68.891 47.5553 69.5046 47.2803 70.207 47.1533C70.444 47.348 70.5964 47.585 70.6641 47.8643L70.1689 48.1309ZM87.9932 64.1143C87.8577 64.1396 87.7223 64.1523 87.5869 64.1523C87.4261 64.1523 87.1849 64.127 86.8633 64.0762C86.5417 64.0254 86.2962 64 86.127 64H73.1016L73.0762 63.3779C73.3385 63.234 73.5798 63.1325 73.7998 63.0732C74.0283 63.0055 74.278 62.9505 74.5488 62.9082C74.8874 62.849 75.1328 62.7728 75.2852 62.6797C75.446 62.5866 75.5687 62.3877 75.6533 62.083C75.738 61.7699 75.7803 61.279 75.7803 60.6104V51C75.7803 50.3398 75.7253 49.8532 75.6152 49.54C75.5137 49.2269 75.3613 49.0111 75.1582 48.8926C74.9551 48.7656 74.6165 48.6302 74.1426 48.4863C74.0664 48.4609 73.9183 48.4144 73.6982 48.3467C73.4867 48.279 73.2793 48.2028 73.0762 48.1182L73.1016 47.4707H86.0508C86.1693 47.4707 86.2962 47.4622 86.4316 47.4453C86.5755 47.4284 86.6771 47.4157 86.7363 47.4072C86.9902 47.3649 87.2188 47.3438 87.4219 47.3438C87.5996 47.3438 87.7562 47.3607 87.8916 47.3945V51.3428L87.2314 51.3682C87.0876 51.2243 86.9691 51.0635 86.876 50.8857C86.7829 50.708 86.6771 50.4753 86.5586 50.1875C86.3893 49.7643 86.2201 49.4342 86.0508 49.1973C85.89 48.9603 85.6488 48.7868 85.3271 48.6768C84.8532 48.5244 84.265 48.4271 83.5625 48.3848C82.86 48.3424 82.0475 48.3213 81.125 48.3213C80.0417 48.3213 79.1868 48.3594 78.5605 48.4355C78.5267 48.8164 78.5098 49.2523 78.5098 49.7432V54.8975H82.166C82.8346 54.8975 83.334 54.8467 83.6641 54.7451C83.9941 54.6436 84.248 54.4785 84.4258 54.25C84.612 54.0215 84.8659 53.6152 85.1875 53.0312L85.3779 52.6885H86.1016V58.1348L85.3779 58.1729C85.1071 57.445 84.7601 56.8779 84.3369 56.4717C83.9222 56.0654 83.3636 55.8623 82.6611 55.8623H78.5098V60.1406C78.5098 61.0293 78.6113 61.6852 78.8145 62.1084C79.026 62.5316 79.3265 62.8066 79.7158 62.9336C80.1136 63.0521 80.6764 63.1113 81.4043 63.1113H82.6484C83.7148 63.1113 84.6331 62.9928 85.4033 62.7559C86.182 62.5104 86.7575 62.0153 87.1299 61.2705L87.3076 60.877C87.46 60.5469 87.5827 60.3014 87.6758 60.1406C87.7689 59.9714 87.8874 59.8105 88.0312 59.6582H88.8311L87.9932 64.1143ZM94.7852 61.0293C94.7852 61.7402 94.929 62.2904 95.2168 62.6797C95.513 63.0605 95.9997 63.2891 96.6768 63.3652C96.6768 63.4922 96.6725 63.6191 96.6641 63.7461C96.6556 63.873 96.6514 63.9577 96.6514 64H90.4053L90.3926 63.3652C90.4688 63.3145 90.5661 63.2679 90.6846 63.2256C90.8115 63.1833 90.9385 63.1452 91.0654 63.1113C91.4378 63.0098 91.7298 62.8997 91.9414 62.7812C92.153 62.6543 92.2799 62.4681 92.3223 62.2227C92.39 61.8587 92.4238 61.4863 92.4238 61.1055L92.4111 49.1592C92.3096 48.9899 92.1022 48.8249 91.7891 48.6641C91.4844 48.4948 91.1839 48.3551 90.8877 48.2451C90.5915 48.1266 90.401 48.0547 90.3164 48.0293L90.3418 47.585L93.8711 46.6201L94.7852 46.5312V61.0293ZM100.638 57.3223C100.629 57.4069 100.625 57.5296 100.625 57.6904C100.625 58.7568 100.815 59.6497 101.196 60.3691C101.586 61.0801 102.102 61.609 102.745 61.9561C103.397 62.2946 104.125 62.4639 104.929 62.4639C105.995 62.4639 107.023 62.1592 108.014 61.5498L108.382 61.9053C108.179 62.3962 107.836 62.8193 107.354 63.1748C106.88 63.5303 106.338 63.8011 105.729 63.9873C105.128 64.165 104.544 64.2539 103.977 64.2539C102.91 64.2539 101.95 64.0042 101.095 63.5049C100.248 63.0055 99.584 62.3073 99.1016 61.4102C98.6276 60.513 98.3906 59.4847 98.3906 58.3252C98.3906 57.1488 98.6488 56.0993 99.165 55.1768C99.6813 54.2458 100.367 53.5264 101.222 53.0186C102.085 52.5023 103.007 52.2441 103.989 52.2441C104.793 52.2441 105.517 52.4092 106.16 52.7393C106.812 53.0609 107.341 53.5179 107.747 54.1104C108.153 54.6943 108.411 55.3672 108.521 56.1289C108.615 56.5182 108.661 56.8779 108.661 57.208V57.3223H100.638ZM105.208 56.5098C105.58 56.4928 105.894 56.4251 106.147 56.3066C106.088 55.2995 105.851 54.5124 105.437 53.9453C105.03 53.3783 104.451 53.0947 103.697 53.0947C103.147 53.0947 102.656 53.2598 102.225 53.5898C101.801 53.9199 101.459 54.36 101.196 54.9102C100.934 55.4518 100.765 56.0485 100.688 56.7002L105.208 56.5098ZM121.56 53.7803C121.373 53.721 121.069 53.6914 120.646 53.6914C120.307 53.6914 119.951 53.7083 119.579 53.7422C119.207 53.7676 118.965 53.7887 118.855 53.8057C118.855 53.7887 118.949 53.9115 119.135 54.1738C119.321 54.4277 119.486 54.724 119.63 55.0625C119.782 55.3926 119.858 55.7227 119.858 56.0527C119.858 56.9076 119.643 57.6396 119.211 58.249C118.779 58.8584 118.216 59.3197 117.522 59.6328C116.837 59.9375 116.118 60.0898 115.364 60.0898C114.941 60.0898 114.399 60.0137 113.739 59.8613C113.714 59.8783 113.617 59.9417 113.447 60.0518C113.236 60.1872 113.079 60.3141 112.978 60.4326C112.884 60.5426 112.838 60.7035 112.838 60.915C112.838 61.1266 112.948 61.2874 113.168 61.3975C113.388 61.499 113.684 61.571 114.057 61.6133C114.429 61.6471 115.021 61.681 115.834 61.7148C116.443 61.7402 117.125 61.7783 117.878 61.8291C118.953 61.9053 119.82 62.1846 120.48 62.667C121.141 63.1494 121.471 63.8138 121.471 64.6602C121.471 65.4219 121.187 66.0905 120.62 66.666C120.053 67.2415 119.287 67.6816 118.322 67.9863C117.366 68.2995 116.312 68.4561 115.161 68.4561C114.205 68.4561 113.375 68.3503 112.673 68.1387C111.97 67.9355 111.433 67.6689 111.061 67.3389C110.697 67.0173 110.515 66.6829 110.515 66.3359C110.515 65.9635 110.671 65.5531 110.984 65.1045C111.298 64.6559 111.788 64.1862 112.457 63.6953C111.983 63.5007 111.611 63.251 111.34 62.9463C111.077 62.6416 110.946 62.3031 110.946 61.9307C110.946 61.4821 111.128 61.0674 111.492 60.6865C111.856 60.3057 112.372 59.9206 113.041 59.5312C112.372 59.1504 111.856 58.6807 111.492 58.1221C111.128 57.5635 110.946 56.9287 110.946 56.2178C110.946 55.4561 111.132 54.7747 111.505 54.1738C111.886 53.5645 112.41 53.0905 113.079 52.752C113.756 52.4134 114.514 52.2441 115.352 52.2441C116.359 52.2441 117.29 52.4684 118.145 52.917C118.229 52.8831 118.42 52.8197 118.716 52.7266C119.012 52.625 119.363 52.5277 119.77 52.4346C120.184 52.3415 120.561 52.2949 120.899 52.2949C121.018 52.2949 121.136 52.3034 121.255 52.3203C121.382 52.3288 121.462 52.3372 121.496 52.3457L121.56 53.7803ZM113.206 55.9512C113.206 56.916 113.405 57.7074 113.803 58.3252C114.209 58.943 114.81 59.252 115.605 59.252C116.291 59.252 116.799 58.998 117.129 58.4902C117.467 57.9824 117.637 57.2926 117.637 56.4209C117.637 55.7354 117.531 55.1514 117.319 54.6689C117.116 54.1781 116.833 53.8099 116.469 53.5645C116.105 53.3105 115.699 53.1836 115.25 53.1836C114.869 53.1836 114.522 53.3021 114.209 53.5391C113.904 53.7676 113.659 54.0934 113.473 54.5166C113.295 54.9313 113.206 55.4095 113.206 55.9512ZM115.58 63.9619C114.937 63.9535 114.209 63.9027 113.396 63.8096C112.576 64.512 112.165 65.1553 112.165 65.7393C112.165 66.1455 112.351 66.4714 112.724 66.7168C113.104 66.9707 113.549 67.1484 114.057 67.25C114.573 67.3516 115.051 67.4023 115.491 67.4023C116.109 67.4023 116.748 67.3304 117.408 67.1865C118.068 67.0511 118.623 66.8395 119.071 66.5518C119.52 66.264 119.744 65.9128 119.744 65.498C119.744 65.041 119.49 64.6813 118.982 64.4189C118.483 64.1566 117.709 64.0127 116.659 63.9873L115.58 63.9619ZM130.104 56.2686C130.104 55.6338 130.044 55.0964 129.926 54.6562C129.816 54.2161 129.587 53.8607 129.24 53.5898C128.902 53.319 128.415 53.1836 127.78 53.1836C127.56 53.1836 127.289 53.2301 126.968 53.3232C126.646 53.4163 126.363 53.5518 126.117 53.7295C125.88 53.8988 125.762 54.0977 125.762 54.3262C125.762 54.4193 125.779 54.5124 125.812 54.6055C125.846 54.6901 125.901 54.8001 125.978 54.9355C126.054 55.0625 126.109 55.1725 126.143 55.2656C126.176 55.3587 126.193 55.4561 126.193 55.5576C126.193 55.8962 126.083 56.1797 125.863 56.4082C125.652 56.6283 125.377 56.7383 125.038 56.7383C124.615 56.7383 124.276 56.5817 124.022 56.2686C123.777 55.9554 123.654 55.5788 123.654 55.1387C123.654 54.4785 123.912 53.9326 124.429 53.501C124.945 53.0693 125.567 52.752 126.295 52.5488C127.031 52.3457 127.717 52.2441 128.352 52.2441C129.545 52.2441 130.434 52.4219 131.018 52.7773C131.61 53.1243 131.999 53.6364 132.186 54.3135C132.38 54.9821 132.478 55.9215 132.478 57.1318L132.452 57.7666C132.444 57.9528 132.431 58.2617 132.414 58.6934C132.406 59.125 132.401 59.5228 132.401 59.8867C132.401 61.791 132.6 62.7432 132.998 62.7432C133.286 62.7432 133.658 62.4512 134.115 61.8672L134.648 62.4385C134.276 63.0479 133.908 63.5049 133.544 63.8096C133.18 64.1058 132.702 64.2539 132.109 64.2539C131.551 64.2539 131.09 64.0804 130.726 63.7334C130.37 63.3779 130.175 62.9209 130.142 62.3623C129.6 62.9548 128.991 63.4202 128.313 63.7588C127.645 64.0889 126.934 64.2539 126.181 64.2539C125.656 64.2539 125.169 64.1608 124.721 63.9746C124.281 63.7799 123.925 63.4922 123.654 63.1113C123.392 62.7305 123.261 62.2734 123.261 61.7402C123.261 60.9362 123.57 60.2676 124.188 59.7344C124.805 59.2012 125.516 58.7949 126.32 58.5156C127.124 58.2363 128.106 57.957 129.266 57.6777C129.367 57.6608 129.646 57.5931 130.104 57.4746V56.2686ZM130.104 58.2236C129.977 58.266 129.816 58.3167 129.621 58.376C128.893 58.613 128.271 58.8415 127.755 59.0615C127.239 59.2731 126.777 59.5609 126.371 59.9248C125.965 60.2887 125.762 60.7161 125.762 61.207C125.762 61.7064 125.897 62.0999 126.168 62.3877C126.447 62.6755 126.837 62.8193 127.336 62.8193C127.835 62.8193 128.318 62.6966 128.783 62.4512C129.249 62.1973 129.689 61.8672 130.104 61.4609V58.2236ZM139.866 61.1816C139.866 61.9095 140.048 62.4385 140.412 62.7686C140.785 63.0902 141.347 63.2891 142.101 63.3652C142.101 63.4922 142.096 63.6191 142.088 63.7461C142.079 63.873 142.075 63.9577 142.075 64H135.537L135.524 63.5938C135.524 63.4583 135.529 63.3652 135.537 63.3145C136.028 63.196 136.396 63.0902 136.642 62.9971C136.896 62.904 137.103 62.7516 137.264 62.54C137.424 62.3285 137.505 62.0322 137.505 61.6514V54.7705C137.403 54.5758 137.204 54.4023 136.908 54.25C136.612 54.0892 136.299 53.958 135.969 53.8564C135.647 53.7464 135.486 53.6956 135.486 53.7041L135.524 53.2725L138.99 52.4092L139.765 52.3584L139.904 54.415C140.37 53.7887 140.962 53.2725 141.682 52.8662C142.41 52.4515 143.192 52.2441 144.03 52.2441C145.257 52.2441 146.21 52.5911 146.887 53.2852C147.564 53.9792 147.932 55.016 147.991 56.3955C148.017 56.9372 148.029 57.4915 148.029 58.0586V60.8896C148.029 61.5075 148.067 61.9561 148.144 62.2354C148.22 62.5146 148.338 62.7093 148.499 62.8193C148.668 62.9209 148.948 63.0309 149.337 63.1494L149.87 63.3145C149.879 63.3652 149.883 63.4583 149.883 63.5938L149.87 64H143.611C143.611 63.9492 143.607 63.8646 143.599 63.7461C143.59 63.6191 143.586 63.4922 143.586 63.3652C143.645 63.3398 143.814 63.2891 144.094 63.2129C144.542 63.0859 144.889 62.9505 145.135 62.8066C145.389 62.6628 145.541 62.43 145.592 62.1084C145.634 61.863 145.655 61.5371 145.655 61.1309V58.2998C145.655 57.1742 145.613 56.3066 145.528 55.6973C145.452 55.0879 145.241 54.5885 144.894 54.1992C144.555 53.8099 144.005 53.6152 143.243 53.6152C142.642 53.6152 142.062 53.7887 141.504 54.1357C140.954 54.4827 140.408 54.944 139.866 55.5195V61.1816ZM161.372 61.6133C161.194 62.1803 160.877 62.6628 160.42 63.0605C159.963 63.4583 159.425 63.7588 158.808 63.9619C158.19 64.1566 157.547 64.2539 156.878 64.2539C155.71 64.2539 154.699 63.9831 153.844 63.4414C152.997 62.8913 152.354 62.1634 151.914 61.2578C151.474 60.3522 151.254 59.3704 151.254 58.3125C151.254 57.1953 151.521 56.1755 152.054 55.2529C152.587 54.3219 153.336 53.5898 154.301 53.0566C155.266 52.515 156.362 52.2441 157.589 52.2441C158.3 52.2441 158.951 52.3499 159.544 52.5615C160.136 52.7646 160.602 53.0566 160.94 53.4375C161.287 53.8184 161.461 54.2585 161.461 54.7578C161.461 55.1387 161.338 55.418 161.093 55.5957C160.847 55.765 160.585 55.8496 160.306 55.8496C160.043 55.8496 159.84 55.8031 159.696 55.71C159.552 55.6084 159.447 55.4899 159.379 55.3545C159.32 55.2106 159.26 55.0117 159.201 54.7578C159.133 54.4362 159.049 54.1738 158.947 53.9707C158.854 53.7676 158.676 53.5898 158.414 53.4375C158.152 53.2852 157.775 53.2005 157.284 53.1836C156.632 53.1582 156.023 53.319 155.456 53.666C154.889 54.0046 154.432 54.5124 154.085 55.1895C153.746 55.8665 153.577 56.679 153.577 57.627C153.577 58.5072 153.734 59.3154 154.047 60.0518C154.36 60.7881 154.817 61.3763 155.418 61.8164C156.027 62.2565 156.755 62.4766 157.602 62.4766C158.338 62.4766 158.951 62.3877 159.442 62.21C159.933 62.0322 160.441 61.736 160.966 61.3213L161.372 61.6133ZM165.942 57.3223C165.934 57.4069 165.93 57.5296 165.93 57.6904C165.93 58.7568 166.12 59.6497 166.501 60.3691C166.89 61.0801 167.407 61.609 168.05 61.9561C168.701 62.2946 169.429 62.4639 170.233 62.4639C171.3 62.4639 172.328 62.1592 173.318 61.5498L173.687 61.9053C173.483 62.3962 173.141 62.8193 172.658 63.1748C172.184 63.5303 171.643 63.8011 171.033 63.9873C170.432 64.165 169.848 64.2539 169.281 64.2539C168.215 64.2539 167.254 64.0042 166.399 63.5049C165.553 63.0055 164.889 62.3073 164.406 61.4102C163.932 60.513 163.695 59.4847 163.695 58.3252C163.695 57.1488 163.953 56.0993 164.47 55.1768C164.986 54.2458 165.672 53.5264 166.526 53.0186C167.39 52.5023 168.312 52.2441 169.294 52.2441C170.098 52.2441 170.822 52.4092 171.465 52.7393C172.117 53.0609 172.646 53.5179 173.052 54.1104C173.458 54.6943 173.716 55.3672 173.826 56.1289C173.919 56.5182 173.966 56.8779 173.966 57.208V57.3223H165.942ZM170.513 56.5098C170.885 56.4928 171.198 56.4251 171.452 56.3066C171.393 55.2995 171.156 54.5124 170.741 53.9453C170.335 53.3783 169.755 53.0947 169.002 53.0947C168.452 53.0947 167.961 53.2598 167.529 53.5898C167.106 53.9199 166.763 54.36 166.501 54.9102C166.239 55.4518 166.069 56.0485 165.993 56.7002L170.513 56.5098ZM184.706 46.5312C185.112 46.5312 185.459 46.6751 185.747 46.9629C186.035 47.2507 186.179 47.5977 186.179 48.0039C186.179 48.4186 186.035 48.7699 185.747 49.0576C185.459 49.3369 185.112 49.4766 184.706 49.4766C184.291 49.4766 183.94 49.3369 183.652 49.0576C183.373 48.7699 183.233 48.4186 183.233 48.0039C183.233 47.5977 183.373 47.2507 183.652 46.9629C183.94 46.6751 184.291 46.5312 184.706 46.5312ZM183.69 54.7705C183.58 54.5758 183.373 54.4023 183.068 54.25C182.772 54.0892 182.463 53.958 182.142 53.8564C181.828 53.7464 181.672 53.6956 181.672 53.7041L181.697 53.2598L185.265 52.3965L186.052 52.3457V61.207C186.052 61.5033 186.081 61.7826 186.141 62.0449C186.208 62.3073 186.403 62.5739 186.725 62.8447C187.055 63.1156 187.571 63.2891 188.273 63.3652C188.273 63.6445 188.269 63.8561 188.261 64H181.634C181.617 63.8477 181.608 63.6361 181.608 63.3652L181.964 63.2637C182.336 63.1621 182.637 63.0605 182.865 62.959C183.094 62.8574 183.288 62.7093 183.449 62.5146C183.61 62.3115 183.69 62.0407 183.69 61.7021V54.7705ZM197.3 55.9893C197.181 55.9977 196.982 56.002 196.703 56.002C196.458 55.1471 196.085 54.4489 195.586 53.9072C195.095 53.3656 194.465 53.0947 193.694 53.0947C193.161 53.0947 192.738 53.2259 192.425 53.4883C192.12 53.7507 191.968 54.1315 191.968 54.6309C191.968 54.9779 192.095 55.2995 192.349 55.5957C192.603 55.8919 192.911 56.1543 193.275 56.3828C193.648 56.6029 194.134 56.8652 194.735 57.1699C194.879 57.2376 195.095 57.3477 195.383 57.5C196.331 58.0078 197.021 58.5283 197.452 59.0615C197.892 59.5863 198.112 60.2295 198.112 60.9912C198.112 61.6937 197.939 62.2904 197.592 62.7812C197.245 63.2637 196.767 63.6318 196.157 63.8857C195.548 64.1312 194.85 64.2539 194.062 64.2539C193.368 64.2539 192.666 64.1693 191.955 64C191.244 63.8392 190.66 63.6191 190.203 63.3398V60.2422C190.533 60.1999 190.757 60.1787 190.876 60.1787C191.071 61.1182 191.413 61.8841 191.904 62.4766C192.404 63.069 193.085 63.3652 193.948 63.3652C194.566 63.3652 195.078 63.2129 195.484 62.9082C195.899 62.5951 196.106 62.1846 196.106 61.6768C196.106 61.3551 196.013 61.0716 195.827 60.8262C195.641 60.5807 195.4 60.3649 195.104 60.1787C194.807 59.9925 194.363 59.7428 193.771 59.4297C192.975 59.0065 192.37 58.6637 191.955 58.4014C191.312 58.0036 190.825 57.5592 190.495 57.0684C190.174 56.5775 190.013 55.9935 190.013 55.3164C190.013 54.6647 190.178 54.1104 190.508 53.6533C190.838 53.1878 191.286 52.8366 191.854 52.5996C192.421 52.3626 193.06 52.2441 193.771 52.2441C194.422 52.2441 195.04 52.3245 195.624 52.4854C196.216 52.6462 196.75 52.8747 197.224 53.1709L197.3 55.9893ZM217.435 53.7803C217.248 53.721 216.944 53.6914 216.521 53.6914C216.182 53.6914 215.826 53.7083 215.454 53.7422C215.082 53.7676 214.84 53.7887 214.73 53.8057C214.73 53.7887 214.824 53.9115 215.01 54.1738C215.196 54.4277 215.361 54.724 215.505 55.0625C215.657 55.3926 215.733 55.7227 215.733 56.0527C215.733 56.9076 215.518 57.6396 215.086 58.249C214.654 58.8584 214.091 59.3197 213.397 59.6328C212.712 59.9375 211.993 60.0898 211.239 60.0898C210.816 60.0898 210.274 60.0137 209.614 59.8613C209.589 59.8783 209.492 59.9417 209.322 60.0518C209.111 60.1872 208.954 60.3141 208.853 60.4326C208.759 60.5426 208.713 60.7035 208.713 60.915C208.713 61.1266 208.823 61.2874 209.043 61.3975C209.263 61.499 209.559 61.571 209.932 61.6133C210.304 61.6471 210.896 61.681 211.709 61.7148C212.318 61.7402 213 61.7783 213.753 61.8291C214.828 61.9053 215.695 62.1846 216.355 62.667C217.016 63.1494 217.346 63.8138 217.346 64.6602C217.346 65.4219 217.062 66.0905 216.495 66.666C215.928 67.2415 215.162 67.6816 214.197 67.9863C213.241 68.2995 212.187 68.4561 211.036 68.4561C210.08 68.4561 209.25 68.3503 208.548 68.1387C207.845 67.9355 207.308 67.6689 206.936 67.3389C206.572 67.0173 206.39 66.6829 206.39 66.3359C206.39 65.9635 206.546 65.5531 206.859 65.1045C207.173 64.6559 207.663 64.1862 208.332 63.6953C207.858 63.5007 207.486 63.251 207.215 62.9463C206.952 62.6416 206.821 62.3031 206.821 61.9307C206.821 61.4821 207.003 61.0674 207.367 60.6865C207.731 60.3057 208.247 59.9206 208.916 59.5312C208.247 59.1504 207.731 58.6807 207.367 58.1221C207.003 57.5635 206.821 56.9287 206.821 56.2178C206.821 55.4561 207.007 54.7747 207.38 54.1738C207.761 53.5645 208.285 53.0905 208.954 52.752C209.631 52.4134 210.389 52.2441 211.227 52.2441C212.234 52.2441 213.165 52.4684 214.02 52.917C214.104 52.8831 214.295 52.8197 214.591 52.7266C214.887 52.625 215.238 52.5277 215.645 52.4346C216.059 52.3415 216.436 52.2949 216.774 52.2949C216.893 52.2949 217.011 52.3034 217.13 52.3203C217.257 52.3288 217.337 52.3372 217.371 52.3457L217.435 53.7803ZM209.081 55.9512C209.081 56.916 209.28 57.7074 209.678 58.3252C210.084 58.943 210.685 59.252 211.48 59.252C212.166 59.252 212.674 58.998 213.004 58.4902C213.342 57.9824 213.512 57.2926 213.512 56.4209C213.512 55.7354 213.406 55.1514 213.194 54.6689C212.991 54.1781 212.708 53.8099 212.344 53.5645C211.98 53.3105 211.574 53.1836 211.125 53.1836C210.744 53.1836 210.397 53.3021 210.084 53.5391C209.779 53.7676 209.534 54.0934 209.348 54.5166C209.17 54.9313 209.081 55.4095 209.081 55.9512ZM211.455 63.9619C210.812 63.9535 210.084 63.9027 209.271 63.8096C208.451 64.512 208.04 65.1553 208.04 65.7393C208.04 66.1455 208.226 66.4714 208.599 66.7168C208.979 66.9707 209.424 67.1484 209.932 67.25C210.448 67.3516 210.926 67.4023 211.366 67.4023C211.984 67.4023 212.623 67.3304 213.283 67.1865C213.943 67.0511 214.498 66.8395 214.946 66.5518C215.395 66.264 215.619 65.9128 215.619 65.498C215.619 65.041 215.365 64.6813 214.857 64.4189C214.358 64.1566 213.584 64.0127 212.534 63.9873L211.455 63.9619ZM224.772 52.2441C225.898 52.2441 226.922 52.4896 227.845 52.9805C228.776 53.4629 229.512 54.1569 230.054 55.0625C230.595 55.9596 230.866 57.0049 230.866 58.1982C230.866 59.3916 230.595 60.4495 230.054 61.3721C229.512 62.2861 228.788 62.9971 227.883 63.5049C226.977 64.0042 225.987 64.2539 224.912 64.2539C223.846 64.2539 222.847 63.9958 221.916 63.4795C220.985 62.9632 220.24 62.248 219.682 61.334C219.123 60.4115 218.844 59.3704 218.844 58.2109C218.844 57.0514 219.115 56.0189 219.656 55.1133C220.198 54.1992 220.922 53.4925 221.827 52.9932C222.741 52.4938 223.723 52.2441 224.772 52.2441ZM225.077 63.2637C226.152 63.2637 226.969 62.8786 227.527 62.1084C228.086 61.3382 228.365 60.3268 228.365 59.0742C228.365 57.9909 228.213 56.9964 227.908 56.0908C227.612 55.1768 227.185 54.4489 226.626 53.9072C226.067 53.3656 225.424 53.0947 224.696 53.0947C224.053 53.0947 223.482 53.2513 222.982 53.5645C222.492 53.8776 222.102 54.36 221.814 55.0117C221.527 55.6634 221.383 56.4801 221.383 57.4619C221.383 58.4268 221.535 59.3577 221.84 60.2549C222.145 61.1436 222.576 61.8672 223.135 62.4258C223.693 62.9844 224.341 63.2637 225.077 63.2637ZM238.89 52.2441C240.015 52.2441 241.039 52.4896 241.962 52.9805C242.893 53.4629 243.629 54.1569 244.171 55.0625C244.713 55.9596 244.983 57.0049 244.983 58.1982C244.983 59.3916 244.713 60.4495 244.171 61.3721C243.629 62.2861 242.906 62.9971 242 63.5049C241.094 64.0042 240.104 64.2539 239.029 64.2539C237.963 64.2539 236.964 63.9958 236.033 63.4795C235.102 62.9632 234.357 62.248 233.799 61.334C233.24 60.4115 232.961 59.3704 232.961 58.2109C232.961 57.0514 233.232 56.0189 233.773 55.1133C234.315 54.1992 235.039 53.4925 235.944 52.9932C236.858 52.4938 237.84 52.2441 238.89 52.2441ZM239.194 63.2637C240.269 63.2637 241.086 62.8786 241.645 62.1084C242.203 61.3382 242.482 60.3268 242.482 59.0742C242.482 57.9909 242.33 56.9964 242.025 56.0908C241.729 55.1768 241.302 54.4489 240.743 53.9072C240.185 53.3656 239.541 53.0947 238.813 53.0947C238.17 53.0947 237.599 53.2513 237.1 53.5645C236.609 53.8776 236.219 54.36 235.932 55.0117C235.644 55.6634 235.5 56.4801 235.5 57.4619C235.5 58.4268 235.652 59.3577 235.957 60.2549C236.262 61.1436 236.693 61.8672 237.252 62.4258C237.811 62.9844 238.458 63.2637 239.194 63.2637ZM256.473 49.083C256.363 48.9137 256.147 48.7445 255.825 48.5752C255.512 48.4059 255.203 48.262 254.898 48.1436C254.602 48.0251 254.408 47.9531 254.314 47.9277L254.34 47.4834L257.92 46.6201L258.834 46.5312V61.4736C258.834 61.9814 259.05 62.3454 259.481 62.5654C259.922 62.7855 260.391 62.8955 260.891 62.8955V63.5938L257.501 64.1523H256.65L256.536 62.1846C255.935 62.8786 255.305 63.3991 254.645 63.7461C253.984 64.0846 253.278 64.2539 252.524 64.2539C251.568 64.2539 250.692 64.0254 249.896 63.5684C249.109 63.1029 248.487 62.4554 248.03 61.626C247.573 60.7881 247.345 59.8275 247.345 58.7441C247.345 57.5 247.599 56.387 248.106 55.4053C248.623 54.4235 249.329 53.6576 250.227 53.1074C251.124 52.5573 252.127 52.2822 253.235 52.2822C253.752 52.2822 254.255 52.3626 254.746 52.5234C255.237 52.6758 255.812 52.9085 256.473 53.2217V49.083ZM256.473 57.5254C256.473 56.7044 256.401 56.0443 256.257 55.5449C256.113 55.0371 255.821 54.5885 255.381 54.1992C255.042 53.903 254.678 53.6745 254.289 53.5137C253.9 53.3444 253.506 53.2598 253.108 53.2598C252.44 53.2598 251.847 53.4756 251.331 53.9072C250.815 54.3389 250.413 54.9144 250.125 55.6338C249.846 56.3447 249.706 57.1149 249.706 57.9443C249.706 58.7484 249.846 59.5186 250.125 60.2549C250.413 60.9827 250.84 61.5794 251.407 62.0449C251.974 62.5104 252.66 62.7432 253.464 62.7432C254.107 62.7432 254.678 62.6035 255.178 62.3242C255.686 62.0365 256.117 61.6556 256.473 61.1816V57.5254ZM272.024 60.0137C272.024 60.877 272.054 61.4948 272.113 61.8672C272.173 62.2311 272.316 62.4977 272.545 62.667C272.773 62.8278 273.159 62.9082 273.7 62.9082C274.022 62.9082 274.343 62.8786 274.665 62.8193C274.987 62.7601 275.257 62.6966 275.478 62.6289L275.579 63.5557C275.147 63.7673 274.712 63.9365 274.271 64.0635C273.831 64.1904 273.302 64.2539 272.685 64.2539C271.864 64.2539 271.237 64.1185 270.806 63.8477C270.374 63.5768 270.074 63.141 269.904 62.54C269.735 61.9307 269.65 61.0758 269.65 59.9756V53.5391H267.759V53.0947C268.334 52.8662 268.817 52.5996 269.206 52.2949C269.604 51.9818 269.93 51.6602 270.184 51.3301C270.438 51 270.742 50.5641 271.098 50.0225C271.25 49.777 271.368 49.6162 271.453 49.54C271.538 49.4554 271.622 49.4131 271.707 49.4131C271.792 49.4131 271.859 49.4554 271.91 49.54C271.969 49.6162 271.999 49.7389 271.999 49.9082V52.5869H275.186V53.5391H272.024V60.0137ZM284.047 56.2686C284.047 55.6338 283.988 55.0964 283.869 54.6562C283.759 54.2161 283.531 53.8607 283.184 53.5898C282.845 53.319 282.358 53.1836 281.724 53.1836C281.504 53.1836 281.233 53.2301 280.911 53.3232C280.59 53.4163 280.306 53.5518 280.061 53.7295C279.824 53.8988 279.705 54.0977 279.705 54.3262C279.705 54.4193 279.722 54.5124 279.756 54.6055C279.79 54.6901 279.845 54.8001 279.921 54.9355C279.997 55.0625 280.052 55.1725 280.086 55.2656C280.12 55.3587 280.137 55.4561 280.137 55.5576C280.137 55.8962 280.027 56.1797 279.807 56.4082C279.595 56.6283 279.32 56.7383 278.981 56.7383C278.558 56.7383 278.22 56.5817 277.966 56.2686C277.72 55.9554 277.598 55.5788 277.598 55.1387C277.598 54.4785 277.856 53.9326 278.372 53.501C278.888 53.0693 279.51 52.752 280.238 52.5488C280.975 52.3457 281.66 52.2441 282.295 52.2441C283.488 52.2441 284.377 52.4219 284.961 52.7773C285.553 53.1243 285.943 53.6364 286.129 54.3135C286.324 54.9821 286.421 55.9215 286.421 57.1318L286.396 57.7666C286.387 57.9528 286.374 58.2617 286.357 58.6934C286.349 59.125 286.345 59.5228 286.345 59.8867C286.345 61.791 286.544 62.7432 286.941 62.7432C287.229 62.7432 287.602 62.4512 288.059 61.8672L288.592 62.4385C288.219 63.0479 287.851 63.5049 287.487 63.8096C287.123 64.1058 286.645 64.2539 286.053 64.2539C285.494 64.2539 285.033 64.0804 284.669 63.7334C284.313 63.3779 284.119 62.9209 284.085 62.3623C283.543 62.9548 282.934 63.4202 282.257 63.7588C281.588 64.0889 280.877 64.2539 280.124 64.2539C279.599 64.2539 279.113 64.1608 278.664 63.9746C278.224 63.7799 277.868 63.4922 277.598 63.1113C277.335 62.7305 277.204 62.2734 277.204 61.7402C277.204 60.9362 277.513 60.2676 278.131 59.7344C278.749 59.2012 279.46 58.7949 280.264 58.5156C281.068 58.2363 282.049 57.957 283.209 57.6777C283.311 57.6608 283.59 57.5931 284.047 57.4746V56.2686ZM284.047 58.2236C283.92 58.266 283.759 58.3167 283.564 58.376C282.837 58.613 282.215 58.8415 281.698 59.0615C281.182 59.2731 280.721 59.5609 280.314 59.9248C279.908 60.2887 279.705 60.7161 279.705 61.207C279.705 61.7064 279.84 62.0999 280.111 62.3877C280.391 62.6755 280.78 62.8193 281.279 62.8193C281.779 62.8193 282.261 62.6966 282.727 62.4512C283.192 62.1973 283.632 61.8672 284.047 61.4609V58.2236ZM297.694 55.9893C297.576 55.9977 297.377 56.002 297.098 56.002C296.852 55.1471 296.48 54.4489 295.98 53.9072C295.49 53.3656 294.859 53.0947 294.089 53.0947C293.556 53.0947 293.132 53.2259 292.819 53.4883C292.515 53.7507 292.362 54.1315 292.362 54.6309C292.362 54.9779 292.489 55.2995 292.743 55.5957C292.997 55.8919 293.306 56.1543 293.67 56.3828C294.042 56.6029 294.529 56.8652 295.13 57.1699C295.274 57.2376 295.49 57.3477 295.777 57.5C296.725 58.0078 297.415 58.5283 297.847 59.0615C298.287 59.5863 298.507 60.2295 298.507 60.9912C298.507 61.6937 298.333 62.2904 297.986 62.7812C297.639 63.2637 297.161 63.6318 296.552 63.8857C295.942 64.1312 295.244 64.2539 294.457 64.2539C293.763 64.2539 293.061 64.1693 292.35 64C291.639 63.8392 291.055 63.6191 290.598 63.3398V60.2422C290.928 60.1999 291.152 60.1787 291.271 60.1787C291.465 61.1182 291.808 61.8841 292.299 62.4766C292.798 63.069 293.479 63.3652 294.343 63.3652C294.961 63.3652 295.473 63.2129 295.879 62.9082C296.294 62.5951 296.501 62.1846 296.501 61.6768C296.501 61.3551 296.408 61.0716 296.222 60.8262C296.035 60.5807 295.794 60.3649 295.498 60.1787C295.202 59.9925 294.757 59.7428 294.165 59.4297C293.369 59.0065 292.764 58.6637 292.35 58.4014C291.706 58.0036 291.22 57.5592 290.89 57.0684C290.568 56.5775 290.407 55.9935 290.407 55.3164C290.407 54.6647 290.572 54.1104 290.902 53.6533C291.232 53.1878 291.681 52.8366 292.248 52.5996C292.815 52.3626 293.454 52.2441 294.165 52.2441C294.817 52.2441 295.435 52.3245 296.019 52.4854C296.611 52.6462 297.144 52.8747 297.618 53.1709L297.694 55.9893ZM304.423 60.0137C304.423 60.877 304.452 61.4948 304.512 61.8672C304.571 62.2311 304.715 62.4977 304.943 62.667C305.172 62.8278 305.557 62.9082 306.099 62.9082C306.42 62.9082 306.742 62.8786 307.063 62.8193C307.385 62.7601 307.656 62.6966 307.876 62.6289L307.978 63.5557C307.546 63.7673 307.11 63.9365 306.67 64.0635C306.23 64.1904 305.701 64.2539 305.083 64.2539C304.262 64.2539 303.636 64.1185 303.204 63.8477C302.772 63.5768 302.472 63.141 302.303 62.54C302.133 61.9307 302.049 61.0758 302.049 59.9756V53.5391H300.157V53.0947C300.733 52.8662 301.215 52.5996 301.604 52.2949C302.002 51.9818 302.328 51.6602 302.582 51.3301C302.836 51 303.141 50.5641 303.496 50.0225C303.648 49.777 303.767 49.6162 303.852 49.54C303.936 49.4554 304.021 49.4131 304.105 49.4131C304.19 49.4131 304.258 49.4554 304.309 49.54C304.368 49.6162 304.397 49.7389 304.397 49.9082V52.5869H307.584V53.5391H304.423V60.0137ZM311.735 57.3223C311.727 57.4069 311.723 57.5296 311.723 57.6904C311.723 58.7568 311.913 59.6497 312.294 60.3691C312.683 61.0801 313.2 61.609 313.843 61.9561C314.494 62.2946 315.222 62.4639 316.026 62.4639C317.093 62.4639 318.121 62.1592 319.111 61.5498L319.479 61.9053C319.276 62.3962 318.934 62.8193 318.451 63.1748C317.977 63.5303 317.436 63.8011 316.826 63.9873C316.225 64.165 315.641 64.2539 315.074 64.2539C314.008 64.2539 313.047 64.0042 312.192 63.5049C311.346 63.0055 310.682 62.3073 310.199 61.4102C309.725 60.513 309.488 59.4847 309.488 58.3252C309.488 57.1488 309.746 56.0993 310.263 55.1768C310.779 54.2458 311.465 53.5264 312.319 53.0186C313.183 52.5023 314.105 52.2441 315.087 52.2441C315.891 52.2441 316.615 52.4092 317.258 52.7393C317.91 53.0609 318.438 53.5179 318.845 54.1104C319.251 54.6943 319.509 55.3672 319.619 56.1289C319.712 56.5182 319.759 56.8779 319.759 57.208V57.3223H311.735ZM316.306 56.5098C316.678 56.4928 316.991 56.4251 317.245 56.3066C317.186 55.2995 316.949 54.5124 316.534 53.9453C316.128 53.3783 315.548 53.0947 314.795 53.0947C314.245 53.0947 313.754 53.2598 313.322 53.5898C312.899 53.9199 312.556 54.36 312.294 54.9102C312.032 55.4518 311.862 56.0485 311.786 56.7002L316.306 56.5098ZM321.93 66.6406C322.023 66.6068 322.162 66.5645 322.349 66.5137C322.89 66.3444 323.313 66.1878 323.618 66.0439C323.923 65.9001 324.181 65.6885 324.393 65.4092C324.613 65.1299 324.723 64.7575 324.723 64.292C324.604 64.0042 324.439 63.7799 324.228 63.6191C324.024 63.4583 323.758 63.3483 323.428 63.2891C323.03 63.2298 322.721 63.069 322.501 62.8066C322.289 62.5358 322.184 62.1973 322.184 61.791C322.184 61.2917 322.344 60.877 322.666 60.5469C322.996 60.2168 323.428 60.0518 323.961 60.0518C324.418 60.0518 324.833 60.1829 325.205 60.4453C325.577 60.7077 325.869 61.097 326.081 61.6133C326.301 62.1211 326.411 62.7262 326.411 63.4287C326.411 64.2666 326.216 64.9818 325.827 65.5742C325.446 66.1667 324.934 66.6152 324.291 66.9199C323.648 67.2246 322.937 67.3854 322.158 67.4023C322.082 67.2839 322.023 67.1654 321.98 67.0469C321.947 66.9368 321.93 66.8014 321.93 66.6406ZM64.9766 98.8281C64.9766 99.6068 65.1585 100.165 65.5225 100.504C65.8949 100.851 66.4915 101.071 67.3125 101.164C67.3125 101.291 67.3083 101.414 67.2998 101.532C67.2913 101.659 67.2871 101.748 67.2871 101.799H60.5967C60.5967 101.748 60.5924 101.659 60.584 101.532C60.5755 101.414 60.5713 101.291 60.5713 101.164C61.2399 101.071 61.7477 100.842 62.0947 100.479C62.4417 100.123 62.6152 99.611 62.6152 98.9424V87.9355C62.4714 87.6816 62.1963 87.4489 61.79 87.2373C61.3923 87.0257 60.9987 86.848 60.6094 86.7041L60.5078 86.666V86.2344L63.9355 85.3457H64.7988L64.9004 87.4277C65.5267 86.7337 66.1572 86.1963 66.792 85.8154C67.4268 85.4346 68.1504 85.2441 68.9629 85.2441C69.9193 85.2441 70.7699 85.4769 71.5146 85.9424C72.2594 86.3994 72.8392 87.0596 73.2539 87.9229C73.6686 88.7777 73.876 89.7848 73.876 90.9443C73.876 92.18 73.6221 93.276 73.1143 94.2324C72.6149 95.1803 71.9251 95.9209 71.0449 96.4541C70.1647 96.9788 69.1787 97.2412 68.0869 97.2412C67.5199 97.2412 66.974 97.1396 66.4492 96.9365C65.9245 96.7334 65.4336 96.4372 64.9766 96.0479V98.8281ZM64.9766 92.5947C64.9766 93.2887 65.1035 93.9066 65.3574 94.4482C65.6198 94.9814 66.0007 95.4046 66.5 95.7178C66.9993 96.0225 67.5918 96.1748 68.2773 96.1748C69.3353 96.1748 70.1393 95.7643 70.6895 94.9434C71.2396 94.1224 71.5146 92.9967 71.5146 91.5664C71.5146 90.5423 71.3538 89.679 71.0322 88.9766C70.7106 88.2741 70.2874 87.7536 69.7627 87.415C69.238 87.068 68.6624 86.8945 68.0361 86.8945C67.0374 86.8945 66.0176 87.3981 64.9766 88.4053V92.5947ZM79.9062 94.0293C79.9062 94.7402 80.0501 95.2904 80.3379 95.6797C80.6341 96.0605 81.1208 96.2891 81.7979 96.3652C81.7979 96.4922 81.7936 96.6191 81.7852 96.7461C81.7767 96.873 81.7725 96.9577 81.7725 97H75.5264L75.5137 96.3652C75.5898 96.3145 75.6872 96.2679 75.8057 96.2256C75.9326 96.1833 76.0596 96.1452 76.1865 96.1113C76.5589 96.0098 76.8509 95.8997 77.0625 95.7812C77.2741 95.6543 77.401 95.4681 77.4434 95.2227C77.5111 94.8587 77.5449 94.4863 77.5449 94.1055L77.5322 82.1592C77.4307 81.9899 77.2233 81.8249 76.9102 81.6641C76.6055 81.4948 76.305 81.3551 76.0088 81.2451C75.7126 81.1266 75.5221 81.0547 75.4375 81.0293L75.4629 80.585L78.9922 79.6201L79.9062 79.5312V94.0293ZM88.6914 97.2539C87.6673 97.2539 86.876 97 86.3174 96.4922C85.7673 95.9759 85.3949 95.3073 85.2002 94.4863C85.0055 93.6654 84.9082 92.6878 84.9082 91.5537V87.7705C84.7982 87.5758 84.5908 87.4023 84.2861 87.25C83.9899 87.0892 83.681 86.958 83.3594 86.8564C83.0462 86.7464 82.8896 86.6956 82.8896 86.7041L82.915 86.2598L86.4824 85.3965L87.2695 85.3457V91.4141C87.2695 92.4974 87.3372 93.3522 87.4727 93.9785C87.6081 94.5964 87.8366 95.0492 88.1582 95.3369C88.4798 95.6162 88.9284 95.7559 89.5039 95.7559C90.6803 95.7559 91.7891 95.2396 92.8301 94.207V87.7705C92.7201 87.5758 92.5127 87.4023 92.208 87.25C91.9118 87.0892 91.6029 86.958 91.2812 86.8564C90.9681 86.7464 90.8115 86.6956 90.8115 86.7041L90.8369 86.2598L94.4043 85.3965L95.1914 85.3457V94.4482C95.1914 94.8037 95.2803 95.0788 95.458 95.2734C95.6357 95.4596 95.8558 95.5951 96.1182 95.6797C96.3805 95.7643 96.7402 95.8447 97.1973 95.9209C97.1973 96.0479 97.1888 96.179 97.1719 96.3145C97.1634 96.4499 97.1592 96.543 97.1592 96.5938L92.9951 97.1904L92.8936 95.1592C91.641 96.5557 90.2402 97.2539 88.6914 97.2539ZM106.376 88.9893C106.257 88.9977 106.059 89.002 105.779 89.002C105.534 88.1471 105.161 87.4489 104.662 86.9072C104.171 86.3656 103.541 86.0947 102.771 86.0947C102.237 86.0947 101.814 86.2259 101.501 86.4883C101.196 86.7507 101.044 87.1315 101.044 87.6309C101.044 87.9779 101.171 88.2995 101.425 88.5957C101.679 88.8919 101.988 89.1543 102.352 89.3828C102.724 89.6029 103.211 89.8652 103.812 90.1699C103.955 90.2376 104.171 90.3477 104.459 90.5C105.407 91.0078 106.097 91.5283 106.528 92.0615C106.968 92.5863 107.188 93.2295 107.188 93.9912C107.188 94.6937 107.015 95.2904 106.668 95.7812C106.321 96.2637 105.843 96.6318 105.233 96.8857C104.624 97.1312 103.926 97.2539 103.139 97.2539C102.445 97.2539 101.742 97.1693 101.031 97C100.32 96.8392 99.7363 96.6191 99.2793 96.3398V93.2422C99.6094 93.1999 99.8337 93.1787 99.9521 93.1787C100.147 94.1182 100.49 94.8841 100.98 95.4766C101.48 96.069 102.161 96.3652 103.024 96.3652C103.642 96.3652 104.154 96.2129 104.561 95.9082C104.975 95.5951 105.183 95.1846 105.183 94.6768C105.183 94.3551 105.09 94.0716 104.903 93.8262C104.717 93.5807 104.476 93.3649 104.18 93.1787C103.883 92.9925 103.439 92.7428 102.847 92.4297C102.051 92.0065 101.446 91.6637 101.031 91.4014C100.388 91.0036 99.9014 90.5592 99.5713 90.0684C99.2497 89.5775 99.0889 88.9935 99.0889 88.3164C99.0889 87.6647 99.2539 87.1104 99.584 86.6533C99.9141 86.1878 100.363 85.8366 100.93 85.5996C101.497 85.3626 102.136 85.2441 102.847 85.2441C103.498 85.2441 104.116 85.3245 104.7 85.4854C105.293 85.6462 105.826 85.8747 106.3 86.1709L106.376 88.9893ZM122.537 89.2686C122.537 88.6338 122.478 88.0964 122.359 87.6562C122.249 87.2161 122.021 86.8607 121.674 86.5898C121.335 86.319 120.849 86.1836 120.214 86.1836C119.994 86.1836 119.723 86.2301 119.401 86.3232C119.08 86.4163 118.796 86.5518 118.551 86.7295C118.314 86.8988 118.195 87.0977 118.195 87.3262C118.195 87.4193 118.212 87.5124 118.246 87.6055C118.28 87.6901 118.335 87.8001 118.411 87.9355C118.487 88.0625 118.542 88.1725 118.576 88.2656C118.61 88.3587 118.627 88.4561 118.627 88.5576C118.627 88.8962 118.517 89.1797 118.297 89.4082C118.085 89.6283 117.81 89.7383 117.472 89.7383C117.049 89.7383 116.71 89.5817 116.456 89.2686C116.211 88.9554 116.088 88.5788 116.088 88.1387C116.088 87.4785 116.346 86.9326 116.862 86.501C117.379 86.0693 118.001 85.752 118.729 85.5488C119.465 85.3457 120.15 85.2441 120.785 85.2441C121.979 85.2441 122.867 85.4219 123.451 85.7773C124.044 86.1243 124.433 86.6364 124.619 87.3135C124.814 87.9821 124.911 88.9215 124.911 90.1318L124.886 90.7666C124.877 90.9528 124.865 91.2617 124.848 91.6934C124.839 92.125 124.835 92.5228 124.835 92.8867C124.835 94.791 125.034 95.7432 125.432 95.7432C125.719 95.7432 126.092 95.4512 126.549 94.8672L127.082 95.4385C126.71 96.0479 126.341 96.5049 125.978 96.8096C125.614 97.1058 125.135 97.2539 124.543 97.2539C123.984 97.2539 123.523 97.0804 123.159 96.7334C122.804 96.3779 122.609 95.9209 122.575 95.3623C122.034 95.9548 121.424 96.4202 120.747 96.7588C120.078 97.0889 119.368 97.2539 118.614 97.2539C118.09 97.2539 117.603 97.1608 117.154 96.9746C116.714 96.7799 116.359 96.4922 116.088 96.1113C115.826 95.7305 115.694 95.2734 115.694 94.7402C115.694 93.9362 116.003 93.2676 116.621 92.7344C117.239 92.2012 117.95 91.7949 118.754 91.5156C119.558 91.2363 120.54 90.957 121.699 90.6777C121.801 90.6608 122.08 90.5931 122.537 90.4746V89.2686ZM122.537 91.2236C122.41 91.266 122.249 91.3167 122.055 91.376C121.327 91.613 120.705 91.8415 120.188 92.0615C119.672 92.2731 119.211 92.5609 118.805 92.9248C118.398 93.2887 118.195 93.7161 118.195 94.207C118.195 94.7064 118.331 95.0999 118.602 95.3877C118.881 95.6755 119.27 95.8193 119.77 95.8193C120.269 95.8193 120.751 95.6966 121.217 95.4512C121.682 95.1973 122.122 94.8672 122.537 94.4609V91.2236ZM143.941 82.083C143.831 81.9137 143.616 81.7445 143.294 81.5752C142.981 81.4059 142.672 81.262 142.367 81.1436C142.071 81.0251 141.876 80.9531 141.783 80.9277L141.809 80.4834L145.389 79.6201L146.303 79.5312V94.4736C146.303 94.9814 146.519 95.3454 146.95 95.5654C147.39 95.7855 147.86 95.8955 148.359 95.8955V96.5938L144.97 97.1523H144.119L144.005 95.1846C143.404 95.8786 142.773 96.3991 142.113 96.7461C141.453 97.0846 140.746 97.2539 139.993 97.2539C139.037 97.2539 138.161 97.0254 137.365 96.5684C136.578 96.1029 135.956 95.4554 135.499 94.626C135.042 93.7881 134.813 92.8275 134.813 91.7441C134.813 90.5 135.067 89.387 135.575 88.4053C136.091 87.4235 136.798 86.6576 137.695 86.1074C138.592 85.5573 139.595 85.2822 140.704 85.2822C141.22 85.2822 141.724 85.3626 142.215 85.5234C142.706 85.6758 143.281 85.9085 143.941 86.2217V82.083ZM143.941 90.5254C143.941 89.7044 143.869 89.0443 143.726 88.5449C143.582 88.0371 143.29 87.5885 142.85 87.1992C142.511 86.903 142.147 86.6745 141.758 86.5137C141.368 86.3444 140.975 86.2598 140.577 86.2598C139.909 86.2598 139.316 86.4756 138.8 86.9072C138.284 87.3389 137.882 87.9144 137.594 88.6338C137.314 89.3447 137.175 90.1149 137.175 90.9443C137.175 91.7484 137.314 92.5186 137.594 93.2549C137.882 93.9827 138.309 94.5794 138.876 95.0449C139.443 95.5104 140.129 95.7432 140.933 95.7432C141.576 95.7432 142.147 95.6035 142.646 95.3242C143.154 95.0365 143.586 94.6556 143.941 94.1816V90.5254ZM156.738 89.2686C156.738 88.6338 156.679 88.0964 156.561 87.6562C156.451 87.2161 156.222 86.8607 155.875 86.5898C155.536 86.319 155.05 86.1836 154.415 86.1836C154.195 86.1836 153.924 86.2301 153.603 86.3232C153.281 86.4163 152.997 86.5518 152.752 86.7295C152.515 86.8988 152.396 87.0977 152.396 87.3262C152.396 87.4193 152.413 87.5124 152.447 87.6055C152.481 87.6901 152.536 87.8001 152.612 87.9355C152.688 88.0625 152.743 88.1725 152.777 88.2656C152.811 88.3587 152.828 88.4561 152.828 88.5576C152.828 88.8962 152.718 89.1797 152.498 89.4082C152.286 89.6283 152.011 89.7383 151.673 89.7383C151.25 89.7383 150.911 89.5817 150.657 89.2686C150.412 88.9554 150.289 88.5788 150.289 88.1387C150.289 87.4785 150.547 86.9326 151.063 86.501C151.58 86.0693 152.202 85.752 152.93 85.5488C153.666 85.3457 154.352 85.2441 154.986 85.2441C156.18 85.2441 157.068 85.4219 157.652 85.7773C158.245 86.1243 158.634 86.6364 158.82 87.3135C159.015 87.9821 159.112 88.9215 159.112 90.1318L159.087 90.7666C159.078 90.9528 159.066 91.2617 159.049 91.6934C159.04 92.125 159.036 92.5228 159.036 92.8867C159.036 94.791 159.235 95.7432 159.633 95.7432C159.921 95.7432 160.293 95.4512 160.75 94.8672L161.283 95.4385C160.911 96.0479 160.543 96.5049 160.179 96.8096C159.815 97.1058 159.337 97.2539 158.744 97.2539C158.186 97.2539 157.724 97.0804 157.36 96.7334C157.005 96.3779 156.81 95.9209 156.776 95.3623C156.235 95.9548 155.625 96.4202 154.948 96.7588C154.28 97.0889 153.569 97.2539 152.815 97.2539C152.291 97.2539 151.804 97.1608 151.355 96.9746C150.915 96.7799 150.56 96.4922 150.289 96.1113C150.027 95.7305 149.896 95.2734 149.896 94.7402C149.896 93.9362 150.204 93.2676 150.822 92.7344C151.44 92.2012 152.151 91.7949 152.955 91.5156C153.759 91.2363 154.741 90.957 155.9 90.6777C156.002 90.6608 156.281 90.5931 156.738 90.4746V89.2686ZM156.738 91.2236C156.611 91.266 156.451 91.3167 156.256 91.376C155.528 91.613 154.906 91.8415 154.39 92.0615C153.873 92.2731 153.412 92.5609 153.006 92.9248C152.6 93.2887 152.396 93.7161 152.396 94.207C152.396 94.7064 152.532 95.0999 152.803 95.3877C153.082 95.6755 153.471 95.8193 153.971 95.8193C154.47 95.8193 154.952 95.6966 155.418 95.4512C155.883 95.1973 156.324 94.8672 156.738 94.4609V91.2236ZM170.386 88.9893C170.267 88.9977 170.068 89.002 169.789 89.002C169.544 88.1471 169.171 87.4489 168.672 86.9072C168.181 86.3656 167.55 86.0947 166.78 86.0947C166.247 86.0947 165.824 86.2259 165.511 86.4883C165.206 86.7507 165.054 87.1315 165.054 87.6309C165.054 87.9779 165.181 88.2995 165.435 88.5957C165.688 88.8919 165.997 89.1543 166.361 89.3828C166.734 89.6029 167.22 89.8652 167.821 90.1699C167.965 90.2376 168.181 90.3477 168.469 90.5C169.417 91.0078 170.106 91.5283 170.538 92.0615C170.978 92.5863 171.198 93.2295 171.198 93.9912C171.198 94.6937 171.025 95.2904 170.678 95.7812C170.331 96.2637 169.853 96.6318 169.243 96.8857C168.634 97.1312 167.936 97.2539 167.148 97.2539C166.454 97.2539 165.752 97.1693 165.041 97C164.33 96.8392 163.746 96.6191 163.289 96.3398V93.2422C163.619 93.1999 163.843 93.1787 163.962 93.1787C164.157 94.1182 164.499 94.8841 164.99 95.4766C165.49 96.069 166.171 96.3652 167.034 96.3652C167.652 96.3652 168.164 96.2129 168.57 95.9082C168.985 95.5951 169.192 95.1846 169.192 94.6768C169.192 94.3551 169.099 94.0716 168.913 93.8262C168.727 93.5807 168.486 93.3649 168.189 93.1787C167.893 92.9925 167.449 92.7428 166.856 92.4297C166.061 92.0065 165.456 91.6637 165.041 91.4014C164.398 91.0036 163.911 90.5592 163.581 90.0684C163.259 89.5775 163.099 88.9935 163.099 88.3164C163.099 87.6647 163.264 87.1104 163.594 86.6533C163.924 86.1878 164.372 85.8366 164.939 85.5996C165.507 85.3626 166.146 85.2441 166.856 85.2441C167.508 85.2441 168.126 85.3245 168.71 85.4854C169.302 85.6462 169.836 85.8747 170.31 86.1709L170.386 88.9893ZM185.646 94.1943C185.646 94.846 185.811 95.3581 186.141 95.7305C186.479 96.0944 186.957 96.306 187.575 96.3652C187.575 96.4922 187.571 96.6191 187.562 96.7461C187.554 96.8646 187.55 96.9492 187.55 97H181.304C181.304 96.9492 181.299 96.8646 181.291 96.7461C181.283 96.6191 181.278 96.4922 181.278 96.3652C181.422 96.2975 181.701 96.2002 182.116 96.0732C182.438 95.9717 182.671 95.8786 182.814 95.7939C182.967 95.7008 183.081 95.54 183.157 95.3115C183.242 95.083 183.284 94.7402 183.284 94.2832V89.6748C183.284 88.7438 183.085 88.0033 182.688 87.4531C182.298 86.8945 181.685 86.6152 180.847 86.6152C180.246 86.6152 179.662 86.776 179.095 87.0977C178.536 87.4108 178.02 87.8171 177.546 88.3164V94.042C177.546 94.8037 177.719 95.3623 178.066 95.7178C178.413 96.0732 178.98 96.2891 179.768 96.3652L179.755 97H172.988C172.988 96.9492 172.984 96.8646 172.976 96.7461C172.967 96.6191 172.963 96.4922 172.963 96.3652C174.444 96.2467 175.185 95.4723 175.185 94.042V82.2227C175.1 82.0957 174.914 81.9434 174.626 81.7656C174.338 81.5794 174.034 81.4144 173.712 81.2705C173.399 81.1266 173.166 81.0462 173.014 81.0293V80.585L176.645 79.6201L177.546 79.5312V87.25C178.215 86.5814 178.87 86.082 179.514 85.752C180.157 85.4134 180.902 85.2441 181.748 85.2441C182.924 85.2441 183.868 85.6208 184.579 86.374C185.29 87.1188 185.646 88.2572 185.646 89.7891V94.1943ZM200.981 85.2441C202.107 85.2441 203.131 85.4896 204.054 85.9805C204.985 86.4629 205.721 87.1569 206.263 88.0625C206.804 88.9596 207.075 90.0049 207.075 91.1982C207.075 92.3916 206.804 93.4495 206.263 94.3721C205.721 95.2861 204.997 95.9971 204.092 96.5049C203.186 97.0042 202.196 97.2539 201.121 97.2539C200.055 97.2539 199.056 96.9958 198.125 96.4795C197.194 95.9632 196.449 95.248 195.891 94.334C195.332 93.4115 195.053 92.3704 195.053 91.2109C195.053 90.0514 195.324 89.0189 195.865 88.1133C196.407 87.1992 197.131 86.4925 198.036 85.9932C198.95 85.4938 199.932 85.2441 200.981 85.2441ZM201.286 96.2637C202.361 96.2637 203.178 95.8786 203.736 95.1084C204.295 94.3382 204.574 93.3268 204.574 92.0742C204.574 90.9909 204.422 89.9964 204.117 89.0908C203.821 88.1768 203.394 87.4489 202.835 86.9072C202.276 86.3656 201.633 86.0947 200.905 86.0947C200.262 86.0947 199.691 86.2513 199.191 86.5645C198.701 86.8776 198.311 87.36 198.023 88.0117C197.736 88.6634 197.592 89.4801 197.592 90.4619C197.592 91.4268 197.744 92.3577 198.049 93.2549C198.354 94.1436 198.785 94.8672 199.344 95.4258C199.902 95.9844 200.55 96.2637 201.286 96.2637ZM213.88 93.7119C213.88 94.2197 213.905 94.6302 213.956 94.9434C214.015 95.248 214.227 95.5527 214.591 95.8574C214.963 96.1536 215.564 96.3229 216.394 96.3652C216.394 96.6276 216.389 96.8392 216.381 97H209.259C209.242 96.6784 209.233 96.4668 209.233 96.3652C209.437 96.306 209.635 96.2552 209.83 96.2129C210.287 96.0944 210.621 95.9844 210.833 95.8828C211.045 95.7812 211.21 95.612 211.328 95.375C211.455 95.1296 211.519 94.7614 211.519 94.2705V86.5391H209.538L209.513 85.5869H210.389C210.702 85.5869 210.926 85.5742 211.062 85.5488C211.197 85.515 211.299 85.4346 211.366 85.3076C211.434 85.1807 211.468 84.9691 211.468 84.6729C211.502 83.0225 211.912 81.7572 212.699 80.877C213.486 79.9967 214.599 79.5566 216.038 79.5566C216.918 79.5566 217.65 79.7217 218.234 80.0518C218.818 80.3734 219.11 80.8177 219.11 81.3848C219.11 81.7148 219.005 81.9899 218.793 82.21C218.581 82.4215 218.289 82.5273 217.917 82.5273C217.612 82.5273 217.38 82.4385 217.219 82.2607C217.066 82.0745 216.91 81.7995 216.749 81.4355C216.588 81.0716 216.432 80.8008 216.279 80.623C216.135 80.4453 215.915 80.3564 215.619 80.3564C215.23 80.3564 214.908 80.4665 214.654 80.6865C214.409 80.9066 214.218 81.2874 214.083 81.8291C213.948 82.3623 213.88 83.0986 213.88 84.0381V85.5869H216.8L216.825 86.5391H213.88V93.7119ZM234.23 82.083C234.12 81.9137 233.905 81.7445 233.583 81.5752C233.27 81.4059 232.961 81.262 232.656 81.1436C232.36 81.0251 232.165 80.9531 232.072 80.9277L232.098 80.4834L235.678 79.6201L236.592 79.5312V94.4736C236.592 94.9814 236.808 95.3454 237.239 95.5654C237.679 95.7855 238.149 95.8955 238.648 95.8955V96.5938L235.259 97.1523H234.408L234.294 95.1846C233.693 95.8786 233.062 96.3991 232.402 96.7461C231.742 97.0846 231.035 97.2539 230.282 97.2539C229.326 97.2539 228.45 97.0254 227.654 96.5684C226.867 96.1029 226.245 95.4554 225.788 94.626C225.331 93.7881 225.103 92.8275 225.103 91.7441C225.103 90.5 225.356 89.387 225.864 88.4053C226.381 87.4235 227.087 86.6576 227.984 86.1074C228.882 85.5573 229.884 85.2822 230.993 85.2822C231.509 85.2822 232.013 85.3626 232.504 85.5234C232.995 85.6758 233.57 85.9085 234.23 86.2217V82.083ZM234.23 90.5254C234.23 89.7044 234.159 89.0443 234.015 88.5449C233.871 88.0371 233.579 87.5885 233.139 87.1992C232.8 86.903 232.436 86.6745 232.047 86.5137C231.658 86.3444 231.264 86.2598 230.866 86.2598C230.198 86.2598 229.605 86.4756 229.089 86.9072C228.573 87.3389 228.171 87.9144 227.883 88.6338C227.604 89.3447 227.464 90.1149 227.464 90.9443C227.464 91.7484 227.604 92.5186 227.883 93.2549C228.171 93.9827 228.598 94.5794 229.165 95.0449C229.732 95.5104 230.418 95.7432 231.222 95.7432C231.865 95.7432 232.436 95.6035 232.936 95.3242C233.443 95.0365 233.875 94.6556 234.23 94.1816V90.5254ZM247.027 89.2686C247.027 88.6338 246.968 88.0964 246.85 87.6562C246.74 87.2161 246.511 86.8607 246.164 86.5898C245.826 86.319 245.339 86.1836 244.704 86.1836C244.484 86.1836 244.213 86.2301 243.892 86.3232C243.57 86.4163 243.286 86.5518 243.041 86.7295C242.804 86.8988 242.686 87.0977 242.686 87.3262C242.686 87.4193 242.702 87.5124 242.736 87.6055C242.77 87.6901 242.825 87.8001 242.901 87.9355C242.978 88.0625 243.033 88.1725 243.066 88.2656C243.1 88.3587 243.117 88.4561 243.117 88.5576C243.117 88.8962 243.007 89.1797 242.787 89.4082C242.576 89.6283 242.3 89.7383 241.962 89.7383C241.539 89.7383 241.2 89.5817 240.946 89.2686C240.701 88.9554 240.578 88.5788 240.578 88.1387C240.578 87.4785 240.836 86.9326 241.353 86.501C241.869 86.0693 242.491 85.752 243.219 85.5488C243.955 85.3457 244.641 85.2441 245.275 85.2441C246.469 85.2441 247.357 85.4219 247.941 85.7773C248.534 86.1243 248.923 86.6364 249.109 87.3135C249.304 87.9821 249.401 88.9215 249.401 90.1318L249.376 90.7666C249.368 90.9528 249.355 91.2617 249.338 91.6934C249.329 92.125 249.325 92.5228 249.325 92.8867C249.325 94.791 249.524 95.7432 249.922 95.7432C250.21 95.7432 250.582 95.4512 251.039 94.8672L251.572 95.4385C251.2 96.0479 250.832 96.5049 250.468 96.8096C250.104 97.1058 249.626 97.2539 249.033 97.2539C248.475 97.2539 248.013 97.0804 247.649 96.7334C247.294 96.3779 247.099 95.9209 247.065 95.3623C246.524 95.9548 245.914 96.4202 245.237 96.7588C244.569 97.0889 243.858 97.2539 243.104 97.2539C242.58 97.2539 242.093 97.1608 241.645 96.9746C241.204 96.7799 240.849 96.4922 240.578 96.1113C240.316 95.7305 240.185 95.2734 240.185 94.7402C240.185 93.9362 240.493 93.2676 241.111 92.7344C241.729 92.2012 242.44 91.7949 243.244 91.5156C244.048 91.2363 245.03 90.957 246.189 90.6777C246.291 90.6608 246.57 90.5931 247.027 90.4746V89.2686ZM247.027 91.2236C246.9 91.266 246.74 91.3167 246.545 91.376C245.817 91.613 245.195 91.8415 244.679 92.0615C244.162 92.2731 243.701 92.5609 243.295 92.9248C242.889 93.2887 242.686 93.7161 242.686 94.207C242.686 94.7064 242.821 95.0999 243.092 95.3877C243.371 95.6755 243.76 95.8193 244.26 95.8193C244.759 95.8193 245.242 95.6966 245.707 95.4512C246.173 95.1973 246.613 94.8672 247.027 94.4609V91.2236ZM256.777 94.0674C256.777 94.4652 256.82 94.8206 256.904 95.1338C256.997 95.4385 257.213 95.7093 257.552 95.9463C257.89 96.1833 258.398 96.3229 259.075 96.3652L259.062 97H252.448C252.448 96.9323 252.444 96.8223 252.436 96.6699C252.436 96.5176 252.44 96.3991 252.448 96.3145L252.867 96.2002C253.316 96.0817 253.637 95.9717 253.832 95.8701C254.027 95.7686 254.171 95.5908 254.264 95.3369C254.365 95.0745 254.416 94.6768 254.416 94.1436V87.7578C254.306 87.5716 254.103 87.4023 253.807 87.25C253.51 87.0892 253.201 86.958 252.88 86.8564C252.567 86.7549 252.41 86.7083 252.41 86.7168L252.436 86.2725L255.812 85.3711H256.536L256.739 87.707C257.213 86.8353 257.704 86.2174 258.212 85.8535C258.728 85.4896 259.316 85.3076 259.977 85.3076C260.315 85.3076 260.62 85.3796 260.891 85.5234C261.17 85.6589 261.386 85.8366 261.538 86.0566C261.699 86.2682 261.779 86.484 261.779 86.7041C261.779 86.848 261.737 87.0426 261.652 87.2881C261.576 87.5335 261.453 87.7493 261.284 87.9355C261.123 88.1217 260.924 88.2148 260.688 88.2148C260.417 88.2148 260.205 88.1556 260.053 88.0371C259.9 87.9102 259.744 87.724 259.583 87.4785C259.465 87.2923 259.35 87.1527 259.24 87.0596C259.139 86.9665 259.007 86.9199 258.847 86.9199C258.576 86.9199 258.33 87.0003 258.11 87.1611C257.899 87.3135 257.713 87.5039 257.552 87.7324C257.391 87.9609 257.196 88.2656 256.968 88.6465L256.777 88.9639V94.0674ZM265.778 79.5312C266.185 79.5312 266.532 79.6751 266.819 79.9629C267.107 80.2507 267.251 80.5977 267.251 81.0039C267.251 81.4186 267.107 81.7699 266.819 82.0576C266.532 82.3369 266.185 82.4766 265.778 82.4766C265.364 82.4766 265.012 82.3369 264.725 82.0576C264.445 81.7699 264.306 81.4186 264.306 81.0039C264.306 80.5977 264.445 80.2507 264.725 79.9629C265.012 79.6751 265.364 79.5312 265.778 79.5312ZM264.763 87.7705C264.653 87.5758 264.445 87.4023 264.141 87.25C263.844 87.0892 263.535 86.958 263.214 86.8564C262.901 86.7464 262.744 86.6956 262.744 86.7041L262.77 86.2598L266.337 85.3965L267.124 85.3457V94.207C267.124 94.5033 267.154 94.7826 267.213 95.0449C267.281 95.3073 267.475 95.5739 267.797 95.8447C268.127 96.1156 268.643 96.2891 269.346 96.3652C269.346 96.6445 269.341 96.8561 269.333 97H262.706C262.689 96.8477 262.681 96.6361 262.681 96.3652L263.036 96.2637C263.409 96.1621 263.709 96.0605 263.938 95.959C264.166 95.8574 264.361 95.7093 264.521 95.5146C264.682 95.3115 264.763 95.0407 264.763 94.7021V87.7705ZM274.487 94.1816C274.487 94.9095 274.669 95.4385 275.033 95.7686C275.406 96.0902 275.968 96.2891 276.722 96.3652C276.722 96.4922 276.717 96.6191 276.709 96.7461C276.701 96.873 276.696 96.9577 276.696 97H270.158L270.146 96.5938C270.146 96.4583 270.15 96.3652 270.158 96.3145C270.649 96.196 271.017 96.0902 271.263 95.9971C271.517 95.904 271.724 95.7516 271.885 95.54C272.046 95.3285 272.126 95.0322 272.126 94.6514V87.7705C272.024 87.5758 271.826 87.4023 271.529 87.25C271.233 87.0892 270.92 86.958 270.59 86.8564C270.268 86.7464 270.107 86.6956 270.107 86.7041L270.146 86.2725L273.611 85.4092L274.386 85.3584L274.525 87.415C274.991 86.7887 275.583 86.2725 276.303 85.8662C277.031 85.4515 277.813 85.2441 278.651 85.2441C279.879 85.2441 280.831 85.5911 281.508 86.2852C282.185 86.9792 282.553 88.016 282.612 89.3955C282.638 89.9372 282.65 90.4915 282.65 91.0586V93.8896C282.65 94.5075 282.688 94.9561 282.765 95.2354C282.841 95.5146 282.959 95.7093 283.12 95.8193C283.289 95.9209 283.569 96.0309 283.958 96.1494L284.491 96.3145C284.5 96.3652 284.504 96.4583 284.504 96.5938L284.491 97H278.232C278.232 96.9492 278.228 96.8646 278.22 96.7461C278.211 96.6191 278.207 96.4922 278.207 96.3652C278.266 96.3398 278.436 96.2891 278.715 96.2129C279.163 96.0859 279.51 95.9505 279.756 95.8066C280.01 95.6628 280.162 95.43 280.213 95.1084C280.255 94.863 280.276 94.5371 280.276 94.1309V91.2998C280.276 90.1742 280.234 89.3066 280.149 88.6973C280.073 88.0879 279.862 87.5885 279.515 87.1992C279.176 86.8099 278.626 86.6152 277.864 86.6152C277.263 86.6152 276.684 86.7887 276.125 87.1357C275.575 87.4827 275.029 87.944 274.487 88.5195V94.1816ZM296.806 86.7803C296.619 86.721 296.315 86.6914 295.892 86.6914C295.553 86.6914 295.198 86.7083 294.825 86.7422C294.453 86.7676 294.212 86.7887 294.102 86.8057C294.102 86.7887 294.195 86.9115 294.381 87.1738C294.567 87.4277 294.732 87.724 294.876 88.0625C295.028 88.3926 295.104 88.7227 295.104 89.0527C295.104 89.9076 294.889 90.6396 294.457 91.249C294.025 91.8584 293.463 92.3197 292.769 92.6328C292.083 92.9375 291.364 93.0898 290.61 93.0898C290.187 93.0898 289.646 93.0137 288.985 92.8613C288.96 92.8783 288.863 92.9417 288.693 93.0518C288.482 93.1872 288.325 93.3141 288.224 93.4326C288.131 93.5426 288.084 93.7035 288.084 93.915C288.084 94.1266 288.194 94.2874 288.414 94.3975C288.634 94.499 288.93 94.571 289.303 94.6133C289.675 94.6471 290.268 94.681 291.08 94.7148C291.689 94.7402 292.371 94.7783 293.124 94.8291C294.199 94.9053 295.066 95.1846 295.727 95.667C296.387 96.1494 296.717 96.8138 296.717 97.6602C296.717 98.4219 296.433 99.0905 295.866 99.666C295.299 100.242 294.533 100.682 293.568 100.986C292.612 101.299 291.558 101.456 290.407 101.456C289.451 101.456 288.621 101.35 287.919 101.139C287.216 100.936 286.679 100.669 286.307 100.339C285.943 100.017 285.761 99.6829 285.761 99.3359C285.761 98.9635 285.917 98.5531 286.23 98.1045C286.544 97.6559 287.035 97.1862 287.703 96.6953C287.229 96.5007 286.857 96.251 286.586 95.9463C286.324 95.6416 286.192 95.3031 286.192 94.9307C286.192 94.4821 286.374 94.0674 286.738 93.6865C287.102 93.3057 287.618 92.9206 288.287 92.5312C287.618 92.1504 287.102 91.6807 286.738 91.1221C286.374 90.5635 286.192 89.9287 286.192 89.2178C286.192 88.4561 286.379 87.7747 286.751 87.1738C287.132 86.5645 287.657 86.0905 288.325 85.752C289.002 85.4134 289.76 85.2441 290.598 85.2441C291.605 85.2441 292.536 85.4684 293.391 85.917C293.475 85.8831 293.666 85.8197 293.962 85.7266C294.258 85.625 294.609 85.5277 295.016 85.4346C295.43 85.3415 295.807 85.2949 296.146 85.2949C296.264 85.2949 296.382 85.3034 296.501 85.3203C296.628 85.3288 296.708 85.3372 296.742 85.3457L296.806 86.7803ZM288.452 88.9512C288.452 89.916 288.651 90.7074 289.049 91.3252C289.455 91.943 290.056 92.252 290.852 92.252C291.537 92.252 292.045 91.998 292.375 91.4902C292.714 90.9824 292.883 90.2926 292.883 89.4209C292.883 88.7354 292.777 88.1514 292.565 87.6689C292.362 87.1781 292.079 86.8099 291.715 86.5645C291.351 86.3105 290.945 86.1836 290.496 86.1836C290.115 86.1836 289.768 86.3021 289.455 86.5391C289.15 86.7676 288.905 87.0934 288.719 87.5166C288.541 87.9313 288.452 88.4095 288.452 88.9512ZM290.826 96.9619C290.183 96.9535 289.455 96.9027 288.643 96.8096C287.822 97.512 287.411 98.1553 287.411 98.7393C287.411 99.1455 287.597 99.4714 287.97 99.7168C288.351 99.9707 288.795 100.148 289.303 100.25C289.819 100.352 290.297 100.402 290.737 100.402C291.355 100.402 291.994 100.33 292.654 100.187C293.314 100.051 293.869 99.8395 294.317 99.5518C294.766 99.264 294.99 98.9128 294.99 98.498C294.99 98.041 294.736 97.6813 294.229 97.4189C293.729 97.1566 292.955 97.0127 291.905 96.9873L290.826 96.9619ZM302.823 95.5273C302.823 95.832 302.743 96.1156 302.582 96.3779C302.43 96.6403 302.218 96.8519 301.947 97.0127C301.685 97.1735 301.393 97.2539 301.071 97.2539C300.758 97.2539 300.466 97.1735 300.195 97.0127C299.933 96.8604 299.721 96.653 299.561 96.3906C299.408 96.1198 299.332 95.832 299.332 95.5273C299.332 95.2227 299.408 94.9391 299.561 94.6768C299.721 94.4144 299.933 94.207 300.195 94.0547C300.466 93.8939 300.758 93.8135 301.071 93.8135C301.393 93.8135 301.685 93.8939 301.947 94.0547C302.218 94.207 302.43 94.4144 302.582 94.6768C302.743 94.9391 302.823 95.2227 302.823 95.5273ZM306.2 86.209C306.251 86.1751 306.42 86.082 306.708 85.9297C307.106 85.7266 307.423 85.5488 307.66 85.3965C307.897 85.2357 308.092 85.0326 308.244 84.7871C308.405 84.5417 308.485 84.2412 308.485 83.8857C308.358 83.708 308.206 83.5641 308.028 83.4541C307.859 83.3441 307.643 83.2679 307.381 83.2256C306.941 83.1494 306.611 82.9886 306.391 82.7432C306.171 82.4977 306.061 82.1761 306.061 81.7783C306.061 81.3128 306.226 80.9235 306.556 80.6104C306.886 80.2972 307.309 80.1406 307.825 80.1406C308.274 80.1406 308.672 80.2507 309.019 80.4707C309.374 80.6908 309.645 80.9997 309.831 81.3975C310.026 81.7868 310.123 82.2354 310.123 82.7432C310.123 83.3695 309.983 83.9788 309.704 84.5713C309.425 85.1637 309.023 85.6758 308.498 86.1074C307.982 86.5306 307.372 86.8057 306.67 86.9326C306.416 86.7126 306.259 86.4714 306.2 86.209ZM311.685 86.209C311.795 86.1413 311.968 86.0482 312.205 85.9297C312.611 85.7181 312.924 85.5361 313.145 85.3838C313.373 85.223 313.563 85.0199 313.716 84.7744C313.877 84.529 313.957 84.2327 313.957 83.8857C313.83 83.708 313.678 83.5641 313.5 83.4541C313.331 83.3441 313.119 83.2679 312.865 83.2256C312.425 83.1494 312.095 82.9886 311.875 82.7432C311.655 82.4977 311.545 82.1761 311.545 81.7783C311.545 81.3128 311.706 80.9235 312.027 80.6104C312.357 80.2972 312.785 80.1406 313.31 80.1406C313.758 80.1406 314.156 80.2507 314.503 80.4707C314.85 80.6908 315.117 80.9997 315.303 81.3975C315.497 81.7868 315.595 82.2354 315.595 82.7432C315.595 83.3695 315.455 83.9788 315.176 84.5713C314.896 85.1637 314.494 85.6758 313.97 86.1074C313.453 86.5306 312.844 86.8057 312.142 86.9326C311.896 86.721 311.744 86.4798 311.685 86.209Z" fill="#CCA298"/>
</svg>
