<svg width="247" height="107" viewBox="0 0 247 107" fill="none" xmlns="http://www.w3.org/2000/svg">
<path d="M0.479004 20.8682C0.479004 18.2557 0.479004 16.9495 0.742204 16.134C1.67596 13.2407 4.79795 11.6724 7.67648 12.6507C8.48786 12.9264 9.53576 13.7062 11.6316 15.2659C12.0357 15.5667 12.2378 15.717 12.4477 15.8456C13.1615 16.2826 13.9664 16.5493 14.7999 16.6248C15.0451 16.647 15.297 16.647 15.8007 16.647H180.781C203.599 16.647 215.008 16.647 222.096 23.7355C229.185 30.824 229.185 42.2328 229.185 65.0503V97.7226C229.185 101.716 229.185 103.712 227.944 104.953C226.704 106.193 224.707 106.193 220.714 106.193H25.3035C19.432 106.193 13.7505 104.112 9.26831 100.319C3.69396 95.6026 0.479004 88.6708 0.479004 81.3687V20.8682Z" fill="#CCA298"/>
<path d="M6.5293 14.8178C6.5293 12.2053 6.5293 10.8991 6.7925 10.0836C7.72626 7.19031 10.8482 5.62203 13.7268 6.60024C14.5382 6.87597 15.5861 7.65581 17.6819 9.21548C18.086 9.51624 18.2881 9.66661 18.498 9.79516C19.2118 10.2322 20.0167 10.4988 20.8502 10.5744C21.0954 10.5966 21.3473 10.5966 21.851 10.5966H186.832C209.649 10.5966 221.058 10.5966 228.147 17.6851C235.235 24.7736 235.235 36.1824 235.235 58.9999V84.3435C235.235 85.3084 235.235 85.7909 235.339 86.2503C235.414 86.5851 235.53 86.9096 235.683 87.2165C235.894 87.6375 236.2 88.0109 236.811 88.7577C239.93 92.5697 241.489 94.4758 241.42 96.0896C241.371 97.2319 240.862 98.3057 240.009 99.0671C238.804 100.143 236.341 100.143 231.416 100.143H25.7408C21.7079 100.143 17.7773 98.8736 14.5059 96.5152C9.49715 92.9043 6.5293 87.1059 6.5293 80.9313V14.8178Z" fill="white"/>
<path d="M10.7541 84.6814C10.2298 83.3034 9.86969 81.8577 9.68908 80.3733L9.98939 80.3368C9.90187 79.6174 9.85721 78.8888 9.85721 78.1544V76.1491H9.55469V72.1386H9.85721V68.1281H9.55469V64.1176H9.85721V60.1071H9.55469V56.0966H9.85721V52.0861H9.55469V48.0756H9.85721V44.0651H9.55469V40.0546H9.85721V36.044H9.55469V32.0335H9.85721V28.023H9.55469V24.0125H9.85721V20.002H9.55469V15.9915H9.85721V13.9863C9.85721 13.3494 10.0524 12.8102 10.3657 12.3848L10.1222 12.2054C10.8869 11.1673 12.2936 10.7197 13.5176 11.125L13.4225 11.4122C13.924 11.5783 14.3949 11.9056 14.7629 12.4253C14.9168 12.6426 15.0945 12.8381 15.2911 13.0091L15.4897 12.7809C15.8518 13.096 16.2847 13.3199 16.7511 13.4334L16.6796 13.7273C16.9328 13.7889 17.195 13.821 17.4613 13.821H19.5406V13.5185H23.6992V13.821H27.8578V13.5185H32.0165V13.821H36.1751V13.5185H40.3338V13.821H44.4924V13.5185H48.6511V13.821H52.8097V13.5185H56.9684V13.821H61.127V13.5185H65.2856V13.821H69.4443V13.5185H73.6029V13.821H77.7616V13.5185H81.9202V13.821H86.0788V13.5185H90.2375V13.821H94.3961V13.5185H98.5547V13.821H102.713V13.5185H106.872V13.821H111.031V13.5185H115.189V13.821H119.348V13.5185H123.507V13.821H127.665V13.5185H131.824V13.821H135.982V13.5185H140.141V13.821H144.3V13.5185H148.458V13.821H152.617V13.5185H156.776V13.821H160.934V13.5185H165.093V13.821H169.252V13.5185H173.41V13.821H177.569V13.5185H181.728V13.821H183.807C183.898 13.821 183.988 13.821 184.079 13.821C184.079 13.821 184.079 13.821 184.079 13.821C184.712 13.821 185.337 13.821 185.952 13.8212L185.953 13.5187C187.433 13.5192 188.864 13.5207 190.246 13.5253L190.245 13.8278C191.731 13.8328 193.16 13.8414 194.536 13.8563L194.54 13.5538C196.028 13.5699 197.455 13.5934 198.823 13.6275L198.815 13.9299C200.313 13.9673 201.739 14.0174 203.1 14.0847L203.115 13.7825C204.619 13.8569 206.044 13.9523 207.394 14.0746L207.367 14.3758C208.869 14.5118 210.278 14.6811 211.601 14.8916L211.648 14.5928C213.15 14.8317 214.545 15.1238 215.844 15.4808L215.764 15.7725C217.207 16.1689 218.527 16.6452 219.742 17.217L219.871 16.9432C221.2 17.5685 222.409 18.3079 223.519 19.1823L223.332 19.4199C223.881 19.8523 224.405 20.3184 224.908 20.8209C225.41 21.3234 225.876 21.8478 226.309 22.3966L226.546 22.2094C227.421 23.3194 228.16 24.5285 228.785 25.8575L228.512 25.9863C229.083 27.2018 229.56 28.522 229.956 29.9644L230.248 29.8843C230.605 31.1836 230.897 32.5783 231.136 34.0803L230.837 34.1279C231.048 35.451 231.217 36.8594 231.353 38.3618L231.654 38.3345C231.776 39.6848 231.872 41.1093 231.946 42.6139L231.644 42.6288C231.711 43.9893 231.761 45.4159 231.799 46.9133L232.101 46.9057C232.135 48.2739 232.159 49.7006 232.175 51.189L231.872 51.1922C231.887 52.5686 231.896 53.998 231.901 55.4833L232.203 55.4822C232.208 56.8647 232.209 58.2953 232.21 59.7761L231.907 59.7762C231.908 60.48 231.908 61.1951 231.908 61.9218V63.8981H232.21V67.8507H231.908V71.8032H232.21V75.7558H231.908V79.7083H232.21V83.6609H231.908V85.6372C231.908 86.3833 231.971 87.1238 232.096 87.8512L232.395 87.8C232.64 89.2312 233.129 90.6104 233.838 91.8776L233.574 92.0253C233.935 92.6693 234.351 93.285 234.821 93.8649C235.007 94.0947 235.106 94.3482 235.135 94.6004L235.436 94.5655C235.512 95.2263 235.195 95.8911 234.633 96.2473L234.471 95.9918C234.257 96.1277 233.997 96.21 233.702 96.21H231.558V96.5125H227.271V96.21H222.983V96.5125H218.696V96.21H214.409V96.5125H210.122V96.21H205.834V96.5125H201.547V96.21H197.26V96.5125H192.973V96.21H188.685V96.5125H184.398V96.21H180.111V96.5125H175.824V96.21H171.536V96.5125H167.249V96.21H162.962V96.5125H158.675V96.21H154.387V96.5125H150.1V96.21H145.813V96.5125H141.525V96.21H137.238V96.5125H132.951V96.21H128.664V96.5125H124.376V96.21H120.089V96.5125H115.802V96.21H111.515V96.5125H107.227V96.21H102.94V96.5125H98.6528V96.21H94.3655V96.5125H90.0782V96.21H85.791V96.5125H81.5037V96.21H77.2164V96.5125H72.9292V96.21H68.6419V96.5125H64.3546V96.21H60.0674V96.5125H55.7801V96.21H51.4928V96.5125H47.2055V96.21H42.9183V96.5125H38.631V96.21H34.3437V96.5125H30.0565V96.21H27.9128C27.0035 96.21 26.0994 96.1413 25.208 96.0063L25.1626 96.3054C23.3397 96.0292 21.5685 95.4798 19.9091 94.676L20.041 94.4037C19.2296 94.0106 18.4453 93.5556 17.6956 93.0411C17.09 92.6254 16.5146 92.1763 15.971 91.6971L15.7709 91.924C14.6493 90.9351 13.6611 89.8201 12.8216 88.6081L13.0703 88.4359C12.239 87.2355 11.556 85.9385 11.0368 84.5738L10.7541 84.6814Z" fill="white" stroke="#C17766" stroke-width="0.605042" stroke-dasharray="4.24 4.24"/>
<path d="M147.179 75.7062H155.202L155.069 76.4879H147.046L147.179 75.7062ZM157.173 71.9211H159.611C159.899 71.9211 160.166 71.9691 160.413 72.0651C160.66 72.1542 160.873 72.2845 161.051 72.4559C161.236 72.6274 161.377 72.8365 161.473 73.0834C161.575 73.3234 161.627 73.5942 161.627 73.8959C161.627 74.1976 161.575 74.4788 161.473 74.7394C161.37 74.9931 161.226 75.2228 161.041 75.4285C160.855 75.6274 160.629 75.7988 160.362 75.9428C160.101 76.0799 159.81 76.1794 159.487 76.2411L159.457 76.2719L160.979 79.2445L160.969 79.2856H159.899L158.418 76.3028H157.348L156.813 79.2856H155.867L157.173 71.9211ZM159.025 75.4182C159.244 75.4182 159.453 75.3874 159.652 75.3256C159.851 75.2571 160.022 75.1611 160.166 75.0376C160.317 74.9074 160.434 74.7496 160.516 74.5645C160.605 74.3725 160.65 74.1531 160.65 73.9062C160.65 73.6114 160.547 73.3576 160.341 73.1451C160.142 72.9325 159.847 72.8262 159.457 72.8262H157.955L157.502 75.4182H159.025ZM164.633 74.0811C165.284 74.0811 165.774 74.2319 166.104 74.5336C166.44 74.8354 166.608 75.2434 166.608 75.7576C166.608 75.8399 166.601 75.9291 166.587 76.0251C166.58 76.1142 166.57 76.2068 166.556 76.3028L166.021 79.2856H165.116L165.24 78.5862H165.198C165.034 78.8262 164.808 79.0319 164.52 79.2034C164.232 79.3679 163.909 79.4502 163.553 79.4502C163.306 79.4502 163.076 79.4125 162.864 79.3371C162.651 79.2685 162.466 79.1656 162.308 79.0285C162.157 78.8914 162.037 78.7302 161.948 78.5451C161.859 78.3531 161.814 78.1371 161.814 77.8971C161.814 77.6091 161.876 77.3485 162 77.1154C162.13 76.8822 162.305 76.6868 162.524 76.5291C162.744 76.3645 163.001 76.2376 163.296 76.1485C163.597 76.0594 163.923 76.0148 164.273 76.0148C164.554 76.0148 164.801 76.0456 165.013 76.1074C165.233 76.1622 165.442 76.2342 165.641 76.3234L165.682 76.1074C165.696 76.0525 165.702 75.9839 165.702 75.9016C165.702 75.6068 165.596 75.3702 165.384 75.1919C165.171 75.0136 164.89 74.9245 164.54 74.9245C164.273 74.9245 164.033 74.9759 163.82 75.0788C163.614 75.1816 163.412 75.3531 163.213 75.5931L162.473 75.0685C162.713 74.7462 163.018 74.5028 163.388 74.3382C163.765 74.1668 164.18 74.0811 164.633 74.0811ZM163.748 78.6068C163.961 78.6068 164.163 78.5691 164.355 78.4936C164.554 78.4182 164.729 78.3154 164.88 78.1851C165.037 78.0479 165.171 77.8902 165.281 77.7119C165.39 77.5268 165.462 77.3314 165.497 77.1256C165.414 77.0639 165.312 77.0056 165.188 76.9508C165.078 76.9096 164.941 76.8719 164.777 76.8376C164.619 76.7965 164.427 76.7759 164.201 76.7759C164.029 76.7759 163.858 76.7965 163.686 76.8376C163.522 76.8788 163.374 76.9439 163.244 77.0331C163.114 77.1222 163.008 77.2319 162.925 77.3622C162.843 77.4925 162.802 77.6434 162.802 77.8148C162.802 77.9451 162.829 78.0616 162.884 78.1645C162.939 78.2605 163.008 78.3428 163.09 78.4114C163.179 78.4731 163.278 78.5211 163.388 78.5554C163.505 78.5896 163.625 78.6068 163.748 78.6068ZM169.116 79.4502C168.787 79.4502 168.485 79.3919 168.211 79.2754C167.944 79.1519 167.714 78.9874 167.522 78.7816C167.337 78.5691 167.189 78.3222 167.08 78.0411C166.977 77.7531 166.925 77.4479 166.925 77.1256C166.925 76.6868 167.004 76.2822 167.162 75.9119C167.32 75.5348 167.532 75.2125 167.8 74.9451C168.074 74.6708 168.393 74.4582 168.756 74.3074C169.126 74.1565 169.521 74.0811 169.939 74.0811C170.248 74.0811 170.518 74.1256 170.752 74.2148C170.985 74.2971 171.184 74.4068 171.348 74.5439C171.52 74.6811 171.657 74.8388 171.76 75.0171C171.862 75.1885 171.938 75.3599 171.986 75.5314L171.101 75.8708C171.019 75.5828 170.872 75.3565 170.659 75.1919C170.453 75.0274 170.176 74.9451 169.826 74.9451C169.552 74.9451 169.294 74.9999 169.054 75.1096C168.821 75.2125 168.619 75.3599 168.448 75.5519C168.276 75.7371 168.139 75.9599 168.036 76.2205C167.94 76.4742 167.892 76.7519 167.892 77.0536C167.892 77.2594 167.923 77.4582 167.985 77.6502C168.046 77.8354 168.136 77.9965 168.252 78.1336C168.369 78.2708 168.516 78.3805 168.694 78.4628C168.873 78.5451 169.075 78.5862 169.301 78.5862C169.624 78.5862 169.912 78.5005 170.165 78.3291C170.426 78.1576 170.645 77.9245 170.824 77.6296L171.585 77.9896C171.427 78.2365 171.266 78.4525 171.101 78.6376C170.944 78.8228 170.765 78.9771 170.566 79.1005C170.374 79.2171 170.158 79.3028 169.918 79.3576C169.685 79.4194 169.418 79.4502 169.116 79.4502ZM174.007 74.2456L173.842 74.9451H173.883C174.068 74.6982 174.315 74.4925 174.624 74.3279C174.932 74.1634 175.268 74.0811 175.632 74.0811C175.913 74.0811 176.156 74.1222 176.362 74.2045C176.568 74.2799 176.736 74.3862 176.866 74.5234C176.996 74.6605 177.092 74.8216 177.154 75.0068C177.216 75.1851 177.247 75.3771 177.247 75.5828C177.247 75.6651 177.24 75.7576 177.226 75.8605C177.219 75.9565 177.202 76.0834 177.175 76.2411L176.629 79.2856H175.683L176.218 76.2616C176.232 76.1931 176.242 76.1279 176.249 76.0662C176.256 75.9976 176.259 75.9359 176.259 75.8811C176.259 75.5725 176.167 75.3394 175.981 75.1816C175.803 75.0239 175.56 74.9451 175.251 74.9451C175.039 74.9451 174.84 74.9896 174.655 75.0788C174.469 75.1679 174.305 75.2879 174.161 75.4388C174.017 75.5828 173.893 75.7508 173.791 75.9428C173.695 76.1348 173.629 76.3336 173.595 76.5394L173.122 79.2856H172.176L173.472 71.9211H174.418L174.007 74.2456ZM182.544 78.0925C182.276 78.5382 181.933 78.8776 181.515 79.1108C181.097 79.3371 180.648 79.4502 180.168 79.4502C179.797 79.4502 179.468 79.3885 179.18 79.2651C178.899 79.1416 178.659 78.9771 178.46 78.7714C178.268 78.5588 178.121 78.3154 178.018 78.0411C177.922 77.7599 177.874 77.4616 177.874 77.1462C177.874 76.7554 177.939 76.3782 178.069 76.0148C178.206 75.6445 178.402 75.3154 178.656 75.0274C178.909 74.7394 179.214 74.5096 179.571 74.3382C179.934 74.1668 180.339 74.0811 180.785 74.0811C181.134 74.0811 181.443 74.1359 181.71 74.2456C181.978 74.3554 182.201 74.5062 182.379 74.6982C182.557 74.8902 182.691 75.1131 182.78 75.3668C182.869 75.6205 182.914 75.8948 182.914 76.1896C182.914 76.3131 182.907 76.4434 182.893 76.5805C182.88 76.7176 182.856 76.8376 182.821 76.9405H178.851C178.844 77.0091 178.841 77.0639 178.841 77.1051C178.841 77.1462 178.841 77.1908 178.841 77.2388C178.841 77.4651 178.878 77.6639 178.954 77.8354C179.036 78.0068 179.142 78.1474 179.273 78.2571C179.403 78.3668 179.55 78.4491 179.715 78.5039C179.88 78.5588 180.048 78.5862 180.219 78.5862C180.562 78.5862 180.867 78.5039 181.134 78.3394C181.409 78.1748 181.635 77.9554 181.813 77.6811L182.544 78.0925ZM181.957 76.1588V76.0456C181.957 75.9016 181.93 75.7645 181.875 75.6342C181.827 75.4971 181.748 75.3805 181.638 75.2845C181.536 75.1816 181.405 75.0994 181.248 75.0376C181.09 74.9759 180.905 74.9451 180.692 74.9451C180.281 74.9451 179.928 75.0582 179.633 75.2845C179.345 75.5039 179.142 75.7954 179.026 76.1588H181.957ZM183.265 79.2856L184.561 71.9211H185.507L184.211 79.2856H183.265ZM187.552 78.2982L192.407 72.8262H188.674L188.838 71.9211H193.693L193.518 72.9085L188.653 78.3805H192.592L192.428 79.2856H187.378L187.552 78.2982ZM196.467 74.0811C196.817 74.0811 197.135 74.1462 197.423 74.2765C197.718 74.3999 197.969 74.5714 198.174 74.7908C198.38 75.0102 198.538 75.2674 198.647 75.5622C198.764 75.8502 198.822 76.1588 198.822 76.4879C198.822 76.9062 198.747 77.2971 198.596 77.6605C198.445 78.0171 198.236 78.3291 197.969 78.5965C197.701 78.8639 197.382 79.0731 197.012 79.2239C196.642 79.3748 196.241 79.4502 195.809 79.4502C195.459 79.4502 195.137 79.3885 194.842 79.2651C194.554 79.1348 194.307 78.9599 194.101 78.7405C193.895 78.5211 193.734 78.2674 193.618 77.9794C193.508 77.6845 193.453 77.3725 193.453 77.0434C193.453 76.6251 193.529 76.2376 193.679 75.8811C193.83 75.5176 194.039 75.2022 194.307 74.9348C194.574 74.6674 194.893 74.4582 195.263 74.3074C195.634 74.1565 196.035 74.0811 196.467 74.0811ZM195.901 78.5862C196.203 78.5862 196.474 78.5314 196.714 78.4216C196.961 78.3051 197.166 78.1542 197.331 77.9691C197.502 77.7771 197.633 77.5611 197.722 77.3211C197.811 77.0742 197.855 76.8171 197.855 76.5496C197.855 76.3165 197.814 76.1039 197.732 75.9119C197.657 75.7131 197.55 75.5416 197.413 75.3976C197.283 75.2536 197.125 75.1439 196.94 75.0685C196.762 74.9862 196.573 74.9451 196.374 74.9451C196.073 74.9451 195.798 75.0034 195.551 75.1199C195.311 75.2296 195.106 75.3805 194.934 75.5725C194.77 75.7576 194.643 75.9736 194.554 76.2205C194.465 76.4605 194.42 76.7142 194.42 76.9816C194.42 77.2148 194.458 77.4308 194.533 77.6296C194.615 77.8216 194.722 77.9896 194.852 78.1336C194.989 78.2776 195.147 78.3908 195.325 78.4731C195.51 78.5485 195.702 78.5862 195.901 78.5862ZM203.878 78.0925C203.611 78.5382 203.268 78.8776 202.85 79.1108C202.432 79.3371 201.982 79.4502 201.502 79.4502C201.132 79.4502 200.803 79.3885 200.515 79.2651C200.234 79.1416 199.994 78.9771 199.795 78.7714C199.603 78.5588 199.456 78.3154 199.353 78.0411C199.257 77.7599 199.209 77.4616 199.209 77.1462C199.209 76.7554 199.274 76.3782 199.404 76.0148C199.541 75.6445 199.737 75.3154 199.99 75.0274C200.244 74.7394 200.549 74.5096 200.906 74.3382C201.269 74.1668 201.674 74.0811 202.12 74.0811C202.469 74.0811 202.778 74.1359 203.045 74.2456C203.313 74.3554 203.536 74.5062 203.714 74.6982C203.892 74.8902 204.026 75.1131 204.115 75.3668C204.204 75.6205 204.249 75.8948 204.249 76.1896C204.249 76.3131 204.242 76.4434 204.228 76.5805C204.214 76.7176 204.19 76.8376 204.156 76.9405H200.186C200.179 77.0091 200.176 77.0639 200.176 77.1051C200.176 77.1462 200.176 77.1908 200.176 77.2388C200.176 77.4651 200.213 77.6639 200.289 77.8354C200.371 78.0068 200.477 78.1474 200.608 78.2571C200.738 78.3668 200.885 78.4491 201.05 78.5039C201.214 78.5588 201.382 78.5862 201.554 78.5862C201.897 78.5862 202.202 78.5039 202.469 78.3394C202.744 78.1748 202.97 77.9554 203.148 77.6811L203.878 78.0925ZM203.292 76.1588V76.0456C203.292 75.9016 203.265 75.7645 203.21 75.6342C203.162 75.4971 203.083 75.3805 202.973 75.2845C202.87 75.1816 202.74 75.0994 202.582 75.0376C202.425 74.9759 202.24 74.9451 202.027 74.9451C201.616 74.9451 201.262 75.0582 200.968 75.2845C200.68 75.5039 200.477 75.7954 200.361 76.1588H203.292Z" fill="#C17766"/>
<path d="M34.9892 29.9111C34.7485 30.0391 34.5565 30.1518 34.4131 30.249C34.2697 30.3463 34.1494 30.4692 34.0521 30.6177C33.9599 30.7662 33.9138 30.9455 33.9138 31.1554C33.9906 31.2681 34.0803 31.3577 34.1827 31.4243C34.2902 31.4908 34.4208 31.5369 34.5744 31.5625C35.1121 31.6598 35.3809 31.9492 35.3809 32.4305C35.3809 32.7173 35.2811 32.9554 35.0814 33.1449C34.8817 33.3343 34.6231 33.4291 34.3056 33.4291C34.0342 33.4291 33.7935 33.3625 33.5835 33.2294C33.3736 33.0962 33.2097 32.9093 33.0919 32.6686C32.9793 32.4279 32.923 32.154 32.923 31.8467C32.923 31.4729 33.0049 31.1068 33.1688 30.7483C33.3377 30.3847 33.581 30.0749 33.8985 29.8189C34.216 29.5629 34.5872 29.3964 35.0122 29.3196C35.1556 29.4374 35.2478 29.5808 35.2888 29.7498L34.9892 29.9111ZM38.2537 29.9111C38.013 30.0391 37.821 30.1518 37.6776 30.249C37.5342 30.3463 37.4139 30.4692 37.3166 30.6177C37.2244 30.7662 37.1783 30.9455 37.1783 31.1554C37.3217 31.3756 37.5419 31.5113 37.8389 31.5625C38.3715 31.6598 38.6378 31.9492 38.6378 32.4305C38.6378 32.7173 38.5379 32.9554 38.3382 33.1449C38.1436 33.3343 37.8876 33.4291 37.5701 33.4291C37.2987 33.4291 37.058 33.3625 36.8481 33.2294C36.6381 33.0962 36.4742 32.9093 36.3565 32.6686C36.2438 32.4279 36.1875 32.154 36.1875 31.8467C36.1875 31.4729 36.2694 31.1068 36.4333 30.7483C36.6023 30.3847 36.8455 30.0749 37.163 29.8189C37.4805 29.5629 37.8517 29.3964 38.2768 29.3196C38.4201 29.4374 38.5123 29.5808 38.5533 29.7498L38.2537 29.9111ZM40.9959 36.4247C41.0471 36.5118 41.0881 36.6014 41.1188 36.6936C41.1546 36.7857 41.1931 36.9061 41.234 37.0546C41.2545 37.1058 41.2724 37.1647 41.2878 37.2313C41.467 37.8201 41.8075 38.2733 42.3094 38.5908C42.8112 38.9083 43.3848 39.0671 44.03 39.0671C44.3679 39.0671 44.6957 39.0082 45.0132 38.8904C45.3358 38.7675 45.5995 38.5857 45.8043 38.345C46.0143 38.0992 46.1193 37.8022 46.1193 37.454C46.1193 37.1519 46.0117 36.8702 45.7967 36.6091C45.5867 36.3479 45.323 36.1149 45.0055 35.9101C44.6931 35.7001 44.2604 35.4415 43.7074 35.1343C43.057 34.7758 42.5296 34.4583 42.125 34.1818C41.7205 33.9053 41.3774 33.5776 41.0958 33.1986C40.8141 32.8146 40.6733 32.3819 40.6733 31.9005C40.6733 31.3065 40.8397 30.8175 41.1726 30.4334C41.5105 30.0442 41.9407 29.7626 42.463 29.5885C42.9905 29.4092 43.5461 29.3196 44.1298 29.3196C44.6317 29.3196 45.1309 29.3811 45.6277 29.504C46.1295 29.6269 46.6057 29.8035 47.0564 30.034L47.1562 32.2231H46.68C46.6185 32.1053 46.5468 31.9184 46.4649 31.6624L46.3881 31.4396C46.214 30.9378 45.9119 30.5589 45.4817 30.3028C45.0567 30.0417 44.5651 29.9111 44.0069 29.9111C43.7202 29.9111 43.4308 29.9597 43.139 30.057C42.8471 30.1543 42.6013 30.3054 42.4016 30.5102C42.207 30.7099 42.1097 30.9583 42.1097 31.2553C42.1097 31.5318 42.2121 31.7904 42.4169 32.0311C42.6218 32.2718 42.8752 32.492 43.1774 32.6917C43.4795 32.8863 43.8968 33.1321 44.4294 33.4291C45.1105 33.808 45.6609 34.1434 46.0809 34.4353C46.5059 34.7221 46.8669 35.0703 47.1639 35.4799C47.466 35.8896 47.6171 36.353 47.6171 36.8702C47.6171 37.5103 47.4404 38.0455 47.0871 38.4756C46.7338 38.9006 46.2754 39.213 45.7122 39.4127C45.154 39.6124 44.56 39.7123 43.9301 39.7123C43.3668 39.7123 42.76 39.6432 42.1097 39.5049C41.4645 39.3615 40.9421 39.1669 40.5427 38.9211V36.4401L40.9959 36.4247ZM51.281 37.1007C51.281 37.623 51.2989 37.9968 51.3348 38.2221C51.3706 38.4423 51.4577 38.6036 51.596 38.706C51.7342 38.8033 51.9672 38.852 52.2949 38.852C52.4895 38.852 52.6841 38.8341 52.8787 38.7982C53.0733 38.7624 53.2372 38.724 53.3703 38.683L53.4318 39.2437C53.1706 39.3718 52.9069 39.4742 52.6406 39.551C52.3743 39.6278 52.0543 39.6662 51.6804 39.6662C51.1837 39.6662 50.8048 39.5843 50.5436 39.4204C50.2825 39.2565 50.1007 38.9928 49.9983 38.6292C49.8959 38.2605 49.8446 37.7433 49.8446 37.0776V33.1833H48.7001V32.9144C49.0484 32.7762 49.3402 32.6149 49.5758 32.4305C49.8165 32.241 50.0136 32.0464 50.1673 31.8467C50.3209 31.647 50.5052 31.3833 50.7203 31.0556C50.8125 30.9071 50.8842 30.8098 50.9354 30.7637C50.9866 30.7125 51.0378 30.6869 51.089 30.6869C51.1402 30.6869 51.1812 30.7125 51.2119 30.7637C51.2477 30.8098 51.2657 30.884 51.2657 30.9864V32.6072H53.1936V33.1833H51.281V37.1007ZM54.9296 34.0436C54.8067 33.767 54.6889 33.5596 54.5763 33.4214C54.4636 33.2831 54.3586 33.1935 54.2613 33.1525C54.1692 33.1065 54.0591 33.0732 53.931 33.0527C53.8542 33.0424 53.7825 33.0271 53.716 33.0066V32.6072H57.3184C57.3287 32.6533 57.3415 32.7378 57.3569 32.8607C57.3773 32.9784 57.3773 33.0399 57.3569 33.045C57.0189 33.1065 56.7705 33.1781 56.6118 33.2601C56.453 33.3369 56.3737 33.4572 56.3737 33.6211C56.3737 33.7286 56.4069 33.8874 56.4735 34.0973L57.9944 37.8842L59.3079 34.3278C59.3847 34.1281 59.4231 33.9539 59.4231 33.8054C59.4231 33.5852 59.3437 33.4188 59.185 33.3062C59.0262 33.1884 58.7728 33.0988 58.4245 33.0373C58.4194 33.0066 58.4169 32.9477 58.4169 32.8607C58.4169 32.7992 58.4169 32.7454 58.4169 32.6994C58.422 32.6533 58.4245 32.6225 58.4245 32.6072H61.2435L61.2512 32.9989C61.1693 33.0655 61.0566 33.1244 60.9132 33.1756C60.7801 33.2319 60.6674 33.2882 60.5753 33.3446C60.4882 33.3958 60.4012 33.4803 60.3141 33.5981C60.2322 33.7158 60.1631 33.8771 60.1067 34.082L57.3799 40.7953C57.1546 41.3586 56.8857 41.7913 56.5734 42.0935C56.2661 42.3956 55.8744 42.5466 55.3981 42.5466C55.0551 42.5466 54.7708 42.4647 54.5455 42.3008C54.3253 42.1421 54.2152 41.927 54.2152 41.6556C54.2152 41.4559 54.2844 41.2869 54.4226 41.1487C54.566 41.0104 54.7376 40.9413 54.9373 40.9413C55.1165 40.9413 55.2496 40.972 55.3367 41.0335C55.4289 41.0949 55.5185 41.1871 55.6055 41.31C55.6721 41.4021 55.7336 41.4713 55.7899 41.5174C55.8513 41.5686 55.9333 41.5942 56.0357 41.5942C56.1944 41.5942 56.3353 41.5225 56.4582 41.3791C56.5811 41.2357 56.6963 41.0411 56.8038 40.7953C56.9165 40.5547 57.0726 40.1757 57.2724 39.6585L57.3261 39.5126L54.9296 34.0436ZM64.4082 37.7152C64.4082 38.1453 64.4952 38.4782 64.6694 38.7137C64.8486 38.9442 65.143 39.0824 65.5527 39.1285C65.5527 39.2053 65.5501 39.2821 65.545 39.3589C65.5399 39.4358 65.5373 39.487 65.5373 39.5126H61.7582L61.7505 39.1285C61.7966 39.0978 61.8555 39.0696 61.9272 39.044C62.004 39.0184 62.0808 38.9954 62.1576 38.9749C62.3829 38.9134 62.5596 38.8469 62.6876 38.7752C62.8156 38.6984 62.8924 38.5857 62.918 38.4372C62.959 38.217 62.9795 37.9917 62.9795 37.7613L62.9718 30.5333C62.9104 30.4308 62.7849 30.331 62.5954 30.2337C62.4111 30.1313 62.2293 30.0468 62.0501 29.9802C61.8708 29.9085 61.7556 29.865 61.7044 29.8496L61.7198 29.5808L63.8551 28.997L64.4082 28.9432V37.7152ZM67.9492 35.4723C67.9441 35.5235 67.9415 35.5977 67.9415 35.695C67.9415 36.3402 68.0568 36.8805 68.2872 37.3158C68.5228 37.7459 68.8351 38.0659 69.2243 38.2759C69.6186 38.4807 70.059 38.5831 70.5455 38.5831C71.1907 38.5831 71.8129 38.3988 72.412 38.0301L72.6348 38.2452C72.5119 38.5422 72.3045 38.7982 72.0126 39.0133C71.7258 39.2284 71.3981 39.3922 71.0294 39.5049C70.6658 39.6124 70.3125 39.6662 69.9694 39.6662C69.3242 39.6662 68.743 39.5151 68.2258 39.213C67.7137 38.9109 67.3117 38.4884 67.0198 37.9456C66.733 37.4028 66.5897 36.7806 66.5897 36.0791C66.5897 35.3673 66.7458 34.7323 67.0582 34.1741C67.3706 33.6109 67.7854 33.1756 68.3026 32.8683C68.8249 32.556 69.3831 32.3998 69.9771 32.3998C70.4635 32.3998 70.9014 32.4996 71.2905 32.6994C71.6848 32.8939 72.0049 33.1705 72.2507 33.5289C72.4965 33.8823 72.6527 34.2894 72.7193 34.7502C72.7756 34.9858 72.8037 35.2034 72.8037 35.4031V35.4723H67.9492ZM70.7145 34.9807C70.9398 34.9704 71.1292 34.9295 71.2829 34.8578C71.247 34.2484 71.1036 33.7722 70.8527 33.4291C70.6069 33.086 70.2561 32.9144 69.8004 32.9144C69.4675 32.9144 69.1705 33.0143 68.9094 33.214C68.6533 33.4137 68.4459 33.68 68.2872 34.0128C68.1285 34.3406 68.026 34.7016 67.98 35.0959L70.7145 34.9807ZM79.302 28.9432C79.5478 28.9432 79.7578 29.0303 79.9319 29.2044C80.106 29.3785 80.1931 29.5885 80.1931 29.8343C80.1931 30.0852 80.106 30.2977 79.9319 30.4718C79.7578 30.6408 79.5478 30.7253 79.302 30.7253C79.0511 30.7253 78.8386 30.6408 78.6645 30.4718C78.4955 30.2977 78.411 30.0852 78.411 29.8343C78.411 29.5885 78.4955 29.3785 78.6645 29.2044C78.8386 29.0303 79.0511 28.9432 79.302 28.9432ZM78.6875 33.9283C78.621 33.8106 78.4955 33.7056 78.3112 33.6134C78.1319 33.5161 77.945 33.4367 77.7504 33.3753C77.561 33.3087 77.4662 33.278 77.4662 33.2831L77.4816 33.0143L79.64 32.492L80.1162 32.4612V37.8227C80.1162 38.0019 80.1342 38.1709 80.17 38.3297C80.211 38.4884 80.3288 38.6497 80.5233 38.8136C80.7231 38.9774 81.0354 39.0824 81.4605 39.1285C81.4605 39.2975 81.4579 39.4255 81.4528 39.5126H77.4432C77.4329 39.4204 77.4278 39.2924 77.4278 39.1285L77.6429 39.0671C77.8682 39.0056 78.05 38.9442 78.1883 38.8827C78.3265 38.8213 78.4443 38.7317 78.5416 38.6139C78.6389 38.491 78.6875 38.3271 78.6875 38.1223V33.9283ZM86.9218 34.6657C86.8501 34.6709 86.7298 34.6734 86.5608 34.6734C86.4123 34.1562 86.187 33.7338 85.8848 33.406C85.5878 33.0783 85.2063 32.9144 84.7403 32.9144C84.4177 32.9144 84.1617 32.9938 83.9722 33.1525C83.7879 33.3113 83.6957 33.5417 83.6957 33.8438C83.6957 34.0538 83.7725 34.2484 83.9261 34.4276C84.0797 34.6068 84.2667 34.7656 84.4868 34.9039C84.7122 35.037 85.0066 35.1957 85.3702 35.3801C85.4572 35.4211 85.5878 35.4876 85.7619 35.5798C86.3355 35.887 86.7528 36.202 87.014 36.5246C87.2802 36.8421 87.4134 37.2313 87.4134 37.6921C87.4134 38.1172 87.3084 38.4782 87.0985 38.7752C86.8885 39.0671 86.5992 39.2898 86.2305 39.4434C85.8618 39.5919 85.4393 39.6662 84.9631 39.6662C84.5432 39.6662 84.1181 39.615 83.688 39.5126C83.2579 39.4153 82.9045 39.2821 82.628 39.1132V37.2389C82.8277 37.2133 82.9634 37.2005 83.0351 37.2005C83.1529 37.7689 83.3603 38.2324 83.6573 38.5908C83.9594 38.9493 84.3716 39.1285 84.894 39.1285C85.2678 39.1285 85.5776 39.0363 85.8234 38.852C86.0743 38.6625 86.1998 38.4142 86.1998 38.1069C86.1998 37.9123 86.1434 37.7408 86.0308 37.5923C85.9181 37.4438 85.7722 37.3132 85.5929 37.2005C85.4137 37.0879 85.1449 36.9368 84.7864 36.7473C84.3051 36.4913 83.9389 36.2839 83.688 36.1252C83.2988 35.8845 83.0044 35.6156 82.8047 35.3186C82.6101 35.0216 82.5128 34.6683 82.5128 34.2586C82.5128 33.8643 82.6126 33.5289 82.8123 33.2524C83.0121 32.9708 83.2835 32.7582 83.6266 32.6149C83.9696 32.4715 84.3563 32.3998 84.7864 32.3998C85.1807 32.3998 85.5545 32.4484 85.9079 32.5457C86.2663 32.643 86.5889 32.7813 86.8757 32.9605L86.9218 34.6657ZM96.6999 34.8347C96.6999 34.4507 96.6641 34.1255 96.5924 33.8592C96.5258 33.5929 96.3876 33.3779 96.1776 33.214C95.9728 33.0501 95.6783 32.9682 95.2943 32.9682C95.1611 32.9682 94.9973 32.9964 94.8027 33.0527C94.6081 33.109 94.4366 33.1909 94.2881 33.2985C94.1447 33.4009 94.073 33.5212 94.073 33.6595C94.073 33.7158 94.0832 33.7722 94.1037 33.8285C94.1242 33.8797 94.1575 33.9463 94.2036 34.0282C94.2496 34.105 94.2829 34.1716 94.3034 34.2279C94.3239 34.2842 94.3341 34.3431 94.3341 34.4046C94.3341 34.6094 94.2676 34.781 94.1344 34.9192C94.0064 35.0524 93.84 35.1189 93.6352 35.1189C93.3791 35.1189 93.1743 35.0242 93.0207 34.8347C92.8722 34.6453 92.7979 34.4174 92.7979 34.1511C92.7979 33.7517 92.9541 33.4214 93.2665 33.1602C93.5788 32.8991 93.9552 32.707 94.3956 32.5841C94.8411 32.4612 95.2559 32.3998 95.6399 32.3998C96.362 32.3998 96.8997 32.5073 97.253 32.7224C97.6115 32.9323 97.847 33.2422 97.9597 33.6518C98.0774 34.0564 98.1363 34.6248 98.1363 35.357L98.121 35.7411C98.1158 35.8538 98.1082 36.0407 98.0979 36.3018C98.0928 36.563 98.0902 36.8037 98.0902 37.0239C98.0902 38.176 98.2106 38.7521 98.4513 38.7521C98.6254 38.7521 98.8507 38.5755 99.1272 38.2221L99.4498 38.5678C99.2245 38.9365 99.0017 39.213 98.7816 39.3974C98.5614 39.5766 98.272 39.6662 97.9136 39.6662C97.5756 39.6662 97.2965 39.5612 97.0763 39.3513C96.8613 39.1362 96.7435 38.8597 96.723 38.5217C96.3953 38.8802 96.0266 39.1618 95.6169 39.3666C95.2124 39.5663 94.7822 39.6662 94.3265 39.6662C94.009 39.6662 93.7145 39.6099 93.4431 39.4972C93.1768 39.3794 92.9618 39.2053 92.7979 38.9749C92.6392 38.7445 92.5598 38.4679 92.5598 38.1453C92.5598 37.6588 92.7467 37.2543 93.1205 36.9317C93.4943 36.6091 93.9245 36.3633 94.411 36.1943C94.8974 36.0253 95.4914 35.8563 96.193 35.6873C96.2544 35.6771 96.4234 35.6361 96.6999 35.5644V34.8347ZM96.6999 36.0176C96.6231 36.0432 96.5258 36.074 96.4081 36.1098C95.9677 36.2532 95.5913 36.3914 95.2789 36.5246C94.9666 36.6526 94.6875 36.8267 94.4417 37.0469C94.1959 37.2671 94.073 37.5257 94.073 37.8227C94.073 38.1248 94.1549 38.363 94.3188 38.5371C94.4878 38.7112 94.7233 38.7982 95.0254 38.7982C95.3276 38.7982 95.6195 38.724 95.9011 38.5755C96.1827 38.4218 96.449 38.2221 96.6999 37.9763V36.0176ZM107.047 37.646L108.452 34.2279C108.355 33.8797 108.199 33.5878 107.984 33.3523C107.769 33.1167 107.495 32.9912 107.162 32.9759L107.177 32.6072H110.572C110.582 32.7813 110.588 32.9042 110.588 32.9759C110.521 33.0066 110.416 33.0476 110.273 33.0988C110.078 33.1653 109.935 33.2319 109.842 33.2985C109.75 33.3651 109.704 33.47 109.704 33.6134C109.704 33.7209 109.75 33.9002 109.842 34.1511L111.095 37.5846L112.293 34.3508C112.39 34.0999 112.439 33.8899 112.439 33.7209C112.439 33.5673 112.416 33.4521 112.37 33.3753C112.324 33.2934 112.259 33.2345 112.178 33.1986C112.096 33.1628 111.968 33.1218 111.794 33.0757L111.509 32.9989C111.499 32.9272 111.494 32.8658 111.494 32.8146C111.494 32.7685 111.499 32.6994 111.509 32.6072H114.205V33.0143C114.062 33.0348 113.903 33.0988 113.729 33.2063C113.56 33.3138 113.407 33.4444 113.268 33.5981C113.135 33.7466 113.043 33.8899 112.992 34.0282L110.918 39.6201C110.867 39.6508 110.79 39.6662 110.687 39.6662C110.59 39.6662 110.511 39.6508 110.449 39.6201L108.706 34.9346L106.854 39.6201C106.793 39.6508 106.714 39.6662 106.616 39.6662C106.509 39.6662 106.427 39.6508 106.371 39.6201L104.228 34.1434C104.13 33.8925 104.043 33.6979 103.966 33.5596C103.89 33.4214 103.787 33.3036 103.659 33.2063C103.536 33.1039 103.372 33.0296 103.168 32.9836L103.183 32.6072H106.348C106.353 32.6942 106.355 32.8171 106.355 32.9759C106.109 33.0578 105.917 33.15 105.779 33.2524C105.646 33.3548 105.579 33.5008 105.579 33.6902C105.579 33.7773 105.592 33.8592 105.618 33.936C105.618 33.9565 105.62 33.9744 105.625 33.9898L107.047 37.646ZM118.914 34.8347C118.914 34.4507 118.878 34.1255 118.806 33.8592C118.74 33.5929 118.602 33.3779 118.392 33.214C118.187 33.0501 117.892 32.9682 117.508 32.9682C117.375 32.9682 117.211 32.9964 117.017 33.0527C116.822 33.109 116.651 33.1909 116.502 33.2985C116.359 33.4009 116.287 33.5212 116.287 33.6595C116.287 33.7158 116.297 33.7722 116.318 33.8285C116.338 33.8797 116.371 33.9463 116.418 34.0282C116.464 34.105 116.497 34.1716 116.517 34.2279C116.538 34.2842 116.548 34.3431 116.548 34.4046C116.548 34.6094 116.482 34.781 116.348 34.9192C116.22 35.0524 116.054 35.1189 115.849 35.1189C115.593 35.1189 115.388 35.0242 115.235 34.8347C115.086 34.6453 115.012 34.4174 115.012 34.1511C115.012 33.7517 115.168 33.4214 115.48 33.1602C115.793 32.8991 116.169 32.707 116.61 32.5841C117.055 32.4612 117.47 32.3998 117.854 32.3998C118.576 32.3998 119.114 32.5073 119.467 32.7224C119.825 32.9323 120.061 33.2422 120.174 33.6518C120.291 34.0564 120.35 34.6248 120.35 35.357L120.335 35.7411C120.33 35.8538 120.322 36.0407 120.312 36.3018C120.307 36.563 120.304 36.8037 120.304 37.0239C120.304 38.176 120.425 38.7521 120.665 38.7521C120.839 38.7521 121.065 38.5755 121.341 38.2221L121.664 38.5678C121.439 38.9365 121.216 39.213 120.996 39.3974C120.775 39.5766 120.486 39.6662 120.128 39.6662C119.79 39.6662 119.511 39.5612 119.29 39.3513C119.075 39.1362 118.958 38.8597 118.937 38.5217C118.609 38.8802 118.241 39.1618 117.831 39.3666C117.426 39.5663 116.996 39.6662 116.54 39.6662C116.223 39.6662 115.929 39.6099 115.657 39.4972C115.391 39.3794 115.176 39.2053 115.012 38.9749C114.853 38.7445 114.774 38.4679 114.774 38.1453C114.774 37.6588 114.961 37.2543 115.335 36.9317C115.708 36.6091 116.139 36.3633 116.625 36.1943C117.111 36.0253 117.705 35.8563 118.407 35.6873C118.468 35.6771 118.637 35.6361 118.914 35.5644V34.8347ZM118.914 36.0176C118.837 36.0432 118.74 36.074 118.622 36.1098C118.182 36.2532 117.805 36.3914 117.493 36.5246C117.181 36.6526 116.902 36.8267 116.656 37.0469C116.41 37.2671 116.287 37.5257 116.287 37.8227C116.287 38.1248 116.369 38.363 116.533 38.5371C116.702 38.7112 116.937 38.7982 117.239 38.7982C117.542 38.7982 117.833 38.724 118.115 38.5755C118.397 38.4218 118.663 38.2221 118.914 37.9763V36.0176ZM123.077 34.0436C122.954 33.767 122.837 33.5596 122.724 33.4214C122.611 33.2831 122.506 33.1935 122.409 33.1525C122.317 33.1065 122.207 33.0732 122.079 33.0527C122.002 33.0424 121.93 33.0271 121.864 33.0066V32.6072H125.466C125.476 32.6533 125.489 32.7378 125.504 32.8607C125.525 32.9784 125.525 33.0399 125.504 33.045C125.166 33.1065 124.918 33.1781 124.759 33.2601C124.601 33.3369 124.521 33.4572 124.521 33.6211C124.521 33.7286 124.555 33.8874 124.621 34.0973L126.142 37.8842L127.455 34.3278C127.532 34.1281 127.571 33.9539 127.571 33.8054C127.571 33.5852 127.491 33.4188 127.333 33.3062C127.174 33.1884 126.92 33.0988 126.572 33.0373C126.567 33.0066 126.564 32.9477 126.564 32.8607C126.564 32.7992 126.564 32.7454 126.564 32.6994C126.57 32.6533 126.572 32.6225 126.572 32.6072H129.391L129.399 32.9989C129.317 33.0655 129.204 33.1244 129.061 33.1756C128.928 33.2319 128.815 33.2882 128.723 33.3446C128.636 33.3958 128.549 33.4803 128.462 33.5981C128.38 33.7158 128.311 33.8771 128.254 34.082L125.527 40.7953C125.302 41.3586 125.033 41.7913 124.721 42.0935C124.414 42.3956 124.022 42.5466 123.546 42.5466C123.203 42.5466 122.918 42.4647 122.693 42.3008C122.473 42.1421 122.363 41.927 122.363 41.6556C122.363 41.4559 122.432 41.2869 122.57 41.1487C122.714 41.0104 122.885 40.9413 123.085 40.9413C123.264 40.9413 123.397 40.972 123.484 41.0335C123.576 41.0949 123.666 41.1871 123.753 41.31C123.82 41.4021 123.881 41.4713 123.937 41.5174C123.999 41.5686 124.081 41.5942 124.183 41.5942C124.342 41.5942 124.483 41.5225 124.606 41.3791C124.729 41.2357 124.844 41.0411 124.951 40.7953C125.064 40.5547 125.22 40.1757 125.42 39.6585L125.474 39.5126L123.077 34.0436ZM136.051 37.1007C136.051 37.623 136.069 37.9968 136.104 38.2221C136.14 38.4423 136.227 38.6036 136.366 38.706C136.504 38.8033 136.737 38.852 137.065 38.852C137.259 38.852 137.454 38.8341 137.648 38.7982C137.843 38.7624 138.007 38.724 138.14 38.683L138.201 39.2437C137.94 39.3718 137.677 39.4742 137.41 39.551C137.144 39.6278 136.824 39.6662 136.45 39.6662C135.953 39.6662 135.574 39.5843 135.313 39.4204C135.052 39.2565 134.87 38.9928 134.768 38.6292C134.666 38.2605 134.614 37.7433 134.614 37.0776V33.1833H133.47V32.9144C133.818 32.7762 134.11 32.6149 134.346 32.4305C134.586 32.241 134.783 32.0464 134.937 31.8467C135.091 31.647 135.275 31.3833 135.49 31.0556C135.582 30.9071 135.654 30.8098 135.705 30.7637C135.756 30.7125 135.807 30.6869 135.859 30.6869C135.91 30.6869 135.951 30.7125 135.982 30.7637C136.017 30.8098 136.035 30.884 136.035 30.9864V32.6072H137.963V33.1833H136.051V37.1007ZM142.703 32.3998C143.384 32.3998 144.003 32.5483 144.561 32.8453C145.125 33.1372 145.57 33.5571 145.898 34.105C146.226 34.6478 146.39 35.2802 146.39 36.0023C146.39 36.7243 146.226 37.3644 145.898 37.9226C145.57 38.4756 145.132 38.9058 144.585 39.213C144.037 39.5151 143.437 39.6662 142.787 39.6662C142.142 39.6662 141.538 39.51 140.974 39.1976C140.411 38.8853 139.96 38.4526 139.622 37.8995C139.285 37.3414 139.116 36.7115 139.116 36.0099C139.116 35.3084 139.279 34.6837 139.607 34.1357C139.935 33.5827 140.373 33.1551 140.921 32.853C141.474 32.5508 142.068 32.3998 142.703 32.3998ZM142.887 39.0671C143.537 39.0671 144.031 38.8341 144.369 38.3681C144.707 37.9021 144.876 37.2901 144.876 36.5323C144.876 35.8768 144.784 35.2751 144.6 34.7272C144.421 34.1741 144.162 33.7338 143.824 33.406C143.486 33.0783 143.097 32.9144 142.657 32.9144C142.267 32.9144 141.922 33.0092 141.62 33.1986C141.323 33.3881 141.087 33.68 140.913 34.0743C140.739 34.4686 140.652 34.9627 140.652 35.5568C140.652 36.1405 140.744 36.7038 140.928 37.2466C141.113 37.7843 141.374 38.2221 141.712 38.5601C142.05 38.8981 142.441 39.0671 142.887 39.0671ZM156.022 34.6657C155.95 34.6709 155.83 34.6734 155.661 34.6734C155.512 34.1562 155.287 33.7338 154.985 33.406C154.688 33.0783 154.306 32.9144 153.84 32.9144C153.518 32.9144 153.262 32.9938 153.072 33.1525C152.888 33.3113 152.796 33.5417 152.796 33.8438C152.796 34.0538 152.873 34.2484 153.026 34.4276C153.18 34.6068 153.367 34.7656 153.587 34.9039C153.812 35.037 154.107 35.1957 154.47 35.3801C154.557 35.4211 154.688 35.4876 154.862 35.5798C155.436 35.887 155.853 36.202 156.114 36.5246C156.38 36.8421 156.513 37.2313 156.513 37.6921C156.513 38.1172 156.408 38.4782 156.199 38.7752C155.989 39.0671 155.699 39.2898 155.331 39.4434C154.962 39.5919 154.539 39.6662 154.063 39.6662C153.643 39.6662 153.218 39.615 152.788 39.5126C152.358 39.4153 152.005 39.2821 151.728 39.1132V37.2389C151.928 37.2133 152.063 37.2005 152.135 37.2005C152.253 37.7689 152.46 38.2324 152.757 38.5908C153.059 38.9493 153.472 39.1285 153.994 39.1285C154.368 39.1285 154.678 39.0363 154.923 38.852C155.174 38.6625 155.3 38.4142 155.3 38.1069C155.3 37.9123 155.243 37.7408 155.131 37.5923C155.018 37.4438 154.872 37.3132 154.693 37.2005C154.514 37.0879 154.245 36.9368 153.886 36.7473C153.405 36.4913 153.039 36.2839 152.788 36.1252C152.399 35.8845 152.104 35.6156 151.905 35.3186C151.71 35.0216 151.613 34.6683 151.613 34.2586C151.613 33.8643 151.713 33.5289 151.912 33.2524C152.112 32.9708 152.384 32.7582 152.727 32.6149C153.07 32.4715 153.456 32.3998 153.886 32.3998C154.281 32.3998 154.655 32.4484 155.008 32.5457C155.366 32.643 155.689 32.7813 155.976 32.9605L156.022 34.6657ZM162.113 34.8347C162.113 34.4507 162.077 34.1255 162.005 33.8592C161.939 33.5929 161.801 33.3779 161.591 33.214C161.386 33.0501 161.091 32.9682 160.707 32.9682C160.574 32.9682 160.41 32.9964 160.216 33.0527C160.021 33.109 159.85 33.1909 159.701 33.2985C159.558 33.4009 159.486 33.5212 159.486 33.6595C159.486 33.7158 159.496 33.7722 159.517 33.8285C159.537 33.8797 159.571 33.9463 159.617 34.0282C159.663 34.105 159.696 34.1716 159.717 34.2279C159.737 34.2842 159.747 34.3431 159.747 34.4046C159.747 34.6094 159.681 34.781 159.548 34.9192C159.419 35.0524 159.253 35.1189 159.048 35.1189C158.792 35.1189 158.587 35.0242 158.434 34.8347C158.285 34.6453 158.211 34.4174 158.211 34.1511C158.211 33.7517 158.367 33.4214 158.68 33.1602C158.992 32.8991 159.368 32.707 159.809 32.5841C160.254 32.4612 160.669 32.3998 161.053 32.3998C161.775 32.3998 162.313 32.5073 162.666 32.7224C163.025 32.9323 163.26 33.2422 163.373 33.6518C163.491 34.0564 163.549 34.6248 163.549 35.357L163.534 35.7411C163.529 35.8538 163.521 36.0407 163.511 36.3018C163.506 36.563 163.503 36.8037 163.503 37.0239C163.503 38.176 163.624 38.7521 163.864 38.7521C164.038 38.7521 164.264 38.5755 164.54 38.2221L164.863 38.5678C164.638 38.9365 164.415 39.213 164.195 39.3974C163.974 39.5766 163.685 39.6662 163.327 39.6662C162.989 39.6662 162.71 39.5612 162.489 39.3513C162.274 39.1362 162.157 38.8597 162.136 38.5217C161.808 38.8802 161.44 39.1618 161.03 39.3666C160.625 39.5663 160.195 39.6662 159.74 39.6662C159.422 39.6662 159.128 39.6099 158.856 39.4972C158.59 39.3794 158.375 39.2053 158.211 38.9749C158.052 38.7445 157.973 38.4679 157.973 38.1453C157.973 37.6588 158.16 37.2543 158.534 36.9317C158.907 36.6091 159.338 36.3633 159.824 36.1943C160.311 36.0253 160.905 35.8563 161.606 35.6873C161.668 35.6771 161.837 35.6361 162.113 35.5644V34.8347ZM162.113 36.0176C162.036 36.0432 161.939 36.074 161.821 36.1098C161.381 36.2532 161.004 36.3914 160.692 36.5246C160.38 36.6526 160.101 36.8267 159.855 37.0469C159.609 37.2671 159.486 37.5257 159.486 37.8227C159.486 38.1248 159.568 38.363 159.732 38.5371C159.901 38.7112 160.136 38.7982 160.439 38.7982C160.741 38.7982 161.033 38.724 161.314 38.5755C161.596 38.4218 161.862 38.2221 162.113 37.9763V36.0176ZM166.276 34.0436C166.153 33.767 166.036 33.5596 165.923 33.4214C165.81 33.2831 165.705 33.1935 165.608 33.1525C165.516 33.1065 165.406 33.0732 165.278 33.0527C165.201 33.0424 165.129 33.0271 165.063 33.0066V32.6072H168.665C168.675 32.6533 168.688 32.7378 168.703 32.8607C168.724 32.9784 168.724 33.0399 168.703 33.045C168.366 33.1065 168.117 33.1781 167.958 33.2601C167.8 33.3369 167.72 33.4572 167.72 33.6211C167.72 33.7286 167.754 33.8874 167.82 34.0973L169.341 37.8842L170.655 34.3278C170.731 34.1281 170.77 33.9539 170.77 33.8054C170.77 33.5852 170.69 33.4188 170.532 33.3062C170.373 33.1884 170.119 33.0988 169.771 33.0373C169.766 33.0066 169.763 32.9477 169.763 32.8607C169.763 32.7992 169.763 32.7454 169.763 32.6994C169.769 32.6533 169.771 32.6225 169.771 32.6072H172.59L172.598 32.9989C172.516 33.0655 172.403 33.1244 172.26 33.1756C172.127 33.2319 172.014 33.2882 171.922 33.3446C171.835 33.3958 171.748 33.4803 171.661 33.5981C171.579 33.7158 171.51 33.8771 171.453 34.082L168.727 40.7953C168.501 41.3586 168.232 41.7913 167.92 42.0935C167.613 42.3956 167.221 42.5466 166.745 42.5466C166.402 42.5466 166.117 42.4647 165.892 42.3008C165.672 42.1421 165.562 41.927 165.562 41.6556C165.562 41.4559 165.631 41.2869 165.769 41.1487C165.913 41.0104 166.084 40.9413 166.284 40.9413C166.463 40.9413 166.596 40.972 166.683 41.0335C166.776 41.0949 166.865 41.1871 166.952 41.31C167.019 41.4021 167.08 41.4713 167.137 41.5174C167.198 41.5686 167.28 41.5942 167.382 41.5942C167.541 41.5942 167.682 41.5225 167.805 41.3791C167.928 41.2357 168.043 41.0411 168.15 40.7953C168.263 40.5547 168.419 40.1757 168.619 39.6585L168.673 39.5126L166.276 34.0436ZM180.141 37.646L181.546 34.2279C181.449 33.8797 181.293 33.5878 181.078 33.3523C180.863 33.1167 180.589 32.9912 180.256 32.9759L180.271 32.6072H183.666C183.677 32.7813 183.682 32.9042 183.682 32.9759C183.615 33.0066 183.51 33.0476 183.367 33.0988C183.172 33.1653 183.029 33.2319 182.937 33.2985C182.845 33.3651 182.798 33.47 182.798 33.6134C182.798 33.7209 182.845 33.9002 182.937 34.1511L184.189 37.5846L185.387 34.3508C185.484 34.0999 185.533 33.8899 185.533 33.7209C185.533 33.5673 185.51 33.4521 185.464 33.3753C185.418 33.2934 185.354 33.2345 185.272 33.1986C185.19 33.1628 185.062 33.1218 184.888 33.0757L184.604 32.9989C184.593 32.9272 184.588 32.8658 184.588 32.8146C184.588 32.7685 184.593 32.6994 184.604 32.6072H187.3V33.0143C187.156 33.0348 186.998 33.0988 186.823 33.2063C186.654 33.3138 186.501 33.4444 186.363 33.5981C186.229 33.7466 186.137 33.8899 186.086 34.0282L184.012 39.6201C183.961 39.6508 183.884 39.6662 183.782 39.6662C183.684 39.6662 183.605 39.6508 183.544 39.6201L181.8 34.9346L179.949 39.6201C179.887 39.6508 179.808 39.6662 179.711 39.6662C179.603 39.6662 179.521 39.6508 179.465 39.6201L177.322 34.1434C177.225 33.8925 177.137 33.6979 177.061 33.5596C176.984 33.4214 176.881 33.3036 176.753 33.2063C176.63 33.1039 176.467 33.0296 176.262 32.9836L176.277 32.6072H179.442C179.447 32.6942 179.449 32.8171 179.449 32.9759C179.204 33.0578 179.012 33.15 178.873 33.2524C178.74 33.3548 178.674 33.5008 178.674 33.6902C178.674 33.7773 178.686 33.8592 178.712 33.936C178.712 33.9565 178.715 33.9744 178.72 33.9898L180.141 37.646ZM194.996 37.815C194.996 38.2093 195.096 38.5191 195.296 38.7445C195.501 38.9646 195.79 39.0927 196.164 39.1285C196.164 39.2053 196.161 39.2821 196.156 39.3589C196.151 39.4306 196.148 39.4818 196.148 39.5126H192.369C192.369 39.4818 192.367 39.4306 192.362 39.3589C192.356 39.2821 192.354 39.2053 192.354 39.1285C192.441 39.0875 192.61 39.0287 192.861 38.9518C193.055 38.8904 193.196 38.8341 193.283 38.7829C193.376 38.7265 193.445 38.6292 193.491 38.491C193.542 38.3527 193.568 38.1453 193.568 37.8688V35.0805C193.568 34.5172 193.447 34.0692 193.207 33.7363C192.971 33.3983 192.6 33.2294 192.093 33.2294C191.729 33.2294 191.376 33.3266 191.033 33.5212C190.695 33.7107 190.382 33.9565 190.096 34.2586V37.7229C190.096 38.1837 190.201 38.5217 190.411 38.7368C190.621 38.9518 190.964 39.0824 191.44 39.1285L191.432 39.5126H187.338C187.338 39.4818 187.336 39.4306 187.33 39.3589C187.325 39.2821 187.323 39.2053 187.323 39.1285C188.219 39.0568 188.667 38.5883 188.667 37.7229V30.5717C188.616 30.4948 188.503 30.4027 188.329 30.2951C188.155 30.1825 187.971 30.0826 187.776 29.9956C187.586 29.9085 187.446 29.8599 187.353 29.8496V29.5808L189.55 28.997L190.096 28.9432V33.6134C190.5 33.2089 190.897 32.9067 191.286 32.707C191.675 32.5022 192.126 32.3998 192.638 32.3998C193.35 32.3998 193.921 32.6277 194.351 33.0834C194.781 33.534 194.996 34.2228 194.996 35.1497V37.815ZM200.588 32.3998C201.269 32.3998 201.889 32.5483 202.447 32.8453C203.01 33.1372 203.456 33.5571 203.784 34.105C204.111 34.6478 204.275 35.2802 204.275 36.0023C204.275 36.7243 204.111 37.3644 203.784 37.9226C203.456 38.4756 203.018 38.9058 202.47 39.213C201.922 39.5151 201.323 39.6662 200.673 39.6662C200.027 39.6662 199.423 39.51 198.86 39.1976C198.297 38.8853 197.846 38.4526 197.508 37.8995C197.17 37.3414 197.001 36.7115 197.001 36.0099C197.001 35.3084 197.165 34.6837 197.493 34.1357C197.82 33.5827 198.258 33.1551 198.806 32.853C199.359 32.5508 199.953 32.3998 200.588 32.3998ZM200.772 39.0671C201.423 39.0671 201.917 38.8341 202.255 38.3681C202.593 37.9021 202.762 37.2901 202.762 36.5323C202.762 35.8768 202.67 35.2751 202.485 34.7272C202.306 34.1741 202.048 33.7338 201.71 33.406C201.372 33.0783 200.982 32.9144 200.542 32.9144C200.153 32.9144 199.807 33.0092 199.505 33.1986C199.208 33.3881 198.973 33.68 198.798 34.0743C198.624 34.4686 198.537 34.9627 198.537 35.5568C198.537 36.1405 198.629 36.7038 198.814 37.2466C198.998 37.7843 199.259 38.2221 199.597 38.5601C199.935 38.8981 200.327 39.0671 200.772 39.0671ZM33.3147 54.0436C33.1918 53.767 33.074 53.5596 32.9614 53.4214C32.8487 53.2831 32.7437 53.1935 32.6464 53.1525C32.5543 53.1065 32.4442 53.0732 32.3161 53.0527C32.2393 53.0424 32.1676 53.0271 32.1011 53.0066V52.6072H35.7036C35.7138 52.6533 35.7266 52.7378 35.742 52.8607C35.7624 52.9784 35.7624 53.0399 35.742 53.045C35.404 53.1065 35.1556 53.1781 34.9969 53.2601C34.8381 53.3369 34.7588 53.4572 34.7588 53.6211C34.7588 53.7286 34.7921 53.8874 34.8586 54.0973L36.3795 57.8842L37.693 54.3278C37.7698 54.1281 37.8082 53.9539 37.8082 53.8054C37.8082 53.5852 37.7288 53.4188 37.5701 53.3062C37.4113 53.1884 37.1579 53.0988 36.8096 53.0373C36.8045 53.0066 36.802 52.9477 36.802 52.8607C36.802 52.7992 36.802 52.7454 36.802 52.6994C36.8071 52.6533 36.8096 52.6225 36.8096 52.6072H39.6286L39.6363 52.9989C39.5544 53.0655 39.4417 53.1244 39.2984 53.1756C39.1652 53.2319 39.0526 53.2882 38.9604 53.3446C38.8733 53.3958 38.7863 53.4803 38.6992 53.5981C38.6173 53.7158 38.5482 53.8771 38.4918 54.082L35.765 60.7953C35.5397 61.3586 35.2708 61.7913 34.9585 62.0935C34.6512 62.3956 34.2595 62.5466 33.7833 62.5466C33.4402 62.5466 33.156 62.4647 32.9306 62.3008C32.7104 62.1421 32.6004 61.927 32.6004 61.6556C32.6004 61.4559 32.6695 61.2869 32.8077 61.1487C32.9511 61.0104 33.1227 60.9413 33.3224 60.9413C33.5016 60.9413 33.6348 60.972 33.7218 61.0335C33.814 61.0949 33.9036 61.1871 33.9906 61.31C34.0572 61.4021 34.1187 61.4713 34.175 61.5174C34.2364 61.5686 34.3184 61.5942 34.4208 61.5942C34.5795 61.5942 34.7204 61.5225 34.8433 61.3791C34.9662 61.2357 35.0814 61.0411 35.1889 60.7953C35.3016 60.5547 35.4578 60.1757 35.6575 59.6585L35.7112 59.5126L33.3147 54.0436ZM43.5537 52.3998C44.2348 52.3998 44.8544 52.5483 45.4126 52.8453C45.9759 53.1372 46.4214 53.5571 46.7491 54.105C47.0769 54.6478 47.2407 55.2802 47.2407 56.0023C47.2407 56.7243 47.0769 57.3644 46.7491 57.9226C46.4214 58.4756 45.9836 58.9058 45.4356 59.213C44.8877 59.5151 44.2886 59.6662 43.6382 59.6662C42.993 59.6662 42.3888 59.51 41.8255 59.1976C41.2622 58.8853 40.8116 58.4526 40.4736 57.8995C40.1356 57.3414 39.9666 56.7115 39.9666 56.0099C39.9666 55.3084 40.1305 54.6837 40.4582 54.1357C40.7859 53.5827 41.2238 53.1551 41.7717 52.853C42.3247 52.5508 42.9188 52.3998 43.5537 52.3998ZM43.7381 59.0671C44.3884 59.0671 44.8826 58.8341 45.2206 58.3681C45.5585 57.9021 45.7275 57.2901 45.7275 56.5323C45.7275 55.8768 45.6353 55.2751 45.451 54.7272C45.2718 54.1741 45.0132 53.7338 44.6752 53.406C44.3372 53.0783 43.948 52.9144 43.5077 52.9144C43.1185 52.9144 42.7728 53.0092 42.4707 53.1986C42.1737 53.3881 41.9381 53.68 41.764 54.0743C41.5899 54.4686 41.5029 54.9627 41.5029 55.5568C41.5029 56.1405 41.595 56.7038 41.7794 57.2466C41.9637 57.7843 42.2249 58.2221 42.5629 58.5601C42.9008 58.8981 43.2926 59.0671 43.7381 59.0671ZM51.2119 59.6662C50.5923 59.6662 50.1135 59.5126 49.7755 59.2053C49.4427 58.893 49.2173 58.4884 49.0996 57.9917C48.9818 57.495 48.9229 56.9035 48.9229 56.2173V53.9283C48.8563 53.8106 48.7309 53.7056 48.5465 53.6134C48.3673 53.5161 48.1804 53.4367 47.9858 53.3753C47.7963 53.3087 47.7016 53.278 47.7016 53.2831L47.717 53.0143L49.8754 52.492L50.3516 52.4612V56.1328C50.3516 56.7883 50.3926 57.3055 50.4745 57.6844C50.5564 58.0583 50.6947 58.3322 50.8893 58.5063C51.0839 58.6753 51.3553 58.7598 51.7035 58.7598C52.4153 58.7598 53.0861 58.4474 53.716 57.8227V53.9283C53.6494 53.8106 53.5239 53.7056 53.3396 53.6134C53.1604 53.5161 52.9735 53.4367 52.7789 53.3753C52.5894 53.3087 52.4947 53.278 52.4947 53.2831L52.51 53.0143L54.6684 52.492L55.1447 52.4612V57.9687C55.1447 58.1837 55.1984 58.3502 55.306 58.4679C55.4135 58.5806 55.5467 58.6625 55.7054 58.7137C55.8641 58.7649 56.0818 58.8136 56.3583 58.8597C56.3583 58.9365 56.3532 59.0159 56.3429 59.0978C56.3378 59.1797 56.3353 59.2361 56.3353 59.2668L53.8158 59.6278L53.7544 58.3988C52.9965 59.2437 52.149 59.6662 51.2119 59.6662ZM65.1302 54.8347C65.1302 54.4507 65.0944 54.1255 65.0227 53.8592C64.9561 53.5929 64.8179 53.3779 64.6079 53.214C64.4031 53.0501 64.1086 52.9682 63.7246 52.9682C63.5914 52.9682 63.4276 52.9964 63.233 53.0527C63.0384 53.109 62.8668 53.1909 62.7183 53.2985C62.5749 53.4009 62.5033 53.5212 62.5033 53.6595C62.5033 53.7158 62.5135 53.7722 62.534 53.8285C62.5545 53.8797 62.5877 53.9463 62.6338 54.0282C62.6799 54.105 62.7132 54.1716 62.7337 54.2279C62.7542 54.2842 62.7644 54.3431 62.7644 54.4046C62.7644 54.6094 62.6978 54.781 62.5647 54.9192C62.4367 55.0524 62.2703 55.1189 62.0654 55.1189C61.8094 55.1189 61.6046 55.0242 61.4509 54.8347C61.3024 54.6453 61.2282 54.4174 61.2282 54.1511C61.2282 53.7517 61.3844 53.4214 61.6967 53.1602C62.0091 52.8991 62.3855 52.707 62.8259 52.5841C63.2714 52.4612 63.6862 52.3998 64.0702 52.3998C64.7923 52.3998 65.3299 52.5073 65.6833 52.7224C66.0417 52.9323 66.2773 53.2422 66.3899 53.6518C66.5077 54.0564 66.5666 54.6248 66.5666 55.357L66.5512 55.7411C66.5461 55.8538 66.5384 56.0407 66.5282 56.3018C66.5231 56.563 66.5205 56.8037 66.5205 57.0239C66.5205 58.176 66.6409 58.7521 66.8815 58.7521C67.0556 58.7521 67.281 58.5755 67.5575 58.2221L67.8801 58.5678C67.6548 58.9365 67.432 59.213 67.2118 59.3974C66.9916 59.5766 66.7023 59.6662 66.3439 59.6662C66.0059 59.6662 65.7268 59.5612 65.5066 59.3513C65.2915 59.1362 65.1738 58.8597 65.1533 58.5217C64.8255 58.8802 64.4568 59.1618 64.0472 59.3666C63.6426 59.5663 63.2125 59.6662 62.7567 59.6662C62.4392 59.6662 62.1448 59.6099 61.8734 59.4972C61.6071 59.3794 61.392 59.2053 61.2282 58.9749C61.0694 58.7445 60.9901 58.4679 60.9901 58.1453C60.9901 57.6588 61.177 57.2543 61.5508 56.9317C61.9246 56.6091 62.3548 56.3633 62.8412 56.1943C63.3277 56.0253 63.9217 55.8563 64.6233 55.6873C64.6847 55.6771 64.8537 55.6361 65.1302 55.5644V54.8347ZM65.1302 56.0176C65.0534 56.0432 64.9561 56.074 64.8383 56.1098C64.398 56.2532 64.0216 56.3914 63.7092 56.5246C63.3968 56.6526 63.1178 56.8267 62.872 57.0469C62.6262 57.2671 62.5033 57.5257 62.5033 57.8227C62.5033 58.1248 62.5852 58.363 62.7491 58.5371C62.918 58.7112 63.1536 58.7982 63.4557 58.7982C63.7579 58.7982 64.0497 58.724 64.3314 58.5755C64.613 58.4218 64.8793 58.2221 65.1302 57.9763V56.0176ZM71.0294 57.7382C71.0294 57.9789 71.055 58.194 71.1062 58.3834C71.1625 58.5678 71.2931 58.7317 71.4979 58.875C71.7028 59.0184 72.01 59.1029 72.4197 59.1285L72.412 59.5126H68.4101C68.4101 59.4716 68.4075 59.405 68.4024 59.3129C68.4024 59.2207 68.405 59.149 68.4101 59.0978L68.6636 59.0287C68.935 58.957 69.1296 58.8904 69.2473 58.8289C69.3651 58.7675 69.4522 58.66 69.5085 58.5063C69.57 58.3476 69.6007 58.1069 69.6007 57.7843V53.9207C69.5341 53.808 69.4112 53.7056 69.232 53.6134C69.0528 53.5161 68.8658 53.4367 68.6713 53.3753C68.4818 53.3138 68.3871 53.2857 68.3871 53.2908L68.4024 53.022L70.4456 52.4766H70.8834L71.0063 53.8899C71.2931 53.3625 71.5901 52.9887 71.8974 52.7685C72.2097 52.5483 72.5656 52.4382 72.965 52.4382C73.1699 52.4382 73.3542 52.4817 73.5181 52.5688C73.6871 52.6507 73.8177 52.7582 73.9098 52.8914C74.0071 53.0194 74.0558 53.15 74.0558 53.2831C74.0558 53.3702 74.0302 53.488 73.979 53.6365C73.9329 53.785 73.8586 53.9155 73.7562 54.0282C73.6589 54.1409 73.5386 54.1972 73.3952 54.1972C73.2313 54.1972 73.1033 54.1613 73.0111 54.0896C72.919 54.0128 72.8242 53.9002 72.7269 53.7517C72.6552 53.639 72.5861 53.5545 72.5195 53.4982C72.4581 53.4419 72.3787 53.4137 72.2814 53.4137C72.1176 53.4137 71.9691 53.4623 71.8359 53.5596C71.7079 53.6518 71.5952 53.767 71.4979 53.9053C71.4006 54.0436 71.2829 54.2279 71.1446 54.4583L71.0294 54.6504V57.7382ZM76.0145 55.4723C76.0094 55.5235 76.0068 55.5977 76.0068 55.695C76.0068 56.3402 76.122 56.8805 76.3525 57.3158C76.588 57.7459 76.9004 58.0659 77.2896 58.2759C77.6839 58.4807 78.1243 58.5831 78.6107 58.5831C79.256 58.5831 79.8781 58.3988 80.4773 58.0301L80.7 58.2452C80.5771 58.5422 80.3697 58.7982 80.0778 59.0133C79.7911 59.2284 79.4633 59.3922 79.0946 59.5049C78.7311 59.6124 78.3777 59.6662 78.0346 59.6662C77.3894 59.6662 76.8082 59.5151 76.291 59.213C75.7789 58.9109 75.3769 58.4884 75.0851 57.9456C74.7983 57.4028 74.6549 56.7806 74.6549 56.0791C74.6549 55.3673 74.8111 54.7323 75.1235 54.1741C75.4358 53.6109 75.8506 53.1756 76.3678 52.8683C76.8901 52.556 77.4483 52.3998 78.0423 52.3998C78.5288 52.3998 78.9666 52.4996 79.3558 52.6994C79.7501 52.8939 80.0702 53.1705 80.316 53.5289C80.5618 53.8823 80.7179 54.2894 80.7845 54.7502C80.8408 54.9858 80.869 55.2034 80.869 55.4031V55.4723H76.0145ZM78.7797 54.9807C79.005 54.9704 79.1945 54.9295 79.3481 54.8578C79.3123 54.2484 79.1689 53.7722 78.918 53.4291C78.6722 53.086 78.3214 52.9144 77.8657 52.9144C77.5328 52.9144 77.2358 53.0143 76.9746 53.214C76.7186 53.4137 76.5112 53.68 76.3525 54.0128C76.1937 54.3406 76.0913 54.7016 76.0452 55.0959L78.7797 54.9807ZM88.8267 57.646L90.2324 54.2279C90.1351 53.8797 89.9789 53.5878 89.7638 53.3523C89.5488 53.1167 89.2748 52.9912 88.9419 52.9759L88.9573 52.6072H92.3524C92.3626 52.7813 92.3678 52.9042 92.3678 52.9759C92.3012 53.0066 92.1962 53.0476 92.0528 53.0988C91.8582 53.1653 91.7149 53.2319 91.6227 53.2985C91.5305 53.3651 91.4844 53.47 91.4844 53.6134C91.4844 53.7209 91.5305 53.9002 91.6227 54.1511L92.8747 57.5846L94.073 54.3508C94.1703 54.0999 94.2189 53.8899 94.2189 53.7209C94.2189 53.5673 94.1959 53.4521 94.1498 53.3753C94.1037 53.2934 94.0397 53.2345 93.9578 53.1986C93.8758 53.1628 93.7478 53.1218 93.5737 53.0757L93.2895 52.9989C93.2793 52.9272 93.2741 52.8658 93.2741 52.8146C93.2741 52.7685 93.2793 52.6994 93.2895 52.6072H95.9856V53.0143C95.8422 53.0348 95.6835 53.0988 95.5094 53.2063C95.3404 53.3138 95.1868 53.4444 95.0485 53.5981C94.9154 53.7466 94.8232 53.8899 94.772 54.0282L92.698 59.6201C92.6468 59.6508 92.57 59.6662 92.4676 59.6662C92.3703 59.6662 92.2909 59.6508 92.2295 59.6201L90.4859 54.9346L88.6347 59.6201C88.5732 59.6508 88.4939 59.6662 88.3966 59.6662C88.289 59.6662 88.2071 59.6508 88.1508 59.6201L86.0077 54.1434C85.9104 53.8925 85.8234 53.6979 85.7466 53.5596C85.6697 53.4214 85.5673 53.3036 85.4393 53.2063C85.3164 53.1039 85.1525 53.0296 84.9477 52.9836L84.9631 52.6072H88.1277C88.1329 52.6942 88.1354 52.8171 88.1354 52.9759C87.8896 53.0578 87.6976 53.15 87.5593 53.2524C87.4262 53.3548 87.3596 53.5008 87.3596 53.6902C87.3596 53.7773 87.3724 53.8592 87.398 53.936C87.398 53.9565 87.4006 53.9744 87.4057 53.9898L88.8267 57.646ZM98.3207 48.9432C98.5665 48.9432 98.7764 49.0303 98.9505 49.2044C99.1246 49.3785 99.2117 49.5885 99.2117 49.8343C99.2117 50.0852 99.1246 50.2977 98.9505 50.4718C98.7764 50.6408 98.5665 50.7253 98.3207 50.7253C98.0698 50.7253 97.8572 50.6408 97.6831 50.4718C97.5142 50.2977 97.4297 50.0852 97.4297 49.8343C97.4297 49.5885 97.5142 49.3785 97.6831 49.2044C97.8572 49.0303 98.0698 48.9432 98.3207 48.9432ZM97.7062 53.9283C97.6396 53.8106 97.5142 53.7056 97.3298 53.6134C97.1506 53.5161 96.9637 53.4367 96.7691 53.3753C96.5796 53.3087 96.4849 53.278 96.4849 53.2831L96.5002 53.0143L98.6587 52.492L99.1349 52.4612V57.8227C99.1349 58.0019 99.1528 58.1709 99.1887 58.3297C99.2296 58.4884 99.3474 58.6497 99.542 58.8136C99.7417 58.9774 100.054 59.0824 100.479 59.1285C100.479 59.2975 100.477 59.4255 100.471 59.5126H96.4618C96.4516 59.4204 96.4465 59.2924 96.4465 59.1285L96.6615 59.0671C96.8869 59.0056 97.0686 58.9442 97.2069 58.8827C97.3452 58.8213 97.4629 58.7317 97.5602 58.6139C97.6575 58.491 97.7062 58.3271 97.7062 58.1223V53.9283ZM103.452 57.1007C103.452 57.623 103.47 57.9968 103.505 58.2221C103.541 58.4423 103.628 58.6036 103.767 58.706C103.905 58.8033 104.138 58.852 104.466 58.852C104.66 58.852 104.855 58.8341 105.049 58.7982C105.244 58.7624 105.408 58.724 105.541 58.683L105.602 59.2437C105.341 59.3718 105.078 59.4742 104.811 59.551C104.545 59.6278 104.225 59.6662 103.851 59.6662C103.354 59.6662 102.975 59.5843 102.714 59.4204C102.453 59.2565 102.271 58.9928 102.169 58.6292C102.067 58.2605 102.015 57.7433 102.015 57.0776V53.1833H100.871V52.9144C101.219 52.7762 101.511 52.6149 101.746 52.4305C101.987 52.241 102.184 52.0464 102.338 51.8467C102.492 51.647 102.676 51.3833 102.891 51.0556C102.983 50.9071 103.055 50.8098 103.106 50.7637C103.157 50.7125 103.208 50.6869 103.26 50.6869C103.311 50.6869 103.352 50.7125 103.383 50.7637C103.418 50.8098 103.436 50.884 103.436 50.9864V52.6072H105.364V53.1833H103.452V57.1007ZM113.867 57.815C113.867 58.2093 113.967 58.5191 114.167 58.7445C114.372 58.9646 114.661 59.0927 115.035 59.1285C115.035 59.2053 115.032 59.2821 115.027 59.3589C115.022 59.4306 115.02 59.4818 115.02 59.5126H111.24C111.24 59.4818 111.238 59.4306 111.233 59.3589C111.228 59.2821 111.225 59.2053 111.225 59.1285C111.312 59.0875 111.481 59.0287 111.732 58.9518C111.927 58.8904 112.067 58.8341 112.155 58.7829C112.247 58.7265 112.316 58.6292 112.362 58.491C112.413 58.3527 112.439 58.1453 112.439 57.8688V55.0805C112.439 54.5172 112.318 54.0692 112.078 53.7363C111.842 53.3983 111.471 53.2294 110.964 53.2294C110.6 53.2294 110.247 53.3266 109.904 53.5212C109.566 53.7107 109.254 53.9565 108.967 54.2586V57.7229C108.967 58.1837 109.072 58.5217 109.282 58.7368C109.492 58.9518 109.835 59.0824 110.311 59.1285L110.303 59.5126H106.209C106.209 59.4818 106.207 59.4306 106.202 59.3589C106.196 59.2821 106.194 59.2053 106.194 59.1285C107.09 59.0568 107.538 58.5883 107.538 57.7229V50.5717C107.487 50.4948 107.374 50.4027 107.2 50.2951C107.026 50.1825 106.842 50.0826 106.647 49.9956C106.458 49.9085 106.317 49.8599 106.225 49.8496V49.5808L108.421 48.997L108.967 48.9432V53.6134C109.371 53.2089 109.768 52.9067 110.157 52.707C110.547 52.5022 110.997 52.3998 111.509 52.3998C112.221 52.3998 112.792 52.6277 113.222 53.0834C113.652 53.534 113.867 54.2228 113.867 55.1497V57.815ZM119.459 52.3998C120.14 52.3998 120.76 52.5483 121.318 52.8453C121.881 53.1372 122.327 53.5571 122.655 54.105C122.982 54.6478 123.146 55.2802 123.146 56.0023C123.146 56.7243 122.982 57.3644 122.655 57.9226C122.327 58.4756 121.889 58.9058 121.341 59.213C120.793 59.5151 120.194 59.6662 119.544 59.6662C118.899 59.6662 118.294 59.51 117.731 59.1976C117.168 58.8853 116.717 58.4526 116.379 57.8995C116.041 57.3414 115.872 56.7115 115.872 56.0099C115.872 55.3084 116.036 54.6837 116.364 54.1357C116.692 53.5827 117.129 53.1551 117.677 52.853C118.23 52.5508 118.824 52.3998 119.459 52.3998ZM119.644 59.0671C120.294 59.0671 120.788 58.8341 121.126 58.3681C121.464 57.9021 121.633 57.2901 121.633 56.5323C121.633 55.8768 121.541 55.2751 121.357 54.7272C121.177 54.1741 120.919 53.7338 120.581 53.406C120.243 53.0783 119.854 52.9144 119.413 52.9144C119.024 52.9144 118.678 53.0092 118.376 53.1986C118.079 53.3881 117.844 53.68 117.67 54.0743C117.496 54.4686 117.408 54.9627 117.408 55.5568C117.408 56.1405 117.501 56.7038 117.685 57.2466C117.869 57.7843 118.13 58.2221 118.468 58.5601C118.806 58.8981 119.198 59.0671 119.644 59.0671ZM127.117 59.6662C126.498 59.6662 126.019 59.5126 125.681 59.2053C125.348 58.893 125.123 58.4884 125.005 57.9917C124.887 57.495 124.828 56.9035 124.828 56.2173V53.9283C124.762 53.8106 124.636 53.7056 124.452 53.6134C124.273 53.5161 124.086 53.4367 123.891 53.3753C123.702 53.3087 123.607 53.278 123.607 53.2831L123.623 53.0143L125.781 52.492L126.257 52.4612V56.1328C126.257 56.7883 126.298 57.3055 126.38 57.6844C126.462 58.0583 126.6 58.3322 126.795 58.5063C126.989 58.6753 127.261 58.7598 127.609 58.7598C128.321 58.7598 128.992 58.4474 129.622 57.8227V53.9283C129.555 53.8106 129.43 53.7056 129.245 53.6134C129.066 53.5161 128.879 53.4367 128.684 53.3753C128.495 53.3087 128.4 53.278 128.4 53.2831L128.416 53.0143L130.574 52.492L131.05 52.4612V57.9687C131.05 58.1837 131.104 58.3502 131.212 58.4679C131.319 58.5806 131.452 58.6625 131.611 58.7137C131.77 58.7649 131.987 58.8136 132.264 58.8597C132.264 58.9365 132.259 59.0159 132.249 59.0978C132.243 59.1797 132.241 59.2361 132.241 59.2668L129.721 59.6278L129.66 58.3988C128.902 59.2437 128.055 59.6662 127.117 59.6662ZM135.329 57.1007C135.329 57.623 135.347 57.9968 135.382 58.2221C135.418 58.4423 135.505 58.6036 135.644 58.706C135.782 58.8033 136.015 58.852 136.343 58.852C136.537 58.852 136.732 58.8341 136.926 58.7982C137.121 58.7624 137.285 58.724 137.418 58.683L137.479 59.2437C137.218 59.3718 136.955 59.4742 136.688 59.551C136.422 59.6278 136.102 59.6662 135.728 59.6662C135.231 59.6662 134.852 59.5843 134.591 59.4204C134.33 59.2565 134.148 58.9928 134.046 58.6292C133.944 58.2605 133.892 57.7433 133.892 57.0776V53.1833H132.748V52.9144C133.096 52.7762 133.388 52.6149 133.623 52.4305C133.864 52.241 134.061 52.0464 134.215 51.8467C134.369 51.647 134.553 51.3833 134.768 51.0556C134.86 50.9071 134.932 50.8098 134.983 50.7637C135.034 50.7125 135.085 50.6869 135.137 50.6869C135.188 50.6869 135.229 50.7125 135.26 50.7637C135.295 50.8098 135.313 50.884 135.313 50.9864V52.6072H137.241V53.1833H135.329V57.1007ZM149.431 57.815C149.431 58.2093 149.531 58.5191 149.731 58.7445C149.936 58.9646 150.225 59.0927 150.599 59.1285C150.599 59.2053 150.596 59.2821 150.591 59.3589C150.586 59.4306 150.584 59.4818 150.584 59.5126H146.804C146.804 59.4818 146.802 59.4306 146.797 59.3589C146.792 59.2821 146.789 59.2053 146.789 59.1285C146.876 59.0875 147.045 59.0287 147.296 58.9518C147.491 58.8904 147.631 58.8341 147.718 58.7829C147.811 58.7265 147.88 58.6292 147.926 58.491C147.977 58.3527 148.003 58.1453 148.003 57.8688V55.0805C148.003 54.5172 147.882 54.0692 147.642 53.7363C147.406 53.3983 147.035 53.2294 146.528 53.2294C146.164 53.2294 145.811 53.3266 145.468 53.5212C145.13 53.7107 144.818 53.9565 144.531 54.2586V57.7229C144.531 58.1837 144.636 58.5217 144.846 58.7368C145.056 58.9518 145.399 59.0824 145.875 59.1285L145.867 59.5126H141.773C141.773 59.4818 141.771 59.4306 141.766 59.3589C141.76 59.2821 141.758 59.2053 141.758 59.1285C142.654 59.0568 143.102 58.5883 143.102 57.7229V50.5717C143.051 50.4948 142.938 50.4027 142.764 50.2951C142.59 50.1825 142.406 50.0826 142.211 49.9956C142.022 49.9085 141.881 49.8599 141.789 49.8496V49.5808L143.985 48.997L144.531 48.9432V53.6134C144.935 53.2089 145.332 52.9067 145.721 52.707C146.111 52.5022 146.561 52.3998 147.073 52.3998C147.785 52.3998 148.356 52.6277 148.786 53.0834C149.216 53.534 149.431 54.2228 149.431 55.1497V57.815ZM155.645 54.8347C155.645 54.4507 155.61 54.1255 155.538 53.8592C155.471 53.5929 155.333 53.3779 155.123 53.214C154.918 53.0501 154.624 52.9682 154.24 52.9682C154.107 52.9682 153.943 52.9964 153.748 53.0527C153.554 53.109 153.382 53.1909 153.234 53.2985C153.09 53.4009 153.018 53.5212 153.018 53.6595C153.018 53.7158 153.029 53.7722 153.049 53.8285C153.07 53.8797 153.103 53.9463 153.149 54.0282C153.195 54.105 153.228 54.1716 153.249 54.2279C153.269 54.2842 153.28 54.3431 153.28 54.4046C153.28 54.6094 153.213 54.781 153.08 54.9192C152.952 55.0524 152.786 55.1189 152.581 55.1189C152.325 55.1189 152.12 55.0242 151.966 54.8347C151.818 54.6453 151.743 54.4174 151.743 54.1511C151.743 53.7517 151.9 53.4214 152.212 53.1602C152.524 52.8991 152.901 52.707 153.341 52.5841C153.787 52.4612 154.201 52.3998 154.585 52.3998C155.307 52.3998 155.845 52.5073 156.199 52.7224C156.557 52.9323 156.793 53.2422 156.905 53.6518C157.023 54.0564 157.082 54.6248 157.082 55.357L157.066 55.7411C157.061 55.8538 157.054 56.0407 157.043 56.3018C157.038 56.563 157.036 56.8037 157.036 57.0239C157.036 58.176 157.156 58.7521 157.397 58.7521C157.571 58.7521 157.796 58.5755 158.073 58.2221L158.395 58.5678C158.17 58.9365 157.947 59.213 157.727 59.3974C157.507 59.5766 157.218 59.6662 156.859 59.6662C156.521 59.6662 156.242 59.5612 156.022 59.3513C155.807 59.1362 155.689 58.8597 155.669 58.5217C155.341 58.8802 154.972 59.1618 154.562 59.3666C154.158 59.5663 153.728 59.6662 153.272 59.6662C152.954 59.6662 152.66 59.6099 152.389 59.4972C152.122 59.3794 151.907 59.2053 151.743 58.9749C151.585 58.7445 151.505 58.4679 151.505 58.1453C151.505 57.6588 151.692 57.2543 152.066 56.9317C152.44 56.6091 152.87 56.3633 153.356 56.1943C153.843 56.0253 154.437 55.8563 155.139 55.6873C155.2 55.6771 155.369 55.6361 155.645 55.5644V54.8347ZM155.645 56.0176C155.569 56.0432 155.471 56.074 155.354 56.1098C154.913 56.2532 154.537 56.3914 154.224 56.5246C153.912 56.6526 153.633 56.8267 153.387 57.0469C153.141 57.2671 153.018 57.5257 153.018 57.8227C153.018 58.1248 153.1 58.363 153.264 58.5371C153.433 58.7112 153.669 58.7982 153.971 58.7982C154.273 58.7982 154.565 58.724 154.847 58.5755C155.128 58.4218 155.395 58.2221 155.645 57.9763V56.0176ZM162.19 59.6047C162.128 59.6355 162.052 59.6508 161.959 59.6508C161.862 59.6508 161.785 59.6355 161.729 59.6047L159.379 53.9514C159.291 53.7363 159.212 53.5776 159.14 53.4752C159.069 53.3676 159 53.2934 158.933 53.2524C158.866 53.2114 158.772 53.173 158.649 53.1372C158.521 53.0962 158.403 53.0527 158.295 53.0066V52.6072H161.752C161.752 52.6481 161.757 52.7096 161.767 52.7915C161.783 52.8735 161.79 52.9503 161.79 53.022C161.458 53.1141 161.209 53.2037 161.045 53.2908C160.881 53.3779 160.8 53.5059 160.8 53.6749C160.8 53.7261 160.812 53.7952 160.838 53.8823L162.405 57.7459L163.726 54.5275C163.869 54.1741 163.941 53.9027 163.941 53.7133C163.926 53.534 163.839 53.3983 163.68 53.3062C163.526 53.2089 163.281 53.1193 162.943 53.0373C162.937 53.0066 162.935 52.9477 162.935 52.8607C162.935 52.7992 162.935 52.7454 162.935 52.6994C162.94 52.6533 162.943 52.6225 162.943 52.6072H165.8C165.81 52.6942 165.815 52.8248 165.815 52.9989C165.718 53.0552 165.623 53.1013 165.531 53.1372C165.383 53.2037 165.26 53.2678 165.162 53.3292C165.07 53.3855 164.97 53.4752 164.863 53.5981C164.76 53.7209 164.663 53.8848 164.571 54.0896L162.19 59.6047ZM168.312 48.9432C168.558 48.9432 168.768 49.0303 168.942 49.2044C169.116 49.3785 169.203 49.5885 169.203 49.8343C169.203 50.0852 169.116 50.2977 168.942 50.4718C168.768 50.6408 168.558 50.7253 168.312 50.7253C168.061 50.7253 167.848 50.6408 167.674 50.4718C167.505 50.2977 167.421 50.0852 167.421 49.8343C167.421 49.5885 167.505 49.3785 167.674 49.2044C167.848 49.0303 168.061 48.9432 168.312 48.9432ZM167.697 53.9283C167.631 53.8106 167.505 53.7056 167.321 53.6134C167.142 53.5161 166.955 53.4367 166.76 53.3753C166.571 53.3087 166.476 53.278 166.476 53.2831L166.491 53.0143L168.65 52.492L169.126 52.4612V57.8227C169.126 58.0019 169.144 58.1709 169.18 58.3297C169.221 58.4884 169.338 58.6497 169.533 58.8136C169.733 58.9774 170.045 59.0824 170.47 59.1285C170.47 59.2975 170.468 59.4255 170.462 59.5126H166.453C166.443 59.4204 166.438 59.2924 166.438 59.1285L166.653 59.0671C166.878 59.0056 167.06 58.9442 167.198 58.8827C167.336 58.8213 167.454 58.7317 167.551 58.6139C167.649 58.491 167.697 58.3271 167.697 58.1223V53.9283ZM173.581 57.8073C173.581 58.2477 173.691 58.5678 173.911 58.7675C174.137 58.9621 174.477 59.0824 174.933 59.1285C174.933 59.2053 174.93 59.2821 174.925 59.3589C174.92 59.4358 174.918 59.487 174.918 59.5126H170.962L170.954 59.2668C170.954 59.1848 170.957 59.1285 170.962 59.0978C171.259 59.0261 171.482 58.9621 171.63 58.9058C171.784 58.8494 171.909 58.7573 172.006 58.6292C172.104 58.5012 172.152 58.322 172.152 58.0916V53.9283C172.091 53.8106 171.971 53.7056 171.791 53.6134C171.612 53.5161 171.423 53.4367 171.223 53.3753C171.028 53.3087 170.931 53.278 170.931 53.2831L170.954 53.022L173.051 52.4996L173.52 52.4689L173.604 53.7133C173.886 53.3343 174.244 53.022 174.679 52.7762C175.12 52.5252 175.594 52.3998 176.1 52.3998C176.843 52.3998 177.419 52.6097 177.829 53.0296C178.238 53.4495 178.461 54.0768 178.497 54.9115C178.512 55.2393 178.52 55.5747 178.52 55.9178V57.6307C178.52 58.0045 178.543 58.2759 178.589 58.4449C178.635 58.6139 178.707 58.7317 178.804 58.7982C178.907 58.8597 179.076 58.9262 179.311 58.9979L179.634 59.0978C179.639 59.1285 179.642 59.1848 179.642 59.2668L179.634 59.5126H175.847C175.847 59.4818 175.844 59.4306 175.839 59.3589C175.834 59.2821 175.832 59.2053 175.832 59.1285C175.867 59.1132 175.97 59.0824 176.139 59.0363C176.41 58.9595 176.62 58.8776 176.769 58.7905C176.922 58.7035 177.015 58.5627 177.045 58.3681C177.071 58.2196 177.084 58.0224 177.084 57.7766V56.0637C177.084 55.3826 177.058 54.8578 177.007 54.4891C176.961 54.1204 176.833 53.8182 176.623 53.5827C176.418 53.3471 176.085 53.2294 175.624 53.2294C175.261 53.2294 174.91 53.3343 174.572 53.5443C174.239 53.7542 173.909 54.0333 173.581 54.3815V57.8073ZM187.085 53.3292C186.972 53.2934 186.788 53.2754 186.532 53.2754C186.327 53.2754 186.112 53.2857 185.886 53.3062C185.661 53.3215 185.515 53.3343 185.449 53.3446C185.449 53.3343 185.505 53.4086 185.617 53.5673C185.73 53.7209 185.83 53.9002 185.917 54.105C186.009 54.3047 186.055 54.5044 186.055 54.7041C186.055 55.2213 185.925 55.6643 185.664 56.033C185.402 56.4017 185.062 56.6808 184.642 56.8702C184.227 57.0546 183.792 57.1468 183.336 57.1468C183.08 57.1468 182.752 57.1007 182.353 57.0085C182.338 57.0187 182.279 57.0572 182.176 57.1237C182.048 57.2057 181.954 57.2825 181.892 57.3542C181.836 57.4207 181.808 57.518 181.808 57.646C181.808 57.7741 181.874 57.8714 182.007 57.9379C182.14 57.9994 182.32 58.0429 182.545 58.0685C182.77 58.089 183.129 58.1095 183.62 58.13C183.989 58.1453 184.401 58.1684 184.857 58.1991C185.507 58.2452 186.032 58.4142 186.432 58.706C186.831 58.9979 187.031 59.3999 187.031 59.912C187.031 60.3729 186.859 60.7774 186.516 61.1256C186.173 61.4738 185.71 61.7401 185.126 61.9245C184.547 62.1139 183.91 62.2087 183.213 62.2087C182.635 62.2087 182.133 62.1447 181.708 62.0166C181.283 61.8937 180.958 61.7324 180.732 61.5327C180.512 61.3381 180.402 61.1359 180.402 60.9259C180.402 60.7006 180.497 60.4522 180.686 60.1808C180.876 59.9094 181.173 59.6252 181.577 59.3282C181.29 59.2104 181.065 59.0594 180.901 58.875C180.742 58.6907 180.663 58.4859 180.663 58.2605C180.663 57.9891 180.773 57.7382 180.993 57.5078C181.214 57.2773 181.526 57.0443 181.931 56.8088C181.526 56.5784 181.214 56.2942 180.993 55.9562C180.773 55.6182 180.663 55.2341 180.663 54.804C180.663 54.3431 180.776 53.9309 181.001 53.5673C181.232 53.1986 181.549 52.9119 181.954 52.707C182.363 52.5022 182.822 52.3998 183.328 52.3998C183.938 52.3998 184.501 52.5355 185.018 52.8069C185.07 52.7864 185.185 52.748 185.364 52.6917C185.543 52.6302 185.756 52.5713 186.002 52.515C186.252 52.4587 186.48 52.4305 186.685 52.4305C186.757 52.4305 186.829 52.4356 186.9 52.4459C186.977 52.451 187.026 52.4561 187.046 52.4612L187.085 53.3292ZM182.03 54.6427C182.03 55.2265 182.151 55.7053 182.391 56.0791C182.637 56.4529 183.001 56.6398 183.482 56.6398C183.897 56.6398 184.204 56.4862 184.404 56.1789C184.609 55.8717 184.711 55.4543 184.711 54.9269C184.711 54.5121 184.647 54.1588 184.519 53.8669C184.396 53.5699 184.225 53.3471 184.004 53.1986C183.784 53.045 183.538 52.9682 183.267 52.9682C183.037 52.9682 182.827 53.0399 182.637 53.1833C182.453 53.3215 182.304 53.5187 182.192 53.7747C182.084 54.0256 182.03 54.315 182.03 54.6427ZM183.467 59.4895C183.078 59.4844 182.637 59.4537 182.146 59.3974C181.649 59.8224 181.401 60.2116 181.401 60.5649C181.401 60.8107 181.513 61.0078 181.738 61.1563C181.969 61.31 182.238 61.4175 182.545 61.479C182.857 61.5404 183.147 61.5711 183.413 61.5711C183.787 61.5711 184.173 61.5276 184.573 61.4406C184.972 61.3586 185.308 61.2306 185.579 61.0565C185.85 60.8824 185.986 60.6699 185.986 60.419C185.986 60.1424 185.833 59.9248 185.525 59.7661C185.223 59.6073 184.755 59.5203 184.12 59.5049L183.467 59.4895ZM194.044 57.1007C194.044 57.623 194.062 57.9968 194.098 58.2221C194.133 58.4423 194.22 58.6036 194.359 58.706C194.497 58.8033 194.73 58.852 195.058 58.852C195.252 58.852 195.447 58.8341 195.641 58.7982C195.836 58.7624 196 58.724 196.133 58.683L196.195 59.2437C195.933 59.3718 195.67 59.4742 195.403 59.551C195.137 59.6278 194.817 59.6662 194.443 59.6662C193.946 59.6662 193.568 59.5843 193.306 59.4204C193.045 59.2565 192.863 58.9928 192.761 58.6292C192.659 58.2605 192.607 57.7433 192.607 57.0776V53.1833H191.463V52.9144C191.811 52.7762 192.103 52.6149 192.339 52.4305C192.579 52.241 192.776 52.0464 192.93 51.8467C193.084 51.647 193.268 51.3833 193.483 51.0556C193.575 50.9071 193.647 50.8098 193.698 50.7637C193.749 50.7125 193.801 50.6869 193.852 50.6869C193.903 50.6869 193.944 50.7125 193.975 50.7637C194.01 50.8098 194.028 50.884 194.028 50.9864V52.6072H195.956V53.1833H194.044V57.1007ZM200.696 52.3998C201.377 52.3998 201.996 52.5483 202.555 52.8453C203.118 53.1372 203.563 53.5571 203.891 54.105C204.219 54.6478 204.383 55.2802 204.383 56.0023C204.383 56.7243 204.219 57.3644 203.891 57.9226C203.563 58.4756 203.126 58.9058 202.578 59.213C202.03 59.5151 201.431 59.6662 200.78 59.6662C200.135 59.6662 199.531 59.51 198.967 59.1976C198.404 58.8853 197.954 58.4526 197.616 57.8995C197.278 57.3414 197.109 56.7115 197.109 56.0099C197.109 55.3084 197.272 54.6837 197.6 54.1357C197.928 53.5827 198.366 53.1551 198.914 52.853C199.467 52.5508 200.061 52.3998 200.696 52.3998ZM200.88 59.0671C201.53 59.0671 202.025 58.8341 202.363 58.3681C202.7 57.9021 202.869 57.2901 202.869 56.5323C202.869 55.8768 202.777 55.2751 202.593 54.7272C202.414 54.1741 202.155 53.7338 201.817 53.406C201.479 53.0783 201.09 52.9144 200.65 52.9144C200.26 52.9144 199.915 53.0092 199.613 53.1986C199.316 53.3881 199.08 53.68 198.906 54.0743C198.732 54.4686 198.645 54.9627 198.645 55.5568C198.645 56.1405 198.737 56.7038 198.921 57.2466C199.106 57.7843 199.367 58.2221 199.705 58.5601C200.043 58.8981 200.435 59.0671 200.88 59.0671ZM37.4088 74.6657C37.3371 74.6709 37.2168 74.6734 37.0478 74.6734C36.8993 74.1562 36.6739 73.7338 36.3718 73.406C36.0748 73.0783 35.6933 72.9144 35.2273 72.9144C34.9047 72.9144 34.6487 72.9938 34.4592 73.1525C34.2749 73.3113 34.1827 73.5417 34.1827 73.8438C34.1827 74.0538 34.2595 74.2484 34.4131 74.4276C34.5667 74.6068 34.7536 74.7656 34.9738 74.9039C35.1992 75.037 35.4936 75.1957 35.8572 75.3801C35.9442 75.4211 36.0748 75.4876 36.2489 75.5798C36.8225 75.887 37.2398 76.202 37.501 76.5246C37.7672 76.8421 37.9004 77.2313 37.9004 77.6921C37.9004 78.1172 37.7954 78.4782 37.5854 78.7752C37.3755 79.0671 37.0862 79.2898 36.7175 79.4434C36.3488 79.5919 35.9263 79.6662 35.4501 79.6662C35.0302 79.6662 34.6051 79.615 34.175 79.5126C33.7449 79.4153 33.3915 79.2821 33.115 79.1132V77.2389C33.3147 77.2133 33.4504 77.2005 33.5221 77.2005C33.6399 77.7689 33.8473 78.2324 34.1443 78.5908C34.4464 78.9493 34.8586 79.1285 35.3809 79.1285C35.7548 79.1285 36.0646 79.0363 36.3104 78.852C36.5613 78.6625 36.6867 78.4142 36.6867 78.1069C36.6867 77.9123 36.6304 77.7408 36.5178 77.5923C36.4051 77.4438 36.2592 77.3132 36.0799 77.2005C35.9007 77.0879 35.6319 76.9368 35.2734 76.7473C34.7921 76.4913 34.4259 76.2839 34.175 76.1252C33.7858 75.8845 33.4914 75.6156 33.2917 75.3186C33.0971 75.0216 32.9998 74.6683 32.9998 74.2586C32.9998 73.8643 33.0996 73.5289 33.2993 73.2524C33.4991 72.9708 33.7705 72.7582 34.1135 72.6149C34.4566 72.4715 34.8433 72.3998 35.2734 72.3998C35.6677 72.3998 36.0415 72.4484 36.3949 72.5457C36.7533 72.643 37.0759 72.7813 37.3627 72.9605L37.4088 74.6657ZM41.6718 80.6187C41.6718 81.0898 41.7819 81.4278 42.0021 81.6326C42.2275 81.8425 42.5885 81.9757 43.0852 82.032C43.0852 82.1088 43.0826 82.1831 43.0775 82.2548C43.0724 82.3316 43.0698 82.3853 43.0698 82.4161H39.0218C39.0218 82.3853 39.0193 82.3316 39.0142 82.2548C39.009 82.1831 39.0065 82.1088 39.0065 82.032C39.411 81.9757 39.7183 81.8374 39.9282 81.6172C40.1382 81.4021 40.2431 81.0923 40.2431 80.6878V74.0282C40.1561 73.8746 39.9897 73.7338 39.7439 73.6057C39.5032 73.4777 39.2651 73.3702 39.0295 73.2831L38.9681 73.2601V72.9989L41.042 72.4612H41.5643L41.6258 73.7209C42.0047 73.301 42.3862 72.9759 42.7703 72.7454C43.1543 72.515 43.5921 72.3998 44.0837 72.3998C44.6624 72.3998 45.177 72.5406 45.6277 72.8222C46.0783 73.0988 46.4291 73.4982 46.68 74.0205C46.9309 74.5377 47.0564 75.1471 47.0564 75.8486C47.0564 76.5963 46.9027 77.2594 46.5955 77.8381C46.2934 78.4116 45.876 78.8597 45.3435 79.1823C44.8109 79.4998 44.2143 79.6585 43.5537 79.6585C43.2106 79.6585 42.8804 79.5971 42.5629 79.4742C42.2454 79.3513 41.9484 79.172 41.6718 78.9365V80.6187ZM41.6718 76.8472C41.6718 77.2671 41.7487 77.6409 41.9023 77.9687C42.061 78.2913 42.2915 78.5473 42.5936 78.7368C42.8957 78.9211 43.2542 79.0133 43.669 79.0133C44.3091 79.0133 44.7955 78.7649 45.1284 78.2682C45.4612 77.7715 45.6277 77.0904 45.6277 76.225C45.6277 75.6054 45.5304 75.0831 45.3358 74.6581C45.1412 74.233 44.8851 73.9181 44.5677 73.7133C44.2502 73.5033 43.902 73.3983 43.523 73.3983C42.9188 73.3983 42.3017 73.703 41.6718 74.3124V76.8472ZM49.6833 75.4723C49.6782 75.5235 49.6757 75.5977 49.6757 75.695C49.6757 76.3402 49.7909 76.8805 50.0213 77.3158C50.2569 77.7459 50.5692 78.0659 50.9584 78.2759C51.3527 78.4807 51.7931 78.5831 52.2796 78.5831C52.9248 78.5831 53.547 78.3988 54.1461 78.0301L54.3689 78.2452C54.246 78.5422 54.0386 78.7982 53.7467 79.0133C53.4599 79.2284 53.1322 79.3922 52.7635 79.5049C52.3999 79.6124 52.0466 79.6662 51.7035 79.6662C51.0583 79.6662 50.4771 79.5151 49.9599 79.213C49.4478 78.9109 49.0458 78.4884 48.7539 77.9456C48.4671 77.4028 48.3238 76.7806 48.3238 76.0791C48.3238 75.3673 48.4799 74.7323 48.7923 74.1741C49.1047 73.6109 49.5195 73.1756 50.0367 72.8683C50.559 72.556 51.1172 72.3998 51.7112 72.3998C52.1976 72.3998 52.6355 72.4996 53.0247 72.6994C53.419 72.8939 53.739 73.1705 53.9848 73.5289C54.2306 73.8823 54.3868 74.2894 54.4534 74.7502C54.5097 74.9858 54.5379 75.2034 54.5379 75.4031V75.4723H49.6833ZM52.4486 74.9807C52.6739 74.9704 52.8634 74.9295 53.017 74.8578C52.9811 74.2484 52.8377 73.7722 52.5868 73.4291C52.341 73.086 51.9903 72.9144 51.5345 72.9144C51.2017 72.9144 50.9046 73.0143 50.6435 73.214C50.3874 73.4137 50.1801 73.68 50.0213 74.0128C49.8626 74.3406 49.7601 74.7016 49.7141 75.0959L52.4486 74.9807ZM59.9377 74.8347C59.9377 74.4507 59.9019 74.1255 59.8302 73.8592C59.7636 73.5929 59.6254 73.3779 59.4154 73.214C59.2106 73.0501 58.9161 72.9682 58.5321 72.9682C58.3989 72.9682 58.2351 72.9964 58.0405 73.0527C57.8459 73.109 57.6743 73.1909 57.5258 73.2985C57.3825 73.4009 57.3108 73.5212 57.3108 73.6595C57.3108 73.7158 57.321 73.7722 57.3415 73.8285C57.362 73.8797 57.3953 73.9463 57.4413 74.0282C57.4874 74.105 57.5207 74.1716 57.5412 74.2279C57.5617 74.2842 57.5719 74.3431 57.5719 74.4046C57.5719 74.6094 57.5054 74.781 57.3722 74.9192C57.2442 75.0524 57.0778 75.1189 56.8729 75.1189C56.6169 75.1189 56.4121 75.0242 56.2584 74.8347C56.1099 74.6453 56.0357 74.4174 56.0357 74.1511C56.0357 73.7517 56.1919 73.4214 56.5042 73.1602C56.8166 72.8991 57.193 72.707 57.6334 72.5841C58.0789 72.4612 58.4937 72.3998 58.8777 72.3998C59.5998 72.3998 60.1374 72.5073 60.4908 72.7224C60.8492 72.9323 61.0848 73.2422 61.1975 73.6518C61.3152 74.0564 61.3741 74.6248 61.3741 75.357L61.3588 75.7411C61.3536 75.8538 61.346 76.0407 61.3357 76.3018C61.3306 76.563 61.328 76.8037 61.328 77.0239C61.328 78.176 61.4484 78.7521 61.689 78.7521C61.8632 78.7521 62.0885 78.5755 62.365 78.2221L62.6876 78.5678C62.4623 78.9365 62.2395 79.213 62.0193 79.3974C61.7991 79.5766 61.5098 79.6662 61.1514 79.6662C60.8134 79.6662 60.5343 79.5612 60.3141 79.3513C60.099 79.1362 59.9813 78.8597 59.9608 78.5217C59.633 78.8802 59.2644 79.1618 58.8547 79.3666C58.4501 79.5663 58.02 79.6662 57.5642 79.6662C57.2468 79.6662 56.9523 79.6099 56.6809 79.4972C56.4146 79.3794 56.1996 79.2053 56.0357 78.9749C55.8769 78.7445 55.7976 78.4679 55.7976 78.1453C55.7976 77.6588 55.9845 77.2543 56.3583 76.9317C56.7321 76.6091 57.1623 76.3633 57.6487 76.1943C58.1352 76.0253 58.7292 75.8563 59.4308 75.6873C59.4922 75.6771 59.6612 75.6361 59.9377 75.5644V74.8347ZM59.9377 76.0176C59.8609 76.0432 59.7636 76.074 59.6459 76.1098C59.2055 76.2532 58.8291 76.3914 58.5167 76.5246C58.2043 76.6526 57.9253 76.8267 57.6795 77.0469C57.4337 77.2671 57.3108 77.5257 57.3108 77.8227C57.3108 78.1248 57.3927 78.363 57.5566 78.5371C57.7256 78.7112 57.9611 78.7982 58.2632 78.7982C58.5654 78.7982 58.8572 78.724 59.1389 78.5755C59.4205 78.4218 59.6868 78.2221 59.9377 77.9763V76.0176ZM63.5095 79.5126L63.5018 79.2668C63.5018 79.1848 63.5044 79.1285 63.5095 79.0978C63.8065 79.0261 64.0293 78.9621 64.1778 78.9058C64.3314 78.8494 64.4568 78.7573 64.5541 78.6292C64.6514 78.5012 64.7001 78.322 64.7001 78.0916V70.5717C64.6489 70.4948 64.5362 70.4027 64.3621 70.2951C64.188 70.1825 64.0036 70.0826 63.8091 69.9956C63.6196 69.9085 63.4788 69.8599 63.3866 69.8496V69.5808L65.5834 68.997L66.1288 68.9432V75.864H66.7586L69.2166 73.4521C69.2269 73.4265 69.232 73.3983 69.232 73.3676C69.232 73.2498 69.1833 73.173 69.086 73.1372C68.9939 73.0962 68.853 73.0655 68.6636 73.045C68.5151 73.0296 68.4075 73.0117 68.341 72.9912C68.2744 72.9708 68.2411 72.9272 68.2411 72.8607C68.2411 72.789 68.2488 72.7045 68.2642 72.6072H71.521L71.544 72.8607C71.544 72.9682 71.3315 73.0655 70.9065 73.1525C70.5583 73.2242 70.2971 73.3343 70.123 73.4828L68.003 75.6566L70.0308 78.2836C70.1896 78.4935 70.3918 78.66 70.6376 78.7829C70.8834 78.9058 71.1113 78.9903 71.3213 79.0363C71.5363 79.0824 71.6848 79.1055 71.7668 79.1055L71.7437 79.5126H67.9415C67.9364 79.4716 67.9262 79.3948 67.9108 79.2821C67.9006 79.1695 67.898 79.1132 67.9031 79.1132C68.2001 79.1132 68.4024 79.0799 68.51 79.0133C68.6175 78.9416 68.6713 78.8622 68.6713 78.7752C68.6713 78.7291 68.638 78.6702 68.5714 78.5985L66.7817 76.2865H66.1288V77.8073C66.1288 78.2477 66.2389 78.5678 66.4591 78.7675C66.6844 78.9621 67.0249 79.0824 67.4807 79.1285C67.4807 79.2053 67.4781 79.2821 67.473 79.3589C67.4679 79.4358 67.4653 79.487 67.4653 79.5126H63.5095ZM75.062 78.6216C75.062 78.8059 75.0134 78.9774 74.9161 79.1362C74.8239 79.2949 74.6959 79.423 74.532 79.5203C74.3733 79.6175 74.1966 79.6662 74.002 79.6662C73.8125 79.6662 73.6359 79.6175 73.472 79.5203C73.3133 79.4281 73.1852 79.3026 73.0879 79.1439C72.9958 78.98 72.9497 78.8059 72.9497 78.6216C72.9497 78.4372 72.9958 78.2657 73.0879 78.1069C73.1852 77.9482 73.3133 77.8227 73.472 77.7305C73.6359 77.6332 73.8125 77.5846 74.002 77.5846C74.1966 77.5846 74.3733 77.6332 74.532 77.7305C74.6959 77.8227 74.8239 77.9482 74.9161 78.1069C75.0134 78.2657 75.062 78.4372 75.062 78.6216ZM77.1052 72.9836C77.1359 72.9631 77.2384 72.9067 77.4125 72.8146C77.6531 72.6917 77.8452 72.5841 77.9886 72.492C78.1319 72.3947 78.2497 72.2718 78.3419 72.1233C78.4392 71.9748 78.4878 71.793 78.4878 71.5779C78.411 71.4704 78.3188 71.3833 78.2113 71.3167C78.1089 71.2502 77.9783 71.2041 77.8196 71.1785C77.5533 71.1324 77.3536 71.0351 77.2204 70.8866C77.0873 70.7381 77.0207 70.5435 77.0207 70.3028C77.0207 70.0212 77.1206 69.7856 77.3203 69.5961C77.52 69.4067 77.776 69.3119 78.0884 69.3119C78.3598 69.3119 78.6005 69.3785 78.8104 69.5117C79.0255 69.6448 79.1894 69.8317 79.302 70.0724C79.4198 70.3079 79.4787 70.5793 79.4787 70.8866C79.4787 71.2655 79.3942 71.6342 79.2252 71.9927C79.0562 72.3511 78.813 72.6609 78.4955 72.9221C78.1831 73.1781 77.8144 73.3446 77.3894 73.4214C77.2358 73.2882 77.1411 73.1423 77.1052 72.9836ZM80.4235 72.9836C80.4901 72.9426 80.595 72.8863 80.7384 72.8146C80.9842 72.6865 81.1737 72.5765 81.3068 72.4843C81.4451 72.387 81.5603 72.2641 81.6525 72.1156C81.7498 71.9671 81.7984 71.7878 81.7984 71.5779C81.7216 71.4704 81.6294 71.3833 81.5219 71.3167C81.4195 71.2502 81.2915 71.2041 81.1378 71.1785C80.8716 71.1324 80.6719 71.0351 80.5387 70.8866C80.4056 70.7381 80.339 70.5435 80.339 70.3028C80.339 70.0212 80.4363 69.7856 80.6309 69.5961C80.8306 69.4067 81.0892 69.3119 81.4067 69.3119C81.6781 69.3119 81.9188 69.3785 82.1287 69.5117C82.3387 69.6448 82.5 69.8317 82.6126 70.0724C82.7304 70.3079 82.7893 70.5793 82.7893 70.8866C82.7893 71.2655 82.7048 71.6342 82.5358 71.9927C82.3668 72.3511 82.1236 72.6609 81.8061 72.9221C81.4937 73.1781 81.125 73.3446 80.7 73.4214C80.5515 73.2934 80.4593 73.1474 80.4235 72.9836Z" fill="#CCA298"/>
</svg>
