<svg width="406" height="174" viewBox="0 0 406 174" fill="none" xmlns="http://www.w3.org/2000/svg">
<path d="M0 32.9768C0 28.6589 0 26.5 0.435011 25.1521C1.97831 20.3702 7.13825 17.7782 11.8958 19.395C13.2369 19.8507 14.9688 21.1396 18.4327 23.7174C19.1007 24.2145 19.4346 24.463 19.7816 24.6754C20.9613 25.3978 22.2917 25.8385 23.6693 25.9633C24.0745 26 24.4908 26 25.3234 26H298C335.712 26 354.569 26 366.284 37.7157C378 49.4315 378 68.2876 378 106V160C378 166.6 378 169.899 375.95 171.95C373.9 174 370.6 174 364 174H41.0294C31.3251 174 21.9349 170.56 14.5268 164.292C5.3136 156.496 0 145.039 0 132.971V32.9768Z" fill="#CCA298"/>
<path d="M10 22.9768C10 18.6589 10 16.5 10.435 15.1521C11.9783 10.3702 17.1383 7.77819 21.8958 9.39496C23.2369 9.85069 24.9688 11.1396 28.4327 13.7174C29.1007 14.2145 29.4346 14.463 29.7816 14.6754C30.9613 15.3978 32.2917 15.8385 33.6693 15.9633C34.0745 16 34.4908 16 35.3234 16H308C345.712 16 364.569 16 376.284 27.7157C388 39.4315 388 58.2876 388 96V137.887C388 139.482 388 140.28 388.171 141.039C388.296 141.592 388.487 142.128 388.741 142.636C389.089 143.332 389.594 143.949 390.604 145.183C395.759 151.483 398.337 154.634 398.222 157.301C398.141 159.189 397.299 160.964 395.89 162.222C393.898 164 389.828 164 381.687 164H41.7524C35.0869 164 28.5904 161.902 23.1835 158.004C14.9052 152.036 10 142.453 10 132.248V22.9768Z" fill="white"/>
<path d="M16.9823 138.446C16.1158 136.168 15.5206 133.779 15.2221 131.325L15.7185 131.265C15.5738 130.076 15.5 128.872 15.5 127.658V124.344H15V117.715H15.5V111.087H15V104.458H15.5V97.8299H15V91.2014H15.5V84.5729H15V77.9445H15.5V71.316H15V64.6875H15.5V58.059H15V51.4305H15.5V44.8021H15V38.1736H15.5V31.5451H15V24.9166H15.5V21.6024C15.5 20.5499 15.8226 19.6586 16.3405 18.9556L15.9379 18.659C17.2018 16.9433 19.5268 16.2036 21.5498 16.8734L21.3926 17.3481C22.2215 17.6226 22.9999 18.1635 23.6081 19.0225C23.8624 19.3817 24.156 19.7047 24.481 19.9874L24.8092 19.6102C25.4078 20.131 26.1232 20.501 26.8941 20.6886L26.7759 21.1744C27.1944 21.2763 27.6278 21.3293 28.0678 21.3293H31.5045V20.8293H38.3777V21.3293H45.251V20.8293H52.1243V21.3293H58.9976V20.8293H65.8709V21.3293H72.7442V20.8293H79.6175V21.3293H86.4909V20.8293H93.3642V21.3293H100.237V20.8293H107.111V21.3293H113.984V20.8293H120.857V21.3293H127.731V20.8293H134.604V21.3293H141.477V20.8293H148.351V21.3293H155.224V20.8293H162.097V21.3293H168.971V20.8293H175.844V21.3293H182.717V20.8293H189.59V21.3293H196.464V20.8293H203.337V21.3293H210.21V20.8293H217.084V21.3293H223.957V20.8293H230.83V21.3293H237.704V20.8293H244.577V21.3293H251.45V20.8293H258.324V21.3293H265.197V20.8293H272.07V21.3293H278.943V20.8293H285.817V21.3293H292.69V20.8293H299.563V21.3293H303C304.201 21.3293 305.383 21.3293 306.546 21.3296L306.546 20.8296C308.994 20.8304 311.358 20.8329 313.643 20.8406L313.642 21.3406C316.096 21.3488 318.459 21.3631 320.734 21.3877L320.739 20.8877C323.199 20.9143 325.557 20.9531 327.818 21.0095L327.806 21.5093C330.281 21.571 332.639 21.6539 334.887 21.7651L334.912 21.2657C337.398 21.3887 339.753 21.5463 341.985 21.7483L341.94 22.2463C344.423 22.4711 346.75 22.7508 348.937 23.0987L349.016 22.6049C351.498 22.9998 353.804 23.4825 355.951 24.0726L355.819 24.5547C358.203 25.2099 360.384 25.997 362.393 26.9421L362.606 26.4897C364.803 27.5231 366.801 28.7451 368.636 30.1903L368.326 30.583C369.234 31.2977 370.1 32.068 370.931 32.8986C371.761 33.7291 372.532 34.5958 373.246 35.5029L373.639 35.1935C375.084 37.028 376.306 39.0263 377.34 41.223L376.887 41.4359C377.832 43.4448 378.619 45.6267 379.275 48.0108L379.757 47.8783C380.347 50.0257 380.829 52.3309 381.224 54.8135L380.731 54.892C381.078 57.0789 381.358 59.4067 381.583 61.8898L382.081 61.8447C382.283 64.0765 382.441 66.4308 382.564 68.9175L382.064 68.9422C382.175 71.1907 382.258 73.5486 382.32 76.0234L382.82 76.011C382.876 78.2723 382.915 80.6302 382.942 83.0902L382.442 83.0956C382.466 85.3704 382.48 87.7329 382.489 90.1877L382.989 90.1861C382.996 92.471 382.999 94.8354 383 97.2829L382.5 97.283C382.5 97.7218 382.5 98.1632 382.5 98.6073L382.5 100.829V104.096H383V110.628H382.5V117.161H383V123.694H382.5V130.226H383V136.759H382.5V140.025C382.5 141.259 382.605 142.483 382.812 143.685L383.305 143.6C383.711 145.966 384.518 148.245 385.691 150.339L385.254 150.584C385.85 151.648 386.538 152.666 387.314 153.624C387.622 154.004 387.786 154.423 387.834 154.84L388.331 154.782C388.458 155.874 387.934 156.973 387.005 157.562L386.737 157.139C386.383 157.364 385.954 157.5 385.465 157.5H381.922V158H374.837V157.5H367.751V158H360.665V157.5H353.579V158H346.493V157.5H339.407V158H332.321V157.5H325.235V158H318.149V157.5H311.063V158H303.977V157.5H296.892V158H289.806V157.5H282.72V158H275.634V157.5H268.548V158H261.462V157.5H254.376V158H247.29V157.5H240.204V158H233.118V157.5H226.033V158H218.947V157.5H211.861V158H204.775V157.5H197.689V158H190.603V157.5H183.517V158H176.431V157.5H169.345V158H162.259V157.5H155.173V158H148.088V157.5H141.002V158H133.916V157.5H126.83V158H119.744V157.5H112.658V158H105.572V157.5H98.4863V158H91.4004V157.5H84.3145V158H77.2286V157.5H70.1427V158H63.0568V157.5H55.9709V158H48.885V157.5H45.342C43.839 157.5 42.3448 157.387 40.8714 157.163L40.7965 157.658C37.7835 157.201 34.8561 156.293 32.1136 154.965L32.3316 154.515C30.9905 153.865 29.6943 153.113 28.4551 152.262C27.4542 151.576 26.5031 150.833 25.6047 150.041L25.2741 150.416C23.4202 148.782 21.7869 146.939 20.3995 144.936L20.8106 144.651C19.4366 142.667 18.3078 140.523 17.4496 138.268L16.9823 138.446Z" fill="white" stroke="#C17766" stroke-dasharray="7 7"/>
<path d="M265.935 126.084H279.195L278.974 127.376H265.714L265.935 126.084ZM282.452 119.828H286.481C286.957 119.828 287.399 119.907 287.807 120.066C288.215 120.213 288.567 120.429 288.861 120.712C289.167 120.995 289.4 121.341 289.558 121.749C289.728 122.146 289.813 122.593 289.813 123.092C289.813 123.591 289.728 124.055 289.558 124.486C289.388 124.905 289.15 125.285 288.844 125.625C288.538 125.954 288.164 126.237 287.722 126.475C287.292 126.702 286.81 126.866 286.277 126.968L286.226 127.019L288.742 131.932L288.725 132H286.957L284.509 127.07H282.741L281.857 132H280.293L282.452 119.828ZM285.512 125.608C285.875 125.608 286.221 125.557 286.549 125.455C286.878 125.342 287.161 125.183 287.399 124.979C287.649 124.764 287.841 124.503 287.977 124.197C288.125 123.88 288.198 123.517 288.198 123.109C288.198 122.622 288.028 122.202 287.688 121.851C287.36 121.5 286.872 121.324 286.226 121.324H283.744L282.996 125.608H285.512ZM289.985 132L291.447 123.67H293.011L291.549 132H289.985ZM292.739 121.902C292.433 121.902 292.173 121.794 291.957 121.579C291.742 121.364 291.634 121.103 291.634 120.797C291.634 120.491 291.742 120.23 291.957 120.015C292.173 119.8 292.433 119.692 292.739 119.692C293.045 119.692 293.306 119.8 293.521 120.015C293.737 120.23 293.844 120.491 293.844 120.797C293.844 121.103 293.737 121.364 293.521 121.579C293.306 121.794 293.045 121.902 292.739 121.902ZM296.628 123.67L296.356 124.826H296.424C296.73 124.418 297.138 124.078 297.648 123.806C298.158 123.534 298.713 123.398 299.314 123.398C299.778 123.398 300.181 123.466 300.521 123.602C300.861 123.727 301.138 123.902 301.354 124.129C301.569 124.356 301.728 124.622 301.83 124.928C301.932 125.223 301.983 125.54 301.983 125.88C301.983 126.016 301.971 126.169 301.949 126.339C301.937 126.498 301.909 126.707 301.864 126.968L300.963 132H299.399L300.283 127.002C300.305 126.889 300.322 126.781 300.334 126.679C300.345 126.566 300.351 126.464 300.351 126.373C300.351 125.863 300.198 125.478 299.892 125.217C299.597 124.956 299.195 124.826 298.685 124.826C298.333 124.826 298.005 124.9 297.699 125.047C297.393 125.194 297.121 125.393 296.883 125.642C296.645 125.88 296.441 126.158 296.271 126.475C296.112 126.792 296.004 127.121 295.948 127.461L295.166 132H293.602L295.744 119.828H297.308L296.628 123.67ZM307.731 123.398C308.807 123.398 309.618 123.647 310.162 124.146C310.717 124.645 310.995 125.319 310.995 126.169C310.995 126.305 310.983 126.452 310.961 126.611C310.949 126.758 310.932 126.911 310.91 127.07L310.026 132H308.53L308.734 130.844H308.666C308.394 131.241 308.02 131.581 307.544 131.864C307.068 132.136 306.535 132.272 305.946 132.272C305.538 132.272 305.158 132.21 304.807 132.085C304.455 131.972 304.149 131.802 303.889 131.575C303.639 131.348 303.441 131.082 303.294 130.776C303.146 130.459 303.073 130.102 303.073 129.705C303.073 129.229 303.175 128.798 303.379 128.413C303.594 128.028 303.883 127.705 304.246 127.444C304.608 127.172 305.033 126.962 305.521 126.815C306.019 126.668 306.558 126.594 307.136 126.594C307.6 126.594 308.008 126.645 308.36 126.747C308.722 126.838 309.068 126.957 309.397 127.104L309.465 126.747C309.487 126.656 309.499 126.543 309.499 126.407C309.499 125.92 309.323 125.529 308.972 125.234C308.62 124.939 308.156 124.792 307.578 124.792C307.136 124.792 306.739 124.877 306.388 125.047C306.048 125.217 305.713 125.5 305.385 125.897L304.161 125.03C304.557 124.497 305.062 124.095 305.674 123.823C306.297 123.54 306.983 123.398 307.731 123.398ZM306.269 130.878C306.62 130.878 306.954 130.816 307.272 130.691C307.6 130.566 307.889 130.396 308.139 130.181C308.399 129.954 308.62 129.694 308.802 129.399C308.983 129.093 309.102 128.77 309.159 128.43C309.023 128.328 308.853 128.232 308.649 128.141C308.467 128.073 308.241 128.011 307.969 127.954C307.708 127.886 307.391 127.852 307.017 127.852C306.733 127.852 306.45 127.886 306.167 127.954C305.895 128.022 305.651 128.13 305.436 128.277C305.22 128.424 305.045 128.606 304.909 128.821C304.773 129.036 304.705 129.286 304.705 129.569C304.705 129.784 304.75 129.977 304.841 130.147C304.931 130.306 305.045 130.442 305.181 130.555C305.328 130.657 305.492 130.736 305.674 130.793C305.866 130.85 306.065 130.878 306.269 130.878ZM314.153 124.826H314.221C314.504 124.418 314.889 124.078 315.377 123.806C315.864 123.534 316.419 123.398 317.043 123.398C317.859 123.398 318.51 123.63 318.998 124.095C319.496 124.56 319.746 125.183 319.746 125.965C319.746 126.135 319.734 126.328 319.712 126.543C319.7 126.758 319.672 126.979 319.627 127.206L318.777 132H317.213L318.097 127.002C318.142 126.775 318.165 126.549 318.165 126.322C318.165 125.812 318.006 125.438 317.689 125.2C317.383 124.951 316.969 124.826 316.448 124.826C316.108 124.826 315.785 124.894 315.479 125.03C315.184 125.166 314.918 125.353 314.68 125.591C314.453 125.818 314.26 126.09 314.102 126.407C313.943 126.713 313.835 127.042 313.779 127.393L312.963 132H311.399L312.861 123.67H314.357L314.153 124.826ZM323.366 124.826H323.434C323.718 124.418 324.103 124.078 324.59 123.806C325.078 123.534 325.633 123.398 326.256 123.398C327.072 123.398 327.724 123.63 328.211 124.095C328.71 124.56 328.959 125.183 328.959 125.965C328.959 126.135 328.948 126.328 328.925 126.543C328.914 126.758 328.886 126.979 328.84 127.206L327.99 132H326.426L327.31 127.002C327.356 126.775 327.378 126.549 327.378 126.322C327.378 125.812 327.22 125.438 326.902 125.2C326.596 124.951 326.183 124.826 325.661 124.826C325.321 124.826 324.998 124.894 324.692 125.03C324.398 125.166 324.131 125.353 323.893 125.591C323.667 125.818 323.474 126.09 323.315 126.407C323.157 126.713 323.049 127.042 322.992 127.393L322.176 132H320.612L322.074 123.67H323.57L323.366 124.826ZM334.741 123.398C335.818 123.398 336.628 123.647 337.172 124.146C337.728 124.645 338.005 125.319 338.005 126.169C338.005 126.305 337.994 126.452 337.971 126.611C337.96 126.758 337.943 126.911 337.92 127.07L337.036 132H335.54L335.744 130.844H335.676C335.404 131.241 335.03 131.581 334.554 131.864C334.078 132.136 333.546 132.272 332.956 132.272C332.548 132.272 332.169 132.21 331.817 132.085C331.466 131.972 331.16 131.802 330.899 131.575C330.65 131.348 330.452 131.082 330.304 130.776C330.157 130.459 330.083 130.102 330.083 129.705C330.083 129.229 330.185 128.798 330.389 128.413C330.605 128.028 330.894 127.705 331.256 127.444C331.619 127.172 332.044 126.962 332.531 126.815C333.03 126.668 333.568 126.594 334.146 126.594C334.611 126.594 335.019 126.645 335.37 126.747C335.733 126.838 336.079 126.957 336.407 127.104L336.475 126.747C336.498 126.656 336.509 126.543 336.509 126.407C336.509 125.92 336.334 125.529 335.982 125.234C335.631 124.939 335.166 124.792 334.588 124.792C334.146 124.792 333.75 124.877 333.398 125.047C333.058 125.217 332.724 125.5 332.395 125.897L331.171 125.03C331.568 124.497 332.072 124.095 332.684 123.823C333.308 123.54 333.993 123.398 334.741 123.398ZM333.279 130.878C333.631 130.878 333.965 130.816 334.282 130.691C334.611 130.566 334.9 130.396 335.149 130.181C335.41 129.954 335.631 129.694 335.812 129.399C335.994 129.093 336.113 128.77 336.169 128.43C336.033 128.328 335.863 128.232 335.659 128.141C335.478 128.073 335.251 128.011 334.979 127.954C334.719 127.886 334.401 127.852 334.027 127.852C333.744 127.852 333.461 127.886 333.177 127.954C332.905 128.022 332.662 128.13 332.446 128.277C332.231 128.424 332.055 128.606 331.919 128.821C331.783 129.036 331.715 129.286 331.715 129.569C331.715 129.784 331.761 129.977 331.851 130.147C331.942 130.306 332.055 130.442 332.191 130.555C332.339 130.657 332.503 130.736 332.684 130.793C332.877 130.85 333.075 130.878 333.279 130.878Z" fill="#C17766"/>
<path d="M52.7734 50.1309C52.3757 50.3424 52.0583 50.5286 51.8213 50.6895C51.5843 50.8503 51.3854 51.0534 51.2246 51.2988C51.0723 51.5443 50.9961 51.8405 50.9961 52.1875C51.123 52.3737 51.2712 52.5218 51.4404 52.6318C51.6182 52.7419 51.834 52.818 52.0879 52.8604C52.9766 53.0212 53.4209 53.4993 53.4209 54.2949C53.4209 54.7689 53.2559 55.1624 52.9258 55.4756C52.5957 55.7887 52.1683 55.9453 51.6436 55.9453C51.195 55.9453 50.7972 55.8353 50.4502 55.6152C50.1032 55.3952 49.8324 55.0863 49.6377 54.6885C49.4515 54.2907 49.3584 53.8379 49.3584 53.3301C49.3584 52.7122 49.4938 52.1071 49.7646 51.5146C50.0439 50.9137 50.446 50.4017 50.9707 49.9785C51.4954 49.5553 52.109 49.2803 52.8115 49.1533C53.0485 49.348 53.2008 49.585 53.2686 49.8643L52.7734 50.1309ZM58.1689 50.1309C57.7712 50.3424 57.4538 50.5286 57.2168 50.6895C56.9798 50.8503 56.7809 51.0534 56.6201 51.2988C56.4678 51.5443 56.3916 51.8405 56.3916 52.1875C56.6286 52.5514 56.9925 52.7757 57.4834 52.8604C58.3636 53.0212 58.8037 53.4993 58.8037 54.2949C58.8037 54.7689 58.6387 55.1624 58.3086 55.4756C57.987 55.7887 57.5638 55.9453 57.0391 55.9453C56.5905 55.9453 56.1927 55.8353 55.8457 55.6152C55.4987 55.3952 55.2279 55.0863 55.0332 54.6885C54.847 54.2907 54.7539 53.8379 54.7539 53.3301C54.7539 52.7122 54.8893 52.1071 55.1602 51.5146C55.4395 50.9137 55.8415 50.4017 56.3662 49.9785C56.891 49.5553 57.5046 49.2803 58.207 49.1533C58.444 49.348 58.5964 49.585 58.6641 49.8643L58.1689 50.1309ZM62.7012 60.8965C62.7858 61.0404 62.8535 61.1885 62.9043 61.3408C62.9635 61.4932 63.027 61.6921 63.0947 61.9375C63.1286 62.0221 63.1582 62.1195 63.1836 62.2295C63.4798 63.2028 64.0426 63.9518 64.8721 64.4766C65.7015 65.0013 66.6494 65.2637 67.7158 65.2637C68.2744 65.2637 68.8161 65.1663 69.3408 64.9717C69.874 64.7686 70.3099 64.4681 70.6484 64.0703C70.9954 63.6641 71.1689 63.1732 71.1689 62.5977C71.1689 62.0983 70.9912 61.6328 70.6357 61.2012C70.2887 60.7695 69.8529 60.3844 69.3281 60.0459C68.8118 59.6989 68.0967 59.2715 67.1826 58.7637C66.1077 58.1712 65.236 57.6465 64.5674 57.1895C63.8988 56.7324 63.3317 56.1908 62.8662 55.5645C62.4007 54.9297 62.168 54.2145 62.168 53.4189C62.168 52.4372 62.443 51.6289 62.9932 50.9941C63.5518 50.3509 64.2627 49.8854 65.126 49.5977C65.9977 49.3014 66.916 49.1533 67.8809 49.1533C68.7103 49.1533 69.5355 49.2549 70.3564 49.458C71.1859 49.6611 71.973 49.9531 72.7178 50.334L72.8828 53.9521H72.0957C71.9941 53.7575 71.8757 53.4486 71.7402 53.0254L71.6133 52.6572C71.3255 51.8278 70.8262 51.2015 70.1152 50.7783C69.4128 50.3467 68.6003 50.1309 67.6777 50.1309C67.2038 50.1309 66.7256 50.2113 66.2432 50.3721C65.7607 50.5329 65.3545 50.7826 65.0244 51.1211C64.7028 51.4512 64.542 51.8617 64.542 52.3525C64.542 52.8096 64.7113 53.237 65.0498 53.6348C65.3883 54.0326 65.8073 54.3965 66.3066 54.7266C66.806 55.0482 67.4958 55.4544 68.376 55.9453C69.5016 56.5716 70.4115 57.126 71.1055 57.6084C71.8079 58.0824 72.4046 58.6579 72.8955 59.335C73.3949 60.012 73.6445 60.778 73.6445 61.6328C73.6445 62.6908 73.3525 63.5752 72.7686 64.2861C72.1846 64.9886 71.4271 65.5049 70.4961 65.835C69.5736 66.165 68.5918 66.3301 67.5508 66.3301C66.6198 66.3301 65.6169 66.2158 64.542 65.9873C63.4756 65.7503 62.6123 65.4287 61.9521 65.0225V60.9219L62.7012 60.8965ZM88.2314 63.1943C88.2314 63.846 88.3965 64.3581 88.7266 64.7305C89.0651 65.0944 89.5433 65.306 90.1611 65.3652C90.1611 65.4922 90.1569 65.6191 90.1484 65.7461C90.14 65.8646 90.1357 65.9492 90.1357 66H83.8896C83.8896 65.9492 83.8854 65.8646 83.877 65.7461C83.8685 65.6191 83.8643 65.4922 83.8643 65.3652C84.0081 65.2975 84.2874 65.2002 84.7021 65.0732C85.0238 64.9717 85.2565 64.8786 85.4004 64.7939C85.5527 64.7008 85.667 64.54 85.7432 64.3115C85.8278 64.083 85.8701 63.7402 85.8701 63.2832V58.6748C85.8701 57.7438 85.6712 57.0033 85.2734 56.4531C84.8841 55.8945 84.2705 55.6152 83.4326 55.6152C82.8317 55.6152 82.2477 55.776 81.6807 56.0977C81.1221 56.4108 80.6058 56.8171 80.1318 57.3164V63.042C80.1318 63.8037 80.3053 64.3623 80.6523 64.7178C80.9993 65.0732 81.5664 65.2891 82.3535 65.3652L82.3408 66H75.5742C75.5742 65.9492 75.57 65.8646 75.5615 65.7461C75.5531 65.6191 75.5488 65.4922 75.5488 65.3652C77.0299 65.2467 77.7705 64.4723 77.7705 63.042V51.2227C77.6859 51.0957 77.4997 50.9434 77.2119 50.7656C76.9242 50.5794 76.6195 50.4144 76.2979 50.2705C75.9847 50.1266 75.752 50.0462 75.5996 50.0293V49.585L79.2305 48.6201L80.1318 48.5312V56.25C80.8005 55.5814 81.4564 55.082 82.0996 54.752C82.7428 54.4134 83.4876 54.2441 84.334 54.2441C85.5104 54.2441 86.4541 54.6208 87.165 55.374C87.876 56.1188 88.2314 57.2572 88.2314 58.7891V63.1943ZM93.792 59.3223C93.7835 59.4069 93.7793 59.5296 93.7793 59.6904C93.7793 60.7568 93.9697 61.6497 94.3506 62.3691C94.7399 63.0801 95.2562 63.609 95.8994 63.9561C96.5511 64.2946 97.279 64.4639 98.083 64.4639C99.1494 64.4639 100.178 64.1592 101.168 63.5498L101.536 63.9053C101.333 64.3962 100.99 64.8193 100.508 65.1748C100.034 65.5303 99.4922 65.8011 98.8828 65.9873C98.2819 66.165 97.6979 66.2539 97.1309 66.2539C96.0645 66.2539 95.1038 66.0042 94.249 65.5049C93.4027 65.0055 92.7383 64.3073 92.2559 63.4102C91.7819 62.513 91.5449 61.4847 91.5449 60.3252C91.5449 59.1488 91.8031 58.0993 92.3193 57.1768C92.8356 56.2458 93.5212 55.5264 94.376 55.0186C95.2393 54.5023 96.1618 54.2441 97.1436 54.2441C97.9476 54.2441 98.6712 54.4092 99.3145 54.7393C99.9661 55.0609 100.495 55.5179 100.901 56.1104C101.308 56.6943 101.566 57.3672 101.676 58.1289C101.769 58.5182 101.815 58.8779 101.815 59.208V59.3223H93.792ZM98.3623 58.5098C98.7347 58.4928 99.0479 58.4251 99.3018 58.3066C99.2425 57.2995 99.0055 56.5124 98.5908 55.9453C98.1846 55.3783 97.6048 55.0947 96.8516 55.0947C96.3014 55.0947 95.8105 55.2598 95.3789 55.5898C94.9557 55.9199 94.613 56.36 94.3506 56.9102C94.0882 57.4518 93.9189 58.0485 93.8428 58.7002L98.3623 58.5098ZM119.995 63.6133C119.817 64.1803 119.5 64.6628 119.043 65.0605C118.586 65.4583 118.049 65.7588 117.431 65.9619C116.813 66.1566 116.17 66.2539 115.501 66.2539C114.333 66.2539 113.322 65.9831 112.467 65.4414C111.62 64.8913 110.977 64.1634 110.537 63.2578C110.097 62.3522 109.877 61.3704 109.877 60.3125C109.877 59.1953 110.144 58.1755 110.677 57.2529C111.21 56.3219 111.959 55.5898 112.924 55.0566C113.889 54.515 114.985 54.2441 116.212 54.2441C116.923 54.2441 117.575 54.3499 118.167 54.5615C118.759 54.7646 119.225 55.0566 119.563 55.4375C119.91 55.8184 120.084 56.2585 120.084 56.7578C120.084 57.1387 119.961 57.418 119.716 57.5957C119.47 57.765 119.208 57.8496 118.929 57.8496C118.666 57.8496 118.463 57.8031 118.319 57.71C118.175 57.6084 118.07 57.4899 118.002 57.3545C117.943 57.2106 117.883 57.0117 117.824 56.7578C117.757 56.4362 117.672 56.1738 117.57 55.9707C117.477 55.7676 117.299 55.5898 117.037 55.4375C116.775 55.2852 116.398 55.2005 115.907 55.1836C115.256 55.1582 114.646 55.319 114.079 55.666C113.512 56.0046 113.055 56.5124 112.708 57.1895C112.369 57.8665 112.2 58.679 112.2 59.627C112.2 60.5072 112.357 61.3154 112.67 62.0518C112.983 62.7881 113.44 63.3763 114.041 63.8164C114.65 64.2565 115.378 64.4766 116.225 64.4766C116.961 64.4766 117.575 64.3877 118.065 64.21C118.556 64.0322 119.064 63.736 119.589 63.3213L119.995 63.6133ZM129.275 58.2686C129.275 57.6338 129.216 57.0964 129.098 56.6562C128.988 56.2161 128.759 55.8607 128.412 55.5898C128.074 55.319 127.587 55.1836 126.952 55.1836C126.732 55.1836 126.461 55.2301 126.14 55.3232C125.818 55.4163 125.535 55.5518 125.289 55.7295C125.052 55.8988 124.934 56.0977 124.934 56.3262C124.934 56.4193 124.951 56.5124 124.984 56.6055C125.018 56.6901 125.073 56.8001 125.149 56.9355C125.226 57.0625 125.281 57.1725 125.314 57.2656C125.348 57.3587 125.365 57.4561 125.365 57.5576C125.365 57.8962 125.255 58.1797 125.035 58.4082C124.824 58.6283 124.549 58.7383 124.21 58.7383C123.787 58.7383 123.448 58.5817 123.194 58.2686C122.949 57.9554 122.826 57.5788 122.826 57.1387C122.826 56.4785 123.084 55.9326 123.601 55.501C124.117 55.0693 124.739 54.752 125.467 54.5488C126.203 54.3457 126.889 54.2441 127.523 54.2441C128.717 54.2441 129.605 54.4219 130.189 54.7773C130.782 55.1243 131.171 55.6364 131.357 56.3135C131.552 56.9821 131.649 57.9215 131.649 59.1318L131.624 59.7666C131.616 59.9528 131.603 60.2617 131.586 60.6934C131.577 61.125 131.573 61.5228 131.573 61.8867C131.573 63.791 131.772 64.7432 132.17 64.7432C132.458 64.7432 132.83 64.4512 133.287 63.8672L133.82 64.4385C133.448 65.0479 133.08 65.5049 132.716 65.8096C132.352 66.1058 131.874 66.2539 131.281 66.2539C130.723 66.2539 130.261 66.0804 129.897 65.7334C129.542 65.3779 129.347 64.9209 129.313 64.3623C128.772 64.9548 128.162 65.4202 127.485 65.7588C126.817 66.0889 126.106 66.2539 125.353 66.2539C124.828 66.2539 124.341 66.1608 123.893 65.9746C123.452 65.7799 123.097 65.4922 122.826 65.1113C122.564 64.7305 122.433 64.2734 122.433 63.7402C122.433 62.9362 122.742 62.2676 123.359 61.7344C123.977 61.2012 124.688 60.7949 125.492 60.5156C126.296 60.2363 127.278 59.957 128.438 59.6777C128.539 59.6608 128.818 59.5931 129.275 59.4746V58.2686ZM129.275 60.2236C129.148 60.266 128.988 60.3167 128.793 60.376C128.065 60.613 127.443 60.8415 126.927 61.0615C126.41 61.2731 125.949 61.5609 125.543 61.9248C125.137 62.2887 124.934 62.7161 124.934 63.207C124.934 63.7064 125.069 64.0999 125.34 64.3877C125.619 64.6755 126.008 64.8193 126.508 64.8193C127.007 64.8193 127.49 64.6966 127.955 64.4512C128.421 64.1973 128.861 63.8672 129.275 63.4609V60.2236ZM139.038 63.1816C139.038 63.9095 139.22 64.4385 139.584 64.7686C139.956 65.0902 140.519 65.2891 141.272 65.3652C141.272 65.4922 141.268 65.6191 141.26 65.7461C141.251 65.873 141.247 65.9577 141.247 66H134.709L134.696 65.5938C134.696 65.4583 134.701 65.3652 134.709 65.3145C135.2 65.196 135.568 65.0902 135.813 64.9971C136.067 64.904 136.275 64.7516 136.436 64.54C136.596 64.3285 136.677 64.0322 136.677 63.6514V56.7705C136.575 56.5758 136.376 56.4023 136.08 56.25C135.784 56.0892 135.471 55.958 135.141 55.8564C134.819 55.7464 134.658 55.6956 134.658 55.7041L134.696 55.2725L138.162 54.4092L138.937 54.3584L139.076 56.415C139.542 55.7887 140.134 55.2725 140.854 54.8662C141.581 54.4515 142.364 54.2441 143.202 54.2441C144.429 54.2441 145.382 54.5911 146.059 55.2852C146.736 55.9792 147.104 57.016 147.163 58.3955C147.188 58.9372 147.201 59.4915 147.201 60.0586V62.8896C147.201 63.5075 147.239 63.9561 147.315 64.2354C147.392 64.5146 147.51 64.7093 147.671 64.8193C147.84 64.9209 148.119 65.0309 148.509 65.1494L149.042 65.3145C149.05 65.3652 149.055 65.4583 149.055 65.5938L149.042 66H142.783C142.783 65.9492 142.779 65.8646 142.771 65.7461C142.762 65.6191 142.758 65.4922 142.758 65.3652C142.817 65.3398 142.986 65.2891 143.266 65.2129C143.714 65.0859 144.061 64.9505 144.307 64.8066C144.561 64.6628 144.713 64.43 144.764 64.1084C144.806 63.863 144.827 63.5371 144.827 63.1309V60.2998C144.827 59.1742 144.785 58.3066 144.7 57.6973C144.624 57.0879 144.412 56.5885 144.065 56.1992C143.727 55.8099 143.177 55.6152 142.415 55.6152C141.814 55.6152 141.234 55.7887 140.676 56.1357C140.126 56.4827 139.58 56.944 139.038 57.5195V63.1816ZM157.484 51.2354C157.383 51.0661 157.154 50.8968 156.799 50.7275C156.443 50.5583 156.096 50.4144 155.758 50.2959C155.419 50.1774 155.199 50.1055 155.098 50.0801L155.123 49.6484L158.754 48.6455L159.846 48.5312V56.377C161.166 54.9551 162.575 54.2441 164.073 54.2441C165.03 54.2441 165.868 54.5277 166.587 55.0947C167.315 55.6533 167.869 56.3854 168.25 57.291C168.639 58.1966 168.834 59.1445 168.834 60.1348C168.834 61.599 168.512 62.7881 167.869 63.7021C167.234 64.6162 166.418 65.2721 165.419 65.6699C164.42 66.0592 163.341 66.2539 162.182 66.2539C161.386 66.2539 160.624 66.1693 159.896 66C159.177 65.8223 158.593 65.5853 158.145 65.2891C157.704 64.9844 157.484 64.6543 157.484 64.2988V51.2354ZM159.846 64.4258C159.846 64.6712 160.087 64.8743 160.569 65.0352C161.052 65.1875 161.632 65.2637 162.309 65.2637C163.02 65.2637 163.688 65.1156 164.314 64.8193C164.941 64.5231 165.457 64.0238 165.863 63.3213C166.27 62.6188 166.473 61.7005 166.473 60.5664C166.473 59.6439 166.333 58.8356 166.054 58.1416C165.783 57.4391 165.389 56.8932 164.873 56.5039C164.365 56.1146 163.769 55.9199 163.083 55.9199C162.474 55.9199 161.877 56.0765 161.293 56.3896C160.709 56.7028 160.227 57.0921 159.846 57.5576V64.4258ZM173.163 59.3223C173.155 59.4069 173.15 59.5296 173.15 59.6904C173.15 60.7568 173.341 61.6497 173.722 62.3691C174.111 63.0801 174.627 63.609 175.271 63.9561C175.922 64.2946 176.65 64.4639 177.454 64.4639C178.521 64.4639 179.549 64.1592 180.539 63.5498L180.907 63.9053C180.704 64.3962 180.361 64.8193 179.879 65.1748C179.405 65.5303 178.863 65.8011 178.254 65.9873C177.653 66.165 177.069 66.2539 176.502 66.2539C175.436 66.2539 174.475 66.0042 173.62 65.5049C172.774 65.0055 172.109 64.3073 171.627 63.4102C171.153 62.513 170.916 61.4847 170.916 60.3252C170.916 59.1488 171.174 58.0993 171.69 57.1768C172.207 56.2458 172.892 55.5264 173.747 55.0186C174.61 54.5023 175.533 54.2441 176.515 54.2441C177.319 54.2441 178.042 54.4092 178.686 54.7393C179.337 55.0609 179.866 55.5179 180.272 56.1104C180.679 56.6943 180.937 57.3672 181.047 58.1289C181.14 58.5182 181.187 58.8779 181.187 59.208V59.3223H173.163ZM177.733 58.5098C178.106 58.4928 178.419 58.4251 178.673 58.3066C178.614 57.2995 178.377 56.5124 177.962 55.9453C177.556 55.3783 176.976 55.0947 176.223 55.0947C175.673 55.0947 175.182 55.2598 174.75 55.5898C174.327 55.9199 173.984 56.36 173.722 56.9102C173.459 57.4518 173.29 58.0485 173.214 58.7002L177.733 58.5098ZM190.111 58.2686C190.111 57.6338 190.052 57.0964 189.934 56.6562C189.824 56.2161 189.595 55.8607 189.248 55.5898C188.91 55.319 188.423 55.1836 187.788 55.1836C187.568 55.1836 187.297 55.2301 186.976 55.3232C186.654 55.4163 186.37 55.5518 186.125 55.7295C185.888 55.8988 185.77 56.0977 185.77 56.3262C185.77 56.4193 185.786 56.5124 185.82 56.6055C185.854 56.6901 185.909 56.8001 185.985 56.9355C186.062 57.0625 186.117 57.1725 186.15 57.2656C186.184 57.3587 186.201 57.4561 186.201 57.5576C186.201 57.8962 186.091 58.1797 185.871 58.4082C185.66 58.6283 185.384 58.7383 185.046 58.7383C184.623 58.7383 184.284 58.5817 184.03 58.2686C183.785 57.9554 183.662 57.5788 183.662 57.1387C183.662 56.4785 183.92 55.9326 184.437 55.501C184.953 55.0693 185.575 54.752 186.303 54.5488C187.039 54.3457 187.725 54.2441 188.359 54.2441C189.553 54.2441 190.441 54.4219 191.025 54.7773C191.618 55.1243 192.007 55.6364 192.193 56.3135C192.388 56.9821 192.485 57.9215 192.485 59.1318L192.46 59.7666C192.451 59.9528 192.439 60.2617 192.422 60.6934C192.413 61.125 192.409 61.5228 192.409 61.8867C192.409 63.791 192.608 64.7432 193.006 64.7432C193.294 64.7432 193.666 64.4512 194.123 63.8672L194.656 64.4385C194.284 65.0479 193.916 65.5049 193.552 65.8096C193.188 66.1058 192.71 66.2539 192.117 66.2539C191.559 66.2539 191.097 66.0804 190.733 65.7334C190.378 65.3779 190.183 64.9209 190.149 64.3623C189.608 64.9548 188.998 65.4202 188.321 65.7588C187.653 66.0889 186.942 66.2539 186.188 66.2539C185.664 66.2539 185.177 66.1608 184.729 65.9746C184.288 65.7799 183.933 65.4922 183.662 65.1113C183.4 64.7305 183.269 64.2734 183.269 63.7402C183.269 62.9362 183.577 62.2676 184.195 61.7344C184.813 61.2012 185.524 60.7949 186.328 60.5156C187.132 60.2363 188.114 59.957 189.273 59.6777C189.375 59.6608 189.654 59.5931 190.111 59.4746V58.2686ZM190.111 60.2236C189.984 60.266 189.824 60.3167 189.629 60.376C188.901 60.613 188.279 60.8415 187.763 61.0615C187.246 61.2731 186.785 61.5609 186.379 61.9248C185.973 62.2887 185.77 62.7161 185.77 63.207C185.77 63.7064 185.905 64.0999 186.176 64.3877C186.455 64.6755 186.844 64.8193 187.344 64.8193C187.843 64.8193 188.326 64.6966 188.791 64.4512C189.257 64.1973 189.697 63.8672 190.111 63.4609V60.2236ZM199.646 62.0137C199.646 62.877 199.675 63.4948 199.734 63.8672C199.794 64.2311 199.938 64.4977 200.166 64.667C200.395 64.8278 200.78 64.9082 201.321 64.9082C201.643 64.9082 201.965 64.8786 202.286 64.8193C202.608 64.7601 202.879 64.6966 203.099 64.6289L203.2 65.5557C202.769 65.7673 202.333 65.9365 201.893 66.0635C201.452 66.1904 200.924 66.2539 200.306 66.2539C199.485 66.2539 198.858 66.1185 198.427 65.8477C197.995 65.5768 197.695 65.141 197.525 64.54C197.356 63.9307 197.271 63.0758 197.271 61.9756V55.5391H195.38V55.0947C195.955 54.8662 196.438 54.5996 196.827 54.2949C197.225 53.9818 197.551 53.6602 197.805 53.3301C198.059 53 198.363 52.5641 198.719 52.0225C198.871 51.777 198.99 51.6162 199.074 51.54C199.159 51.4554 199.243 51.4131 199.328 51.4131C199.413 51.4131 199.48 51.4554 199.531 51.54C199.59 51.6162 199.62 51.7389 199.62 51.9082V54.5869H202.807V55.5391H199.646V62.0137ZM214.728 63.0166C214.728 63.6598 214.829 64.1423 215.032 64.4639C215.235 64.777 215.468 64.9801 215.73 65.0732C215.993 65.1663 216.403 65.2637 216.962 65.3652C216.962 65.4922 216.958 65.6191 216.949 65.7461C216.941 65.873 216.937 65.9577 216.937 66H210.386V65.3271C210.403 65.3187 210.521 65.2848 210.741 65.2256C211.164 65.124 211.511 65.0055 211.782 64.8701C212.053 64.7262 212.218 64.5104 212.277 64.2227C212.32 64.0788 212.345 63.9349 212.354 63.791C212.362 63.6387 212.366 63.4355 212.366 63.1816V56.7832C212.265 56.5801 212.062 56.4023 211.757 56.25C211.461 56.0892 211.152 55.958 210.83 55.8564C210.508 55.7464 210.348 55.6956 210.348 55.7041L210.386 55.2725L213.877 54.4092L214.626 54.3584L214.766 56.4277C215.265 55.776 215.853 55.2513 216.53 54.8535C217.207 54.4473 217.965 54.2441 218.803 54.2441C219.632 54.2441 220.318 54.4134 220.859 54.752C221.401 55.0905 221.816 55.6025 222.104 56.2881C222.51 55.8395 222.895 55.4756 223.259 55.1963C223.623 54.9085 224.029 54.6842 224.478 54.5234C224.926 54.3542 225.434 54.2695 226.001 54.2695C227.11 54.2695 227.998 54.5319 228.667 55.0566C229.344 55.5729 229.729 56.36 229.822 57.418C229.89 58.2135 229.924 59.0133 229.924 59.8174V63.1436C229.924 63.5667 229.953 63.9264 230.013 64.2227C230.055 64.4681 230.161 64.6628 230.33 64.8066C230.508 64.9505 230.681 65.0521 230.851 65.1113C231.02 65.1621 231.316 65.2467 231.739 65.3652C231.739 65.4922 231.735 65.6191 231.727 65.7461C231.718 65.8646 231.714 65.9492 231.714 66H225.607C225.607 65.9492 225.603 65.8646 225.595 65.7461C225.586 65.6191 225.582 65.4922 225.582 65.3652C225.624 65.3568 225.671 65.3441 225.722 65.3271C225.781 65.3102 225.84 65.2933 225.899 65.2764C226.34 65.1579 226.691 65.0309 226.953 64.8955C227.215 64.7516 227.381 64.5358 227.448 64.248C227.516 63.9095 227.55 63.5413 227.55 63.1436V58.1035C227.55 57.3079 227.347 56.6943 226.94 56.2627C226.534 55.8226 225.954 55.6025 225.201 55.6025C224.676 55.6025 224.156 55.7591 223.64 56.0723C223.123 56.377 222.666 56.7493 222.269 57.1895C222.319 57.7734 222.345 58.7129 222.345 60.0078V63.0801C222.345 63.5625 222.37 63.9349 222.421 64.1973C222.472 64.502 222.628 64.7262 222.891 64.8701C223.161 65.014 223.517 65.1452 223.957 65.2637C224.194 65.3398 224.308 65.3737 224.3 65.3652C224.3 65.4922 224.296 65.6191 224.287 65.7461C224.279 65.873 224.274 65.9577 224.274 66H217.927C217.927 65.9492 217.923 65.8646 217.914 65.7461C217.906 65.6191 217.901 65.4922 217.901 65.3652C217.935 65.3568 218.138 65.3187 218.511 65.251C218.892 65.1748 219.23 64.9505 219.526 64.5781C219.823 64.1973 219.971 63.7021 219.971 63.0928V58.6748C219.971 57.6846 219.814 56.9271 219.501 56.4023C219.188 55.8776 218.642 55.6152 217.863 55.6152C217.254 55.6152 216.7 55.776 216.2 56.0977C215.709 56.4108 215.218 56.8424 214.728 57.3926V63.0166ZM235.37 59.3223C235.362 59.4069 235.357 59.5296 235.357 59.6904C235.357 60.7568 235.548 61.6497 235.929 62.3691C236.318 63.0801 236.834 63.609 237.478 63.9561C238.129 64.2946 238.857 64.4639 239.661 64.4639C240.728 64.4639 241.756 64.1592 242.746 63.5498L243.114 63.9053C242.911 64.3962 242.568 64.8193 242.086 65.1748C241.612 65.5303 241.07 65.8011 240.461 65.9873C239.86 66.165 239.276 66.2539 238.709 66.2539C237.643 66.2539 236.682 66.0042 235.827 65.5049C234.981 65.0055 234.316 64.3073 233.834 63.4102C233.36 62.513 233.123 61.4847 233.123 60.3252C233.123 59.1488 233.381 58.0993 233.897 57.1768C234.414 56.2458 235.099 55.5264 235.954 55.0186C236.817 54.5023 237.74 54.2441 238.722 54.2441C239.526 54.2441 240.249 54.4092 240.893 54.7393C241.544 55.0609 242.073 55.5179 242.479 56.1104C242.886 56.6943 243.144 57.3672 243.254 58.1289C243.347 58.5182 243.394 58.8779 243.394 59.208V59.3223H235.37ZM239.94 58.5098C240.313 58.4928 240.626 58.4251 240.88 58.3066C240.821 57.2995 240.584 56.5124 240.169 55.9453C239.763 55.3783 239.183 55.0947 238.43 55.0947C237.88 55.0947 237.389 55.2598 236.957 55.5898C236.534 55.9199 236.191 56.36 235.929 56.9102C235.666 57.4518 235.497 58.0485 235.421 58.7002L239.94 58.5098ZM245.564 68.6406C245.658 68.6068 245.797 68.5645 245.983 68.5137C246.525 68.3444 246.948 68.1878 247.253 68.0439C247.558 67.9001 247.816 67.6885 248.027 67.4092C248.247 67.1299 248.357 66.7575 248.357 66.292C248.239 66.0042 248.074 65.7799 247.862 65.6191C247.659 65.4583 247.393 65.3483 247.062 65.2891C246.665 65.2298 246.356 65.069 246.136 64.8066C245.924 64.5358 245.818 64.1973 245.818 63.791C245.818 63.2917 245.979 62.877 246.301 62.5469C246.631 62.2168 247.062 62.0518 247.596 62.0518C248.053 62.0518 248.467 62.1829 248.84 62.4453C249.212 62.7077 249.504 63.097 249.716 63.6133C249.936 64.1211 250.046 64.7262 250.046 65.4287C250.046 66.2666 249.851 66.9818 249.462 67.5742C249.081 68.1667 248.569 68.6152 247.926 68.9199C247.283 69.2246 246.572 69.3854 245.793 69.4023C245.717 69.2839 245.658 69.1654 245.615 69.0469C245.581 68.9368 245.564 68.8014 245.564 68.6406ZM259.58 51.2354C259.479 51.0661 259.25 50.8968 258.895 50.7275C258.539 50.5583 258.192 50.4144 257.854 50.2959C257.515 50.1774 257.295 50.1055 257.193 50.0801L257.219 49.6484L260.85 48.6455L261.941 48.5312V56.377C263.262 54.9551 264.671 54.2441 266.169 54.2441C267.125 54.2441 267.963 54.5277 268.683 55.0947C269.41 55.6533 269.965 56.3854 270.346 57.291C270.735 58.1966 270.93 59.1445 270.93 60.1348C270.93 61.599 270.608 62.7881 269.965 63.7021C269.33 64.6162 268.513 65.2721 267.515 65.6699C266.516 66.0592 265.437 66.2539 264.277 66.2539C263.482 66.2539 262.72 66.1693 261.992 66C261.273 65.8223 260.689 65.5853 260.24 65.2891C259.8 64.9844 259.58 64.6543 259.58 64.2988V51.2354ZM261.941 64.4258C261.941 64.6712 262.183 64.8743 262.665 65.0352C263.147 65.1875 263.727 65.2637 264.404 65.2637C265.115 65.2637 265.784 65.1156 266.41 64.8193C267.036 64.5231 267.553 64.0238 267.959 63.3213C268.365 62.6188 268.568 61.7005 268.568 60.5664C268.568 59.6439 268.429 58.8356 268.149 58.1416C267.879 57.4391 267.485 56.8932 266.969 56.5039C266.461 56.1146 265.864 55.9199 265.179 55.9199C264.569 55.9199 263.973 56.0765 263.389 56.3896C262.805 56.7028 262.322 57.0921 261.941 57.5576V64.4258ZM277.887 66.2539C276.863 66.2539 276.071 66 275.513 65.4922C274.963 64.9759 274.59 64.3073 274.396 63.4863C274.201 62.6654 274.104 61.6878 274.104 60.5537V56.7705C273.993 56.5758 273.786 56.4023 273.481 56.25C273.185 56.0892 272.876 55.958 272.555 55.8564C272.242 55.7464 272.085 55.6956 272.085 55.7041L272.11 55.2598L275.678 54.3965L276.465 54.3457V60.4141C276.465 61.4974 276.533 62.3522 276.668 62.9785C276.803 63.5964 277.032 64.0492 277.354 64.3369C277.675 64.6162 278.124 64.7559 278.699 64.7559C279.876 64.7559 280.984 64.2396 282.025 63.207V56.7705C281.915 56.5758 281.708 56.4023 281.403 56.25C281.107 56.0892 280.798 55.958 280.477 55.8564C280.163 55.7464 280.007 55.6956 280.007 55.7041L280.032 55.2598L283.6 54.3965L284.387 54.3457V63.4482C284.387 63.8037 284.476 64.0788 284.653 64.2734C284.831 64.4596 285.051 64.5951 285.313 64.6797C285.576 64.7643 285.936 64.8447 286.393 64.9209C286.393 65.0479 286.384 65.179 286.367 65.3145C286.359 65.4499 286.354 65.543 286.354 65.5938L282.19 66.1904L282.089 64.1592C280.836 65.5557 279.436 66.2539 277.887 66.2539ZM291.458 62.0137C291.458 62.877 291.488 63.4948 291.547 63.8672C291.606 64.2311 291.75 64.4977 291.979 64.667C292.207 64.8278 292.592 64.9082 293.134 64.9082C293.455 64.9082 293.777 64.8786 294.099 64.8193C294.42 64.7601 294.691 64.6966 294.911 64.6289L295.013 65.5557C294.581 65.7673 294.145 65.9365 293.705 66.0635C293.265 66.1904 292.736 66.2539 292.118 66.2539C291.297 66.2539 290.671 66.1185 290.239 65.8477C289.808 65.5768 289.507 65.141 289.338 64.54C289.169 63.9307 289.084 63.0758 289.084 61.9756V55.5391H287.192V55.0947C287.768 54.8662 288.25 54.5996 288.64 54.2949C289.037 53.9818 289.363 53.6602 289.617 53.3301C289.871 53 290.176 52.5641 290.531 52.0225C290.684 51.777 290.802 51.6162 290.887 51.54C290.971 51.4554 291.056 51.4131 291.141 51.4131C291.225 51.4131 291.293 51.4554 291.344 51.54C291.403 51.6162 291.433 51.7389 291.433 51.9082V54.5869H294.619V55.5391H291.458V62.0137ZM310.349 57.9893C310.23 57.9977 310.031 58.002 309.752 58.002C309.507 57.1471 309.134 56.4489 308.635 55.9072C308.144 55.3656 307.513 55.0947 306.743 55.0947C306.21 55.0947 305.787 55.2259 305.474 55.4883C305.169 55.7507 305.017 56.1315 305.017 56.6309C305.017 56.9779 305.144 57.2995 305.397 57.5957C305.651 57.8919 305.96 58.1543 306.324 58.3828C306.697 58.6029 307.183 58.8652 307.784 59.1699C307.928 59.2376 308.144 59.3477 308.432 59.5C309.38 60.0078 310.069 60.5283 310.501 61.0615C310.941 61.5863 311.161 62.2295 311.161 62.9912C311.161 63.6937 310.988 64.2904 310.641 64.7812C310.294 65.2637 309.815 65.6318 309.206 65.8857C308.597 66.1312 307.898 66.2539 307.111 66.2539C306.417 66.2539 305.715 66.1693 305.004 66C304.293 65.8392 303.709 65.6191 303.252 65.3398V62.2422C303.582 62.1999 303.806 62.1787 303.925 62.1787C304.119 63.1182 304.462 63.8841 304.953 64.4766C305.452 65.069 306.134 65.3652 306.997 65.3652C307.615 65.3652 308.127 65.2129 308.533 64.9082C308.948 64.5951 309.155 64.1846 309.155 63.6768C309.155 63.3551 309.062 63.0716 308.876 62.8262C308.69 62.5807 308.449 62.3649 308.152 62.1787C307.856 61.9925 307.412 61.7428 306.819 61.4297C306.024 61.0065 305.419 60.6637 305.004 60.4014C304.361 60.0036 303.874 59.5592 303.544 59.0684C303.222 58.5775 303.062 57.9935 303.062 57.3164C303.062 56.6647 303.227 56.1104 303.557 55.6533C303.887 55.1878 304.335 54.8366 304.902 54.5996C305.469 54.3626 306.108 54.2441 306.819 54.2441C307.471 54.2441 308.089 54.3245 308.673 54.4854C309.265 54.6462 309.799 54.8747 310.272 55.1709L310.349 57.9893ZM325.608 63.1943C325.608 63.846 325.773 64.3581 326.104 64.7305C326.442 65.0944 326.92 65.306 327.538 65.3652C327.538 65.4922 327.534 65.6191 327.525 65.7461C327.517 65.8646 327.513 65.9492 327.513 66H321.267C321.267 65.9492 321.262 65.8646 321.254 65.7461C321.245 65.6191 321.241 65.4922 321.241 65.3652C321.385 65.2975 321.664 65.2002 322.079 65.0732C322.401 64.9717 322.633 64.8786 322.777 64.7939C322.93 64.7008 323.044 64.54 323.12 64.3115C323.205 64.083 323.247 63.7402 323.247 63.2832V58.6748C323.247 57.7438 323.048 57.0033 322.65 56.4531C322.261 55.8945 321.647 55.6152 320.81 55.6152C320.209 55.6152 319.625 55.776 319.058 56.0977C318.499 56.4108 317.983 56.8171 317.509 57.3164V63.042C317.509 63.8037 317.682 64.3623 318.029 64.7178C318.376 65.0732 318.943 65.2891 319.73 65.3652L319.718 66H312.951C312.951 65.9492 312.947 65.8646 312.938 65.7461C312.93 65.6191 312.926 65.4922 312.926 65.3652C314.407 65.2467 315.147 64.4723 315.147 63.042V51.2227C315.063 51.0957 314.877 50.9434 314.589 50.7656C314.301 50.5794 313.996 50.4144 313.675 50.2705C313.362 50.1266 313.129 50.0462 312.977 50.0293V49.585L316.607 48.6201L317.509 48.5312V56.25C318.177 55.5814 318.833 55.082 319.477 54.752C320.12 54.4134 320.865 54.2441 321.711 54.2441C322.887 54.2441 323.831 54.6208 324.542 55.374C325.253 56.1188 325.608 57.2572 325.608 58.7891V63.1943ZM331.169 59.3223C331.16 59.4069 331.156 59.5296 331.156 59.6904C331.156 60.7568 331.347 61.6497 331.728 62.3691C332.117 63.0801 332.633 63.609 333.276 63.9561C333.928 64.2946 334.656 64.4639 335.46 64.4639C336.526 64.4639 337.555 64.1592 338.545 63.5498L338.913 63.9053C338.71 64.3962 338.367 64.8193 337.885 65.1748C337.411 65.5303 336.869 65.8011 336.26 65.9873C335.659 66.165 335.075 66.2539 334.508 66.2539C333.441 66.2539 332.481 66.0042 331.626 65.5049C330.78 65.0055 330.115 64.3073 329.633 63.4102C329.159 62.513 328.922 61.4847 328.922 60.3252C328.922 59.1488 329.18 58.0993 329.696 57.1768C330.213 56.2458 330.898 55.5264 331.753 55.0186C332.616 54.5023 333.539 54.2441 334.521 54.2441C335.325 54.2441 336.048 54.4092 336.691 54.7393C337.343 55.0609 337.872 55.5179 338.278 56.1104C338.685 56.6943 338.943 57.3672 339.053 58.1289C339.146 58.5182 339.192 58.8779 339.192 59.208V59.3223H331.169ZM335.739 58.5098C336.112 58.4928 336.425 58.4251 336.679 58.3066C336.619 57.2995 336.382 56.5124 335.968 55.9453C335.562 55.3783 334.982 55.0947 334.229 55.0947C333.678 55.0947 333.188 55.2598 332.756 55.5898C332.333 55.9199 331.99 56.36 331.728 56.9102C331.465 57.4518 331.296 58.0485 331.22 58.7002L335.739 58.5098ZM59.1592 96.6133C58.9814 97.1803 58.6641 97.6628 58.207 98.0605C57.75 98.4583 57.2126 98.7588 56.5947 98.9619C55.9769 99.1566 55.3337 99.2539 54.665 99.2539C53.4971 99.2539 52.4857 98.9831 51.6309 98.4414C50.7845 97.8913 50.1413 97.1634 49.7012 96.2578C49.2611 95.3522 49.041 94.3704 49.041 93.3125C49.041 92.1953 49.3076 91.1755 49.8408 90.2529C50.374 89.3219 51.123 88.5898 52.0879 88.0566C53.0527 87.515 54.1488 87.2441 55.376 87.2441C56.0869 87.2441 56.7386 87.3499 57.3311 87.5615C57.9235 87.7646 58.389 88.0566 58.7275 88.4375C59.0745 88.8184 59.248 89.2585 59.248 89.7578C59.248 90.1387 59.1253 90.418 58.8799 90.5957C58.6344 90.765 58.3721 90.8496 58.0928 90.8496C57.8304 90.8496 57.6273 90.8031 57.4834 90.71C57.3395 90.6084 57.2337 90.4899 57.166 90.3545C57.1068 90.2106 57.0475 90.0117 56.9883 89.7578C56.9206 89.4362 56.8359 89.1738 56.7344 88.9707C56.6413 88.7676 56.4635 88.5898 56.2012 88.4375C55.9388 88.2852 55.5622 88.2005 55.0713 88.1836C54.4196 88.1582 53.8102 88.319 53.2432 88.666C52.6761 89.0046 52.2191 89.5124 51.8721 90.1895C51.5335 90.8665 51.3643 91.679 51.3643 92.627C51.3643 93.5072 51.5208 94.3154 51.834 95.0518C52.1471 95.7881 52.6042 96.3763 53.2051 96.8164C53.8145 97.2565 54.5423 97.4766 55.3887 97.4766C56.125 97.4766 56.7386 97.3877 57.2295 97.21C57.7204 97.0322 58.2282 96.736 58.7529 96.3213L59.1592 96.6133ZM68.4395 91.2686C68.4395 90.6338 68.3802 90.0964 68.2617 89.6562C68.1517 89.2161 67.9232 88.8607 67.5762 88.5898C67.2376 88.319 66.751 88.1836 66.1162 88.1836C65.8962 88.1836 65.6253 88.2301 65.3037 88.3232C64.9821 88.4163 64.6986 88.5518 64.4531 88.7295C64.2161 88.8988 64.0977 89.0977 64.0977 89.3262C64.0977 89.4193 64.1146 89.5124 64.1484 89.6055C64.1823 89.6901 64.2373 89.8001 64.3135 89.9355C64.3896 90.0625 64.4447 90.1725 64.4785 90.2656C64.5124 90.3587 64.5293 90.4561 64.5293 90.5576C64.5293 90.8962 64.4193 91.1797 64.1992 91.4082C63.9876 91.6283 63.7126 91.7383 63.374 91.7383C62.9508 91.7383 62.6123 91.5817 62.3584 91.2686C62.113 90.9554 61.9902 90.5788 61.9902 90.1387C61.9902 89.4785 62.2484 88.9326 62.7646 88.501C63.2809 88.0693 63.903 87.752 64.6309 87.5488C65.3672 87.3457 66.0527 87.2441 66.6875 87.2441C67.8809 87.2441 68.7695 87.4219 69.3535 87.7773C69.946 88.1243 70.3353 88.6364 70.5215 89.3135C70.7161 89.9821 70.8135 90.9215 70.8135 92.1318L70.7881 92.7666C70.7796 92.9528 70.7669 93.2617 70.75 93.6934C70.7415 94.125 70.7373 94.5228 70.7373 94.8867C70.7373 96.791 70.9362 97.7432 71.334 97.7432C71.6217 97.7432 71.9941 97.4512 72.4512 96.8672L72.9844 97.4385C72.612 98.0479 72.2438 98.5049 71.8799 98.8096C71.516 99.1058 71.0378 99.2539 70.4453 99.2539C69.8867 99.2539 69.4255 99.0804 69.0615 98.7334C68.7061 98.3779 68.5114 97.9209 68.4775 97.3623C67.9359 97.9548 67.3265 98.4202 66.6494 98.7588C65.9808 99.0889 65.2699 99.2539 64.5166 99.2539C63.9919 99.2539 63.5052 99.1608 63.0566 98.9746C62.6165 98.7799 62.2611 98.4922 61.9902 98.1113C61.7279 97.7305 61.5967 97.2734 61.5967 96.7402C61.5967 95.9362 61.9056 95.2676 62.5234 94.7344C63.1413 94.2012 63.8522 93.7949 64.6562 93.5156C65.4603 93.2363 66.4421 92.957 67.6016 92.6777C67.7031 92.6608 67.9824 92.5931 68.4395 92.4746V91.2686ZM68.4395 93.2236C68.3125 93.266 68.1517 93.3167 67.957 93.376C67.2292 93.613 66.6071 93.8415 66.0908 94.0615C65.5745 94.2731 65.1133 94.5609 64.707 94.9248C64.3008 95.2887 64.0977 95.7161 64.0977 96.207C64.0977 96.7064 64.2331 97.0999 64.5039 97.3877C64.7832 97.6755 65.1725 97.8193 65.6719 97.8193C66.1712 97.8193 66.6536 97.6966 67.1191 97.4512C67.5846 97.1973 68.0247 96.8672 68.4395 96.4609V93.2236ZM78.2021 96.1816C78.2021 96.9095 78.3841 97.4385 78.748 97.7686C79.1204 98.0902 79.6833 98.2891 80.4365 98.3652C80.4365 98.4922 80.4323 98.6191 80.4238 98.7461C80.4154 98.873 80.4111 98.9577 80.4111 99H73.873L73.8604 98.5938C73.8604 98.4583 73.8646 98.3652 73.873 98.3145C74.3639 98.196 74.7321 98.0902 74.9775 97.9971C75.2314 97.904 75.4388 97.7516 75.5996 97.54C75.7604 97.3285 75.8408 97.0322 75.8408 96.6514V89.7705C75.7393 89.5758 75.5404 89.4023 75.2441 89.25C74.9479 89.0892 74.6348 88.958 74.3047 88.8564C73.9831 88.7464 73.8223 88.6956 73.8223 88.7041L73.8604 88.2725L77.3262 87.4092L78.1006 87.3584L78.2402 89.415C78.7057 88.7887 79.2982 88.2725 80.0176 87.8662C80.7454 87.4515 81.5283 87.2441 82.3662 87.2441C83.5934 87.2441 84.5456 87.5911 85.2227 88.2852C85.8997 88.9792 86.2679 90.016 86.3271 91.3955C86.3525 91.9372 86.3652 92.4915 86.3652 93.0586V95.8896C86.3652 96.5075 86.4033 96.9561 86.4795 97.2354C86.5557 97.5146 86.6742 97.7093 86.835 97.8193C87.0042 97.9209 87.2835 98.0309 87.6729 98.1494L88.2061 98.3145C88.2145 98.3652 88.2188 98.4583 88.2188 98.5938L88.2061 99H81.9473C81.9473 98.9492 81.943 98.8646 81.9346 98.7461C81.9261 98.6191 81.9219 98.4922 81.9219 98.3652C81.9811 98.3398 82.1504 98.2891 82.4297 98.2129C82.8783 98.0859 83.2253 97.9505 83.4707 97.8066C83.7246 97.6628 83.877 97.43 83.9277 97.1084C83.9701 96.863 83.9912 96.5371 83.9912 96.1309V93.2998C83.9912 92.1742 83.9489 91.3066 83.8643 90.6973C83.7881 90.0879 83.5765 89.5885 83.2295 89.1992C82.891 88.8099 82.3408 88.6152 81.5791 88.6152C80.9782 88.6152 80.3984 88.7887 79.8398 89.1357C79.2897 89.4827 78.7438 89.944 78.2021 90.5195V96.1816ZM93.4365 96.1816C93.4365 96.9095 93.6185 97.4385 93.9824 97.7686C94.3548 98.0902 94.9176 98.2891 95.6709 98.3652C95.6709 98.4922 95.6667 98.6191 95.6582 98.7461C95.6497 98.873 95.6455 98.9577 95.6455 99H89.1074L89.0947 98.5938C89.0947 98.4583 89.099 98.3652 89.1074 98.3145C89.5983 98.196 89.9665 98.0902 90.2119 97.9971C90.4658 97.904 90.6732 97.7516 90.834 97.54C90.9948 97.3285 91.0752 97.0322 91.0752 96.6514V89.7705C90.9736 89.5758 90.7747 89.4023 90.4785 89.25C90.1823 89.0892 89.8691 88.958 89.5391 88.8564C89.2174 88.7464 89.0566 88.6956 89.0566 88.7041L89.0947 88.2725L92.5605 87.4092L93.335 87.3584L93.4746 89.415C93.9401 88.7887 94.5326 88.2725 95.252 87.8662C95.9798 87.4515 96.7627 87.2441 97.6006 87.2441C98.8278 87.2441 99.7799 87.5911 100.457 88.2852C101.134 88.9792 101.502 90.016 101.562 91.3955C101.587 91.9372 101.6 92.4915 101.6 93.0586V95.8896C101.6 96.5075 101.638 96.9561 101.714 97.2354C101.79 97.5146 101.909 97.7093 102.069 97.8193C102.239 97.9209 102.518 98.0309 102.907 98.1494L103.44 98.3145C103.449 98.3652 103.453 98.4583 103.453 98.5938L103.44 99H97.1816C97.1816 98.9492 97.1774 98.8646 97.1689 98.7461C97.1605 98.6191 97.1562 98.4922 97.1562 98.3652C97.2155 98.3398 97.3848 98.2891 97.6641 98.2129C98.1126 98.0859 98.4596 97.9505 98.7051 97.8066C98.959 97.6628 99.1113 97.43 99.1621 97.1084C99.2044 96.863 99.2256 96.5371 99.2256 96.1309V93.2998C99.2256 92.1742 99.1833 91.3066 99.0986 90.6973C99.0225 90.0879 98.8109 89.5885 98.4639 89.1992C98.1253 88.8099 97.5752 88.6152 96.8135 88.6152C96.2126 88.6152 95.6328 88.7887 95.0742 89.1357C94.5241 89.4827 93.9782 89.944 93.4365 90.5195V96.1816ZM110.753 87.2441C111.879 87.2441 112.903 87.4896 113.825 87.9805C114.756 88.4629 115.493 89.1569 116.034 90.0625C116.576 90.9596 116.847 92.0049 116.847 93.1982C116.847 94.3916 116.576 95.4495 116.034 96.3721C115.493 97.2861 114.769 97.9971 113.863 98.5049C112.958 99.0042 111.967 99.2539 110.893 99.2539C109.826 99.2539 108.827 98.9958 107.896 98.4795C106.965 97.9632 106.221 97.248 105.662 96.334C105.104 95.4115 104.824 94.3704 104.824 93.2109C104.824 92.0514 105.095 91.0189 105.637 90.1133C106.178 89.1992 106.902 88.4925 107.808 87.9932C108.722 87.4938 109.703 87.2441 110.753 87.2441ZM111.058 98.2637C112.132 98.2637 112.949 97.8786 113.508 97.1084C114.066 96.3382 114.346 95.3268 114.346 94.0742C114.346 92.9909 114.193 91.9964 113.889 91.0908C113.592 90.1768 113.165 89.4489 112.606 88.9072C112.048 88.3656 111.405 88.0947 110.677 88.0947C110.034 88.0947 109.462 88.2513 108.963 88.5645C108.472 88.8776 108.083 89.36 107.795 90.0117C107.507 90.6634 107.363 91.4801 107.363 92.4619C107.363 93.4268 107.516 94.3577 107.82 95.2549C108.125 96.1436 108.557 96.8672 109.115 97.4258C109.674 97.9844 110.321 98.2637 111.058 98.2637ZM122.56 95.0137C122.56 95.877 122.589 96.4948 122.648 96.8672C122.708 97.2311 122.852 97.4977 123.08 97.667C123.309 97.8278 123.694 97.9082 124.235 97.9082C124.557 97.9082 124.879 97.8786 125.2 97.8193C125.522 97.7601 125.793 97.6966 126.013 97.6289L126.114 98.5557C125.683 98.7673 125.247 98.9365 124.807 99.0635C124.367 99.1904 123.838 99.2539 123.22 99.2539C122.399 99.2539 121.772 99.1185 121.341 98.8477C120.909 98.5768 120.609 98.141 120.439 97.54C120.27 96.9307 120.186 96.0758 120.186 94.9756V88.5391H118.294V88.0947C118.869 87.8662 119.352 87.5996 119.741 87.2949C120.139 86.9818 120.465 86.6602 120.719 86.3301C120.973 86 121.277 85.5641 121.633 85.0225C121.785 84.777 121.904 84.6162 121.988 84.54C122.073 84.4554 122.158 84.4131 122.242 84.4131C122.327 84.4131 122.395 84.4554 122.445 84.54C122.505 84.6162 122.534 84.7389 122.534 84.9082V87.5869H125.721V88.5391H122.56V95.0137ZM134.684 84.2354C134.582 84.0661 134.354 83.8968 133.998 83.7275C133.643 83.5583 133.296 83.4144 132.957 83.2959C132.618 83.1774 132.398 83.1055 132.297 83.0801L132.322 82.6484L135.953 81.6455L137.045 81.5312V89.377C138.365 87.9551 139.774 87.2441 141.272 87.2441C142.229 87.2441 143.067 87.5277 143.786 88.0947C144.514 88.6533 145.068 89.3854 145.449 90.291C145.839 91.1966 146.033 92.1445 146.033 93.1348C146.033 94.599 145.712 95.7881 145.068 96.7021C144.434 97.6162 143.617 98.2721 142.618 98.6699C141.619 99.0592 140.54 99.2539 139.381 99.2539C138.585 99.2539 137.824 99.1693 137.096 99C136.376 98.8223 135.792 98.5853 135.344 98.2891C134.904 97.9844 134.684 97.6543 134.684 97.2988V84.2354ZM137.045 97.4258C137.045 97.6712 137.286 97.8743 137.769 98.0352C138.251 98.1875 138.831 98.2637 139.508 98.2637C140.219 98.2637 140.887 98.1156 141.514 97.8193C142.14 97.5231 142.656 97.0238 143.062 96.3213C143.469 95.6188 143.672 94.7005 143.672 93.5664C143.672 92.6439 143.532 91.8356 143.253 91.1416C142.982 90.4391 142.589 89.8932 142.072 89.5039C141.564 89.1146 140.968 88.9199 140.282 88.9199C139.673 88.9199 139.076 89.0765 138.492 89.3896C137.908 89.7028 137.426 90.0921 137.045 90.5576V97.4258ZM150.362 92.3223C150.354 92.4069 150.35 92.5296 150.35 92.6904C150.35 93.7568 150.54 94.6497 150.921 95.3691C151.31 96.0801 151.826 96.609 152.47 96.9561C153.121 97.2946 153.849 97.4639 154.653 97.4639C155.72 97.4639 156.748 97.1592 157.738 96.5498L158.106 96.9053C157.903 97.3962 157.561 97.8193 157.078 98.1748C156.604 98.5303 156.062 98.8011 155.453 98.9873C154.852 99.165 154.268 99.2539 153.701 99.2539C152.635 99.2539 151.674 99.0042 150.819 98.5049C149.973 98.0055 149.309 97.3073 148.826 96.4102C148.352 95.513 148.115 94.4847 148.115 93.3252C148.115 92.1488 148.373 91.0993 148.89 90.1768C149.406 89.2458 150.091 88.5264 150.946 88.0186C151.81 87.5023 152.732 87.2441 153.714 87.2441C154.518 87.2441 155.242 87.4092 155.885 87.7393C156.536 88.0609 157.065 88.5179 157.472 89.1104C157.878 89.6943 158.136 90.3672 158.246 91.1289C158.339 91.5182 158.386 91.8779 158.386 92.208V92.3223H150.362ZM154.933 91.5098C155.305 91.4928 155.618 91.4251 155.872 91.3066C155.813 90.2995 155.576 89.5124 155.161 88.9453C154.755 88.3783 154.175 88.0947 153.422 88.0947C152.872 88.0947 152.381 88.2598 151.949 88.5898C151.526 88.9199 151.183 89.36 150.921 89.9102C150.659 90.4518 150.489 91.0485 150.413 91.7002L154.933 91.5098ZM167.311 91.2686C167.311 90.6338 167.251 90.0964 167.133 89.6562C167.023 89.2161 166.794 88.8607 166.447 88.5898C166.109 88.319 165.622 88.1836 164.987 88.1836C164.767 88.1836 164.496 88.2301 164.175 88.3232C163.853 88.4163 163.57 88.5518 163.324 88.7295C163.087 88.8988 162.969 89.0977 162.969 89.3262C162.969 89.4193 162.986 89.5124 163.02 89.6055C163.053 89.6901 163.108 89.8001 163.185 89.9355C163.261 90.0625 163.316 90.1725 163.35 90.2656C163.383 90.3587 163.4 90.4561 163.4 90.5576C163.4 90.8962 163.29 91.1797 163.07 91.4082C162.859 91.6283 162.584 91.7383 162.245 91.7383C161.822 91.7383 161.483 91.5817 161.229 91.2686C160.984 90.9554 160.861 90.5788 160.861 90.1387C160.861 89.4785 161.119 88.9326 161.636 88.501C162.152 88.0693 162.774 87.752 163.502 87.5488C164.238 87.3457 164.924 87.2441 165.559 87.2441C166.752 87.2441 167.641 87.4219 168.225 87.7773C168.817 88.1243 169.206 88.6364 169.393 89.3135C169.587 89.9821 169.685 90.9215 169.685 92.1318L169.659 92.7666C169.651 92.9528 169.638 93.2617 169.621 93.6934C169.613 94.125 169.608 94.5228 169.608 94.8867C169.608 96.791 169.807 97.7432 170.205 97.7432C170.493 97.7432 170.865 97.4512 171.322 96.8672L171.855 97.4385C171.483 98.0479 171.115 98.5049 170.751 98.8096C170.387 99.1058 169.909 99.2539 169.316 99.2539C168.758 99.2539 168.297 99.0804 167.933 98.7334C167.577 98.3779 167.382 97.9209 167.349 97.3623C166.807 97.9548 166.198 98.4202 165.521 98.7588C164.852 99.0889 164.141 99.2539 163.388 99.2539C162.863 99.2539 162.376 99.1608 161.928 98.9746C161.488 98.7799 161.132 98.4922 160.861 98.1113C160.599 97.7305 160.468 97.2734 160.468 96.7402C160.468 95.9362 160.777 95.2676 161.395 94.7344C162.012 94.2012 162.723 93.7949 163.527 93.5156C164.331 93.2363 165.313 92.957 166.473 92.6777C166.574 92.6608 166.854 92.5931 167.311 92.4746V91.2686ZM167.311 93.2236C167.184 93.266 167.023 93.3167 166.828 93.376C166.1 93.613 165.478 93.8415 164.962 94.0615C164.446 94.2731 163.984 94.5609 163.578 94.9248C163.172 95.2887 162.969 95.7161 162.969 96.207C162.969 96.7064 163.104 97.0999 163.375 97.3877C163.654 97.6755 164.044 97.8193 164.543 97.8193C165.042 97.8193 165.525 97.6966 165.99 97.4512C166.456 97.1973 166.896 96.8672 167.311 96.4609V93.2236ZM176.845 95.0137C176.845 95.877 176.874 96.4948 176.934 96.8672C176.993 97.2311 177.137 97.4977 177.365 97.667C177.594 97.8278 177.979 97.9082 178.521 97.9082C178.842 97.9082 179.164 97.8786 179.485 97.8193C179.807 97.7601 180.078 97.6966 180.298 97.6289L180.399 98.5557C179.968 98.7673 179.532 98.9365 179.092 99.0635C178.652 99.1904 178.123 99.2539 177.505 99.2539C176.684 99.2539 176.058 99.1185 175.626 98.8477C175.194 98.5768 174.894 98.141 174.725 97.54C174.555 96.9307 174.471 96.0758 174.471 94.9756V88.5391H172.579V88.0947C173.155 87.8662 173.637 87.5996 174.026 87.2949C174.424 86.9818 174.75 86.6602 175.004 86.3301C175.258 86 175.562 85.5641 175.918 85.0225C176.07 84.777 176.189 84.6162 176.273 84.54C176.358 84.4554 176.443 84.4131 176.527 84.4131C176.612 84.4131 176.68 84.4554 176.73 84.54C176.79 84.6162 176.819 84.7389 176.819 84.9082V87.5869H180.006V88.5391H176.845V95.0137ZM191.927 96.0166C191.927 96.6598 192.028 97.1423 192.231 97.4639C192.435 97.777 192.667 97.9801 192.93 98.0732C193.192 98.1663 193.603 98.2637 194.161 98.3652C194.161 98.4922 194.157 98.6191 194.148 98.7461C194.14 98.873 194.136 98.9577 194.136 99H187.585V98.3271C187.602 98.3187 187.72 98.2848 187.94 98.2256C188.364 98.124 188.711 98.0055 188.981 97.8701C189.252 97.7262 189.417 97.5104 189.477 97.2227C189.519 97.0788 189.544 96.9349 189.553 96.791C189.561 96.6387 189.565 96.4355 189.565 96.1816V89.7832C189.464 89.5801 189.261 89.4023 188.956 89.25C188.66 89.0892 188.351 88.958 188.029 88.8564C187.708 88.7464 187.547 88.6956 187.547 88.7041L187.585 88.2725L191.076 87.4092L191.825 87.3584L191.965 89.4277C192.464 88.776 193.052 88.2513 193.729 87.8535C194.407 87.4473 195.164 87.2441 196.002 87.2441C196.831 87.2441 197.517 87.4134 198.059 87.752C198.6 88.0905 199.015 88.6025 199.303 89.2881C199.709 88.8395 200.094 88.4756 200.458 88.1963C200.822 87.9085 201.228 87.6842 201.677 87.5234C202.125 87.3542 202.633 87.2695 203.2 87.2695C204.309 87.2695 205.198 87.5319 205.866 88.0566C206.543 88.5729 206.928 89.36 207.021 90.418C207.089 91.2135 207.123 92.0133 207.123 92.8174V96.1436C207.123 96.5667 207.153 96.9264 207.212 97.2227C207.254 97.4681 207.36 97.6628 207.529 97.8066C207.707 97.9505 207.881 98.0521 208.05 98.1113C208.219 98.1621 208.515 98.2467 208.938 98.3652C208.938 98.4922 208.934 98.6191 208.926 98.7461C208.917 98.8646 208.913 98.9492 208.913 99H202.807C202.807 98.9492 202.802 98.8646 202.794 98.7461C202.785 98.6191 202.781 98.4922 202.781 98.3652C202.824 98.3568 202.87 98.3441 202.921 98.3271C202.98 98.3102 203.039 98.2933 203.099 98.2764C203.539 98.1579 203.89 98.0309 204.152 97.8955C204.415 97.7516 204.58 97.5358 204.647 97.248C204.715 96.9095 204.749 96.5413 204.749 96.1436V91.1035C204.749 90.3079 204.546 89.6943 204.14 89.2627C203.733 88.8226 203.154 88.6025 202.4 88.6025C201.876 88.6025 201.355 88.7591 200.839 89.0723C200.323 89.377 199.866 89.7493 199.468 90.1895C199.519 90.7734 199.544 91.7129 199.544 93.0078V96.0801C199.544 96.5625 199.569 96.9349 199.62 97.1973C199.671 97.502 199.827 97.7262 200.09 97.8701C200.361 98.014 200.716 98.1452 201.156 98.2637C201.393 98.3398 201.507 98.3737 201.499 98.3652C201.499 98.4922 201.495 98.6191 201.486 98.7461C201.478 98.873 201.474 98.9577 201.474 99H195.126C195.126 98.9492 195.122 98.8646 195.113 98.7461C195.105 98.6191 195.101 98.4922 195.101 98.3652C195.134 98.3568 195.338 98.3187 195.71 98.251C196.091 98.1748 196.429 97.9505 196.726 97.5781C197.022 97.1973 197.17 96.7021 197.17 96.0928V91.6748C197.17 90.6846 197.013 89.9271 196.7 89.4023C196.387 88.8776 195.841 88.6152 195.062 88.6152C194.453 88.6152 193.899 88.776 193.399 89.0977C192.909 89.4108 192.418 89.8424 191.927 90.3926V96.0166ZM211.109 89.9609C210.906 89.5039 210.712 89.1611 210.525 88.9326C210.339 88.7041 210.166 88.556 210.005 88.4883C209.853 88.4121 209.671 88.3571 209.459 88.3232C209.332 88.3063 209.214 88.2809 209.104 88.2471V87.5869H215.058C215.075 87.6631 215.096 87.8027 215.121 88.0059C215.155 88.2005 215.155 88.3021 215.121 88.3105C214.562 88.4121 214.152 88.5306 213.89 88.666C213.627 88.793 213.496 88.9919 213.496 89.2627C213.496 89.4404 213.551 89.7028 213.661 90.0498L216.175 96.3086L218.346 90.4307C218.473 90.1006 218.536 89.8128 218.536 89.5674C218.536 89.2035 218.405 88.9284 218.143 88.7422C217.88 88.5475 217.461 88.3994 216.886 88.2979C216.877 88.2471 216.873 88.1497 216.873 88.0059C216.873 87.9043 216.873 87.8154 216.873 87.7393C216.882 87.6631 216.886 87.6123 216.886 87.5869H221.545L221.558 88.2344C221.422 88.3444 221.236 88.4417 220.999 88.5264C220.779 88.6195 220.593 88.7126 220.44 88.8057C220.297 88.8903 220.153 89.0299 220.009 89.2246C219.873 89.4193 219.759 89.6859 219.666 90.0244L215.159 101.12C214.787 102.051 214.342 102.766 213.826 103.266C213.318 103.765 212.671 104.015 211.884 104.015C211.317 104.015 210.847 103.879 210.475 103.608C210.111 103.346 209.929 102.991 209.929 102.542C209.929 102.212 210.043 101.933 210.271 101.704C210.508 101.476 210.792 101.361 211.122 101.361C211.418 101.361 211.638 101.412 211.782 101.514C211.935 101.615 212.083 101.768 212.227 101.971C212.337 102.123 212.438 102.237 212.531 102.313C212.633 102.398 212.768 102.44 212.938 102.44C213.2 102.44 213.433 102.322 213.636 102.085C213.839 101.848 214.029 101.526 214.207 101.12C214.393 100.722 214.651 100.096 214.981 99.2412L215.07 99L211.109 89.9609ZM234.862 87.2441C235.988 87.2441 237.012 87.4896 237.935 87.9805C238.866 88.4629 239.602 89.1569 240.144 90.0625C240.685 90.9596 240.956 92.0049 240.956 93.1982C240.956 94.3916 240.685 95.4495 240.144 96.3721C239.602 97.2861 238.878 97.9971 237.973 98.5049C237.067 99.0042 236.077 99.2539 235.002 99.2539C233.936 99.2539 232.937 98.9958 232.006 98.4795C231.075 97.9632 230.33 97.248 229.771 96.334C229.213 95.4115 228.934 94.3704 228.934 93.2109C228.934 92.0514 229.204 91.0189 229.746 90.1133C230.288 89.1992 231.011 88.4925 231.917 87.9932C232.831 87.4938 233.813 87.2441 234.862 87.2441ZM235.167 98.2637C236.242 98.2637 237.059 97.8786 237.617 97.1084C238.176 96.3382 238.455 95.3268 238.455 94.0742C238.455 92.9909 238.303 91.9964 237.998 91.0908C237.702 90.1768 237.274 89.4489 236.716 88.9072C236.157 88.3656 235.514 88.0947 234.786 88.0947C234.143 88.0947 233.572 88.2513 233.072 88.5645C232.581 88.8776 232.192 89.36 231.904 90.0117C231.617 90.6634 231.473 91.4801 231.473 92.4619C231.473 93.4268 231.625 94.3577 231.93 95.2549C232.234 96.1436 232.666 96.8672 233.225 97.4258C233.783 97.9844 234.431 98.2637 235.167 98.2637ZM247.52 99.2539C246.495 99.2539 245.704 99 245.146 98.4922C244.595 97.9759 244.223 97.3073 244.028 96.4863C243.834 95.6654 243.736 94.6878 243.736 93.5537V89.7705C243.626 89.5758 243.419 89.4023 243.114 89.25C242.818 89.0892 242.509 88.958 242.188 88.8564C241.874 88.7464 241.718 88.6956 241.718 88.7041L241.743 88.2598L245.311 87.3965L246.098 87.3457V93.4141C246.098 94.4974 246.165 95.3522 246.301 95.9785C246.436 96.5964 246.665 97.0492 246.986 97.3369C247.308 97.6162 247.757 97.7559 248.332 97.7559C249.508 97.7559 250.617 97.2396 251.658 96.207V89.7705C251.548 89.5758 251.341 89.4023 251.036 89.25C250.74 89.0892 250.431 88.958 250.109 88.8564C249.796 88.7464 249.64 88.6956 249.64 88.7041L249.665 88.2598L253.232 87.3965L254.02 87.3457V96.4482C254.02 96.8037 254.108 97.0788 254.286 97.2734C254.464 97.4596 254.684 97.5951 254.946 97.6797C255.209 97.7643 255.568 97.8447 256.025 97.9209C256.025 98.0479 256.017 98.179 256 98.3145C255.992 98.4499 255.987 98.543 255.987 98.5938L251.823 99.1904L251.722 97.1592C250.469 98.5557 249.068 99.2539 247.52 99.2539ZM261.091 95.0137C261.091 95.877 261.12 96.4948 261.18 96.8672C261.239 97.2311 261.383 97.4977 261.611 97.667C261.84 97.8278 262.225 97.9082 262.767 97.9082C263.088 97.9082 263.41 97.8786 263.731 97.8193C264.053 97.7601 264.324 97.6966 264.544 97.6289L264.646 98.5557C264.214 98.7673 263.778 98.9365 263.338 99.0635C262.898 99.1904 262.369 99.2539 261.751 99.2539C260.93 99.2539 260.304 99.1185 259.872 98.8477C259.44 98.5768 259.14 98.141 258.971 97.54C258.801 96.9307 258.717 96.0758 258.717 94.9756V88.5391H256.825V88.0947C257.401 87.8662 257.883 87.5996 258.272 87.2949C258.67 86.9818 258.996 86.6602 259.25 86.3301C259.504 86 259.809 85.5641 260.164 85.0225C260.316 84.777 260.435 84.6162 260.52 84.54C260.604 84.4554 260.689 84.4131 260.773 84.4131C260.858 84.4131 260.926 84.4554 260.977 84.54C261.036 84.6162 261.065 84.7389 261.065 84.9082V87.5869H264.252V88.5391H261.091V95.0137ZM276.236 89.9482C276.236 89.7282 276.224 89.5208 276.198 89.3262C276.181 89.123 276.16 88.9622 276.135 88.8438C276.109 88.7253 276.092 88.6491 276.084 88.6152H270.155V95.7119C270.155 96.1351 270.172 96.4948 270.206 96.791C270.248 97.0872 270.325 97.3496 270.435 97.5781C270.494 97.7643 270.638 97.8997 270.866 97.9844C271.095 98.0605 271.412 98.1283 271.818 98.1875C272.199 98.2298 272.483 98.2891 272.669 98.3652C272.669 98.6276 272.665 98.8392 272.656 99H265.725C265.708 98.6784 265.699 98.4668 265.699 98.3652C265.818 98.306 266.046 98.2425 266.385 98.1748C266.715 98.1156 266.973 98.0479 267.159 97.9717C267.345 97.887 267.468 97.7516 267.527 97.5654C267.705 97.2354 267.794 96.8037 267.794 96.2705V88.6152H265.788V87.5869H266.664C266.977 87.5869 267.201 87.5742 267.337 87.5488C267.472 87.515 267.574 87.4346 267.642 87.3076C267.709 87.1807 267.743 86.9691 267.743 86.6729C267.777 85.0309 268.289 83.7656 269.279 82.877C270.278 81.9883 271.67 81.5439 273.456 81.5439C275.03 81.5439 276.296 81.6794 277.252 81.9502C278.208 82.2126 278.687 82.7246 278.687 83.4863C278.687 83.7995 278.576 84.0872 278.356 84.3496C278.136 84.6035 277.789 84.7305 277.315 84.7305C276.994 84.7305 276.74 84.6628 276.554 84.5273C276.368 84.3919 276.156 84.1719 275.919 83.8672C275.69 83.571 275.47 83.334 275.259 83.1562C275.056 82.9701 274.759 82.8092 274.37 82.6738C273.989 82.5384 273.503 82.4707 272.91 82.4707C272.242 82.4707 271.713 82.5723 271.323 82.7754C270.934 82.9701 270.642 83.3255 270.447 83.8418C270.253 84.3581 270.155 85.0902 270.155 86.0381V87.5869H277.823L278.598 87.5107V96.207C278.598 96.6387 278.64 96.9984 278.725 97.2861C278.767 97.54 278.894 97.7262 279.105 97.8447C279.317 97.9632 279.596 98.069 279.943 98.1621C280.053 98.1875 280.159 98.2171 280.261 98.251C280.362 98.2848 280.438 98.3229 280.489 98.3652C280.489 98.6445 280.485 98.8561 280.477 99H274.18C274.163 98.8477 274.154 98.6361 274.154 98.3652C274.222 98.3314 274.311 98.2975 274.421 98.2637C274.531 98.2214 274.616 98.1875 274.675 98.1621C274.988 98.0605 275.25 97.959 275.462 97.8574C275.674 97.7559 275.855 97.612 276.008 97.4258C276.16 97.2396 276.236 96.9984 276.236 96.7021V89.9482ZM285.745 95.0137C285.745 95.877 285.775 96.4948 285.834 96.8672C285.893 97.2311 286.037 97.4977 286.266 97.667C286.494 97.8278 286.879 97.9082 287.421 97.9082C287.743 97.9082 288.064 97.8786 288.386 97.8193C288.707 97.7601 288.978 97.6966 289.198 97.6289L289.3 98.5557C288.868 98.7673 288.432 98.9365 287.992 99.0635C287.552 99.1904 287.023 99.2539 286.405 99.2539C285.584 99.2539 284.958 99.1185 284.526 98.8477C284.095 98.5768 283.794 98.141 283.625 97.54C283.456 96.9307 283.371 96.0758 283.371 94.9756V88.5391H281.479V88.0947C282.055 87.8662 282.537 87.5996 282.927 87.2949C283.325 86.9818 283.65 86.6602 283.904 86.3301C284.158 86 284.463 85.5641 284.818 85.0225C284.971 84.777 285.089 84.6162 285.174 84.54C285.258 84.4554 285.343 84.4131 285.428 84.4131C285.512 84.4131 285.58 84.4554 285.631 84.54C285.69 84.6162 285.72 84.7389 285.72 84.9082V87.5869H288.906V88.5391H285.745V95.0137ZM295.038 97.5273C295.038 97.832 294.958 98.1156 294.797 98.3779C294.645 98.6403 294.433 98.8519 294.162 99.0127C293.9 99.1735 293.608 99.2539 293.286 99.2539C292.973 99.2539 292.681 99.1735 292.41 99.0127C292.148 98.8604 291.936 98.653 291.775 98.3906C291.623 98.1198 291.547 97.832 291.547 97.5273C291.547 97.2227 291.623 96.9391 291.775 96.6768C291.936 96.4144 292.148 96.207 292.41 96.0547C292.681 95.8939 292.973 95.8135 293.286 95.8135C293.608 95.8135 293.9 95.8939 294.162 96.0547C294.433 96.207 294.645 96.4144 294.797 96.6768C294.958 96.9391 295.038 97.2227 295.038 97.5273ZM298.415 88.209C298.466 88.1751 298.635 88.082 298.923 87.9297C299.321 87.7266 299.638 87.5488 299.875 87.3965C300.112 87.2357 300.307 87.0326 300.459 86.7871C300.62 86.5417 300.7 86.2412 300.7 85.8857C300.573 85.708 300.421 85.5641 300.243 85.4541C300.074 85.3441 299.858 85.2679 299.596 85.2256C299.156 85.1494 298.826 84.9886 298.605 84.7432C298.385 84.4977 298.275 84.1761 298.275 83.7783C298.275 83.3128 298.44 82.9235 298.771 82.6104C299.101 82.2972 299.524 82.1406 300.04 82.1406C300.489 82.1406 300.886 82.2507 301.233 82.4707C301.589 82.6908 301.86 82.9997 302.046 83.3975C302.241 83.7868 302.338 84.2354 302.338 84.7432C302.338 85.3695 302.198 85.9788 301.919 86.5713C301.64 87.1637 301.238 87.6758 300.713 88.1074C300.197 88.5306 299.587 88.8057 298.885 88.9326C298.631 88.7126 298.474 88.4714 298.415 88.209ZM303.899 88.209C304.009 88.1413 304.183 88.0482 304.42 87.9297C304.826 87.7181 305.139 87.5361 305.359 87.3838C305.588 87.223 305.778 87.0199 305.931 86.7744C306.091 86.529 306.172 86.2327 306.172 85.8857C306.045 85.708 305.893 85.5641 305.715 85.4541C305.546 85.3441 305.334 85.2679 305.08 85.2256C304.64 85.1494 304.31 84.9886 304.09 84.7432C303.87 84.4977 303.76 84.1761 303.76 83.7783C303.76 83.3128 303.921 82.9235 304.242 82.6104C304.572 82.2972 305 82.1406 305.524 82.1406C305.973 82.1406 306.371 82.2507 306.718 82.4707C307.065 82.6908 307.331 82.9997 307.518 83.3975C307.712 83.7868 307.81 84.2354 307.81 84.7432C307.81 85.3695 307.67 85.9788 307.391 86.5713C307.111 87.1637 306.709 87.6758 306.185 88.1074C305.668 88.5306 305.059 88.8057 304.356 88.9326C304.111 88.721 303.959 88.4798 303.899 88.209Z" fill="#CCA298"/>
</svg>
