<svg width="406" height="174" viewBox="0 0 406 174" fill="none" xmlns="http://www.w3.org/2000/svg">
<path d="M0 32.9768C0 28.6589 0 26.5 0.435011 25.1521C1.97831 20.3702 7.13825 17.7782 11.8958 19.395C13.2369 19.8507 14.9688 21.1396 18.4327 23.7174C19.1007 24.2145 19.4346 24.463 19.7816 24.6754C20.9613 25.3978 22.2917 25.8385 23.6693 25.9633C24.0745 26 24.4908 26 25.3234 26H298C335.712 26 354.569 26 366.284 37.7157C378 49.4315 378 68.2876 378 106V160C378 166.6 378 169.899 375.95 171.95C373.9 174 370.6 174 364 174H41.0294C31.3251 174 21.9349 170.56 14.5268 164.292C5.3136 156.496 0 145.039 0 132.971V32.9768Z" fill="#CCA298"/>
<path d="M10 22.9768C10 18.6589 10 16.5 10.435 15.1521C11.9783 10.3702 17.1383 7.77819 21.8958 9.39496C23.2369 9.85069 24.9688 11.1396 28.4327 13.7174C29.1007 14.2145 29.4346 14.463 29.7816 14.6754C30.9613 15.3978 32.2917 15.8385 33.6693 15.9633C34.0745 16 34.4908 16 35.3234 16H308C345.712 16 364.569 16 376.284 27.7157C388 39.4315 388 58.2876 388 96V137.887C388 139.482 388 140.28 388.171 141.039C388.296 141.592 388.487 142.128 388.741 142.636C389.089 143.332 389.594 143.949 390.604 145.183C395.759 151.483 398.337 154.634 398.222 157.301C398.141 159.189 397.299 160.964 395.89 162.222C393.898 164 389.828 164 381.687 164H41.7524C35.0869 164 28.5904 161.902 23.1835 158.004C14.9052 152.036 10 142.453 10 132.248V22.9768Z" fill="white"/>
<path d="M16.9823 138.446C16.1158 136.168 15.5206 133.779 15.2221 131.325L15.7185 131.265C15.5738 130.076 15.5 128.872 15.5 127.658V124.344H15V117.715H15.5V111.087H15V104.458H15.5V97.8299H15V91.2014H15.5V84.5729H15V77.9445H15.5V71.316H15V64.6875H15.5V58.059H15V51.4305H15.5V44.8021H15V38.1736H15.5V31.5451H15V24.9166H15.5V21.6024C15.5 20.5499 15.8226 19.6586 16.3405 18.9556L15.9379 18.659C17.2018 16.9433 19.5268 16.2036 21.5498 16.8734L21.3926 17.3481C22.2215 17.6226 22.9999 18.1635 23.6081 19.0225C23.8624 19.3817 24.156 19.7047 24.481 19.9874L24.8092 19.6102C25.4078 20.131 26.1232 20.501 26.8941 20.6886L26.7759 21.1744C27.1944 21.2763 27.6278 21.3293 28.0678 21.3293H31.5045V20.8293H38.3777V21.3293H45.251V20.8293H52.1243V21.3293H58.9976V20.8293H65.8709V21.3293H72.7442V20.8293H79.6175V21.3293H86.4909V20.8293H93.3642V21.3293H100.237V20.8293H107.111V21.3293H113.984V20.8293H120.857V21.3293H127.731V20.8293H134.604V21.3293H141.477V20.8293H148.351V21.3293H155.224V20.8293H162.097V21.3293H168.971V20.8293H175.844V21.3293H182.717V20.8293H189.59V21.3293H196.464V20.8293H203.337V21.3293H210.21V20.8293H217.084V21.3293H223.957V20.8293H230.83V21.3293H237.704V20.8293H244.577V21.3293H251.45V20.8293H258.324V21.3293H265.197V20.8293H272.07V21.3293H278.943V20.8293H285.817V21.3293H292.69V20.8293H299.563V21.3293H303C304.201 21.3293 305.383 21.3293 306.546 21.3296L306.546 20.8296C308.994 20.8304 311.358 20.8329 313.643 20.8406L313.642 21.3406C316.096 21.3488 318.459 21.3631 320.734 21.3877L320.739 20.8877C323.199 20.9143 325.557 20.9531 327.818 21.0095L327.806 21.5093C330.281 21.571 332.639 21.6539 334.887 21.7651L334.912 21.2657C337.398 21.3887 339.753 21.5463 341.985 21.7483L341.94 22.2463C344.423 22.4711 346.75 22.7508 348.937 23.0987L349.016 22.6049C351.498 22.9998 353.804 23.4825 355.951 24.0726L355.819 24.5547C358.203 25.2099 360.384 25.997 362.393 26.9421L362.606 26.4897C364.803 27.5231 366.801 28.7451 368.636 30.1903L368.326 30.583C369.234 31.2977 370.1 32.068 370.931 32.8986C371.761 33.7291 372.532 34.5958 373.246 35.5029L373.639 35.1935C375.084 37.028 376.306 39.0263 377.34 41.223L376.887 41.4359C377.832 43.4448 378.619 45.6267 379.275 48.0108L379.757 47.8783C380.347 50.0257 380.829 52.3309 381.224 54.8135L380.731 54.892C381.078 57.0789 381.358 59.4067 381.583 61.8898L382.081 61.8447C382.283 64.0765 382.441 66.4308 382.564 68.9175L382.064 68.9422C382.175 71.1907 382.258 73.5486 382.32 76.0234L382.82 76.011C382.876 78.2723 382.915 80.6302 382.942 83.0902L382.442 83.0956C382.466 85.3704 382.48 87.7329 382.489 90.1877L382.989 90.1861C382.996 92.471 382.999 94.8354 383 97.2829L382.5 97.283C382.5 97.7218 382.5 98.1632 382.5 98.6073L382.5 100.829V104.096H383V110.628H382.5V117.161H383V123.694H382.5V130.226H383V136.759H382.5V140.025C382.5 141.259 382.605 142.483 382.812 143.685L383.305 143.6C383.711 145.966 384.518 148.245 385.691 150.339L385.254 150.584C385.85 151.648 386.538 152.666 387.314 153.624C387.622 154.004 387.786 154.423 387.834 154.84L388.331 154.782C388.458 155.874 387.934 156.973 387.005 157.562L386.737 157.139C386.383 157.364 385.954 157.5 385.465 157.5H381.922V158H374.837V157.5H367.751V158H360.665V157.5H353.579V158H346.493V157.5H339.407V158H332.321V157.5H325.235V158H318.149V157.5H311.063V158H303.977V157.5H296.892V158H289.806V157.5H282.72V158H275.634V157.5H268.548V158H261.462V157.5H254.376V158H247.29V157.5H240.204V158H233.118V157.5H226.033V158H218.947V157.5H211.861V158H204.775V157.5H197.689V158H190.603V157.5H183.517V158H176.431V157.5H169.345V158H162.259V157.5H155.173V158H148.088V157.5H141.002V158H133.916V157.5H126.83V158H119.744V157.5H112.658V158H105.572V157.5H98.4863V158H91.4004V157.5H84.3145V158H77.2286V157.5H70.1427V158H63.0568V157.5H55.9709V158H48.885V157.5H45.342C43.839 157.5 42.3448 157.387 40.8714 157.163L40.7965 157.658C37.7835 157.201 34.8561 156.293 32.1136 154.965L32.3316 154.515C30.9905 153.865 29.6943 153.113 28.4551 152.262C27.4542 151.576 26.5031 150.833 25.6047 150.041L25.2741 150.416C23.4202 148.782 21.7869 146.939 20.3995 144.936L20.8106 144.651C19.4366 142.667 18.3078 140.523 17.4496 138.268L16.9823 138.446Z" fill="white" stroke="#C17766" stroke-dasharray="7 7"/>
<path d="M245.935 124.084H259.195L258.974 125.376H245.714L245.935 124.084ZM262.452 117.828H263.948L266.872 125.24H266.94L272.431 117.828H274.114L271.955 130H270.391L271.666 122.775L272.091 120.735H272.023L267.042 127.416H266.124L263.489 120.735H263.421L263.132 122.775L261.857 130H260.293L262.452 117.828ZM274.269 130L275.731 121.67H277.295L275.833 130H274.269ZM277.023 119.902C276.717 119.902 276.456 119.794 276.241 119.579C276.025 119.364 275.918 119.103 275.918 118.797C275.918 118.491 276.025 118.23 276.241 118.015C276.456 117.8 276.717 117.692 277.023 117.692C277.329 117.692 277.589 117.8 277.805 118.015C278.02 118.23 278.128 118.491 278.128 118.797C278.128 119.103 278.02 119.364 277.805 119.579C277.589 119.794 277.329 119.902 277.023 119.902ZM281.627 130.272C281.083 130.272 280.584 130.176 280.131 129.983C279.689 129.779 279.309 129.507 278.992 129.167C278.686 128.816 278.442 128.408 278.261 127.943C278.091 127.467 278.006 126.963 278.006 126.43C278.006 125.705 278.136 125.036 278.397 124.424C278.658 123.801 279.009 123.268 279.451 122.826C279.904 122.373 280.431 122.021 281.032 121.772C281.644 121.523 282.296 121.398 282.987 121.398C283.497 121.398 283.945 121.472 284.33 121.619C284.715 121.755 285.044 121.936 285.316 122.163C285.599 122.39 285.826 122.65 285.996 122.945C286.166 123.228 286.291 123.512 286.37 123.795L284.908 124.356C284.772 123.88 284.528 123.506 284.177 123.234C283.837 122.962 283.378 122.826 282.8 122.826C282.347 122.826 281.922 122.917 281.525 123.098C281.14 123.268 280.805 123.512 280.522 123.829C280.239 124.135 280.012 124.503 279.842 124.934C279.683 125.353 279.604 125.812 279.604 126.311C279.604 126.651 279.655 126.98 279.757 127.297C279.859 127.603 280.006 127.869 280.199 128.096C280.392 128.323 280.635 128.504 280.93 128.64C281.225 128.776 281.559 128.844 281.933 128.844C282.466 128.844 282.942 128.702 283.361 128.419C283.792 128.136 284.154 127.75 284.449 127.263L285.707 127.858C285.446 128.266 285.18 128.623 284.908 128.929C284.647 129.235 284.353 129.49 284.024 129.694C283.707 129.887 283.35 130.028 282.953 130.119C282.568 130.221 282.126 130.272 281.627 130.272ZM289.71 121.67L289.438 122.826H289.506C289.812 122.418 290.22 122.078 290.73 121.806C291.24 121.534 291.795 121.398 292.396 121.398C292.86 121.398 293.263 121.466 293.603 121.602C293.943 121.727 294.22 121.902 294.436 122.129C294.651 122.356 294.81 122.622 294.912 122.928C295.014 123.223 295.065 123.54 295.065 123.88C295.065 124.016 295.053 124.169 295.031 124.339C295.019 124.498 294.991 124.707 294.946 124.968L294.045 130H292.481L293.365 125.002C293.387 124.889 293.404 124.781 293.416 124.679C293.427 124.566 293.433 124.464 293.433 124.373C293.433 123.863 293.28 123.478 292.974 123.217C292.679 122.956 292.277 122.826 291.767 122.826C291.415 122.826 291.087 122.9 290.781 123.047C290.475 123.194 290.203 123.393 289.965 123.642C289.727 123.88 289.523 124.158 289.353 124.475C289.194 124.792 289.086 125.121 289.03 125.461L288.248 130H286.684L288.826 117.828H290.39L289.71 121.67ZM300.813 121.398C301.889 121.398 302.7 121.647 303.244 122.146C303.799 122.645 304.077 123.319 304.077 124.169C304.077 124.305 304.065 124.452 304.043 124.611C304.031 124.758 304.014 124.911 303.992 125.07L303.108 130H301.612L301.816 128.844H301.748C301.476 129.241 301.102 129.581 300.626 129.864C300.15 130.136 299.617 130.272 299.028 130.272C298.62 130.272 298.24 130.21 297.889 130.085C297.537 129.972 297.231 129.802 296.971 129.575C296.721 129.348 296.523 129.082 296.376 128.776C296.228 128.459 296.155 128.102 296.155 127.705C296.155 127.229 296.257 126.798 296.461 126.413C296.676 126.028 296.965 125.705 297.328 125.444C297.69 125.172 298.115 124.962 298.603 124.815C299.101 124.668 299.64 124.594 300.218 124.594C300.682 124.594 301.09 124.645 301.442 124.747C301.804 124.838 302.15 124.957 302.479 125.104L302.547 124.747C302.569 124.656 302.581 124.543 302.581 124.407C302.581 123.92 302.405 123.529 302.054 123.234C301.702 122.939 301.238 122.792 300.66 122.792C300.218 122.792 299.821 122.877 299.47 123.047C299.13 123.217 298.795 123.5 298.467 123.897L297.243 123.03C297.639 122.497 298.144 122.095 298.756 121.823C299.379 121.54 300.065 121.398 300.813 121.398ZM299.351 128.878C299.702 128.878 300.036 128.816 300.354 128.691C300.682 128.566 300.971 128.396 301.221 128.181C301.481 127.954 301.702 127.694 301.884 127.399C302.065 127.093 302.184 126.77 302.241 126.43C302.105 126.328 301.935 126.232 301.731 126.141C301.549 126.073 301.323 126.011 301.051 125.954C300.79 125.886 300.473 125.852 300.099 125.852C299.815 125.852 299.532 125.886 299.249 125.954C298.977 126.022 298.733 126.13 298.518 126.277C298.302 126.424 298.127 126.606 297.991 126.821C297.855 127.036 297.787 127.286 297.787 127.569C297.787 127.784 297.832 127.977 297.923 128.147C298.013 128.306 298.127 128.442 298.263 128.555C298.41 128.657 298.574 128.736 298.756 128.793C298.948 128.85 299.147 128.878 299.351 128.878ZM312.32 128.028C311.878 128.765 311.311 129.326 310.62 129.711C309.928 130.085 309.186 130.272 308.393 130.272C307.781 130.272 307.237 130.17 306.761 129.966C306.296 129.762 305.899 129.49 305.571 129.15C305.253 128.799 305.01 128.396 304.84 127.943C304.681 127.478 304.602 126.985 304.602 126.464C304.602 125.818 304.709 125.195 304.925 124.594C305.151 123.982 305.474 123.438 305.894 122.962C306.313 122.486 306.817 122.106 307.407 121.823C308.007 121.54 308.676 121.398 309.413 121.398C309.991 121.398 310.501 121.489 310.943 121.67C311.385 121.851 311.753 122.101 312.048 122.418C312.342 122.735 312.563 123.104 312.711 123.523C312.858 123.942 312.932 124.396 312.932 124.883C312.932 125.087 312.92 125.302 312.898 125.529C312.875 125.756 312.835 125.954 312.779 126.124H306.217C306.205 126.237 306.2 126.328 306.2 126.396C306.2 126.464 306.2 126.538 306.2 126.617C306.2 126.991 306.262 127.32 306.387 127.603C306.523 127.886 306.698 128.119 306.914 128.3C307.129 128.481 307.373 128.617 307.645 128.708C307.917 128.799 308.194 128.844 308.478 128.844C309.044 128.844 309.549 128.708 309.991 128.436C310.444 128.164 310.818 127.801 311.113 127.348L312.32 128.028ZM311.351 124.832V124.645C311.351 124.407 311.305 124.18 311.215 123.965C311.135 123.738 311.005 123.546 310.824 123.387C310.654 123.217 310.438 123.081 310.178 122.979C309.917 122.877 309.611 122.826 309.26 122.826C308.58 122.826 307.996 123.013 307.509 123.387C307.033 123.75 306.698 124.231 306.506 124.832H311.351ZM313.512 130L315.654 117.828H317.218L315.076 130H313.512ZM332.124 117.896L326.684 123.115L330.305 129.932L330.288 130H328.435L325.443 124.322L323.165 126.481L322.536 130H320.972L323.131 117.828H324.695L323.607 124.05H323.675L330.067 117.828H332.141L332.124 117.896ZM336.145 121.398C336.723 121.398 337.25 121.506 337.726 121.721C338.213 121.925 338.627 122.208 338.967 122.571C339.307 122.934 339.568 123.359 339.749 123.846C339.942 124.322 340.038 124.832 340.038 125.376C340.038 126.067 339.913 126.713 339.664 127.314C339.415 127.903 339.069 128.419 338.627 128.861C338.185 129.303 337.658 129.649 337.046 129.898C336.434 130.147 335.771 130.272 335.057 130.272C334.479 130.272 333.946 130.17 333.459 129.966C332.983 129.751 332.575 129.462 332.235 129.099C331.895 128.736 331.629 128.317 331.436 127.841C331.255 127.354 331.164 126.838 331.164 126.294C331.164 125.603 331.289 124.962 331.538 124.373C331.787 123.772 332.133 123.251 332.575 122.809C333.017 122.367 333.544 122.021 334.156 121.772C334.768 121.523 335.431 121.398 336.145 121.398ZM335.21 128.844C335.709 128.844 336.156 128.753 336.553 128.572C336.961 128.379 337.301 128.13 337.573 127.824C337.856 127.507 338.072 127.15 338.219 126.753C338.366 126.345 338.44 125.92 338.44 125.478C338.44 125.093 338.372 124.741 338.236 124.424C338.111 124.095 337.936 123.812 337.709 123.574C337.494 123.336 337.233 123.155 336.927 123.03C336.632 122.894 336.321 122.826 335.992 122.826C335.493 122.826 335.04 122.922 334.632 123.115C334.235 123.296 333.895 123.546 333.612 123.863C333.34 124.169 333.13 124.526 332.983 124.934C332.836 125.331 332.762 125.75 332.762 126.192C332.762 126.577 332.824 126.934 332.949 127.263C333.085 127.58 333.261 127.858 333.476 128.096C333.703 128.334 333.963 128.521 334.258 128.657C334.564 128.782 334.881 128.844 335.21 128.844ZM340.307 130L341.769 121.67H343.265L343.027 123.03H343.095C343.355 122.554 343.729 122.169 344.217 121.874C344.715 121.579 345.248 121.432 345.815 121.432C346.075 121.432 346.274 121.449 346.41 121.483C346.557 121.517 346.704 121.568 346.852 121.636L346.189 123.149C346.041 123.104 345.9 123.075 345.764 123.064C345.639 123.041 345.48 123.03 345.288 123.03C344.982 123.03 344.681 123.092 344.387 123.217C344.103 123.342 343.843 123.517 343.605 123.744C343.367 123.959 343.163 124.226 342.993 124.543C342.834 124.849 342.721 125.189 342.653 125.563L341.871 130H340.307ZM349.432 130.272C348.944 130.272 348.514 130.21 348.14 130.085C347.766 129.96 347.437 129.796 347.154 129.592C346.882 129.377 346.655 129.127 346.474 128.844C346.292 128.549 346.156 128.232 346.066 127.892L347.562 127.297C347.675 127.818 347.919 128.215 348.293 128.487C348.667 128.748 349.097 128.878 349.585 128.878C350.129 128.878 350.559 128.765 350.877 128.538C351.194 128.311 351.353 128.034 351.353 127.705C351.353 127.388 351.251 127.133 351.047 126.94C350.843 126.747 350.503 126.589 350.027 126.464L349.075 126.209C348.474 126.05 347.975 125.801 347.579 125.461C347.193 125.11 347.001 124.617 347.001 123.982C347.001 123.608 347.091 123.262 347.273 122.945C347.454 122.628 347.698 122.356 348.004 122.129C348.31 121.902 348.667 121.727 349.075 121.602C349.483 121.466 349.919 121.398 350.384 121.398C351.177 121.398 351.851 121.585 352.407 121.959C352.962 122.322 353.336 122.792 353.529 123.37L352.033 123.948C351.908 123.631 351.698 123.359 351.404 123.132C351.12 122.905 350.746 122.792 350.282 122.792C349.794 122.792 349.398 122.888 349.092 123.081C348.786 123.262 348.633 123.523 348.633 123.863C348.633 124.078 348.718 124.277 348.888 124.458C349.058 124.639 349.352 124.787 349.772 124.9L350.843 125.189C351.523 125.382 352.05 125.676 352.424 126.073C352.798 126.458 352.985 126.94 352.985 127.518C352.985 127.937 352.9 128.317 352.73 128.657C352.56 128.997 352.316 129.286 351.999 129.524C351.681 129.762 351.302 129.943 350.86 130.068C350.429 130.204 349.953 130.272 349.432 130.272Z" fill="#C17766"/>
<path d="M48.7734 48.1309C48.3757 48.3424 48.0583 48.5286 47.8213 48.6895C47.5843 48.8503 47.3854 49.0534 47.2246 49.2988C47.0723 49.5443 46.9961 49.8405 46.9961 50.1875C47.123 50.3737 47.2712 50.5218 47.4404 50.6318C47.6182 50.7419 47.834 50.818 48.0879 50.8604C48.9766 51.0212 49.4209 51.4993 49.4209 52.2949C49.4209 52.7689 49.2559 53.1624 48.9258 53.4756C48.5957 53.7887 48.1683 53.9453 47.6436 53.9453C47.195 53.9453 46.7972 53.8353 46.4502 53.6152C46.1032 53.3952 45.8324 53.0863 45.6377 52.6885C45.4515 52.2907 45.3584 51.8379 45.3584 51.3301C45.3584 50.7122 45.4938 50.1071 45.7646 49.5146C46.0439 48.9137 46.446 48.4017 46.9707 47.9785C47.4954 47.5553 48.109 47.2803 48.8115 47.1533C49.0485 47.348 49.2008 47.585 49.2686 47.8643L48.7734 48.1309ZM54.1689 48.1309C53.7712 48.3424 53.4538 48.5286 53.2168 48.6895C52.9798 48.8503 52.7809 49.0534 52.6201 49.2988C52.4678 49.5443 52.3916 49.8405 52.3916 50.1875C52.6286 50.5514 52.9925 50.7757 53.4834 50.8604C54.3636 51.0212 54.8037 51.4993 54.8037 52.2949C54.8037 52.7689 54.6387 53.1624 54.3086 53.4756C53.987 53.7887 53.5638 53.9453 53.0391 53.9453C52.5905 53.9453 52.1927 53.8353 51.8457 53.6152C51.4987 53.3952 51.2279 53.0863 51.0332 52.6885C50.847 52.2907 50.7539 51.8379 50.7539 51.3301C50.7539 50.7122 50.8893 50.1071 51.1602 49.5146C51.4395 48.9137 51.8415 48.4017 52.3662 47.9785C52.891 47.5553 53.5046 47.2803 54.207 47.1533C54.444 47.348 54.5964 47.585 54.6641 47.8643L54.1689 48.1309ZM72.3867 52.0537C72.2767 51.9437 72.1582 51.7913 72.0312 51.5967C71.9043 51.3936 71.7816 51.1862 71.6631 50.9746C71.6377 50.9323 71.57 50.818 71.46 50.6318C71.3499 50.4456 71.2484 50.2848 71.1553 50.1494C71.0622 50.014 70.9733 49.904 70.8887 49.8193C70.3216 49.2523 69.6911 48.8291 68.9971 48.5498C68.3115 48.2705 67.5879 48.1309 66.8262 48.1309C65.7259 48.1309 64.6976 48.4186 63.7412 48.9941C62.7933 49.5612 62.0316 50.3906 61.4561 51.4824C60.889 52.5742 60.6055 53.8691 60.6055 55.3672C60.6055 56.8991 60.8805 58.2406 61.4307 59.3916C61.9893 60.5342 62.7764 61.4186 63.792 62.0449C64.8161 62.6628 66.0052 62.9717 67.3594 62.9717C68.5104 62.9717 69.5303 62.7347 70.4189 62.2607C71.3161 61.7783 72.0101 61.0716 72.501 60.1406L73.123 60.2295L73.0088 62.6289C72.0863 63.1452 71.0199 63.5599 69.8096 63.873C68.6077 64.1777 67.4863 64.3301 66.4453 64.3301C64.7865 64.3301 63.2884 63.9873 61.9512 63.3018C60.6139 62.6162 59.5602 61.6344 58.79 60.3564C58.0199 59.0785 57.6348 57.5846 57.6348 55.875C57.6348 54.2585 58.0283 52.7858 58.8154 51.457C59.6025 50.1283 60.7197 49.0788 62.167 48.3086C63.6143 47.5384 65.2858 47.1533 67.1816 47.1533C68.9167 47.1533 70.6771 47.5003 72.4629 48.1943L72.9834 52.0283L72.3867 52.0537ZM79.293 61.0293C79.293 61.7402 79.4368 62.2904 79.7246 62.6797C80.0208 63.0605 80.5075 63.2891 81.1846 63.3652C81.1846 63.4922 81.1803 63.6191 81.1719 63.7461C81.1634 63.873 81.1592 63.9577 81.1592 64H74.9131L74.9004 63.3652C74.9766 63.3145 75.0739 63.2679 75.1924 63.2256C75.3193 63.1833 75.4463 63.1452 75.5732 63.1113C75.9456 63.0098 76.2376 62.8997 76.4492 62.7812C76.6608 62.6543 76.7878 62.4681 76.8301 62.2227C76.8978 61.8587 76.9316 61.4863 76.9316 61.1055L76.9189 49.1592C76.8174 48.9899 76.61 48.8249 76.2969 48.6641C75.9922 48.4948 75.6917 48.3551 75.3955 48.2451C75.0993 48.1266 74.9089 48.0547 74.8242 48.0293L74.8496 47.585L78.3789 46.6201L79.293 46.5312V61.0293ZM88.8271 52.2441C89.9528 52.2441 90.9769 52.4896 91.8994 52.9805C92.8304 53.4629 93.5667 54.1569 94.1084 55.0625C94.6501 55.9596 94.9209 57.0049 94.9209 58.1982C94.9209 59.3916 94.6501 60.4495 94.1084 61.3721C93.5667 62.2861 92.8431 62.9971 91.9375 63.5049C91.0319 64.0042 90.0417 64.2539 88.9668 64.2539C87.9004 64.2539 86.9017 63.9958 85.9707 63.4795C85.0397 62.9632 84.2949 62.248 83.7363 61.334C83.1777 60.4115 82.8984 59.3704 82.8984 58.2109C82.8984 57.0514 83.1693 56.0189 83.7109 55.1133C84.2526 54.1992 84.9762 53.4925 85.8818 52.9932C86.7959 52.4938 87.7777 52.2441 88.8271 52.2441ZM89.1318 63.2637C90.2067 63.2637 91.0234 62.8786 91.582 62.1084C92.1406 61.3382 92.4199 60.3268 92.4199 59.0742C92.4199 57.9909 92.2676 56.9964 91.9629 56.0908C91.6667 55.1768 91.2393 54.4489 90.6807 53.9072C90.1221 53.3656 89.4788 53.0947 88.751 53.0947C88.1077 53.0947 87.5365 53.2513 87.0371 53.5645C86.5462 53.8776 86.1569 54.36 85.8691 55.0117C85.5814 55.6634 85.4375 56.4801 85.4375 57.4619C85.4375 58.4268 85.5898 59.3577 85.8945 60.2549C86.1992 61.1436 86.6309 61.8672 87.1895 62.4258C87.748 62.9844 88.3955 63.2637 89.1318 63.2637ZM100.634 60.0137C100.634 60.877 100.663 61.4948 100.723 61.8672C100.782 62.2311 100.926 62.4977 101.154 62.667C101.383 62.8278 101.768 62.9082 102.31 62.9082C102.631 62.9082 102.953 62.8786 103.274 62.8193C103.596 62.7601 103.867 62.6966 104.087 62.6289L104.188 63.5557C103.757 63.7673 103.321 63.9365 102.881 64.0635C102.441 64.1904 101.912 64.2539 101.294 64.2539C100.473 64.2539 99.8467 64.1185 99.415 63.8477C98.9834 63.5768 98.6829 63.141 98.5137 62.54C98.3444 61.9307 98.2598 61.0758 98.2598 59.9756V53.5391H96.3682V53.0947C96.9437 52.8662 97.4261 52.5996 97.8154 52.2949C98.2132 51.9818 98.5391 51.6602 98.793 51.3301C99.0469 51 99.3516 50.5641 99.707 50.0225C99.8594 49.777 99.9779 49.6162 100.062 49.54C100.147 49.4554 100.232 49.4131 100.316 49.4131C100.401 49.4131 100.469 49.4554 100.52 49.54C100.579 49.6162 100.608 49.7389 100.608 49.9082V52.5869H103.795V53.5391H100.634V60.0137ZM117.849 61.1943C117.849 61.846 118.014 62.3581 118.344 62.7305C118.682 63.0944 119.16 63.306 119.778 63.3652C119.778 63.4922 119.774 63.6191 119.766 63.7461C119.757 63.8646 119.753 63.9492 119.753 64H113.507C113.507 63.9492 113.503 63.8646 113.494 63.7461C113.486 63.6191 113.481 63.4922 113.481 63.3652C113.625 63.2975 113.905 63.2002 114.319 63.0732C114.641 62.9717 114.874 62.8786 115.018 62.7939C115.17 62.7008 115.284 62.54 115.36 62.3115C115.445 62.083 115.487 61.7402 115.487 61.2832V56.6748C115.487 55.7438 115.288 55.0033 114.891 54.4531C114.501 53.8945 113.888 53.6152 113.05 53.6152C112.449 53.6152 111.865 53.776 111.298 54.0977C110.739 54.4108 110.223 54.8171 109.749 55.3164V61.042C109.749 61.8037 109.923 62.3623 110.27 62.7178C110.617 63.0732 111.184 63.2891 111.971 63.3652L111.958 64H105.191C105.191 63.9492 105.187 63.8646 105.179 63.7461C105.17 63.6191 105.166 63.4922 105.166 63.3652C106.647 63.2467 107.388 62.4723 107.388 61.042V49.2227C107.303 49.0957 107.117 48.9434 106.829 48.7656C106.541 48.5794 106.237 48.4144 105.915 48.2705C105.602 48.1266 105.369 48.0462 105.217 48.0293V47.585L108.848 46.6201L109.749 46.5312V54.25C110.418 53.5814 111.074 53.082 111.717 52.752C112.36 52.4134 113.105 52.2441 113.951 52.2441C115.128 52.2441 116.071 52.6208 116.782 53.374C117.493 54.1188 117.849 55.2572 117.849 56.7891V61.1943ZM123.409 57.3223C123.401 57.4069 123.396 57.5296 123.396 57.6904C123.396 58.7568 123.587 59.6497 123.968 60.3691C124.357 61.0801 124.873 61.609 125.517 61.9561C126.168 62.2946 126.896 62.4639 127.7 62.4639C128.767 62.4639 129.795 62.1592 130.785 61.5498L131.153 61.9053C130.95 62.3962 130.607 62.8193 130.125 63.1748C129.651 63.5303 129.109 63.8011 128.5 63.9873C127.899 64.165 127.315 64.2539 126.748 64.2539C125.682 64.2539 124.721 64.0042 123.866 63.5049C123.02 63.0055 122.355 62.3073 121.873 61.4102C121.399 60.513 121.162 59.4847 121.162 58.3252C121.162 57.1488 121.42 56.0993 121.937 55.1768C122.453 54.2458 123.138 53.5264 123.993 53.0186C124.856 52.5023 125.779 52.2441 126.761 52.2441C127.565 52.2441 128.288 52.4092 128.932 52.7393C129.583 53.0609 130.112 53.5179 130.519 54.1104C130.925 54.6943 131.183 55.3672 131.293 56.1289C131.386 56.5182 131.433 56.8779 131.433 57.208V57.3223H123.409ZM127.979 56.5098C128.352 56.4928 128.665 56.4251 128.919 56.3066C128.86 55.2995 128.623 54.5124 128.208 53.9453C127.802 53.3783 127.222 53.0947 126.469 53.0947C125.919 53.0947 125.428 53.2598 124.996 53.5898C124.573 53.9199 124.23 54.36 123.968 54.9102C123.705 55.4518 123.536 56.0485 123.46 56.7002L127.979 56.5098ZM141.132 55.9893C141.013 55.9977 140.814 56.002 140.535 56.002C140.29 55.1471 139.917 54.4489 139.418 53.9072C138.927 53.3656 138.297 53.0947 137.526 53.0947C136.993 53.0947 136.57 53.2259 136.257 53.4883C135.952 53.7507 135.8 54.1315 135.8 54.6309C135.8 54.9779 135.927 55.2995 136.181 55.5957C136.435 55.8919 136.743 56.1543 137.107 56.3828C137.48 56.6029 137.966 56.8652 138.567 57.1699C138.711 57.2376 138.927 57.3477 139.215 57.5C140.163 58.0078 140.853 58.5283 141.284 59.0615C141.724 59.5863 141.944 60.2295 141.944 60.9912C141.944 61.6937 141.771 62.2904 141.424 62.7812C141.077 63.2637 140.599 63.6318 139.989 63.8857C139.38 64.1312 138.682 64.2539 137.895 64.2539C137.201 64.2539 136.498 64.1693 135.787 64C135.076 63.8392 134.492 63.6191 134.035 63.3398V60.2422C134.365 60.1999 134.59 60.1787 134.708 60.1787C134.903 61.1182 135.245 61.8841 135.736 62.4766C136.236 63.069 136.917 63.3652 137.78 63.3652C138.398 63.3652 138.91 63.2129 139.316 62.9082C139.731 62.5951 139.938 62.1846 139.938 61.6768C139.938 61.3551 139.845 61.0716 139.659 60.8262C139.473 60.5807 139.232 60.3649 138.936 60.1787C138.639 59.9925 138.195 59.7428 137.603 59.4297C136.807 59.0065 136.202 58.6637 135.787 58.4014C135.144 58.0036 134.657 57.5592 134.327 57.0684C134.006 56.5775 133.845 55.9935 133.845 55.3164C133.845 54.6647 134.01 54.1104 134.34 53.6533C134.67 53.1878 135.118 52.8366 135.686 52.5996C136.253 52.3626 136.892 52.2441 137.603 52.2441C138.254 52.2441 138.872 52.3245 139.456 52.4854C140.049 52.6462 140.582 52.8747 141.056 53.1709L141.132 55.9893ZM157.293 56.2686C157.293 55.6338 157.234 55.0964 157.115 54.6562C157.005 54.2161 156.777 53.8607 156.43 53.5898C156.091 53.319 155.604 53.1836 154.97 53.1836C154.75 53.1836 154.479 53.2301 154.157 53.3232C153.836 53.4163 153.552 53.5518 153.307 53.7295C153.07 53.8988 152.951 54.0977 152.951 54.3262C152.951 54.4193 152.968 54.5124 153.002 54.6055C153.036 54.6901 153.091 54.8001 153.167 54.9355C153.243 55.0625 153.298 55.1725 153.332 55.2656C153.366 55.3587 153.383 55.4561 153.383 55.5576C153.383 55.8962 153.273 56.1797 153.053 56.4082C152.841 56.6283 152.566 56.7383 152.228 56.7383C151.804 56.7383 151.466 56.5817 151.212 56.2686C150.966 55.9554 150.844 55.5788 150.844 55.1387C150.844 54.4785 151.102 53.9326 151.618 53.501C152.134 53.0693 152.757 52.752 153.484 52.5488C154.221 52.3457 154.906 52.2441 155.541 52.2441C156.734 52.2441 157.623 52.4219 158.207 52.7773C158.799 53.1243 159.189 53.6364 159.375 54.3135C159.57 54.9821 159.667 55.9215 159.667 57.1318L159.642 57.7666C159.633 57.9528 159.62 58.2617 159.604 58.6934C159.595 59.125 159.591 59.5228 159.591 59.8867C159.591 61.791 159.79 62.7432 160.188 62.7432C160.475 62.7432 160.848 62.4512 161.305 61.8672L161.838 62.4385C161.465 63.0479 161.097 63.5049 160.733 63.8096C160.369 64.1058 159.891 64.2539 159.299 64.2539C158.74 64.2539 158.279 64.0804 157.915 63.7334C157.56 63.3779 157.365 62.9209 157.331 62.3623C156.789 62.9548 156.18 63.4202 155.503 63.7588C154.834 64.0889 154.123 64.2539 153.37 64.2539C152.845 64.2539 152.359 64.1608 151.91 63.9746C151.47 63.7799 151.115 63.4922 150.844 63.1113C150.581 62.7305 150.45 62.2734 150.45 61.7402C150.45 60.9362 150.759 60.2676 151.377 59.7344C151.995 59.2012 152.706 58.7949 153.51 58.5156C154.314 58.2363 155.296 57.957 156.455 57.6777C156.557 57.6608 156.836 57.5931 157.293 57.4746V56.2686ZM157.293 58.2236C157.166 58.266 157.005 58.3167 156.811 58.376C156.083 58.613 155.461 58.8415 154.944 59.0615C154.428 59.2731 153.967 59.5609 153.561 59.9248C153.154 60.2887 152.951 60.7161 152.951 61.207C152.951 61.7064 153.087 62.0999 153.357 62.3877C153.637 62.6755 154.026 62.8193 154.525 62.8193C155.025 62.8193 155.507 62.6966 155.973 62.4512C156.438 62.1973 156.878 61.8672 157.293 61.4609V58.2236ZM167.043 61.0674C167.043 61.4652 167.085 61.8206 167.17 62.1338C167.263 62.4385 167.479 62.7093 167.817 62.9463C168.156 63.1833 168.664 63.3229 169.341 63.3652L169.328 64H162.714C162.714 63.9323 162.71 63.8223 162.701 63.6699C162.701 63.5176 162.705 63.3991 162.714 63.3145L163.133 63.2002C163.581 63.0817 163.903 62.9717 164.098 62.8701C164.292 62.7686 164.436 62.5908 164.529 62.3369C164.631 62.0745 164.682 61.6768 164.682 61.1436V54.7578C164.572 54.5716 164.368 54.4023 164.072 54.25C163.776 54.0892 163.467 53.958 163.146 53.8564C162.832 53.7549 162.676 53.7083 162.676 53.7168L162.701 53.2725L166.078 52.3711H166.802L167.005 54.707C167.479 53.8353 167.97 53.2174 168.478 52.8535C168.994 52.4896 169.582 52.3076 170.242 52.3076C170.581 52.3076 170.885 52.3796 171.156 52.5234C171.436 52.6589 171.651 52.8366 171.804 53.0566C171.965 53.2682 172.045 53.484 172.045 53.7041C172.045 53.848 172.003 54.0426 171.918 54.2881C171.842 54.5335 171.719 54.7493 171.55 54.9355C171.389 55.1217 171.19 55.2148 170.953 55.2148C170.682 55.2148 170.471 55.1556 170.318 55.0371C170.166 54.9102 170.009 54.724 169.849 54.4785C169.73 54.2923 169.616 54.1527 169.506 54.0596C169.404 53.9665 169.273 53.9199 169.112 53.9199C168.841 53.9199 168.596 54.0003 168.376 54.1611C168.164 54.3135 167.978 54.5039 167.817 54.7324C167.657 54.9609 167.462 55.2656 167.233 55.6465L167.043 55.9639V61.0674ZM175.282 57.3223C175.274 57.4069 175.27 57.5296 175.27 57.6904C175.27 58.7568 175.46 59.6497 175.841 60.3691C176.23 61.0801 176.746 61.609 177.39 61.9561C178.041 62.2946 178.769 62.4639 179.573 62.4639C180.64 62.4639 181.668 62.1592 182.658 61.5498L183.026 61.9053C182.823 62.3962 182.48 62.8193 181.998 63.1748C181.524 63.5303 180.982 63.8011 180.373 63.9873C179.772 64.165 179.188 64.2539 178.621 64.2539C177.555 64.2539 176.594 64.0042 175.739 63.5049C174.893 63.0055 174.229 62.3073 173.746 61.4102C173.272 60.513 173.035 59.4847 173.035 58.3252C173.035 57.1488 173.293 56.0993 173.81 55.1768C174.326 54.2458 175.011 53.5264 175.866 53.0186C176.729 52.5023 177.652 52.2441 178.634 52.2441C179.438 52.2441 180.161 52.4092 180.805 52.7393C181.456 53.0609 181.985 53.5179 182.392 54.1104C182.798 54.6943 183.056 55.3672 183.166 56.1289C183.259 56.5182 183.306 56.8779 183.306 57.208V57.3223H175.282ZM179.853 56.5098C180.225 56.4928 180.538 56.4251 180.792 56.3066C180.733 55.2995 180.496 54.5124 180.081 53.9453C179.675 53.3783 179.095 53.0947 178.342 53.0947C177.792 53.0947 177.301 53.2598 176.869 53.5898C176.446 53.9199 176.103 54.36 175.841 54.9102C175.578 55.4518 175.409 56.0485 175.333 56.7002L179.853 56.5098ZM195.303 61.0293C195.303 61.7402 195.447 62.2904 195.734 62.6797C196.031 63.0605 196.517 63.2891 197.194 63.3652C197.194 63.4922 197.19 63.6191 197.182 63.7461C197.173 63.873 197.169 63.9577 197.169 64H190.923L190.91 63.3652C190.986 63.3145 191.084 63.2679 191.202 63.2256C191.329 63.1833 191.456 63.1452 191.583 63.1113C191.955 63.0098 192.247 62.8997 192.459 62.7812C192.671 62.6543 192.798 62.4681 192.84 62.2227C192.908 61.8587 192.941 61.4863 192.941 61.1055L192.929 49.1592C192.827 48.9899 192.62 48.8249 192.307 48.6641C192.002 48.4948 191.701 48.3551 191.405 48.2451C191.109 48.1266 190.919 48.0547 190.834 48.0293L190.859 47.585L194.389 46.6201L195.303 46.5312V61.0293ZM201.587 46.5312C201.993 46.5312 202.34 46.6751 202.628 46.9629C202.916 47.2507 203.06 47.5977 203.06 48.0039C203.06 48.4186 202.916 48.7699 202.628 49.0576C202.34 49.3369 201.993 49.4766 201.587 49.4766C201.172 49.4766 200.821 49.3369 200.533 49.0576C200.254 48.7699 200.114 48.4186 200.114 48.0039C200.114 47.5977 200.254 47.2507 200.533 46.9629C200.821 46.6751 201.172 46.5312 201.587 46.5312ZM200.571 54.7705C200.461 54.5758 200.254 54.4023 199.949 54.25C199.653 54.0892 199.344 53.958 199.022 53.8564C198.709 53.7464 198.553 53.6956 198.553 53.7041L198.578 53.2598L202.146 52.3965L202.933 52.3457V61.207C202.933 61.5033 202.962 61.7826 203.021 62.0449C203.089 62.3073 203.284 62.5739 203.605 62.8447C203.936 63.1156 204.452 63.2891 205.154 63.3652C205.154 63.6445 205.15 63.8561 205.142 64H198.515C198.498 63.8477 198.489 63.6361 198.489 63.3652L198.845 63.2637C199.217 63.1621 199.518 63.0605 199.746 62.959C199.975 62.8574 200.169 62.7093 200.33 62.5146C200.491 62.3115 200.571 62.0407 200.571 61.7021V54.7705ZM206.437 64L206.424 63.5938C206.424 63.4583 206.428 63.3652 206.437 63.3145C206.927 63.196 207.296 63.0902 207.541 62.9971C207.795 62.904 208.002 62.7516 208.163 62.54C208.324 62.3285 208.404 62.0322 208.404 61.6514V49.2227C208.32 49.0957 208.133 48.9434 207.846 48.7656C207.558 48.5794 207.253 48.4144 206.932 48.2705C206.618 48.1266 206.386 48.0462 206.233 48.0293V47.585L209.864 46.6201L210.766 46.5312V57.9697H211.807L215.869 53.9834C215.886 53.9411 215.895 53.8945 215.895 53.8438C215.895 53.6491 215.814 53.5221 215.653 53.4629C215.501 53.3952 215.268 53.3444 214.955 53.3105C214.71 53.2852 214.532 53.2555 214.422 53.2217C214.312 53.1878 214.257 53.1159 214.257 53.0059C214.257 52.8874 214.27 52.7477 214.295 52.5869H219.678L219.716 53.0059C219.716 53.1836 219.365 53.3444 218.662 53.4883C218.087 53.6068 217.655 53.7887 217.367 54.0342L213.863 57.627L217.215 61.9688C217.477 62.3158 217.812 62.5908 218.218 62.7939C218.624 62.9971 219.001 63.1367 219.348 63.2129C219.703 63.2891 219.949 63.3271 220.084 63.3271L220.046 64H213.762C213.753 63.9323 213.736 63.8053 213.711 63.6191C213.694 63.4329 213.69 63.3398 213.698 63.3398C214.189 63.3398 214.523 63.2848 214.701 63.1748C214.879 63.0563 214.968 62.9251 214.968 62.7812C214.968 62.7051 214.913 62.6077 214.803 62.4893L211.845 58.668H210.766V61.1816C210.766 61.9095 210.948 62.4385 211.312 62.7686C211.684 63.0902 212.247 63.2891 213 63.3652C213 63.4922 212.996 63.6191 212.987 63.7461C212.979 63.873 212.975 63.9577 212.975 64H206.437ZM222.813 57.3223C222.805 57.4069 222.801 57.5296 222.801 57.6904C222.801 58.7568 222.991 59.6497 223.372 60.3691C223.761 61.0801 224.278 61.609 224.921 61.9561C225.573 62.2946 226.3 62.4639 227.104 62.4639C228.171 62.4639 229.199 62.1592 230.189 61.5498L230.558 61.9053C230.354 62.3962 230.012 62.8193 229.529 63.1748C229.055 63.5303 228.514 63.8011 227.904 63.9873C227.303 64.165 226.719 64.2539 226.152 64.2539C225.086 64.2539 224.125 64.0042 223.271 63.5049C222.424 63.0055 221.76 62.3073 221.277 61.4102C220.803 60.513 220.566 59.4847 220.566 58.3252C220.566 57.1488 220.825 56.0993 221.341 55.1768C221.857 54.2458 222.543 53.5264 223.397 53.0186C224.261 52.5023 225.183 52.2441 226.165 52.2441C226.969 52.2441 227.693 52.4092 228.336 52.7393C228.988 53.0609 229.517 53.5179 229.923 54.1104C230.329 54.6943 230.587 55.3672 230.697 56.1289C230.79 56.5182 230.837 56.8779 230.837 57.208V57.3223H222.813ZM227.384 56.5098C227.756 56.4928 228.069 56.4251 228.323 56.3066C228.264 55.2995 228.027 54.5124 227.612 53.9453C227.206 53.3783 226.626 53.0947 225.873 53.0947C225.323 53.0947 224.832 53.2598 224.4 53.5898C223.977 53.9199 223.634 54.36 223.372 54.9102C223.11 55.4518 222.94 56.0485 222.864 56.7002L227.384 56.5098ZM245.855 56.2686C245.855 55.6338 245.796 55.0964 245.678 54.6562C245.568 54.2161 245.339 53.8607 244.992 53.5898C244.654 53.319 244.167 53.1836 243.532 53.1836C243.312 53.1836 243.041 53.2301 242.72 53.3232C242.398 53.4163 242.115 53.5518 241.869 53.7295C241.632 53.8988 241.514 54.0977 241.514 54.3262C241.514 54.4193 241.531 54.5124 241.564 54.6055C241.598 54.6901 241.653 54.8001 241.729 54.9355C241.806 55.0625 241.861 55.1725 241.895 55.2656C241.928 55.3587 241.945 55.4561 241.945 55.5576C241.945 55.8962 241.835 56.1797 241.615 56.4082C241.404 56.6283 241.129 56.7383 240.79 56.7383C240.367 56.7383 240.028 56.5817 239.774 56.2686C239.529 55.9554 239.406 55.5788 239.406 55.1387C239.406 54.4785 239.664 53.9326 240.181 53.501C240.697 53.0693 241.319 52.752 242.047 52.5488C242.783 52.3457 243.469 52.2441 244.104 52.2441C245.297 52.2441 246.186 52.4219 246.77 52.7773C247.362 53.1243 247.751 53.6364 247.938 54.3135C248.132 54.9821 248.229 55.9215 248.229 57.1318L248.204 57.7666C248.196 57.9528 248.183 58.2617 248.166 58.6934C248.158 59.125 248.153 59.5228 248.153 59.8867C248.153 61.791 248.352 62.7432 248.75 62.7432C249.038 62.7432 249.41 62.4512 249.867 61.8672L250.4 62.4385C250.028 63.0479 249.66 63.5049 249.296 63.8096C248.932 64.1058 248.454 64.2539 247.861 64.2539C247.303 64.2539 246.841 64.0804 246.478 63.7334C246.122 63.3779 245.927 62.9209 245.894 62.3623C245.352 62.9548 244.743 63.4202 244.065 63.7588C243.397 64.0889 242.686 64.2539 241.933 64.2539C241.408 64.2539 240.921 64.1608 240.473 63.9746C240.033 63.7799 239.677 63.4922 239.406 63.1113C239.144 62.7305 239.013 62.2734 239.013 61.7402C239.013 60.9362 239.322 60.2676 239.939 59.7344C240.557 59.2012 241.268 58.7949 242.072 58.5156C242.876 58.2363 243.858 57.957 245.018 57.6777C245.119 57.6608 245.398 57.5931 245.855 57.4746V56.2686ZM245.855 58.2236C245.729 58.266 245.568 58.3167 245.373 58.376C244.645 58.613 244.023 58.8415 243.507 59.0615C242.991 59.2731 242.529 59.5609 242.123 59.9248C241.717 60.2887 241.514 60.7161 241.514 61.207C241.514 61.7064 241.649 62.0999 241.92 62.3877C242.199 62.6755 242.589 62.8193 243.088 62.8193C243.587 62.8193 244.07 62.6966 244.535 62.4512C245.001 62.1973 245.441 61.8672 245.855 61.4609V58.2236ZM268.796 53.7803C268.61 53.721 268.305 53.6914 267.882 53.6914C267.543 53.6914 267.188 53.7083 266.815 53.7422C266.443 53.7676 266.202 53.7887 266.092 53.8057C266.092 53.7887 266.185 53.9115 266.371 54.1738C266.557 54.4277 266.722 54.724 266.866 55.0625C267.019 55.3926 267.095 55.7227 267.095 56.0527C267.095 56.9076 266.879 57.6396 266.447 58.249C266.016 58.8584 265.453 59.3197 264.759 59.6328C264.073 59.9375 263.354 60.0898 262.601 60.0898C262.177 60.0898 261.636 60.0137 260.976 59.8613C260.95 59.8783 260.853 59.9417 260.684 60.0518C260.472 60.1872 260.315 60.3141 260.214 60.4326C260.121 60.5426 260.074 60.7035 260.074 60.915C260.074 61.1266 260.184 61.2874 260.404 61.3975C260.624 61.499 260.921 61.571 261.293 61.6133C261.665 61.6471 262.258 61.681 263.07 61.7148C263.68 61.7402 264.361 61.7783 265.114 61.8291C266.189 61.9053 267.057 62.1846 267.717 62.667C268.377 63.1494 268.707 63.8138 268.707 64.6602C268.707 65.4219 268.424 66.0905 267.856 66.666C267.289 67.2415 266.523 67.6816 265.559 67.9863C264.602 68.2995 263.549 68.4561 262.397 68.4561C261.441 68.4561 260.612 68.3503 259.909 68.1387C259.207 67.9355 258.669 67.6689 258.297 67.3389C257.933 67.0173 257.751 66.6829 257.751 66.3359C257.751 65.9635 257.908 65.5531 258.221 65.1045C258.534 64.6559 259.025 64.1862 259.693 63.6953C259.219 63.5007 258.847 63.251 258.576 62.9463C258.314 62.6416 258.183 62.3031 258.183 61.9307C258.183 61.4821 258.365 61.0674 258.729 60.6865C259.092 60.3057 259.609 59.9206 260.277 59.5312C259.609 59.1504 259.092 58.6807 258.729 58.1221C258.365 57.5635 258.183 56.9287 258.183 56.2178C258.183 55.4561 258.369 54.7747 258.741 54.1738C259.122 53.5645 259.647 53.0905 260.315 52.752C260.993 52.4134 261.75 52.2441 262.588 52.2441C263.595 52.2441 264.526 52.4684 265.381 52.917C265.465 52.8831 265.656 52.8197 265.952 52.7266C266.248 52.625 266.6 52.5277 267.006 52.4346C267.421 52.3415 267.797 52.2949 268.136 52.2949C268.254 52.2949 268.373 52.3034 268.491 52.3203C268.618 52.3288 268.699 52.3372 268.732 52.3457L268.796 53.7803ZM260.442 55.9512C260.442 56.916 260.641 57.7074 261.039 58.3252C261.445 58.943 262.046 59.252 262.842 59.252C263.527 59.252 264.035 58.998 264.365 58.4902C264.704 57.9824 264.873 57.2926 264.873 56.4209C264.873 55.7354 264.767 55.1514 264.556 54.6689C264.353 54.1781 264.069 53.8099 263.705 53.5645C263.341 53.3105 262.935 53.1836 262.486 53.1836C262.105 53.1836 261.758 53.3021 261.445 53.5391C261.141 53.7676 260.895 54.0934 260.709 54.5166C260.531 54.9313 260.442 55.4095 260.442 55.9512ZM262.816 63.9619C262.173 63.9535 261.445 63.9027 260.633 63.8096C259.812 64.512 259.401 65.1553 259.401 65.7393C259.401 66.1455 259.588 66.4714 259.96 66.7168C260.341 66.9707 260.785 67.1484 261.293 67.25C261.809 67.3516 262.287 67.4023 262.728 67.4023C263.345 67.4023 263.984 67.3304 264.645 67.1865C265.305 67.0511 265.859 66.8395 266.308 66.5518C266.756 66.264 266.98 65.9128 266.98 65.498C266.98 65.041 266.727 64.6813 266.219 64.4189C265.719 64.1566 264.945 64.0127 263.896 63.9873L262.816 63.9619ZM276.134 52.2441C277.259 52.2441 278.284 52.4896 279.206 52.9805C280.137 53.4629 280.873 54.1569 281.415 55.0625C281.957 55.9596 282.228 57.0049 282.228 58.1982C282.228 59.3916 281.957 60.4495 281.415 61.3721C280.873 62.2861 280.15 62.9971 279.244 63.5049C278.339 64.0042 277.348 64.2539 276.273 64.2539C275.207 64.2539 274.208 63.9958 273.277 63.4795C272.346 62.9632 271.602 62.248 271.043 61.334C270.484 60.4115 270.205 59.3704 270.205 58.2109C270.205 57.0514 270.476 56.0189 271.018 55.1133C271.559 54.1992 272.283 53.4925 273.188 52.9932C274.103 52.4938 275.084 52.2441 276.134 52.2441ZM276.438 63.2637C277.513 63.2637 278.33 62.8786 278.889 62.1084C279.447 61.3382 279.727 60.3268 279.727 59.0742C279.727 57.9909 279.574 56.9964 279.27 56.0908C278.973 55.1768 278.546 54.4489 277.987 53.9072C277.429 53.3656 276.785 53.0947 276.058 53.0947C275.414 53.0947 274.843 53.2513 274.344 53.5645C273.853 53.8776 273.464 54.36 273.176 55.0117C272.888 55.6634 272.744 56.4801 272.744 57.4619C272.744 58.4268 272.896 59.3577 273.201 60.2549C273.506 61.1436 273.938 61.8672 274.496 62.4258C275.055 62.9844 275.702 63.2637 276.438 63.2637ZM290.251 52.2441C291.377 52.2441 292.401 52.4896 293.323 52.9805C294.254 53.4629 294.991 54.1569 295.532 55.0625C296.074 55.9596 296.345 57.0049 296.345 58.1982C296.345 59.3916 296.074 60.4495 295.532 61.3721C294.991 62.2861 294.267 62.9971 293.361 63.5049C292.456 64.0042 291.465 64.2539 290.391 64.2539C289.324 64.2539 288.326 63.9958 287.395 63.4795C286.464 62.9632 285.719 62.248 285.16 61.334C284.602 60.4115 284.322 59.3704 284.322 58.2109C284.322 57.0514 284.593 56.0189 285.135 55.1133C285.676 54.1992 286.4 53.4925 287.306 52.9932C288.22 52.4938 289.201 52.2441 290.251 52.2441ZM290.556 63.2637C291.631 63.2637 292.447 62.8786 293.006 62.1084C293.564 61.3382 293.844 60.3268 293.844 59.0742C293.844 57.9909 293.691 56.9964 293.387 56.0908C293.09 55.1768 292.663 54.4489 292.104 53.9072C291.546 53.3656 290.903 53.0947 290.175 53.0947C289.532 53.0947 288.96 53.2513 288.461 53.5645C287.97 53.8776 287.581 54.36 287.293 55.0117C287.005 55.6634 286.861 56.4801 286.861 57.4619C286.861 58.4268 287.014 59.3577 287.318 60.2549C287.623 61.1436 288.055 61.8672 288.613 62.4258C289.172 62.9844 289.819 63.2637 290.556 63.2637ZM307.834 49.083C307.724 48.9137 307.508 48.7445 307.187 48.5752C306.873 48.4059 306.564 48.262 306.26 48.1436C305.964 48.0251 305.769 47.9531 305.676 47.9277L305.701 47.4834L309.281 46.6201L310.195 46.5312V61.4736C310.195 61.9814 310.411 62.3454 310.843 62.5654C311.283 62.7855 311.753 62.8955 312.252 62.8955V63.5938L308.862 64.1523H308.012L307.897 62.1846C307.297 62.8786 306.666 63.3991 306.006 63.7461C305.346 64.0846 304.639 64.2539 303.886 64.2539C302.929 64.2539 302.053 64.0254 301.258 63.5684C300.471 63.1029 299.849 62.4554 299.392 61.626C298.935 60.7881 298.706 59.8275 298.706 58.7441C298.706 57.5 298.96 56.387 299.468 55.4053C299.984 54.4235 300.691 53.6576 301.588 53.1074C302.485 52.5573 303.488 52.2822 304.597 52.2822C305.113 52.2822 305.617 52.3626 306.107 52.5234C306.598 52.6758 307.174 52.9085 307.834 53.2217V49.083ZM307.834 57.5254C307.834 56.7044 307.762 56.0443 307.618 55.5449C307.474 55.0371 307.182 54.5885 306.742 54.1992C306.404 53.903 306.04 53.6745 305.65 53.5137C305.261 53.3444 304.868 53.2598 304.47 53.2598C303.801 53.2598 303.209 53.4756 302.692 53.9072C302.176 54.3389 301.774 54.9144 301.486 55.6338C301.207 56.3447 301.067 57.1149 301.067 57.9443C301.067 58.7484 301.207 59.5186 301.486 60.2549C301.774 60.9827 302.201 61.5794 302.769 62.0449C303.336 62.5104 304.021 62.7432 304.825 62.7432C305.468 62.7432 306.04 62.6035 306.539 62.3242C307.047 62.0365 307.479 61.6556 307.834 61.1816V57.5254ZM48.9639 94.0166C48.9639 94.6598 49.0654 95.1423 49.2686 95.4639C49.4717 95.777 49.7044 95.9801 49.9668 96.0732C50.2292 96.1663 50.6396 96.2637 51.1982 96.3652C51.1982 96.4922 51.194 96.6191 51.1855 96.7461C51.1771 96.873 51.1729 96.9577 51.1729 97H44.6221V96.3271C44.639 96.3187 44.7575 96.2848 44.9775 96.2256C45.4007 96.124 45.7477 96.0055 46.0186 95.8701C46.2894 95.7262 46.4544 95.5104 46.5137 95.2227C46.556 95.0788 46.5814 94.9349 46.5898 94.791C46.5983 94.6387 46.6025 94.4355 46.6025 94.1816V87.7832C46.501 87.5801 46.2979 87.4023 45.9932 87.25C45.6969 87.0892 45.388 86.958 45.0664 86.8564C44.7448 86.7464 44.584 86.6956 44.584 86.7041L44.6221 86.2725L48.1133 85.4092L48.8623 85.3584L49.002 87.4277C49.5013 86.776 50.0895 86.2513 50.7666 85.8535C51.4437 85.4473 52.2012 85.2441 53.0391 85.2441C53.8685 85.2441 54.554 85.4134 55.0957 85.752C55.6374 86.0905 56.0521 86.6025 56.3398 87.2881C56.7461 86.8395 57.1312 86.4756 57.4951 86.1963C57.859 85.9085 58.2653 85.6842 58.7139 85.5234C59.1624 85.3542 59.6702 85.2695 60.2373 85.2695C61.346 85.2695 62.2347 85.5319 62.9033 86.0566C63.5804 86.5729 63.9655 87.36 64.0586 88.418C64.1263 89.2135 64.1602 90.0133 64.1602 90.8174V94.1436C64.1602 94.5667 64.1898 94.9264 64.249 95.2227C64.2913 95.4681 64.3971 95.6628 64.5664 95.8066C64.7441 95.9505 64.9176 96.0521 65.0869 96.1113C65.2562 96.1621 65.5524 96.2467 65.9756 96.3652C65.9756 96.4922 65.9714 96.6191 65.9629 96.7461C65.9544 96.8646 65.9502 96.9492 65.9502 97H59.8438C59.8438 96.9492 59.8395 96.8646 59.8311 96.7461C59.8226 96.6191 59.8184 96.4922 59.8184 96.3652C59.8607 96.3568 59.9072 96.3441 59.958 96.3271C60.0173 96.3102 60.0765 96.2933 60.1357 96.2764C60.5758 96.1579 60.9271 96.0309 61.1895 95.8955C61.4518 95.7516 61.6169 95.5358 61.6846 95.248C61.7523 94.9095 61.7861 94.5413 61.7861 94.1436V89.1035C61.7861 88.3079 61.583 87.6943 61.1768 87.2627C60.7705 86.8226 60.1908 86.6025 59.4375 86.6025C58.9128 86.6025 58.3923 86.7591 57.876 87.0723C57.3597 87.377 56.9027 87.7493 56.5049 88.1895C56.5557 88.7734 56.5811 89.7129 56.5811 91.0078V94.0801C56.5811 94.5625 56.6064 94.9349 56.6572 95.1973C56.708 95.502 56.8646 95.7262 57.127 95.8701C57.3978 96.014 57.7533 96.1452 58.1934 96.2637C58.4303 96.3398 58.5446 96.3737 58.5361 96.3652C58.5361 96.4922 58.5319 96.6191 58.5234 96.7461C58.515 96.873 58.5107 96.9577 58.5107 97H52.1631C52.1631 96.9492 52.1589 96.8646 52.1504 96.7461C52.1419 96.6191 52.1377 96.4922 52.1377 96.3652C52.1715 96.3568 52.3747 96.3187 52.7471 96.251C53.1279 96.1748 53.4665 95.9505 53.7627 95.5781C54.0589 95.1973 54.207 94.7021 54.207 94.0928V89.6748C54.207 88.6846 54.0505 87.9271 53.7373 87.4023C53.4242 86.8776 52.8783 86.6152 52.0996 86.6152C51.4902 86.6152 50.9359 86.776 50.4365 87.0977C49.9456 87.4108 49.4548 87.8424 48.9639 88.3926V94.0166ZM69.6064 90.3223C69.598 90.4069 69.5938 90.5296 69.5938 90.6904C69.5938 91.7568 69.7842 92.6497 70.165 93.3691C70.5544 94.0801 71.0706 94.609 71.7139 94.9561C72.3656 95.2946 73.0934 95.4639 73.8975 95.4639C74.9639 95.4639 75.9922 95.1592 76.9824 94.5498L77.3506 94.9053C77.1475 95.3962 76.8047 95.8193 76.3223 96.1748C75.8483 96.5303 75.3066 96.8011 74.6973 96.9873C74.0964 97.165 73.5124 97.2539 72.9453 97.2539C71.8789 97.2539 70.9183 97.0042 70.0635 96.5049C69.2171 96.0055 68.5527 95.3073 68.0703 94.4102C67.5964 93.513 67.3594 92.4847 67.3594 91.3252C67.3594 90.1488 67.6175 89.0993 68.1338 88.1768C68.6501 87.2458 69.3356 86.5264 70.1904 86.0186C71.0537 85.5023 71.9762 85.2441 72.958 85.2441C73.762 85.2441 74.4857 85.4092 75.1289 85.7393C75.7806 86.0609 76.3096 86.5179 76.7158 87.1104C77.1221 87.6943 77.3802 88.3672 77.4902 89.1289C77.5833 89.5182 77.6299 89.8779 77.6299 90.208V90.3223H69.6064ZM74.1768 89.5098C74.5492 89.4928 74.8623 89.4251 75.1162 89.3066C75.057 88.2995 74.82 87.5124 74.4053 86.9453C73.999 86.3783 73.4193 86.0947 72.666 86.0947C72.1159 86.0947 71.625 86.2598 71.1934 86.5898C70.7702 86.9199 70.4274 87.36 70.165 87.9102C69.9027 88.4518 69.7334 89.0485 69.6572 89.7002L74.1768 89.5098ZM86.5547 89.2686C86.5547 88.6338 86.4954 88.0964 86.377 87.6562C86.2669 87.2161 86.0384 86.8607 85.6914 86.5898C85.3529 86.319 84.8662 86.1836 84.2314 86.1836C84.0114 86.1836 83.7406 86.2301 83.4189 86.3232C83.0973 86.4163 82.8138 86.5518 82.5684 86.7295C82.3314 86.8988 82.2129 87.0977 82.2129 87.3262C82.2129 87.4193 82.2298 87.5124 82.2637 87.6055C82.2975 87.6901 82.3525 87.8001 82.4287 87.9355C82.5049 88.0625 82.5599 88.1725 82.5938 88.2656C82.6276 88.3587 82.6445 88.4561 82.6445 88.5576C82.6445 88.8962 82.5345 89.1797 82.3145 89.4082C82.1029 89.6283 81.8278 89.7383 81.4893 89.7383C81.0661 89.7383 80.7275 89.5817 80.4736 89.2686C80.2282 88.9554 80.1055 88.5788 80.1055 88.1387C80.1055 87.4785 80.3636 86.9326 80.8799 86.501C81.3962 86.0693 82.0182 85.752 82.7461 85.5488C83.4824 85.3457 84.168 85.2441 84.8027 85.2441C85.9961 85.2441 86.8848 85.4219 87.4688 85.7773C88.0612 86.1243 88.4505 86.6364 88.6367 87.3135C88.8314 87.9821 88.9287 88.9215 88.9287 90.1318L88.9033 90.7666C88.8949 90.9528 88.8822 91.2617 88.8652 91.6934C88.8568 92.125 88.8525 92.5228 88.8525 92.8867C88.8525 94.791 89.0514 95.7432 89.4492 95.7432C89.737 95.7432 90.1094 95.4512 90.5664 94.8672L91.0996 95.4385C90.7272 96.0479 90.359 96.5049 89.9951 96.8096C89.6312 97.1058 89.153 97.2539 88.5605 97.2539C88.002 97.2539 87.5407 97.0804 87.1768 96.7334C86.8213 96.3779 86.6266 95.9209 86.5928 95.3623C86.0511 95.9548 85.4417 96.4202 84.7646 96.7588C84.096 97.0889 83.3851 97.2539 82.6318 97.2539C82.1071 97.2539 81.6204 97.1608 81.1719 96.9746C80.7318 96.7799 80.3763 96.4922 80.1055 96.1113C79.8431 95.7305 79.7119 95.2734 79.7119 94.7402C79.7119 93.9362 80.0208 93.2676 80.6387 92.7344C81.2565 92.2012 81.9674 91.7949 82.7715 91.5156C83.5755 91.2363 84.5573 90.957 85.7168 90.6777C85.8184 90.6608 86.0977 90.5931 86.5547 90.4746V89.2686ZM86.5547 91.2236C86.4277 91.266 86.2669 91.3167 86.0723 91.376C85.3444 91.613 84.7223 91.8415 84.2061 92.0615C83.6898 92.2731 83.2285 92.5609 82.8223 92.9248C82.416 93.2887 82.2129 93.7161 82.2129 94.207C82.2129 94.7064 82.3483 95.0999 82.6191 95.3877C82.8984 95.6755 83.2878 95.8193 83.7871 95.8193C84.2865 95.8193 84.7689 95.6966 85.2344 95.4512C85.6999 95.1973 86.14 94.8672 86.5547 94.4609V91.2236ZM96.4062 94.0293C96.4062 94.7402 96.5501 95.2904 96.8379 95.6797C97.1341 96.0605 97.6208 96.2891 98.2979 96.3652C98.2979 96.4922 98.2936 96.6191 98.2852 96.7461C98.2767 96.873 98.2725 96.9577 98.2725 97H92.0264L92.0137 96.3652C92.0898 96.3145 92.1872 96.2679 92.3057 96.2256C92.4326 96.1833 92.5596 96.1452 92.6865 96.1113C93.0589 96.0098 93.3509 95.8997 93.5625 95.7812C93.7741 95.6543 93.901 95.4681 93.9434 95.2227C94.0111 94.8587 94.0449 94.4863 94.0449 94.1055L94.0322 82.1592C93.9307 81.9899 93.7233 81.8249 93.4102 81.6641C93.1055 81.4948 92.805 81.3551 92.5088 81.2451C92.2126 81.1266 92.0221 81.0547 91.9375 81.0293L91.9629 80.585L95.4922 79.6201L96.4062 79.5312V94.0293ZM100.215 99.6406C100.308 99.6068 100.448 99.5645 100.634 99.5137C101.175 99.3444 101.599 99.1878 101.903 99.0439C102.208 98.9001 102.466 98.6885 102.678 98.4092C102.898 98.1299 103.008 97.7575 103.008 97.292C102.889 97.0042 102.724 96.7799 102.513 96.6191C102.31 96.4583 102.043 96.3483 101.713 96.2891C101.315 96.2298 101.006 96.069 100.786 95.8066C100.575 95.5358 100.469 95.1973 100.469 94.791C100.469 94.2917 100.63 93.877 100.951 93.5469C101.281 93.2168 101.713 93.0518 102.246 93.0518C102.703 93.0518 103.118 93.1829 103.49 93.4453C103.863 93.7077 104.155 94.097 104.366 94.6133C104.586 95.1211 104.696 95.7262 104.696 96.4287C104.696 97.2666 104.502 97.9818 104.112 98.5742C103.731 99.1667 103.219 99.6152 102.576 99.9199C101.933 100.225 101.222 100.385 100.443 100.402C100.367 100.284 100.308 100.165 100.266 100.047C100.232 99.9368 100.215 99.8014 100.215 99.6406ZM120.223 89.2686C120.223 88.6338 120.163 88.0964 120.045 87.6562C119.935 87.2161 119.706 86.8607 119.359 86.5898C119.021 86.319 118.534 86.1836 117.899 86.1836C117.679 86.1836 117.409 86.2301 117.087 86.3232C116.765 86.4163 116.482 86.5518 116.236 86.7295C115.999 86.8988 115.881 87.0977 115.881 87.3262C115.881 87.4193 115.898 87.5124 115.932 87.6055C115.965 87.6901 116.021 87.8001 116.097 87.9355C116.173 88.0625 116.228 88.1725 116.262 88.2656C116.296 88.3587 116.312 88.4561 116.312 88.5576C116.312 88.8962 116.202 89.1797 115.982 89.4082C115.771 89.6283 115.496 89.7383 115.157 89.7383C114.734 89.7383 114.396 89.5817 114.142 89.2686C113.896 88.9554 113.773 88.5788 113.773 88.1387C113.773 87.4785 114.032 86.9326 114.548 86.501C115.064 86.0693 115.686 85.752 116.414 85.5488C117.15 85.3457 117.836 85.2441 118.471 85.2441C119.664 85.2441 120.553 85.4219 121.137 85.7773C121.729 86.1243 122.118 86.6364 122.305 87.3135C122.499 87.9821 122.597 88.9215 122.597 90.1318L122.571 90.7666C122.563 90.9528 122.55 91.2617 122.533 91.6934C122.525 92.125 122.521 92.5228 122.521 92.8867C122.521 94.791 122.719 95.7432 123.117 95.7432C123.405 95.7432 123.777 95.4512 124.234 94.8672L124.768 95.4385C124.395 96.0479 124.027 96.5049 123.663 96.8096C123.299 97.1058 122.821 97.2539 122.229 97.2539C121.67 97.2539 121.209 97.0804 120.845 96.7334C120.489 96.3779 120.295 95.9209 120.261 95.3623C119.719 95.9548 119.11 96.4202 118.433 96.7588C117.764 97.0889 117.053 97.2539 116.3 97.2539C115.775 97.2539 115.288 97.1608 114.84 96.9746C114.4 96.7799 114.044 96.4922 113.773 96.1113C113.511 95.7305 113.38 95.2734 113.38 94.7402C113.38 93.9362 113.689 93.2676 114.307 92.7344C114.924 92.2012 115.635 91.7949 116.439 91.5156C117.243 91.2363 118.225 90.957 119.385 90.6777C119.486 90.6608 119.766 90.5931 120.223 90.4746V89.2686ZM120.223 91.2236C120.096 91.266 119.935 91.3167 119.74 91.376C119.012 91.613 118.39 91.8415 117.874 92.0615C117.358 92.2731 116.896 92.5609 116.49 92.9248C116.084 93.2887 115.881 93.7161 115.881 94.207C115.881 94.7064 116.016 95.0999 116.287 95.3877C116.566 95.6755 116.956 95.8193 117.455 95.8193C117.954 95.8193 118.437 95.6966 118.902 95.4512C119.368 95.1973 119.808 94.8672 120.223 94.4609V91.2236ZM143.163 86.7803C142.977 86.721 142.672 86.6914 142.249 86.6914C141.91 86.6914 141.555 86.7083 141.183 86.7422C140.81 86.7676 140.569 86.7887 140.459 86.8057C140.459 86.7887 140.552 86.9115 140.738 87.1738C140.924 87.4277 141.09 87.724 141.233 88.0625C141.386 88.3926 141.462 88.7227 141.462 89.0527C141.462 89.9076 141.246 90.6396 140.814 91.249C140.383 91.8584 139.82 92.3197 139.126 92.6328C138.44 92.9375 137.721 93.0898 136.968 93.0898C136.545 93.0898 136.003 93.0137 135.343 92.8613C135.317 92.8783 135.22 92.9417 135.051 93.0518C134.839 93.1872 134.683 93.3141 134.581 93.4326C134.488 93.5426 134.441 93.7035 134.441 93.915C134.441 94.1266 134.551 94.2874 134.771 94.3975C134.992 94.499 135.288 94.571 135.66 94.6133C136.033 94.6471 136.625 94.681 137.438 94.7148C138.047 94.7402 138.728 94.7783 139.481 94.8291C140.556 94.9053 141.424 95.1846 142.084 95.667C142.744 96.1494 143.074 96.8138 143.074 97.6602C143.074 98.4219 142.791 99.0905 142.224 99.666C141.657 100.242 140.891 100.682 139.926 100.986C138.969 101.299 137.916 101.456 136.765 101.456C135.808 101.456 134.979 101.35 134.276 101.139C133.574 100.936 133.036 100.669 132.664 100.339C132.3 100.017 132.118 99.6829 132.118 99.3359C132.118 98.9635 132.275 98.5531 132.588 98.1045C132.901 97.6559 133.392 97.1862 134.061 96.6953C133.587 96.5007 133.214 96.251 132.943 95.9463C132.681 95.6416 132.55 95.3031 132.55 94.9307C132.55 94.4821 132.732 94.0674 133.096 93.6865C133.46 93.3057 133.976 92.9206 134.645 92.5312C133.976 92.1504 133.46 91.6807 133.096 91.1221C132.732 90.5635 132.55 89.9287 132.55 89.2178C132.55 88.4561 132.736 87.7747 133.108 87.1738C133.489 86.5645 134.014 86.0905 134.683 85.752C135.36 85.4134 136.117 85.2441 136.955 85.2441C137.962 85.2441 138.893 85.4684 139.748 85.917C139.833 85.8831 140.023 85.8197 140.319 85.7266C140.616 85.625 140.967 85.5277 141.373 85.4346C141.788 85.3415 142.164 85.2949 142.503 85.2949C142.621 85.2949 142.74 85.3034 142.858 85.3203C142.985 85.3288 143.066 85.3372 143.1 85.3457L143.163 86.7803ZM134.81 88.9512C134.81 89.916 135.008 90.7074 135.406 91.3252C135.812 91.943 136.413 92.252 137.209 92.252C137.895 92.252 138.402 91.998 138.732 91.4902C139.071 90.9824 139.24 90.2926 139.24 89.4209C139.24 88.7354 139.134 88.1514 138.923 87.6689C138.72 87.1781 138.436 86.8099 138.072 86.5645C137.708 86.3105 137.302 86.1836 136.854 86.1836C136.473 86.1836 136.126 86.3021 135.812 86.5391C135.508 86.7676 135.262 87.0934 135.076 87.5166C134.898 87.9313 134.81 88.4095 134.81 88.9512ZM137.184 96.9619C136.54 96.9535 135.812 96.9027 135 96.8096C134.179 97.512 133.769 98.1553 133.769 98.7393C133.769 99.1455 133.955 99.4714 134.327 99.7168C134.708 99.9707 135.152 100.148 135.66 100.25C136.176 100.352 136.655 100.402 137.095 100.402C137.713 100.402 138.352 100.33 139.012 100.187C139.672 100.051 140.226 99.8395 140.675 99.5518C141.123 99.264 141.348 98.9128 141.348 98.498C141.348 98.041 141.094 97.6813 140.586 97.4189C140.087 97.1566 139.312 97.0127 138.263 96.9873L137.184 96.9619ZM150.501 85.2441C151.627 85.2441 152.651 85.4896 153.573 85.9805C154.504 86.4629 155.241 87.1569 155.782 88.0625C156.324 88.9596 156.595 90.0049 156.595 91.1982C156.595 92.3916 156.324 93.4495 155.782 94.3721C155.241 95.2861 154.517 95.9971 153.611 96.5049C152.706 97.0042 151.715 97.2539 150.641 97.2539C149.574 97.2539 148.576 96.9958 147.645 96.4795C146.714 95.9632 145.969 95.248 145.41 94.334C144.852 93.4115 144.572 92.3704 144.572 91.2109C144.572 90.0514 144.843 89.0189 145.385 88.1133C145.926 87.1992 146.65 86.4925 147.556 85.9932C148.47 85.4938 149.451 85.2441 150.501 85.2441ZM150.806 96.2637C151.881 96.2637 152.697 95.8786 153.256 95.1084C153.814 94.3382 154.094 93.3268 154.094 92.0742C154.094 90.9909 153.941 89.9964 153.637 89.0908C153.34 88.1768 152.913 87.4489 152.354 86.9072C151.796 86.3656 151.153 86.0947 150.425 86.0947C149.782 86.0947 149.21 86.2513 148.711 86.5645C148.22 86.8776 147.831 87.36 147.543 88.0117C147.255 88.6634 147.111 89.4801 147.111 90.4619C147.111 91.4268 147.264 92.3577 147.568 93.2549C147.873 94.1436 148.305 94.8672 148.863 95.4258C149.422 95.9844 150.069 96.2637 150.806 96.2637ZM164.618 85.2441C165.744 85.2441 166.768 85.4896 167.69 85.9805C168.621 86.4629 169.358 87.1569 169.899 88.0625C170.441 88.9596 170.712 90.0049 170.712 91.1982C170.712 92.3916 170.441 93.4495 169.899 94.3721C169.358 95.2861 168.634 95.9971 167.729 96.5049C166.823 97.0042 165.833 97.2539 164.758 97.2539C163.691 97.2539 162.693 96.9958 161.762 96.4795C160.831 95.9632 160.086 95.248 159.527 94.334C158.969 93.4115 158.689 92.3704 158.689 91.2109C158.689 90.0514 158.96 89.0189 159.502 88.1133C160.044 87.1992 160.767 86.4925 161.673 85.9932C162.587 85.4938 163.569 85.2441 164.618 85.2441ZM164.923 96.2637C165.998 96.2637 166.814 95.8786 167.373 95.1084C167.932 94.3382 168.211 93.3268 168.211 92.0742C168.211 90.9909 168.059 89.9964 167.754 89.0908C167.458 88.1768 167.03 87.4489 166.472 86.9072C165.913 86.3656 165.27 86.0947 164.542 86.0947C163.899 86.0947 163.327 86.2513 162.828 86.5645C162.337 86.8776 161.948 87.36 161.66 88.0117C161.372 88.6634 161.229 89.4801 161.229 90.4619C161.229 91.4268 161.381 92.3577 161.686 93.2549C161.99 94.1436 162.422 94.8672 162.98 95.4258C163.539 95.9844 164.187 96.2637 164.923 96.2637ZM182.201 82.083C182.091 81.9137 181.875 81.7445 181.554 81.5752C181.241 81.4059 180.932 81.262 180.627 81.1436C180.331 81.0251 180.136 80.9531 180.043 80.9277L180.068 80.4834L183.648 79.6201L184.562 79.5312V94.4736C184.562 94.9814 184.778 95.3454 185.21 95.5654C185.65 95.7855 186.12 95.8955 186.619 95.8955V96.5938L183.229 97.1523H182.379L182.265 95.1846C181.664 95.8786 181.033 96.3991 180.373 96.7461C179.713 97.0846 179.006 97.2539 178.253 97.2539C177.297 97.2539 176.421 97.0254 175.625 96.5684C174.838 96.1029 174.216 95.4554 173.759 94.626C173.302 93.7881 173.073 92.8275 173.073 91.7441C173.073 90.5 173.327 89.387 173.835 88.4053C174.351 87.4235 175.058 86.6576 175.955 86.1074C176.852 85.5573 177.855 85.2822 178.964 85.2822C179.48 85.2822 179.984 85.3626 180.475 85.5234C180.965 85.6758 181.541 85.9085 182.201 86.2217V82.083ZM182.201 90.5254C182.201 89.7044 182.129 89.0443 181.985 88.5449C181.841 88.0371 181.549 87.5885 181.109 87.1992C180.771 86.903 180.407 86.6745 180.018 86.5137C179.628 86.3444 179.235 86.2598 178.837 86.2598C178.168 86.2598 177.576 86.4756 177.06 86.9072C176.543 87.3389 176.141 87.9144 175.854 88.6338C175.574 89.3447 175.435 90.1149 175.435 90.9443C175.435 91.7484 175.574 92.5186 175.854 93.2549C176.141 93.9827 176.569 94.5794 177.136 95.0449C177.703 95.5104 178.388 95.7432 179.192 95.7432C179.836 95.7432 180.407 95.6035 180.906 95.3242C181.414 95.0365 181.846 94.6556 182.201 94.1816V90.5254ZM198.058 94.0166C198.058 94.6598 198.159 95.1423 198.362 95.4639C198.565 95.777 198.798 95.9801 199.061 96.0732C199.323 96.1663 199.733 96.2637 200.292 96.3652C200.292 96.4922 200.288 96.6191 200.279 96.7461C200.271 96.873 200.267 96.9577 200.267 97H193.716V96.3271C193.733 96.3187 193.851 96.2848 194.071 96.2256C194.494 96.124 194.841 96.0055 195.112 95.8701C195.383 95.7262 195.548 95.5104 195.607 95.2227C195.65 95.0788 195.675 94.9349 195.684 94.791C195.692 94.6387 195.696 94.4355 195.696 94.1816V87.7832C195.595 87.5801 195.392 87.4023 195.087 87.25C194.791 87.0892 194.482 86.958 194.16 86.8564C193.839 86.7464 193.678 86.6956 193.678 86.7041L193.716 86.2725L197.207 85.4092L197.956 85.3584L198.096 87.4277C198.595 86.776 199.183 86.2513 199.86 85.8535C200.537 85.4473 201.295 85.2441 202.133 85.2441C202.962 85.2441 203.648 85.4134 204.189 85.752C204.731 86.0905 205.146 86.6025 205.434 87.2881C205.84 86.8395 206.225 86.4756 206.589 86.1963C206.953 85.9085 207.359 85.6842 207.808 85.5234C208.256 85.3542 208.764 85.2695 209.331 85.2695C210.44 85.2695 211.328 85.5319 211.997 86.0566C212.674 86.5729 213.059 87.36 213.152 88.418C213.22 89.2135 213.254 90.0133 213.254 90.8174V94.1436C213.254 94.5667 213.284 94.9264 213.343 95.2227C213.385 95.4681 213.491 95.6628 213.66 95.8066C213.838 95.9505 214.011 96.0521 214.181 96.1113C214.35 96.1621 214.646 96.2467 215.069 96.3652C215.069 96.4922 215.065 96.6191 215.057 96.7461C215.048 96.8646 215.044 96.9492 215.044 97H208.938C208.938 96.9492 208.933 96.8646 208.925 96.7461C208.916 96.6191 208.912 96.4922 208.912 96.3652C208.954 96.3568 209.001 96.3441 209.052 96.3271C209.111 96.3102 209.17 96.2933 209.229 96.2764C209.67 96.1579 210.021 96.0309 210.283 95.8955C210.546 95.7516 210.711 95.5358 210.778 95.248C210.846 94.9095 210.88 94.5413 210.88 94.1436V89.1035C210.88 88.3079 210.677 87.6943 210.271 87.2627C209.864 86.8226 209.285 86.6025 208.531 86.6025C208.007 86.6025 207.486 86.7591 206.97 87.0723C206.453 87.377 205.996 87.7493 205.599 88.1895C205.649 88.7734 205.675 89.7129 205.675 91.0078V94.0801C205.675 94.5625 205.7 94.9349 205.751 95.1973C205.802 95.502 205.958 95.7262 206.221 95.8701C206.492 96.014 206.847 96.1452 207.287 96.2637C207.524 96.3398 207.638 96.3737 207.63 96.3652C207.63 96.4922 207.626 96.6191 207.617 96.7461C207.609 96.873 207.604 96.9577 207.604 97H201.257C201.257 96.9492 201.253 96.8646 201.244 96.7461C201.236 96.6191 201.231 96.4922 201.231 96.3652C201.265 96.3568 201.468 96.3187 201.841 96.251C202.222 96.1748 202.56 95.9505 202.856 95.5781C203.153 95.1973 203.301 94.7021 203.301 94.0928V89.6748C203.301 88.6846 203.144 87.9271 202.831 87.4023C202.518 86.8776 201.972 86.6152 201.193 86.6152C200.584 86.6152 200.03 86.776 199.53 87.0977C199.039 87.4108 198.549 87.8424 198.058 88.3926V94.0166ZM222.382 85.2441C223.507 85.2441 224.532 85.4896 225.454 85.9805C226.385 86.4629 227.121 87.1569 227.663 88.0625C228.205 88.9596 228.476 90.0049 228.476 91.1982C228.476 92.3916 228.205 93.4495 227.663 94.3721C227.121 95.2861 226.398 95.9971 225.492 96.5049C224.587 97.0042 223.596 97.2539 222.521 97.2539C221.455 97.2539 220.456 96.9958 219.525 96.4795C218.594 95.9632 217.85 95.248 217.291 94.334C216.732 93.4115 216.453 92.3704 216.453 91.2109C216.453 90.0514 216.724 89.0189 217.266 88.1133C217.807 87.1992 218.531 86.4925 219.437 85.9932C220.351 85.4938 221.332 85.2441 222.382 85.2441ZM222.687 96.2637C223.761 96.2637 224.578 95.8786 225.137 95.1084C225.695 94.3382 225.975 93.3268 225.975 92.0742C225.975 90.9909 225.822 89.9964 225.518 89.0908C225.221 88.1768 224.794 87.4489 224.235 86.9072C223.677 86.3656 223.034 86.0947 222.306 86.0947C221.662 86.0947 221.091 86.2513 220.592 86.5645C220.101 86.8776 219.712 87.36 219.424 88.0117C219.136 88.6634 218.992 89.4801 218.992 90.4619C218.992 91.4268 219.145 92.3577 219.449 93.2549C219.754 94.1436 220.186 94.8672 220.744 95.4258C221.303 95.9844 221.95 96.2637 222.687 96.2637ZM235.318 97.1523C235.217 97.2031 235.09 97.2285 234.938 97.2285C234.777 97.2285 234.65 97.2031 234.557 97.1523L230.672 87.8086C230.528 87.4531 230.397 87.1908 230.278 87.0215C230.16 86.8438 230.046 86.721 229.936 86.6533C229.826 86.5856 229.669 86.5221 229.466 86.4629C229.254 86.3952 229.06 86.3232 228.882 86.2471V85.5869H234.595C234.595 85.6546 234.603 85.7562 234.62 85.8916C234.646 86.027 234.658 86.154 234.658 86.2725C234.108 86.4248 233.698 86.5729 233.427 86.7168C233.156 86.8607 233.021 87.0723 233.021 87.3516C233.021 87.4362 233.042 87.5505 233.084 87.6943L235.674 94.0801L237.857 88.7607C238.094 88.1768 238.213 87.7282 238.213 87.415C238.188 87.1188 238.044 86.8945 237.781 86.7422C237.527 86.5814 237.121 86.4333 236.562 86.2979C236.554 86.2471 236.55 86.1497 236.55 86.0059C236.55 85.9043 236.55 85.8154 236.55 85.7393C236.558 85.6631 236.562 85.6123 236.562 85.5869H241.285C241.302 85.7308 241.311 85.9466 241.311 86.2344C241.15 86.3275 240.993 86.4036 240.841 86.4629C240.595 86.5729 240.392 86.6787 240.231 86.7803C240.079 86.8734 239.914 87.0215 239.736 87.2246C239.567 87.4277 239.406 87.6986 239.254 88.0371L235.318 97.1523ZM245.437 79.5312C245.843 79.5312 246.19 79.6751 246.478 79.9629C246.765 80.2507 246.909 80.5977 246.909 81.0039C246.909 81.4186 246.765 81.7699 246.478 82.0576C246.19 82.3369 245.843 82.4766 245.437 82.4766C245.022 82.4766 244.671 82.3369 244.383 82.0576C244.104 81.7699 243.964 81.4186 243.964 81.0039C243.964 80.5977 244.104 80.2507 244.383 79.9629C244.671 79.6751 245.022 79.5312 245.437 79.5312ZM244.421 87.7705C244.311 87.5758 244.104 87.4023 243.799 87.25C243.503 87.0892 243.194 86.958 242.872 86.8564C242.559 86.7464 242.402 86.6956 242.402 86.7041L242.428 86.2598L245.995 85.3965L246.782 85.3457V94.207C246.782 94.5033 246.812 94.7826 246.871 95.0449C246.939 95.3073 247.133 95.5739 247.455 95.8447C247.785 96.1156 248.301 96.2891 249.004 96.3652C249.004 96.6445 249 96.8561 248.991 97H242.364C242.347 96.8477 242.339 96.6361 242.339 96.3652L242.694 96.2637C243.067 96.1621 243.367 96.0605 243.596 95.959C243.824 95.8574 244.019 95.7093 244.18 95.5146C244.34 95.3115 244.421 95.0407 244.421 94.7021V87.7705ZM252.546 90.3223C252.537 90.4069 252.533 90.5296 252.533 90.6904C252.533 91.7568 252.724 92.6497 253.104 93.3691C253.494 94.0801 254.01 94.609 254.653 94.9561C255.305 95.2946 256.033 95.4639 256.837 95.4639C257.903 95.4639 258.932 95.1592 259.922 94.5498L260.29 94.9053C260.087 95.3962 259.744 95.8193 259.262 96.1748C258.788 96.5303 258.246 96.8011 257.637 96.9873C257.036 97.165 256.452 97.2539 255.885 97.2539C254.818 97.2539 253.858 97.0042 253.003 96.5049C252.157 96.0055 251.492 95.3073 251.01 94.4102C250.536 93.513 250.299 92.4847 250.299 91.3252C250.299 90.1488 250.557 89.0993 251.073 88.1768C251.59 87.2458 252.275 86.5264 253.13 86.0186C253.993 85.5023 254.916 85.2441 255.897 85.2441C256.701 85.2441 257.425 85.4092 258.068 85.7393C258.72 86.0609 259.249 86.5179 259.655 87.1104C260.062 87.6943 260.32 88.3672 260.43 89.1289C260.523 89.5182 260.569 89.8779 260.569 90.208V90.3223H252.546ZM257.116 89.5098C257.489 89.4928 257.802 89.4251 258.056 89.3066C257.996 88.2995 257.759 87.5124 257.345 86.9453C256.938 86.3783 256.359 86.0947 255.605 86.0947C255.055 86.0947 254.564 86.2598 254.133 86.5898C253.71 86.9199 253.367 87.36 253.104 87.9102C252.842 88.4518 252.673 89.0485 252.597 89.7002L257.116 89.5098ZM262.74 99.6406C262.833 99.6068 262.973 99.5645 263.159 99.5137C263.701 99.3444 264.124 99.1878 264.429 99.0439C264.733 98.9001 264.992 98.6885 265.203 98.4092C265.423 98.1299 265.533 97.7575 265.533 97.292C265.415 97.0042 265.25 96.7799 265.038 96.6191C264.835 96.4583 264.568 96.3483 264.238 96.2891C263.84 96.2298 263.532 96.069 263.312 95.8066C263.1 95.5358 262.994 95.1973 262.994 94.791C262.994 94.2917 263.155 93.877 263.477 93.5469C263.807 93.2168 264.238 93.0518 264.771 93.0518C265.229 93.0518 265.643 93.1829 266.016 93.4453C266.388 93.7077 266.68 94.097 266.892 94.6133C267.112 95.1211 267.222 95.7262 267.222 96.4287C267.222 97.2666 267.027 97.9818 266.638 98.5742C266.257 99.1667 265.745 99.6152 265.102 99.9199C264.458 100.225 263.747 100.385 262.969 100.402C262.893 100.284 262.833 100.165 262.791 100.047C262.757 99.9368 262.74 99.8014 262.74 99.6406ZM286.722 86.7803C286.535 86.721 286.231 86.6914 285.808 86.6914C285.469 86.6914 285.114 86.7083 284.741 86.7422C284.369 86.7676 284.128 86.7887 284.018 86.8057C284.018 86.7887 284.111 86.9115 284.297 87.1738C284.483 87.4277 284.648 87.724 284.792 88.0625C284.944 88.3926 285.021 88.7227 285.021 89.0527C285.021 89.9076 284.805 90.6396 284.373 91.249C283.941 91.8584 283.379 92.3197 282.685 92.6328C281.999 92.9375 281.28 93.0898 280.526 93.0898C280.103 93.0898 279.562 93.0137 278.901 92.8613C278.876 92.8783 278.779 92.9417 278.609 93.0518C278.398 93.1872 278.241 93.3141 278.14 93.4326C278.047 93.5426 278 93.7035 278 93.915C278 94.1266 278.11 94.2874 278.33 94.3975C278.55 94.499 278.846 94.571 279.219 94.6133C279.591 94.6471 280.184 94.681 280.996 94.7148C281.605 94.7402 282.287 94.7783 283.04 94.8291C284.115 94.9053 284.982 95.1846 285.643 95.667C286.303 96.1494 286.633 96.8138 286.633 97.6602C286.633 98.4219 286.349 99.0905 285.782 99.666C285.215 100.242 284.449 100.682 283.484 100.986C282.528 101.299 281.474 101.456 280.323 101.456C279.367 101.456 278.537 101.35 277.835 101.139C277.132 100.936 276.595 100.669 276.223 100.339C275.859 100.017 275.677 99.6829 275.677 99.3359C275.677 98.9635 275.833 98.5531 276.146 98.1045C276.46 97.6559 276.951 97.1862 277.619 96.6953C277.145 96.5007 276.773 96.251 276.502 95.9463C276.24 95.6416 276.108 95.3031 276.108 94.9307C276.108 94.4821 276.29 94.0674 276.654 93.6865C277.018 93.3057 277.535 92.9206 278.203 92.5312C277.535 92.1504 277.018 91.6807 276.654 91.1221C276.29 90.5635 276.108 89.9287 276.108 89.2178C276.108 88.4561 276.295 87.7747 276.667 87.1738C277.048 86.5645 277.573 86.0905 278.241 85.752C278.918 85.4134 279.676 85.2441 280.514 85.2441C281.521 85.2441 282.452 85.4684 283.307 85.917C283.391 85.8831 283.582 85.8197 283.878 85.7266C284.174 85.625 284.525 85.5277 284.932 85.4346C285.346 85.3415 285.723 85.2949 286.062 85.2949C286.18 85.2949 286.299 85.3034 286.417 85.3203C286.544 85.3288 286.624 85.3372 286.658 85.3457L286.722 86.7803ZM278.368 88.9512C278.368 89.916 278.567 90.7074 278.965 91.3252C279.371 91.943 279.972 92.252 280.768 92.252C281.453 92.252 281.961 91.998 282.291 91.4902C282.63 90.9824 282.799 90.2926 282.799 89.4209C282.799 88.7354 282.693 88.1514 282.481 87.6689C282.278 87.1781 281.995 86.8099 281.631 86.5645C281.267 86.3105 280.861 86.1836 280.412 86.1836C280.031 86.1836 279.684 86.3021 279.371 86.5391C279.066 86.7676 278.821 87.0934 278.635 87.5166C278.457 87.9313 278.368 88.4095 278.368 88.9512ZM280.742 96.9619C280.099 96.9535 279.371 96.9027 278.559 96.8096C277.738 97.512 277.327 98.1553 277.327 98.7393C277.327 99.1455 277.513 99.4714 277.886 99.7168C278.267 99.9707 278.711 100.148 279.219 100.25C279.735 100.352 280.213 100.402 280.653 100.402C281.271 100.402 281.91 100.33 282.57 100.187C283.23 100.051 283.785 99.8395 284.233 99.5518C284.682 99.264 284.906 98.9128 284.906 98.498C284.906 98.041 284.652 97.6813 284.145 97.4189C283.645 97.1566 282.871 97.0127 281.821 96.9873L280.742 96.9619ZM292.346 94.0674C292.346 94.4652 292.388 94.8206 292.473 95.1338C292.566 95.4385 292.782 95.7093 293.12 95.9463C293.459 96.1833 293.966 96.3229 294.644 96.3652L294.631 97H288.017C288.017 96.9323 288.012 96.8223 288.004 96.6699C288.004 96.5176 288.008 96.3991 288.017 96.3145L288.436 96.2002C288.884 96.0817 289.206 95.9717 289.4 95.8701C289.595 95.7686 289.739 95.5908 289.832 95.3369C289.934 95.0745 289.984 94.6768 289.984 94.1436V87.7578C289.874 87.5716 289.671 87.4023 289.375 87.25C289.079 87.0892 288.77 86.958 288.448 86.8564C288.135 86.7549 287.979 86.7083 287.979 86.7168L288.004 86.2725L291.381 85.3711H292.104L292.308 87.707C292.782 86.8353 293.272 86.2174 293.78 85.8535C294.297 85.4896 294.885 85.3076 295.545 85.3076C295.883 85.3076 296.188 85.3796 296.459 85.5234C296.738 85.6589 296.954 85.8366 297.106 86.0566C297.267 86.2682 297.348 86.484 297.348 86.7041C297.348 86.848 297.305 87.0426 297.221 87.2881C297.145 87.5335 297.022 87.7493 296.853 87.9355C296.692 88.1217 296.493 88.2148 296.256 88.2148C295.985 88.2148 295.773 88.1556 295.621 88.0371C295.469 87.9102 295.312 87.724 295.151 87.4785C295.033 87.2923 294.919 87.1527 294.809 87.0596C294.707 86.9665 294.576 86.9199 294.415 86.9199C294.144 86.9199 293.899 87.0003 293.679 87.1611C293.467 87.3135 293.281 87.5039 293.12 87.7324C292.959 87.9609 292.765 88.2656 292.536 88.6465L292.346 88.9639V94.0674ZM300.585 90.3223C300.576 90.4069 300.572 90.5296 300.572 90.6904C300.572 91.7568 300.763 92.6497 301.144 93.3691C301.533 94.0801 302.049 94.609 302.692 94.9561C303.344 95.2946 304.072 95.4639 304.876 95.4639C305.942 95.4639 306.971 95.1592 307.961 94.5498L308.329 94.9053C308.126 95.3962 307.783 95.8193 307.301 96.1748C306.827 96.5303 306.285 96.8011 305.676 96.9873C305.075 97.165 304.491 97.2539 303.924 97.2539C302.857 97.2539 301.897 97.0042 301.042 96.5049C300.196 96.0055 299.531 95.3073 299.049 94.4102C298.575 93.513 298.338 92.4847 298.338 91.3252C298.338 90.1488 298.596 89.0993 299.112 88.1768C299.629 87.2458 300.314 86.5264 301.169 86.0186C302.032 85.5023 302.955 85.2441 303.937 85.2441C304.741 85.2441 305.464 85.4092 306.107 85.7393C306.759 86.0609 307.288 86.5179 307.694 87.1104C308.101 87.6943 308.359 88.3672 308.469 89.1289C308.562 89.5182 308.608 89.8779 308.608 90.208V90.3223H300.585ZM305.155 89.5098C305.528 89.4928 305.841 89.4251 306.095 89.3066C306.035 88.2995 305.799 87.5124 305.384 86.9453C304.978 86.3783 304.398 86.0947 303.645 86.0947C303.094 86.0947 302.604 86.2598 302.172 86.5898C301.749 86.9199 301.406 87.36 301.144 87.9102C300.881 88.4518 300.712 89.0485 300.636 89.7002L305.155 89.5098ZM317.533 89.2686C317.533 88.6338 317.474 88.0964 317.355 87.6562C317.245 87.2161 317.017 86.8607 316.67 86.5898C316.331 86.319 315.845 86.1836 315.21 86.1836C314.99 86.1836 314.719 86.2301 314.397 86.3232C314.076 86.4163 313.792 86.5518 313.547 86.7295C313.31 86.8988 313.191 87.0977 313.191 87.3262C313.191 87.4193 313.208 87.5124 313.242 87.6055C313.276 87.6901 313.331 87.8001 313.407 87.9355C313.483 88.0625 313.538 88.1725 313.572 88.2656C313.606 88.3587 313.623 88.4561 313.623 88.5576C313.623 88.8962 313.513 89.1797 313.293 89.4082C313.081 89.6283 312.806 89.7383 312.468 89.7383C312.045 89.7383 311.706 89.5817 311.452 89.2686C311.207 88.9554 311.084 88.5788 311.084 88.1387C311.084 87.4785 311.342 86.9326 311.858 86.501C312.375 86.0693 312.997 85.752 313.725 85.5488C314.461 85.3457 315.146 85.2441 315.781 85.2441C316.975 85.2441 317.863 85.4219 318.447 85.7773C319.04 86.1243 319.429 86.6364 319.615 87.3135C319.81 87.9821 319.907 88.9215 319.907 90.1318L319.882 90.7666C319.873 90.9528 319.861 91.2617 319.844 91.6934C319.835 92.125 319.831 92.5228 319.831 92.8867C319.831 94.791 320.03 95.7432 320.428 95.7432C320.715 95.7432 321.088 95.4512 321.545 94.8672L322.078 95.4385C321.706 96.0479 321.338 96.5049 320.974 96.8096C320.61 97.1058 320.132 97.2539 319.539 97.2539C318.98 97.2539 318.519 97.0804 318.155 96.7334C317.8 96.3779 317.605 95.9209 317.571 95.3623C317.03 95.9548 316.42 96.4202 315.743 96.7588C315.075 97.0889 314.364 97.2539 313.61 97.2539C313.086 97.2539 312.599 97.1608 312.15 96.9746C311.71 96.7799 311.355 96.4922 311.084 96.1113C310.822 95.7305 310.69 95.2734 310.69 94.7402C310.69 93.9362 310.999 93.2676 311.617 92.7344C312.235 92.2012 312.946 91.7949 313.75 91.5156C314.554 91.2363 315.536 90.957 316.695 90.6777C316.797 90.6608 317.076 90.5931 317.533 90.4746V89.2686ZM317.533 91.2236C317.406 91.266 317.245 91.3167 317.051 91.376C316.323 91.613 315.701 91.8415 315.185 92.0615C314.668 92.2731 314.207 92.5609 313.801 92.9248C313.395 93.2887 313.191 93.7161 313.191 94.207C313.191 94.7064 313.327 95.0999 313.598 95.3877C313.877 95.6755 314.266 95.8193 314.766 95.8193C315.265 95.8193 315.747 95.6966 316.213 95.4512C316.678 95.1973 317.118 94.8672 317.533 94.4609V91.2236ZM327.067 93.0137C327.067 93.877 327.097 94.4948 327.156 94.8672C327.215 95.2311 327.359 95.4977 327.588 95.667C327.816 95.8278 328.201 95.9082 328.743 95.9082C329.065 95.9082 329.386 95.8786 329.708 95.8193C330.03 95.7601 330.3 95.6966 330.521 95.6289L330.622 96.5557C330.19 96.7673 329.755 96.9365 329.314 97.0635C328.874 97.1904 328.345 97.2539 327.728 97.2539C326.907 97.2539 326.28 97.1185 325.849 96.8477C325.417 96.5768 325.117 96.141 324.947 95.54C324.778 94.9307 324.693 94.0758 324.693 92.9756V86.5391H322.802V86.0947C323.377 85.8662 323.86 85.5996 324.249 85.2949C324.647 84.9818 324.973 84.6602 325.227 84.3301C325.48 84 325.785 83.5641 326.141 83.0225C326.293 82.777 326.411 82.6162 326.496 82.54C326.581 82.4554 326.665 82.4131 326.75 82.4131C326.835 82.4131 326.902 82.4554 326.953 82.54C327.012 82.6162 327.042 82.7389 327.042 82.9082V85.5869H330.229V86.5391H327.067V93.0137ZM48.9766 131.828C48.9766 132.607 49.1585 133.165 49.5225 133.504C49.8949 133.851 50.4915 134.071 51.3125 134.164C51.3125 134.291 51.3083 134.414 51.2998 134.532C51.2913 134.659 51.2871 134.748 51.2871 134.799H44.5967C44.5967 134.748 44.5924 134.659 44.584 134.532C44.5755 134.414 44.5713 134.291 44.5713 134.164C45.2399 134.071 45.7477 133.842 46.0947 133.479C46.4417 133.123 46.6152 132.611 46.6152 131.942V120.936C46.4714 120.682 46.1963 120.449 45.79 120.237C45.3923 120.026 44.9987 119.848 44.6094 119.704L44.5078 119.666V119.234L47.9355 118.346H48.7988L48.9004 120.428C49.5267 119.734 50.1572 119.196 50.792 118.815C51.4268 118.435 52.1504 118.244 52.9629 118.244C53.9193 118.244 54.7699 118.477 55.5146 118.942C56.2594 119.399 56.8392 120.06 57.2539 120.923C57.6686 121.778 57.876 122.785 57.876 123.944C57.876 125.18 57.6221 126.276 57.1143 127.232C56.6149 128.18 55.9251 128.921 55.0449 129.454C54.1647 129.979 53.1787 130.241 52.0869 130.241C51.5199 130.241 50.974 130.14 50.4492 129.937C49.9245 129.733 49.4336 129.437 48.9766 129.048V131.828ZM48.9766 125.595C48.9766 126.289 49.1035 126.907 49.3574 127.448C49.6198 127.981 50.0007 128.405 50.5 128.718C50.9993 129.022 51.5918 129.175 52.2773 129.175C53.3353 129.175 54.1393 128.764 54.6895 127.943C55.2396 127.122 55.5146 125.997 55.5146 124.566C55.5146 123.542 55.3538 122.679 55.0322 121.977C54.7106 121.274 54.2874 120.754 53.7627 120.415C53.238 120.068 52.6624 119.895 52.0361 119.895C51.0374 119.895 50.0176 120.398 48.9766 121.405V125.595ZM62.6494 112.531C63.0557 112.531 63.4027 112.675 63.6904 112.963C63.9782 113.251 64.1221 113.598 64.1221 114.004C64.1221 114.419 63.9782 114.77 63.6904 115.058C63.4027 115.337 63.0557 115.477 62.6494 115.477C62.2347 115.477 61.8835 115.337 61.5957 115.058C61.3164 114.77 61.1768 114.419 61.1768 114.004C61.1768 113.598 61.3164 113.251 61.5957 112.963C61.8835 112.675 62.2347 112.531 62.6494 112.531ZM61.6338 120.771C61.5238 120.576 61.3164 120.402 61.0117 120.25C60.7155 120.089 60.4066 119.958 60.085 119.856C59.7718 119.746 59.6152 119.696 59.6152 119.704L59.6406 119.26L63.208 118.396L63.9951 118.346V127.207C63.9951 127.503 64.0247 127.783 64.084 128.045C64.1517 128.307 64.3464 128.574 64.668 128.845C64.998 129.116 65.5143 129.289 66.2168 129.365C66.2168 129.645 66.2126 129.856 66.2041 130H59.5771C59.5602 129.848 59.5518 129.636 59.5518 129.365L59.9072 129.264C60.2796 129.162 60.5801 129.061 60.8086 128.959C61.0371 128.857 61.2318 128.709 61.3926 128.515C61.5534 128.312 61.6338 128.041 61.6338 127.702V120.771ZM69.7588 123.322C69.7503 123.407 69.7461 123.53 69.7461 123.69C69.7461 124.757 69.9365 125.65 70.3174 126.369C70.7067 127.08 71.223 127.609 71.8662 127.956C72.5179 128.295 73.2458 128.464 74.0498 128.464C75.1162 128.464 76.1445 128.159 77.1348 127.55L77.5029 127.905C77.2998 128.396 76.957 128.819 76.4746 129.175C76.0007 129.53 75.459 129.801 74.8496 129.987C74.2487 130.165 73.6647 130.254 73.0977 130.254C72.0312 130.254 71.0706 130.004 70.2158 129.505C69.3695 129.006 68.7051 128.307 68.2227 127.41C67.7487 126.513 67.5117 125.485 67.5117 124.325C67.5117 123.149 67.7699 122.099 68.2861 121.177C68.8024 120.246 69.488 119.526 70.3428 119.019C71.2061 118.502 72.1286 118.244 73.1104 118.244C73.9144 118.244 74.638 118.409 75.2812 118.739C75.9329 119.061 76.4619 119.518 76.8682 120.11C77.2744 120.694 77.5326 121.367 77.6426 122.129C77.7357 122.518 77.7822 122.878 77.7822 123.208V123.322H69.7588ZM74.3291 122.51C74.7015 122.493 75.0146 122.425 75.2686 122.307C75.2093 121.299 74.9723 120.512 74.5576 119.945C74.1514 119.378 73.5716 119.095 72.8184 119.095C72.2682 119.095 71.7773 119.26 71.3457 119.59C70.9225 119.92 70.5798 120.36 70.3174 120.91C70.055 121.452 69.8857 122.049 69.8096 122.7L74.3291 122.51ZM89.8682 127.613C89.6904 128.18 89.373 128.663 88.916 129.061C88.459 129.458 87.9215 129.759 87.3037 129.962C86.6859 130.157 86.0426 130.254 85.374 130.254C84.2061 130.254 83.1947 129.983 82.3398 129.441C81.4935 128.891 80.8503 128.163 80.4102 127.258C79.9701 126.352 79.75 125.37 79.75 124.312C79.75 123.195 80.0166 122.175 80.5498 121.253C81.083 120.322 81.832 119.59 82.7969 119.057C83.7617 118.515 84.8577 118.244 86.085 118.244C86.7959 118.244 87.4476 118.35 88.04 118.562C88.6325 118.765 89.098 119.057 89.4365 119.438C89.7835 119.818 89.957 120.258 89.957 120.758C89.957 121.139 89.8343 121.418 89.5889 121.596C89.3434 121.765 89.0811 121.85 88.8018 121.85C88.5394 121.85 88.3363 121.803 88.1924 121.71C88.0485 121.608 87.9427 121.49 87.875 121.354C87.8158 121.211 87.7565 121.012 87.6973 120.758C87.6296 120.436 87.5449 120.174 87.4434 119.971C87.3503 119.768 87.1725 119.59 86.9102 119.438C86.6478 119.285 86.2712 119.201 85.7803 119.184C85.1286 119.158 84.5192 119.319 83.9521 119.666C83.3851 120.005 82.9281 120.512 82.5811 121.189C82.2425 121.867 82.0732 122.679 82.0732 123.627C82.0732 124.507 82.2298 125.315 82.543 126.052C82.8561 126.788 83.3132 127.376 83.9141 127.816C84.5234 128.257 85.2513 128.477 86.0977 128.477C86.834 128.477 87.4476 128.388 87.9385 128.21C88.4294 128.032 88.9372 127.736 89.4619 127.321L89.8682 127.613ZM94.4385 123.322C94.43 123.407 94.4258 123.53 94.4258 123.69C94.4258 124.757 94.6162 125.65 94.9971 126.369C95.3864 127.08 95.9027 127.609 96.5459 127.956C97.1976 128.295 97.9255 128.464 98.7295 128.464C99.7959 128.464 100.824 128.159 101.814 127.55L102.183 127.905C101.979 128.396 101.637 128.819 101.154 129.175C100.68 129.53 100.139 129.801 99.5293 129.987C98.9284 130.165 98.3444 130.254 97.7773 130.254C96.7109 130.254 95.7503 130.004 94.8955 129.505C94.0492 129.006 93.3848 128.307 92.9023 127.41C92.4284 126.513 92.1914 125.485 92.1914 124.325C92.1914 123.149 92.4495 122.099 92.9658 121.177C93.4821 120.246 94.1676 119.526 95.0225 119.019C95.8857 118.502 96.8083 118.244 97.79 118.244C98.5941 118.244 99.3177 118.409 99.9609 118.739C100.613 119.061 101.142 119.518 101.548 120.11C101.954 120.694 102.212 121.367 102.322 122.129C102.415 122.518 102.462 122.878 102.462 123.208V123.322H94.4385ZM99.0088 122.51C99.3812 122.493 99.6943 122.425 99.9482 122.307C99.889 121.299 99.652 120.512 99.2373 119.945C98.8311 119.378 98.2513 119.095 97.498 119.095C96.9479 119.095 96.457 119.26 96.0254 119.59C95.6022 119.92 95.2594 120.36 94.9971 120.91C94.7347 121.452 94.5654 122.049 94.4893 122.7L99.0088 122.51ZM112.161 121.989C112.043 121.998 111.844 122.002 111.564 122.002C111.319 121.147 110.947 120.449 110.447 119.907C109.956 119.366 109.326 119.095 108.556 119.095C108.022 119.095 107.599 119.226 107.286 119.488C106.981 119.751 106.829 120.132 106.829 120.631C106.829 120.978 106.956 121.299 107.21 121.596C107.464 121.892 107.773 122.154 108.137 122.383C108.509 122.603 108.996 122.865 109.597 123.17C109.741 123.238 109.956 123.348 110.244 123.5C111.192 124.008 111.882 124.528 112.313 125.062C112.754 125.586 112.974 126.229 112.974 126.991C112.974 127.694 112.8 128.29 112.453 128.781C112.106 129.264 111.628 129.632 111.019 129.886C110.409 130.131 109.711 130.254 108.924 130.254C108.23 130.254 107.527 130.169 106.816 130C106.105 129.839 105.521 129.619 105.064 129.34V126.242C105.395 126.2 105.619 126.179 105.737 126.179C105.932 127.118 106.275 127.884 106.766 128.477C107.265 129.069 107.946 129.365 108.81 129.365C109.427 129.365 109.939 129.213 110.346 128.908C110.76 128.595 110.968 128.185 110.968 127.677C110.968 127.355 110.875 127.072 110.688 126.826C110.502 126.581 110.261 126.365 109.965 126.179C109.669 125.993 109.224 125.743 108.632 125.43C107.836 125.007 107.231 124.664 106.816 124.401C106.173 124.004 105.687 123.559 105.356 123.068C105.035 122.577 104.874 121.993 104.874 121.316C104.874 120.665 105.039 120.11 105.369 119.653C105.699 119.188 106.148 118.837 106.715 118.6C107.282 118.363 107.921 118.244 108.632 118.244C109.284 118.244 109.901 118.325 110.485 118.485C111.078 118.646 111.611 118.875 112.085 119.171L112.161 121.989ZM127.294 118.244C128.42 118.244 129.444 118.49 130.366 118.98C131.297 119.463 132.034 120.157 132.575 121.062C133.117 121.96 133.388 123.005 133.388 124.198C133.388 125.392 133.117 126.45 132.575 127.372C132.034 128.286 131.31 128.997 130.404 129.505C129.499 130.004 128.508 130.254 127.434 130.254C126.367 130.254 125.368 129.996 124.438 129.479C123.507 128.963 122.762 128.248 122.203 127.334C121.645 126.411 121.365 125.37 121.365 124.211C121.365 123.051 121.636 122.019 122.178 121.113C122.719 120.199 123.443 119.493 124.349 118.993C125.263 118.494 126.244 118.244 127.294 118.244ZM127.599 129.264C128.674 129.264 129.49 128.879 130.049 128.108C130.607 127.338 130.887 126.327 130.887 125.074C130.887 123.991 130.734 122.996 130.43 122.091C130.133 121.177 129.706 120.449 129.147 119.907C128.589 119.366 127.946 119.095 127.218 119.095C126.575 119.095 126.003 119.251 125.504 119.564C125.013 119.878 124.624 120.36 124.336 121.012C124.048 121.663 123.904 122.48 123.904 123.462C123.904 124.427 124.057 125.358 124.361 126.255C124.666 127.144 125.098 127.867 125.656 128.426C126.215 128.984 126.862 129.264 127.599 129.264ZM140.192 126.712C140.192 127.22 140.218 127.63 140.269 127.943C140.328 128.248 140.539 128.553 140.903 128.857C141.276 129.154 141.877 129.323 142.706 129.365C142.706 129.628 142.702 129.839 142.693 130H135.571C135.554 129.678 135.546 129.467 135.546 129.365C135.749 129.306 135.948 129.255 136.143 129.213C136.6 129.094 136.934 128.984 137.146 128.883C137.357 128.781 137.522 128.612 137.641 128.375C137.768 128.13 137.831 127.761 137.831 127.271V119.539H135.851L135.825 118.587H136.701C137.014 118.587 137.239 118.574 137.374 118.549C137.509 118.515 137.611 118.435 137.679 118.308C137.746 118.181 137.78 117.969 137.78 117.673C137.814 116.022 138.225 114.757 139.012 113.877C139.799 112.997 140.912 112.557 142.351 112.557C143.231 112.557 143.963 112.722 144.547 113.052C145.131 113.373 145.423 113.818 145.423 114.385C145.423 114.715 145.317 114.99 145.105 115.21C144.894 115.422 144.602 115.527 144.229 115.527C143.925 115.527 143.692 115.438 143.531 115.261C143.379 115.075 143.222 114.799 143.062 114.436C142.901 114.072 142.744 113.801 142.592 113.623C142.448 113.445 142.228 113.356 141.932 113.356C141.542 113.356 141.221 113.466 140.967 113.687C140.721 113.907 140.531 114.287 140.396 114.829C140.26 115.362 140.192 116.099 140.192 117.038V118.587H143.112L143.138 119.539H140.192V126.712ZM155.071 127.017C155.071 127.66 155.173 128.142 155.376 128.464C155.579 128.777 155.812 128.98 156.074 129.073C156.337 129.166 156.747 129.264 157.306 129.365C157.306 129.492 157.301 129.619 157.293 129.746C157.285 129.873 157.28 129.958 157.28 130H150.729V129.327C150.746 129.319 150.865 129.285 151.085 129.226C151.508 129.124 151.855 129.006 152.126 128.87C152.397 128.726 152.562 128.51 152.621 128.223C152.663 128.079 152.689 127.935 152.697 127.791C152.706 127.639 152.71 127.436 152.71 127.182V120.783C152.608 120.58 152.405 120.402 152.101 120.25C151.804 120.089 151.495 119.958 151.174 119.856C150.852 119.746 150.691 119.696 150.691 119.704L150.729 119.272L154.221 118.409L154.97 118.358L155.109 120.428C155.609 119.776 156.197 119.251 156.874 118.854C157.551 118.447 158.309 118.244 159.146 118.244C159.976 118.244 160.661 118.413 161.203 118.752C161.745 119.09 162.16 119.603 162.447 120.288C162.854 119.84 163.239 119.476 163.603 119.196C163.966 118.909 164.373 118.684 164.821 118.523C165.27 118.354 165.778 118.27 166.345 118.27C167.453 118.27 168.342 118.532 169.011 119.057C169.688 119.573 170.073 120.36 170.166 121.418C170.234 122.214 170.268 123.013 170.268 123.817V127.144C170.268 127.567 170.297 127.926 170.356 128.223C170.399 128.468 170.505 128.663 170.674 128.807C170.852 128.951 171.025 129.052 171.194 129.111C171.364 129.162 171.66 129.247 172.083 129.365C172.083 129.492 172.079 129.619 172.07 129.746C172.062 129.865 172.058 129.949 172.058 130H165.951C165.951 129.949 165.947 129.865 165.938 129.746C165.93 129.619 165.926 129.492 165.926 129.365C165.968 129.357 166.015 129.344 166.065 129.327C166.125 129.31 166.184 129.293 166.243 129.276C166.683 129.158 167.035 129.031 167.297 128.896C167.559 128.752 167.724 128.536 167.792 128.248C167.86 127.91 167.894 127.541 167.894 127.144V122.104C167.894 121.308 167.69 120.694 167.284 120.263C166.878 119.823 166.298 119.603 165.545 119.603C165.02 119.603 164.5 119.759 163.983 120.072C163.467 120.377 163.01 120.749 162.612 121.189C162.663 121.773 162.688 122.713 162.688 124.008V127.08C162.688 127.562 162.714 127.935 162.765 128.197C162.815 128.502 162.972 128.726 163.234 128.87C163.505 129.014 163.861 129.145 164.301 129.264C164.538 129.34 164.652 129.374 164.644 129.365C164.644 129.492 164.639 129.619 164.631 129.746C164.622 129.873 164.618 129.958 164.618 130H158.271C158.271 129.949 158.266 129.865 158.258 129.746C158.249 129.619 158.245 129.492 158.245 129.365C158.279 129.357 158.482 129.319 158.854 129.251C159.235 129.175 159.574 128.951 159.87 128.578C160.166 128.197 160.314 127.702 160.314 127.093V122.675C160.314 121.685 160.158 120.927 159.845 120.402C159.532 119.878 158.986 119.615 158.207 119.615C157.598 119.615 157.043 119.776 156.544 120.098C156.053 120.411 155.562 120.842 155.071 121.393V127.017ZM178.418 130.254C177.394 130.254 176.603 130 176.044 129.492C175.494 128.976 175.121 128.307 174.927 127.486C174.732 126.665 174.635 125.688 174.635 124.554V120.771C174.525 120.576 174.317 120.402 174.013 120.25C173.716 120.089 173.408 119.958 173.086 119.856C172.773 119.746 172.616 119.696 172.616 119.704L172.642 119.26L176.209 118.396L176.996 118.346V124.414C176.996 125.497 177.064 126.352 177.199 126.979C177.335 127.596 177.563 128.049 177.885 128.337C178.206 128.616 178.655 128.756 179.23 128.756C180.407 128.756 181.516 128.24 182.557 127.207V120.771C182.447 120.576 182.239 120.402 181.935 120.25C181.638 120.089 181.329 119.958 181.008 119.856C180.695 119.746 180.538 119.696 180.538 119.704L180.563 119.26L184.131 118.396L184.918 118.346V127.448C184.918 127.804 185.007 128.079 185.185 128.273C185.362 128.46 185.582 128.595 185.845 128.68C186.107 128.764 186.467 128.845 186.924 128.921C186.924 129.048 186.915 129.179 186.898 129.314C186.89 129.45 186.886 129.543 186.886 129.594L182.722 130.19L182.62 128.159C181.368 129.556 179.967 130.254 178.418 130.254ZM196.103 121.989C195.984 121.998 195.785 122.002 195.506 122.002C195.26 121.147 194.888 120.449 194.389 119.907C193.898 119.366 193.267 119.095 192.497 119.095C191.964 119.095 191.541 119.226 191.228 119.488C190.923 119.751 190.771 120.132 190.771 120.631C190.771 120.978 190.897 121.299 191.151 121.596C191.405 121.892 191.714 122.154 192.078 122.383C192.451 122.603 192.937 122.865 193.538 123.17C193.682 123.238 193.898 123.348 194.186 123.5C195.133 124.008 195.823 124.528 196.255 125.062C196.695 125.586 196.915 126.229 196.915 126.991C196.915 127.694 196.742 128.29 196.395 128.781C196.048 129.264 195.569 129.632 194.96 129.886C194.351 130.131 193.652 130.254 192.865 130.254C192.171 130.254 191.469 130.169 190.758 130C190.047 129.839 189.463 129.619 189.006 129.34V126.242C189.336 126.2 189.56 126.179 189.679 126.179C189.873 127.118 190.216 127.884 190.707 128.477C191.206 129.069 191.888 129.365 192.751 129.365C193.369 129.365 193.881 129.213 194.287 128.908C194.702 128.595 194.909 128.185 194.909 127.677C194.909 127.355 194.816 127.072 194.63 126.826C194.444 126.581 194.202 126.365 193.906 126.179C193.61 125.993 193.166 125.743 192.573 125.43C191.778 125.007 191.173 124.664 190.758 124.401C190.115 124.004 189.628 123.559 189.298 123.068C188.976 122.577 188.815 121.993 188.815 121.316C188.815 120.665 188.98 120.11 189.311 119.653C189.641 119.188 190.089 118.837 190.656 118.6C191.223 118.363 191.862 118.244 192.573 118.244C193.225 118.244 193.843 118.325 194.427 118.485C195.019 118.646 195.552 118.875 196.026 119.171L196.103 121.989ZM201.892 112.531C202.298 112.531 202.645 112.675 202.933 112.963C203.22 113.251 203.364 113.598 203.364 114.004C203.364 114.419 203.22 114.77 202.933 115.058C202.645 115.337 202.298 115.477 201.892 115.477C201.477 115.477 201.126 115.337 200.838 115.058C200.559 114.77 200.419 114.419 200.419 114.004C200.419 113.598 200.559 113.251 200.838 112.963C201.126 112.675 201.477 112.531 201.892 112.531ZM200.876 120.771C200.766 120.576 200.559 120.402 200.254 120.25C199.958 120.089 199.649 119.958 199.327 119.856C199.014 119.746 198.857 119.696 198.857 119.704L198.883 119.26L202.45 118.396L203.237 118.346V127.207C203.237 127.503 203.267 127.783 203.326 128.045C203.394 128.307 203.589 128.574 203.91 128.845C204.24 129.116 204.757 129.289 205.459 129.365C205.459 129.645 205.455 129.856 205.446 130H198.819C198.802 129.848 198.794 129.636 198.794 129.365L199.149 129.264C199.522 129.162 199.822 129.061 200.051 128.959C200.279 128.857 200.474 128.709 200.635 128.515C200.796 128.312 200.876 128.041 200.876 127.702V120.771ZM216.872 127.613C216.694 128.18 216.377 128.663 215.92 129.061C215.463 129.458 214.925 129.759 214.308 129.962C213.69 130.157 213.047 130.254 212.378 130.254C211.21 130.254 210.199 129.983 209.344 129.441C208.497 128.891 207.854 128.163 207.414 127.258C206.974 126.352 206.754 125.37 206.754 124.312C206.754 123.195 207.021 122.175 207.554 121.253C208.087 120.322 208.836 119.59 209.801 119.057C210.766 118.515 211.862 118.244 213.089 118.244C213.8 118.244 214.451 118.35 215.044 118.562C215.636 118.765 216.102 119.057 216.44 119.438C216.787 119.818 216.961 120.258 216.961 120.758C216.961 121.139 216.838 121.418 216.593 121.596C216.347 121.765 216.085 121.85 215.806 121.85C215.543 121.85 215.34 121.803 215.196 121.71C215.052 121.608 214.947 121.49 214.879 121.354C214.82 121.211 214.76 121.012 214.701 120.758C214.633 120.436 214.549 120.174 214.447 119.971C214.354 119.768 214.176 119.59 213.914 119.438C213.652 119.285 213.275 119.201 212.784 119.184C212.132 119.158 211.523 119.319 210.956 119.666C210.389 120.005 209.932 120.512 209.585 121.189C209.246 121.867 209.077 122.679 209.077 123.627C209.077 124.507 209.234 125.315 209.547 126.052C209.86 126.788 210.317 127.376 210.918 127.816C211.527 128.257 212.255 128.477 213.102 128.477C213.838 128.477 214.451 128.388 214.942 128.21C215.433 128.032 215.941 127.736 216.466 127.321L216.872 127.613ZM223.423 128.527C223.423 128.832 223.342 129.116 223.182 129.378C223.029 129.64 222.818 129.852 222.547 130.013C222.285 130.174 221.993 130.254 221.671 130.254C221.358 130.254 221.066 130.174 220.795 130.013C220.533 129.86 220.321 129.653 220.16 129.391C220.008 129.12 219.932 128.832 219.932 128.527C219.932 128.223 220.008 127.939 220.16 127.677C220.321 127.414 220.533 127.207 220.795 127.055C221.066 126.894 221.358 126.813 221.671 126.813C221.993 126.813 222.285 126.894 222.547 127.055C222.818 127.207 223.029 127.414 223.182 127.677C223.342 127.939 223.423 128.223 223.423 128.527ZM226.8 119.209C226.851 119.175 227.02 119.082 227.308 118.93C227.705 118.727 228.023 118.549 228.26 118.396C228.497 118.236 228.691 118.033 228.844 117.787C229.005 117.542 229.085 117.241 229.085 116.886C228.958 116.708 228.806 116.564 228.628 116.454C228.459 116.344 228.243 116.268 227.98 116.226C227.54 116.149 227.21 115.989 226.99 115.743C226.77 115.498 226.66 115.176 226.66 114.778C226.66 114.313 226.825 113.924 227.155 113.61C227.485 113.297 227.909 113.141 228.425 113.141C228.873 113.141 229.271 113.251 229.618 113.471C229.974 113.691 230.244 114 230.431 114.397C230.625 114.787 230.723 115.235 230.723 115.743C230.723 116.369 230.583 116.979 230.304 117.571C230.024 118.164 229.622 118.676 229.098 119.107C228.581 119.531 227.972 119.806 227.27 119.933C227.016 119.713 226.859 119.471 226.8 119.209ZM232.284 119.209C232.394 119.141 232.568 119.048 232.805 118.93C233.211 118.718 233.524 118.536 233.744 118.384C233.973 118.223 234.163 118.02 234.315 117.774C234.476 117.529 234.557 117.233 234.557 116.886C234.43 116.708 234.277 116.564 234.1 116.454C233.93 116.344 233.719 116.268 233.465 116.226C233.025 116.149 232.695 115.989 232.475 115.743C232.255 115.498 232.145 115.176 232.145 114.778C232.145 114.313 232.305 113.924 232.627 113.61C232.957 113.297 233.384 113.141 233.909 113.141C234.358 113.141 234.756 113.251 235.103 113.471C235.45 113.691 235.716 114 235.902 114.397C236.097 114.787 236.194 115.235 236.194 115.743C236.194 116.369 236.055 116.979 235.775 117.571C235.496 118.164 235.094 118.676 234.569 119.107C234.053 119.531 233.444 119.806 232.741 119.933C232.496 119.721 232.343 119.48 232.284 119.209Z" fill="#CCA298"/>
</svg>
