<svg width="406" height="174" viewBox="0 0 406 174" fill="none" xmlns="http://www.w3.org/2000/svg">
<path d="M0 32.9768C0 28.6589 0 26.5 0.435011 25.1521C1.97831 20.3702 7.13825 17.7782 11.8958 19.395C13.2369 19.8507 14.9688 21.1396 18.4327 23.7174C19.1007 24.2145 19.4346 24.463 19.7816 24.6754C20.9613 25.3978 22.2917 25.8385 23.6693 25.9633C24.0745 26 24.4908 26 25.3234 26H298C335.712 26 354.569 26 366.284 37.7157C378 49.4315 378 68.2876 378 106V160C378 166.6 378 169.899 375.95 171.95C373.9 174 370.6 174 364 174H41.0294C31.3251 174 21.9349 170.56 14.5268 164.292C5.3136 156.496 0 145.039 0 132.971V32.9768Z" fill="#CCA298"/>
<path d="M10 22.9768C10 18.6589 10 16.5 10.435 15.1521C11.9783 10.3702 17.1383 7.77819 21.8958 9.39496C23.2369 9.85069 24.9688 11.1396 28.4327 13.7174C29.1007 14.2145 29.4346 14.463 29.7816 14.6754C30.9613 15.3978 32.2917 15.8385 33.6693 15.9633C34.0745 16 34.4908 16 35.3234 16H308C345.712 16 364.569 16 376.284 27.7157C388 39.4315 388 58.2876 388 96V137.887C388 139.482 388 140.28 388.171 141.039C388.296 141.592 388.487 142.128 388.741 142.636C389.089 143.332 389.594 143.949 390.604 145.183C395.759 151.483 398.337 154.634 398.222 157.301C398.141 159.189 397.299 160.964 395.89 162.222C393.898 164 389.828 164 381.687 164H41.7524C35.0869 164 28.5904 161.902 23.1835 158.004C14.9052 152.036 10 142.453 10 132.248V22.9768Z" fill="white"/>
<path d="M16.9823 138.446C16.1158 136.168 15.5206 133.779 15.2221 131.325L15.7185 131.265C15.5738 130.076 15.5 128.872 15.5 127.658V124.344H15V117.715H15.5V111.087H15V104.458H15.5V97.8299H15V91.2014H15.5V84.5729H15V77.9445H15.5V71.316H15V64.6875H15.5V58.059H15V51.4305H15.5V44.8021H15V38.1736H15.5V31.5451H15V24.9166H15.5V21.6024C15.5 20.5499 15.8226 19.6586 16.3405 18.9556L15.9379 18.659C17.2018 16.9433 19.5268 16.2036 21.5498 16.8734L21.3926 17.3481C22.2215 17.6226 22.9999 18.1635 23.6081 19.0225C23.8624 19.3817 24.156 19.7047 24.481 19.9874L24.8092 19.6102C25.4078 20.131 26.1232 20.501 26.8941 20.6886L26.7759 21.1744C27.1944 21.2763 27.6278 21.3293 28.0678 21.3293H31.5045V20.8293H38.3777V21.3293H45.251V20.8293H52.1243V21.3293H58.9976V20.8293H65.8709V21.3293H72.7442V20.8293H79.6175V21.3293H86.4909V20.8293H93.3642V21.3293H100.237V20.8293H107.111V21.3293H113.984V20.8293H120.857V21.3293H127.731V20.8293H134.604V21.3293H141.477V20.8293H148.351V21.3293H155.224V20.8293H162.097V21.3293H168.971V20.8293H175.844V21.3293H182.717V20.8293H189.59V21.3293H196.464V20.8293H203.337V21.3293H210.21V20.8293H217.084V21.3293H223.957V20.8293H230.83V21.3293H237.704V20.8293H244.577V21.3293H251.45V20.8293H258.324V21.3293H265.197V20.8293H272.07V21.3293H278.943V20.8293H285.817V21.3293H292.69V20.8293H299.563V21.3293H303C304.201 21.3293 305.383 21.3293 306.546 21.3296L306.546 20.8296C308.994 20.8304 311.358 20.8329 313.643 20.8406L313.642 21.3406C316.096 21.3488 318.459 21.3631 320.734 21.3877L320.739 20.8877C323.199 20.9143 325.557 20.9531 327.818 21.0095L327.806 21.5093C330.281 21.571 332.639 21.6539 334.887 21.7651L334.912 21.2657C337.398 21.3887 339.753 21.5463 341.985 21.7483L341.94 22.2463C344.423 22.4711 346.75 22.7508 348.937 23.0987L349.016 22.6049C351.498 22.9998 353.804 23.4825 355.951 24.0726L355.819 24.5547C358.203 25.2099 360.384 25.997 362.393 26.9421L362.606 26.4897C364.803 27.5231 366.801 28.7451 368.636 30.1903L368.326 30.583C369.234 31.2977 370.1 32.068 370.931 32.8986C371.761 33.7291 372.532 34.5958 373.246 35.5029L373.639 35.1935C375.084 37.028 376.306 39.0263 377.34 41.223L376.887 41.4359C377.832 43.4448 378.619 45.6267 379.275 48.0108L379.757 47.8783C380.347 50.0257 380.829 52.3309 381.224 54.8135L380.731 54.892C381.078 57.0789 381.358 59.4067 381.583 61.8898L382.081 61.8447C382.283 64.0765 382.441 66.4308 382.564 68.9175L382.064 68.9422C382.175 71.1907 382.258 73.5486 382.32 76.0234L382.82 76.011C382.876 78.2723 382.915 80.6302 382.942 83.0902L382.442 83.0956C382.466 85.3704 382.48 87.7329 382.489 90.1877L382.989 90.1861C382.996 92.471 382.999 94.8354 383 97.2829L382.5 97.283C382.5 97.7218 382.5 98.1632 382.5 98.6073L382.5 100.829V104.096H383V110.628H382.5V117.161H383V123.694H382.5V130.226H383V136.759H382.5V140.025C382.5 141.259 382.605 142.483 382.812 143.685L383.305 143.6C383.711 145.966 384.518 148.245 385.691 150.339L385.254 150.584C385.85 151.648 386.538 152.666 387.314 153.624C387.622 154.004 387.786 154.423 387.834 154.84L388.331 154.782C388.458 155.874 387.934 156.973 387.005 157.562L386.737 157.139C386.383 157.364 385.954 157.5 385.465 157.5H381.922V158H374.837V157.5H367.751V158H360.665V157.5H353.579V158H346.493V157.5H339.407V158H332.321V157.5H325.235V158H318.149V157.5H311.063V158H303.977V157.5H296.892V158H289.806V157.5H282.72V158H275.634V157.5H268.548V158H261.462V157.5H254.376V158H247.29V157.5H240.204V158H233.118V157.5H226.033V158H218.947V157.5H211.861V158H204.775V157.5H197.689V158H190.603V157.5H183.517V158H176.431V157.5H169.345V158H162.259V157.5H155.173V158H148.088V157.5H141.002V158H133.916V157.5H126.83V158H119.744V157.5H112.658V158H105.572V157.5H98.4863V158H91.4004V157.5H84.3145V158H77.2286V157.5H70.1427V158H63.0568V157.5H55.9709V158H48.885V157.5H45.342C43.839 157.5 42.3448 157.387 40.8714 157.163L40.7965 157.658C37.7835 157.201 34.8561 156.293 32.1136 154.965L32.3316 154.515C30.9905 153.865 29.6943 153.113 28.4551 152.262C27.4542 151.576 26.5031 150.833 25.6047 150.041L25.2741 150.416C23.4202 148.782 21.7869 146.939 20.3995 144.936L20.8106 144.651C19.4366 142.667 18.3078 140.523 17.4496 138.268L16.9823 138.446Z" fill="white" stroke="#C17766" stroke-dasharray="7 7"/>
<path d="M225.935 124.084H239.195L238.974 125.376H225.714L225.935 124.084ZM251.445 117.896L246.005 123.115L249.626 129.932L249.609 130H247.756L244.764 124.322L242.486 126.481L241.857 130H240.293L242.452 117.828H244.016L242.928 124.05H242.996L249.388 117.828H251.462L251.445 117.896ZM258.203 128.028C257.761 128.765 257.195 129.326 256.503 129.711C255.812 130.085 255.07 130.272 254.276 130.272C253.664 130.272 253.12 130.17 252.644 129.966C252.18 129.762 251.783 129.49 251.454 129.15C251.137 128.799 250.893 128.396 250.723 127.943C250.565 127.478 250.485 126.985 250.485 126.464C250.485 125.818 250.593 125.195 250.808 124.594C251.035 123.982 251.358 123.438 251.777 122.962C252.197 122.486 252.701 122.106 253.29 121.823C253.891 121.54 254.56 121.398 255.296 121.398C255.874 121.398 256.384 121.489 256.826 121.67C257.268 121.851 257.637 122.101 257.931 122.418C258.226 122.735 258.447 123.104 258.594 123.523C258.742 123.942 258.815 124.396 258.815 124.883C258.815 125.087 258.804 125.302 258.781 125.529C258.759 125.756 258.719 125.954 258.662 126.124H252.1C252.089 126.237 252.083 126.328 252.083 126.396C252.083 126.464 252.083 126.538 252.083 126.617C252.083 126.991 252.146 127.32 252.27 127.603C252.406 127.886 252.582 128.119 252.797 128.3C253.013 128.481 253.256 128.617 253.528 128.708C253.8 128.799 254.078 128.844 254.361 128.844C254.928 128.844 255.432 128.708 255.874 128.436C256.328 128.164 256.702 127.801 256.996 127.348L258.203 128.028ZM257.234 124.832V124.645C257.234 124.407 257.189 124.18 257.098 123.965C257.019 123.738 256.889 123.546 256.707 123.387C256.537 123.217 256.322 123.081 256.061 122.979C255.801 122.877 255.495 122.826 255.143 122.826C254.463 122.826 253.88 123.013 253.392 123.387C252.916 123.75 252.582 124.231 252.389 124.832H257.234ZM262.15 122.826H262.218C262.501 122.418 262.886 122.078 263.374 121.806C263.861 121.534 264.416 121.398 265.04 121.398C265.856 121.398 266.507 121.63 266.995 122.095C267.493 122.56 267.743 123.183 267.743 123.965C267.743 124.135 267.731 124.328 267.709 124.543C267.697 124.758 267.669 124.979 267.624 125.206L266.774 130H265.21L266.094 125.002C266.139 124.775 266.162 124.549 266.162 124.322C266.162 123.812 266.003 123.438 265.686 123.2C265.38 122.951 264.966 122.826 264.445 122.826C264.105 122.826 263.782 122.894 263.476 123.03C263.181 123.166 262.915 123.353 262.677 123.591C262.45 123.818 262.257 124.09 262.099 124.407C261.94 124.713 261.832 125.042 261.776 125.393L260.96 130H259.396L260.858 121.67H262.354L262.15 122.826ZM268.423 128.64L274.101 123.098H269.545L269.8 121.67H276.328L276.09 123.03L270.412 128.572H275.172L274.917 130H268.202L268.423 128.64ZM281.448 121.398C282.026 121.398 282.553 121.506 283.029 121.721C283.516 121.925 283.93 122.208 284.27 122.571C284.61 122.934 284.871 123.359 285.052 123.846C285.245 124.322 285.341 124.832 285.341 125.376C285.341 126.067 285.216 126.713 284.967 127.314C284.718 127.903 284.372 128.419 283.93 128.861C283.488 129.303 282.961 129.649 282.349 129.898C281.737 130.147 281.074 130.272 280.36 130.272C279.782 130.272 279.249 130.17 278.762 129.966C278.286 129.751 277.878 129.462 277.538 129.099C277.198 128.736 276.932 128.317 276.739 127.841C276.558 127.354 276.467 126.838 276.467 126.294C276.467 125.603 276.592 124.962 276.841 124.373C277.09 123.772 277.436 123.251 277.878 122.809C278.32 122.367 278.847 122.021 279.459 121.772C280.071 121.523 280.734 121.398 281.448 121.398ZM280.513 128.844C281.012 128.844 281.459 128.753 281.856 128.572C282.264 128.379 282.604 128.13 282.876 127.824C283.159 127.507 283.375 127.15 283.522 126.753C283.669 126.345 283.743 125.92 283.743 125.478C283.743 125.093 283.675 124.741 283.539 124.424C283.414 124.095 283.239 123.812 283.012 123.574C282.797 123.336 282.536 123.155 282.23 123.03C281.935 122.894 281.624 122.826 281.295 122.826C280.796 122.826 280.343 122.922 279.935 123.115C279.538 123.296 279.198 123.546 278.915 123.863C278.643 124.169 278.433 124.526 278.286 124.934C278.139 125.331 278.065 125.75 278.065 126.192C278.065 126.577 278.127 126.934 278.252 127.263C278.388 127.58 278.564 127.858 278.779 128.096C279.006 128.334 279.266 128.521 279.561 128.657C279.867 128.782 280.184 128.844 280.513 128.844ZM291.669 130L293.556 119.324H290.156L290.428 117.828H298.792L298.52 119.324H295.12L293.233 130H291.669ZM301.731 121.398C302.807 121.398 303.618 121.647 304.162 122.146C304.717 122.645 304.995 123.319 304.995 124.169C304.995 124.305 304.983 124.452 304.961 124.611C304.949 124.758 304.932 124.911 304.91 125.07L304.026 130H302.53L302.734 128.844H302.666C302.394 129.241 302.02 129.581 301.544 129.864C301.068 130.136 300.535 130.272 299.946 130.272C299.538 130.272 299.158 130.21 298.807 130.085C298.455 129.972 298.149 129.802 297.889 129.575C297.639 129.348 297.441 129.082 297.294 128.776C297.146 128.459 297.073 128.102 297.073 127.705C297.073 127.229 297.175 126.798 297.379 126.413C297.594 126.028 297.883 125.705 298.246 125.444C298.608 125.172 299.033 124.962 299.521 124.815C300.019 124.668 300.558 124.594 301.136 124.594C301.6 124.594 302.008 124.645 302.36 124.747C302.722 124.838 303.068 124.957 303.397 125.104L303.465 124.747C303.487 124.656 303.499 124.543 303.499 124.407C303.499 123.92 303.323 123.529 302.972 123.234C302.62 122.939 302.156 122.792 301.578 122.792C301.136 122.792 300.739 122.877 300.388 123.047C300.048 123.217 299.713 123.5 299.385 123.897L298.161 123.03C298.557 122.497 299.062 122.095 299.674 121.823C300.297 121.54 300.983 121.398 301.731 121.398ZM300.269 128.878C300.62 128.878 300.954 128.816 301.272 128.691C301.6 128.566 301.889 128.396 302.139 128.181C302.399 127.954 302.62 127.694 302.802 127.399C302.983 127.093 303.102 126.77 303.159 126.43C303.023 126.328 302.853 126.232 302.649 126.141C302.467 126.073 302.241 126.011 301.969 125.954C301.708 125.886 301.391 125.852 301.017 125.852C300.733 125.852 300.45 125.886 300.167 125.954C299.895 126.022 299.651 126.13 299.436 126.277C299.22 126.424 299.045 126.606 298.909 126.821C298.773 127.036 298.705 127.286 298.705 127.569C298.705 127.784 298.75 127.977 298.841 128.147C298.931 128.306 299.045 128.442 299.181 128.555C299.328 128.657 299.492 128.736 299.674 128.793C299.866 128.85 300.065 128.878 300.269 128.878ZM307.813 125.206L311.893 121.67H314.035L314.018 121.738L310.193 124.968L312.726 129.932L312.709 130H310.873L308.935 126.039L307.439 127.314L306.963 130H305.399L307.541 117.828H309.105L307.813 125.206ZM318.448 121.398C319.525 121.398 320.335 121.647 320.879 122.146C321.435 122.645 321.712 123.319 321.712 124.169C321.712 124.305 321.701 124.452 321.678 124.611C321.667 124.758 321.65 124.911 321.627 125.07L320.743 130H319.247L319.451 128.844H319.383C319.111 129.241 318.737 129.581 318.261 129.864C317.785 130.136 317.253 130.272 316.663 130.272C316.255 130.272 315.876 130.21 315.524 130.085C315.173 129.972 314.867 129.802 314.606 129.575C314.357 129.348 314.159 129.082 314.011 128.776C313.864 128.459 313.79 128.102 313.79 127.705C313.79 127.229 313.892 126.798 314.096 126.413C314.312 126.028 314.601 125.705 314.963 125.444C315.326 125.172 315.751 124.962 316.238 124.815C316.737 124.668 317.275 124.594 317.853 124.594C318.318 124.594 318.726 124.645 319.077 124.747C319.44 124.838 319.786 124.957 320.114 125.104L320.182 124.747C320.205 124.656 320.216 124.543 320.216 124.407C320.216 123.92 320.041 123.529 319.689 123.234C319.338 122.939 318.873 122.792 318.295 122.792C317.853 122.792 317.457 122.877 317.105 123.047C316.765 123.217 316.431 123.5 316.102 123.897L314.878 123.03C315.275 122.497 315.779 122.095 316.391 121.823C317.015 121.54 317.7 121.398 318.448 121.398ZM316.986 128.878C317.338 128.878 317.672 128.816 317.989 128.691C318.318 128.566 318.607 128.396 318.856 128.181C319.117 127.954 319.338 127.694 319.519 127.399C319.701 127.093 319.82 126.77 319.876 126.43C319.74 126.328 319.57 126.232 319.366 126.141C319.185 126.073 318.958 126.011 318.686 125.954C318.426 125.886 318.108 125.852 317.734 125.852C317.451 125.852 317.168 125.886 316.884 125.954C316.612 126.022 316.369 126.13 316.153 126.277C315.938 126.424 315.762 126.606 315.626 126.821C315.49 127.036 315.422 127.286 315.422 127.569C315.422 127.784 315.468 127.977 315.558 128.147C315.649 128.306 315.762 128.442 315.898 128.555C316.046 128.657 316.21 128.736 316.391 128.793C316.584 128.85 316.782 128.878 316.986 128.878ZM325.688 130.272C325.201 130.272 324.748 130.181 324.328 130C323.909 129.819 323.541 129.564 323.223 129.235C322.917 128.895 322.674 128.487 322.492 128.011C322.322 127.524 322.237 126.98 322.237 126.379C322.237 125.733 322.356 125.115 322.594 124.526C322.844 123.925 323.184 123.393 323.614 122.928C324.045 122.463 324.555 122.095 325.144 121.823C325.734 121.54 326.374 121.398 327.065 121.398C327.632 121.398 328.142 121.534 328.595 121.806C329.06 122.078 329.411 122.418 329.649 122.826H329.717L329.853 121.67L330.533 117.828H332.097L329.955 130H328.459L328.663 128.844H328.595C328.312 129.229 327.932 129.564 327.456 129.847C326.992 130.13 326.402 130.272 325.688 130.272ZM326.946 122.826C326.516 122.826 326.108 122.917 325.722 123.098C325.348 123.268 325.02 123.512 324.736 123.829C324.453 124.135 324.232 124.498 324.073 124.917C323.915 125.336 323.835 125.79 323.835 126.277C323.835 127.082 324.028 127.711 324.413 128.164C324.81 128.617 325.382 128.844 326.13 128.844C326.572 128.844 326.986 128.748 327.371 128.555C327.757 128.351 328.085 128.085 328.357 127.756C328.641 127.427 328.862 127.053 329.02 126.634C329.179 126.203 329.258 125.761 329.258 125.308C329.258 124.492 329.037 123.874 328.595 123.455C328.153 123.036 327.604 122.826 326.946 122.826ZM336.743 121.398C337.82 121.398 338.63 121.647 339.174 122.146C339.73 122.645 340.007 123.319 340.007 124.169C340.007 124.305 339.996 124.452 339.973 124.611C339.962 124.758 339.945 124.911 339.922 125.07L339.038 130H337.542L337.746 128.844H337.678C337.406 129.241 337.032 129.581 336.556 129.864C336.08 130.136 335.548 130.272 334.958 130.272C334.55 130.272 334.171 130.21 333.819 130.085C333.468 129.972 333.162 129.802 332.901 129.575C332.652 129.348 332.454 129.082 332.306 128.776C332.159 128.459 332.085 128.102 332.085 127.705C332.085 127.229 332.187 126.798 332.391 126.413C332.607 126.028 332.896 125.705 333.258 125.444C333.621 125.172 334.046 124.962 334.533 124.815C335.032 124.668 335.57 124.594 336.148 124.594C336.613 124.594 337.021 124.645 337.372 124.747C337.735 124.838 338.081 124.957 338.409 125.104L338.477 124.747C338.5 124.656 338.511 124.543 338.511 124.407C338.511 123.92 338.336 123.529 337.984 123.234C337.633 122.939 337.168 122.792 336.59 122.792C336.148 122.792 335.752 122.877 335.4 123.047C335.06 123.217 334.726 123.5 334.397 123.897L333.173 123.03C333.57 122.497 334.074 122.095 334.686 121.823C335.31 121.54 335.995 121.398 336.743 121.398ZM335.281 128.878C335.633 128.878 335.967 128.816 336.284 128.691C336.613 128.566 336.902 128.396 337.151 128.181C337.412 127.954 337.633 127.694 337.814 127.399C337.996 127.093 338.115 126.77 338.171 126.43C338.035 126.328 337.865 126.232 337.661 126.141C337.48 126.073 337.253 126.011 336.981 125.954C336.721 125.886 336.403 125.852 336.029 125.852C335.746 125.852 335.463 125.886 335.179 125.954C334.907 126.022 334.664 126.13 334.448 126.277C334.233 126.424 334.057 126.606 333.921 126.821C333.785 127.036 333.717 127.286 333.717 127.569C333.717 127.784 333.763 127.977 333.853 128.147C333.944 128.306 334.057 128.442 334.193 128.555C334.341 128.657 334.505 128.736 334.686 128.793C334.879 128.85 335.077 128.878 335.281 128.878Z" fill="#C17766"/>
<path d="M48.7734 48.1309C48.3757 48.3424 48.0583 48.5286 47.8213 48.6895C47.5843 48.8503 47.3854 49.0534 47.2246 49.2988C47.0723 49.5443 46.9961 49.8405 46.9961 50.1875C47.123 50.3737 47.2712 50.5218 47.4404 50.6318C47.6182 50.7419 47.834 50.818 48.0879 50.8604C48.9766 51.0212 49.4209 51.4993 49.4209 52.2949C49.4209 52.7689 49.2559 53.1624 48.9258 53.4756C48.5957 53.7887 48.1683 53.9453 47.6436 53.9453C47.195 53.9453 46.7972 53.8353 46.4502 53.6152C46.1032 53.3952 45.8324 53.0863 45.6377 52.6885C45.4515 52.2907 45.3584 51.8379 45.3584 51.3301C45.3584 50.7122 45.4938 50.1071 45.7646 49.5146C46.0439 48.9137 46.446 48.4017 46.9707 47.9785C47.4954 47.5553 48.109 47.2803 48.8115 47.1533C49.0485 47.348 49.2008 47.585 49.2686 47.8643L48.7734 48.1309ZM54.1689 48.1309C53.7712 48.3424 53.4538 48.5286 53.2168 48.6895C52.9798 48.8503 52.7809 49.0534 52.6201 49.2988C52.4678 49.5443 52.3916 49.8405 52.3916 50.1875C52.6286 50.5514 52.9925 50.7757 53.4834 50.8604C54.3636 51.0212 54.8037 51.4993 54.8037 52.2949C54.8037 52.7689 54.6387 53.1624 54.3086 53.4756C53.987 53.7887 53.5638 53.9453 53.0391 53.9453C52.5905 53.9453 52.1927 53.8353 51.8457 53.6152C51.4987 53.3952 51.2279 53.0863 51.0332 52.6885C50.847 52.2907 50.7539 51.8379 50.7539 51.3301C50.7539 50.7122 50.8893 50.1071 51.1602 49.5146C51.4395 48.9137 51.8415 48.4017 52.3662 47.9785C52.891 47.5553 53.5046 47.2803 54.207 47.1533C54.444 47.348 54.5964 47.585 54.6641 47.8643L54.1689 48.1309ZM69.9873 58.084C69.7503 58.1094 69.5091 58.1221 69.2637 58.1221C68.8743 57.3096 68.5527 56.7425 68.2988 56.4209C68.0449 56.0993 67.7487 55.8919 67.4102 55.7988C67.0801 55.7057 66.5426 55.6592 65.7979 55.6592H62.6367V60.7246C62.6367 61.3763 62.7002 61.8587 62.8271 62.1719C62.9541 62.4766 63.1234 62.6797 63.335 62.7812C63.555 62.8743 63.8851 62.9548 64.3252 63.0225C64.6383 63.0732 64.8923 63.1198 65.0869 63.1621C65.29 63.196 65.5059 63.2552 65.7344 63.3398V64H57.1777L57.1523 63.3398C57.3555 63.2467 57.5501 63.1748 57.7363 63.124C57.9225 63.0732 58.0833 63.0352 58.2188 63.0098C58.3626 62.9759 58.4557 62.9548 58.498 62.9463C58.8789 62.8701 59.1582 62.7855 59.3359 62.6924C59.5137 62.5908 59.6533 62.3919 59.7549 62.0957C59.8564 61.791 59.9072 61.3213 59.9072 60.6865V51.0381C59.9072 50.3525 59.848 49.849 59.7295 49.5273C59.6195 49.1973 59.4544 48.973 59.2344 48.8545C59.0228 48.7275 58.6758 48.5964 58.1934 48.4609C57.7448 48.3424 57.3724 48.2282 57.0762 48.1182V47.4707L69.7842 47.458L71.917 47.4326V51.3682L71.3457 51.3936C71.2188 51.2497 71.1045 51.0973 71.0029 50.9365C70.9014 50.7673 70.7744 50.5387 70.6221 50.251C70.4274 49.887 70.2581 49.5993 70.1143 49.3877C69.9704 49.1676 69.7884 48.973 69.5684 48.8037C69.3568 48.6344 69.1029 48.5286 68.8066 48.4863C68.4089 48.4271 68.0068 48.3932 67.6006 48.3848C67.2028 48.3678 66.7035 48.3594 66.1025 48.3594H63.665C63.3434 48.3594 63.1149 48.3763 62.9795 48.4102C62.8525 48.444 62.7637 48.5244 62.7129 48.6514C62.6621 48.7699 62.6367 48.9772 62.6367 49.2734V54.6943C63.0007 54.6943 63.4958 54.7028 64.1221 54.7197C64.6807 54.7367 65.0869 54.7451 65.3408 54.7451C66.3395 54.7451 67.1605 54.6605 67.8037 54.4912C68.083 54.415 68.2988 54.2712 68.4512 54.0596C68.612 53.8395 68.7728 53.5391 68.9336 53.1582C68.959 53.099 69.0013 53.0059 69.0605 52.8789C69.1198 52.7435 69.179 52.6292 69.2383 52.5361L69.9873 52.5615V58.084ZM79.4453 56.2686C79.4453 55.6338 79.3861 55.0964 79.2676 54.6562C79.1576 54.2161 78.929 53.8607 78.582 53.5898C78.2435 53.319 77.7568 53.1836 77.1221 53.1836C76.902 53.1836 76.6312 53.2301 76.3096 53.3232C75.988 53.4163 75.7044 53.5518 75.459 53.7295C75.222 53.8988 75.1035 54.0977 75.1035 54.3262C75.1035 54.4193 75.1204 54.5124 75.1543 54.6055C75.1882 54.6901 75.2432 54.8001 75.3193 54.9355C75.3955 55.0625 75.4505 55.1725 75.4844 55.2656C75.5182 55.3587 75.5352 55.4561 75.5352 55.5576C75.5352 55.8962 75.4251 56.1797 75.2051 56.4082C74.9935 56.6283 74.7184 56.7383 74.3799 56.7383C73.9567 56.7383 73.6182 56.5817 73.3643 56.2686C73.1188 55.9554 72.9961 55.5788 72.9961 55.1387C72.9961 54.4785 73.2542 53.9326 73.7705 53.501C74.2868 53.0693 74.9089 52.752 75.6367 52.5488C76.373 52.3457 77.0586 52.2441 77.6934 52.2441C78.8867 52.2441 79.7754 52.4219 80.3594 52.7773C80.9518 53.1243 81.3411 53.6364 81.5273 54.3135C81.722 54.9821 81.8193 55.9215 81.8193 57.1318L81.7939 57.7666C81.7855 57.9528 81.7728 58.2617 81.7559 58.6934C81.7474 59.125 81.7432 59.5228 81.7432 59.8867C81.7432 61.791 81.9421 62.7432 82.3398 62.7432C82.6276 62.7432 83 62.4512 83.457 61.8672L83.9902 62.4385C83.6178 63.0479 83.2497 63.5049 82.8857 63.8096C82.5218 64.1058 82.0436 64.2539 81.4512 64.2539C80.8926 64.2539 80.4313 64.0804 80.0674 63.7334C79.7119 63.3779 79.5173 62.9209 79.4834 62.3623C78.9417 62.9548 78.3324 63.4202 77.6553 63.7588C76.9867 64.0889 76.2757 64.2539 75.5225 64.2539C74.9977 64.2539 74.5111 64.1608 74.0625 63.9746C73.6224 63.7799 73.2669 63.4922 72.9961 63.1113C72.7337 62.7305 72.6025 62.2734 72.6025 61.7402C72.6025 60.9362 72.9115 60.2676 73.5293 59.7344C74.1471 59.2012 74.8581 58.7949 75.6621 58.5156C76.4661 58.2363 77.4479 57.957 78.6074 57.6777C78.709 57.6608 78.9883 57.5931 79.4453 57.4746V56.2686ZM79.4453 58.2236C79.3184 58.266 79.1576 58.3167 78.9629 58.376C78.235 58.613 77.613 58.8415 77.0967 59.0615C76.5804 59.2731 76.1191 59.5609 75.7129 59.9248C75.3066 60.2887 75.1035 60.7161 75.1035 61.207C75.1035 61.7064 75.2389 62.0999 75.5098 62.3877C75.7891 62.6755 76.1784 62.8193 76.6777 62.8193C77.1771 62.8193 77.6595 62.6966 78.125 62.4512C78.5905 62.1973 79.0306 61.8672 79.4453 61.4609V58.2236ZM93.0928 55.9893C92.9743 55.9977 92.7754 56.002 92.4961 56.002C92.2507 55.1471 91.8783 54.4489 91.3789 53.9072C90.888 53.3656 90.2575 53.0947 89.4873 53.0947C88.9541 53.0947 88.5309 53.2259 88.2178 53.4883C87.9131 53.7507 87.7607 54.1315 87.7607 54.6309C87.7607 54.9779 87.8877 55.2995 88.1416 55.5957C88.3955 55.8919 88.7044 56.1543 89.0684 56.3828C89.4408 56.6029 89.9274 56.8652 90.5283 57.1699C90.6722 57.2376 90.888 57.3477 91.1758 57.5C92.1237 58.0078 92.8135 58.5283 93.2451 59.0615C93.6852 59.5863 93.9053 60.2295 93.9053 60.9912C93.9053 61.6937 93.7318 62.2904 93.3848 62.7812C93.0378 63.2637 92.5596 63.6318 91.9502 63.8857C91.3408 64.1312 90.6426 64.2539 89.8555 64.2539C89.1615 64.2539 88.459 64.1693 87.748 64C87.0371 63.8392 86.4531 63.6191 85.9961 63.3398V60.2422C86.3262 60.1999 86.5505 60.1787 86.6689 60.1787C86.8636 61.1182 87.2064 61.8841 87.6973 62.4766C88.1966 63.069 88.8779 63.3652 89.7412 63.3652C90.359 63.3652 90.8711 63.2129 91.2773 62.9082C91.6921 62.5951 91.8994 62.1846 91.8994 61.6768C91.8994 61.3551 91.8063 61.0716 91.6201 60.8262C91.4339 60.5807 91.1927 60.3649 90.8965 60.1787C90.6003 59.9925 90.1559 59.7428 89.5635 59.4297C88.7679 59.0065 88.1628 58.6637 87.748 58.4014C87.1048 58.0036 86.6182 57.5592 86.2881 57.0684C85.9665 56.5775 85.8057 55.9935 85.8057 55.3164C85.8057 54.6647 85.9707 54.1104 86.3008 53.6533C86.6309 53.1878 87.0794 52.8366 87.6465 52.5996C88.2135 52.3626 88.8525 52.2441 89.5635 52.2441C90.2152 52.2441 90.833 52.3245 91.417 52.4854C92.0094 52.6462 92.5426 52.8747 93.0166 53.1709L93.0928 55.9893ZM108.353 61.1943C108.353 61.846 108.518 62.3581 108.848 62.7305C109.186 63.0944 109.664 63.306 110.282 63.3652C110.282 63.4922 110.278 63.6191 110.27 63.7461C110.261 63.8646 110.257 63.9492 110.257 64H104.011C104.011 63.9492 104.007 63.8646 103.998 63.7461C103.99 63.6191 103.985 63.4922 103.985 63.3652C104.129 63.2975 104.409 63.2002 104.823 63.0732C105.145 62.9717 105.378 62.8786 105.521 62.7939C105.674 62.7008 105.788 62.54 105.864 62.3115C105.949 62.083 105.991 61.7402 105.991 61.2832V56.6748C105.991 55.7438 105.792 55.0033 105.395 54.4531C105.005 53.8945 104.392 53.6152 103.554 53.6152C102.953 53.6152 102.369 53.776 101.802 54.0977C101.243 54.4108 100.727 54.8171 100.253 55.3164V61.042C100.253 61.8037 100.426 62.3623 100.773 62.7178C101.12 63.0732 101.688 63.2891 102.475 63.3652L102.462 64H95.6953C95.6953 63.9492 95.6911 63.8646 95.6826 63.7461C95.6742 63.6191 95.6699 63.4922 95.6699 63.3652C97.151 63.2467 97.8916 62.4723 97.8916 61.042V49.2227C97.807 49.0957 97.6208 48.9434 97.333 48.7656C97.0452 48.5794 96.7406 48.4144 96.4189 48.2705C96.1058 48.1266 95.873 48.0462 95.7207 48.0293V47.585L99.3516 46.6201L100.253 46.5312V54.25C100.922 53.5814 101.577 53.082 102.221 52.752C102.864 52.4134 103.609 52.2441 104.455 52.2441C105.632 52.2441 106.575 52.6208 107.286 53.374C107.997 54.1188 108.353 55.2572 108.353 56.7891V61.1943ZM114.345 46.5312C114.751 46.5312 115.098 46.6751 115.386 46.9629C115.674 47.2507 115.817 47.5977 115.817 48.0039C115.817 48.4186 115.674 48.7699 115.386 49.0576C115.098 49.3369 114.751 49.4766 114.345 49.4766C113.93 49.4766 113.579 49.3369 113.291 49.0576C113.012 48.7699 112.872 48.4186 112.872 48.0039C112.872 47.5977 113.012 47.2507 113.291 46.9629C113.579 46.6751 113.93 46.5312 114.345 46.5312ZM113.329 54.7705C113.219 54.5758 113.012 54.4023 112.707 54.25C112.411 54.0892 112.102 53.958 111.78 53.8564C111.467 53.7464 111.311 53.6956 111.311 53.7041L111.336 53.2598L114.903 52.3965L115.69 52.3457V61.207C115.69 61.5033 115.72 61.7826 115.779 62.0449C115.847 62.3073 116.042 62.5739 116.363 62.8447C116.693 63.1156 117.21 63.2891 117.912 63.3652C117.912 63.6445 117.908 63.8561 117.899 64H111.272C111.256 63.8477 111.247 63.6361 111.247 63.3652L111.603 63.2637C111.975 63.1621 112.275 63.0605 112.504 62.959C112.732 62.8574 112.927 62.7093 113.088 62.5146C113.249 62.3115 113.329 62.0407 113.329 61.7021V54.7705ZM125.136 52.2441C126.261 52.2441 127.285 52.4896 128.208 52.9805C129.139 53.4629 129.875 54.1569 130.417 55.0625C130.959 55.9596 131.229 57.0049 131.229 58.1982C131.229 59.3916 130.959 60.4495 130.417 61.3721C129.875 62.2861 129.152 62.9971 128.246 63.5049C127.34 64.0042 126.35 64.2539 125.275 64.2539C124.209 64.2539 123.21 63.9958 122.279 63.4795C121.348 62.9632 120.604 62.248 120.045 61.334C119.486 60.4115 119.207 59.3704 119.207 58.2109C119.207 57.0514 119.478 56.0189 120.02 55.1133C120.561 54.1992 121.285 53.4925 122.19 52.9932C123.104 52.4938 124.086 52.2441 125.136 52.2441ZM125.44 63.2637C126.515 63.2637 127.332 62.8786 127.891 62.1084C128.449 61.3382 128.729 60.3268 128.729 59.0742C128.729 57.9909 128.576 56.9964 128.271 56.0908C127.975 55.1768 127.548 54.4489 126.989 53.9072C126.431 53.3656 125.787 53.0947 125.06 53.0947C124.416 53.0947 123.845 53.2513 123.346 53.5645C122.855 53.8776 122.465 54.36 122.178 55.0117C121.89 55.6634 121.746 56.4801 121.746 57.4619C121.746 58.4268 121.898 59.3577 122.203 60.2549C122.508 61.1436 122.939 61.8672 123.498 62.4258C124.057 62.9844 124.704 63.2637 125.44 63.2637ZM137.171 61.1816C137.171 61.9095 137.353 62.4385 137.717 62.7686C138.089 63.0902 138.652 63.2891 139.405 63.3652C139.405 63.4922 139.401 63.6191 139.393 63.7461C139.384 63.873 139.38 63.9577 139.38 64H132.842L132.829 63.5938C132.829 63.4583 132.833 63.3652 132.842 63.3145C133.333 63.196 133.701 63.0902 133.946 62.9971C134.2 62.904 134.408 62.7516 134.568 62.54C134.729 62.3285 134.81 62.0322 134.81 61.6514V54.7705C134.708 54.5758 134.509 54.4023 134.213 54.25C133.917 54.0892 133.604 53.958 133.273 53.8564C132.952 53.7464 132.791 53.6956 132.791 53.7041L132.829 53.2725L136.295 52.4092L137.069 52.3584L137.209 54.415C137.674 53.7887 138.267 53.2725 138.986 52.8662C139.714 52.4515 140.497 52.2441 141.335 52.2441C142.562 52.2441 143.514 52.5911 144.191 53.2852C144.868 53.9792 145.237 55.016 145.296 56.3955C145.321 56.9372 145.334 57.4915 145.334 58.0586V60.8896C145.334 61.5075 145.372 61.9561 145.448 62.2354C145.524 62.5146 145.643 62.7093 145.804 62.8193C145.973 62.9209 146.252 63.0309 146.642 63.1494L147.175 63.3145C147.183 63.3652 147.188 63.4583 147.188 63.5938L147.175 64H140.916C140.916 63.9492 140.912 63.8646 140.903 63.7461C140.895 63.6191 140.891 63.4922 140.891 63.3652C140.95 63.3398 141.119 63.2891 141.398 63.2129C141.847 63.0859 142.194 62.9505 142.439 62.8066C142.693 62.6628 142.846 62.43 142.896 62.1084C142.939 61.863 142.96 61.5371 142.96 61.1309V58.2998C142.96 57.1742 142.918 56.3066 142.833 55.6973C142.757 55.0879 142.545 54.5885 142.198 54.1992C141.86 53.8099 141.31 53.6152 140.548 53.6152C139.947 53.6152 139.367 53.7887 138.809 54.1357C138.258 54.4827 137.713 54.944 137.171 55.5195V61.1816ZM157.331 46.5312C157.737 46.5312 158.084 46.6751 158.372 46.9629C158.66 47.2507 158.804 47.5977 158.804 48.0039C158.804 48.4186 158.66 48.7699 158.372 49.0576C158.084 49.3369 157.737 49.4766 157.331 49.4766C156.916 49.4766 156.565 49.3369 156.277 49.0576C155.998 48.7699 155.858 48.4186 155.858 48.0039C155.858 47.5977 155.998 47.2507 156.277 46.9629C156.565 46.6751 156.916 46.5312 157.331 46.5312ZM156.315 54.7705C156.205 54.5758 155.998 54.4023 155.693 54.25C155.397 54.0892 155.088 53.958 154.767 53.8564C154.453 53.7464 154.297 53.6956 154.297 53.7041L154.322 53.2598L157.89 52.3965L158.677 52.3457V61.207C158.677 61.5033 158.706 61.7826 158.766 62.0449C158.833 62.3073 159.028 62.5739 159.35 62.8447C159.68 63.1156 160.196 63.2891 160.898 63.3652C160.898 63.6445 160.894 63.8561 160.886 64H154.259C154.242 63.8477 154.233 63.6361 154.233 63.3652L154.589 63.2637C154.961 63.1621 155.262 63.0605 155.49 62.959C155.719 62.8574 155.913 62.7093 156.074 62.5146C156.235 62.3115 156.315 62.0407 156.315 61.7021V54.7705ZM169.925 55.9893C169.806 55.9977 169.607 56.002 169.328 56.002C169.083 55.1471 168.71 54.4489 168.211 53.9072C167.72 53.3656 167.09 53.0947 166.319 53.0947C165.786 53.0947 165.363 53.2259 165.05 53.4883C164.745 53.7507 164.593 54.1315 164.593 54.6309C164.593 54.9779 164.72 55.2995 164.974 55.5957C165.228 55.8919 165.536 56.1543 165.9 56.3828C166.273 56.6029 166.759 56.8652 167.36 57.1699C167.504 57.2376 167.72 57.3477 168.008 57.5C168.956 58.0078 169.646 58.5283 170.077 59.0615C170.517 59.5863 170.737 60.2295 170.737 60.9912C170.737 61.6937 170.564 62.2904 170.217 62.7812C169.87 63.2637 169.392 63.6318 168.782 63.8857C168.173 64.1312 167.475 64.2539 166.688 64.2539C165.993 64.2539 165.291 64.1693 164.58 64C163.869 63.8392 163.285 63.6191 162.828 63.3398V60.2422C163.158 60.1999 163.382 60.1787 163.501 60.1787C163.696 61.1182 164.038 61.8841 164.529 62.4766C165.029 63.069 165.71 63.3652 166.573 63.3652C167.191 63.3652 167.703 63.2129 168.109 62.9082C168.524 62.5951 168.731 62.1846 168.731 61.6768C168.731 61.3551 168.638 61.0716 168.452 60.8262C168.266 60.5807 168.025 60.3649 167.729 60.1787C167.432 59.9925 166.988 59.7428 166.396 59.4297C165.6 59.0065 164.995 58.6637 164.58 58.4014C163.937 58.0036 163.45 57.5592 163.12 57.0684C162.799 56.5775 162.638 55.9935 162.638 55.3164C162.638 54.6647 162.803 54.1104 163.133 53.6533C163.463 53.1878 163.911 52.8366 164.479 52.5996C165.046 52.3626 165.685 52.2441 166.396 52.2441C167.047 52.2441 167.665 52.3245 168.249 52.4854C168.841 52.6462 169.375 52.8747 169.849 53.1709L169.925 55.9893ZM183.064 61.0293C183.064 61.7402 183.208 62.2904 183.496 62.6797C183.792 63.0605 184.279 63.2891 184.956 63.3652C184.956 63.4922 184.952 63.6191 184.943 63.7461C184.935 63.873 184.931 63.9577 184.931 64H178.685L178.672 63.3652C178.748 63.3145 178.845 63.2679 178.964 63.2256C179.091 63.1833 179.218 63.1452 179.345 63.1113C179.717 63.0098 180.009 62.8997 180.221 62.7812C180.432 62.6543 180.559 62.4681 180.602 62.2227C180.669 61.8587 180.703 61.4863 180.703 61.1055L180.69 49.1592C180.589 48.9899 180.382 48.8249 180.068 48.6641C179.764 48.4948 179.463 48.3551 179.167 48.2451C178.871 48.1266 178.68 48.0547 178.596 48.0293L178.621 47.585L182.15 46.6201L183.064 46.5312V61.0293ZM189.349 46.5312C189.755 46.5312 190.102 46.6751 190.39 46.9629C190.677 47.2507 190.821 47.5977 190.821 48.0039C190.821 48.4186 190.677 48.7699 190.39 49.0576C190.102 49.3369 189.755 49.4766 189.349 49.4766C188.934 49.4766 188.583 49.3369 188.295 49.0576C188.016 48.7699 187.876 48.4186 187.876 48.0039C187.876 47.5977 188.016 47.2507 188.295 46.9629C188.583 46.6751 188.934 46.5312 189.349 46.5312ZM188.333 54.7705C188.223 54.5758 188.016 54.4023 187.711 54.25C187.415 54.0892 187.106 53.958 186.784 53.8564C186.471 53.7464 186.314 53.6956 186.314 53.7041L186.34 53.2598L189.907 52.3965L190.694 52.3457V61.207C190.694 61.5033 190.724 61.7826 190.783 62.0449C190.851 62.3073 191.046 62.5739 191.367 62.8447C191.697 63.1156 192.214 63.2891 192.916 63.3652C192.916 63.6445 192.912 63.8561 192.903 64H186.276C186.259 63.8477 186.251 63.6361 186.251 63.3652L186.606 63.2637C186.979 63.1621 187.279 63.0605 187.508 62.959C187.736 62.8574 187.931 62.7093 188.092 62.5146C188.253 62.3115 188.333 62.0407 188.333 61.7021V54.7705ZM194.198 64L194.186 63.5938C194.186 63.4583 194.19 63.3652 194.198 63.3145C194.689 63.196 195.057 63.0902 195.303 62.9971C195.557 62.904 195.764 62.7516 195.925 62.54C196.086 62.3285 196.166 62.0322 196.166 61.6514V49.2227C196.081 49.0957 195.895 48.9434 195.607 48.7656C195.32 48.5794 195.015 48.4144 194.693 48.2705C194.38 48.1266 194.147 48.0462 193.995 48.0293V47.585L197.626 46.6201L198.527 46.5312V57.9697H199.568L203.631 53.9834C203.648 53.9411 203.656 53.8945 203.656 53.8438C203.656 53.6491 203.576 53.5221 203.415 53.4629C203.263 53.3952 203.03 53.3444 202.717 53.3105C202.471 53.2852 202.294 53.2555 202.184 53.2217C202.074 53.1878 202.019 53.1159 202.019 53.0059C202.019 52.8874 202.031 52.7477 202.057 52.5869H207.439L207.478 53.0059C207.478 53.1836 207.126 53.3444 206.424 53.4883C205.848 53.6068 205.417 53.7887 205.129 54.0342L201.625 57.627L204.977 61.9688C205.239 62.3158 205.573 62.5908 205.979 62.7939C206.386 62.9971 206.762 63.1367 207.109 63.2129C207.465 63.2891 207.71 63.3271 207.846 63.3271L207.808 64H201.523C201.515 63.9323 201.498 63.8053 201.473 63.6191C201.456 63.4329 201.451 63.3398 201.46 63.3398C201.951 63.3398 202.285 63.2848 202.463 63.1748C202.641 63.0563 202.729 62.9251 202.729 62.7812C202.729 62.7051 202.674 62.6077 202.564 62.4893L199.606 58.668H198.527V61.1816C198.527 61.9095 198.709 62.4385 199.073 62.7686C199.446 63.0902 200.008 63.2891 200.762 63.3652C200.762 63.4922 200.757 63.6191 200.749 63.7461C200.741 63.873 200.736 63.9577 200.736 64H194.198ZM210.575 57.3223C210.567 57.4069 210.562 57.5296 210.562 57.6904C210.562 58.7568 210.753 59.6497 211.134 60.3691C211.523 61.0801 212.039 61.609 212.683 61.9561C213.334 62.2946 214.062 62.4639 214.866 62.4639C215.933 62.4639 216.961 62.1592 217.951 61.5498L218.319 61.9053C218.116 62.3962 217.773 62.8193 217.291 63.1748C216.817 63.5303 216.275 63.8011 215.666 63.9873C215.065 64.165 214.481 64.2539 213.914 64.2539C212.848 64.2539 211.887 64.0042 211.032 63.5049C210.186 63.0055 209.521 62.3073 209.039 61.4102C208.565 60.513 208.328 59.4847 208.328 58.3252C208.328 57.1488 208.586 56.0993 209.103 55.1768C209.619 54.2458 210.304 53.5264 211.159 53.0186C212.022 52.5023 212.945 52.2441 213.927 52.2441C214.731 52.2441 215.454 52.4092 216.098 52.7393C216.749 53.0609 217.278 53.5179 217.685 54.1104C218.091 54.6943 218.349 55.3672 218.459 56.1289C218.552 56.5182 218.599 56.8779 218.599 57.208V57.3223H210.575ZM215.146 56.5098C215.518 56.4928 215.831 56.4251 216.085 56.3066C216.026 55.2995 215.789 54.5124 215.374 53.9453C214.968 53.3783 214.388 53.0947 213.635 53.0947C213.085 53.0947 212.594 53.2598 212.162 53.5898C211.739 53.9199 211.396 54.36 211.134 54.9102C210.871 55.4518 210.702 56.0485 210.626 56.7002L215.146 56.5098ZM228.907 57.3223C228.899 57.4069 228.895 57.5296 228.895 57.6904C228.895 58.7568 229.085 59.6497 229.466 60.3691C229.855 61.0801 230.371 61.609 231.015 61.9561C231.666 62.2946 232.394 62.4639 233.198 62.4639C234.265 62.4639 235.293 62.1592 236.283 61.5498L236.651 61.9053C236.448 62.3962 236.105 62.8193 235.623 63.1748C235.149 63.5303 234.607 63.8011 233.998 63.9873C233.397 64.165 232.813 64.2539 232.246 64.2539C231.18 64.2539 230.219 64.0042 229.364 63.5049C228.518 63.0055 227.854 62.3073 227.371 61.4102C226.897 60.513 226.66 59.4847 226.66 58.3252C226.66 57.1488 226.918 56.0993 227.435 55.1768C227.951 54.2458 228.636 53.5264 229.491 53.0186C230.354 52.5023 231.277 52.2441 232.259 52.2441C233.063 52.2441 233.786 52.4092 234.43 52.7393C235.081 53.0609 235.61 53.5179 236.017 54.1104C236.423 54.6943 236.681 55.3672 236.791 56.1289C236.884 56.5182 236.931 56.8779 236.931 57.208V57.3223H228.907ZM233.478 56.5098C233.85 56.4928 234.163 56.4251 234.417 56.3066C234.358 55.2995 234.121 54.5124 233.706 53.9453C233.3 53.3783 232.72 53.0947 231.967 53.0947C231.417 53.0947 230.926 53.2598 230.494 53.5898C230.071 53.9199 229.728 54.36 229.466 54.9102C229.203 55.4518 229.034 56.0485 228.958 56.7002L233.478 56.5098ZM245.855 56.2686C245.855 55.6338 245.796 55.0964 245.678 54.6562C245.568 54.2161 245.339 53.8607 244.992 53.5898C244.654 53.319 244.167 53.1836 243.532 53.1836C243.312 53.1836 243.041 53.2301 242.72 53.3232C242.398 53.4163 242.115 53.5518 241.869 53.7295C241.632 53.8988 241.514 54.0977 241.514 54.3262C241.514 54.4193 241.531 54.5124 241.564 54.6055C241.598 54.6901 241.653 54.8001 241.729 54.9355C241.806 55.0625 241.861 55.1725 241.895 55.2656C241.928 55.3587 241.945 55.4561 241.945 55.5576C241.945 55.8962 241.835 56.1797 241.615 56.4082C241.404 56.6283 241.129 56.7383 240.79 56.7383C240.367 56.7383 240.028 56.5817 239.774 56.2686C239.529 55.9554 239.406 55.5788 239.406 55.1387C239.406 54.4785 239.664 53.9326 240.181 53.501C240.697 53.0693 241.319 52.752 242.047 52.5488C242.783 52.3457 243.469 52.2441 244.104 52.2441C245.297 52.2441 246.186 52.4219 246.77 52.7773C247.362 53.1243 247.751 53.6364 247.938 54.3135C248.132 54.9821 248.229 55.9215 248.229 57.1318L248.204 57.7666C248.196 57.9528 248.183 58.2617 248.166 58.6934C248.158 59.125 248.153 59.5228 248.153 59.8867C248.153 61.791 248.352 62.7432 248.75 62.7432C249.038 62.7432 249.41 62.4512 249.867 61.8672L250.4 62.4385C250.028 63.0479 249.66 63.5049 249.296 63.8096C248.932 64.1058 248.454 64.2539 247.861 64.2539C247.303 64.2539 246.841 64.0804 246.478 63.7334C246.122 63.3779 245.927 62.9209 245.894 62.3623C245.352 62.9548 244.743 63.4202 244.065 63.7588C243.397 64.0889 242.686 64.2539 241.933 64.2539C241.408 64.2539 240.921 64.1608 240.473 63.9746C240.033 63.7799 239.677 63.4922 239.406 63.1113C239.144 62.7305 239.013 62.2734 239.013 61.7402C239.013 60.9362 239.322 60.2676 239.939 59.7344C240.557 59.2012 241.268 58.7949 242.072 58.5156C242.876 58.2363 243.858 57.957 245.018 57.6777C245.119 57.6608 245.398 57.5931 245.855 57.4746V56.2686ZM245.855 58.2236C245.729 58.266 245.568 58.3167 245.373 58.376C244.645 58.613 244.023 58.8415 243.507 59.0615C242.991 59.2731 242.529 59.5609 242.123 59.9248C241.717 60.2887 241.514 60.7161 241.514 61.207C241.514 61.7064 241.649 62.0999 241.92 62.3877C242.199 62.6755 242.589 62.8193 243.088 62.8193C243.587 62.8193 244.07 62.6966 244.535 62.4512C245.001 62.1973 245.441 61.8672 245.855 61.4609V58.2236ZM255.39 60.0137C255.39 60.877 255.419 61.4948 255.479 61.8672C255.538 62.2311 255.682 62.4977 255.91 62.667C256.139 62.8278 256.524 62.9082 257.065 62.9082C257.387 62.9082 257.709 62.8786 258.03 62.8193C258.352 62.7601 258.623 62.6966 258.843 62.6289L258.944 63.5557C258.513 63.7673 258.077 63.9365 257.637 64.0635C257.197 64.1904 256.668 64.2539 256.05 64.2539C255.229 64.2539 254.603 64.1185 254.171 63.8477C253.739 63.5768 253.439 63.141 253.27 62.54C253.1 61.9307 253.016 61.0758 253.016 59.9756V53.5391H251.124V53.0947C251.7 52.8662 252.182 52.5996 252.571 52.2949C252.969 51.9818 253.295 51.6602 253.549 51.3301C253.803 51 254.107 50.5641 254.463 50.0225C254.615 49.777 254.734 49.6162 254.818 49.54C254.903 49.4554 254.988 49.4131 255.072 49.4131C255.157 49.4131 255.225 49.4554 255.275 49.54C255.335 49.6162 255.364 49.7389 255.364 49.9082V52.5869H258.551V53.5391H255.39V60.0137ZM263.134 46.5312C263.54 46.5312 263.887 46.6751 264.175 46.9629C264.463 47.2507 264.606 47.5977 264.606 48.0039C264.606 48.4186 264.463 48.7699 264.175 49.0576C263.887 49.3369 263.54 49.4766 263.134 49.4766C262.719 49.4766 262.368 49.3369 262.08 49.0576C261.801 48.7699 261.661 48.4186 261.661 48.0039C261.661 47.5977 261.801 47.2507 262.08 46.9629C262.368 46.6751 262.719 46.5312 263.134 46.5312ZM262.118 54.7705C262.008 54.5758 261.801 54.4023 261.496 54.25C261.2 54.0892 260.891 53.958 260.569 53.8564C260.256 53.7464 260.1 53.6956 260.1 53.7041L260.125 53.2598L263.692 52.3965L264.479 52.3457V61.207C264.479 61.5033 264.509 61.7826 264.568 62.0449C264.636 62.3073 264.831 62.5739 265.152 62.8447C265.482 63.1156 265.999 63.2891 266.701 63.3652C266.701 63.6445 266.697 63.8561 266.688 64H260.062C260.045 63.8477 260.036 63.6361 260.036 63.3652L260.392 63.2637C260.764 63.1621 261.064 63.0605 261.293 62.959C261.521 62.8574 261.716 62.7093 261.877 62.5146C262.038 62.3115 262.118 62.0407 262.118 61.7021V54.7705ZM271.843 61.1816C271.843 61.9095 272.025 62.4385 272.389 62.7686C272.761 63.0902 273.324 63.2891 274.077 63.3652C274.077 63.4922 274.073 63.6191 274.064 63.7461C274.056 63.873 274.052 63.9577 274.052 64H267.514L267.501 63.5938C267.501 63.4583 267.505 63.3652 267.514 63.3145C268.005 63.196 268.373 63.0902 268.618 62.9971C268.872 62.904 269.079 62.7516 269.24 62.54C269.401 62.3285 269.481 62.0322 269.481 61.6514V54.7705C269.38 54.5758 269.181 54.4023 268.885 54.25C268.589 54.0892 268.275 53.958 267.945 53.8564C267.624 53.7464 267.463 53.6956 267.463 53.7041L267.501 53.2725L270.967 52.4092L271.741 52.3584L271.881 54.415C272.346 53.7887 272.939 53.2725 273.658 52.8662C274.386 52.4515 275.169 52.2441 276.007 52.2441C277.234 52.2441 278.186 52.5911 278.863 53.2852C279.54 53.9792 279.909 55.016 279.968 56.3955C279.993 56.9372 280.006 57.4915 280.006 58.0586V60.8896C280.006 61.5075 280.044 61.9561 280.12 62.2354C280.196 62.5146 280.315 62.7093 280.476 62.8193C280.645 62.9209 280.924 63.0309 281.313 63.1494L281.847 63.3145C281.855 63.3652 281.859 63.4583 281.859 63.5938L281.847 64H275.588C275.588 63.9492 275.584 63.8646 275.575 63.7461C275.567 63.6191 275.562 63.4922 275.562 63.3652C275.622 63.3398 275.791 63.2891 276.07 63.2129C276.519 63.0859 276.866 62.9505 277.111 62.8066C277.365 62.6628 277.518 62.43 277.568 62.1084C277.611 61.863 277.632 61.5371 277.632 61.1309V58.2998C277.632 57.1742 277.59 56.3066 277.505 55.6973C277.429 55.0879 277.217 54.5885 276.87 54.1992C276.532 53.8099 275.981 53.6152 275.22 53.6152C274.619 53.6152 274.039 53.7887 273.48 54.1357C272.93 54.4827 272.384 54.944 271.843 55.5195V61.1816ZM294.161 53.7803C293.975 53.721 293.67 53.6914 293.247 53.6914C292.909 53.6914 292.553 53.7083 292.181 53.7422C291.808 53.7676 291.567 53.7887 291.457 53.8057C291.457 53.7887 291.55 53.9115 291.736 54.1738C291.923 54.4277 292.088 54.724 292.231 55.0625C292.384 55.3926 292.46 55.7227 292.46 56.0527C292.46 56.9076 292.244 57.6396 291.812 58.249C291.381 58.8584 290.818 59.3197 290.124 59.6328C289.438 59.9375 288.719 60.0898 287.966 60.0898C287.543 60.0898 287.001 60.0137 286.341 59.8613C286.315 59.8783 286.218 59.9417 286.049 60.0518C285.837 60.1872 285.681 60.3141 285.579 60.4326C285.486 60.5426 285.439 60.7035 285.439 60.915C285.439 61.1266 285.549 61.2874 285.77 61.3975C285.99 61.499 286.286 61.571 286.658 61.6133C287.031 61.6471 287.623 61.681 288.436 61.7148C289.045 61.7402 289.726 61.7783 290.479 61.8291C291.554 61.9053 292.422 62.1846 293.082 62.667C293.742 63.1494 294.072 63.8138 294.072 64.6602C294.072 65.4219 293.789 66.0905 293.222 66.666C292.655 67.2415 291.889 67.6816 290.924 67.9863C289.967 68.2995 288.914 68.4561 287.763 68.4561C286.806 68.4561 285.977 68.3503 285.274 68.1387C284.572 67.9355 284.035 67.6689 283.662 67.3389C283.298 67.0173 283.116 66.6829 283.116 66.3359C283.116 65.9635 283.273 65.5531 283.586 65.1045C283.899 64.6559 284.39 64.1862 285.059 63.6953C284.585 63.5007 284.212 63.251 283.941 62.9463C283.679 62.6416 283.548 62.3031 283.548 61.9307C283.548 61.4821 283.73 61.0674 284.094 60.6865C284.458 60.3057 284.974 59.9206 285.643 59.5312C284.974 59.1504 284.458 58.6807 284.094 58.1221C283.73 57.5635 283.548 56.9287 283.548 56.2178C283.548 55.4561 283.734 54.7747 284.106 54.1738C284.487 53.5645 285.012 53.0905 285.681 52.752C286.358 52.4134 287.115 52.2441 287.953 52.2441C288.96 52.2441 289.891 52.4684 290.746 52.917C290.831 52.8831 291.021 52.8197 291.317 52.7266C291.614 52.625 291.965 52.5277 292.371 52.4346C292.786 52.3415 293.162 52.2949 293.501 52.2949C293.619 52.2949 293.738 52.3034 293.856 52.3203C293.983 52.3288 294.064 52.3372 294.098 52.3457L294.161 53.7803ZM285.808 55.9512C285.808 56.916 286.007 57.7074 286.404 58.3252C286.811 58.943 287.411 59.252 288.207 59.252C288.893 59.252 289.4 58.998 289.73 58.4902C290.069 57.9824 290.238 57.2926 290.238 56.4209C290.238 55.7354 290.132 55.1514 289.921 54.6689C289.718 54.1781 289.434 53.8099 289.07 53.5645C288.706 53.3105 288.3 53.1836 287.852 53.1836C287.471 53.1836 287.124 53.3021 286.811 53.5391C286.506 53.7676 286.26 54.0934 286.074 54.5166C285.896 54.9313 285.808 55.4095 285.808 55.9512ZM288.182 63.9619C287.538 63.9535 286.811 63.9027 285.998 63.8096C285.177 64.512 284.767 65.1553 284.767 65.7393C284.767 66.1455 284.953 66.4714 285.325 66.7168C285.706 66.9707 286.15 67.1484 286.658 67.25C287.174 67.3516 287.653 67.4023 288.093 67.4023C288.711 67.4023 289.35 67.3304 290.01 67.1865C290.67 67.0511 291.224 66.8395 291.673 66.5518C292.121 66.264 292.346 65.9128 292.346 65.498C292.346 65.041 292.092 64.6813 291.584 64.4189C291.085 64.1566 290.31 64.0127 289.261 63.9873L288.182 63.9619ZM296.154 66.6406C296.247 66.6068 296.387 66.5645 296.573 66.5137C297.115 66.3444 297.538 66.1878 297.843 66.0439C298.147 65.9001 298.406 65.6885 298.617 65.4092C298.837 65.1299 298.947 64.7575 298.947 64.292C298.829 64.0042 298.664 63.7799 298.452 63.6191C298.249 63.4583 297.982 63.3483 297.652 63.2891C297.255 63.2298 296.946 63.069 296.726 62.8066C296.514 62.5358 296.408 62.1973 296.408 61.791C296.408 61.2917 296.569 60.877 296.891 60.5469C297.221 60.2168 297.652 60.0518 298.186 60.0518C298.643 60.0518 299.057 60.1829 299.43 60.4453C299.802 60.7077 300.094 61.097 300.306 61.6133C300.526 62.1211 300.636 62.7262 300.636 63.4287C300.636 64.2666 300.441 64.9818 300.052 65.5742C299.671 66.1667 299.159 66.6152 298.516 66.9199C297.872 67.2246 297.161 67.3854 296.383 67.4023C296.307 67.2839 296.247 67.1654 296.205 67.0469C296.171 66.9368 296.154 66.8014 296.154 66.6406ZM58.1934 87.9609C57.9902 87.5039 57.7956 87.1611 57.6094 86.9326C57.4232 86.7041 57.2497 86.556 57.0889 86.4883C56.9365 86.4121 56.7546 86.3571 56.543 86.3232C56.416 86.3063 56.2975 86.2809 56.1875 86.2471V85.5869H62.1416C62.1585 85.6631 62.1797 85.8027 62.2051 86.0059C62.2389 86.2005 62.2389 86.3021 62.2051 86.3105C61.6465 86.4121 61.236 86.5306 60.9736 86.666C60.7113 86.793 60.5801 86.9919 60.5801 87.2627C60.5801 87.4404 60.6351 87.7028 60.7451 88.0498L63.2588 94.3086L65.4297 88.4307C65.5566 88.1006 65.6201 87.8128 65.6201 87.5674C65.6201 87.2035 65.4889 86.9284 65.2266 86.7422C64.9642 86.5475 64.5452 86.3994 63.9697 86.2979C63.9613 86.2471 63.957 86.1497 63.957 86.0059C63.957 85.9043 63.957 85.8154 63.957 85.7393C63.9655 85.6631 63.9697 85.6123 63.9697 85.5869H68.6289L68.6416 86.2344C68.5062 86.3444 68.32 86.4417 68.083 86.5264C67.863 86.6195 67.6768 86.7126 67.5244 86.8057C67.3805 86.8903 67.2367 87.0299 67.0928 87.2246C66.9574 87.4193 66.8431 87.6859 66.75 88.0244L62.2432 99.1201C61.8708 100.051 61.4264 100.766 60.9102 101.266C60.4023 101.765 59.7549 102.015 58.9678 102.015C58.4007 102.015 57.931 101.879 57.5586 101.608C57.1947 101.346 57.0127 100.991 57.0127 100.542C57.0127 100.212 57.127 99.9326 57.3555 99.7041C57.5924 99.4756 57.876 99.3613 58.2061 99.3613C58.5023 99.3613 58.7223 99.4121 58.8662 99.5137C59.0186 99.6152 59.1667 99.7676 59.3105 99.9707C59.4206 100.123 59.5221 100.237 59.6152 100.313C59.7168 100.398 59.8522 100.44 60.0215 100.44C60.2839 100.44 60.5166 100.322 60.7197 100.085C60.9229 99.848 61.1133 99.5264 61.291 99.1201C61.4772 98.7223 61.7354 98.096 62.0654 97.2412L62.1543 97L58.1934 87.9609ZM75.1162 85.2441C76.2419 85.2441 77.266 85.4896 78.1885 85.9805C79.1195 86.4629 79.8558 87.1569 80.3975 88.0625C80.9391 88.9596 81.21 90.0049 81.21 91.1982C81.21 92.3916 80.9391 93.4495 80.3975 94.3721C79.8558 95.2861 79.1322 95.9971 78.2266 96.5049C77.321 97.0042 76.3307 97.2539 75.2559 97.2539C74.1895 97.2539 73.1908 96.9958 72.2598 96.4795C71.3288 95.9632 70.584 95.248 70.0254 94.334C69.4668 93.4115 69.1875 92.3704 69.1875 91.2109C69.1875 90.0514 69.4583 89.0189 70 88.1133C70.5417 87.1992 71.2653 86.4925 72.1709 85.9932C73.085 85.4938 74.0667 85.2441 75.1162 85.2441ZM75.4209 96.2637C76.4958 96.2637 77.3125 95.8786 77.8711 95.1084C78.4297 94.3382 78.709 93.3268 78.709 92.0742C78.709 90.9909 78.5566 89.9964 78.252 89.0908C77.9557 88.1768 77.5283 87.4489 76.9697 86.9072C76.4111 86.3656 75.7679 86.0947 75.04 86.0947C74.3968 86.0947 73.8255 86.2513 73.3262 86.5645C72.8353 86.8776 72.446 87.36 72.1582 88.0117C71.8704 88.6634 71.7266 89.4801 71.7266 90.4619C71.7266 91.4268 71.8789 92.3577 72.1836 93.2549C72.4883 94.1436 72.9199 94.8672 73.4785 95.4258C74.0371 95.9844 74.6846 96.2637 75.4209 96.2637ZM87.7734 97.2539C86.7493 97.2539 85.958 97 85.3994 96.4922C84.8493 95.9759 84.4769 95.3073 84.2822 94.4863C84.0876 93.6654 83.9902 92.6878 83.9902 91.5537V87.7705C83.8802 87.5758 83.6729 87.4023 83.3682 87.25C83.0719 87.0892 82.763 86.958 82.4414 86.8564C82.1283 86.7464 81.9717 86.6956 81.9717 86.7041L81.9971 86.2598L85.5645 85.3965L86.3516 85.3457V91.4141C86.3516 92.4974 86.4193 93.3522 86.5547 93.9785C86.6901 94.5964 86.9186 95.0492 87.2402 95.3369C87.5618 95.6162 88.0104 95.7559 88.5859 95.7559C89.7624 95.7559 90.8711 95.2396 91.9121 94.207V87.7705C91.8021 87.5758 91.5947 87.4023 91.29 87.25C90.9938 87.0892 90.6849 86.958 90.3633 86.8564C90.0501 86.7464 89.8936 86.6956 89.8936 86.7041L89.9189 86.2598L93.4863 85.3965L94.2734 85.3457V94.4482C94.2734 94.8037 94.3623 95.0788 94.54 95.2734C94.7178 95.4596 94.9378 95.5951 95.2002 95.6797C95.4626 95.7643 95.8223 95.8447 96.2793 95.9209C96.2793 96.0479 96.2708 96.179 96.2539 96.3145C96.2454 96.4499 96.2412 96.543 96.2412 96.5938L92.0771 97.1904L91.9756 95.1592C90.723 96.5557 89.3223 97.2539 87.7734 97.2539ZM111.552 88.9893C111.433 88.9977 111.234 89.002 110.955 89.002C110.71 88.1471 110.337 87.4489 109.838 86.9072C109.347 86.3656 108.716 86.0947 107.946 86.0947C107.413 86.0947 106.99 86.2259 106.677 86.4883C106.372 86.7507 106.22 87.1315 106.22 87.6309C106.22 87.9779 106.347 88.2995 106.601 88.5957C106.854 88.8919 107.163 89.1543 107.527 89.3828C107.9 89.6029 108.386 89.8652 108.987 90.1699C109.131 90.2376 109.347 90.3477 109.635 90.5C110.583 91.0078 111.272 91.5283 111.704 92.0615C112.144 92.5863 112.364 93.2295 112.364 93.9912C112.364 94.6937 112.191 95.2904 111.844 95.7812C111.497 96.2637 111.019 96.6318 110.409 96.8857C109.8 97.1312 109.102 97.2539 108.314 97.2539C107.62 97.2539 106.918 97.1693 106.207 97C105.496 96.8392 104.912 96.6191 104.455 96.3398V93.2422C104.785 93.1999 105.009 93.1787 105.128 93.1787C105.323 94.1182 105.665 94.8841 106.156 95.4766C106.656 96.069 107.337 96.3652 108.2 96.3652C108.818 96.3652 109.33 96.2129 109.736 95.9082C110.151 95.5951 110.358 95.1846 110.358 94.6768C110.358 94.3551 110.265 94.0716 110.079 93.8262C109.893 93.5807 109.652 93.3649 109.355 93.1787C109.059 92.9925 108.615 92.7428 108.022 92.4297C107.227 92.0065 106.622 91.6637 106.207 91.4014C105.564 91.0036 105.077 90.5592 104.747 90.0684C104.425 89.5775 104.265 88.9935 104.265 88.3164C104.265 87.6647 104.43 87.1104 104.76 86.6533C105.09 86.1878 105.538 85.8366 106.105 85.5996C106.673 85.3626 107.312 85.2441 108.022 85.2441C108.674 85.2441 109.292 85.3245 109.876 85.4854C110.468 85.6462 111.002 85.8747 111.476 86.1709L111.552 88.9893ZM126.812 94.1943C126.812 94.846 126.977 95.3581 127.307 95.7305C127.645 96.0944 128.123 96.306 128.741 96.3652C128.741 96.4922 128.737 96.6191 128.729 96.7461C128.72 96.8646 128.716 96.9492 128.716 97H122.47C122.47 96.9492 122.465 96.8646 122.457 96.7461C122.449 96.6191 122.444 96.4922 122.444 96.3652C122.588 96.2975 122.868 96.2002 123.282 96.0732C123.604 95.9717 123.837 95.8786 123.98 95.7939C124.133 95.7008 124.247 95.54 124.323 95.3115C124.408 95.083 124.45 94.7402 124.45 94.2832V89.6748C124.45 88.7438 124.251 88.0033 123.854 87.4531C123.464 86.8945 122.851 86.6152 122.013 86.6152C121.412 86.6152 120.828 86.776 120.261 87.0977C119.702 87.4108 119.186 87.8171 118.712 88.3164V94.042C118.712 94.8037 118.885 95.3623 119.232 95.7178C119.579 96.0732 120.146 96.2891 120.934 96.3652L120.921 97H114.154C114.154 96.9492 114.15 96.8646 114.142 96.7461C114.133 96.6191 114.129 96.4922 114.129 96.3652C115.61 96.2467 116.351 95.4723 116.351 94.042V82.2227C116.266 82.0957 116.08 81.9434 115.792 81.7656C115.504 81.5794 115.2 81.4144 114.878 81.2705C114.565 81.1266 114.332 81.0462 114.18 81.0293V80.585L117.811 79.6201L118.712 79.5312V87.25C119.381 86.5814 120.036 86.082 120.68 85.752C121.323 85.4134 122.068 85.2441 122.914 85.2441C124.09 85.2441 125.034 85.6208 125.745 86.374C126.456 87.1188 126.812 88.2572 126.812 89.7891V94.1943ZM136.054 85.2441C137.179 85.2441 138.203 85.4896 139.126 85.9805C140.057 86.4629 140.793 87.1569 141.335 88.0625C141.877 88.9596 142.147 90.0049 142.147 91.1982C142.147 92.3916 141.877 93.4495 141.335 94.3721C140.793 95.2861 140.07 95.9971 139.164 96.5049C138.258 97.0042 137.268 97.2539 136.193 97.2539C135.127 97.2539 134.128 96.9958 133.197 96.4795C132.266 95.9632 131.521 95.248 130.963 94.334C130.404 93.4115 130.125 92.3704 130.125 91.2109C130.125 90.0514 130.396 89.0189 130.938 88.1133C131.479 87.1992 132.203 86.4925 133.108 85.9932C134.022 85.4938 135.004 85.2441 136.054 85.2441ZM136.358 96.2637C137.433 96.2637 138.25 95.8786 138.809 95.1084C139.367 94.3382 139.646 93.3268 139.646 92.0742C139.646 90.9909 139.494 89.9964 139.189 89.0908C138.893 88.1768 138.466 87.4489 137.907 86.9072C137.349 86.3656 136.705 86.0947 135.978 86.0947C135.334 86.0947 134.763 86.2513 134.264 86.5645C133.773 86.8776 133.383 87.36 133.096 88.0117C132.808 88.6634 132.664 89.4801 132.664 90.4619C132.664 91.4268 132.816 92.3577 133.121 93.2549C133.426 94.1436 133.857 94.8672 134.416 95.4258C134.975 95.9844 135.622 96.2637 136.358 96.2637ZM148.711 97.2539C147.687 97.2539 146.896 97 146.337 96.4922C145.787 95.9759 145.414 95.3073 145.22 94.4863C145.025 93.6654 144.928 92.6878 144.928 91.5537V87.7705C144.818 87.5758 144.61 87.4023 144.306 87.25C144.009 87.0892 143.701 86.958 143.379 86.8564C143.066 86.7464 142.909 86.6956 142.909 86.7041L142.935 86.2598L146.502 85.3965L147.289 85.3457V91.4141C147.289 92.4974 147.357 93.3522 147.492 93.9785C147.628 94.5964 147.856 95.0492 148.178 95.3369C148.499 95.6162 148.948 95.7559 149.523 95.7559C150.7 95.7559 151.809 95.2396 152.85 94.207V87.7705C152.74 87.5758 152.532 87.4023 152.228 87.25C151.931 87.0892 151.622 86.958 151.301 86.8564C150.988 86.7464 150.831 86.6956 150.831 86.7041L150.856 86.2598L154.424 85.3965L155.211 85.3457V94.4482C155.211 94.8037 155.3 95.0788 155.478 95.2734C155.655 95.4596 155.875 95.5951 156.138 95.6797C156.4 95.7643 156.76 95.8447 157.217 95.9209C157.217 96.0479 157.208 96.179 157.191 96.3145C157.183 96.4499 157.179 96.543 157.179 96.5938L153.015 97.1904L152.913 95.1592C151.66 96.5557 150.26 97.2539 148.711 97.2539ZM162.6 94.0293C162.6 94.7402 162.743 95.2904 163.031 95.6797C163.327 96.0605 163.814 96.2891 164.491 96.3652C164.491 96.4922 164.487 96.6191 164.479 96.7461C164.47 96.873 164.466 96.9577 164.466 97H158.22L158.207 96.3652C158.283 96.3145 158.381 96.2679 158.499 96.2256C158.626 96.1833 158.753 96.1452 158.88 96.1113C159.252 96.0098 159.544 95.8997 159.756 95.7812C159.967 95.6543 160.094 95.4681 160.137 95.2227C160.204 94.8587 160.238 94.4863 160.238 94.1055L160.226 82.1592C160.124 81.9899 159.917 81.8249 159.604 81.6641C159.299 81.4948 158.998 81.3551 158.702 81.2451C158.406 81.1266 158.215 81.0547 158.131 81.0293L158.156 80.585L161.686 79.6201L162.6 79.5312V94.0293ZM175.6 82.083C175.49 81.9137 175.274 81.7445 174.952 81.5752C174.639 81.4059 174.33 81.262 174.025 81.1436C173.729 81.0251 173.535 80.9531 173.441 80.9277L173.467 80.4834L177.047 79.6201L177.961 79.5312V94.4736C177.961 94.9814 178.177 95.3454 178.608 95.5654C179.049 95.7855 179.518 95.8955 180.018 95.8955V96.5938L176.628 97.1523H175.777L175.663 95.1846C175.062 95.8786 174.432 96.3991 173.771 96.7461C173.111 97.0846 172.405 97.2539 171.651 97.2539C170.695 97.2539 169.819 97.0254 169.023 96.5684C168.236 96.1029 167.614 95.4554 167.157 94.626C166.7 93.7881 166.472 92.8275 166.472 91.7441C166.472 90.5 166.726 89.387 167.233 88.4053C167.75 87.4235 168.456 86.6576 169.354 86.1074C170.251 85.5573 171.254 85.2822 172.362 85.2822C172.879 85.2822 173.382 85.3626 173.873 85.5234C174.364 85.6758 174.939 85.9085 175.6 86.2217V82.083ZM175.6 90.5254C175.6 89.7044 175.528 89.0443 175.384 88.5449C175.24 88.0371 174.948 87.5885 174.508 87.1992C174.169 86.903 173.805 86.6745 173.416 86.5137C173.027 86.3444 172.633 86.2598 172.235 86.2598C171.567 86.2598 170.974 86.4756 170.458 86.9072C169.942 87.3389 169.54 87.9144 169.252 88.6338C168.973 89.3447 168.833 90.1149 168.833 90.9443C168.833 91.7484 168.973 92.5186 169.252 93.2549C169.54 93.9827 169.967 94.5794 170.534 95.0449C171.101 95.5104 171.787 95.7432 172.591 95.7432C173.234 95.7432 173.805 95.6035 174.305 95.3242C174.812 95.0365 175.244 94.6556 175.6 94.1816V90.5254ZM185.286 94.1816C185.286 94.9095 185.468 95.4385 185.832 95.7686C186.204 96.0902 186.767 96.2891 187.521 96.3652C187.521 96.4922 187.516 96.6191 187.508 96.7461C187.499 96.873 187.495 96.9577 187.495 97H180.957L180.944 96.5938C180.944 96.4583 180.949 96.3652 180.957 96.3145C181.448 96.196 181.816 96.0902 182.062 95.9971C182.315 95.904 182.523 95.7516 182.684 95.54C182.844 95.3285 182.925 95.0322 182.925 94.6514V87.7705C182.823 87.5758 182.624 87.4023 182.328 87.25C182.032 87.0892 181.719 86.958 181.389 86.8564C181.067 86.7464 180.906 86.6956 180.906 86.7041L180.944 86.2725L184.41 85.4092L185.185 85.3584L185.324 87.415C185.79 86.7887 186.382 86.2725 187.102 85.8662C187.829 85.4515 188.612 85.2441 189.45 85.2441C190.677 85.2441 191.63 85.5911 192.307 86.2852C192.984 86.9792 193.352 88.016 193.411 89.3955C193.437 89.9372 193.449 90.4915 193.449 91.0586V93.8896C193.449 94.5075 193.487 94.9561 193.563 95.2354C193.64 95.5146 193.758 95.7093 193.919 95.8193C194.088 95.9209 194.368 96.0309 194.757 96.1494L195.29 96.3145C195.299 96.3652 195.303 96.4583 195.303 96.5938L195.29 97H189.031C189.031 96.9492 189.027 96.8646 189.019 96.7461C189.01 96.6191 189.006 96.4922 189.006 96.3652C189.065 96.3398 189.234 96.2891 189.514 96.2129C189.962 96.0859 190.309 95.9505 190.555 95.8066C190.809 95.6628 190.961 95.43 191.012 95.1084C191.054 94.863 191.075 94.5371 191.075 94.1309V91.2998C191.075 90.1742 191.033 89.3066 190.948 88.6973C190.872 88.0879 190.66 87.5885 190.313 87.1992C189.975 86.8099 189.425 86.6152 188.663 86.6152C188.062 86.6152 187.482 86.7887 186.924 87.1357C186.374 87.4827 185.828 87.944 185.286 88.5195V94.1816ZM196.687 81.7656C196.687 81.3594 196.801 81.042 197.029 80.8135C197.258 80.585 197.575 80.4707 197.981 80.4707C198.388 80.4707 198.701 80.585 198.921 80.8135C199.149 81.042 199.264 81.3594 199.264 81.7656C199.264 82.1973 199.188 82.887 199.035 83.835C198.883 84.7744 198.697 85.6123 198.477 86.3486C198.257 87.0765 198.036 87.4404 197.816 87.4404C197.689 87.1442 197.537 86.5941 197.359 85.79C197.182 84.986 197.025 84.182 196.89 83.3779C196.754 82.5654 196.687 82.028 196.687 81.7656ZM204.989 93.0137C204.989 93.877 205.019 94.4948 205.078 94.8672C205.137 95.2311 205.281 95.4977 205.51 95.667C205.738 95.8278 206.123 95.9082 206.665 95.9082C206.987 95.9082 207.308 95.8786 207.63 95.8193C207.951 95.7601 208.222 95.6966 208.442 95.6289L208.544 96.5557C208.112 96.7673 207.676 96.9365 207.236 97.0635C206.796 97.1904 206.267 97.2539 205.649 97.2539C204.828 97.2539 204.202 97.1185 203.771 96.8477C203.339 96.5768 203.038 96.141 202.869 95.54C202.7 94.9307 202.615 94.0758 202.615 92.9756V86.5391H200.724V86.0947C201.299 85.8662 201.782 85.5996 202.171 85.2949C202.569 84.9818 202.895 84.6602 203.148 84.3301C203.402 84 203.707 83.5641 204.062 83.0225C204.215 82.777 204.333 82.6162 204.418 82.54C204.503 82.4554 204.587 82.4131 204.672 82.4131C204.757 82.4131 204.824 82.4554 204.875 82.54C204.934 82.6162 204.964 82.7389 204.964 82.9082V85.5869H208.15V86.5391H204.989V93.0137ZM223.88 88.9893C223.761 88.9977 223.562 89.002 223.283 89.002C223.038 88.1471 222.665 87.4489 222.166 86.9072C221.675 86.3656 221.045 86.0947 220.274 86.0947C219.741 86.0947 219.318 86.2259 219.005 86.4883C218.7 86.7507 218.548 87.1315 218.548 87.6309C218.548 87.9779 218.675 88.2995 218.929 88.5957C219.183 88.8919 219.492 89.1543 219.855 89.3828C220.228 89.6029 220.715 89.8652 221.315 90.1699C221.459 90.2376 221.675 90.3477 221.963 90.5C222.911 91.0078 223.601 91.5283 224.032 92.0615C224.472 92.5863 224.692 93.2295 224.692 93.9912C224.692 94.6937 224.519 95.2904 224.172 95.7812C223.825 96.2637 223.347 96.6318 222.737 96.8857C222.128 97.1312 221.43 97.2539 220.643 97.2539C219.949 97.2539 219.246 97.1693 218.535 97C217.824 96.8392 217.24 96.6191 216.783 96.3398V93.2422C217.113 93.1999 217.338 93.1787 217.456 93.1787C217.651 94.1182 217.993 94.8841 218.484 95.4766C218.984 96.069 219.665 96.3652 220.528 96.3652C221.146 96.3652 221.658 96.2129 222.064 95.9082C222.479 95.5951 222.687 95.1846 222.687 94.6768C222.687 94.3551 222.593 94.0716 222.407 93.8262C222.221 93.5807 221.98 93.3649 221.684 93.1787C221.387 92.9925 220.943 92.7428 220.351 92.4297C219.555 92.0065 218.95 91.6637 218.535 91.4014C217.892 91.0036 217.405 90.5592 217.075 90.0684C216.754 89.5775 216.593 88.9935 216.593 88.3164C216.593 87.6647 216.758 87.1104 217.088 86.6533C217.418 86.1878 217.867 85.8366 218.434 85.5996C219.001 85.3626 219.64 85.2441 220.351 85.2441C221.002 85.2441 221.62 85.3245 222.204 85.4854C222.797 85.6462 223.33 85.8747 223.804 86.1709L223.88 88.9893ZM230.608 93.0137C230.608 93.877 230.638 94.4948 230.697 94.8672C230.757 95.2311 230.9 95.4977 231.129 95.667C231.357 95.8278 231.743 95.9082 232.284 95.9082C232.606 95.9082 232.927 95.8786 233.249 95.8193C233.571 95.7601 233.841 95.6966 234.062 95.6289L234.163 96.5557C233.731 96.7673 233.296 96.9365 232.855 97.0635C232.415 97.1904 231.886 97.2539 231.269 97.2539C230.448 97.2539 229.821 97.1185 229.39 96.8477C228.958 96.5768 228.658 96.141 228.488 95.54C228.319 94.9307 228.234 94.0758 228.234 92.9756V86.5391H226.343V86.0947C226.918 85.8662 227.401 85.5996 227.79 85.2949C228.188 84.9818 228.514 84.6602 228.768 84.3301C229.021 84 229.326 83.5641 229.682 83.0225C229.834 82.777 229.952 82.6162 230.037 82.54C230.122 82.4554 230.206 82.4131 230.291 82.4131C230.376 82.4131 230.443 82.4554 230.494 82.54C230.553 82.6162 230.583 82.7389 230.583 82.9082V85.5869H233.77V86.5391H230.608V93.0137ZM238.353 79.5312C238.759 79.5312 239.106 79.6751 239.394 79.9629C239.681 80.2507 239.825 80.5977 239.825 81.0039C239.825 81.4186 239.681 81.7699 239.394 82.0576C239.106 82.3369 238.759 82.4766 238.353 82.4766C237.938 82.4766 237.587 82.3369 237.299 82.0576C237.02 81.7699 236.88 81.4186 236.88 81.0039C236.88 80.5977 237.02 80.2507 237.299 79.9629C237.587 79.6751 237.938 79.5312 238.353 79.5312ZM237.337 87.7705C237.227 87.5758 237.02 87.4023 236.715 87.25C236.419 87.0892 236.11 86.958 235.788 86.8564C235.475 86.7464 235.318 86.6956 235.318 86.7041L235.344 86.2598L238.911 85.3965L239.698 85.3457V94.207C239.698 94.5033 239.728 94.7826 239.787 95.0449C239.855 95.3073 240.049 95.5739 240.371 95.8447C240.701 96.1156 241.217 96.2891 241.92 96.3652C241.92 96.6445 241.916 96.8561 241.907 97H235.28C235.263 96.8477 235.255 96.6361 235.255 96.3652L235.61 96.2637C235.983 96.1621 236.283 96.0605 236.512 95.959C236.74 95.8574 236.935 95.7093 237.096 95.5146C237.257 95.3115 237.337 95.0407 237.337 94.7021V87.7705ZM253.333 94.6133C253.155 95.1803 252.838 95.6628 252.381 96.0605C251.924 96.4583 251.386 96.7588 250.769 96.9619C250.151 97.1566 249.507 97.2539 248.839 97.2539C247.671 97.2539 246.66 96.9831 245.805 96.4414C244.958 95.8913 244.315 95.1634 243.875 94.2578C243.435 93.3522 243.215 92.3704 243.215 91.3125C243.215 90.1953 243.481 89.1755 244.015 88.2529C244.548 87.3219 245.297 86.5898 246.262 86.0566C247.227 85.515 248.323 85.2441 249.55 85.2441C250.261 85.2441 250.912 85.3499 251.505 85.5615C252.097 85.7646 252.563 86.0566 252.901 86.4375C253.248 86.8184 253.422 87.2585 253.422 87.7578C253.422 88.1387 253.299 88.418 253.054 88.5957C252.808 88.765 252.546 88.8496 252.267 88.8496C252.004 88.8496 251.801 88.8031 251.657 88.71C251.513 88.6084 251.408 88.4899 251.34 88.3545C251.281 88.2106 251.221 88.0117 251.162 87.7578C251.094 87.4362 251.01 87.1738 250.908 86.9707C250.815 86.7676 250.637 86.5898 250.375 86.4375C250.113 86.2852 249.736 86.2005 249.245 86.1836C248.593 86.1582 247.984 86.319 247.417 86.666C246.85 87.0046 246.393 87.5124 246.046 88.1895C245.707 88.8665 245.538 89.679 245.538 90.627C245.538 91.5072 245.695 92.3154 246.008 93.0518C246.321 93.7881 246.778 94.3763 247.379 94.8164C247.988 95.2565 248.716 95.4766 249.562 95.4766C250.299 95.4766 250.912 95.3877 251.403 95.21C251.894 95.0322 252.402 94.736 252.927 94.3213L253.333 94.6133ZM255.136 97L255.123 96.5938C255.123 96.4583 255.127 96.3652 255.136 96.3145C255.627 96.196 255.995 96.0902 256.24 95.9971C256.494 95.904 256.701 95.7516 256.862 95.54C257.023 95.3285 257.104 95.0322 257.104 94.6514V82.2227C257.019 82.0957 256.833 81.9434 256.545 81.7656C256.257 81.5794 255.952 81.4144 255.631 81.2705C255.318 81.1266 255.085 81.0462 254.933 81.0293V80.585L258.563 79.6201L259.465 79.5312V90.9697H260.506L264.568 86.9834C264.585 86.9411 264.594 86.8945 264.594 86.8438C264.594 86.6491 264.513 86.5221 264.353 86.4629C264.2 86.3952 263.967 86.3444 263.654 86.3105C263.409 86.2852 263.231 86.2555 263.121 86.2217C263.011 86.1878 262.956 86.1159 262.956 86.0059C262.956 85.8874 262.969 85.7477 262.994 85.5869H268.377L268.415 86.0059C268.415 86.1836 268.064 86.3444 267.361 86.4883C266.786 86.6068 266.354 86.7887 266.066 87.0342L262.562 90.627L265.914 94.9688C266.176 95.3158 266.511 95.5908 266.917 95.7939C267.323 95.9971 267.7 96.1367 268.047 96.2129C268.402 96.2891 268.648 96.3271 268.783 96.3271L268.745 97H262.461C262.452 96.9323 262.436 96.8053 262.41 96.6191C262.393 96.4329 262.389 96.3398 262.397 96.3398C262.888 96.3398 263.223 96.2848 263.4 96.1748C263.578 96.0563 263.667 95.9251 263.667 95.7812C263.667 95.7051 263.612 95.6077 263.502 95.4893L260.544 91.668H259.465V94.1816C259.465 94.9095 259.647 95.4385 260.011 95.7686C260.383 96.0902 260.946 96.2891 261.699 96.3652C261.699 96.4922 261.695 96.6191 261.687 96.7461C261.678 96.873 261.674 96.9577 261.674 97H255.136ZM279.714 93.0137C279.714 93.877 279.743 94.4948 279.803 94.8672C279.862 95.2311 280.006 95.4977 280.234 95.667C280.463 95.8278 280.848 95.9082 281.39 95.9082C281.711 95.9082 282.033 95.8786 282.354 95.8193C282.676 95.7601 282.947 95.6966 283.167 95.6289L283.269 96.5557C282.837 96.7673 282.401 96.9365 281.961 97.0635C281.521 97.1904 280.992 97.2539 280.374 97.2539C279.553 97.2539 278.927 97.1185 278.495 96.8477C278.063 96.5768 277.763 96.141 277.594 95.54C277.424 94.9307 277.34 94.0758 277.34 92.9756V86.5391H275.448V86.0947C276.024 85.8662 276.506 85.5996 276.896 85.2949C277.293 84.9818 277.619 84.6602 277.873 84.3301C278.127 84 278.432 83.5641 278.787 83.0225C278.939 82.777 279.058 82.6162 279.143 82.54C279.227 82.4554 279.312 82.4131 279.396 82.4131C279.481 82.4131 279.549 82.4554 279.6 82.54C279.659 82.6162 279.688 82.7389 279.688 82.9082V85.5869H282.875V86.5391H279.714V93.0137ZM290.708 85.2441C291.834 85.2441 292.858 85.4896 293.78 85.9805C294.711 86.4629 295.448 87.1569 295.989 88.0625C296.531 88.9596 296.802 90.0049 296.802 91.1982C296.802 92.3916 296.531 93.4495 295.989 94.3721C295.448 95.2861 294.724 95.9971 293.818 96.5049C292.913 97.0042 291.923 97.2539 290.848 97.2539C289.781 97.2539 288.783 96.9958 287.852 96.4795C286.921 95.9632 286.176 95.248 285.617 94.334C285.059 93.4115 284.779 92.3704 284.779 91.2109C284.779 90.0514 285.05 89.0189 285.592 88.1133C286.133 87.1992 286.857 86.4925 287.763 85.9932C288.677 85.4938 289.659 85.2441 290.708 85.2441ZM291.013 96.2637C292.088 96.2637 292.904 95.8786 293.463 95.1084C294.021 94.3382 294.301 93.3268 294.301 92.0742C294.301 90.9909 294.148 89.9964 293.844 89.0908C293.548 88.1768 293.12 87.4489 292.562 86.9072C292.003 86.3656 291.36 86.0947 290.632 86.0947C289.989 86.0947 289.417 86.2513 288.918 86.5645C288.427 86.8776 288.038 87.36 287.75 88.0117C287.462 88.6634 287.318 89.4801 287.318 90.4619C287.318 91.4268 287.471 92.3577 287.775 93.2549C288.08 94.1436 288.512 94.8672 289.07 95.4258C289.629 95.9844 290.276 96.2637 291.013 96.2637ZM308.608 93.0137C308.608 93.877 308.638 94.4948 308.697 94.8672C308.757 95.2311 308.9 95.4977 309.129 95.667C309.357 95.8278 309.743 95.9082 310.284 95.9082C310.606 95.9082 310.927 95.8786 311.249 95.8193C311.571 95.7601 311.841 95.6966 312.062 95.6289L312.163 96.5557C311.731 96.7673 311.296 96.9365 310.855 97.0635C310.415 97.1904 309.886 97.2539 309.269 97.2539C308.448 97.2539 307.821 97.1185 307.39 96.8477C306.958 96.5768 306.658 96.141 306.488 95.54C306.319 94.9307 306.234 94.0758 306.234 92.9756V86.5391H304.343V86.0947C304.918 85.8662 305.401 85.5996 305.79 85.2949C306.188 84.9818 306.514 84.6602 306.768 84.3301C307.021 84 307.326 83.5641 307.682 83.0225C307.834 82.777 307.952 82.6162 308.037 82.54C308.122 82.4554 308.206 82.4131 308.291 82.4131C308.376 82.4131 308.443 82.4554 308.494 82.54C308.553 82.6162 308.583 82.7389 308.583 82.9082V85.5869H311.77V86.5391H308.608V93.0137ZM325.823 94.1943C325.823 94.846 325.988 95.3581 326.318 95.7305C326.657 96.0944 327.135 96.306 327.753 96.3652C327.753 96.4922 327.749 96.6191 327.74 96.7461C327.732 96.8646 327.728 96.9492 327.728 97H321.481C321.481 96.9492 321.477 96.8646 321.469 96.7461C321.46 96.6191 321.456 96.4922 321.456 96.3652C321.6 96.2975 321.879 96.2002 322.294 96.0732C322.616 95.9717 322.848 95.8786 322.992 95.7939C323.145 95.7008 323.259 95.54 323.335 95.3115C323.42 95.083 323.462 94.7402 323.462 94.2832V89.6748C323.462 88.7438 323.263 88.0033 322.865 87.4531C322.476 86.8945 321.862 86.6152 321.024 86.6152C320.424 86.6152 319.84 86.776 319.272 87.0977C318.714 87.4108 318.198 87.8171 317.724 88.3164V94.042C317.724 94.8037 317.897 95.3623 318.244 95.7178C318.591 96.0732 319.158 96.2891 319.945 96.3652L319.933 97H313.166C313.166 96.9492 313.162 96.8646 313.153 96.7461C313.145 96.6191 313.141 96.4922 313.141 96.3652C314.622 96.2467 315.362 95.4723 315.362 94.042V82.2227C315.278 82.0957 315.091 81.9434 314.804 81.7656C314.516 81.5794 314.211 81.4144 313.89 81.2705C313.576 81.1266 313.344 81.0462 313.191 81.0293V80.585L316.822 79.6201L317.724 79.5312V87.25C318.392 86.5814 319.048 86.082 319.691 85.752C320.335 85.4134 321.079 85.2441 321.926 85.2441C323.102 85.2441 324.046 85.6208 324.757 86.374C325.468 87.1188 325.823 88.2572 325.823 89.7891V94.1943ZM331.384 90.3223C331.375 90.4069 331.371 90.5296 331.371 90.6904C331.371 91.7568 331.562 92.6497 331.942 93.3691C332.332 94.0801 332.848 94.609 333.491 94.9561C334.143 95.2946 334.871 95.4639 335.675 95.4639C336.741 95.4639 337.77 95.1592 338.76 94.5498L339.128 94.9053C338.925 95.3962 338.582 95.8193 338.1 96.1748C337.626 96.5303 337.084 96.8011 336.475 96.9873C335.874 97.165 335.29 97.2539 334.723 97.2539C333.656 97.2539 332.696 97.0042 331.841 96.5049C330.994 96.0055 330.33 95.3073 329.848 94.4102C329.374 93.513 329.137 92.4847 329.137 91.3252C329.137 90.1488 329.395 89.0993 329.911 88.1768C330.427 87.2458 331.113 86.5264 331.968 86.0186C332.831 85.5023 333.754 85.2441 334.735 85.2441C335.539 85.2441 336.263 85.4092 336.906 85.7393C337.558 86.0609 338.087 86.5179 338.493 87.1104C338.899 87.6943 339.158 88.3672 339.268 89.1289C339.361 89.5182 339.407 89.8779 339.407 90.208V90.3223H331.384ZM335.954 89.5098C336.326 89.4928 336.64 89.4251 336.894 89.3066C336.834 88.2995 336.597 87.5124 336.183 86.9453C335.776 86.3783 335.197 86.0947 334.443 86.0947C333.893 86.0947 333.402 86.2598 332.971 86.5898C332.548 86.9199 332.205 87.36 331.942 87.9102C331.68 88.4518 331.511 89.0485 331.435 89.7002L335.954 89.5098ZM64.96 121.989C64.8415 121.998 64.6426 122.002 64.3633 122.002C64.1178 121.147 63.7454 120.449 63.2461 119.907C62.7552 119.366 62.1247 119.095 61.3545 119.095C60.8213 119.095 60.3981 119.226 60.085 119.488C59.7803 119.751 59.6279 120.132 59.6279 120.631C59.6279 120.978 59.7549 121.299 60.0088 121.596C60.2627 121.892 60.5716 122.154 60.9355 122.383C61.3079 122.603 61.7946 122.865 62.3955 123.17C62.5394 123.238 62.7552 123.348 63.043 123.5C63.9909 124.008 64.6807 124.528 65.1123 125.062C65.5524 125.586 65.7725 126.229 65.7725 126.991C65.7725 127.694 65.599 128.29 65.252 128.781C64.9049 129.264 64.4268 129.632 63.8174 129.886C63.208 130.131 62.5098 130.254 61.7227 130.254C61.0286 130.254 60.3262 130.169 59.6152 130C58.9043 129.839 58.3203 129.619 57.8633 129.34V126.242C58.1934 126.2 58.4176 126.179 58.5361 126.179C58.7308 127.118 59.0736 127.884 59.5645 128.477C60.0638 129.069 60.7451 129.365 61.6084 129.365C62.2262 129.365 62.7383 129.213 63.1445 128.908C63.5592 128.595 63.7666 128.185 63.7666 127.677C63.7666 127.355 63.6735 127.072 63.4873 126.826C63.3011 126.581 63.0599 126.365 62.7637 126.179C62.4674 125.993 62.0231 125.743 61.4307 125.43C60.6351 125.007 60.0299 124.664 59.6152 124.401C58.972 124.004 58.4854 123.559 58.1553 123.068C57.8337 122.577 57.6729 121.993 57.6729 121.316C57.6729 120.665 57.8379 120.11 58.168 119.653C58.498 119.188 58.9466 118.837 59.5137 118.6C60.0807 118.363 60.7197 118.244 61.4307 118.244C62.0824 118.244 62.7002 118.325 63.2842 118.485C63.8766 118.646 64.4098 118.875 64.8838 119.171L64.96 121.989ZM75.0273 122.269C75.0273 121.634 74.9681 121.096 74.8496 120.656C74.7396 120.216 74.5111 119.861 74.1641 119.59C73.8255 119.319 73.3389 119.184 72.7041 119.184C72.484 119.184 72.2132 119.23 71.8916 119.323C71.57 119.416 71.2865 119.552 71.041 119.729C70.804 119.899 70.6855 120.098 70.6855 120.326C70.6855 120.419 70.7025 120.512 70.7363 120.605C70.7702 120.69 70.8252 120.8 70.9014 120.936C70.9775 121.062 71.0326 121.173 71.0664 121.266C71.1003 121.359 71.1172 121.456 71.1172 121.558C71.1172 121.896 71.0072 122.18 70.7871 122.408C70.5755 122.628 70.3005 122.738 69.9619 122.738C69.5387 122.738 69.2002 122.582 68.9463 122.269C68.7008 121.955 68.5781 121.579 68.5781 121.139C68.5781 120.479 68.8363 119.933 69.3525 119.501C69.8688 119.069 70.4909 118.752 71.2188 118.549C71.9551 118.346 72.6406 118.244 73.2754 118.244C74.4688 118.244 75.3574 118.422 75.9414 118.777C76.5339 119.124 76.9232 119.636 77.1094 120.313C77.304 120.982 77.4014 121.922 77.4014 123.132L77.376 123.767C77.3675 123.953 77.3548 124.262 77.3379 124.693C77.3294 125.125 77.3252 125.523 77.3252 125.887C77.3252 127.791 77.5241 128.743 77.9219 128.743C78.2096 128.743 78.582 128.451 79.0391 127.867L79.5723 128.438C79.1999 129.048 78.8317 129.505 78.4678 129.81C78.1038 130.106 77.6257 130.254 77.0332 130.254C76.4746 130.254 76.0133 130.08 75.6494 129.733C75.2939 129.378 75.0993 128.921 75.0654 128.362C74.5238 128.955 73.9144 129.42 73.2373 129.759C72.5687 130.089 71.8577 130.254 71.1045 130.254C70.5798 130.254 70.0931 130.161 69.6445 129.975C69.2044 129.78 68.849 129.492 68.5781 129.111C68.3158 128.73 68.1846 128.273 68.1846 127.74C68.1846 126.936 68.4935 126.268 69.1113 125.734C69.7292 125.201 70.4401 124.795 71.2441 124.516C72.0482 124.236 73.0299 123.957 74.1895 123.678C74.291 123.661 74.5703 123.593 75.0273 123.475V122.269ZM75.0273 124.224C74.9004 124.266 74.7396 124.317 74.5449 124.376C73.8171 124.613 73.195 124.841 72.6787 125.062C72.1624 125.273 71.7012 125.561 71.2949 125.925C70.8887 126.289 70.6855 126.716 70.6855 127.207C70.6855 127.706 70.821 128.1 71.0918 128.388C71.3711 128.675 71.7604 128.819 72.2598 128.819C72.7591 128.819 73.2415 128.697 73.707 128.451C74.1725 128.197 74.6126 127.867 75.0273 127.461V124.224ZM84.8662 127.017C84.8662 127.66 84.9678 128.142 85.1709 128.464C85.374 128.777 85.6068 128.98 85.8691 129.073C86.1315 129.166 86.542 129.264 87.1006 129.365C87.1006 129.492 87.0964 129.619 87.0879 129.746C87.0794 129.873 87.0752 129.958 87.0752 130H80.5244V129.327C80.5413 129.319 80.6598 129.285 80.8799 129.226C81.3031 129.124 81.6501 129.006 81.9209 128.87C82.1917 128.726 82.3568 128.51 82.416 128.223C82.4583 128.079 82.4837 127.935 82.4922 127.791C82.5007 127.639 82.5049 127.436 82.5049 127.182V120.783C82.4033 120.58 82.2002 120.402 81.8955 120.25C81.5993 120.089 81.2904 119.958 80.9688 119.856C80.6471 119.746 80.4863 119.696 80.4863 119.704L80.5244 119.272L84.0156 118.409L84.7646 118.358L84.9043 120.428C85.4036 119.776 85.9919 119.251 86.6689 118.854C87.346 118.447 88.1035 118.244 88.9414 118.244C89.7708 118.244 90.4564 118.413 90.998 118.752C91.5397 119.09 91.9544 119.603 92.2422 120.288C92.6484 119.84 93.0335 119.476 93.3975 119.196C93.7614 118.909 94.1676 118.684 94.6162 118.523C95.0648 118.354 95.5726 118.27 96.1396 118.27C97.2484 118.27 98.137 118.532 98.8057 119.057C99.4827 119.573 99.8678 120.36 99.9609 121.418C100.029 122.214 100.062 123.013 100.062 123.817V127.144C100.062 127.567 100.092 127.926 100.151 128.223C100.194 128.468 100.299 128.663 100.469 128.807C100.646 128.951 100.82 129.052 100.989 129.111C101.159 129.162 101.455 129.247 101.878 129.365C101.878 129.492 101.874 129.619 101.865 129.746C101.857 129.865 101.853 129.949 101.853 130H95.7461C95.7461 129.949 95.7419 129.865 95.7334 129.746C95.7249 129.619 95.7207 129.492 95.7207 129.365C95.763 129.357 95.8096 129.344 95.8604 129.327C95.9196 129.31 95.9788 129.293 96.0381 129.276C96.4782 129.158 96.8294 129.031 97.0918 128.896C97.3542 128.752 97.5192 128.536 97.5869 128.248C97.6546 127.91 97.6885 127.541 97.6885 127.144V122.104C97.6885 121.308 97.4854 120.694 97.0791 120.263C96.6729 119.823 96.0931 119.603 95.3398 119.603C94.8151 119.603 94.2946 119.759 93.7783 120.072C93.262 120.377 92.805 120.749 92.4072 121.189C92.458 121.773 92.4834 122.713 92.4834 124.008V127.08C92.4834 127.562 92.5088 127.935 92.5596 128.197C92.6104 128.502 92.7669 128.726 93.0293 128.87C93.3001 129.014 93.6556 129.145 94.0957 129.264C94.3327 129.34 94.4469 129.374 94.4385 129.365C94.4385 129.492 94.4342 129.619 94.4258 129.746C94.4173 129.873 94.4131 129.958 94.4131 130H88.0654C88.0654 129.949 88.0612 129.865 88.0527 129.746C88.0443 129.619 88.04 129.492 88.04 129.365C88.0739 129.357 88.277 129.319 88.6494 129.251C89.0303 129.175 89.3688 128.951 89.665 128.578C89.9613 128.197 90.1094 127.702 90.1094 127.093V122.675C90.1094 121.685 89.9528 120.927 89.6396 120.402C89.3265 119.878 88.7806 119.615 88.002 119.615C87.3926 119.615 86.8382 119.776 86.3389 120.098C85.848 120.411 85.3571 120.842 84.8662 121.393V127.017ZM105.509 123.322C105.5 123.407 105.496 123.53 105.496 123.69C105.496 124.757 105.687 125.65 106.067 126.369C106.457 127.08 106.973 127.609 107.616 127.956C108.268 128.295 108.996 128.464 109.8 128.464C110.866 128.464 111.895 128.159 112.885 127.55L113.253 127.905C113.05 128.396 112.707 128.819 112.225 129.175C111.751 129.53 111.209 129.801 110.6 129.987C109.999 130.165 109.415 130.254 108.848 130.254C107.781 130.254 106.821 130.004 105.966 129.505C105.119 129.006 104.455 128.307 103.973 127.41C103.499 126.513 103.262 125.485 103.262 124.325C103.262 123.149 103.52 122.099 104.036 121.177C104.552 120.246 105.238 119.526 106.093 119.019C106.956 118.502 107.879 118.244 108.86 118.244C109.664 118.244 110.388 118.409 111.031 118.739C111.683 119.061 112.212 119.518 112.618 120.11C113.024 120.694 113.283 121.367 113.393 122.129C113.486 122.518 113.532 122.878 113.532 123.208V123.322H105.509ZM110.079 122.51C110.451 122.493 110.765 122.425 111.019 122.307C110.959 121.299 110.722 120.512 110.308 119.945C109.901 119.378 109.322 119.095 108.568 119.095C108.018 119.095 107.527 119.26 107.096 119.59C106.673 119.92 106.33 120.36 106.067 120.91C105.805 121.452 105.636 122.049 105.56 122.7L110.079 122.51ZM125.517 127.017C125.517 127.66 125.618 128.142 125.821 128.464C126.024 128.777 126.257 128.98 126.52 129.073C126.782 129.166 127.192 129.264 127.751 129.365C127.751 129.492 127.747 129.619 127.738 129.746C127.73 129.873 127.726 129.958 127.726 130H121.175V129.327C121.192 129.319 121.31 129.285 121.53 129.226C121.953 129.124 122.3 129.006 122.571 128.87C122.842 128.726 123.007 128.51 123.066 128.223C123.109 128.079 123.134 127.935 123.143 127.791C123.151 127.639 123.155 127.436 123.155 127.182V120.783C123.054 120.58 122.851 120.402 122.546 120.25C122.25 120.089 121.941 119.958 121.619 119.856C121.298 119.746 121.137 119.696 121.137 119.704L121.175 119.272L124.666 118.409L125.415 118.358L125.555 120.428C126.054 119.776 126.642 119.251 127.319 118.854C127.996 118.447 128.754 118.244 129.592 118.244C130.421 118.244 131.107 118.413 131.648 118.752C132.19 119.09 132.605 119.603 132.893 120.288C133.299 119.84 133.684 119.476 134.048 119.196C134.412 118.909 134.818 118.684 135.267 118.523C135.715 118.354 136.223 118.27 136.79 118.27C137.899 118.27 138.787 118.532 139.456 119.057C140.133 119.573 140.518 120.36 140.611 121.418C140.679 122.214 140.713 123.013 140.713 123.817V127.144C140.713 127.567 140.743 127.926 140.802 128.223C140.844 128.468 140.95 128.663 141.119 128.807C141.297 128.951 141.47 129.052 141.64 129.111C141.809 129.162 142.105 129.247 142.528 129.365C142.528 129.492 142.524 129.619 142.516 129.746C142.507 129.865 142.503 129.949 142.503 130H136.396C136.396 129.949 136.392 129.865 136.384 129.746C136.375 129.619 136.371 129.492 136.371 129.365C136.413 129.357 136.46 129.344 136.511 129.327C136.57 129.31 136.629 129.293 136.688 129.276C137.129 129.158 137.48 129.031 137.742 128.896C138.005 128.752 138.17 128.536 138.237 128.248C138.305 127.91 138.339 127.541 138.339 127.144V122.104C138.339 121.308 138.136 120.694 137.729 120.263C137.323 119.823 136.743 119.603 135.99 119.603C135.465 119.603 134.945 119.759 134.429 120.072C133.912 120.377 133.455 120.749 133.058 121.189C133.108 121.773 133.134 122.713 133.134 124.008V127.08C133.134 127.562 133.159 127.935 133.21 128.197C133.261 128.502 133.417 128.726 133.68 128.87C133.951 129.014 134.306 129.145 134.746 129.264C134.983 129.34 135.097 129.374 135.089 129.365C135.089 129.492 135.085 129.619 135.076 129.746C135.068 129.873 135.063 129.958 135.063 130H128.716C128.716 129.949 128.712 129.865 128.703 129.746C128.695 129.619 128.69 129.492 128.69 129.365C128.724 129.357 128.927 129.319 129.3 129.251C129.681 129.175 130.019 128.951 130.315 128.578C130.612 128.197 130.76 127.702 130.76 127.093V122.675C130.76 121.685 130.603 120.927 130.29 120.402C129.977 119.878 129.431 119.615 128.652 119.615C128.043 119.615 127.489 119.776 126.989 120.098C126.498 120.411 126.007 120.842 125.517 121.393V127.017ZM146.159 123.322C146.151 123.407 146.146 123.53 146.146 123.69C146.146 124.757 146.337 125.65 146.718 126.369C147.107 127.08 147.623 127.609 148.267 127.956C148.918 128.295 149.646 128.464 150.45 128.464C151.517 128.464 152.545 128.159 153.535 127.55L153.903 127.905C153.7 128.396 153.357 128.819 152.875 129.175C152.401 129.53 151.859 129.801 151.25 129.987C150.649 130.165 150.065 130.254 149.498 130.254C148.432 130.254 147.471 130.004 146.616 129.505C145.77 129.006 145.105 128.307 144.623 127.41C144.149 126.513 143.912 125.485 143.912 124.325C143.912 123.149 144.17 122.099 144.687 121.177C145.203 120.246 145.888 119.526 146.743 119.019C147.606 118.502 148.529 118.244 149.511 118.244C150.315 118.244 151.038 118.409 151.682 118.739C152.333 119.061 152.862 119.518 153.269 120.11C153.675 120.694 153.933 121.367 154.043 122.129C154.136 122.518 154.183 122.878 154.183 123.208V123.322H146.159ZM150.729 122.51C151.102 122.493 151.415 122.425 151.669 122.307C151.61 121.299 151.373 120.512 150.958 119.945C150.552 119.378 149.972 119.095 149.219 119.095C148.669 119.095 148.178 119.26 147.746 119.59C147.323 119.92 146.98 120.36 146.718 120.91C146.455 121.452 146.286 122.049 146.21 122.7L150.729 122.51ZM159.997 127.182C159.997 127.91 160.179 128.438 160.543 128.769C160.915 129.09 161.478 129.289 162.231 129.365C162.231 129.492 162.227 129.619 162.219 129.746C162.21 129.873 162.206 129.958 162.206 130H155.668L155.655 129.594C155.655 129.458 155.66 129.365 155.668 129.314C156.159 129.196 156.527 129.09 156.772 128.997C157.026 128.904 157.234 128.752 157.395 128.54C157.555 128.328 157.636 128.032 157.636 127.651V120.771C157.534 120.576 157.335 120.402 157.039 120.25C156.743 120.089 156.43 119.958 156.1 119.856C155.778 119.746 155.617 119.696 155.617 119.704L155.655 119.272L159.121 118.409L159.896 118.358L160.035 120.415C160.501 119.789 161.093 119.272 161.812 118.866C162.54 118.451 163.323 118.244 164.161 118.244C165.388 118.244 166.34 118.591 167.018 119.285C167.695 119.979 168.063 121.016 168.122 122.396C168.147 122.937 168.16 123.492 168.16 124.059V126.89C168.16 127.507 168.198 127.956 168.274 128.235C168.351 128.515 168.469 128.709 168.63 128.819C168.799 128.921 169.078 129.031 169.468 129.149L170.001 129.314C170.009 129.365 170.014 129.458 170.014 129.594L170.001 130H163.742C163.742 129.949 163.738 129.865 163.729 129.746C163.721 129.619 163.717 129.492 163.717 129.365C163.776 129.34 163.945 129.289 164.225 129.213C164.673 129.086 165.02 128.951 165.266 128.807C165.52 128.663 165.672 128.43 165.723 128.108C165.765 127.863 165.786 127.537 165.786 127.131V124.3C165.786 123.174 165.744 122.307 165.659 121.697C165.583 121.088 165.371 120.589 165.024 120.199C164.686 119.81 164.136 119.615 163.374 119.615C162.773 119.615 162.193 119.789 161.635 120.136C161.085 120.483 160.539 120.944 159.997 121.52V127.182ZM176.311 130.254C175.286 130.254 174.495 130 173.937 129.492C173.386 128.976 173.014 128.307 172.819 127.486C172.625 126.665 172.527 125.688 172.527 124.554V120.771C172.417 120.576 172.21 120.402 171.905 120.25C171.609 120.089 171.3 119.958 170.979 119.856C170.665 119.746 170.509 119.696 170.509 119.704L170.534 119.26L174.102 118.396L174.889 118.346V124.414C174.889 125.497 174.956 126.352 175.092 126.979C175.227 127.596 175.456 128.049 175.777 128.337C176.099 128.616 176.548 128.756 177.123 128.756C178.299 128.756 179.408 128.24 180.449 127.207V120.771C180.339 120.576 180.132 120.402 179.827 120.25C179.531 120.089 179.222 119.958 178.9 119.856C178.587 119.746 178.431 119.696 178.431 119.704L178.456 119.26L182.023 118.396L182.811 118.346V127.448C182.811 127.804 182.899 128.079 183.077 128.273C183.255 128.46 183.475 128.595 183.737 128.68C184 128.764 184.359 128.845 184.816 128.921C184.816 129.048 184.808 129.179 184.791 129.314C184.783 129.45 184.778 129.543 184.778 129.594L180.614 130.19L180.513 128.159C179.26 129.556 177.859 130.254 176.311 130.254ZM190.491 128.527C190.491 128.832 190.411 129.116 190.25 129.378C190.098 129.64 189.886 129.852 189.615 130.013C189.353 130.174 189.061 130.254 188.739 130.254C188.426 130.254 188.134 130.174 187.863 130.013C187.601 129.86 187.389 129.653 187.229 129.391C187.076 129.12 187 128.832 187 128.527C187 128.223 187.076 127.939 187.229 127.677C187.389 127.414 187.601 127.207 187.863 127.055C188.134 126.894 188.426 126.813 188.739 126.813C189.061 126.813 189.353 126.894 189.615 127.055C189.886 127.207 190.098 127.414 190.25 127.677C190.411 127.939 190.491 128.223 190.491 128.527ZM193.868 119.209C193.919 119.175 194.088 119.082 194.376 118.93C194.774 118.727 195.091 118.549 195.328 118.396C195.565 118.236 195.76 118.033 195.912 117.787C196.073 117.542 196.153 117.241 196.153 116.886C196.026 116.708 195.874 116.564 195.696 116.454C195.527 116.344 195.311 116.268 195.049 116.226C194.609 116.149 194.279 115.989 194.059 115.743C193.839 115.498 193.729 115.176 193.729 114.778C193.729 114.313 193.894 113.924 194.224 113.61C194.554 113.297 194.977 113.141 195.493 113.141C195.942 113.141 196.34 113.251 196.687 113.471C197.042 113.691 197.313 114 197.499 114.397C197.694 114.787 197.791 115.235 197.791 115.743C197.791 116.369 197.651 116.979 197.372 117.571C197.093 118.164 196.691 118.676 196.166 119.107C195.65 119.531 195.04 119.806 194.338 119.933C194.084 119.713 193.927 119.471 193.868 119.209ZM199.353 119.209C199.463 119.141 199.636 119.048 199.873 118.93C200.279 118.718 200.592 118.536 200.812 118.384C201.041 118.223 201.231 118.02 201.384 117.774C201.545 117.529 201.625 117.233 201.625 116.886C201.498 116.708 201.346 116.564 201.168 116.454C200.999 116.344 200.787 116.268 200.533 116.226C200.093 116.149 199.763 115.989 199.543 115.743C199.323 115.498 199.213 115.176 199.213 114.778C199.213 114.313 199.374 113.924 199.695 113.61C200.025 113.297 200.453 113.141 200.978 113.141C201.426 113.141 201.824 113.251 202.171 113.471C202.518 113.691 202.785 114 202.971 114.397C203.165 114.787 203.263 115.235 203.263 115.743C203.263 116.369 203.123 116.979 202.844 117.571C202.564 118.164 202.162 118.676 201.638 119.107C201.121 119.531 200.512 119.806 199.81 119.933C199.564 119.721 199.412 119.48 199.353 119.209Z" fill="#CCA298"/>
</svg>
