<svg width="247" height="107" viewBox="0 0 247 107" fill="none" xmlns="http://www.w3.org/2000/svg">
<path d="M0.479004 20.8682C0.479004 18.2557 0.479004 16.9495 0.742204 16.134C1.67596 13.2407 4.79795 11.6724 7.67648 12.6507C8.48786 12.9264 9.53576 13.7062 11.6316 15.2659C12.0357 15.5667 12.2378 15.717 12.4477 15.8456C13.1615 16.2826 13.9664 16.5493 14.7999 16.6248C15.0451 16.647 15.297 16.647 15.8007 16.647H180.781C203.599 16.647 215.008 16.647 222.096 23.7355C229.185 30.824 229.185 42.2328 229.185 65.0503V97.7226C229.185 101.716 229.185 103.712 227.944 104.953C226.704 106.193 224.707 106.193 220.714 106.193H25.3035C19.432 106.193 13.7505 104.112 9.26831 100.319C3.69396 95.6026 0.479004 88.6708 0.479004 81.3687V20.8682Z" fill="#CCA298"/>
<path d="M6.5293 14.8178C6.5293 12.2053 6.5293 10.8991 6.7925 10.0836C7.72626 7.19031 10.8482 5.62203 13.7268 6.60024C14.5382 6.87597 15.5861 7.65581 17.6819 9.21548C18.086 9.51624 18.2881 9.66661 18.498 9.79516C19.2118 10.2322 20.0167 10.4988 20.8502 10.5744C21.0954 10.5966 21.3473 10.5966 21.851 10.5966H186.832C209.649 10.5966 221.058 10.5966 228.147 17.6851C235.235 24.7736 235.235 36.1824 235.235 58.9999V84.3435C235.235 85.3084 235.235 85.7909 235.339 86.2503C235.414 86.5851 235.53 86.9096 235.683 87.2165C235.894 87.6375 236.2 88.0109 236.811 88.7577C239.93 92.5697 241.489 94.4758 241.42 96.0896C241.371 97.2319 240.862 98.3057 240.009 99.0671C238.804 100.143 236.341 100.143 231.416 100.143H25.7408C21.7079 100.143 17.7773 98.8736 14.5059 96.5152C9.49715 92.9043 6.5293 87.1059 6.5293 80.9313V14.8178Z" fill="white"/>
<path d="M10.7541 84.6814C10.2298 83.3034 9.86969 81.8577 9.68908 80.3733L9.98939 80.3368C9.90187 79.6174 9.85721 78.8888 9.85721 78.1544V76.1491H9.55469V72.1386H9.85721V68.1281H9.55469V64.1176H9.85721V60.1071H9.55469V56.0966H9.85721V52.0861H9.55469V48.0756H9.85721V44.0651H9.55469V40.0546H9.85721V36.044H9.55469V32.0335H9.85721V28.023H9.55469V24.0125H9.85721V20.002H9.55469V15.9915H9.85721V13.9863C9.85721 13.3494 10.0524 12.8102 10.3657 12.3848L10.1222 12.2054C10.8869 11.1673 12.2936 10.7197 13.5176 11.125L13.4225 11.4122C13.924 11.5783 14.3949 11.9056 14.7629 12.4253C14.9168 12.6426 15.0945 12.8381 15.2911 13.0091L15.4897 12.7809C15.8518 13.096 16.2847 13.3199 16.7511 13.4334L16.6796 13.7273C16.9328 13.7889 17.195 13.821 17.4613 13.821H19.5406V13.5185H23.6992V13.821H27.8578V13.5185H32.0165V13.821H36.1751V13.5185H40.3338V13.821H44.4924V13.5185H48.6511V13.821H52.8097V13.5185H56.9684V13.821H61.127V13.5185H65.2856V13.821H69.4443V13.5185H73.6029V13.821H77.7616V13.5185H81.9202V13.821H86.0788V13.5185H90.2375V13.821H94.3961V13.5185H98.5547V13.821H102.713V13.5185H106.872V13.821H111.031V13.5185H115.189V13.821H119.348V13.5185H123.507V13.821H127.665V13.5185H131.824V13.821H135.982V13.5185H140.141V13.821H144.3V13.5185H148.458V13.821H152.617V13.5185H156.776V13.821H160.934V13.5185H165.093V13.821H169.252V13.5185H173.41V13.821H177.569V13.5185H181.728V13.821H183.807C183.898 13.821 183.988 13.821 184.079 13.821C184.079 13.821 184.079 13.821 184.079 13.821C184.712 13.821 185.337 13.821 185.952 13.8212L185.953 13.5187C187.433 13.5192 188.864 13.5207 190.246 13.5253L190.245 13.8278C191.731 13.8328 193.16 13.8414 194.536 13.8563L194.54 13.5538C196.028 13.5699 197.455 13.5934 198.823 13.6275L198.815 13.9299C200.313 13.9673 201.739 14.0174 203.1 14.0847L203.115 13.7825C204.619 13.8569 206.044 13.9523 207.394 14.0746L207.367 14.3758C208.869 14.5118 210.278 14.6811 211.601 14.8916L211.648 14.5928C213.15 14.8317 214.545 15.1238 215.844 15.4808L215.764 15.7725C217.207 16.1689 218.527 16.6452 219.742 17.217L219.871 16.9432C221.2 17.5685 222.409 18.3079 223.519 19.1823L223.332 19.4199C223.881 19.8523 224.405 20.3184 224.908 20.8209C225.41 21.3234 225.876 21.8478 226.309 22.3966L226.546 22.2094C227.421 23.3194 228.16 24.5285 228.785 25.8575L228.512 25.9863C229.083 27.2018 229.56 28.522 229.956 29.9644L230.248 29.8843C230.605 31.1836 230.897 32.5783 231.136 34.0803L230.837 34.1279C231.048 35.451 231.217 36.8594 231.353 38.3618L231.654 38.3345C231.776 39.6848 231.872 41.1093 231.946 42.6139L231.644 42.6288C231.711 43.9893 231.761 45.4159 231.799 46.9133L232.101 46.9057C232.135 48.2739 232.159 49.7006 232.175 51.189L231.872 51.1922C231.887 52.5686 231.896 53.998 231.901 55.4833L232.203 55.4822C232.208 56.8647 232.209 58.2953 232.21 59.7761L231.907 59.7762C231.908 60.48 231.908 61.1951 231.908 61.9218V63.8981H232.21V67.8507H231.908V71.8032H232.21V75.7558H231.908V79.7083H232.21V83.6609H231.908V85.6372C231.908 86.3833 231.971 87.1238 232.096 87.8512L232.395 87.8C232.64 89.2312 233.129 90.6104 233.838 91.8776L233.574 92.0253C233.935 92.6693 234.351 93.285 234.821 93.8649C235.007 94.0947 235.106 94.3482 235.135 94.6004L235.436 94.5655C235.512 95.2263 235.195 95.8911 234.633 96.2473L234.471 95.9918C234.257 96.1277 233.997 96.21 233.702 96.21H231.558V96.5125H227.271V96.21H222.983V96.5125H218.696V96.21H214.409V96.5125H210.122V96.21H205.834V96.5125H201.547V96.21H197.26V96.5125H192.973V96.21H188.685V96.5125H184.398V96.21H180.111V96.5125H175.824V96.21H171.536V96.5125H167.249V96.21H162.962V96.5125H158.675V96.21H154.387V96.5125H150.1V96.21H145.813V96.5125H141.525V96.21H137.238V96.5125H132.951V96.21H128.664V96.5125H124.376V96.21H120.089V96.5125H115.802V96.21H111.515V96.5125H107.227V96.21H102.94V96.5125H98.6528V96.21H94.3655V96.5125H90.0782V96.21H85.791V96.5125H81.5037V96.21H77.2164V96.5125H72.9292V96.21H68.6419V96.5125H64.3546V96.21H60.0674V96.5125H55.7801V96.21H51.4928V96.5125H47.2055V96.21H42.9183V96.5125H38.631V96.21H34.3437V96.5125H30.0565V96.21H27.9128C27.0035 96.21 26.0994 96.1413 25.208 96.0063L25.1626 96.3054C23.3397 96.0292 21.5685 95.4798 19.9091 94.676L20.041 94.4037C19.2296 94.0106 18.4453 93.5556 17.6956 93.0411C17.09 92.6254 16.5146 92.1763 15.971 91.6971L15.7709 91.924C14.6493 90.9351 13.6611 89.8201 12.8216 88.6081L13.0703 88.4359C12.239 87.2355 11.556 85.9385 11.0368 84.5738L10.7541 84.6814Z" fill="white" stroke="#C17766" stroke-width="0.605042" stroke-dasharray="4.24 4.24"/>
<path d="M137.179 77.7062H145.202L145.069 78.4879H137.046L137.179 77.7062ZM147.173 73.9211H148.119L147.554 77.0788H151.236L151.802 73.9211H152.748L151.442 81.2856H150.495L151.082 77.9634H147.399L146.813 81.2856H145.867L147.173 73.9211ZM155.637 76.0811C156.289 76.0811 156.779 76.2319 157.108 76.5336C157.444 76.8354 157.612 77.2434 157.612 77.7576C157.612 77.8399 157.605 77.9291 157.591 78.0251C157.585 78.1142 157.574 78.2068 157.561 78.3028L157.026 81.2856H156.121L156.244 80.5862H156.203C156.038 80.8262 155.812 81.0319 155.524 81.2034C155.236 81.3679 154.914 81.4502 154.557 81.4502C154.31 81.4502 154.081 81.4125 153.868 81.3371C153.655 81.2685 153.47 81.1656 153.313 81.0285C153.162 80.8914 153.042 80.7302 152.953 80.5451C152.863 80.3531 152.819 80.1371 152.819 79.8971C152.819 79.6091 152.881 79.3485 153.004 79.1154C153.134 78.8822 153.309 78.6868 153.529 78.5291C153.748 78.3645 154.005 78.2376 154.3 78.1485C154.602 78.0594 154.927 78.0148 155.277 78.0148C155.558 78.0148 155.805 78.0456 156.018 78.1074C156.237 78.1622 156.446 78.2342 156.645 78.3234L156.686 78.1074C156.7 78.0525 156.707 77.9839 156.707 77.9016C156.707 77.6068 156.601 77.3702 156.388 77.1919C156.175 77.0136 155.894 76.9245 155.545 76.9245C155.277 76.9245 155.037 76.9759 154.825 77.0788C154.619 77.1816 154.417 77.3531 154.218 77.5931L153.477 77.0685C153.717 76.7462 154.022 76.5028 154.393 76.3382C154.77 76.1668 155.185 76.0811 155.637 76.0811ZM154.753 80.6068C154.965 80.6068 155.167 80.5691 155.359 80.4936C155.558 80.4182 155.733 80.3154 155.884 80.1851C156.042 80.0479 156.175 79.8902 156.285 79.7119C156.395 79.5268 156.467 79.3314 156.501 79.1256C156.419 79.0639 156.316 79.0056 156.193 78.9508C156.083 78.9096 155.946 78.8719 155.781 78.8376C155.623 78.7965 155.431 78.7759 155.205 78.7759C155.034 78.7759 154.862 78.7965 154.691 78.8376C154.526 78.8788 154.379 78.9439 154.249 79.0331C154.118 79.1222 154.012 79.2319 153.93 79.3622C153.847 79.4925 153.806 79.6434 153.806 79.8148C153.806 79.9451 153.834 80.0616 153.889 80.1645C153.943 80.2605 154.012 80.3428 154.094 80.4114C154.183 80.4731 154.283 80.5211 154.393 80.5554C154.509 80.5896 154.629 80.6068 154.753 80.6068ZM157.857 81.2856L158.741 76.2456H159.646L159.502 77.0685H159.543C159.701 76.7805 159.927 76.5474 160.222 76.3691C160.524 76.1908 160.846 76.1016 161.189 76.1016C161.347 76.1016 161.467 76.1119 161.549 76.1325C161.638 76.1531 161.727 76.1839 161.817 76.2251L161.415 77.1405C161.326 77.1131 161.241 77.0959 161.158 77.0891C161.083 77.0754 160.987 77.0685 160.87 77.0685C160.685 77.0685 160.503 77.1062 160.325 77.1816C160.154 77.2571 159.996 77.3634 159.852 77.5005C159.708 77.6308 159.585 77.7919 159.482 77.9839C159.386 78.1691 159.317 78.3748 159.276 78.6011L158.803 81.2856H157.857ZM161.593 81.2856L162.478 76.2456H163.383L163.239 77.0685H163.28C163.438 76.7805 163.664 76.5474 163.959 76.3691C164.261 76.1908 164.583 76.1016 164.926 76.1016C165.083 76.1016 165.203 76.1119 165.286 76.1325C165.375 76.1531 165.464 76.1839 165.553 76.2251L165.152 77.1405C165.063 77.1131 164.977 77.0959 164.895 77.0891C164.819 77.0754 164.723 77.0685 164.607 77.0685C164.422 77.0685 164.24 77.1062 164.062 77.1816C163.89 77.2571 163.733 77.3634 163.589 77.5005C163.445 77.6308 163.321 77.7919 163.218 77.9839C163.122 78.1691 163.054 78.3748 163.013 78.6011L162.539 81.2856H161.593ZM165.554 83.5074L167.179 80.9668L165.934 76.2456H166.932L167.816 79.8765H167.837L169.946 76.2456H170.995L166.551 83.5074H165.554ZM179.179 81.2856H178.213L177.482 76.4308H177.441L174.993 81.2856H174.026L173.286 73.9211H174.253L174.787 79.7119H174.829L177.246 74.9085H178.151L178.891 79.7119H178.933L181.453 73.9211H182.44L179.179 81.2856ZM181.754 81.2856L182.639 76.2456H183.585L182.701 81.2856H181.754ZM183.421 75.1759C183.236 75.1759 183.078 75.1108 182.948 74.9805C182.817 74.8502 182.752 74.6925 182.752 74.5074C182.752 74.3222 182.817 74.1645 182.948 74.0342C183.078 73.9039 183.236 73.8388 183.421 73.8388C183.606 73.8388 183.764 73.9039 183.894 74.0342C184.024 74.1645 184.089 74.3222 184.089 74.5074C184.089 74.6925 184.024 74.8502 183.894 74.9805C183.764 75.1108 183.606 75.1759 183.421 75.1759ZM185.609 76.9451H185.65C185.821 76.6982 186.054 76.4925 186.349 76.3279C186.644 76.1634 186.98 76.0811 187.357 76.0811C187.851 76.0811 188.245 76.2216 188.54 76.5028C188.842 76.7839 188.993 77.1611 188.993 77.6342C188.993 77.7371 188.986 77.8536 188.972 77.9839C188.965 78.1142 188.948 78.2479 188.921 78.3851L188.406 81.2856H187.46L187.995 78.2616C188.022 78.1245 188.036 77.9874 188.036 77.8502C188.036 77.5416 187.94 77.3154 187.748 77.1714C187.563 77.0205 187.313 76.9451 186.997 76.9451C186.792 76.9451 186.596 76.9862 186.411 77.0685C186.233 77.1508 186.072 77.2639 185.928 77.4079C185.79 77.5451 185.674 77.7096 185.578 77.9016C185.482 78.0868 185.417 78.2856 185.382 78.4982L184.889 81.2856H183.942L184.827 76.2456H185.732L185.609 76.9451ZM191.452 81.4502C191.157 81.4502 190.897 81.4125 190.67 81.3371C190.444 81.2616 190.245 81.1622 190.074 81.0388C189.909 80.9085 189.772 80.7576 189.662 80.5862C189.553 80.4079 189.47 80.2159 189.416 80.0102L190.321 79.6502C190.389 79.9656 190.537 80.2056 190.763 80.3702C190.989 80.5279 191.25 80.6068 191.545 80.6068C191.874 80.6068 192.134 80.5382 192.326 80.4011C192.518 80.2639 192.614 80.0959 192.614 79.8971C192.614 79.7051 192.553 79.5508 192.429 79.4342C192.306 79.3176 192.1 79.2216 191.812 79.1462L191.236 78.9919C190.873 78.8959 190.571 78.7451 190.331 78.5394C190.098 78.3268 189.981 78.0285 189.981 77.6445C189.981 77.4182 190.036 77.2091 190.146 77.0171C190.256 76.8251 190.403 76.6605 190.588 76.5234C190.773 76.3862 190.989 76.2799 191.236 76.2045C191.483 76.1222 191.747 76.0811 192.028 76.0811C192.508 76.0811 192.916 76.1942 193.252 76.4205C193.588 76.6399 193.814 76.9245 193.931 77.2742L193.026 77.6239C192.95 77.4319 192.824 77.2674 192.645 77.1302C192.474 76.9931 192.248 76.9245 191.966 76.9245C191.672 76.9245 191.432 76.9828 191.246 77.0994C191.061 77.2091 190.969 77.3668 190.969 77.5725C190.969 77.7028 191.02 77.8228 191.123 77.9325C191.226 78.0422 191.404 78.1314 191.658 78.1999L192.306 78.3748C192.717 78.4914 193.036 78.6696 193.262 78.9096C193.489 79.1428 193.602 79.4342 193.602 79.7839C193.602 80.0376 193.55 80.2674 193.448 80.4731C193.345 80.6788 193.197 80.8536 193.005 80.9976C192.813 81.1416 192.584 81.2514 192.316 81.3268C192.056 81.4091 191.768 81.4502 191.452 81.4502ZM196.114 81.3679C195.942 81.3679 195.781 81.3405 195.63 81.2856C195.479 81.2308 195.349 81.1554 195.239 81.0594C195.13 80.9565 195.04 80.8331 194.972 80.6891C194.91 80.5451 194.879 80.3839 194.879 80.2056C194.879 80.1508 194.883 80.0788 194.89 79.9896C194.896 79.9005 194.91 79.8011 194.931 79.6914L195.383 77.1096H194.499L194.653 76.2456H195.538L195.815 74.7028H196.762L196.484 76.2456H197.718L197.564 77.1096H196.33L195.898 79.5576C195.884 79.6468 195.874 79.7222 195.867 79.7839C195.853 79.8525 195.846 79.9142 195.846 79.9691C195.846 80.1199 195.887 80.2434 195.97 80.3394C196.052 80.4354 196.179 80.4834 196.35 80.4834C196.467 80.4834 196.552 80.4765 196.607 80.4628C196.669 80.4491 196.738 80.4251 196.813 80.3908L196.967 81.2342C196.83 81.2822 196.693 81.3165 196.556 81.3371C196.426 81.3576 196.278 81.3679 196.114 81.3679ZM200.821 76.0811C201.17 76.0811 201.489 76.1462 201.777 76.2765C202.072 76.3999 202.322 76.5714 202.528 76.7908C202.734 77.0102 202.892 77.2674 203.001 77.5622C203.118 77.8502 203.176 78.1588 203.176 78.4879C203.176 78.9062 203.101 79.2971 202.95 79.6605C202.799 80.0171 202.59 80.3291 202.322 80.5965C202.055 80.8639 201.736 81.0731 201.366 81.2239C200.996 81.3748 200.594 81.4502 200.162 81.4502C199.813 81.4502 199.49 81.3885 199.196 81.2651C198.908 81.1348 198.661 80.9599 198.455 80.7405C198.249 80.5211 198.088 80.2674 197.972 79.9794C197.862 79.6845 197.807 79.3725 197.807 79.0434C197.807 78.6251 197.882 78.2376 198.033 77.8811C198.184 77.5176 198.393 77.2022 198.661 76.9348C198.928 76.6674 199.247 76.4582 199.617 76.3074C199.988 76.1565 200.389 76.0811 200.821 76.0811ZM200.255 80.5862C200.557 80.5862 200.828 80.5314 201.068 80.4216C201.314 80.3051 201.52 80.1542 201.685 79.9691C201.856 79.7771 201.986 79.5611 202.076 79.3211C202.165 79.0742 202.209 78.8171 202.209 78.5496C202.209 78.3165 202.168 78.1039 202.086 77.9119C202.01 77.7131 201.904 77.5416 201.767 77.3976C201.637 77.2536 201.479 77.1439 201.294 77.0685C201.116 76.9862 200.927 76.9451 200.728 76.9451C200.426 76.9451 200.152 77.0034 199.905 77.1199C199.665 77.2296 199.46 77.3805 199.288 77.5725C199.124 77.7576 198.997 77.9736 198.908 78.2205C198.818 78.4605 198.774 78.7142 198.774 78.9816C198.774 79.2148 198.812 79.4308 198.887 79.6296C198.969 79.8216 199.076 79.9896 199.206 80.1336C199.343 80.2776 199.501 80.3908 199.679 80.4731C199.864 80.5485 200.056 80.5862 200.255 80.5862ZM205.005 76.9451H205.046C205.218 76.6982 205.451 76.4925 205.746 76.3279C206.04 76.1634 206.376 76.0811 206.754 76.0811C207.247 76.0811 207.642 76.2216 207.936 76.5028C208.238 76.7839 208.389 77.1611 208.389 77.6342C208.389 77.7371 208.382 77.8536 208.368 77.9839C208.362 78.1142 208.344 78.2479 208.317 78.3851L207.803 81.2856H206.856L207.391 78.2616C207.419 78.1245 207.432 77.9874 207.432 77.8502C207.432 77.5416 207.336 77.3154 207.144 77.1714C206.959 77.0205 206.709 76.9451 206.394 76.9451C206.188 76.9451 205.992 76.9862 205.807 77.0685C205.629 77.1508 205.468 77.2639 205.324 77.4079C205.187 77.5451 205.07 77.7096 204.974 77.9016C204.878 78.0868 204.813 78.2856 204.779 78.4982L204.285 81.2856H203.339L204.223 76.2456H205.128L205.005 76.9451Z" fill="#C17766"/>
<path d="M29.9892 34.9111C29.7485 35.0391 29.5565 35.1518 29.4131 35.249C29.2697 35.3463 29.1494 35.4692 29.0521 35.6177C28.9599 35.7662 28.9138 35.9455 28.9138 36.1554C28.9906 36.2681 29.0803 36.3577 29.1827 36.4243C29.2902 36.4908 29.4208 36.5369 29.5744 36.5625C30.1121 36.6598 30.3809 36.9492 30.3809 37.4305C30.3809 37.7173 30.2811 37.9554 30.0814 38.1449C29.8817 38.3343 29.6231 38.4291 29.3056 38.4291C29.0342 38.4291 28.7935 38.3625 28.5835 38.2294C28.3736 38.0962 28.2097 37.9093 28.0919 37.6686C27.9793 37.4279 27.923 37.154 27.923 36.8467C27.923 36.4729 28.0049 36.1068 28.1688 35.7483C28.3377 35.3847 28.581 35.0749 28.8985 34.8189C29.216 34.5629 29.5872 34.3964 30.0122 34.3196C30.1556 34.4374 30.2478 34.5808 30.2888 34.7498L29.9892 34.9111ZM33.2537 34.9111C33.013 35.0391 32.821 35.1518 32.6776 35.249C32.5342 35.3463 32.4139 35.4692 32.3166 35.6177C32.2244 35.7662 32.1783 35.9455 32.1783 36.1554C32.3217 36.3756 32.5419 36.5113 32.8389 36.5625C33.3715 36.6598 33.6378 36.9492 33.6378 37.4305C33.6378 37.7173 33.5379 37.9554 33.3382 38.1449C33.1436 38.3343 32.8876 38.4291 32.5701 38.4291C32.2987 38.4291 32.058 38.3625 31.8481 38.2294C31.6381 38.0962 31.4742 37.9093 31.3565 37.6686C31.2438 37.4279 31.1875 37.154 31.1875 36.8467C31.1875 36.4729 31.2694 36.1068 31.4333 35.7483C31.6023 35.3847 31.8455 35.0749 32.163 34.8189C32.4805 34.5629 32.8517 34.3964 33.2768 34.3196C33.4201 34.4374 33.5123 34.5808 33.5533 34.7498L33.2537 34.9111ZM36.6411 36.5933C36.6411 36.2092 36.6078 35.925 36.5413 35.7406C36.4798 35.5563 36.3902 35.4283 36.2724 35.3566C36.1598 35.2849 35.9754 35.2132 35.7194 35.1415C35.4633 35.0698 35.2303 34.9904 35.0204 34.9034L35.0358 34.5117H38.8456C39.8083 34.5117 40.6507 34.5654 41.3727 34.673C42.0948 34.7754 42.7246 35.0314 43.2623 35.4411C43.8 35.8456 44.0688 36.4652 44.0688 37.2999C44.0688 37.9656 43.9101 38.5238 43.5926 38.9744C43.2751 39.4251 42.8475 39.7605 42.3098 39.9807C41.7773 40.1957 41.1833 40.3033 40.5278 40.3033C40.41 40.3033 40.2206 40.2828 39.9594 40.2418C39.6982 40.2009 39.4601 40.142 39.245 40.0652C39.0351 39.9883 38.9301 39.8987 38.9301 39.7963C38.9301 39.7041 39.0428 39.6581 39.2681 39.6581H39.3833C40.0029 39.6581 40.5176 39.6043 40.9272 39.4968C41.342 39.3841 41.6697 39.1639 41.9104 38.8362C42.1562 38.5033 42.2791 38.0271 42.2791 37.4075C42.2791 36.8391 42.1229 36.3807 41.8106 36.0325C41.4982 35.6792 41.0988 35.4283 40.6123 35.2798C40.1258 35.1261 39.6035 35.0493 39.0453 35.0493C38.82 35.0493 38.5717 35.0621 38.3003 35.0877V42.4002C38.3003 42.8355 38.3284 43.1504 38.3848 43.345C38.4411 43.5396 38.523 43.6676 38.6306 43.7291C38.7381 43.7905 38.9148 43.8417 39.1606 43.8827C39.4934 43.939 39.7879 44.0159 40.0439 44.1132L40.0285 44.5126H35.0358L35.0127 44.1132L35.2585 44.044C35.5606 43.9621 35.8013 43.8827 35.9805 43.8059C36.1649 43.724 36.3211 43.6036 36.4491 43.4449C36.5771 43.2861 36.6411 43.0736 36.6411 42.8073V36.5933ZM46.2196 40.4723C46.2145 40.5235 46.2119 40.5977 46.2119 40.695C46.2119 41.3402 46.3271 41.8805 46.5575 42.3158C46.7931 42.7459 47.1055 43.0659 47.4947 43.2759C47.889 43.4807 48.3293 43.5831 48.8158 43.5831C49.461 43.5831 50.0832 43.3988 50.6824 43.0301L50.9051 43.2452C50.7822 43.5422 50.5748 43.7982 50.2829 44.0133C49.9962 44.2284 49.6684 44.3922 49.2997 44.5049C48.9362 44.6124 48.5828 44.6662 48.2397 44.6662C47.5945 44.6662 47.0133 44.5151 46.4961 44.213C45.984 43.9109 45.582 43.4884 45.2902 42.9456C45.0034 42.4028 44.86 41.7806 44.86 41.0791C44.86 40.3673 45.0162 39.7323 45.3286 39.1741C45.6409 38.6109 46.0557 38.1756 46.5729 37.8683C47.0952 37.556 47.6534 37.3998 48.2474 37.3998C48.7339 37.3998 49.1717 37.4996 49.5609 37.6994C49.9552 37.8939 50.2752 38.1705 50.521 38.5289C50.7668 38.8823 50.923 39.2894 50.9896 39.7502C51.0459 39.9858 51.0741 40.2034 51.0741 40.4031V40.4723H46.2196ZM48.9848 39.9807C49.2101 39.9704 49.3996 39.9295 49.5532 39.8578C49.5174 39.2484 49.374 38.7722 49.1231 38.4291C48.8773 38.086 48.5265 37.9144 48.0707 37.9144C47.7379 37.9144 47.4409 38.0143 47.1797 38.214C46.9237 38.4137 46.7163 38.68 46.5575 39.0128C46.3988 39.3406 46.2964 39.7016 46.2503 40.0959L48.9848 39.9807ZM55.8518 37.3998C56.5329 37.3998 57.1525 37.5483 57.7106 37.8453C58.2739 38.1372 58.7194 38.5571 59.0472 39.105C59.3749 39.6478 59.5388 40.2802 59.5388 41.0023C59.5388 41.7243 59.3749 42.3644 59.0472 42.9226C58.7194 43.4756 58.2816 43.9058 57.7337 44.213C57.1858 44.5151 56.5866 44.6662 55.9363 44.6662C55.2911 44.6662 54.6868 44.51 54.1235 44.1976C53.5602 43.8853 53.1096 43.4526 52.7716 42.8995C52.4337 42.3414 52.2647 41.7115 52.2647 41.0099C52.2647 40.3084 52.4285 39.6837 52.7563 39.1357C53.084 38.5827 53.5218 38.1551 54.0698 37.853C54.6228 37.5508 55.2168 37.3998 55.8518 37.3998ZM56.0361 44.0671C56.6865 44.0671 57.1806 43.8341 57.5186 43.3681C57.8566 42.9021 58.0256 42.2901 58.0256 41.5323C58.0256 40.8768 57.9334 40.2751 57.7491 39.7272C57.5698 39.1741 57.3112 38.7338 56.9733 38.406C56.6353 38.0783 56.2461 37.9144 55.8057 37.9144C55.4165 37.9144 55.0709 38.0092 54.7687 38.1986C54.4717 38.3881 54.2362 38.68 54.0621 39.0743C53.888 39.4686 53.8009 39.9627 53.8009 40.5568C53.8009 41.1405 53.8931 41.7038 54.0774 42.2466C54.2618 42.7843 54.523 43.2221 54.8609 43.5601C55.1989 43.8981 55.5906 44.0671 56.0361 44.0671ZM63.1873 45.6187C63.1873 46.0898 63.2974 46.4278 63.5176 46.6326C63.743 46.8425 64.104 46.9757 64.6007 47.032C64.6007 47.1088 64.5981 47.1831 64.593 47.2548C64.5879 47.3316 64.5853 47.3853 64.5853 47.4161H60.5373C60.5373 47.3853 60.5348 47.3316 60.5297 47.2548C60.5245 47.1831 60.522 47.1088 60.522 47.032C60.9265 46.9757 61.2338 46.8374 61.4437 46.6172C61.6537 46.4021 61.7586 46.0923 61.7586 45.6878V39.0282C61.6716 38.8746 61.5052 38.7338 61.2594 38.6057C61.0187 38.4777 60.7806 38.3702 60.545 38.2831L60.4836 38.2601V37.9989L62.5575 37.4612H63.0798L63.1413 38.7209C63.5202 38.301 63.9017 37.9759 64.2858 37.7454C64.6698 37.515 65.1076 37.3998 65.5992 37.3998C66.1779 37.3998 66.6925 37.5406 67.1432 37.8222C67.5938 38.0988 67.9446 38.4982 68.1955 39.0205C68.4464 39.5377 68.5719 40.1471 68.5719 40.8486C68.5719 41.5963 68.4182 42.2594 68.111 42.8381C67.8089 43.4116 67.3915 43.8597 66.859 44.1823C66.3264 44.4998 65.7298 44.6585 65.0692 44.6585C64.7261 44.6585 64.3959 44.5971 64.0784 44.4742C63.7609 44.3513 63.4639 44.172 63.1873 43.9365V45.6187ZM63.1873 41.8472C63.1873 42.2671 63.2642 42.6409 63.4178 42.9687C63.5765 43.2913 63.807 43.5473 64.1091 43.7368C64.4112 43.9211 64.7697 44.0133 65.1845 44.0133C65.8246 44.0133 66.311 43.7649 66.6439 43.2682C66.9767 42.7715 67.1432 42.0904 67.1432 41.225C67.1432 40.6054 67.0459 40.0831 66.8513 39.6581C66.6567 39.233 66.4006 38.9181 66.0832 38.7133C65.7657 38.5033 65.4175 38.3983 65.0385 38.3983C64.4343 38.3983 63.8172 38.703 63.1873 39.3124V41.8472ZM72.2204 42.7152C72.2204 43.1453 72.3075 43.4782 72.4816 43.7137C72.6608 43.9442 72.9553 44.0824 73.3649 44.1285C73.3649 44.2053 73.3624 44.2821 73.3573 44.3589C73.3521 44.4358 73.3496 44.487 73.3496 44.5126H69.5704L69.5627 44.1285C69.6088 44.0978 69.6677 44.0696 69.7394 44.044C69.8162 44.0184 69.893 43.9954 69.9698 43.9749C70.1952 43.9134 70.3718 43.8469 70.4998 43.7752C70.6279 43.6984 70.7047 43.5857 70.7303 43.4372C70.7712 43.217 70.7917 42.9917 70.7917 42.7613L70.784 35.5333C70.7226 35.4308 70.5971 35.331 70.4077 35.2337C70.2233 35.1313 70.0415 35.0468 69.8623 34.9802C69.6831 34.9085 69.5679 34.865 69.5167 34.8496L69.532 34.5808L71.6674 33.997L72.2204 33.9432V42.7152ZM75.7615 40.4723C75.7563 40.5235 75.7538 40.5977 75.7538 40.695C75.7538 41.3402 75.869 41.8805 76.0994 42.3158C76.335 42.7459 76.6474 43.0659 77.0365 43.2759C77.4308 43.4807 77.8712 43.5831 78.3577 43.5831C79.0029 43.5831 79.6251 43.3988 80.2242 43.0301L80.447 43.2452C80.3241 43.5422 80.1167 43.7982 79.8248 44.0133C79.5381 44.2284 79.2103 44.3922 78.8416 44.5049C78.478 44.6124 78.1247 44.6662 77.7816 44.6662C77.1364 44.6662 76.5552 44.5151 76.038 44.213C75.5259 43.9109 75.1239 43.4884 74.832 42.9456C74.5453 42.4028 74.4019 41.7806 74.4019 41.0791C74.4019 40.3673 74.5581 39.7323 74.8704 39.1741C75.1828 38.6109 75.5976 38.1756 76.1148 37.8683C76.6371 37.556 77.1953 37.3998 77.7893 37.3998C78.2758 37.3998 78.7136 37.4996 79.1028 37.6994C79.4971 37.8939 79.8171 38.1705 80.0629 38.5289C80.3087 38.8823 80.4649 39.2894 80.5315 39.7502C80.5878 39.9858 80.616 40.2034 80.616 40.4031V40.4723H75.7615ZM78.5267 39.9807C78.752 39.9704 78.9415 39.9295 79.0951 39.8578C79.0593 39.2484 78.9159 38.7722 78.665 38.4291C78.4192 38.086 78.0684 37.9144 77.6126 37.9144C77.2798 37.9144 76.9828 38.0143 76.7216 38.214C76.4656 38.4137 76.2582 38.68 76.0994 39.0128C75.9407 39.3406 75.8383 39.7016 75.7922 40.0959L78.5267 39.9807ZM88.5737 42.646L89.9794 39.2279C89.8821 38.8797 89.7259 38.5878 89.5108 38.3523C89.2957 38.1167 89.0218 37.9912 88.6889 37.9759L88.7043 37.6072H92.0994C92.1096 37.7813 92.1147 37.9042 92.1147 37.9759C92.0482 38.0066 91.9432 38.0476 91.7998 38.0988C91.6052 38.1653 91.4618 38.2319 91.3697 38.2985C91.2775 38.3651 91.2314 38.47 91.2314 38.6134C91.2314 38.7209 91.2775 38.9002 91.3697 39.1511L92.6217 42.5846L93.82 39.3508C93.9173 39.0999 93.9659 38.8899 93.9659 38.7209C93.9659 38.5673 93.9429 38.4521 93.8968 38.3753C93.8507 38.2934 93.7867 38.2345 93.7047 38.1986C93.6228 38.1628 93.4948 38.1218 93.3207 38.0757L93.0365 37.9989C93.0262 37.9272 93.0211 37.8658 93.0211 37.8146C93.0211 37.7685 93.0262 37.6994 93.0365 37.6072H95.7326V38.0143C95.5892 38.0348 95.4305 38.0988 95.2563 38.2063C95.0874 38.3138 94.9337 38.4444 94.7955 38.5981C94.6623 38.7466 94.5702 38.8899 94.519 39.0282L92.445 44.6201C92.3938 44.6508 92.317 44.6662 92.2146 44.6662C92.1173 44.6662 92.0379 44.6508 91.9765 44.6201L90.2328 39.9346L88.3817 44.6201C88.3202 44.6508 88.2409 44.6662 88.1436 44.6662C88.036 44.6662 87.9541 44.6508 87.8978 44.6201L85.7547 39.1434C85.6574 38.8925 85.5704 38.6979 85.4935 38.5596C85.4167 38.4214 85.3143 38.3036 85.1863 38.2063C85.0634 38.1039 84.8995 38.0296 84.6947 37.9836L84.7101 37.6072H87.8747C87.8798 37.6942 87.8824 37.8171 87.8824 37.9759C87.6366 38.0578 87.4446 38.15 87.3063 38.2524C87.1732 38.3548 87.1066 38.5008 87.1066 38.6902C87.1066 38.7773 87.1194 38.8592 87.145 38.936C87.145 38.9565 87.1476 38.9744 87.1527 38.9898L88.5737 42.646ZM98.0677 33.9432C98.3135 33.9432 98.5234 34.0303 98.6975 34.2044C98.8716 34.3785 98.9587 34.5885 98.9587 34.8343C98.9587 35.0852 98.8716 35.2977 98.6975 35.4718C98.5234 35.6408 98.3135 35.7253 98.0677 35.7253C97.8167 35.7253 97.6042 35.6408 97.4301 35.4718C97.2611 35.2977 97.1766 35.0852 97.1766 34.8343C97.1766 34.5885 97.2611 34.3785 97.4301 34.2044C97.6042 34.0303 97.8167 33.9432 98.0677 33.9432ZM97.4532 38.9283C97.3866 38.8106 97.2611 38.7056 97.0768 38.6134C96.8976 38.5161 96.7106 38.4367 96.5161 38.3753C96.3266 38.3087 96.2319 38.278 96.2319 38.2831L96.2472 38.0143L98.4056 37.492L98.8819 37.4612V42.8227C98.8819 43.0019 98.8998 43.1709 98.9356 43.3297C98.9766 43.4884 99.0944 43.6497 99.289 43.8136C99.4887 43.9774 99.8011 44.0824 100.226 44.1285C100.226 44.2975 100.224 44.4255 100.218 44.5126H96.2088C96.1986 44.4204 96.1934 44.2924 96.1934 44.1285L96.4085 44.0671C96.6338 44.0056 96.8156 43.9442 96.9539 43.8827C97.0921 43.8213 97.2099 43.7317 97.3072 43.6139C97.4045 43.491 97.4532 43.3271 97.4532 43.1223V38.9283ZM103.391 42.7152C103.391 43.1453 103.478 43.4782 103.652 43.7137C103.831 43.9442 104.126 44.0824 104.535 44.1285C104.535 44.2053 104.533 44.2821 104.528 44.3589C104.522 44.4358 104.52 44.487 104.52 44.5126H100.741L100.733 44.1285C100.779 44.0978 100.838 44.0696 100.91 44.044C100.987 44.0184 101.063 43.9954 101.14 43.9749C101.365 43.9134 101.542 43.8469 101.67 43.7752C101.798 43.6984 101.875 43.5857 101.901 43.4372C101.942 43.217 101.962 42.9917 101.962 42.7613L101.954 35.5333C101.893 35.4308 101.767 35.331 101.578 35.2337C101.394 35.1313 101.212 35.0468 101.033 34.9802C100.853 34.9085 100.738 34.865 100.687 34.8496L100.702 34.5808L102.838 33.997L103.391 33.9432V42.7152ZM107.953 42.7152C107.953 43.1453 108.04 43.4782 108.215 43.7137C108.394 43.9442 108.688 44.0824 109.098 44.1285C109.098 44.2053 109.095 44.2821 109.09 44.3589C109.085 44.4358 109.083 44.487 109.083 44.5126H105.303L105.296 44.1285C105.342 44.0978 105.401 44.0696 105.472 44.044C105.549 44.0184 105.626 43.9954 105.703 43.9749C105.928 43.9134 106.105 43.8469 106.233 43.7752C106.361 43.6984 106.438 43.5857 106.463 43.4372C106.504 43.217 106.525 42.9917 106.525 42.7613L106.517 35.5333C106.456 35.4308 106.33 35.331 106.141 35.2337C105.956 35.1313 105.774 35.0468 105.595 34.9802C105.416 34.9085 105.301 34.865 105.25 34.8496L105.265 34.5808L107.4 33.997L107.953 33.9432V42.7152ZM118.5 39.6657C118.428 39.6709 118.308 39.6734 118.139 39.6734C117.99 39.1562 117.765 38.7338 117.463 38.406C117.166 38.0783 116.784 37.9144 116.318 37.9144C115.996 37.9144 115.74 37.9938 115.55 38.1525C115.366 38.3113 115.274 38.5417 115.274 38.8438C115.274 39.0538 115.35 39.2484 115.504 39.4276C115.658 39.6068 115.845 39.7656 116.065 39.9039C116.29 40.037 116.584 40.1957 116.948 40.3801C117.035 40.4211 117.166 40.4876 117.34 40.5798C117.913 40.887 118.331 41.202 118.592 41.5246C118.858 41.8421 118.991 42.2313 118.991 42.6921C118.991 43.1172 118.886 43.4782 118.676 43.7752C118.466 44.0671 118.177 44.2898 117.808 44.4434C117.44 44.5919 117.017 44.6662 116.541 44.6662C116.121 44.6662 115.696 44.615 115.266 44.5126C114.836 44.4153 114.482 44.2821 114.206 44.1132V42.2389C114.406 42.2133 114.541 42.2005 114.613 42.2005C114.731 42.7689 114.938 43.2324 115.235 43.5908C115.537 43.9493 115.949 44.1285 116.472 44.1285C116.846 44.1285 117.155 44.0363 117.401 43.852C117.652 43.6625 117.778 43.4142 117.778 43.1069C117.778 42.9123 117.721 42.7408 117.609 42.5923C117.496 42.4438 117.35 42.3132 117.171 42.2005C116.992 42.0879 116.723 41.9368 116.364 41.7473C115.883 41.4913 115.517 41.2839 115.266 41.1252C114.877 40.8845 114.582 40.6156 114.383 40.3186C114.188 40.0216 114.091 39.6683 114.091 39.2586C114.091 38.8643 114.19 38.5289 114.39 38.2524C114.59 37.9708 114.861 37.7582 115.204 37.6149C115.548 37.4715 115.934 37.3998 116.364 37.3998C116.759 37.3998 117.132 37.4484 117.486 37.5457C117.844 37.643 118.167 37.7813 118.454 37.9605L118.5 39.6657ZM122.571 42.1007C122.571 42.623 122.589 42.9968 122.624 43.2221C122.66 43.4423 122.747 43.6036 122.886 43.706C123.024 43.8033 123.257 43.852 123.585 43.852C123.779 43.852 123.974 43.8341 124.168 43.7982C124.363 43.7624 124.527 43.724 124.66 43.683L124.721 44.2437C124.46 44.3718 124.197 44.4742 123.93 44.551C123.664 44.6278 123.344 44.6662 122.97 44.6662C122.473 44.6662 122.094 44.5843 121.833 44.4204C121.572 44.2565 121.39 43.9928 121.288 43.6292C121.186 43.2605 121.134 42.7433 121.134 42.0776V38.1833H119.99V37.9144C120.338 37.7762 120.63 37.6149 120.865 37.4305C121.106 37.241 121.303 37.0464 121.457 36.8467C121.611 36.647 121.795 36.3833 122.01 36.0556C122.102 35.9071 122.174 35.8098 122.225 35.7637C122.276 35.7125 122.327 35.6869 122.379 35.6869C122.43 35.6869 122.471 35.7125 122.502 35.7637C122.537 35.8098 122.555 35.884 122.555 35.9864V37.6072H124.483V38.1833H122.571V42.1007ZM129.845 39.8347C129.845 39.4507 129.809 39.1255 129.737 38.8592C129.671 38.5929 129.532 38.3779 129.322 38.214C129.118 38.0501 128.823 37.9682 128.439 37.9682C128.306 37.9682 128.142 37.9964 127.948 38.0527C127.753 38.109 127.581 38.1909 127.433 38.2985C127.289 38.4009 127.218 38.5212 127.218 38.6595C127.218 38.7158 127.228 38.7722 127.249 38.8285C127.269 38.8797 127.302 38.9463 127.348 39.0282C127.394 39.105 127.428 39.1716 127.448 39.2279C127.469 39.2842 127.479 39.3431 127.479 39.4046C127.479 39.6094 127.412 39.781 127.279 39.9192C127.151 40.0524 126.985 40.1189 126.78 40.1189C126.524 40.1189 126.319 40.0242 126.165 39.8347C126.017 39.6453 125.943 39.4174 125.943 39.1511C125.943 38.7517 126.099 38.4214 126.411 38.1602C126.724 37.8991 127.1 37.707 127.54 37.5841C127.986 37.4612 128.401 37.3998 128.785 37.3998C129.507 37.3998 130.044 37.5073 130.398 37.7224C130.756 37.9323 130.992 38.2422 131.104 38.6518C131.222 39.0564 131.281 39.6248 131.281 40.357L131.266 40.7411C131.261 40.8538 131.253 41.0407 131.243 41.3018C131.238 41.563 131.235 41.8037 131.235 42.0239C131.235 43.176 131.355 43.7521 131.596 43.7521C131.77 43.7521 131.996 43.5755 132.272 43.2221L132.595 43.5678C132.369 43.9365 132.147 44.213 131.926 44.3974C131.706 44.5766 131.417 44.6662 131.058 44.6662C130.72 44.6662 130.441 44.5612 130.221 44.3513C130.006 44.1362 129.888 43.8597 129.868 43.5217C129.54 43.8802 129.171 44.1618 128.762 44.3666C128.357 44.5663 127.927 44.6662 127.471 44.6662C127.154 44.6662 126.859 44.6099 126.588 44.4972C126.322 44.3794 126.107 44.2053 125.943 43.9749C125.784 43.7445 125.705 43.4679 125.705 43.1453C125.705 42.6588 125.892 42.2543 126.265 41.9317C126.639 41.6091 127.069 41.3633 127.556 41.1943C128.042 41.0253 128.636 40.8563 129.338 40.6873C129.399 40.6771 129.568 40.6361 129.845 40.5644V39.8347ZM129.845 41.0176C129.768 41.0432 129.671 41.074 129.553 41.1098C129.113 41.2532 128.736 41.3914 128.424 41.5246C128.111 41.6526 127.832 41.8267 127.587 42.0469C127.341 42.2671 127.218 42.5257 127.218 42.8227C127.218 43.1248 127.3 43.363 127.464 43.5371C127.633 43.7112 127.868 43.7982 128.17 43.7982C128.472 43.7982 128.764 43.724 129.046 43.5755C129.328 43.4218 129.594 43.2221 129.845 42.9763V41.0176ZM135.744 42.7382C135.744 42.9789 135.77 43.194 135.821 43.3834C135.877 43.5678 136.008 43.7317 136.212 43.875C136.417 44.0184 136.725 44.1029 137.134 44.1285L137.127 44.5126H133.125C133.125 44.4716 133.122 44.405 133.117 44.3129C133.117 44.2207 133.12 44.149 133.125 44.0978L133.378 44.0287C133.65 43.957 133.844 43.8904 133.962 43.8289C134.08 43.7675 134.167 43.66 134.223 43.5063C134.285 43.3476 134.315 43.1069 134.315 42.7843V38.9207C134.249 38.808 134.126 38.7056 133.947 38.6134C133.767 38.5161 133.58 38.4367 133.386 38.3753C133.196 38.3138 133.102 38.2857 133.102 38.2908L133.117 38.022L135.16 37.4766H135.598L135.721 38.8899C136.008 38.3625 136.305 37.9887 136.612 37.7685C136.924 37.5483 137.28 37.4382 137.68 37.4382C137.884 37.4382 138.069 37.4817 138.233 37.5688C138.402 37.6507 138.532 37.7582 138.624 37.8914C138.722 38.0194 138.77 38.15 138.77 38.2831C138.77 38.3702 138.745 38.488 138.694 38.6365C138.647 38.785 138.573 38.9155 138.471 39.0282C138.373 39.1409 138.253 39.1972 138.11 39.1972C137.946 39.1972 137.818 39.1613 137.726 39.0896C137.634 39.0128 137.539 38.9002 137.441 38.7517C137.37 38.639 137.301 38.5545 137.234 38.4982C137.173 38.4419 137.093 38.4137 136.996 38.4137C136.832 38.4137 136.684 38.4623 136.55 38.5596C136.422 38.6518 136.31 38.767 136.212 38.9053C136.115 39.0436 135.997 39.2279 135.859 39.4583L135.744 39.6504V42.7382ZM140.729 40.4723C140.724 40.5235 140.721 40.5977 140.721 40.695C140.721 41.3402 140.837 41.8805 141.067 42.3158C141.303 42.7459 141.615 43.0659 142.004 43.2759C142.398 43.4807 142.839 43.5831 143.325 43.5831C143.971 43.5831 144.593 43.3988 145.192 43.0301L145.415 43.2452C145.292 43.5422 145.084 43.7982 144.792 44.0133C144.506 44.2284 144.178 44.3922 143.809 44.5049C143.446 44.6124 143.092 44.6662 142.749 44.6662C142.104 44.6662 141.523 44.5151 141.006 44.213C140.493 43.9109 140.091 43.4884 139.8 42.9456C139.513 42.4028 139.369 41.7806 139.369 41.0791C139.369 40.3673 139.526 39.7323 139.838 39.1741C140.15 38.6109 140.565 38.1756 141.082 37.8683C141.605 37.556 142.163 37.3998 142.757 37.3998C143.243 37.3998 143.681 37.4996 144.07 37.6994C144.465 37.8939 144.785 38.1705 145.031 38.5289C145.276 38.8823 145.432 39.2894 145.499 39.7502C145.555 39.9858 145.584 40.2034 145.584 40.4031V40.4723H140.729ZM143.494 39.9807C143.72 39.9704 143.909 39.9295 144.063 39.8578C144.027 39.2484 143.883 38.7722 143.633 38.4291C143.387 38.086 143.036 37.9144 142.58 37.9144C142.247 37.9144 141.95 38.0143 141.689 38.214C141.433 38.4137 141.226 38.68 141.067 39.0128C140.908 39.3406 140.806 39.7016 140.76 40.0959L143.494 39.9807ZM149.332 43.6216C149.332 43.8059 149.283 43.9774 149.186 44.1362C149.094 44.2949 148.966 44.423 148.802 44.5203C148.643 44.6175 148.467 44.6662 148.272 44.6662C148.083 44.6662 147.906 44.6175 147.742 44.5203C147.583 44.4281 147.455 44.3026 147.358 44.1439C147.266 43.98 147.22 43.8059 147.22 43.6216C147.22 43.4372 147.266 43.2657 147.358 43.1069C147.455 42.9482 147.583 42.8227 147.742 42.7305C147.906 42.6332 148.083 42.5846 148.272 42.5846C148.467 42.5846 148.643 42.6332 148.802 42.7305C148.966 42.8227 149.094 42.9482 149.186 43.1069C149.283 43.2657 149.332 43.4372 149.332 43.6216ZM166.991 42.431C167.037 42.9533 167.181 43.3476 167.421 43.6139C167.462 43.7317 167.542 43.8136 167.659 43.8597C167.777 43.9006 167.938 43.9339 168.143 43.9595C168.297 43.98 168.412 44.0005 168.489 44.021C168.566 44.0363 168.632 44.0671 168.689 44.1132L168.673 44.5126H163.888L163.872 44.1132L164.111 44.0363C164.382 43.9493 164.6 43.8699 164.764 43.7982C164.927 43.7214 165.068 43.6113 165.186 43.4679C165.304 43.3194 165.363 43.1274 165.363 42.8918L164.886 36.3091L161.952 42.9379C161.773 43.3425 161.586 43.8674 161.391 44.5126H160.785C160.575 44.0415 160.224 43.3066 159.732 42.3081C159.087 40.9664 158.572 39.8808 158.188 39.0512C157.804 38.2166 157.454 37.4023 157.136 36.6086C157.1 37.0439 157.036 37.6661 156.944 38.4752C156.842 39.4174 156.765 40.206 156.714 40.841C156.662 41.4759 156.637 42.1058 156.637 42.7305C156.637 43.0071 156.688 43.2273 156.79 43.3911C156.893 43.5499 157.021 43.6702 157.174 43.7521C157.333 43.8341 157.553 43.9237 157.835 44.021L158.104 44.1132L158.089 44.5126H154.371L154.355 44.1132C154.396 44.0978 154.532 44.0491 154.763 43.9672C155.008 43.8853 155.203 43.8085 155.346 43.7368C155.49 43.66 155.613 43.5499 155.715 43.4065C155.823 43.2631 155.889 43.0685 155.915 42.8227L156.499 37.0772C156.534 36.7085 156.552 36.3807 156.552 36.094C156.552 35.8789 156.511 35.7074 156.429 35.5793C156.353 35.4513 156.253 35.3566 156.13 35.2951C156.007 35.2337 155.843 35.1697 155.638 35.1031C155.423 35.0365 155.254 34.97 155.131 34.9034L155.147 34.5117H158.135C158.232 34.9264 158.332 35.3003 158.434 35.6331C158.542 35.9608 158.665 36.2732 158.803 36.5702L161.568 42.4617L164.31 36.2092C164.443 35.9071 164.538 35.6101 164.595 35.3182C164.651 35.0212 164.679 34.7523 164.679 34.5117H167.859V34.9111L167.721 34.9572C167.434 35.0545 167.206 35.1441 167.037 35.226C166.873 35.3079 166.732 35.4283 166.615 35.587C166.497 35.7458 166.438 35.9506 166.438 36.2015L166.991 42.431ZM173.735 39.8347C173.735 39.4507 173.699 39.1255 173.628 38.8592C173.561 38.5929 173.423 38.3779 173.213 38.214C173.008 38.0501 172.714 37.9682 172.329 37.9682C172.196 37.9682 172.032 37.9964 171.838 38.0527C171.643 38.109 171.472 38.1909 171.323 38.2985C171.18 38.4009 171.108 38.5212 171.108 38.6595C171.108 38.7158 171.118 38.7722 171.139 38.8285C171.159 38.8797 171.193 38.9463 171.239 39.0282C171.285 39.105 171.318 39.1716 171.339 39.2279C171.359 39.2842 171.369 39.3431 171.369 39.4046C171.369 39.6094 171.303 39.781 171.17 39.9192C171.042 40.0524 170.875 40.1189 170.67 40.1189C170.414 40.1189 170.209 40.0242 170.056 39.8347C169.907 39.6453 169.833 39.4174 169.833 39.1511C169.833 38.7517 169.989 38.4214 170.302 38.1602C170.614 37.8991 170.99 37.707 171.431 37.5841C171.876 37.4612 172.291 37.3998 172.675 37.3998C173.397 37.3998 173.935 37.5073 174.288 37.7224C174.647 37.9323 174.882 38.2422 174.995 38.6518C175.113 39.0564 175.172 39.6248 175.172 40.357L175.156 40.7411C175.151 40.8538 175.143 41.0407 175.133 41.3018C175.128 41.563 175.125 41.8037 175.125 42.0239C175.125 43.176 175.246 43.7521 175.486 43.7521C175.661 43.7521 175.886 43.5755 176.162 43.2221L176.485 43.5678C176.26 43.9365 176.037 44.213 175.817 44.3974C175.597 44.5766 175.307 44.6662 174.949 44.6662C174.611 44.6662 174.332 44.5612 174.112 44.3513C173.896 44.1362 173.779 43.8597 173.758 43.5217C173.43 43.8802 173.062 44.1618 172.652 44.3666C172.248 44.5663 171.817 44.6662 171.362 44.6662C171.044 44.6662 170.75 44.6099 170.478 44.4972C170.212 44.3794 169.997 44.2053 169.833 43.9749C169.674 43.7445 169.595 43.4679 169.595 43.1453C169.595 42.6588 169.782 42.2543 170.156 41.9317C170.53 41.6091 170.96 41.3633 171.446 41.1943C171.933 41.0253 172.527 40.8563 173.228 40.6873C173.29 40.6771 173.459 40.6361 173.735 40.5644V39.8347ZM173.735 41.0176C173.658 41.0432 173.561 41.074 173.443 41.1098C173.003 41.2532 172.626 41.3914 172.314 41.5246C172.002 41.6526 171.723 41.8267 171.477 42.0469C171.231 42.2671 171.108 42.5257 171.108 42.8227C171.108 43.1248 171.19 43.363 171.354 43.5371C171.523 43.7112 171.759 43.7982 172.061 43.7982C172.363 43.7982 172.655 43.724 172.936 43.5755C173.218 43.4218 173.484 43.2221 173.735 42.9763V41.0176ZM177.307 44.5126L177.299 44.2668C177.299 44.1848 177.302 44.1285 177.307 44.0978C177.604 44.0261 177.827 43.9621 177.975 43.9058C178.129 43.8494 178.254 43.7573 178.352 43.6292C178.449 43.5012 178.497 43.322 178.497 43.0916V35.5717C178.446 35.4948 178.334 35.4027 178.16 35.2951C177.985 35.1825 177.801 35.0826 177.606 34.9956C177.417 34.9085 177.276 34.8599 177.184 34.8496V34.5808L179.381 33.997L179.926 33.9432V40.864H180.556L183.014 38.4521C183.024 38.4265 183.029 38.3983 183.029 38.3676C183.029 38.2498 182.981 38.173 182.883 38.1372C182.791 38.0962 182.65 38.0655 182.461 38.045C182.312 38.0296 182.205 38.0117 182.138 37.9912C182.072 37.9708 182.039 37.9272 182.039 37.8607C182.039 37.789 182.046 37.7045 182.062 37.6072H185.318L185.341 37.8607C185.341 37.9682 185.129 38.0655 184.704 38.1525C184.356 38.2242 184.095 38.3343 183.92 38.4828L181.8 40.6566L183.828 43.2836C183.987 43.4935 184.189 43.66 184.435 43.7829C184.681 43.9058 184.909 43.9903 185.119 44.0363C185.334 44.0824 185.482 44.1055 185.564 44.1055L185.541 44.5126H181.739C181.734 44.4716 181.724 44.3948 181.708 44.2821C181.698 44.1695 181.695 44.1132 181.701 44.1132C181.998 44.1132 182.2 44.0799 182.307 44.0133C182.415 43.9416 182.469 43.8622 182.469 43.7752C182.469 43.7291 182.435 43.6702 182.369 43.5985L180.579 41.2865H179.926V42.8073C179.926 43.2477 180.036 43.5678 180.256 43.7675C180.482 43.9621 180.822 44.0824 181.278 44.1285C181.278 44.2053 181.276 44.2821 181.27 44.3589C181.265 44.4358 181.263 44.487 181.263 44.5126H177.307ZM187.216 40.4723C187.211 40.5235 187.208 40.5977 187.208 40.695C187.208 41.3402 187.323 41.8805 187.554 42.3158C187.789 42.7459 188.102 43.0659 188.491 43.2759C188.885 43.4807 189.325 43.5831 189.812 43.5831C190.457 43.5831 191.079 43.3988 191.678 43.0301L191.901 43.2452C191.778 43.5422 191.571 43.7982 191.279 44.0133C190.992 44.2284 190.664 44.3922 190.296 44.5049C189.932 44.6124 189.579 44.6662 189.236 44.6662C188.591 44.6662 188.009 44.5151 187.492 44.213C186.98 43.9109 186.578 43.4884 186.286 42.9456C185.999 42.4028 185.856 41.7806 185.856 41.0791C185.856 40.3673 186.012 39.7323 186.325 39.1741C186.637 38.6109 187.052 38.1756 187.569 37.8683C188.091 37.556 188.649 37.3998 189.243 37.3998C189.73 37.3998 190.168 37.4996 190.557 37.6994C190.951 37.8939 191.271 38.1705 191.517 38.5289C191.763 38.8823 191.919 39.2894 191.986 39.7502C192.042 39.9858 192.07 40.2034 192.07 40.4031V40.4723H187.216ZM189.981 39.9807C190.206 39.9704 190.396 39.9295 190.549 39.8578C190.513 39.2484 190.37 38.7722 190.119 38.4291C189.873 38.086 189.523 37.9144 189.067 37.9144C188.734 37.9144 188.437 38.0143 188.176 38.214C187.92 38.4137 187.712 38.68 187.554 39.0128C187.395 39.3406 187.292 39.7016 187.246 40.0959L189.981 39.9807ZM198.568 33.9432C198.814 33.9432 199.024 34.0303 199.198 34.2044C199.372 34.3785 199.459 34.5885 199.459 34.8343C199.459 35.0852 199.372 35.2977 199.198 35.4718C199.024 35.6408 198.814 35.7253 198.568 35.7253C198.318 35.7253 198.105 35.6408 197.931 35.4718C197.762 35.2977 197.677 35.0852 197.677 34.8343C197.677 34.5885 197.762 34.3785 197.931 34.2044C198.105 34.0303 198.318 33.9432 198.568 33.9432ZM197.954 38.9283C197.887 38.8106 197.762 38.7056 197.578 38.6134C197.398 38.5161 197.211 38.4367 197.017 38.3753C196.827 38.3087 196.733 38.278 196.733 38.2831L196.748 38.0143L198.906 37.492L199.383 37.4612V42.8227C199.383 43.0019 199.401 43.1709 199.436 43.3297C199.477 43.4884 199.595 43.6497 199.79 43.8136C199.989 43.9774 200.302 44.0824 200.727 44.1285C200.727 44.2975 200.724 44.4255 200.719 44.5126H196.71C196.699 44.4204 196.694 44.2924 196.694 44.1285L196.909 44.0671C197.135 44.0056 197.316 43.9442 197.455 43.8827C197.593 43.8213 197.711 43.7317 197.808 43.6139C197.905 43.491 197.954 43.3271 197.954 43.1223V38.9283ZM203.699 42.1007C203.699 42.623 203.717 42.9968 203.753 43.2221C203.789 43.4423 203.876 43.6036 204.014 43.706C204.153 43.8033 204.386 43.852 204.713 43.852C204.908 43.852 205.103 43.8341 205.297 43.7982C205.492 43.7624 205.656 43.724 205.789 43.683L205.85 44.2437C205.589 44.3718 205.325 44.4742 205.059 44.551C204.793 44.6278 204.473 44.6662 204.099 44.6662C203.602 44.6662 203.223 44.5843 202.962 44.4204C202.701 44.2565 202.519 43.9928 202.417 43.6292C202.314 43.2605 202.263 42.7433 202.263 42.0776V38.1833H201.119V37.9144C201.467 37.7762 201.759 37.6149 201.994 37.4305C202.235 37.241 202.432 37.0464 202.586 36.8467C202.739 36.647 202.924 36.3833 203.139 36.0556C203.231 35.9071 203.303 35.8098 203.354 35.7637C203.405 35.7125 203.456 35.6869 203.507 35.6869C203.559 35.6869 203.6 35.7125 203.63 35.7637C203.666 35.8098 203.684 35.884 203.684 35.9864V37.6072H205.612V38.1833H203.699V42.1007ZM30.8111 62.646L32.2168 59.2279C32.1195 58.8797 31.9633 58.5878 31.7482 58.3523C31.5331 58.1167 31.2592 57.9912 30.9263 57.9759L30.9417 57.6072H34.3368C34.347 57.7813 34.3521 57.9042 34.3521 57.9759C34.2856 58.0066 34.1806 58.0476 34.0372 58.0988C33.8426 58.1653 33.6992 58.2319 33.607 58.2985C33.5149 58.3651 33.4688 58.47 33.4688 58.6134C33.4688 58.7209 33.5149 58.9002 33.607 59.1511L34.8591 62.5846L36.0574 59.3508C36.1546 59.0999 36.2033 58.8899 36.2033 58.7209C36.2033 58.5673 36.1803 58.4521 36.1342 58.3753C36.0881 58.2934 36.0241 58.2345 35.9421 58.1986C35.8602 58.1628 35.7322 58.1218 35.5581 58.0757L35.2739 57.9989C35.2636 57.9272 35.2585 57.8658 35.2585 57.8146C35.2585 57.7685 35.2636 57.6994 35.2739 57.6072H37.97V58.0143C37.8266 58.0348 37.6678 58.0988 37.4937 58.2063C37.3247 58.3138 37.1711 58.4444 37.0329 58.5981C36.8997 58.7466 36.8075 58.8899 36.7563 59.0282L34.6824 64.6201C34.6312 64.6508 34.5544 64.6662 34.452 64.6662C34.3547 64.6662 34.2753 64.6508 34.2139 64.6201L32.4702 59.9346L30.6191 64.6201C30.5576 64.6508 30.4782 64.6662 30.3809 64.6662C30.2734 64.6662 30.1915 64.6508 30.1351 64.6201L27.9921 59.1434C27.8948 58.8925 27.8077 58.6979 27.7309 58.5596C27.6541 58.4214 27.5517 58.3036 27.4237 58.2063C27.3008 58.1039 27.1369 58.0296 26.9321 57.9836L26.9475 57.6072H30.1121C30.1172 57.6942 30.1198 57.8171 30.1198 57.9759C29.874 58.0578 29.682 58.15 29.5437 58.2524C29.4106 58.3548 29.344 58.5008 29.344 58.6902C29.344 58.7773 29.3568 58.8592 29.3824 58.936C29.3824 58.9565 29.385 58.9744 29.3901 58.9898L30.8111 62.646ZM41.9796 57.3998C42.6606 57.3998 43.2802 57.5483 43.8384 57.8453C44.4017 58.1372 44.8472 58.5571 45.1749 59.105C45.5027 59.6478 45.6665 60.2802 45.6665 61.0023C45.6665 61.7243 45.5027 62.3644 45.1749 62.9226C44.8472 63.4756 44.4094 63.9058 43.8614 64.213C43.3135 64.5151 42.7144 64.6662 42.064 64.6662C41.4188 64.6662 40.8146 64.51 40.2513 64.1976C39.688 63.8853 39.2374 63.4526 38.8994 62.8995C38.5614 62.3414 38.3924 61.7115 38.3924 61.0099C38.3924 60.3084 38.5563 59.6837 38.884 59.1357C39.2118 58.5827 39.6496 58.1551 40.1975 57.853C40.7506 57.5508 41.3446 57.3998 41.9796 57.3998ZM42.1639 64.0671C42.8142 64.0671 43.3084 63.8341 43.6464 63.3681C43.9843 62.9021 44.1533 62.2901 44.1533 61.5323C44.1533 60.8768 44.0612 60.2751 43.8768 59.7272C43.6976 59.1741 43.439 58.7338 43.101 58.406C42.763 58.0783 42.3739 57.9144 41.9335 57.9144C41.5443 57.9144 41.1986 58.0092 40.8965 58.1986C40.5995 58.3881 40.3639 58.68 40.1898 59.0743C40.0157 59.4686 39.9287 59.9627 39.9287 60.5568C39.9287 61.1405 40.0208 61.7038 40.2052 62.2466C40.3895 62.7843 40.6507 63.2221 40.9887 63.5601C41.3267 63.8981 41.7184 64.0671 42.1639 64.0671ZM49.2536 62.7382C49.2536 62.9789 49.2793 63.194 49.3305 63.3834C49.3868 63.5678 49.5174 63.7317 49.7222 63.875C49.927 64.0184 50.2343 64.1029 50.6439 64.1285L50.6363 64.5126H46.6344C46.6344 64.4716 46.6318 64.405 46.6267 64.3129C46.6267 64.2207 46.6292 64.149 46.6344 64.0978L46.8878 64.0287C47.1592 63.957 47.3538 63.8904 47.4716 63.8289C47.5894 63.7675 47.6764 63.66 47.7328 63.5063C47.7942 63.3476 47.8249 63.1069 47.8249 62.7843V58.9207C47.7584 58.808 47.6355 58.7056 47.4562 58.6134C47.277 58.5161 47.0901 58.4367 46.8955 58.3753C46.7061 58.3138 46.6113 58.2857 46.6113 58.2908L46.6267 58.022L48.6699 57.4766H49.1077L49.2306 58.8899C49.5174 58.3625 49.8144 57.9887 50.1216 57.7685C50.434 57.5483 50.7899 57.4382 51.1893 57.4382C51.3941 57.4382 51.5785 57.4817 51.7424 57.5688C51.9113 57.6507 52.0419 57.7582 52.1341 57.8914C52.2314 58.0194 52.28 58.15 52.28 58.2831C52.28 58.3702 52.2544 58.488 52.2032 58.6365C52.1571 58.785 52.0829 58.9155 51.9805 59.0282C51.8832 59.1409 51.7628 59.1972 51.6195 59.1972C51.4556 59.1972 51.3276 59.1613 51.2354 59.0896C51.1432 59.0128 51.0485 58.9002 50.9512 58.7517C50.8795 58.639 50.8104 58.5545 50.7438 58.4982C50.6824 58.4419 50.603 58.4137 50.5057 58.4137C50.3418 58.4137 50.1933 58.4623 50.0602 58.5596C49.9322 58.6518 49.8195 58.767 49.7222 58.9053C49.6249 59.0436 49.5071 59.2279 49.3689 59.4583L49.2536 59.6504V62.7382ZM55.268 62.1007C55.268 62.623 55.286 62.9968 55.3218 63.2221C55.3576 63.4423 55.4447 63.6036 55.583 63.706C55.7212 63.8033 55.9542 63.852 56.2819 63.852C56.4765 63.852 56.6711 63.8341 56.8657 63.7982C57.0603 63.7624 57.2242 63.724 57.3573 63.683L57.4188 64.2437C57.1576 64.3718 56.8939 64.4742 56.6276 64.551C56.3613 64.6278 56.0413 64.6662 55.6674 64.6662C55.1707 64.6662 54.7918 64.5843 54.5306 64.4204C54.2695 64.2565 54.0877 63.9928 53.9853 63.6292C53.8829 63.2605 53.8316 62.7433 53.8316 62.0776V58.1833H52.6871V57.9144C53.0354 57.7762 53.3272 57.6149 53.5628 57.4305C53.8035 57.241 54.0006 57.0464 54.1543 56.8467C54.3079 56.647 54.4922 56.3833 54.7073 56.0556C54.7995 55.9071 54.8712 55.8098 54.9224 55.7637C54.9736 55.7125 55.0248 55.6869 55.076 55.6869C55.1272 55.6869 55.1682 55.7125 55.1989 55.7637C55.2347 55.8098 55.2527 55.884 55.2527 55.9864V57.6072H57.1806V58.1833H55.268V62.1007ZM65.6837 62.815C65.6837 63.2093 65.7836 63.5191 65.9833 63.7445C66.1881 63.9646 66.4775 64.0927 66.8513 64.1285C66.8513 64.2053 66.8487 64.2821 66.8436 64.3589C66.8385 64.4306 66.8359 64.4818 66.8359 64.5126H63.0568C63.0568 64.4818 63.0542 64.4306 63.0491 64.3589C63.044 64.2821 63.0414 64.2053 63.0414 64.1285C63.1285 64.0875 63.2974 64.0287 63.5484 63.9518C63.743 63.8904 63.8838 63.8341 63.9708 63.7829C64.063 63.7265 64.1321 63.6292 64.1782 63.491C64.2294 63.3527 64.255 63.1453 64.255 62.8688V60.0805C64.255 59.5172 64.1347 59.0692 63.894 58.7363C63.6585 58.3983 63.2872 58.2294 62.7802 58.2294C62.4167 58.2294 62.0633 58.3266 61.7202 58.5212C61.3823 58.7107 61.0699 58.9565 60.7831 59.2586V62.7229C60.7831 63.1837 60.8881 63.5217 61.0981 63.7368C61.308 63.9518 61.6511 64.0824 62.1273 64.1285L62.1197 64.5126H58.0256C58.0256 64.4818 58.023 64.4306 58.0179 64.3589C58.0128 64.2821 58.0102 64.2053 58.0102 64.1285C58.9064 64.0568 59.3544 63.5883 59.3544 62.7229V55.5717C59.3032 55.4948 59.1906 55.4027 59.0165 55.2951C58.8423 55.1825 58.658 55.0826 58.4634 54.9956C58.2739 54.9085 58.1331 54.8599 58.0409 54.8496V54.5808L60.2378 53.997L60.7831 53.9432V58.6134C61.1877 58.2089 61.5845 57.9067 61.9737 57.707C62.3629 57.5022 62.8135 57.3998 63.3256 57.3998C64.0374 57.3998 64.6084 57.6277 65.0385 58.0834C65.4687 58.534 65.6837 59.2228 65.6837 60.1497V62.815ZM73.5646 62.1007C73.5646 62.623 73.5826 62.9968 73.6184 63.2221C73.6543 63.4423 73.7413 63.6036 73.8796 63.706C74.0178 63.8033 74.2508 63.852 74.5786 63.852C74.7732 63.852 74.9677 63.8341 75.1623 63.7982C75.3569 63.7624 75.5208 63.724 75.6539 63.683L75.7154 64.2437C75.4542 64.3718 75.1905 64.4742 74.9242 64.551C74.6579 64.6278 74.3379 64.6662 73.9641 64.6662C73.4673 64.6662 73.0884 64.5843 72.8272 64.4204C72.5661 64.2565 72.3843 63.9928 72.2819 63.6292C72.1795 63.2605 72.1283 62.7433 72.1283 62.0776V58.1833H70.9838V57.9144C71.332 57.7762 71.6239 57.6149 71.8594 57.4305C72.1001 57.241 72.2972 57.0464 72.4509 56.8467C72.6045 56.647 72.7888 56.3833 73.0039 56.0556C73.0961 55.9071 73.1678 55.8098 73.219 55.7637C73.2702 55.7125 73.3214 55.6869 73.3726 55.6869C73.4238 55.6869 73.4648 55.7125 73.4955 55.7637C73.5314 55.8098 73.5493 55.884 73.5493 55.9864V57.6072H75.4773V58.1833H73.5646V62.1007ZM83.9803 62.815C83.9803 63.2093 84.0802 63.5191 84.2799 63.7445C84.4847 63.9646 84.7741 64.0927 85.1479 64.1285C85.1479 64.2053 85.1453 64.2821 85.1402 64.3589C85.1351 64.4306 85.1325 64.4818 85.1325 64.5126H81.3534C81.3534 64.4818 81.3508 64.4306 81.3457 64.3589C81.3406 64.2821 81.338 64.2053 81.338 64.1285C81.4251 64.0875 81.5941 64.0287 81.845 63.9518C82.0396 63.8904 82.1804 63.8341 82.2674 63.7829C82.3596 63.7265 82.4287 63.6292 82.4748 63.491C82.526 63.3527 82.5516 63.1453 82.5516 62.8688V60.0805C82.5516 59.5172 82.4313 59.0692 82.1906 58.7363C81.9551 58.3983 81.5838 58.2294 81.0769 58.2294C80.7133 58.2294 80.3599 58.3266 80.0168 58.5212C79.6789 58.7107 79.3665 58.9565 79.0797 59.2586V62.7229C79.0797 63.1837 79.1847 63.5217 79.3947 63.7368C79.6046 63.9518 79.9477 64.0824 80.424 64.1285L80.4163 64.5126H76.3222C76.3222 64.4818 76.3196 64.4306 76.3145 64.3589C76.3094 64.2821 76.3068 64.2053 76.3068 64.1285C77.203 64.0568 77.651 63.5883 77.651 62.7229V55.5717C77.5998 55.4948 77.4872 55.4027 77.3131 55.2951C77.139 55.1825 76.9546 55.0826 76.76 54.9956C76.5705 54.9085 76.4297 54.8599 76.3376 54.8496V54.5808L78.5344 53.997L79.0797 53.9432V58.6134C79.4843 58.2089 79.8811 57.9067 80.2703 57.707C80.6595 57.5022 81.1101 57.3998 81.6222 57.3998C82.334 57.3998 82.905 57.6277 83.3351 58.0834C83.7653 58.534 83.9803 59.2228 83.9803 60.1497V62.815ZM87.3447 60.4723C87.3396 60.5235 87.337 60.5977 87.337 60.695C87.337 61.3402 87.4522 61.8805 87.6827 62.3158C87.9182 62.7459 88.2306 63.0659 88.6198 63.2759C89.0141 63.4807 89.4545 63.5831 89.941 63.5831C90.5862 63.5831 91.2084 63.3988 91.8075 63.0301L92.0302 63.2452C91.9073 63.5422 91.7 63.7982 91.4081 64.0133C91.1213 64.2284 90.7936 64.3922 90.4249 64.5049C90.0613 64.6124 89.708 64.6662 89.3649 64.6662C88.7196 64.6662 88.1384 64.5151 87.6212 64.213C87.1092 63.9109 86.7072 63.4884 86.4153 62.9456C86.1285 62.4028 85.9851 61.7806 85.9851 61.0791C85.9851 60.3673 86.1413 59.7323 86.4537 59.1741C86.7661 58.6109 87.1808 58.1756 87.698 57.8683C88.2204 57.556 88.7785 57.3998 89.3725 57.3998C89.859 57.3998 90.2969 57.4996 90.686 57.6994C91.0803 57.8939 91.4004 58.1705 91.6462 58.5289C91.892 58.8823 92.0482 59.2894 92.1147 59.7502C92.1711 59.9858 92.1992 60.2034 92.1992 60.4031V60.4723H87.3447ZM90.1099 59.9807C90.3353 59.9704 90.5247 59.9295 90.6784 59.8578C90.6425 59.2484 90.4991 58.7722 90.2482 58.4291C90.0024 58.086 89.6516 57.9144 89.1959 57.9144C88.863 57.9144 88.566 58.0143 88.3049 58.214C88.0488 58.4137 87.8414 58.68 87.6827 59.0128C87.5239 59.3406 87.4215 59.7016 87.3754 60.0959L90.1099 59.9807ZM95.0105 53.9432C95.2563 53.9432 95.4663 54.0303 95.6404 54.2044C95.8145 54.3785 95.9016 54.5885 95.9016 54.8343C95.9016 55.0852 95.8145 55.2977 95.6404 55.4718C95.4663 55.6408 95.2563 55.7253 95.0105 55.7253C94.7596 55.7253 94.5471 55.6408 94.373 55.4718C94.204 55.2977 94.1195 55.0852 94.1195 54.8343C94.1195 54.5885 94.204 54.3785 94.373 54.2044C94.5471 54.0303 94.7596 53.9432 95.0105 53.9432ZM94.3961 58.9283C94.3295 58.8106 94.204 58.7056 94.0197 58.6134C93.8404 58.5161 93.6535 58.4367 93.4589 58.3753C93.2695 58.3087 93.1747 58.278 93.1747 58.2831L93.1901 58.0143L95.3485 57.492L95.8248 57.4612V62.8227C95.8248 63.0019 95.8427 63.1709 95.8785 63.3297C95.9195 63.4884 96.0373 63.6497 96.2319 63.8136C96.4316 63.9774 96.7439 64.0824 97.169 64.1285C97.169 64.2975 97.1664 64.4255 97.1613 64.5126H93.1517C93.1415 64.4204 93.1363 64.2924 93.1363 64.1285L93.3514 64.0671C93.5767 64.0056 93.7585 63.9442 93.8968 63.8827C94.035 63.8213 94.1528 63.7317 94.2501 63.6139C94.3474 63.491 94.3961 63.3271 94.3961 63.1223V58.9283ZM100.272 62.7382C100.272 62.9789 100.298 63.194 100.349 63.3834C100.405 63.5678 100.536 63.7317 100.741 63.875C100.946 64.0184 101.253 64.1029 101.662 64.1285L101.655 64.5126H97.6529C97.6529 64.4716 97.6503 64.405 97.6452 64.3129C97.6452 64.2207 97.6478 64.149 97.6529 64.0978L97.9064 64.0287C98.1778 63.957 98.3723 63.8904 98.4901 63.8289C98.6079 63.7675 98.695 63.66 98.7513 63.5063C98.8127 63.3476 98.8435 63.1069 98.8435 62.7843V58.9207C98.7769 58.808 98.654 58.7056 98.4748 58.6134C98.2955 58.5161 98.1086 58.4367 97.914 58.3753C97.7246 58.3138 97.6298 58.2857 97.6298 58.2908L97.6452 58.022L99.6884 57.4766H100.126L100.249 58.8899C100.536 58.3625 100.833 57.9887 101.14 57.7685C101.453 57.5483 101.808 57.4382 102.208 57.4382C102.413 57.4382 102.597 57.4817 102.761 57.5688C102.93 57.6507 103.06 57.7582 103.153 57.8914C103.25 58.0194 103.299 58.15 103.299 58.2831C103.299 58.3702 103.273 58.488 103.222 58.6365C103.176 58.785 103.101 58.9155 102.999 59.0282C102.902 59.1409 102.781 59.1972 102.638 59.1972C102.474 59.1972 102.346 59.1613 102.254 59.0896C102.162 59.0128 102.067 58.9002 101.97 58.7517C101.898 58.639 101.829 58.5545 101.762 58.4982C101.701 58.4419 101.621 58.4137 101.524 58.4137C101.36 58.4137 101.212 58.4623 101.079 58.5596C100.951 58.6518 100.838 58.767 100.741 58.9053C100.643 59.0436 100.526 59.2279 100.387 59.4583L100.272 59.6504V62.7382ZM110.865 62.646L112.27 59.2279C112.173 58.8797 112.017 58.5878 111.802 58.3523C111.587 58.1167 111.313 57.9912 110.98 57.9759L110.995 57.6072H114.39C114.4 57.7813 114.406 57.9042 114.406 57.9759C114.339 58.0066 114.234 58.0476 114.091 58.0988C113.896 58.1653 113.753 58.2319 113.66 58.2985C113.568 58.3651 113.522 58.47 113.522 58.6134C113.522 58.7209 113.568 58.9002 113.66 59.1511L114.913 62.5846L116.111 59.3508C116.208 59.0999 116.257 58.8899 116.257 58.7209C116.257 58.5673 116.234 58.4521 116.188 58.3753C116.142 58.2934 116.078 58.2345 115.996 58.1986C115.914 58.1628 115.786 58.1218 115.612 58.0757L115.327 57.9989C115.317 57.9272 115.312 57.8658 115.312 57.8146C115.312 57.7685 115.317 57.6994 115.327 57.6072H118.023V58.0143C117.88 58.0348 117.721 58.0988 117.547 58.2063C117.378 58.3138 117.225 58.4444 117.086 58.5981C116.953 58.7466 116.861 58.8899 116.81 59.0282L114.736 64.6201C114.685 64.6508 114.608 64.6662 114.505 64.6662C114.408 64.6662 114.329 64.6508 114.267 64.6201L112.524 59.9346L110.673 64.6201C110.611 64.6508 110.532 64.6662 110.434 64.6662C110.327 64.6662 110.245 64.6508 110.189 64.6201L108.046 59.1434C107.948 58.8925 107.861 58.6979 107.784 58.5596C107.708 58.4214 107.605 58.3036 107.477 58.2063C107.354 58.1039 107.19 58.0296 106.986 57.9836L107.001 57.6072H110.166C110.171 57.6942 110.173 57.8171 110.173 57.9759C109.927 58.0578 109.735 58.15 109.597 58.2524C109.464 58.3548 109.397 58.5008 109.397 58.6902C109.397 58.7773 109.41 58.8592 109.436 58.936C109.436 58.9565 109.438 58.9744 109.444 58.9898L110.865 62.646ZM125.72 62.815C125.72 63.2093 125.82 63.5191 126.02 63.7445C126.224 63.9646 126.514 64.0927 126.888 64.1285C126.888 64.2053 126.885 64.2821 126.88 64.3589C126.875 64.4306 126.872 64.4818 126.872 64.5126H123.093C123.093 64.4818 123.09 64.4306 123.085 64.3589C123.08 64.2821 123.078 64.2053 123.078 64.1285C123.165 64.0875 123.334 64.0287 123.585 63.9518C123.779 63.8904 123.92 63.8341 124.007 63.7829C124.099 63.7265 124.168 63.6292 124.214 63.491C124.266 63.3527 124.291 63.1453 124.291 62.8688V60.0805C124.291 59.5172 124.171 59.0692 123.93 58.7363C123.695 58.3983 123.323 58.2294 122.816 58.2294C122.453 58.2294 122.1 58.3266 121.756 58.5212C121.419 58.7107 121.106 58.9565 120.819 59.2586V62.7229C120.819 63.1837 120.924 63.5217 121.134 63.7368C121.344 63.9518 121.687 64.0824 122.164 64.1285L122.156 64.5126H118.062C118.062 64.4818 118.059 64.4306 118.054 64.3589C118.049 64.2821 118.046 64.2053 118.046 64.1285C118.943 64.0568 119.391 63.5883 119.391 62.7229V55.5717C119.339 55.4948 119.227 55.4027 119.053 55.2951C118.879 55.1825 118.694 55.0826 118.5 54.9956C118.31 54.9085 118.169 54.8599 118.077 54.8496V54.5808L120.274 53.997L120.819 53.9432V58.6134C121.224 58.2089 121.621 57.9067 122.01 57.707C122.399 57.5022 122.85 57.3998 123.362 57.3998C124.074 57.3998 124.645 57.6277 125.075 58.0834C125.505 58.534 125.72 59.2228 125.72 60.1497V62.815ZM129.346 53.9432C129.591 53.9432 129.801 54.0303 129.975 54.2044C130.149 54.3785 130.237 54.5885 130.237 54.8343C130.237 55.0852 130.149 55.2977 129.975 55.4718C129.801 55.6408 129.591 55.7253 129.346 55.7253C129.095 55.7253 128.882 55.6408 128.708 55.4718C128.539 55.2977 128.454 55.0852 128.454 54.8343C128.454 54.5885 128.539 54.3785 128.708 54.2044C128.882 54.0303 129.095 53.9432 129.346 53.9432ZM128.731 58.9283C128.664 58.8106 128.539 58.7056 128.355 58.6134C128.175 58.5161 127.988 58.4367 127.794 58.3753C127.604 58.3087 127.51 58.278 127.51 58.2831L127.525 58.0143L129.683 57.492L130.16 57.4612V62.8227C130.16 63.0019 130.178 63.1709 130.213 63.3297C130.254 63.4884 130.372 63.6497 130.567 63.8136C130.767 63.9774 131.079 64.0824 131.504 64.1285C131.504 64.2975 131.501 64.4255 131.496 64.5126H127.487C127.476 64.4204 127.471 64.2924 127.471 64.1285L127.686 64.0671C127.912 64.0056 128.093 63.9442 128.232 63.8827C128.37 63.8213 128.488 63.7317 128.585 63.6139C128.682 63.491 128.731 63.3271 128.731 63.1223V58.9283ZM134.669 62.7152C134.669 63.1453 134.756 63.4782 134.93 63.7137C135.109 63.9442 135.403 64.0824 135.813 64.1285C135.813 64.2053 135.811 64.2821 135.805 64.3589C135.8 64.4358 135.798 64.487 135.798 64.5126H132.019L132.011 64.1285C132.057 64.0978 132.116 64.0696 132.188 64.044C132.264 64.0184 132.341 63.9954 132.418 63.9749C132.643 63.9134 132.82 63.8469 132.948 63.7752C133.076 63.6984 133.153 63.5857 133.178 63.4372C133.219 63.217 133.24 62.9917 133.24 62.7613L133.232 55.5333C133.171 55.4308 133.045 55.331 132.856 55.2337C132.671 55.1313 132.49 55.0468 132.31 54.9802C132.131 54.9085 132.016 54.865 131.965 54.8496L131.98 54.5808L134.116 53.997L134.669 53.9432V62.7152ZM138.21 60.4723C138.204 60.5235 138.202 60.5977 138.202 60.695C138.202 61.3402 138.317 61.8805 138.548 62.3158C138.783 62.7459 139.096 63.0659 139.485 63.2759C139.879 63.4807 140.319 63.5831 140.806 63.5831C141.451 63.5831 142.073 63.3988 142.672 63.0301L142.895 63.2452C142.772 63.5422 142.565 63.7982 142.273 64.0133C141.986 64.2284 141.658 64.3922 141.29 64.5049C140.926 64.6124 140.573 64.6662 140.23 64.6662C139.585 64.6662 139.003 64.5151 138.486 64.213C137.974 63.9109 137.572 63.4884 137.28 62.9456C136.993 62.4028 136.85 61.7806 136.85 61.0791C136.85 60.3673 137.006 59.7323 137.319 59.1741C137.631 58.6109 138.046 58.1756 138.563 57.8683C139.085 57.556 139.643 57.3998 140.237 57.3998C140.724 57.3998 141.162 57.4996 141.551 57.6994C141.945 57.8939 142.265 58.1705 142.511 58.5289C142.757 58.8823 142.913 59.2894 142.98 59.7502C143.036 59.9858 143.064 60.2034 143.064 60.4031V60.4723H138.21ZM140.975 59.9807C141.2 59.9704 141.39 59.9295 141.543 59.8578C141.507 59.2484 141.364 58.7722 141.113 58.4291C140.867 58.086 140.517 57.9144 140.061 57.9144C139.728 57.9144 139.431 58.0143 139.17 58.214C138.914 58.4137 138.706 58.68 138.548 59.0128C138.389 59.3406 138.286 59.7016 138.24 60.0959L140.975 59.9807ZM146.813 63.6216C146.813 63.8059 146.764 63.9774 146.667 64.1362C146.574 64.2949 146.446 64.423 146.283 64.5203C146.124 64.6175 145.947 64.6662 145.753 64.6662C145.563 64.6662 145.386 64.6175 145.223 64.5203C145.064 64.4281 144.936 64.3026 144.838 64.1439C144.746 63.98 144.7 63.8059 144.7 63.6216C144.7 63.4372 144.746 63.2657 144.838 63.1069C144.936 62.9482 145.064 62.8227 145.223 62.7305C145.386 62.6332 145.563 62.5846 145.753 62.5846C145.947 62.5846 146.124 62.6332 146.283 62.7305C146.446 62.8227 146.574 62.9482 146.667 63.1069C146.764 63.2657 146.813 63.4372 146.813 63.6216ZM148.856 57.9836C148.886 57.9631 148.989 57.9067 149.163 57.8146C149.404 57.6917 149.596 57.5841 149.739 57.492C149.882 57.3947 150 57.2718 150.092 57.1233C150.19 56.9748 150.238 56.793 150.238 56.5779C150.162 56.4704 150.069 56.3833 149.962 56.3167C149.859 56.2502 149.729 56.2041 149.57 56.1785C149.304 56.1324 149.104 56.0351 148.971 55.8866C148.838 55.7381 148.771 55.5435 148.771 55.3028C148.771 55.0212 148.871 54.7856 149.071 54.5961C149.271 54.4067 149.527 54.3119 149.839 54.3119C150.11 54.3119 150.351 54.3785 150.561 54.5117C150.776 54.6448 150.94 54.8317 151.053 55.0724C151.17 55.3079 151.229 55.5793 151.229 55.8866C151.229 56.2655 151.145 56.6342 150.976 56.9927C150.807 57.3511 150.564 57.6609 150.246 57.9221C149.934 58.1781 149.565 58.3446 149.14 58.4214C148.986 58.2882 148.892 58.1423 148.856 57.9836ZM152.174 57.9836C152.241 57.9426 152.346 57.8863 152.489 57.8146C152.735 57.6865 152.924 57.5765 153.057 57.4843C153.196 57.387 153.311 57.2641 153.403 57.1156C153.5 56.9671 153.549 56.7878 153.549 56.5779C153.472 56.4704 153.38 56.3833 153.272 56.3167C153.17 56.2502 153.042 56.2041 152.888 56.1785C152.622 56.1324 152.422 56.0351 152.289 55.8866C152.156 55.7381 152.09 55.5435 152.09 55.3028C152.09 55.0212 152.187 54.7856 152.381 54.5961C152.581 54.4067 152.84 54.3119 153.157 54.3119C153.429 54.3119 153.669 54.3785 153.879 54.5117C154.089 54.6448 154.251 54.8317 154.363 55.0724C154.481 55.3079 154.54 55.5793 154.54 55.8866C154.54 56.2655 154.455 56.6342 154.286 56.9927C154.117 57.3511 153.874 57.6609 153.557 57.9221C153.244 58.1781 152.876 58.3446 152.451 58.4214C152.302 58.2934 152.21 58.1474 152.174 57.9836Z" fill="#CCA298"/>
</svg>
