<svg width="15" height="14" viewBox="0 0 15 14" fill="none" xmlns="http://www.w3.org/2000/svg">
<path fill-rule="evenodd" clip-rule="evenodd" d="M2.30111 1.13694C2.30111 0.722722 2.63689 0.386936 3.0511 0.386936L13.3042 0.386935C13.7184 0.386936 14.0542 0.722722 14.0542 1.13694L14.0542 11.39C14.0542 11.8042 13.7184 12.14 13.3042 12.14C12.8899 12.14 12.5542 11.8042 12.5542 11.39L12.5542 1.88694L3.05111 1.88694C2.63689 1.88694 2.3011 1.55115 2.30111 1.13694Z" fill="#282C3F"/>
<path fill-rule="evenodd" clip-rule="evenodd" d="M1.10656 13.3345C0.813668 13.0416 0.813668 12.5668 1.10656 12.2739L12.7738 0.606606C13.0667 0.313713 13.5416 0.313712 13.8345 0.606606C14.1274 0.899499 14.1274 1.37437 13.8345 1.66727L2.16722 13.3345C1.87433 13.6274 1.39945 13.6274 1.10656 13.3345Z" fill="#282C3F"/>
</svg>
