<svg width="22" height="21" viewBox="0 0 22 21" fill="none" xmlns="http://www.w3.org/2000/svg">
<path fill-rule="evenodd" clip-rule="evenodd" d="M7.87536 6.77191C7.87536 6.52129 8.07853 6.31813 8.32915 6.31813L14.5327 6.31813C14.7833 6.31813 14.9865 6.52129 14.9865 6.77191L14.9865 12.9754C14.9865 13.226 14.7833 13.4292 14.5327 13.4292C14.2821 13.4292 14.0789 13.226 14.0789 12.9754L14.0789 7.22569L8.32915 7.22569C8.07853 7.22569 7.87536 7.02252 7.87536 6.77191Z" fill="#282C3F"/>
<path fill-rule="evenodd" clip-rule="evenodd" d="M7.15262 14.152C6.9754 13.9748 6.9754 13.6874 7.15262 13.5102L14.2118 6.45103C14.389 6.27382 14.6763 6.27382 14.8535 6.45103C15.0308 6.62825 15.0308 6.91557 14.8535 7.09278L7.79436 14.152C7.61715 14.3292 7.32983 14.3292 7.15262 14.152Z" fill="#282C3F"/>
</svg>
