<svg width="406" height="174" viewBox="0 0 406 174" fill="none" xmlns="http://www.w3.org/2000/svg">
<path d="M0 32.9768C0 28.6589 0 26.5 0.435011 25.1521C1.97831 20.3702 7.13825 17.7782 11.8958 19.395C13.2369 19.8507 14.9688 21.1396 18.4327 23.7174C19.1007 24.2145 19.4346 24.463 19.7816 24.6754C20.9613 25.3978 22.2917 25.8385 23.6693 25.9633C24.0745 26 24.4908 26 25.3234 26H298C335.712 26 354.569 26 366.284 37.7157C378 49.4315 378 68.2876 378 106V160C378 166.6 378 169.899 375.95 171.95C373.9 174 370.6 174 364 174H41.0294C31.3251 174 21.9349 170.56 14.5268 164.292C5.3136 156.496 0 145.039 0 132.971V32.9768Z" fill="#CCA298"/>
<path d="M10 22.9768C10 18.6589 10 16.5 10.435 15.1521C11.9783 10.3702 17.1383 7.77819 21.8958 9.39496C23.2369 9.85069 24.9688 11.1396 28.4327 13.7174C29.1007 14.2145 29.4346 14.463 29.7816 14.6754C30.9613 15.3978 32.2917 15.8385 33.6693 15.9633C34.0745 16 34.4908 16 35.3234 16H308C345.712 16 364.569 16 376.284 27.7157C388 39.4315 388 58.2876 388 96V137.887C388 139.482 388 140.28 388.171 141.039C388.296 141.592 388.487 142.128 388.741 142.636C389.089 143.332 389.594 143.949 390.604 145.183C395.759 151.483 398.337 154.634 398.222 157.301C398.141 159.189 397.299 160.964 395.89 162.222C393.898 164 389.828 164 381.687 164H41.7524C35.0869 164 28.5904 161.902 23.1835 158.004C14.9052 152.036 10 142.453 10 132.248V22.9768Z" fill="white"/>
<path d="M16.9823 138.446C16.1158 136.168 15.5206 133.779 15.2221 131.325L15.7185 131.265C15.5738 130.076 15.5 128.872 15.5 127.658V124.344H15V117.715H15.5V111.087H15V104.458H15.5V97.8299H15V91.2014H15.5V84.5729H15V77.9445H15.5V71.316H15V64.6875H15.5V58.059H15V51.4305H15.5V44.8021H15V38.1736H15.5V31.5451H15V24.9166H15.5V21.6024C15.5 20.5499 15.8226 19.6586 16.3405 18.9556L15.9379 18.659C17.2018 16.9433 19.5268 16.2036 21.5498 16.8734L21.3926 17.3481C22.2215 17.6226 22.9999 18.1635 23.6081 19.0225C23.8624 19.3817 24.156 19.7047 24.481 19.9874L24.8092 19.6102C25.4078 20.131 26.1232 20.501 26.8941 20.6886L26.7759 21.1744C27.1944 21.2763 27.6278 21.3293 28.0678 21.3293H31.5045V20.8293H38.3777V21.3293H45.251V20.8293H52.1243V21.3293H58.9976V20.8293H65.8709V21.3293H72.7442V20.8293H79.6175V21.3293H86.4909V20.8293H93.3642V21.3293H100.237V20.8293H107.111V21.3293H113.984V20.8293H120.857V21.3293H127.731V20.8293H134.604V21.3293H141.477V20.8293H148.351V21.3293H155.224V20.8293H162.097V21.3293H168.971V20.8293H175.844V21.3293H182.717V20.8293H189.59V21.3293H196.464V20.8293H203.337V21.3293H210.21V20.8293H217.084V21.3293H223.957V20.8293H230.83V21.3293H237.704V20.8293H244.577V21.3293H251.45V20.8293H258.324V21.3293H265.197V20.8293H272.07V21.3293H278.943V20.8293H285.817V21.3293H292.69V20.8293H299.563V21.3293H303C304.201 21.3293 305.383 21.3293 306.546 21.3296L306.546 20.8296C308.994 20.8304 311.358 20.8329 313.643 20.8406L313.642 21.3406C316.096 21.3488 318.459 21.3631 320.734 21.3877L320.739 20.8877C323.199 20.9143 325.557 20.9531 327.818 21.0095L327.806 21.5093C330.281 21.571 332.639 21.6539 334.887 21.7651L334.912 21.2657C337.398 21.3887 339.753 21.5463 341.985 21.7483L341.94 22.2463C344.423 22.4711 346.75 22.7508 348.937 23.0987L349.016 22.6049C351.498 22.9998 353.804 23.4825 355.951 24.0726L355.819 24.5547C358.203 25.2099 360.384 25.997 362.393 26.9421L362.606 26.4897C364.803 27.5231 366.801 28.7451 368.636 30.1903L368.326 30.583C369.234 31.2977 370.1 32.068 370.931 32.8986C371.761 33.7291 372.532 34.5958 373.246 35.5029L373.639 35.1935C375.084 37.028 376.306 39.0263 377.34 41.223L376.887 41.4359C377.832 43.4448 378.619 45.6267 379.275 48.0108L379.757 47.8783C380.347 50.0257 380.829 52.3309 381.224 54.8135L380.731 54.892C381.078 57.0789 381.358 59.4067 381.583 61.8898L382.081 61.8447C382.283 64.0765 382.441 66.4308 382.564 68.9175L382.064 68.9422C382.175 71.1907 382.258 73.5486 382.32 76.0234L382.82 76.011C382.876 78.2723 382.915 80.6302 382.942 83.0902L382.442 83.0956C382.466 85.3704 382.48 87.7329 382.489 90.1877L382.989 90.1861C382.996 92.471 382.999 94.8354 383 97.2829L382.5 97.283C382.5 97.7218 382.5 98.1632 382.5 98.6073L382.5 100.829V104.096H383V110.628H382.5V117.161H383V123.694H382.5V130.226H383V136.759H382.5V140.025C382.5 141.259 382.605 142.483 382.812 143.685L383.305 143.6C383.711 145.966 384.518 148.245 385.691 150.339L385.254 150.584C385.85 151.648 386.538 152.666 387.314 153.624C387.622 154.004 387.786 154.423 387.834 154.84L388.331 154.782C388.458 155.874 387.934 156.973 387.005 157.562L386.737 157.139C386.383 157.364 385.954 157.5 385.465 157.5H381.922V158H374.837V157.5H367.751V158H360.665V157.5H353.579V158H346.493V157.5H339.407V158H332.321V157.5H325.235V158H318.149V157.5H311.063V158H303.977V157.5H296.892V158H289.806V157.5H282.72V158H275.634V157.5H268.548V158H261.462V157.5H254.376V158H247.29V157.5H240.204V158H233.118V157.5H226.033V158H218.947V157.5H211.861V158H204.775V157.5H197.689V158H190.603V157.5H183.517V158H176.431V157.5H169.345V158H162.259V157.5H155.173V158H148.088V157.5H141.002V158H133.916V157.5H126.83V158H119.744V157.5H112.658V158H105.572V157.5H98.4863V158H91.4004V157.5H84.3145V158H77.2286V157.5H70.1427V158H63.0568V157.5H55.9709V158H48.885V157.5H45.342C43.839 157.5 42.3448 157.387 40.8714 157.163L40.7965 157.658C37.7835 157.201 34.8561 156.293 32.1136 154.965L32.3316 154.515C30.9905 153.865 29.6943 153.113 28.4551 152.262C27.4542 151.576 26.5031 150.833 25.6047 150.041L25.2741 150.416C23.4202 148.782 21.7869 146.939 20.3995 144.936L20.8106 144.651C19.4366 142.667 18.3078 140.523 17.4496 138.268L16.9823 138.446Z" fill="white" stroke="#C17766" stroke-dasharray="7 7"/>
<path d="M230.935 124.084H244.195L243.974 125.376H230.714L230.935 124.084ZM247.452 117.828H248.948L251.872 125.24H251.94L257.431 117.828H259.114L256.955 130H255.391L256.666 122.775L257.091 120.735H257.023L252.042 127.416H251.124L248.489 120.735H248.421L248.132 122.775L246.857 130H245.293L247.452 117.828ZM263.899 121.398C264.975 121.398 265.786 121.647 266.33 122.146C266.885 122.645 267.163 123.319 267.163 124.169C267.163 124.305 267.151 124.452 267.129 124.611C267.117 124.758 267.1 124.911 267.078 125.07L266.194 130H264.698L264.902 128.844H264.834C264.562 129.241 264.188 129.581 263.712 129.864C263.236 130.136 262.703 130.272 262.114 130.272C261.706 130.272 261.326 130.21 260.975 130.085C260.623 129.972 260.317 129.802 260.057 129.575C259.807 129.348 259.609 129.082 259.462 128.776C259.314 128.459 259.241 128.102 259.241 127.705C259.241 127.229 259.343 126.798 259.547 126.413C259.762 126.028 260.051 125.705 260.414 125.444C260.776 125.172 261.201 124.962 261.689 124.815C262.187 124.668 262.726 124.594 263.304 124.594C263.768 124.594 264.176 124.645 264.528 124.747C264.89 124.838 265.236 124.957 265.565 125.104L265.633 124.747C265.655 124.656 265.667 124.543 265.667 124.407C265.667 123.92 265.491 123.529 265.14 123.234C264.788 122.939 264.324 122.792 263.746 122.792C263.304 122.792 262.907 122.877 262.556 123.047C262.216 123.217 261.881 123.5 261.553 123.897L260.329 123.03C260.725 122.497 261.23 122.095 261.842 121.823C262.465 121.54 263.151 121.398 263.899 121.398ZM262.437 128.878C262.788 128.878 263.122 128.816 263.44 128.691C263.768 128.566 264.057 128.396 264.307 128.181C264.567 127.954 264.788 127.694 264.97 127.399C265.151 127.093 265.27 126.77 265.327 126.43C265.191 126.328 265.021 126.232 264.817 126.141C264.635 126.073 264.409 126.011 264.137 125.954C263.876 125.886 263.559 125.852 263.185 125.852C262.901 125.852 262.618 125.886 262.335 125.954C262.063 126.022 261.819 126.13 261.604 126.277C261.388 126.424 261.213 126.606 261.077 126.821C260.941 127.036 260.873 127.286 260.873 127.569C260.873 127.784 260.918 127.977 261.009 128.147C261.099 128.306 261.213 128.442 261.349 128.555C261.496 128.657 261.66 128.736 261.842 128.793C262.034 128.85 262.233 128.878 262.437 128.878ZM267.567 130L269.029 121.67H270.525L270.287 123.03H270.355C270.615 122.554 270.989 122.169 271.477 121.874C271.975 121.579 272.508 121.432 273.075 121.432C273.335 121.432 273.534 121.449 273.67 121.483C273.817 121.517 273.964 121.568 274.112 121.636L273.449 123.149C273.301 123.104 273.16 123.075 273.024 123.064C272.899 123.041 272.74 123.03 272.548 123.03C272.242 123.03 271.941 123.092 271.647 123.217C271.363 123.342 271.103 123.517 270.865 123.744C270.627 123.959 270.423 124.226 270.253 124.543C270.094 124.849 269.981 125.189 269.913 125.563L269.131 130H267.567ZM277.053 130.272C276.509 130.272 276.01 130.176 275.557 129.983C275.115 129.779 274.735 129.507 274.418 129.167C274.112 128.816 273.868 128.408 273.687 127.943C273.517 127.467 273.432 126.963 273.432 126.43C273.432 125.705 273.562 125.036 273.823 124.424C274.083 123.801 274.435 123.268 274.877 122.826C275.33 122.373 275.857 122.021 276.458 121.772C277.07 121.523 277.721 121.398 278.413 121.398C278.923 121.398 279.37 121.472 279.756 121.619C280.141 121.755 280.47 121.936 280.742 122.163C281.025 122.39 281.252 122.65 281.422 122.945C281.592 123.228 281.716 123.512 281.796 123.795L280.334 124.356C280.198 123.88 279.954 123.506 279.603 123.234C279.263 122.962 278.804 122.826 278.226 122.826C277.772 122.826 277.347 122.917 276.951 123.098C276.565 123.268 276.231 123.512 275.948 123.829C275.664 124.135 275.438 124.503 275.268 124.934C275.109 125.353 275.03 125.812 275.03 126.311C275.03 126.651 275.081 126.98 275.183 127.297C275.285 127.603 275.432 127.869 275.625 128.096C275.817 128.323 276.061 128.504 276.356 128.64C276.65 128.776 276.985 128.844 277.359 128.844C277.891 128.844 278.367 128.702 278.787 128.419C279.217 128.136 279.58 127.75 279.875 127.263L281.133 127.858C280.872 128.266 280.606 128.623 280.334 128.929C280.073 129.235 279.778 129.49 279.45 129.694C279.132 129.887 278.775 130.028 278.379 130.119C277.993 130.221 277.551 130.272 277.053 130.272ZM288.096 130.272C287.654 130.272 287.241 130.204 286.855 130.068C286.47 129.943 286.13 129.756 285.835 129.507C285.541 129.258 285.297 128.963 285.104 128.623C284.923 128.272 284.81 127.881 284.764 127.45L286.294 126.855C286.328 127.218 286.402 127.524 286.515 127.773C286.64 128.011 286.793 128.204 286.974 128.351C287.156 128.498 287.36 128.606 287.586 128.674C287.813 128.742 288.051 128.776 288.3 128.776C288.629 128.776 288.935 128.714 289.218 128.589C289.502 128.464 289.757 128.294 289.983 128.079C290.21 127.852 290.397 127.592 290.544 127.297C290.703 127.002 290.811 126.691 290.867 126.362L292.363 117.828H293.927L292.448 126.226C292.324 126.929 292.125 127.535 291.853 128.045C291.593 128.544 291.27 128.963 290.884 129.303C290.499 129.632 290.068 129.875 289.592 130.034C289.128 130.193 288.629 130.272 288.096 130.272ZM298.745 121.398C299.822 121.398 300.632 121.647 301.176 122.146C301.732 122.645 302.009 123.319 302.009 124.169C302.009 124.305 301.998 124.452 301.975 124.611C301.964 124.758 301.947 124.911 301.924 125.07L301.04 130H299.544L299.748 128.844H299.68C299.408 129.241 299.034 129.581 298.558 129.864C298.082 130.136 297.55 130.272 296.96 130.272C296.552 130.272 296.173 130.21 295.821 130.085C295.47 129.972 295.164 129.802 294.903 129.575C294.654 129.348 294.456 129.082 294.308 128.776C294.161 128.459 294.087 128.102 294.087 127.705C294.087 127.229 294.189 126.798 294.393 126.413C294.609 126.028 294.898 125.705 295.26 125.444C295.623 125.172 296.048 124.962 296.535 124.815C297.034 124.668 297.572 124.594 298.15 124.594C298.615 124.594 299.023 124.645 299.374 124.747C299.737 124.838 300.083 124.957 300.411 125.104L300.479 124.747C300.502 124.656 300.513 124.543 300.513 124.407C300.513 123.92 300.338 123.529 299.986 123.234C299.635 122.939 299.17 122.792 298.592 122.792C298.15 122.792 297.754 122.877 297.402 123.047C297.062 123.217 296.728 123.5 296.399 123.897L295.175 123.03C295.572 122.497 296.076 122.095 296.688 121.823C297.312 121.54 297.997 121.398 298.745 121.398ZM297.283 128.878C297.635 128.878 297.969 128.816 298.286 128.691C298.615 128.566 298.904 128.396 299.153 128.181C299.414 127.954 299.635 127.694 299.816 127.399C299.998 127.093 300.117 126.77 300.173 126.43C300.037 126.328 299.867 126.232 299.663 126.141C299.482 126.073 299.255 126.011 298.983 125.954C298.723 125.886 298.405 125.852 298.031 125.852C297.748 125.852 297.465 125.886 297.181 125.954C296.909 126.022 296.666 126.13 296.45 126.277C296.235 126.424 296.059 126.606 295.923 126.821C295.787 127.036 295.719 127.286 295.719 127.569C295.719 127.784 295.765 127.977 295.855 128.147C295.946 128.306 296.059 128.442 296.195 128.555C296.343 128.657 296.507 128.736 296.688 128.793C296.881 128.85 297.079 128.878 297.283 128.878ZM306.155 130.272C305.611 130.272 305.113 130.176 304.659 129.983C304.217 129.779 303.838 129.507 303.52 129.167C303.214 128.816 302.971 128.408 302.789 127.943C302.619 127.467 302.534 126.963 302.534 126.43C302.534 125.705 302.665 125.036 302.925 124.424C303.186 123.801 303.537 123.268 303.979 122.826C304.433 122.373 304.96 122.021 305.56 121.772C306.172 121.523 306.824 121.398 307.515 121.398C308.025 121.398 308.473 121.472 308.858 121.619C309.244 121.755 309.572 121.936 309.844 122.163C310.128 122.39 310.354 122.65 310.524 122.945C310.694 123.228 310.819 123.512 310.898 123.795L309.436 124.356C309.3 123.88 309.057 123.506 308.705 123.234C308.365 122.962 307.906 122.826 307.328 122.826C306.875 122.826 306.45 122.917 306.053 123.098C305.668 123.268 305.334 123.512 305.05 123.829C304.767 124.135 304.54 124.503 304.37 124.934C304.212 125.353 304.132 125.812 304.132 126.311C304.132 126.651 304.183 126.98 304.285 127.297C304.387 127.603 304.535 127.869 304.727 128.096C304.92 128.323 305.164 128.504 305.458 128.64C305.753 128.776 306.087 128.844 306.461 128.844C306.994 128.844 307.47 128.702 307.889 128.419C308.32 128.136 308.683 127.75 308.977 127.263L310.235 127.858C309.975 128.266 309.708 128.623 309.436 128.929C309.176 129.235 308.881 129.49 308.552 129.694C308.235 129.887 307.878 130.028 307.481 130.119C307.096 130.221 306.654 130.272 306.155 130.272ZM316.314 121.398C316.892 121.398 317.419 121.506 317.895 121.721C318.382 121.925 318.796 122.208 319.136 122.571C319.476 122.934 319.737 123.359 319.918 123.846C320.111 124.322 320.207 124.832 320.207 125.376C320.207 126.067 320.082 126.713 319.833 127.314C319.584 127.903 319.238 128.419 318.796 128.861C318.354 129.303 317.827 129.649 317.215 129.898C316.603 130.147 315.94 130.272 315.226 130.272C314.648 130.272 314.115 130.17 313.628 129.966C313.152 129.751 312.744 129.462 312.404 129.099C312.064 128.736 311.798 128.317 311.605 127.841C311.424 127.354 311.333 126.838 311.333 126.294C311.333 125.603 311.458 124.962 311.707 124.373C311.956 123.772 312.302 123.251 312.744 122.809C313.186 122.367 313.713 122.021 314.325 121.772C314.937 121.523 315.6 121.398 316.314 121.398ZM315.379 128.844C315.878 128.844 316.325 128.753 316.722 128.572C317.13 128.379 317.47 128.13 317.742 127.824C318.025 127.507 318.241 127.15 318.388 126.753C318.535 126.345 318.609 125.92 318.609 125.478C318.609 125.093 318.541 124.741 318.405 124.424C318.28 124.095 318.105 123.812 317.878 123.574C317.663 123.336 317.402 123.155 317.096 123.03C316.801 122.894 316.49 122.826 316.161 122.826C315.662 122.826 315.209 122.922 314.801 123.115C314.404 123.296 314.064 123.546 313.781 123.863C313.509 124.169 313.299 124.526 313.152 124.934C313.005 125.331 312.931 125.75 312.931 126.192C312.931 126.577 312.993 126.934 313.118 127.263C313.254 127.58 313.43 127.858 313.645 128.096C313.872 128.334 314.132 128.521 314.427 128.657C314.733 128.782 315.05 128.844 315.379 128.844ZM324.894 130.272C324.327 130.272 323.811 130.136 323.347 129.864C322.893 129.592 322.548 129.252 322.31 128.844H322.242L322.038 130H320.559L322.701 117.828H324.265L323.585 121.67L323.313 122.826H323.381C323.664 122.441 324.038 122.106 324.503 121.823C324.967 121.54 325.557 121.398 326.271 121.398C326.758 121.398 327.211 121.489 327.631 121.67C328.05 121.851 328.413 122.112 328.719 122.452C329.036 122.781 329.28 123.189 329.45 123.676C329.631 124.152 329.722 124.69 329.722 125.291C329.722 125.937 329.597 126.56 329.348 127.161C329.11 127.75 328.775 128.277 328.345 128.742C327.914 129.207 327.404 129.581 326.815 129.864C326.225 130.136 325.585 130.272 324.894 130.272ZM325.013 128.844C325.443 128.844 325.846 128.759 326.22 128.589C326.605 128.408 326.934 128.164 327.206 127.858C327.489 127.541 327.71 127.172 327.869 126.753C328.039 126.334 328.124 125.88 328.124 125.393C328.124 124.588 327.925 123.959 327.529 123.506C327.143 123.053 326.577 122.826 325.829 122.826C325.387 122.826 324.973 122.928 324.588 123.132C324.202 123.325 323.868 123.585 323.585 123.914C323.313 124.243 323.097 124.622 322.939 125.053C322.78 125.472 322.701 125.909 322.701 126.362C322.701 127.178 322.922 127.796 323.364 128.215C323.806 128.634 324.355 128.844 325.013 128.844ZM333.552 130.272C333.064 130.272 332.634 130.21 332.26 130.085C331.886 129.96 331.557 129.796 331.274 129.592C331.002 129.377 330.775 129.127 330.594 128.844C330.412 128.549 330.276 128.232 330.186 127.892L331.682 127.297C331.795 127.818 332.039 128.215 332.413 128.487C332.787 128.748 333.217 128.878 333.705 128.878C334.249 128.878 334.679 128.765 334.997 128.538C335.314 128.311 335.473 128.034 335.473 127.705C335.473 127.388 335.371 127.133 335.167 126.94C334.963 126.747 334.623 126.589 334.147 126.464L333.195 126.209C332.594 126.05 332.095 125.801 331.699 125.461C331.313 125.11 331.121 124.617 331.121 123.982C331.121 123.608 331.211 123.262 331.393 122.945C331.574 122.628 331.818 122.356 332.124 122.129C332.43 121.902 332.787 121.727 333.195 121.602C333.603 121.466 334.039 121.398 334.504 121.398C335.297 121.398 335.971 121.585 336.527 121.959C337.082 122.322 337.456 122.792 337.649 123.37L336.153 123.948C336.028 123.631 335.818 123.359 335.524 123.132C335.24 122.905 334.866 122.792 334.402 122.792C333.914 122.792 333.518 122.888 333.212 123.081C332.906 123.262 332.753 123.523 332.753 123.863C332.753 124.078 332.838 124.277 333.008 124.458C333.178 124.639 333.472 124.787 333.892 124.9L334.963 125.189C335.643 125.382 336.17 125.676 336.544 126.073C336.918 126.458 337.105 126.94 337.105 127.518C337.105 127.937 337.02 128.317 336.85 128.657C336.68 128.997 336.436 129.286 336.119 129.524C335.801 129.762 335.422 129.943 334.98 130.068C334.549 130.204 334.073 130.272 333.552 130.272Z" fill="#C17766"/>
<path d="M48.7734 48.1309C48.3757 48.3424 48.0583 48.5286 47.8213 48.6895C47.5843 48.8503 47.3854 49.0534 47.2246 49.2988C47.0723 49.5443 46.9961 49.8405 46.9961 50.1875C47.123 50.3737 47.2712 50.5218 47.4404 50.6318C47.6182 50.7419 47.834 50.818 48.0879 50.8604C48.9766 51.0212 49.4209 51.4993 49.4209 52.2949C49.4209 52.7689 49.2559 53.1624 48.9258 53.4756C48.5957 53.7887 48.1683 53.9453 47.6436 53.9453C47.195 53.9453 46.7972 53.8353 46.4502 53.6152C46.1032 53.3952 45.8324 53.0863 45.6377 52.6885C45.4515 52.2907 45.3584 51.8379 45.3584 51.3301C45.3584 50.7122 45.4938 50.1071 45.7646 49.5146C46.0439 48.9137 46.446 48.4017 46.9707 47.9785C47.4954 47.5553 48.109 47.2803 48.8115 47.1533C49.0485 47.348 49.2008 47.585 49.2686 47.8643L48.7734 48.1309ZM54.1689 48.1309C53.7712 48.3424 53.4538 48.5286 53.2168 48.6895C52.9798 48.8503 52.7809 49.0534 52.6201 49.2988C52.4678 49.5443 52.3916 49.8405 52.3916 50.1875C52.6286 50.5514 52.9925 50.7757 53.4834 50.8604C54.3636 51.0212 54.8037 51.4993 54.8037 52.2949C54.8037 52.7689 54.6387 53.1624 54.3086 53.4756C53.987 53.7887 53.5638 53.9453 53.0391 53.9453C52.5905 53.9453 52.1927 53.8353 51.8457 53.6152C51.4987 53.3952 51.2279 53.0863 51.0332 52.6885C50.847 52.2907 50.7539 51.8379 50.7539 51.3301C50.7539 50.7122 50.8893 50.1071 51.1602 49.5146C51.4395 48.9137 51.8415 48.4017 52.3662 47.9785C52.891 47.5553 53.5046 47.2803 54.207 47.1533C54.444 47.348 54.5964 47.585 54.6641 47.8643L54.1689 48.1309ZM68.0703 50.4033L67.7656 49.6289C67.6302 49.2904 67.5244 49.0365 67.4482 48.8672C67.3467 48.7826 66.9997 48.626 66.4072 48.3975C65.9417 48.2113 65.6074 48.0716 65.4043 47.9785C65.2012 47.8854 65.0996 47.8008 65.0996 47.7246C65.0996 47.7077 65.1123 47.6654 65.1377 47.5977C65.1631 47.5299 65.18 47.4876 65.1885 47.4707H73.3389C73.3473 47.4961 73.36 47.5384 73.377 47.5977C73.4023 47.6569 73.415 47.6992 73.415 47.7246C73.415 47.9193 73.3219 48.0462 73.1357 48.1055C72.958 48.1647 72.6745 48.2113 72.2852 48.2451C71.8535 48.279 71.5277 48.3382 71.3076 48.4229C71.0876 48.499 70.9775 48.6641 70.9775 48.918C70.9775 49.0957 71.4515 50.6826 72.3994 53.6787C73.3558 56.6748 73.9863 58.613 74.291 59.4932L74.6465 58.4141C76.627 52.498 77.6172 49.3369 77.6172 48.9307C77.6172 48.6683 77.4902 48.4863 77.2363 48.3848C76.9824 48.2747 76.61 48.1859 76.1191 48.1182C75.916 48.0928 75.7171 48.0589 75.5225 48.0166C75.3278 47.9743 75.1755 47.9235 75.0654 47.8643L74.9893 47.7246L75.0654 47.4707H81.6289C81.6628 47.4707 81.7051 47.4876 81.7559 47.5215C81.8066 47.5469 81.8405 47.5765 81.8574 47.6104C81.8574 47.7373 81.7601 47.8389 81.5654 47.915C81.3708 47.9827 81.0576 48.0632 80.626 48.1562C79.9912 48.2917 79.4876 48.4398 79.1152 48.6006C78.7428 48.7529 78.4974 48.9899 78.3789 49.3115C78.2858 49.5739 78.1885 49.8786 78.0869 50.2256C77.9854 50.5641 77.9134 50.8053 77.8711 50.9492C77.8203 51.1523 77.778 51.3047 77.7441 51.4062L73.9482 63.9873C73.8975 64.1566 73.7197 64.2412 73.415 64.2412C73.2796 64.2412 73.1654 64.2243 73.0723 64.1904C72.9876 64.1566 72.9199 64.0889 72.8691 63.9873C72.7083 63.6742 72.5475 63.2129 72.3867 62.6035L72.1582 61.8799L68.5527 51.3809L65.2646 60.8389C65.1885 61.0505 65.0827 61.3932 64.9473 61.8672C64.7865 62.4004 64.651 62.8193 64.541 63.124C64.431 63.4287 64.3083 63.7165 64.1729 63.9873C64.1221 64.0973 64.0544 64.1693 63.9697 64.2031C63.8851 64.2454 63.7751 64.2666 63.6396 64.2666C63.3857 64.2666 63.1699 64.0889 62.9922 63.7334C62.8145 63.3779 62.6367 62.9209 62.459 62.3623L62.332 61.9561L60.5928 57.2969C59.6533 54.7409 58.7012 52.2018 57.7363 49.6797C57.6009 49.3327 57.402 49.0745 57.1396 48.9053C56.8857 48.7275 56.543 48.5583 56.1113 48.3975C55.7897 48.279 55.5443 48.1774 55.375 48.0928C55.2057 48.0081 55.0492 47.8939 54.9053 47.75L54.9941 47.4707H63.1572C63.1657 47.4961 63.1784 47.5384 63.1953 47.5977C63.2122 47.6484 63.2207 47.6908 63.2207 47.7246C63.2207 47.8939 63.1361 48.0124 62.9668 48.0801C62.806 48.1393 62.5605 48.1901 62.2305 48.2324C61.8242 48.2832 61.5111 48.3594 61.291 48.4609C61.0794 48.554 60.9736 48.7318 60.9736 48.9941C60.9736 49.1126 61.4264 50.4583 62.332 53.0312C63.2461 55.6042 64.0205 57.7666 64.6553 59.5186L68.0703 50.4033ZM82.1748 57.3223C82.1663 57.4069 82.1621 57.5296 82.1621 57.6904C82.1621 58.7568 82.3525 59.6497 82.7334 60.3691C83.1227 61.0801 83.639 61.609 84.2822 61.9561C84.9339 62.2946 85.6618 62.4639 86.4658 62.4639C87.5322 62.4639 88.5605 62.1592 89.5508 61.5498L89.9189 61.9053C89.7158 62.3962 89.373 62.8193 88.8906 63.1748C88.4167 63.5303 87.875 63.8011 87.2656 63.9873C86.6647 64.165 86.0807 64.2539 85.5137 64.2539C84.4473 64.2539 83.4867 64.0042 82.6318 63.5049C81.7855 63.0055 81.1211 62.3073 80.6387 61.4102C80.1647 60.513 79.9277 59.4847 79.9277 58.3252C79.9277 57.1488 80.1859 56.0993 80.7021 55.1768C81.2184 54.2458 81.904 53.5264 82.7588 53.0186C83.6221 52.5023 84.5446 52.2441 85.5264 52.2441C86.3304 52.2441 87.054 52.4092 87.6973 52.7393C88.349 53.0609 88.8779 53.5179 89.2842 54.1104C89.6904 54.6943 89.9486 55.3672 90.0586 56.1289C90.1517 56.5182 90.1982 56.8779 90.1982 57.208V57.3223H82.1748ZM86.7451 56.5098C87.1175 56.4928 87.4307 56.4251 87.6846 56.3066C87.6253 55.2995 87.3883 54.5124 86.9736 53.9453C86.5674 53.3783 85.9876 53.0947 85.2344 53.0947C84.6842 53.0947 84.1934 53.2598 83.7617 53.5898C83.3385 53.9199 82.9958 54.36 82.7334 54.9102C82.471 55.4518 82.3018 56.0485 82.2256 56.7002L86.7451 56.5098ZM107.654 49.083C107.544 48.9137 107.328 48.7445 107.007 48.5752C106.694 48.4059 106.385 48.262 106.08 48.1436C105.784 48.0251 105.589 47.9531 105.496 47.9277L105.521 47.4834L109.102 46.6201L110.016 46.5312V61.4736C110.016 61.9814 110.231 62.3454 110.663 62.5654C111.103 62.7855 111.573 62.8955 112.072 62.8955V63.5938L108.683 64.1523H107.832L107.718 62.1846C107.117 62.8786 106.486 63.3991 105.826 63.7461C105.166 64.0846 104.459 64.2539 103.706 64.2539C102.75 64.2539 101.874 64.0254 101.078 63.5684C100.291 63.1029 99.6689 62.4554 99.2119 61.626C98.7549 60.7881 98.5264 59.8275 98.5264 58.7441C98.5264 57.5 98.7803 56.387 99.2881 55.4053C99.8044 54.4235 100.511 53.6576 101.408 53.1074C102.305 52.5573 103.308 52.2822 104.417 52.2822C104.933 52.2822 105.437 52.3626 105.928 52.5234C106.419 52.6758 106.994 52.9085 107.654 53.2217V49.083ZM107.654 57.5254C107.654 56.7044 107.582 56.0443 107.438 55.5449C107.295 55.0371 107.003 54.5885 106.562 54.1992C106.224 53.903 105.86 53.6745 105.471 53.5137C105.081 53.3444 104.688 53.2598 104.29 53.2598C103.621 53.2598 103.029 53.4756 102.513 53.9072C101.996 54.3389 101.594 54.9144 101.307 55.6338C101.027 56.3447 100.888 57.1149 100.888 57.9443C100.888 58.7484 101.027 59.5186 101.307 60.2549C101.594 60.9827 102.022 61.5794 102.589 62.0449C103.156 62.5104 103.841 62.7432 104.646 62.7432C105.289 62.7432 105.86 62.6035 106.359 62.3242C106.867 62.0365 107.299 61.6556 107.654 61.1816V57.5254ZM119.423 52.2441C120.549 52.2441 121.573 52.4896 122.495 52.9805C123.426 53.4629 124.162 54.1569 124.704 55.0625C125.246 55.9596 125.517 57.0049 125.517 58.1982C125.517 59.3916 125.246 60.4495 124.704 61.3721C124.162 62.2861 123.439 62.9971 122.533 63.5049C121.628 64.0042 120.637 64.2539 119.562 64.2539C118.496 64.2539 117.497 63.9958 116.566 63.4795C115.635 62.9632 114.891 62.248 114.332 61.334C113.773 60.4115 113.494 59.3704 113.494 58.2109C113.494 57.0514 113.765 56.0189 114.307 55.1133C114.848 54.1992 115.572 53.4925 116.478 52.9932C117.392 52.4938 118.373 52.2441 119.423 52.2441ZM119.728 63.2637C120.802 63.2637 121.619 62.8786 122.178 62.1084C122.736 61.3382 123.016 60.3268 123.016 59.0742C123.016 57.9909 122.863 56.9964 122.559 56.0908C122.262 55.1768 121.835 54.4489 121.276 53.9072C120.718 53.3656 120.075 53.0947 119.347 53.0947C118.703 53.0947 118.132 53.2513 117.633 53.5645C117.142 53.8776 116.753 54.36 116.465 55.0117C116.177 55.6634 116.033 56.4801 116.033 57.4619C116.033 58.4268 116.186 59.3577 116.49 60.2549C116.795 61.1436 117.227 61.8672 117.785 62.4258C118.344 62.9844 118.991 63.2637 119.728 63.2637ZM131.458 61.1816C131.458 61.9095 131.64 62.4385 132.004 62.7686C132.376 63.0902 132.939 63.2891 133.692 63.3652C133.692 63.4922 133.688 63.6191 133.68 63.7461C133.671 63.873 133.667 63.9577 133.667 64H127.129L127.116 63.5938C127.116 63.4583 127.12 63.3652 127.129 63.3145C127.62 63.196 127.988 63.0902 128.233 62.9971C128.487 62.904 128.695 62.7516 128.855 62.54C129.016 62.3285 129.097 62.0322 129.097 61.6514V54.7705C128.995 54.5758 128.796 54.4023 128.5 54.25C128.204 54.0892 127.891 53.958 127.561 53.8564C127.239 53.7464 127.078 53.6956 127.078 53.7041L127.116 53.2725L130.582 52.4092L131.356 52.3584L131.496 54.415C131.962 53.7887 132.554 53.2725 133.273 52.8662C134.001 52.4515 134.784 52.2441 135.622 52.2441C136.849 52.2441 137.801 52.5911 138.479 53.2852C139.156 53.9792 139.524 55.016 139.583 56.3955C139.608 56.9372 139.621 57.4915 139.621 58.0586V60.8896C139.621 61.5075 139.659 61.9561 139.735 62.2354C139.812 62.5146 139.93 62.7093 140.091 62.8193C140.26 62.9209 140.539 63.0309 140.929 63.1494L141.462 63.3145C141.47 63.3652 141.475 63.4583 141.475 63.5938L141.462 64H135.203C135.203 63.9492 135.199 63.8646 135.19 63.7461C135.182 63.6191 135.178 63.4922 135.178 63.3652C135.237 63.3398 135.406 63.2891 135.686 63.2129C136.134 63.0859 136.481 62.9505 136.727 62.8066C136.98 62.6628 137.133 62.43 137.184 62.1084C137.226 61.863 137.247 61.5371 137.247 61.1309V58.2998C137.247 57.1742 137.205 56.3066 137.12 55.6973C137.044 55.0879 136.832 54.5885 136.485 54.1992C136.147 53.8099 135.597 53.6152 134.835 53.6152C134.234 53.6152 133.654 53.7887 133.096 54.1357C132.546 54.4827 132 54.944 131.458 55.5195V61.1816ZM143.95 52.9424C144.356 52.7308 144.674 52.5488 144.902 52.3965C145.131 52.2357 145.321 52.0326 145.474 51.7871C145.634 51.5417 145.715 51.2412 145.715 50.8857C145.588 50.708 145.436 50.5641 145.258 50.4541C145.089 50.3441 144.877 50.2679 144.623 50.2256C144.183 50.1494 143.849 49.9886 143.62 49.7432C143.4 49.4977 143.29 49.1761 143.29 48.7783C143.29 48.3128 143.455 47.9235 143.785 47.6104C144.124 47.2972 144.551 47.1406 145.067 47.1406C145.516 47.1406 145.914 47.2507 146.261 47.4707C146.608 47.6908 146.874 47.9997 147.061 48.3975C147.255 48.7868 147.353 49.2354 147.353 49.7432C147.353 50.3695 147.213 50.9788 146.934 51.5713C146.663 52.1637 146.265 52.6758 145.74 53.1074C145.215 53.5306 144.602 53.8057 143.899 53.9326C143.654 53.721 143.502 53.4798 143.442 53.209L143.95 52.9424ZM153.37 60.0137C153.37 60.877 153.4 61.4948 153.459 61.8672C153.518 62.2311 153.662 62.4977 153.891 62.667C154.119 62.8278 154.504 62.9082 155.046 62.9082C155.368 62.9082 155.689 62.8786 156.011 62.8193C156.332 62.7601 156.603 62.6966 156.823 62.6289L156.925 63.5557C156.493 63.7673 156.057 63.9365 155.617 64.0635C155.177 64.1904 154.648 64.2539 154.03 64.2539C153.209 64.2539 152.583 64.1185 152.151 63.8477C151.72 63.5768 151.419 63.141 151.25 62.54C151.081 61.9307 150.996 61.0758 150.996 59.9756V53.5391H149.104V53.0947C149.68 52.8662 150.162 52.5996 150.552 52.2949C150.95 51.9818 151.275 51.6602 151.529 51.3301C151.783 51 152.088 50.5641 152.443 50.0225C152.596 49.777 152.714 49.6162 152.799 49.54C152.883 49.4554 152.968 49.4131 153.053 49.4131C153.137 49.4131 153.205 49.4554 153.256 49.54C153.315 49.6162 153.345 49.7389 153.345 49.9082V52.5869H156.531V53.5391H153.37V60.0137ZM168.376 61.1816C168.376 61.9095 168.558 62.4385 168.922 62.7686C169.294 63.0902 169.857 63.2891 170.61 63.3652C170.61 63.4922 170.606 63.6191 170.598 63.7461C170.589 63.873 170.585 63.9577 170.585 64H164.047L164.034 63.5938C164.034 63.4583 164.038 63.3652 164.047 63.3145C164.538 63.196 164.906 63.0902 165.151 62.9971C165.405 62.904 165.613 62.7516 165.773 62.54C165.934 62.3285 166.015 62.0322 166.015 61.6514V54.7705C165.913 54.5758 165.714 54.4023 165.418 54.25C165.122 54.0892 164.809 53.958 164.479 53.8564C164.157 53.7464 163.996 53.6956 163.996 53.7041L164.034 53.2725L167.5 52.4092L168.274 52.3584L168.414 54.415C168.88 53.7887 169.472 53.2725 170.191 52.8662C170.919 52.4515 171.702 52.2441 172.54 52.2441C173.767 52.2441 174.719 52.5911 175.396 53.2852C176.074 53.9792 176.442 55.016 176.501 56.3955C176.526 56.9372 176.539 57.4915 176.539 58.0586V60.8896C176.539 61.5075 176.577 61.9561 176.653 62.2354C176.729 62.5146 176.848 62.7093 177.009 62.8193C177.178 62.9209 177.457 63.0309 177.847 63.1494L178.38 63.3145C178.388 63.3652 178.393 63.4583 178.393 63.5938L178.38 64H172.121C172.121 63.9492 172.117 63.8646 172.108 63.7461C172.1 63.6191 172.096 63.4922 172.096 63.3652C172.155 63.3398 172.324 63.2891 172.604 63.2129C173.052 63.0859 173.399 62.9505 173.645 62.8066C173.898 62.6628 174.051 62.43 174.102 62.1084C174.144 61.863 174.165 61.5371 174.165 61.1309V58.2998C174.165 57.1742 174.123 56.3066 174.038 55.6973C173.962 55.0879 173.75 54.5885 173.403 54.1992C173.065 53.8099 172.515 53.6152 171.753 53.6152C171.152 53.6152 170.572 53.7887 170.014 54.1357C169.464 54.4827 168.918 54.944 168.376 55.5195V61.1816ZM182.011 57.3223C182.002 57.4069 181.998 57.5296 181.998 57.6904C181.998 58.7568 182.188 59.6497 182.569 60.3691C182.959 61.0801 183.475 61.609 184.118 61.9561C184.77 62.2946 185.498 62.4639 186.302 62.4639C187.368 62.4639 188.396 62.1592 189.387 61.5498L189.755 61.9053C189.552 62.3962 189.209 62.8193 188.727 63.1748C188.253 63.5303 187.711 63.8011 187.102 63.9873C186.501 64.165 185.917 64.2539 185.35 64.2539C184.283 64.2539 183.323 64.0042 182.468 63.5049C181.621 63.0055 180.957 62.3073 180.475 61.4102C180.001 60.513 179.764 59.4847 179.764 58.3252C179.764 57.1488 180.022 56.0993 180.538 55.1768C181.054 54.2458 181.74 53.5264 182.595 53.0186C183.458 52.5023 184.381 52.2441 185.362 52.2441C186.166 52.2441 186.89 52.4092 187.533 52.7393C188.185 53.0609 188.714 53.5179 189.12 54.1104C189.526 54.6943 189.785 55.3672 189.895 56.1289C189.988 56.5182 190.034 56.8779 190.034 57.208V57.3223H182.011ZM186.581 56.5098C186.953 56.4928 187.267 56.4251 187.521 56.3066C187.461 55.2995 187.224 54.5124 186.81 53.9453C186.403 53.3783 185.824 53.0947 185.07 53.0947C184.52 53.0947 184.029 53.2598 183.598 53.5898C183.174 53.9199 182.832 54.36 182.569 54.9102C182.307 55.4518 182.138 56.0485 182.062 56.7002L186.581 56.5098ZM194.249 57.3223C194.241 57.4069 194.236 57.5296 194.236 57.6904C194.236 58.7568 194.427 59.6497 194.808 60.3691C195.197 61.0801 195.713 61.609 196.356 61.9561C197.008 62.2946 197.736 62.4639 198.54 62.4639C199.606 62.4639 200.635 62.1592 201.625 61.5498L201.993 61.9053C201.79 62.3962 201.447 62.8193 200.965 63.1748C200.491 63.5303 199.949 63.8011 199.34 63.9873C198.739 64.165 198.155 64.2539 197.588 64.2539C196.521 64.2539 195.561 64.0042 194.706 63.5049C193.86 63.0055 193.195 62.3073 192.713 61.4102C192.239 60.513 192.002 59.4847 192.002 58.3252C192.002 57.1488 192.26 56.0993 192.776 55.1768C193.293 54.2458 193.978 53.5264 194.833 53.0186C195.696 52.5023 196.619 52.2441 197.601 52.2441C198.405 52.2441 199.128 52.4092 199.771 52.7393C200.423 53.0609 200.952 53.5179 201.358 54.1104C201.765 54.6943 202.023 55.3672 202.133 56.1289C202.226 56.5182 202.272 56.8779 202.272 57.208V57.3223H194.249ZM198.819 56.5098C199.192 56.4928 199.505 56.4251 199.759 56.3066C199.7 55.2995 199.463 54.5124 199.048 53.9453C198.642 53.3783 198.062 53.0947 197.309 53.0947C196.758 53.0947 196.268 53.2598 195.836 53.5898C195.413 53.9199 195.07 54.36 194.808 54.9102C194.545 55.4518 194.376 56.0485 194.3 56.7002L198.819 56.5098ZM213.635 49.083C213.525 48.9137 213.309 48.7445 212.987 48.5752C212.674 48.4059 212.365 48.262 212.061 48.1436C211.764 48.0251 211.57 47.9531 211.477 47.9277L211.502 47.4834L215.082 46.6201L215.996 46.5312V61.4736C215.996 61.9814 216.212 62.3454 216.644 62.5654C217.084 62.7855 217.553 62.8955 218.053 62.8955V63.5938L214.663 64.1523H213.812L213.698 62.1846C213.097 62.8786 212.467 63.3991 211.807 63.7461C211.146 64.0846 210.44 64.2539 209.687 64.2539C208.73 64.2539 207.854 64.0254 207.059 63.5684C206.271 63.1029 205.649 62.4554 205.192 61.626C204.735 60.7881 204.507 59.8275 204.507 58.7441C204.507 57.5 204.761 56.387 205.269 55.4053C205.785 54.4235 206.492 53.6576 207.389 53.1074C208.286 52.5573 209.289 52.2822 210.397 52.2822C210.914 52.2822 211.417 52.3626 211.908 52.5234C212.399 52.6758 212.975 52.9085 213.635 53.2217V49.083ZM213.635 57.5254C213.635 56.7044 213.563 56.0443 213.419 55.5449C213.275 55.0371 212.983 54.5885 212.543 54.1992C212.204 53.903 211.84 53.6745 211.451 53.5137C211.062 53.3444 210.668 53.2598 210.271 53.2598C209.602 53.2598 209.009 53.4756 208.493 53.9072C207.977 54.3389 207.575 54.9144 207.287 55.6338C207.008 56.3447 206.868 57.1149 206.868 57.9443C206.868 58.7484 207.008 59.5186 207.287 60.2549C207.575 60.9827 208.002 61.5794 208.569 62.0449C209.136 62.5104 209.822 62.7432 210.626 62.7432C211.269 62.7432 211.84 62.6035 212.34 62.3242C212.848 62.0365 213.279 61.6556 213.635 61.1816V57.5254ZM230.278 60.7119C230.278 61.2197 230.304 61.6302 230.354 61.9434C230.414 62.248 230.625 62.5527 230.989 62.8574C231.362 63.1536 231.963 63.3229 232.792 63.3652C232.792 63.6276 232.788 63.8392 232.779 64H225.657C225.64 63.6784 225.632 63.4668 225.632 63.3652C225.835 63.306 226.034 63.2552 226.229 63.2129C226.686 63.0944 227.02 62.9844 227.231 62.8828C227.443 62.7812 227.608 62.612 227.727 62.375C227.854 62.1296 227.917 61.7614 227.917 61.2705V53.5391H225.937L225.911 52.5869H226.787C227.1 52.5869 227.325 52.5742 227.46 52.5488C227.595 52.515 227.697 52.4346 227.765 52.3076C227.832 52.1807 227.866 51.9691 227.866 51.6729C227.9 50.0225 228.311 48.7572 229.098 47.877C229.885 46.9967 230.998 46.5566 232.437 46.5566C233.317 46.5566 234.049 46.7217 234.633 47.0518C235.217 47.3734 235.509 47.8177 235.509 48.3848C235.509 48.7148 235.403 48.9899 235.191 49.21C234.98 49.4215 234.688 49.5273 234.315 49.5273C234.011 49.5273 233.778 49.4385 233.617 49.2607C233.465 49.0745 233.308 48.7995 233.147 48.4355C232.987 48.0716 232.83 47.8008 232.678 47.623C232.534 47.4453 232.314 47.3564 232.018 47.3564C231.628 47.3564 231.307 47.4665 231.053 47.6865C230.807 47.9066 230.617 48.2874 230.481 48.8291C230.346 49.3623 230.278 50.0986 230.278 51.0381V52.5869H233.198L233.224 53.5391H230.278V60.7119ZM242.098 56.2686C242.098 55.6338 242.038 55.0964 241.92 54.6562C241.81 54.2161 241.581 53.8607 241.234 53.5898C240.896 53.319 240.409 53.1836 239.774 53.1836C239.554 53.1836 239.284 53.2301 238.962 53.3232C238.64 53.4163 238.357 53.5518 238.111 53.7295C237.874 53.8988 237.756 54.0977 237.756 54.3262C237.756 54.4193 237.773 54.5124 237.807 54.6055C237.84 54.6901 237.896 54.8001 237.972 54.9355C238.048 55.0625 238.103 55.1725 238.137 55.2656C238.171 55.3587 238.188 55.4561 238.188 55.5576C238.188 55.8962 238.077 56.1797 237.857 56.4082C237.646 56.6283 237.371 56.7383 237.032 56.7383C236.609 56.7383 236.271 56.5817 236.017 56.2686C235.771 55.9554 235.648 55.5788 235.648 55.1387C235.648 54.4785 235.907 53.9326 236.423 53.501C236.939 53.0693 237.561 52.752 238.289 52.5488C239.025 52.3457 239.711 52.2441 240.346 52.2441C241.539 52.2441 242.428 52.4219 243.012 52.7773C243.604 53.1243 243.993 53.6364 244.18 54.3135C244.374 54.9821 244.472 55.9215 244.472 57.1318L244.446 57.7666C244.438 57.9528 244.425 58.2617 244.408 58.6934C244.4 59.125 244.396 59.5228 244.396 59.8867C244.396 61.791 244.594 62.7432 244.992 62.7432C245.28 62.7432 245.652 62.4512 246.109 61.8672L246.643 62.4385C246.27 63.0479 245.902 63.5049 245.538 63.8096C245.174 64.1058 244.696 64.2539 244.104 64.2539C243.545 64.2539 243.084 64.0804 242.72 63.7334C242.364 63.3779 242.17 62.9209 242.136 62.3623C241.594 62.9548 240.985 63.4202 240.308 63.7588C239.639 64.0889 238.928 64.2539 238.175 64.2539C237.65 64.2539 237.163 64.1608 236.715 63.9746C236.275 63.7799 235.919 63.4922 235.648 63.1113C235.386 62.7305 235.255 62.2734 235.255 61.7402C235.255 60.9362 235.564 60.2676 236.182 59.7344C236.799 59.2012 237.51 58.7949 238.314 58.5156C239.118 58.2363 240.1 57.957 241.26 57.6777C241.361 57.6608 241.641 57.5931 242.098 57.4746V56.2686ZM242.098 58.2236C241.971 58.266 241.81 58.3167 241.615 58.376C240.887 58.613 240.265 58.8415 239.749 59.0615C239.233 59.2731 238.771 59.5609 238.365 59.9248C237.959 60.2887 237.756 60.7161 237.756 61.207C237.756 61.7064 237.891 62.0999 238.162 62.3877C238.441 62.6755 238.831 62.8193 239.33 62.8193C239.829 62.8193 240.312 62.6966 240.777 62.4512C241.243 62.1973 241.683 61.8672 242.098 61.4609V58.2236ZM255.745 55.9893C255.627 55.9977 255.428 56.002 255.148 56.002C254.903 55.1471 254.531 54.4489 254.031 53.9072C253.54 53.3656 252.91 53.0947 252.14 53.0947C251.606 53.0947 251.183 53.2259 250.87 53.4883C250.565 53.7507 250.413 54.1315 250.413 54.6309C250.413 54.9779 250.54 55.2995 250.794 55.5957C251.048 55.8919 251.357 56.1543 251.721 56.3828C252.093 56.6029 252.58 56.8652 253.181 57.1699C253.325 57.2376 253.54 57.3477 253.828 57.5C254.776 58.0078 255.466 58.5283 255.897 59.0615C256.338 59.5863 256.558 60.2295 256.558 60.9912C256.558 61.6937 256.384 62.2904 256.037 62.7812C255.69 63.2637 255.212 63.6318 254.603 63.8857C253.993 64.1312 253.295 64.2539 252.508 64.2539C251.814 64.2539 251.111 64.1693 250.4 64C249.689 63.8392 249.105 63.6191 248.648 63.3398V60.2422C248.979 60.1999 249.203 60.1787 249.321 60.1787C249.516 61.1182 249.859 61.8841 250.35 62.4766C250.849 63.069 251.53 63.3652 252.394 63.3652C253.011 63.3652 253.523 63.2129 253.93 62.9082C254.344 62.5951 254.552 62.1846 254.552 61.6768C254.552 61.3551 254.459 61.0716 254.272 60.8262C254.086 60.5807 253.845 60.3649 253.549 60.1787C253.253 59.9925 252.808 59.7428 252.216 59.4297C251.42 59.0065 250.815 58.6637 250.4 58.4014C249.757 58.0036 249.271 57.5592 248.94 57.0684C248.619 56.5775 248.458 55.9935 248.458 55.3164C248.458 54.6647 248.623 54.1104 248.953 53.6533C249.283 53.1878 249.732 52.8366 250.299 52.5996C250.866 52.3626 251.505 52.2441 252.216 52.2441C252.868 52.2441 253.485 52.3245 254.069 52.4854C254.662 52.6462 255.195 52.8747 255.669 53.1709L255.745 55.9893ZM271.005 61.1943C271.005 61.846 271.17 62.3581 271.5 62.7305C271.839 63.0944 272.317 63.306 272.935 63.3652C272.935 63.4922 272.93 63.6191 272.922 63.7461C272.913 63.8646 272.909 63.9492 272.909 64H266.663C266.663 63.9492 266.659 63.8646 266.65 63.7461C266.642 63.6191 266.638 63.4922 266.638 63.3652C266.782 63.2975 267.061 63.2002 267.476 63.0732C267.797 62.9717 268.03 62.8786 268.174 62.7939C268.326 62.7008 268.44 62.54 268.517 62.3115C268.601 62.083 268.644 61.7402 268.644 61.2832V56.6748C268.644 55.7438 268.445 55.0033 268.047 54.4531C267.658 53.8945 267.044 53.6152 266.206 53.6152C265.605 53.6152 265.021 53.776 264.454 54.0977C263.896 54.4108 263.379 54.8171 262.905 55.3164V61.042C262.905 61.8037 263.079 62.3623 263.426 62.7178C263.773 63.0732 264.34 63.2891 265.127 63.3652L265.114 64H258.348C258.348 63.9492 258.343 63.8646 258.335 63.7461C258.326 63.6191 258.322 63.4922 258.322 63.3652C259.803 63.2467 260.544 62.4723 260.544 61.042V49.2227C260.459 49.0957 260.273 48.9434 259.985 48.7656C259.698 48.5794 259.393 48.4144 259.071 48.2705C258.758 48.1266 258.525 48.0462 258.373 48.0293V47.585L262.004 46.6201L262.905 46.5312V54.25C263.574 53.5814 264.23 53.082 264.873 52.752C265.516 52.4134 266.261 52.2441 267.107 52.2441C268.284 52.2441 269.228 52.6208 269.938 53.374C270.649 54.1188 271.005 55.2572 271.005 56.7891V61.1943ZM276.997 46.5312C277.403 46.5312 277.75 46.6751 278.038 46.9629C278.326 47.2507 278.47 47.5977 278.47 48.0039C278.47 48.4186 278.326 48.7699 278.038 49.0576C277.75 49.3369 277.403 49.4766 276.997 49.4766C276.582 49.4766 276.231 49.3369 275.943 49.0576C275.664 48.7699 275.524 48.4186 275.524 48.0039C275.524 47.5977 275.664 47.2507 275.943 46.9629C276.231 46.6751 276.582 46.5312 276.997 46.5312ZM275.981 54.7705C275.871 54.5758 275.664 54.4023 275.359 54.25C275.063 54.0892 274.754 53.958 274.433 53.8564C274.119 53.7464 273.963 53.6956 273.963 53.7041L273.988 53.2598L277.556 52.3965L278.343 52.3457V61.207C278.343 61.5033 278.372 61.7826 278.432 62.0449C278.499 62.3073 278.694 62.5739 279.016 62.8447C279.346 63.1156 279.862 63.2891 280.564 63.3652C280.564 63.6445 280.56 63.8561 280.552 64H273.925C273.908 63.8477 273.899 63.6361 273.899 63.3652L274.255 63.2637C274.627 63.1621 274.928 63.0605 275.156 62.959C275.385 62.8574 275.579 62.7093 275.74 62.5146C275.901 62.3115 275.981 62.0407 275.981 61.7021V54.7705ZM287.788 52.2441C288.914 52.2441 289.938 52.4896 290.86 52.9805C291.791 53.4629 292.528 54.1569 293.069 55.0625C293.611 55.9596 293.882 57.0049 293.882 58.1982C293.882 59.3916 293.611 60.4495 293.069 61.3721C292.528 62.2861 291.804 62.9971 290.898 63.5049C289.993 64.0042 289.003 64.2539 287.928 64.2539C286.861 64.2539 285.863 63.9958 284.932 63.4795C284.001 62.9632 283.256 62.248 282.697 61.334C282.139 60.4115 281.859 59.3704 281.859 58.2109C281.859 57.0514 282.13 56.0189 282.672 55.1133C283.214 54.1992 283.937 53.4925 284.843 52.9932C285.757 52.4938 286.739 52.2441 287.788 52.2441ZM288.093 63.2637C289.168 63.2637 289.984 62.8786 290.543 62.1084C291.102 61.3382 291.381 60.3268 291.381 59.0742C291.381 57.9909 291.229 56.9964 290.924 56.0908C290.628 55.1768 290.2 54.4489 289.642 53.9072C289.083 53.3656 288.44 53.0947 287.712 53.0947C287.069 53.0947 286.497 53.2513 285.998 53.5645C285.507 53.8776 285.118 54.36 284.83 55.0117C284.542 55.6634 284.398 56.4801 284.398 57.4619C284.398 58.4268 284.551 59.3577 284.855 60.2549C285.16 61.1436 285.592 61.8672 286.15 62.4258C286.709 62.9844 287.356 63.2637 288.093 63.2637ZM299.823 61.1816C299.823 61.9095 300.005 62.4385 300.369 62.7686C300.742 63.0902 301.304 63.2891 302.058 63.3652C302.058 63.4922 302.053 63.6191 302.045 63.7461C302.036 63.873 302.032 63.9577 302.032 64H295.494L295.481 63.5938C295.481 63.4583 295.486 63.3652 295.494 63.3145C295.985 63.196 296.353 63.0902 296.599 62.9971C296.853 62.904 297.06 62.7516 297.221 62.54C297.382 62.3285 297.462 62.0322 297.462 61.6514V54.7705C297.36 54.5758 297.161 54.4023 296.865 54.25C296.569 54.0892 296.256 53.958 295.926 53.8564C295.604 53.7464 295.443 53.6956 295.443 53.7041L295.481 53.2725L298.947 52.4092L299.722 52.3584L299.861 54.415C300.327 53.7887 300.919 53.2725 301.639 52.8662C302.367 52.4515 303.149 52.2441 303.987 52.2441C305.215 52.2441 306.167 52.5911 306.844 53.2852C307.521 53.9792 307.889 55.016 307.948 56.3955C307.974 56.9372 307.986 57.4915 307.986 58.0586V60.8896C307.986 61.5075 308.024 61.9561 308.101 62.2354C308.177 62.5146 308.295 62.7093 308.456 62.8193C308.625 62.9209 308.905 63.0309 309.294 63.1494L309.827 63.3145C309.836 63.3652 309.84 63.4583 309.84 63.5938L309.827 64H303.568C303.568 63.9492 303.564 63.8646 303.556 63.7461C303.547 63.6191 303.543 63.4922 303.543 63.3652C303.602 63.3398 303.771 63.2891 304.051 63.2129C304.499 63.0859 304.846 62.9505 305.092 62.8066C305.346 62.6628 305.498 62.43 305.549 62.1084C305.591 61.863 305.612 61.5371 305.612 61.1309V58.2998C305.612 57.1742 305.57 56.3066 305.485 55.6973C305.409 55.0879 305.198 54.5885 304.851 54.1992C304.512 53.8099 303.962 53.6152 303.2 53.6152C302.599 53.6152 302.02 53.7887 301.461 54.1357C300.911 54.4827 300.365 54.944 299.823 55.5195V61.1816ZM320.923 60.0137C320.923 60.877 320.952 61.4948 321.012 61.8672C321.071 62.2311 321.215 62.4977 321.443 62.667C321.672 62.8278 322.057 62.9082 322.599 62.9082C322.92 62.9082 323.242 62.8786 323.563 62.8193C323.885 62.7601 324.156 62.6966 324.376 62.6289L324.478 63.5557C324.046 63.7673 323.61 63.9365 323.17 64.0635C322.73 64.1904 322.201 64.2539 321.583 64.2539C320.762 64.2539 320.136 64.1185 319.704 63.8477C319.272 63.5768 318.972 63.141 318.803 62.54C318.633 61.9307 318.549 61.0758 318.549 59.9756V53.5391H316.657V53.0947C317.233 52.8662 317.715 52.5996 318.104 52.2949C318.502 51.9818 318.828 51.6602 319.082 51.3301C319.336 51 319.641 50.5641 319.996 50.0225C320.148 49.777 320.267 49.6162 320.352 49.54C320.436 49.4554 320.521 49.4131 320.605 49.4131C320.69 49.4131 320.758 49.4554 320.809 49.54C320.868 49.6162 320.897 49.7389 320.897 49.9082V52.5869H324.084V53.5391H320.923V60.0137ZM331.917 52.2441C333.043 52.2441 334.067 52.4896 334.989 52.9805C335.92 53.4629 336.657 54.1569 337.198 55.0625C337.74 55.9596 338.011 57.0049 338.011 58.1982C338.011 59.3916 337.74 60.4495 337.198 61.3721C336.657 62.2861 335.933 62.9971 335.027 63.5049C334.122 64.0042 333.132 64.2539 332.057 64.2539C330.99 64.2539 329.992 63.9958 329.061 63.4795C328.13 62.9632 327.385 62.248 326.826 61.334C326.268 60.4115 325.988 59.3704 325.988 58.2109C325.988 57.0514 326.259 56.0189 326.801 55.1133C327.342 54.1992 328.066 53.4925 328.972 52.9932C329.886 52.4938 330.868 52.2441 331.917 52.2441ZM332.222 63.2637C333.297 63.2637 334.113 62.8786 334.672 62.1084C335.23 61.3382 335.51 60.3268 335.51 59.0742C335.51 57.9909 335.357 56.9964 335.053 56.0908C334.757 55.1768 334.329 54.4489 333.771 53.9072C333.212 53.3656 332.569 53.0947 331.841 53.0947C331.198 53.0947 330.626 53.2513 330.127 53.5645C329.636 53.8776 329.247 54.36 328.959 55.0117C328.671 55.6634 328.527 56.4801 328.527 57.4619C328.527 58.4268 328.68 59.3577 328.984 60.2549C329.289 61.1436 329.721 61.8672 330.279 62.4258C330.838 62.9844 331.485 63.2637 332.222 63.2637ZM52.7725 88.9893C52.654 88.9977 52.4551 89.002 52.1758 89.002C51.9303 88.1471 51.5579 87.4489 51.0586 86.9072C50.5677 86.3656 49.9372 86.0947 49.167 86.0947C48.6338 86.0947 48.2106 86.2259 47.8975 86.4883C47.5928 86.7507 47.4404 87.1315 47.4404 87.6309C47.4404 87.9779 47.5674 88.2995 47.8213 88.5957C48.0752 88.8919 48.3841 89.1543 48.748 89.3828C49.1204 89.6029 49.6071 89.8652 50.208 90.1699C50.3519 90.2376 50.5677 90.3477 50.8555 90.5C51.8034 91.0078 52.4932 91.5283 52.9248 92.0615C53.3649 92.5863 53.585 93.2295 53.585 93.9912C53.585 94.6937 53.4115 95.2904 53.0645 95.7812C52.7174 96.2637 52.2393 96.6318 51.6299 96.8857C51.0205 97.1312 50.3223 97.2539 49.5352 97.2539C48.8411 97.2539 48.1387 97.1693 47.4277 97C46.7168 96.8392 46.1328 96.6191 45.6758 96.3398V93.2422C46.0059 93.1999 46.2301 93.1787 46.3486 93.1787C46.5433 94.1182 46.8861 94.8841 47.377 95.4766C47.8763 96.069 48.5576 96.3652 49.4209 96.3652C50.0387 96.3652 50.5508 96.2129 50.957 95.9082C51.3717 95.5951 51.5791 95.1846 51.5791 94.6768C51.5791 94.3551 51.486 94.0716 51.2998 93.8262C51.1136 93.5807 50.8724 93.3649 50.5762 93.1787C50.2799 92.9925 49.8356 92.7428 49.2432 92.4297C48.4476 92.0065 47.8424 91.6637 47.4277 91.4014C46.7845 91.0036 46.2979 90.5592 45.9678 90.0684C45.6462 89.5775 45.4854 88.9935 45.4854 88.3164C45.4854 87.6647 45.6504 87.1104 45.9805 86.6533C46.3105 86.1878 46.7591 85.8366 47.3262 85.5996C47.8932 85.3626 48.5322 85.2441 49.2432 85.2441C49.8949 85.2441 50.5127 85.3245 51.0967 85.4854C51.6891 85.6462 52.2223 85.8747 52.6963 86.1709L52.7725 88.9893ZM61.0625 97.2539C60.0384 97.2539 59.2471 97 58.6885 96.4922C58.1383 95.9759 57.766 95.3073 57.5713 94.4863C57.3766 93.6654 57.2793 92.6878 57.2793 91.5537V87.7705C57.1693 87.5758 56.9619 87.4023 56.6572 87.25C56.361 87.0892 56.0521 86.958 55.7305 86.8564C55.4173 86.7464 55.2607 86.6956 55.2607 86.7041L55.2861 86.2598L58.8535 85.3965L59.6406 85.3457V91.4141C59.6406 92.4974 59.7083 93.3522 59.8438 93.9785C59.9792 94.5964 60.2077 95.0492 60.5293 95.3369C60.8509 95.6162 61.2995 95.7559 61.875 95.7559C63.0514 95.7559 64.1602 95.2396 65.2012 94.207V87.7705C65.0911 87.5758 64.8838 87.4023 64.5791 87.25C64.2829 87.0892 63.974 86.958 63.6523 86.8564C63.3392 86.7464 63.1826 86.6956 63.1826 86.7041L63.208 86.2598L66.7754 85.3965L67.5625 85.3457V94.4482C67.5625 94.8037 67.6514 95.0788 67.8291 95.2734C68.0068 95.4596 68.2269 95.5951 68.4893 95.6797C68.7516 95.7643 69.1113 95.8447 69.5684 95.9209C69.5684 96.0479 69.5599 96.179 69.543 96.3145C69.5345 96.4499 69.5303 96.543 69.5303 96.5938L65.3662 97.1904L65.2646 95.1592C64.012 96.5557 62.6113 97.2539 61.0625 97.2539ZM74.8496 94.0674C74.8496 94.4652 74.8919 94.8206 74.9766 95.1338C75.0697 95.4385 75.2855 95.7093 75.624 95.9463C75.9626 96.1833 76.4704 96.3229 77.1475 96.3652L77.1348 97H70.5205C70.5205 96.9323 70.5163 96.8223 70.5078 96.6699C70.5078 96.5176 70.512 96.3991 70.5205 96.3145L70.9395 96.2002C71.388 96.0817 71.7096 95.9717 71.9043 95.8701C72.099 95.7686 72.2428 95.5908 72.3359 95.3369C72.4375 95.0745 72.4883 94.6768 72.4883 94.1436V87.7578C72.3783 87.5716 72.1751 87.4023 71.8789 87.25C71.5827 87.0892 71.2738 86.958 70.9521 86.8564C70.639 86.7549 70.4824 86.7083 70.4824 86.7168L70.5078 86.2725L73.8848 85.3711H74.6084L74.8115 87.707C75.2855 86.8353 75.7764 86.2174 76.2842 85.8535C76.8005 85.4896 77.3887 85.3076 78.0488 85.3076C78.3874 85.3076 78.6921 85.3796 78.9629 85.5234C79.2422 85.6589 79.458 85.8366 79.6104 86.0566C79.7712 86.2682 79.8516 86.484 79.8516 86.7041C79.8516 86.848 79.8092 87.0426 79.7246 87.2881C79.6484 87.5335 79.5257 87.7493 79.3564 87.9355C79.1956 88.1217 78.9967 88.2148 78.7598 88.2148C78.4889 88.2148 78.2773 88.1556 78.125 88.0371C77.9727 87.9102 77.8161 87.724 77.6553 87.4785C77.5368 87.2923 77.4225 87.1527 77.3125 87.0596C77.2109 86.9665 77.0798 86.9199 76.9189 86.9199C76.6481 86.9199 76.4027 87.0003 76.1826 87.1611C75.971 87.3135 75.7848 87.5039 75.624 87.7324C75.4632 87.9609 75.2686 88.2656 75.04 88.6465L74.8496 88.9639V94.0674ZM86.4785 97.1523C86.377 97.2031 86.25 97.2285 86.0977 97.2285C85.9368 97.2285 85.8099 97.2031 85.7168 97.1523L81.832 87.8086C81.6882 87.4531 81.557 87.1908 81.4385 87.0215C81.32 86.8438 81.2057 86.721 81.0957 86.6533C80.9857 86.5856 80.8291 86.5221 80.626 86.4629C80.4144 86.3952 80.2197 86.3232 80.042 86.2471V85.5869H85.7549C85.7549 85.6546 85.7633 85.7562 85.7803 85.8916C85.8057 86.027 85.8184 86.154 85.8184 86.2725C85.2682 86.4248 84.8577 86.5729 84.5869 86.7168C84.3161 86.8607 84.1807 87.0723 84.1807 87.3516C84.1807 87.4362 84.2018 87.5505 84.2441 87.6943L86.834 94.0801L89.0176 88.7607C89.2546 88.1768 89.373 87.7282 89.373 87.415C89.3477 87.1188 89.2038 86.8945 88.9414 86.7422C88.6875 86.5814 88.2812 86.4333 87.7227 86.2979C87.7142 86.2471 87.71 86.1497 87.71 86.0059C87.71 85.9043 87.71 85.8154 87.71 85.7393C87.7184 85.6631 87.7227 85.6123 87.7227 85.5869H92.4453C92.4622 85.7308 92.4707 85.9466 92.4707 86.2344C92.3099 86.3275 92.1533 86.4036 92.001 86.4629C91.7555 86.5729 91.5524 86.6787 91.3916 86.7803C91.2393 86.8734 91.0742 87.0215 90.8965 87.2246C90.7272 87.4277 90.5664 87.6986 90.4141 88.0371L86.4785 97.1523ZM96.5967 79.5312C97.0029 79.5312 97.3499 79.6751 97.6377 79.9629C97.9255 80.2507 98.0693 80.5977 98.0693 81.0039C98.0693 81.4186 97.9255 81.7699 97.6377 82.0576C97.3499 82.3369 97.0029 82.4766 96.5967 82.4766C96.182 82.4766 95.8307 82.3369 95.543 82.0576C95.2637 81.7699 95.124 81.4186 95.124 81.0039C95.124 80.5977 95.2637 80.2507 95.543 79.9629C95.8307 79.6751 96.182 79.5312 96.5967 79.5312ZM95.5811 87.7705C95.471 87.5758 95.2637 87.4023 94.959 87.25C94.6628 87.0892 94.3538 86.958 94.0322 86.8564C93.7191 86.7464 93.5625 86.6956 93.5625 86.7041L93.5879 86.2598L97.1553 85.3965L97.9424 85.3457V94.207C97.9424 94.5033 97.972 94.7826 98.0312 95.0449C98.099 95.3073 98.2936 95.5739 98.6152 95.8447C98.9453 96.1156 99.4616 96.2891 100.164 96.3652C100.164 96.6445 100.16 96.8561 100.151 97H93.5244C93.5075 96.8477 93.499 96.6361 93.499 96.3652L93.8545 96.2637C94.2269 96.1621 94.5273 96.0605 94.7559 95.959C94.9844 95.8574 95.179 95.7093 95.3398 95.5146C95.5007 95.3115 95.5811 95.0407 95.5811 94.7021V87.7705ZM106.562 97.1523C106.461 97.2031 106.334 97.2285 106.182 97.2285C106.021 97.2285 105.894 97.2031 105.801 97.1523L101.916 87.8086C101.772 87.4531 101.641 87.1908 101.522 87.0215C101.404 86.8438 101.29 86.721 101.18 86.6533C101.07 86.5856 100.913 86.5221 100.71 86.4629C100.498 86.3952 100.304 86.3232 100.126 86.2471V85.5869H105.839C105.839 85.6546 105.847 85.7562 105.864 85.8916C105.89 86.027 105.902 86.154 105.902 86.2725C105.352 86.4248 104.942 86.5729 104.671 86.7168C104.4 86.8607 104.265 87.0723 104.265 87.3516C104.265 87.4362 104.286 87.5505 104.328 87.6943L106.918 94.0801L109.102 88.7607C109.339 88.1768 109.457 87.7282 109.457 87.415C109.432 87.1188 109.288 86.8945 109.025 86.7422C108.771 86.5814 108.365 86.4333 107.807 86.2979C107.798 86.2471 107.794 86.1497 107.794 86.0059C107.794 85.9043 107.794 85.8154 107.794 85.7393C107.802 85.6631 107.807 85.6123 107.807 85.5869H112.529C112.546 85.7308 112.555 85.9466 112.555 86.2344C112.394 86.3275 112.237 86.4036 112.085 86.4629C111.84 86.5729 111.636 86.6787 111.476 86.7803C111.323 86.8734 111.158 87.0215 110.98 87.2246C110.811 87.4277 110.65 87.6986 110.498 88.0371L106.562 97.1523ZM115.767 90.3223C115.758 90.4069 115.754 90.5296 115.754 90.6904C115.754 91.7568 115.944 92.6497 116.325 93.3691C116.715 94.0801 117.231 94.609 117.874 94.9561C118.526 95.2946 119.254 95.4639 120.058 95.4639C121.124 95.4639 122.152 95.1592 123.143 94.5498L123.511 94.9053C123.308 95.3962 122.965 95.8193 122.482 96.1748C122.008 96.5303 121.467 96.8011 120.857 96.9873C120.257 97.165 119.673 97.2539 119.105 97.2539C118.039 97.2539 117.078 97.0042 116.224 96.5049C115.377 96.0055 114.713 95.3073 114.23 94.4102C113.757 93.513 113.52 92.4847 113.52 91.3252C113.52 90.1488 113.778 89.0993 114.294 88.1768C114.81 87.2458 115.496 86.5264 116.351 86.0186C117.214 85.5023 118.136 85.2441 119.118 85.2441C119.922 85.2441 120.646 85.4092 121.289 85.7393C121.941 86.0609 122.47 86.5179 122.876 87.1104C123.282 87.6943 123.54 88.3672 123.65 89.1289C123.743 89.5182 123.79 89.8779 123.79 90.208V90.3223H115.767ZM120.337 89.5098C120.709 89.4928 121.022 89.4251 121.276 89.3066C121.217 88.2995 120.98 87.5124 120.565 86.9453C120.159 86.3783 119.579 86.0947 118.826 86.0947C118.276 86.0947 117.785 86.2598 117.354 86.5898C116.93 86.9199 116.588 87.36 116.325 87.9102C116.063 88.4518 115.894 89.0485 115.817 89.7002L120.337 89.5098ZM125.961 99.6406C126.054 99.6068 126.194 99.5645 126.38 99.5137C126.922 99.3444 127.345 99.1878 127.649 99.0439C127.954 98.9001 128.212 98.6885 128.424 98.4092C128.644 98.1299 128.754 97.7575 128.754 97.292C128.635 97.0042 128.47 96.7799 128.259 96.6191C128.056 96.4583 127.789 96.3483 127.459 96.2891C127.061 96.2298 126.752 96.069 126.532 95.8066C126.321 95.5358 126.215 95.1973 126.215 94.791C126.215 94.2917 126.376 93.877 126.697 93.5469C127.027 93.2168 127.459 93.0518 127.992 93.0518C128.449 93.0518 128.864 93.1829 129.236 93.4453C129.609 93.7077 129.901 94.097 130.112 94.6133C130.332 95.1211 130.442 95.7262 130.442 96.4287C130.442 97.2666 130.248 97.9818 129.858 98.5742C129.478 99.1667 128.965 99.6152 128.322 99.9199C127.679 100.225 126.968 100.385 126.189 100.402C126.113 100.284 126.054 100.165 126.012 100.047C125.978 99.9368 125.961 99.8014 125.961 99.6406ZM144.103 93.915L146.426 88.2656C146.265 87.6901 146.007 87.2077 145.651 86.8184C145.296 86.429 144.843 86.2217 144.293 86.1963L144.318 85.5869H149.93C149.947 85.8747 149.955 86.0778 149.955 86.1963C149.845 86.2471 149.672 86.3148 149.435 86.3994C149.113 86.5094 148.876 86.6195 148.724 86.7295C148.571 86.8395 148.495 87.013 148.495 87.25C148.495 87.4277 148.571 87.724 148.724 88.1387L150.793 93.8135L152.773 88.4688C152.934 88.054 153.015 87.707 153.015 87.4277C153.015 87.1738 152.977 86.9834 152.9 86.8564C152.824 86.721 152.718 86.6237 152.583 86.5645C152.448 86.5052 152.236 86.4375 151.948 86.3613L151.479 86.2344C151.462 86.1159 151.453 86.0143 151.453 85.9297C151.453 85.8535 151.462 85.7393 151.479 85.5869H155.935V86.2598C155.698 86.2936 155.435 86.3994 155.147 86.5771C154.868 86.7549 154.614 86.9707 154.386 87.2246C154.166 87.4701 154.013 87.707 153.929 87.9355L150.501 97.1777C150.416 97.2285 150.289 97.2539 150.12 97.2539C149.959 97.2539 149.828 97.2285 149.727 97.1777L146.845 89.4336L143.785 97.1777C143.684 97.2285 143.552 97.2539 143.392 97.2539C143.214 97.2539 143.078 97.2285 142.985 97.1777L139.443 88.126C139.283 87.7113 139.139 87.3896 139.012 87.1611C138.885 86.9326 138.715 86.738 138.504 86.5771C138.301 86.4079 138.03 86.2852 137.691 86.209L137.717 85.5869H142.947C142.956 85.7308 142.96 85.9339 142.96 86.1963C142.554 86.3317 142.236 86.484 142.008 86.6533C141.788 86.8226 141.678 87.0638 141.678 87.377C141.678 87.5208 141.699 87.6562 141.741 87.7832C141.741 87.8171 141.745 87.8467 141.754 87.8721L144.103 93.915ZM158.905 90.3223C158.897 90.4069 158.893 90.5296 158.893 90.6904C158.893 91.7568 159.083 92.6497 159.464 93.3691C159.853 94.0801 160.369 94.609 161.013 94.9561C161.664 95.2946 162.392 95.4639 163.196 95.4639C164.263 95.4639 165.291 95.1592 166.281 94.5498L166.649 94.9053C166.446 95.3962 166.104 95.8193 165.621 96.1748C165.147 96.5303 164.605 96.8011 163.996 96.9873C163.395 97.165 162.811 97.2539 162.244 97.2539C161.178 97.2539 160.217 97.0042 159.362 96.5049C158.516 96.0055 157.852 95.3073 157.369 94.4102C156.895 93.513 156.658 92.4847 156.658 91.3252C156.658 90.1488 156.916 89.0993 157.433 88.1768C157.949 87.2458 158.634 86.5264 159.489 86.0186C160.353 85.5023 161.275 85.2441 162.257 85.2441C163.061 85.2441 163.785 85.4092 164.428 85.7393C165.079 86.0609 165.608 86.5179 166.015 87.1104C166.421 87.6943 166.679 88.3672 166.789 89.1289C166.882 89.5182 166.929 89.8779 166.929 90.208V90.3223H158.905ZM163.476 89.5098C163.848 89.4928 164.161 89.4251 164.415 89.3066C164.356 88.2995 164.119 87.5124 163.704 86.9453C163.298 86.3783 162.718 86.0947 161.965 86.0947C161.415 86.0947 160.924 86.2598 160.492 86.5898C160.069 86.9199 159.726 87.36 159.464 87.9102C159.201 88.4518 159.032 89.0485 158.956 89.7002L163.476 89.5098ZM177.504 79.5312C177.919 79.5312 178.266 79.6751 178.545 79.9629C178.833 80.2507 178.977 80.5977 178.977 81.0039C178.977 81.4186 178.833 81.7699 178.545 82.0576C178.266 82.3369 177.919 82.4766 177.504 82.4766C177.098 82.4766 176.751 82.3369 176.463 82.0576C176.184 81.7699 176.044 81.4186 176.044 81.0039C176.044 80.5977 176.184 80.2507 176.463 79.9629C176.751 79.6751 177.098 79.5312 177.504 79.5312ZM176.501 87.7578C176.391 87.5716 176.188 87.3981 175.892 87.2373C175.595 87.0765 175.295 86.9495 174.99 86.8564C174.694 86.7549 174.512 86.7041 174.444 86.7041V86.2598L177.999 85.4092L178.862 85.3457V95.4131C178.862 97.2074 178.465 98.5277 177.669 99.374C176.882 100.229 175.701 100.741 174.127 100.91L173.937 100.174C174.673 99.8438 175.202 99.5348 175.523 99.2471C175.854 98.9593 176.086 98.5742 176.222 98.0918C176.357 97.6094 176.45 96.873 176.501 95.8828V87.7578ZM187.203 97.2539C186.179 97.2539 185.388 97 184.829 96.4922C184.279 95.9759 183.907 95.3073 183.712 94.4863C183.517 93.6654 183.42 92.6878 183.42 91.5537V87.7705C183.31 87.5758 183.103 87.4023 182.798 87.25C182.502 87.0892 182.193 86.958 181.871 86.8564C181.558 86.7464 181.401 86.6956 181.401 86.7041L181.427 86.2598L184.994 85.3965L185.781 85.3457V91.4141C185.781 92.4974 185.849 93.3522 185.984 93.9785C186.12 94.5964 186.348 95.0492 186.67 95.3369C186.992 95.6162 187.44 95.7559 188.016 95.7559C189.192 95.7559 190.301 95.2396 191.342 94.207V87.7705C191.232 87.5758 191.024 87.4023 190.72 87.25C190.424 87.0892 190.115 86.958 189.793 86.8564C189.48 86.7464 189.323 86.6956 189.323 86.7041L189.349 86.2598L192.916 85.3965L193.703 85.3457V94.4482C193.703 94.8037 193.792 95.0788 193.97 95.2734C194.147 95.4596 194.368 95.5951 194.63 95.6797C194.892 95.7643 195.252 95.8447 195.709 95.9209C195.709 96.0479 195.701 96.179 195.684 96.3145C195.675 96.4499 195.671 96.543 195.671 96.5938L191.507 97.1904L191.405 95.1592C190.153 96.5557 188.752 97.2539 187.203 97.2539ZM204.888 88.9893C204.769 88.9977 204.57 89.002 204.291 89.002C204.046 88.1471 203.673 87.4489 203.174 86.9072C202.683 86.3656 202.052 86.0947 201.282 86.0947C200.749 86.0947 200.326 86.2259 200.013 86.4883C199.708 86.7507 199.556 87.1315 199.556 87.6309C199.556 87.9779 199.683 88.2995 199.937 88.5957C200.19 88.8919 200.499 89.1543 200.863 89.3828C201.236 89.6029 201.722 89.8652 202.323 90.1699C202.467 90.2376 202.683 90.3477 202.971 90.5C203.919 91.0078 204.608 91.5283 205.04 92.0615C205.48 92.5863 205.7 93.2295 205.7 93.9912C205.7 94.6937 205.527 95.2904 205.18 95.7812C204.833 96.2637 204.354 96.6318 203.745 96.8857C203.136 97.1312 202.438 97.2539 201.65 97.2539C200.956 97.2539 200.254 97.1693 199.543 97C198.832 96.8392 198.248 96.6191 197.791 96.3398V93.2422C198.121 93.1999 198.345 93.1787 198.464 93.1787C198.659 94.1182 199.001 94.8841 199.492 95.4766C199.992 96.069 200.673 96.3652 201.536 96.3652C202.154 96.3652 202.666 96.2129 203.072 95.9082C203.487 95.5951 203.694 95.1846 203.694 94.6768C203.694 94.3551 203.601 94.0716 203.415 93.8262C203.229 93.5807 202.988 93.3649 202.691 93.1787C202.395 92.9925 201.951 92.7428 201.358 92.4297C200.563 92.0065 199.958 91.6637 199.543 91.4014C198.9 91.0036 198.413 90.5592 198.083 90.0684C197.761 89.5775 197.601 88.9935 197.601 88.3164C197.601 87.6647 197.766 87.1104 198.096 86.6533C198.426 86.1878 198.874 85.8366 199.441 85.5996C200.008 85.3626 200.647 85.2441 201.358 85.2441C202.01 85.2441 202.628 85.3245 203.212 85.4854C203.804 85.6462 204.338 85.8747 204.812 86.1709L204.888 88.9893ZM211.616 93.0137C211.616 93.877 211.646 94.4948 211.705 94.8672C211.764 95.2311 211.908 95.4977 212.137 95.667C212.365 95.8278 212.75 95.9082 213.292 95.9082C213.614 95.9082 213.935 95.8786 214.257 95.8193C214.578 95.7601 214.849 95.6966 215.069 95.6289L215.171 96.5557C214.739 96.7673 214.303 96.9365 213.863 97.0635C213.423 97.1904 212.894 97.2539 212.276 97.2539C211.455 97.2539 210.829 97.1185 210.397 96.8477C209.966 96.5768 209.665 96.141 209.496 95.54C209.327 94.9307 209.242 94.0758 209.242 92.9756V86.5391H207.351V86.0947C207.926 85.8662 208.409 85.5996 208.798 85.2949C209.196 84.9818 209.521 84.6602 209.775 84.3301C210.029 84 210.334 83.5641 210.689 83.0225C210.842 82.777 210.96 82.6162 211.045 82.54C211.13 82.4554 211.214 82.4131 211.299 82.4131C211.383 82.4131 211.451 82.4554 211.502 82.54C211.561 82.6162 211.591 82.7389 211.591 82.9082V85.5869H214.777V86.5391H211.616V93.0137ZM232.17 82.083C232.06 81.9137 231.844 81.7445 231.522 81.5752C231.209 81.4059 230.9 81.262 230.596 81.1436C230.299 81.0251 230.105 80.9531 230.012 80.9277L230.037 80.4834L233.617 79.6201L234.531 79.5312V94.4736C234.531 94.9814 234.747 95.3454 235.179 95.5654C235.619 95.7855 236.089 95.8955 236.588 95.8955V96.5938L233.198 97.1523H232.348L232.233 95.1846C231.632 95.8786 231.002 96.3991 230.342 96.7461C229.682 97.0846 228.975 97.2539 228.222 97.2539C227.265 97.2539 226.389 97.0254 225.594 96.5684C224.807 96.1029 224.185 95.4554 223.728 94.626C223.271 93.7881 223.042 92.8275 223.042 91.7441C223.042 90.5 223.296 89.387 223.804 88.4053C224.32 87.4235 225.027 86.6576 225.924 86.1074C226.821 85.5573 227.824 85.2822 228.933 85.2822C229.449 85.2822 229.952 85.3626 230.443 85.5234C230.934 85.6758 231.51 85.9085 232.17 86.2217V82.083ZM232.17 90.5254C232.17 89.7044 232.098 89.0443 231.954 88.5449C231.81 88.0371 231.518 87.5885 231.078 87.1992C230.74 86.903 230.376 86.6745 229.986 86.5137C229.597 86.3444 229.203 86.2598 228.806 86.2598C228.137 86.2598 227.545 86.4756 227.028 86.9072C226.512 87.3389 226.11 87.9144 225.822 88.6338C225.543 89.3447 225.403 90.1149 225.403 90.9443C225.403 91.7484 225.543 92.5186 225.822 93.2549C226.11 93.9827 226.537 94.5794 227.104 95.0449C227.672 95.5104 228.357 95.7432 229.161 95.7432C229.804 95.7432 230.376 95.6035 230.875 95.3242C231.383 95.0365 231.814 94.6556 232.17 94.1816V90.5254ZM240.257 90.3223C240.248 90.4069 240.244 90.5296 240.244 90.6904C240.244 91.7568 240.435 92.6497 240.815 93.3691C241.205 94.0801 241.721 94.609 242.364 94.9561C243.016 95.2946 243.744 95.4639 244.548 95.4639C245.614 95.4639 246.643 95.1592 247.633 94.5498L248.001 94.9053C247.798 95.3962 247.455 95.8193 246.973 96.1748C246.499 96.5303 245.957 96.8011 245.348 96.9873C244.747 97.165 244.163 97.2539 243.596 97.2539C242.529 97.2539 241.569 97.0042 240.714 96.5049C239.868 96.0055 239.203 95.3073 238.721 94.4102C238.247 93.513 238.01 92.4847 238.01 91.3252C238.01 90.1488 238.268 89.0993 238.784 88.1768C239.3 87.2458 239.986 86.5264 240.841 86.0186C241.704 85.5023 242.627 85.2441 243.608 85.2441C244.412 85.2441 245.136 85.4092 245.779 85.7393C246.431 86.0609 246.96 86.5179 247.366 87.1104C247.772 87.6943 248.031 88.3672 248.141 89.1289C248.234 89.5182 248.28 89.8779 248.28 90.208V90.3223H240.257ZM244.827 89.5098C245.2 89.4928 245.513 89.4251 245.767 89.3066C245.707 88.2995 245.47 87.5124 245.056 86.9453C244.649 86.3783 244.07 86.0947 243.316 86.0947C242.766 86.0947 242.275 86.2598 241.844 86.5898C241.421 86.9199 241.078 87.36 240.815 87.9102C240.553 88.4518 240.384 89.0485 240.308 89.7002L244.827 89.5098ZM257.979 88.9893C257.861 88.9977 257.662 89.002 257.383 89.002C257.137 88.1471 256.765 87.4489 256.266 86.9072C255.775 86.3656 255.144 86.0947 254.374 86.0947C253.841 86.0947 253.418 86.2259 253.104 86.4883C252.8 86.7507 252.647 87.1315 252.647 87.6309C252.647 87.9779 252.774 88.2995 253.028 88.5957C253.282 88.8919 253.591 89.1543 253.955 89.3828C254.327 89.6029 254.814 89.8652 255.415 90.1699C255.559 90.2376 255.775 90.3477 256.062 90.5C257.01 91.0078 257.7 91.5283 258.132 92.0615C258.572 92.5863 258.792 93.2295 258.792 93.9912C258.792 94.6937 258.618 95.2904 258.271 95.7812C257.924 96.2637 257.446 96.6318 256.837 96.8857C256.228 97.1312 255.529 97.2539 254.742 97.2539C254.048 97.2539 253.346 97.1693 252.635 97C251.924 96.8392 251.34 96.6191 250.883 96.3398V93.2422C251.213 93.1999 251.437 93.1787 251.556 93.1787C251.75 94.1182 252.093 94.8841 252.584 95.4766C253.083 96.069 253.765 96.3652 254.628 96.3652C255.246 96.3652 255.758 96.2129 256.164 95.9082C256.579 95.5951 256.786 95.1846 256.786 94.6768C256.786 94.3551 256.693 94.0716 256.507 93.8262C256.321 93.5807 256.079 93.3649 255.783 93.1787C255.487 92.9925 255.043 92.7428 254.45 92.4297C253.655 92.0065 253.049 91.6637 252.635 91.4014C251.992 91.0036 251.505 90.5592 251.175 90.0684C250.853 89.5775 250.692 88.9935 250.692 88.3164C250.692 87.6647 250.857 87.1104 251.188 86.6533C251.518 86.1878 251.966 85.8366 252.533 85.5996C253.1 85.3626 253.739 85.2441 254.45 85.2441C255.102 85.2441 255.72 85.3245 256.304 85.4854C256.896 85.6462 257.429 85.8747 257.903 86.1709L257.979 88.9893ZM263.769 79.5312C264.175 79.5312 264.522 79.6751 264.81 79.9629C265.097 80.2507 265.241 80.5977 265.241 81.0039C265.241 81.4186 265.097 81.7699 264.81 82.0576C264.522 82.3369 264.175 82.4766 263.769 82.4766C263.354 82.4766 263.003 82.3369 262.715 82.0576C262.436 81.7699 262.296 81.4186 262.296 81.0039C262.296 80.5977 262.436 80.2507 262.715 79.9629C263.003 79.6751 263.354 79.5312 263.769 79.5312ZM262.753 87.7705C262.643 87.5758 262.436 87.4023 262.131 87.25C261.835 87.0892 261.526 86.958 261.204 86.8564C260.891 86.7464 260.734 86.6956 260.734 86.7041L260.76 86.2598L264.327 85.3965L265.114 85.3457V94.207C265.114 94.5033 265.144 94.7826 265.203 95.0449C265.271 95.3073 265.465 95.5739 265.787 95.8447C266.117 96.1156 266.633 96.2891 267.336 96.3652C267.336 96.6445 267.332 96.8561 267.323 97H260.696C260.679 96.8477 260.671 96.6361 260.671 96.3652L261.026 96.2637C261.399 96.1621 261.699 96.0605 261.928 95.959C262.156 95.8574 262.351 95.7093 262.512 95.5146C262.673 95.3115 262.753 95.0407 262.753 94.7021V87.7705ZM272.465 94.0674C272.465 94.4652 272.507 94.8206 272.592 95.1338C272.685 95.4385 272.901 95.7093 273.239 95.9463C273.578 96.1833 274.086 96.3229 274.763 96.3652L274.75 97H268.136C268.136 96.9323 268.132 96.8223 268.123 96.6699C268.123 96.5176 268.127 96.3991 268.136 96.3145L268.555 96.2002C269.003 96.0817 269.325 95.9717 269.52 95.8701C269.714 95.7686 269.858 95.5908 269.951 95.3369C270.053 95.0745 270.104 94.6768 270.104 94.1436V87.7578C269.993 87.5716 269.79 87.4023 269.494 87.25C269.198 87.0892 268.889 86.958 268.567 86.8564C268.254 86.7549 268.098 86.7083 268.098 86.7168L268.123 86.2725L271.5 85.3711H272.224L272.427 87.707C272.901 86.8353 273.392 86.2174 273.899 85.8535C274.416 85.4896 275.004 85.3076 275.664 85.3076C276.003 85.3076 276.307 85.3796 276.578 85.5234C276.857 85.6589 277.073 85.8366 277.226 86.0566C277.386 86.2682 277.467 86.484 277.467 86.7041C277.467 86.848 277.424 87.0426 277.34 87.2881C277.264 87.5335 277.141 87.7493 276.972 87.9355C276.811 88.1217 276.612 88.2148 276.375 88.2148C276.104 88.2148 275.893 88.1556 275.74 88.0371C275.588 87.9102 275.431 87.724 275.271 87.4785C275.152 87.2923 275.038 87.1527 274.928 87.0596C274.826 86.9665 274.695 86.9199 274.534 86.9199C274.263 86.9199 274.018 87.0003 273.798 87.1611C273.586 87.3135 273.4 87.5039 273.239 87.7324C273.078 87.9609 272.884 88.2656 272.655 88.6465L272.465 88.9639V94.0674ZM280.704 90.3223C280.696 90.4069 280.691 90.5296 280.691 90.6904C280.691 91.7568 280.882 92.6497 281.263 93.3691C281.652 94.0801 282.168 94.609 282.812 94.9561C283.463 95.2946 284.191 95.4639 284.995 95.4639C286.062 95.4639 287.09 95.1592 288.08 94.5498L288.448 94.9053C288.245 95.3962 287.902 95.8193 287.42 96.1748C286.946 96.5303 286.404 96.8011 285.795 96.9873C285.194 97.165 284.61 97.2539 284.043 97.2539C282.977 97.2539 282.016 97.0042 281.161 96.5049C280.315 96.0055 279.65 95.3073 279.168 94.4102C278.694 93.513 278.457 92.4847 278.457 91.3252C278.457 90.1488 278.715 89.0993 279.231 88.1768C279.748 87.2458 280.433 86.5264 281.288 86.0186C282.151 85.5023 283.074 85.2441 284.056 85.2441C284.86 85.2441 285.583 85.4092 286.227 85.7393C286.878 86.0609 287.407 86.5179 287.813 87.1104C288.22 87.6943 288.478 88.3672 288.588 89.1289C288.681 89.5182 288.728 89.8779 288.728 90.208V90.3223H280.704ZM285.274 89.5098C285.647 89.4928 285.96 89.4251 286.214 89.3066C286.155 88.2995 285.918 87.5124 285.503 86.9453C285.097 86.3783 284.517 86.0947 283.764 86.0947C283.214 86.0947 282.723 86.2598 282.291 86.5898C281.868 86.9199 281.525 87.36 281.263 87.9102C281 88.4518 280.831 89.0485 280.755 89.7002L285.274 89.5098ZM299.468 79.5312C299.874 79.5312 300.221 79.6751 300.509 79.9629C300.797 80.2507 300.94 80.5977 300.94 81.0039C300.94 81.4186 300.797 81.7699 300.509 82.0576C300.221 82.3369 299.874 82.4766 299.468 82.4766C299.053 82.4766 298.702 82.3369 298.414 82.0576C298.135 81.7699 297.995 81.4186 297.995 81.0039C297.995 80.5977 298.135 80.2507 298.414 79.9629C298.702 79.6751 299.053 79.5312 299.468 79.5312ZM298.452 87.7705C298.342 87.5758 298.135 87.4023 297.83 87.25C297.534 87.0892 297.225 86.958 296.903 86.8564C296.59 86.7464 296.434 86.6956 296.434 86.7041L296.459 86.2598L300.026 85.3965L300.813 85.3457V94.207C300.813 94.5033 300.843 94.7826 300.902 95.0449C300.97 95.3073 301.165 95.5739 301.486 95.8447C301.816 96.1156 302.333 96.2891 303.035 96.3652C303.035 96.6445 303.031 96.8561 303.022 97H296.396C296.379 96.8477 296.37 96.6361 296.37 96.3652L296.726 96.2637C297.098 96.1621 297.398 96.0605 297.627 95.959C297.855 95.8574 298.05 95.7093 298.211 95.5146C298.372 95.3115 298.452 95.0407 298.452 94.7021V87.7705ZM307.948 93.0137C307.948 93.877 307.978 94.4948 308.037 94.8672C308.096 95.2311 308.24 95.4977 308.469 95.667C308.697 95.8278 309.082 95.9082 309.624 95.9082C309.946 95.9082 310.267 95.8786 310.589 95.8193C310.91 95.7601 311.181 95.6966 311.401 95.6289L311.503 96.5557C311.071 96.7673 310.635 96.9365 310.195 97.0635C309.755 97.1904 309.226 97.2539 308.608 97.2539C307.787 97.2539 307.161 97.1185 306.729 96.8477C306.298 96.5768 305.997 96.141 305.828 95.54C305.659 94.9307 305.574 94.0758 305.574 92.9756V86.5391H303.683V86.0947C304.258 85.8662 304.741 85.5996 305.13 85.2949C305.528 84.9818 305.854 84.6602 306.107 84.3301C306.361 84 306.666 83.5641 307.021 83.0225C307.174 82.777 307.292 82.6162 307.377 82.54C307.462 82.4554 307.546 82.4131 307.631 82.4131C307.715 82.4131 307.783 82.4554 307.834 82.54C307.893 82.6162 307.923 82.7389 307.923 82.9082V85.5869H311.109V86.5391H307.948V93.0137ZM52.7725 121.989C52.654 121.998 52.4551 122.002 52.1758 122.002C51.9303 121.147 51.5579 120.449 51.0586 119.907C50.5677 119.366 49.9372 119.095 49.167 119.095C48.6338 119.095 48.2106 119.226 47.8975 119.488C47.5928 119.751 47.4404 120.132 47.4404 120.631C47.4404 120.978 47.5674 121.299 47.8213 121.596C48.0752 121.892 48.3841 122.154 48.748 122.383C49.1204 122.603 49.6071 122.865 50.208 123.17C50.3519 123.238 50.5677 123.348 50.8555 123.5C51.8034 124.008 52.4932 124.528 52.9248 125.062C53.3649 125.586 53.585 126.229 53.585 126.991C53.585 127.694 53.4115 128.29 53.0645 128.781C52.7174 129.264 52.2393 129.632 51.6299 129.886C51.0205 130.131 50.3223 130.254 49.5352 130.254C48.8411 130.254 48.1387 130.169 47.4277 130C46.7168 129.839 46.1328 129.619 45.6758 129.34V126.242C46.0059 126.2 46.2301 126.179 46.3486 126.179C46.5433 127.118 46.8861 127.884 47.377 128.477C47.8763 129.069 48.5576 129.365 49.4209 129.365C50.0387 129.365 50.5508 129.213 50.957 128.908C51.3717 128.595 51.5791 128.185 51.5791 127.677C51.5791 127.355 51.486 127.072 51.2998 126.826C51.1136 126.581 50.8724 126.365 50.5762 126.179C50.2799 125.993 49.8356 125.743 49.2432 125.43C48.4476 125.007 47.8424 124.664 47.4277 124.401C46.7845 124.004 46.2979 123.559 45.9678 123.068C45.6462 122.577 45.4854 121.993 45.4854 121.316C45.4854 120.665 45.6504 120.11 45.9805 119.653C46.3105 119.188 46.7591 118.837 47.3262 118.6C47.8932 118.363 48.5322 118.244 49.2432 118.244C49.8949 118.244 50.5127 118.325 51.0967 118.485C51.6891 118.646 52.2223 118.875 52.6963 119.171L52.7725 121.989ZM61.8115 118.244C62.9372 118.244 63.9613 118.49 64.8838 118.98C65.8148 119.463 66.5511 120.157 67.0928 121.062C67.6344 121.96 67.9053 123.005 67.9053 124.198C67.9053 125.392 67.6344 126.45 67.0928 127.372C66.5511 128.286 65.8275 128.997 64.9219 129.505C64.0163 130.004 63.026 130.254 61.9512 130.254C60.8848 130.254 59.8861 129.996 58.9551 129.479C58.0241 128.963 57.2793 128.248 56.7207 127.334C56.1621 126.411 55.8828 125.37 55.8828 124.211C55.8828 123.051 56.1536 122.019 56.6953 121.113C57.237 120.199 57.9606 119.493 58.8662 118.993C59.7803 118.494 60.762 118.244 61.8115 118.244ZM62.1162 129.264C63.1911 129.264 64.0078 128.879 64.5664 128.108C65.125 127.338 65.4043 126.327 65.4043 125.074C65.4043 123.991 65.252 122.996 64.9473 122.091C64.651 121.177 64.2236 120.449 63.665 119.907C63.1064 119.366 62.4632 119.095 61.7354 119.095C61.0921 119.095 60.5208 119.251 60.0215 119.564C59.5306 119.878 59.1413 120.36 58.8535 121.012C58.5658 121.663 58.4219 122.48 58.4219 123.462C58.4219 124.427 58.5742 125.358 58.8789 126.255C59.1836 127.144 59.6152 127.867 60.1738 128.426C60.7324 128.984 61.3799 129.264 62.1162 129.264ZM80.0166 127.017C80.0166 127.66 80.1182 128.142 80.3213 128.464C80.5244 128.777 80.7572 128.98 81.0195 129.073C81.2819 129.166 81.6924 129.264 82.251 129.365C82.251 129.492 82.2467 129.619 82.2383 129.746C82.2298 129.873 82.2256 129.958 82.2256 130H75.6748V129.327C75.6917 129.319 75.8102 129.285 76.0303 129.226C76.4535 129.124 76.8005 129.006 77.0713 128.87C77.3421 128.726 77.5072 128.51 77.5664 128.223C77.6087 128.079 77.6341 127.935 77.6426 127.791C77.651 127.639 77.6553 127.436 77.6553 127.182V120.783C77.5537 120.58 77.3506 120.402 77.0459 120.25C76.7497 120.089 76.4408 119.958 76.1191 119.856C75.7975 119.746 75.6367 119.696 75.6367 119.704L75.6748 119.272L79.166 118.409L79.915 118.358L80.0547 120.428C80.554 119.776 81.1423 119.251 81.8193 118.854C82.4964 118.447 83.2539 118.244 84.0918 118.244C84.9212 118.244 85.6068 118.413 86.1484 118.752C86.6901 119.09 87.1048 119.603 87.3926 120.288C87.7988 119.84 88.1839 119.476 88.5479 119.196C88.9118 118.909 89.318 118.684 89.7666 118.523C90.2152 118.354 90.723 118.27 91.29 118.27C92.3988 118.27 93.2874 118.532 93.9561 119.057C94.6331 119.573 95.0182 120.36 95.1113 121.418C95.179 122.214 95.2129 123.013 95.2129 123.817V127.144C95.2129 127.567 95.2425 127.926 95.3018 128.223C95.3441 128.468 95.4499 128.663 95.6191 128.807C95.7969 128.951 95.9704 129.052 96.1396 129.111C96.3089 129.162 96.6051 129.247 97.0283 129.365C97.0283 129.492 97.0241 129.619 97.0156 129.746C97.0072 129.865 97.0029 129.949 97.0029 130H90.8965C90.8965 129.949 90.8923 129.865 90.8838 129.746C90.8753 129.619 90.8711 129.492 90.8711 129.365C90.9134 129.357 90.96 129.344 91.0107 129.327C91.07 129.31 91.1292 129.293 91.1885 129.276C91.6286 129.158 91.9798 129.031 92.2422 128.896C92.5046 128.752 92.6696 128.536 92.7373 128.248C92.805 127.91 92.8389 127.541 92.8389 127.144V122.104C92.8389 121.308 92.6357 120.694 92.2295 120.263C91.8232 119.823 91.2435 119.603 90.4902 119.603C89.9655 119.603 89.445 119.759 88.9287 120.072C88.4124 120.377 87.9554 120.749 87.5576 121.189C87.6084 121.773 87.6338 122.713 87.6338 124.008V127.08C87.6338 127.562 87.6592 127.935 87.71 128.197C87.7607 128.502 87.9173 128.726 88.1797 128.87C88.4505 129.014 88.806 129.145 89.2461 129.264C89.4831 129.34 89.5973 129.374 89.5889 129.365C89.5889 129.492 89.5846 129.619 89.5762 129.746C89.5677 129.873 89.5635 129.958 89.5635 130H83.2158C83.2158 129.949 83.2116 129.865 83.2031 129.746C83.1947 129.619 83.1904 129.492 83.1904 129.365C83.2243 129.357 83.4274 129.319 83.7998 129.251C84.1807 129.175 84.5192 128.951 84.8154 128.578C85.1117 128.197 85.2598 127.702 85.2598 127.093V122.675C85.2598 121.685 85.1032 120.927 84.79 120.402C84.4769 119.878 83.931 119.615 83.1523 119.615C82.543 119.615 81.9886 119.776 81.4893 120.098C80.9984 120.411 80.5075 120.842 80.0166 121.393V127.017ZM103.363 130.254C102.339 130.254 101.548 130 100.989 129.492C100.439 128.976 100.067 128.307 99.8721 127.486C99.6774 126.665 99.5801 125.688 99.5801 124.554V120.771C99.4701 120.576 99.2627 120.402 98.958 120.25C98.6618 120.089 98.3529 119.958 98.0312 119.856C97.7181 119.746 97.5615 119.696 97.5615 119.704L97.5869 119.26L101.154 118.396L101.941 118.346V124.414C101.941 125.497 102.009 126.352 102.145 126.979C102.28 127.596 102.508 128.049 102.83 128.337C103.152 128.616 103.6 128.756 104.176 128.756C105.352 128.756 106.461 128.24 107.502 127.207V120.771C107.392 120.576 107.185 120.402 106.88 120.25C106.584 120.089 106.275 119.958 105.953 119.856C105.64 119.746 105.483 119.696 105.483 119.704L105.509 119.26L109.076 118.396L109.863 118.346V127.448C109.863 127.804 109.952 128.079 110.13 128.273C110.308 128.46 110.528 128.595 110.79 128.68C111.052 128.764 111.412 128.845 111.869 128.921C111.869 129.048 111.861 129.179 111.844 129.314C111.835 129.45 111.831 129.543 111.831 129.594L107.667 130.19L107.565 128.159C106.313 129.556 104.912 130.254 103.363 130.254ZM123.435 127.613C123.257 128.18 122.939 128.663 122.482 129.061C122.025 129.458 121.488 129.759 120.87 129.962C120.252 130.157 119.609 130.254 118.94 130.254C117.772 130.254 116.761 129.983 115.906 129.441C115.06 128.891 114.417 128.163 113.977 127.258C113.536 126.352 113.316 125.37 113.316 124.312C113.316 123.195 113.583 122.175 114.116 121.253C114.649 120.322 115.398 119.59 116.363 119.057C117.328 118.515 118.424 118.244 119.651 118.244C120.362 118.244 121.014 118.35 121.606 118.562C122.199 118.765 122.664 119.057 123.003 119.438C123.35 119.818 123.523 120.258 123.523 120.758C123.523 121.139 123.401 121.418 123.155 121.596C122.91 121.765 122.647 121.85 122.368 121.85C122.106 121.85 121.903 121.803 121.759 121.71C121.615 121.608 121.509 121.49 121.441 121.354C121.382 121.211 121.323 121.012 121.264 120.758C121.196 120.436 121.111 120.174 121.01 119.971C120.917 119.768 120.739 119.59 120.477 119.438C120.214 119.285 119.838 119.201 119.347 119.184C118.695 119.158 118.086 119.319 117.519 119.666C116.951 120.005 116.494 120.512 116.147 121.189C115.809 121.867 115.64 122.679 115.64 123.627C115.64 124.507 115.796 125.315 116.109 126.052C116.423 126.788 116.88 127.376 117.48 127.816C118.09 128.257 118.818 128.477 119.664 128.477C120.4 128.477 121.014 128.388 121.505 128.21C121.996 128.032 122.504 127.736 123.028 127.321L123.435 127.613ZM137.552 127.194C137.552 127.846 137.717 128.358 138.047 128.73C138.385 129.094 138.864 129.306 139.481 129.365C139.481 129.492 139.477 129.619 139.469 129.746C139.46 129.865 139.456 129.949 139.456 130H133.21C133.21 129.949 133.206 129.865 133.197 129.746C133.189 129.619 133.185 129.492 133.185 129.365C133.328 129.298 133.608 129.2 134.022 129.073C134.344 128.972 134.577 128.879 134.721 128.794C134.873 128.701 134.987 128.54 135.063 128.312C135.148 128.083 135.19 127.74 135.19 127.283V122.675C135.19 121.744 134.992 121.003 134.594 120.453C134.204 119.895 133.591 119.615 132.753 119.615C132.152 119.615 131.568 119.776 131.001 120.098C130.442 120.411 129.926 120.817 129.452 121.316V127.042C129.452 127.804 129.626 128.362 129.973 128.718C130.32 129.073 130.887 129.289 131.674 129.365L131.661 130H124.895C124.895 129.949 124.89 129.865 124.882 129.746C124.873 129.619 124.869 129.492 124.869 129.365C126.35 129.247 127.091 128.472 127.091 127.042V115.223C127.006 115.096 126.82 114.943 126.532 114.766C126.244 114.579 125.94 114.414 125.618 114.271C125.305 114.127 125.072 114.046 124.92 114.029V113.585L128.551 112.62L129.452 112.531V120.25C130.121 119.581 130.777 119.082 131.42 118.752C132.063 118.413 132.808 118.244 133.654 118.244C134.831 118.244 135.774 118.621 136.485 119.374C137.196 120.119 137.552 121.257 137.552 122.789V127.194ZM145.093 128.527C145.093 128.832 145.012 129.116 144.852 129.378C144.699 129.64 144.488 129.852 144.217 130.013C143.954 130.174 143.662 130.254 143.341 130.254C143.028 130.254 142.736 130.174 142.465 130.013C142.202 129.86 141.991 129.653 141.83 129.391C141.678 129.12 141.602 128.832 141.602 128.527C141.602 128.223 141.678 127.939 141.83 127.677C141.991 127.414 142.202 127.207 142.465 127.055C142.736 126.894 143.028 126.813 143.341 126.813C143.662 126.813 143.954 126.894 144.217 127.055C144.488 127.207 144.699 127.414 144.852 127.677C145.012 127.939 145.093 128.223 145.093 128.527ZM148.47 119.209C148.521 119.175 148.69 119.082 148.978 118.93C149.375 118.727 149.693 118.549 149.93 118.396C150.167 118.236 150.361 118.033 150.514 117.787C150.674 117.542 150.755 117.241 150.755 116.886C150.628 116.708 150.476 116.564 150.298 116.454C150.129 116.344 149.913 116.268 149.65 116.226C149.21 116.149 148.88 115.989 148.66 115.743C148.44 115.498 148.33 115.176 148.33 114.778C148.33 114.313 148.495 113.924 148.825 113.61C149.155 113.297 149.578 113.141 150.095 113.141C150.543 113.141 150.941 113.251 151.288 113.471C151.644 113.691 151.914 114 152.101 114.397C152.295 114.787 152.393 115.235 152.393 115.743C152.393 116.369 152.253 116.979 151.974 117.571C151.694 118.164 151.292 118.676 150.768 119.107C150.251 119.531 149.642 119.806 148.939 119.933C148.686 119.713 148.529 119.471 148.47 119.209ZM153.954 119.209C154.064 119.141 154.238 119.048 154.475 118.93C154.881 118.718 155.194 118.536 155.414 118.384C155.643 118.223 155.833 118.02 155.985 117.774C156.146 117.529 156.227 117.233 156.227 116.886C156.1 116.708 155.947 116.564 155.77 116.454C155.6 116.344 155.389 116.268 155.135 116.226C154.695 116.149 154.365 115.989 154.145 115.743C153.924 115.498 153.814 115.176 153.814 114.778C153.814 114.313 153.975 113.924 154.297 113.61C154.627 113.297 155.054 113.141 155.579 113.141C156.028 113.141 156.425 113.251 156.772 113.471C157.119 113.691 157.386 114 157.572 114.397C157.767 114.787 157.864 115.235 157.864 115.743C157.864 116.369 157.725 116.979 157.445 117.571C157.166 118.164 156.764 118.676 156.239 119.107C155.723 119.531 155.114 119.806 154.411 119.933C154.166 119.721 154.013 119.48 153.954 119.209Z" fill="#CCA298"/>
</svg>
