<svg width="406" height="174" viewBox="0 0 406 174" fill="none" xmlns="http://www.w3.org/2000/svg">
<path d="M0 32.9768C0 28.6589 0 26.5 0.435011 25.1521C1.97831 20.3702 7.13825 17.7782 11.8958 19.395C13.2369 19.8507 14.9688 21.1396 18.4327 23.7174C19.1007 24.2145 19.4346 24.463 19.7816 24.6754C20.9613 25.3978 22.2917 25.8385 23.6693 25.9633C24.0745 26 24.4908 26 25.3234 26H298C335.712 26 354.569 26 366.284 37.7157C378 49.4315 378 68.2876 378 106V160C378 166.6 378 169.899 375.95 171.95C373.9 174 370.6 174 364 174H41.0294C31.3251 174 21.9349 170.56 14.5268 164.292C5.3136 156.496 0 145.039 0 132.971V32.9768Z" fill="#CCA298"/>
<path d="M10 22.9768C10 18.6589 10 16.5 10.435 15.1521C11.9783 10.3702 17.1383 7.77819 21.8958 9.39496C23.2369 9.85069 24.9688 11.1396 28.4327 13.7174C29.1007 14.2145 29.4346 14.463 29.7816 14.6754C30.9613 15.3978 32.2917 15.8385 33.6693 15.9633C34.0745 16 34.4908 16 35.3234 16H308C345.712 16 364.569 16 376.284 27.7157C388 39.4315 388 58.2876 388 96V137.887C388 139.482 388 140.28 388.171 141.039C388.296 141.592 388.487 142.128 388.741 142.636C389.089 143.332 389.594 143.949 390.604 145.183C395.759 151.483 398.337 154.634 398.222 157.301C398.141 159.189 397.299 160.964 395.89 162.222C393.898 164 389.828 164 381.687 164H41.7524C35.0869 164 28.5904 161.902 23.1835 158.004C14.9052 152.036 10 142.453 10 132.248V22.9768Z" fill="white"/>
<path d="M16.9823 138.446C16.1158 136.168 15.5206 133.779 15.2221 131.325L15.7185 131.265C15.5738 130.076 15.5 128.872 15.5 127.658V124.344H15V117.715H15.5V111.087H15V104.458H15.5V97.8299H15V91.2014H15.5V84.5729H15V77.9445H15.5V71.316H15V64.6875H15.5V58.059H15V51.4305H15.5V44.8021H15V38.1736H15.5V31.5451H15V24.9166H15.5V21.6024C15.5 20.5499 15.8226 19.6586 16.3405 18.9556L15.9379 18.659C17.2018 16.9433 19.5268 16.2036 21.5498 16.8734L21.3926 17.3481C22.2215 17.6226 22.9999 18.1635 23.6081 19.0225C23.8624 19.3817 24.156 19.7047 24.481 19.9874L24.8092 19.6102C25.4078 20.131 26.1232 20.501 26.8941 20.6886L26.7759 21.1744C27.1944 21.2763 27.6278 21.3293 28.0678 21.3293H31.5045V20.8293H38.3777V21.3293H45.251V20.8293H52.1243V21.3293H58.9976V20.8293H65.8709V21.3293H72.7442V20.8293H79.6175V21.3293H86.4909V20.8293H93.3642V21.3293H100.237V20.8293H107.111V21.3293H113.984V20.8293H120.857V21.3293H127.731V20.8293H134.604V21.3293H141.477V20.8293H148.351V21.3293H155.224V20.8293H162.097V21.3293H168.971V20.8293H175.844V21.3293H182.717V20.8293H189.59V21.3293H196.464V20.8293H203.337V21.3293H210.21V20.8293H217.084V21.3293H223.957V20.8293H230.83V21.3293H237.704V20.8293H244.577V21.3293H251.45V20.8293H258.324V21.3293H265.197V20.8293H272.07V21.3293H278.943V20.8293H285.817V21.3293H292.69V20.8293H299.563V21.3293H303C304.201 21.3293 305.383 21.3293 306.546 21.3296L306.546 20.8296C308.994 20.8304 311.358 20.8329 313.643 20.8406L313.642 21.3406C316.096 21.3488 318.459 21.3631 320.734 21.3877L320.739 20.8877C323.199 20.9143 325.557 20.9531 327.818 21.0095L327.806 21.5093C330.281 21.571 332.639 21.6539 334.887 21.7651L334.912 21.2657C337.398 21.3887 339.753 21.5463 341.985 21.7483L341.94 22.2463C344.423 22.4711 346.75 22.7508 348.937 23.0987L349.016 22.6049C351.498 22.9998 353.804 23.4825 355.951 24.0726L355.819 24.5547C358.203 25.2099 360.384 25.997 362.393 26.9421L362.606 26.4897C364.803 27.5231 366.801 28.7451 368.636 30.1903L368.326 30.583C369.234 31.2977 370.1 32.068 370.931 32.8986C371.761 33.7291 372.532 34.5958 373.246 35.5029L373.639 35.1935C375.084 37.028 376.306 39.0263 377.34 41.223L376.887 41.4359C377.832 43.4448 378.619 45.6267 379.275 48.0108L379.757 47.8783C380.347 50.0257 380.829 52.3309 381.224 54.8135L380.731 54.892C381.078 57.0789 381.358 59.4067 381.583 61.8898L382.081 61.8447C382.283 64.0765 382.441 66.4308 382.564 68.9175L382.064 68.9422C382.175 71.1907 382.258 73.5486 382.32 76.0234L382.82 76.011C382.876 78.2723 382.915 80.6302 382.942 83.0902L382.442 83.0956C382.466 85.3704 382.48 87.7329 382.489 90.1877L382.989 90.1861C382.996 92.471 382.999 94.8354 383 97.2829L382.5 97.283C382.5 97.7218 382.5 98.1632 382.5 98.6073L382.5 100.829V104.096H383V110.628H382.5V117.161H383V123.694H382.5V130.226H383V136.759H382.5V140.025C382.5 141.259 382.605 142.483 382.812 143.685L383.305 143.6C383.711 145.966 384.518 148.245 385.691 150.339L385.254 150.584C385.85 151.648 386.538 152.666 387.314 153.624C387.622 154.004 387.786 154.423 387.834 154.84L388.331 154.782C388.458 155.874 387.934 156.973 387.005 157.562L386.737 157.139C386.383 157.364 385.954 157.5 385.465 157.5H381.922V158H374.837V157.5H367.751V158H360.665V157.5H353.579V158H346.493V157.5H339.407V158H332.321V157.5H325.235V158H318.149V157.5H311.063V158H303.977V157.5H296.892V158H289.806V157.5H282.72V158H275.634V157.5H268.548V158H261.462V157.5H254.376V158H247.29V157.5H240.204V158H233.118V157.5H226.033V158H218.947V157.5H211.861V158H204.775V157.5H197.689V158H190.603V157.5H183.517V158H176.431V157.5H169.345V158H162.259V157.5H155.173V158H148.088V157.5H141.002V158H133.916V157.5H126.83V158H119.744V157.5H112.658V158H105.572V157.5H98.4863V158H91.4004V157.5H84.3145V158H77.2286V157.5H70.1427V158H63.0568V157.5H55.9709V158H48.885V157.5H45.342C43.839 157.5 42.3448 157.387 40.8714 157.163L40.7965 157.658C37.7835 157.201 34.8561 156.293 32.1136 154.965L32.3316 154.515C30.9905 153.865 29.6943 153.113 28.4551 152.262C27.4542 151.576 26.5031 150.833 25.6047 150.041L25.2741 150.416C23.4202 148.782 21.7869 146.939 20.3995 144.936L20.8106 144.651C19.4366 142.667 18.3078 140.523 17.4496 138.268L16.9823 138.446Z" fill="white" stroke="#C17766" stroke-dasharray="7 7"/>
<path d="M226.935 106.084H240.195L239.974 107.376H226.714L226.935 106.084ZM252.241 110.113C251.856 110.476 251.471 110.793 251.085 111.065C250.7 111.337 250.298 111.564 249.878 111.745C249.47 111.926 249.034 112.057 248.569 112.136C248.105 112.227 247.6 112.272 247.056 112.272C246.274 112.272 245.555 112.142 244.897 111.881C244.24 111.62 243.673 111.252 243.197 110.776C242.721 110.3 242.347 109.728 242.075 109.059C241.815 108.39 241.684 107.642 241.684 106.815C241.684 105.874 241.866 104.968 242.228 104.095C242.602 103.222 243.118 102.452 243.775 101.783C244.433 101.103 245.209 100.565 246.104 100.168C247.011 99.76 247.997 99.556 249.062 99.556C249.538 99.556 249.986 99.6127 250.405 99.726C250.825 99.828 251.21 99.9697 251.561 100.151C251.924 100.332 252.247 100.548 252.53 100.797C252.814 101.046 253.046 101.313 253.227 101.596L251.969 102.633C251.595 102.089 251.165 101.692 250.677 101.443C250.19 101.182 249.595 101.052 248.892 101.052C248.11 101.052 247.374 101.211 246.682 101.528C246.002 101.845 245.407 102.27 244.897 102.803C244.399 103.324 244.002 103.925 243.707 104.605C243.424 105.285 243.282 105.993 243.282 106.73C243.282 107.342 243.379 107.897 243.571 108.396C243.775 108.895 244.053 109.32 244.404 109.671C244.767 110.022 245.186 110.294 245.662 110.487C246.15 110.68 246.677 110.776 247.243 110.776C248.093 110.776 248.83 110.617 249.453 110.3C250.077 109.971 250.672 109.529 251.238 108.974L252.241 110.113ZM258.276 103.398C258.854 103.398 259.381 103.506 259.857 103.721C260.344 103.925 260.758 104.208 261.098 104.571C261.438 104.934 261.699 105.359 261.88 105.846C262.073 106.322 262.169 106.832 262.169 107.376C262.169 108.067 262.044 108.713 261.795 109.314C261.546 109.903 261.2 110.419 260.758 110.861C260.316 111.303 259.789 111.649 259.177 111.898C258.565 112.147 257.902 112.272 257.188 112.272C256.61 112.272 256.077 112.17 255.59 111.966C255.114 111.751 254.706 111.462 254.366 111.099C254.026 110.736 253.76 110.317 253.567 109.841C253.386 109.354 253.295 108.838 253.295 108.294C253.295 107.603 253.42 106.962 253.669 106.373C253.918 105.772 254.264 105.251 254.706 104.809C255.148 104.367 255.675 104.021 256.287 103.772C256.899 103.523 257.562 103.398 258.276 103.398ZM257.341 110.844C257.84 110.844 258.287 110.753 258.684 110.572C259.092 110.379 259.432 110.13 259.704 109.824C259.987 109.507 260.203 109.15 260.35 108.753C260.497 108.345 260.571 107.92 260.571 107.478C260.571 107.093 260.503 106.741 260.367 106.424C260.242 106.095 260.067 105.812 259.84 105.574C259.625 105.336 259.364 105.155 259.058 105.03C258.763 104.894 258.452 104.826 258.123 104.826C257.624 104.826 257.171 104.922 256.763 105.115C256.366 105.296 256.026 105.546 255.743 105.863C255.471 106.169 255.261 106.526 255.114 106.934C254.967 107.331 254.893 107.75 254.893 108.192C254.893 108.577 254.955 108.934 255.08 109.263C255.216 109.58 255.392 109.858 255.607 110.096C255.834 110.334 256.094 110.521 256.389 110.657C256.695 110.782 257.012 110.844 257.341 110.844ZM266.429 112.272C265.885 112.272 265.386 112.176 264.933 111.983C264.491 111.779 264.111 111.507 263.794 111.167C263.488 110.816 263.244 110.408 263.063 109.943C262.893 109.467 262.808 108.963 262.808 108.43C262.808 107.705 262.938 107.036 263.199 106.424C263.459 105.801 263.811 105.268 264.253 104.826C264.706 104.373 265.233 104.021 265.834 103.772C266.446 103.523 267.097 103.398 267.789 103.398C268.299 103.398 268.746 103.472 269.132 103.619C269.517 103.755 269.846 103.936 270.118 104.163C270.401 104.39 270.628 104.65 270.798 104.945C270.968 105.228 271.092 105.512 271.172 105.795L269.71 106.356C269.574 105.88 269.33 105.506 268.979 105.234C268.639 104.962 268.18 104.826 267.602 104.826C267.148 104.826 266.723 104.917 266.327 105.098C265.941 105.268 265.607 105.512 265.324 105.829C265.04 106.135 264.814 106.503 264.644 106.934C264.485 107.353 264.406 107.812 264.406 108.311C264.406 108.651 264.457 108.98 264.559 109.297C264.661 109.603 264.808 109.869 265.001 110.096C265.193 110.323 265.437 110.504 265.732 110.64C266.026 110.776 266.361 110.844 266.735 110.844C267.267 110.844 267.743 110.702 268.163 110.419C268.593 110.136 268.956 109.75 269.251 109.263L270.509 109.858C270.248 110.266 269.982 110.623 269.71 110.929C269.449 111.235 269.154 111.49 268.826 111.694C268.508 111.887 268.151 112.028 267.755 112.119C267.369 112.221 266.927 112.272 266.429 112.272ZM276.587 103.398C277.165 103.398 277.692 103.506 278.168 103.721C278.656 103.925 279.069 104.208 279.409 104.571C279.749 104.934 280.01 105.359 280.191 105.846C280.384 106.322 280.48 106.832 280.48 107.376C280.48 108.067 280.356 108.713 280.106 109.314C279.857 109.903 279.511 110.419 279.069 110.861C278.627 111.303 278.1 111.649 277.488 111.898C276.876 112.147 276.213 112.272 275.499 112.272C274.921 112.272 274.389 112.17 273.901 111.966C273.425 111.751 273.017 111.462 272.677 111.099C272.337 110.736 272.071 110.317 271.878 109.841C271.697 109.354 271.606 108.838 271.606 108.294C271.606 107.603 271.731 106.962 271.98 106.373C272.23 105.772 272.575 105.251 273.017 104.809C273.459 104.367 273.986 104.021 274.598 103.772C275.21 103.523 275.873 103.398 276.587 103.398ZM275.652 110.844C276.151 110.844 276.599 110.753 276.995 110.572C277.403 110.379 277.743 110.13 278.015 109.824C278.299 109.507 278.514 109.15 278.661 108.753C278.809 108.345 278.882 107.92 278.882 107.478C278.882 107.093 278.814 106.741 278.678 106.424C278.554 106.095 278.378 105.812 278.151 105.574C277.936 105.336 277.675 105.155 277.369 105.03C277.075 104.894 276.763 104.826 276.434 104.826C275.936 104.826 275.482 104.922 275.074 105.115C274.678 105.296 274.338 105.546 274.054 105.863C273.782 106.169 273.573 106.526 273.425 106.934C273.278 107.331 273.204 107.75 273.204 108.192C273.204 108.577 273.267 108.934 273.391 109.263C273.527 109.58 273.703 109.858 273.918 110.096C274.145 110.334 274.406 110.521 274.7 110.657C275.006 110.782 275.324 110.844 275.652 110.844ZM295.522 110.113C295.136 110.476 294.751 110.793 294.366 111.065C293.98 111.337 293.578 111.564 293.159 111.745C292.751 111.926 292.314 112.057 291.85 112.136C291.385 112.227 290.881 112.272 290.337 112.272C289.555 112.272 288.835 112.142 288.178 111.881C287.52 111.62 286.954 111.252 286.478 110.776C286.002 110.3 285.628 109.728 285.356 109.059C285.095 108.39 284.965 107.642 284.965 106.815C284.965 105.874 285.146 104.968 285.509 104.095C285.883 103.222 286.398 102.452 287.056 101.783C287.713 101.103 288.489 100.565 289.385 100.168C290.291 99.76 291.277 99.556 292.343 99.556C292.819 99.556 293.266 99.6127 293.686 99.726C294.105 99.828 294.49 99.9697 294.842 100.151C295.204 100.332 295.527 100.548 295.811 100.797C296.094 101.046 296.326 101.313 296.508 101.596L295.25 102.633C294.876 102.089 294.445 101.692 293.958 101.443C293.47 101.182 292.875 101.052 292.173 101.052C291.391 101.052 290.654 101.211 289.963 101.528C289.283 101.845 288.688 102.27 288.178 102.803C287.679 103.324 287.282 103.925 286.988 104.605C286.704 105.285 286.562 105.993 286.562 106.73C286.562 107.342 286.659 107.897 286.852 108.396C287.056 108.895 287.333 109.32 287.685 109.671C288.047 110.022 288.467 110.294 288.943 110.487C289.43 110.68 289.957 110.776 290.524 110.776C291.374 110.776 292.11 110.617 292.734 110.3C293.357 109.971 293.952 109.529 294.519 108.974L295.522 110.113ZM299.563 103.67L299.291 104.826H299.359C299.665 104.418 300.073 104.078 300.583 103.806C301.093 103.534 301.649 103.398 302.249 103.398C302.714 103.398 303.116 103.466 303.456 103.602C303.796 103.727 304.074 103.902 304.289 104.129C304.505 104.356 304.663 104.622 304.765 104.928C304.867 105.223 304.918 105.54 304.918 105.88C304.918 106.016 304.907 106.169 304.884 106.339C304.873 106.498 304.845 106.707 304.799 106.968L303.898 112H302.334L303.218 107.002C303.241 106.889 303.258 106.781 303.269 106.679C303.281 106.566 303.286 106.464 303.286 106.373C303.286 105.863 303.133 105.478 302.827 105.217C302.533 104.956 302.13 104.826 301.62 104.826C301.269 104.826 300.94 104.9 300.634 105.047C300.328 105.194 300.056 105.393 299.818 105.642C299.58 105.88 299.376 106.158 299.206 106.475C299.048 106.792 298.94 107.121 298.883 107.461L298.101 112H296.537L298.679 99.828H300.243L299.563 103.67ZM310.666 103.398C311.743 103.398 312.553 103.647 313.097 104.146C313.652 104.645 313.93 105.319 313.93 106.169C313.93 106.305 313.919 106.452 313.896 106.611C313.885 106.758 313.868 106.911 313.845 107.07L312.961 112H311.465L311.669 110.844H311.601C311.329 111.241 310.955 111.581 310.479 111.864C310.003 112.136 309.47 112.272 308.881 112.272C308.473 112.272 308.093 112.21 307.742 112.085C307.391 111.972 307.085 111.802 306.824 111.575C306.575 111.348 306.376 111.082 306.229 110.776C306.082 110.459 306.008 110.102 306.008 109.705C306.008 109.229 306.11 108.798 306.314 108.413C306.529 108.028 306.818 107.705 307.181 107.444C307.544 107.172 307.969 106.962 308.456 106.815C308.955 106.668 309.493 106.594 310.071 106.594C310.536 106.594 310.944 106.645 311.295 106.747C311.658 106.838 312.003 106.957 312.332 107.104L312.4 106.747C312.423 106.656 312.434 106.543 312.434 106.407C312.434 105.92 312.258 105.529 311.907 105.234C311.556 104.939 311.091 104.792 310.513 104.792C310.071 104.792 309.674 104.877 309.323 105.047C308.983 105.217 308.649 105.5 308.32 105.897L307.096 105.03C307.493 104.497 307.997 104.095 308.609 103.823C309.232 103.54 309.918 103.398 310.666 103.398ZM309.204 110.878C309.555 110.878 309.89 110.816 310.207 110.691C310.536 110.566 310.825 110.396 311.074 110.181C311.335 109.954 311.556 109.694 311.737 109.399C311.918 109.093 312.037 108.77 312.094 108.43C311.958 108.328 311.788 108.232 311.584 108.141C311.403 108.073 311.176 108.011 310.904 107.954C310.643 107.886 310.326 107.852 309.952 107.852C309.669 107.852 309.385 107.886 309.102 107.954C308.83 108.022 308.586 108.13 308.371 108.277C308.156 108.424 307.98 108.606 307.844 108.821C307.708 109.036 307.64 109.286 307.64 109.569C307.64 109.784 307.685 109.977 307.776 110.147C307.867 110.306 307.98 110.442 308.116 110.555C308.263 110.657 308.428 110.736 308.609 110.793C308.802 110.85 309 110.878 309.204 110.878ZM317.088 104.826H317.156C317.439 104.418 317.825 104.078 318.312 103.806C318.799 103.534 319.355 103.398 319.978 103.398C320.794 103.398 321.446 103.63 321.933 104.095C322.432 104.56 322.681 105.183 322.681 105.965C322.681 106.135 322.67 106.328 322.647 106.543C322.636 106.758 322.607 106.979 322.562 107.206L321.712 112H320.148L321.032 107.002C321.077 106.775 321.1 106.549 321.1 106.322C321.1 105.812 320.941 105.438 320.624 105.2C320.318 104.951 319.904 104.826 319.383 104.826C319.043 104.826 318.72 104.894 318.414 105.03C318.119 105.166 317.853 105.353 317.615 105.591C317.388 105.818 317.196 106.09 317.037 106.407C316.878 106.713 316.771 107.042 316.714 107.393L315.898 112H314.334L315.796 103.67H317.292L317.088 104.826ZM331.47 110.028C331.028 110.765 330.461 111.326 329.77 111.711C329.079 112.085 328.336 112.272 327.543 112.272C326.931 112.272 326.387 112.17 325.911 111.966C325.446 111.762 325.05 111.49 324.721 111.15C324.404 110.799 324.16 110.396 323.99 109.943C323.831 109.478 323.752 108.985 323.752 108.464C323.752 107.818 323.86 107.195 324.075 106.594C324.302 105.982 324.625 105.438 325.044 104.962C325.463 104.486 325.968 104.106 326.557 103.823C327.158 103.54 327.826 103.398 328.563 103.398C329.141 103.398 329.651 103.489 330.093 103.67C330.535 103.851 330.903 104.101 331.198 104.418C331.493 104.735 331.714 105.104 331.861 105.523C332.008 105.942 332.082 106.396 332.082 106.883C332.082 107.087 332.071 107.302 332.048 107.529C332.025 107.756 331.986 107.954 331.929 108.124H325.367C325.356 108.237 325.35 108.328 325.35 108.396C325.35 108.464 325.35 108.538 325.35 108.617C325.35 108.991 325.412 109.32 325.537 109.603C325.673 109.886 325.849 110.119 326.064 110.3C326.279 110.481 326.523 110.617 326.795 110.708C327.067 110.799 327.345 110.844 327.628 110.844C328.195 110.844 328.699 110.708 329.141 110.436C329.594 110.164 329.968 109.801 330.263 109.348L331.47 110.028ZM330.501 106.832V106.645C330.501 106.407 330.456 106.18 330.365 105.965C330.286 105.738 330.155 105.546 329.974 105.387C329.804 105.217 329.589 105.081 329.328 104.979C329.067 104.877 328.761 104.826 328.41 104.826C327.73 104.826 327.146 105.013 326.659 105.387C326.183 105.75 325.849 106.231 325.656 106.832H330.501ZM332.662 112L334.804 99.828H336.368L334.226 112H332.662Z" fill="#C17766"/>
<path d="M55.7734 66.1309C55.3757 66.3424 55.0583 66.5286 54.8213 66.6895C54.5843 66.8503 54.3854 67.0534 54.2246 67.2988C54.0723 67.5443 53.9961 67.8405 53.9961 68.1875C54.123 68.3737 54.2712 68.5218 54.4404 68.6318C54.6182 68.7419 54.834 68.818 55.0879 68.8604C55.9766 69.0212 56.4209 69.4993 56.4209 70.2949C56.4209 70.7689 56.2559 71.1624 55.9258 71.4756C55.5957 71.7887 55.1683 71.9453 54.6436 71.9453C54.195 71.9453 53.7972 71.8353 53.4502 71.6152C53.1032 71.3952 52.8324 71.0863 52.6377 70.6885C52.4515 70.2907 52.3584 69.8379 52.3584 69.3301C52.3584 68.7122 52.4938 68.1071 52.7646 67.5146C53.0439 66.9137 53.446 66.4017 53.9707 65.9785C54.4954 65.5553 55.109 65.2803 55.8115 65.1533C56.0485 65.348 56.2008 65.585 56.2686 65.8643L55.7734 66.1309ZM61.1689 66.1309C60.7712 66.3424 60.4538 66.5286 60.2168 66.6895C59.9798 66.8503 59.7809 67.0534 59.6201 67.2988C59.4678 67.5443 59.3916 67.8405 59.3916 68.1875C59.6286 68.5514 59.9925 68.7757 60.4834 68.8604C61.3636 69.0212 61.8037 69.4993 61.8037 70.2949C61.8037 70.7689 61.6387 71.1624 61.3086 71.4756C60.987 71.7887 60.5638 71.9453 60.0391 71.9453C59.5905 71.9453 59.1927 71.8353 58.8457 71.6152C58.4987 71.3952 58.2279 71.0863 58.0332 70.6885C57.847 70.2907 57.7539 69.8379 57.7539 69.3301C57.7539 68.7122 57.8893 68.1071 58.1602 67.5146C58.4395 66.9137 58.8415 66.4017 59.3662 65.9785C59.891 65.5553 60.5046 65.2803 61.207 65.1533C61.444 65.348 61.5964 65.585 61.6641 65.8643L61.1689 66.1309ZM69.6748 78.6992C69.6748 79.3424 69.7298 79.8164 69.8398 80.1211C69.9583 80.4258 70.1149 80.6289 70.3096 80.7305C70.5127 80.832 70.8301 80.9209 71.2617 80.9971C71.7611 81.0817 72.2054 81.1917 72.5947 81.3271L72.5693 82H64.127V81.3398C64.3724 81.2298 64.5924 81.1536 64.7871 81.1113C64.9902 81.0605 65.2441 81.0098 65.5488 80.959C65.9297 80.9082 66.209 80.8363 66.3867 80.7432C66.5645 80.6416 66.6999 80.4215 66.793 80.083C66.8945 79.7445 66.9453 79.207 66.9453 78.4707V68.9238C66.9453 68.2298 66.8861 67.7178 66.7676 67.3877C66.6491 67.0576 66.4925 66.846 66.2979 66.7529C66.1117 66.6598 65.8324 66.5879 65.46 66.5371C65.1553 66.4863 64.9014 66.4355 64.6982 66.3848C64.5036 66.334 64.2962 66.2451 64.0762 66.1182L64.1016 65.4707H72.5186L72.5439 66.1309C72.3662 66.1986 72.1123 66.2705 71.7822 66.3467C71.3167 66.4652 70.9443 66.5837 70.665 66.7021C70.3857 66.8206 70.1488 67.0068 69.9541 67.2607C69.7679 67.5062 69.6748 67.8447 69.6748 68.2764V78.6992ZM90 67.083C89.89 66.9137 89.6742 66.7445 89.3525 66.5752C89.0394 66.4059 88.7305 66.262 88.4258 66.1436C88.1296 66.0251 87.9349 65.9531 87.8418 65.9277L87.8672 65.4834L91.4473 64.6201L92.3613 64.5312V79.4736C92.3613 79.9814 92.5771 80.3454 93.0088 80.5654C93.4489 80.7855 93.9186 80.8955 94.418 80.8955V81.5938L91.0283 82.1523H90.1777L90.0635 80.1846C89.4626 80.8786 88.832 81.3991 88.1719 81.7461C87.5117 82.0846 86.805 82.2539 86.0518 82.2539C85.0954 82.2539 84.2194 82.0254 83.4238 81.5684C82.6367 81.1029 82.0146 80.4554 81.5576 79.626C81.1006 78.7881 80.8721 77.8275 80.8721 76.7441C80.8721 75.5 81.126 74.387 81.6338 73.4053C82.1501 72.4235 82.8568 71.6576 83.7539 71.1074C84.651 70.5573 85.654 70.2822 86.7627 70.2822C87.279 70.2822 87.7826 70.3626 88.2734 70.5234C88.7643 70.6758 89.3398 70.9085 90 71.2217V67.083ZM90 75.5254C90 74.7044 89.9281 74.0443 89.7842 73.5449C89.6403 73.0371 89.3483 72.5885 88.9082 72.1992C88.5697 71.903 88.2057 71.6745 87.8164 71.5137C87.4271 71.3444 87.0335 71.2598 86.6357 71.2598C85.9671 71.2598 85.3747 71.4756 84.8584 71.9072C84.3421 72.3389 83.9401 72.9144 83.6523 73.6338C83.373 74.3447 83.2334 75.1149 83.2334 75.9443C83.2334 76.7484 83.373 77.5186 83.6523 78.2549C83.9401 78.9827 84.3675 79.5794 84.9346 80.0449C85.5016 80.5104 86.1872 80.7432 86.9912 80.7432C87.6344 80.7432 88.2057 80.6035 88.7051 80.3242C89.2129 80.0365 89.6445 79.6556 90 79.1816V75.5254ZM101.769 70.2441C102.894 70.2441 103.918 70.4896 104.841 70.9805C105.772 71.4629 106.508 72.1569 107.05 73.0625C107.591 73.9596 107.862 75.0049 107.862 76.1982C107.862 77.3916 107.591 78.4495 107.05 79.3721C106.508 80.2861 105.785 80.9971 104.879 81.5049C103.973 82.0042 102.983 82.2539 101.908 82.2539C100.842 82.2539 99.8431 81.9958 98.9121 81.4795C97.9811 80.9632 97.2363 80.248 96.6777 79.334C96.1191 78.4115 95.8398 77.3704 95.8398 76.2109C95.8398 75.0514 96.1107 74.0189 96.6523 73.1133C97.194 72.1992 97.9176 71.4925 98.8232 70.9932C99.7373 70.4938 100.719 70.2441 101.769 70.2441ZM102.073 81.2637C103.148 81.2637 103.965 80.8786 104.523 80.1084C105.082 79.3382 105.361 78.3268 105.361 77.0742C105.361 75.9909 105.209 74.9964 104.904 74.0908C104.608 73.1768 104.181 72.4489 103.622 71.9072C103.063 71.3656 102.42 71.0947 101.692 71.0947C101.049 71.0947 100.478 71.2513 99.9785 71.5645C99.4876 71.8776 99.0983 72.36 98.8105 73.0117C98.5228 73.6634 98.3789 74.4801 98.3789 75.4619C98.3789 76.4268 98.5312 77.3577 98.8359 78.2549C99.1406 79.1436 99.5723 79.8672 100.131 80.4258C100.689 80.9844 101.337 81.2637 102.073 81.2637ZM113.804 79.1816C113.804 79.9095 113.986 80.4385 114.35 80.7686C114.722 81.0902 115.285 81.2891 116.038 81.3652C116.038 81.4922 116.034 81.6191 116.025 81.7461C116.017 81.873 116.013 81.9577 116.013 82H109.475L109.462 81.5938C109.462 81.4583 109.466 81.3652 109.475 81.3145C109.965 81.196 110.334 81.0902 110.579 80.9971C110.833 80.904 111.04 80.7516 111.201 80.54C111.362 80.3285 111.442 80.0322 111.442 79.6514V72.7705C111.341 72.5758 111.142 72.4023 110.846 72.25C110.549 72.0892 110.236 71.958 109.906 71.8564C109.585 71.7464 109.424 71.6956 109.424 71.7041L109.462 71.2725L112.928 70.4092L113.702 70.3584L113.842 72.415C114.307 71.7887 114.9 71.2725 115.619 70.8662C116.347 70.4515 117.13 70.2441 117.968 70.2441C119.195 70.2441 120.147 70.5911 120.824 71.2852C121.501 71.9792 121.869 73.016 121.929 74.3955C121.954 74.9372 121.967 75.4915 121.967 76.0586V78.8896C121.967 79.5075 122.005 79.9561 122.081 80.2354C122.157 80.5146 122.276 80.7093 122.437 80.8193C122.606 80.9209 122.885 81.0309 123.274 81.1494L123.808 81.3145C123.816 81.3652 123.82 81.4583 123.82 81.5938L123.808 82H117.549C117.549 81.9492 117.545 81.8646 117.536 81.7461C117.528 81.6191 117.523 81.4922 117.523 81.3652C117.583 81.3398 117.752 81.2891 118.031 81.2129C118.48 81.0859 118.827 80.9505 119.072 80.8066C119.326 80.6628 119.479 80.43 119.529 80.1084C119.572 79.863 119.593 79.5371 119.593 79.1309V76.2998C119.593 75.1742 119.55 74.3066 119.466 73.6973C119.39 73.0879 119.178 72.5885 118.831 72.1992C118.493 71.8099 117.942 71.6152 117.181 71.6152C116.58 71.6152 116 71.7887 115.441 72.1357C114.891 72.4827 114.345 72.944 113.804 73.5195V79.1816ZM125.204 66.7656C125.204 66.3594 125.318 66.042 125.547 65.8135C125.775 65.585 126.093 65.4707 126.499 65.4707C126.905 65.4707 127.218 65.585 127.438 65.8135C127.667 66.042 127.781 66.3594 127.781 66.7656C127.781 67.1973 127.705 67.887 127.553 68.835C127.4 69.7744 127.214 70.6123 126.994 71.3486C126.774 72.0765 126.554 72.4404 126.334 72.4404C126.207 72.1442 126.055 71.5941 125.877 70.79C125.699 69.986 125.543 69.182 125.407 68.3779C125.272 67.5654 125.204 67.028 125.204 66.7656ZM133.507 78.0137C133.507 78.877 133.536 79.4948 133.596 79.8672C133.655 80.2311 133.799 80.4977 134.027 80.667C134.256 80.8278 134.641 80.9082 135.183 80.9082C135.504 80.9082 135.826 80.8786 136.147 80.8193C136.469 80.7601 136.74 80.6966 136.96 80.6289L137.062 81.5557C136.63 81.7673 136.194 81.9365 135.754 82.0635C135.314 82.1904 134.785 82.2539 134.167 82.2539C133.346 82.2539 132.72 82.1185 132.288 81.8477C131.856 81.5768 131.556 81.141 131.387 80.54C131.217 79.9307 131.133 79.0758 131.133 77.9756V71.5391H129.241V71.0947C129.817 70.8662 130.299 70.5996 130.688 70.2949C131.086 69.9818 131.412 69.6602 131.666 69.3301C131.92 69 132.225 68.5641 132.58 68.0225C132.732 67.777 132.851 67.6162 132.936 67.54C133.02 67.4554 133.105 67.4131 133.189 67.4131C133.274 67.4131 133.342 67.4554 133.393 67.54C133.452 67.6162 133.481 67.7389 133.481 67.9082V70.5869H136.668V71.5391H133.507V78.0137ZM154.061 67.083C153.951 66.9137 153.735 66.7445 153.413 66.5752C153.1 66.4059 152.791 66.262 152.486 66.1436C152.19 66.0251 151.995 65.9531 151.902 65.9277L151.928 65.4834L155.508 64.6201L156.422 64.5312V79.4736C156.422 79.9814 156.638 80.3454 157.069 80.5654C157.509 80.7855 157.979 80.8955 158.479 80.8955V81.5938L155.089 82.1523H154.238L154.124 80.1846C153.523 80.8786 152.893 81.3991 152.232 81.7461C151.572 82.0846 150.866 82.2539 150.112 82.2539C149.156 82.2539 148.28 82.0254 147.484 81.5684C146.697 81.1029 146.075 80.4554 145.618 79.626C145.161 78.7881 144.933 77.8275 144.933 76.7441C144.933 75.5 145.187 74.387 145.694 73.4053C146.211 72.4235 146.917 71.6576 147.814 71.1074C148.712 70.5573 149.715 70.2822 150.823 70.2822C151.34 70.2822 151.843 70.3626 152.334 70.5234C152.825 70.6758 153.4 70.9085 154.061 71.2217V67.083ZM154.061 75.5254C154.061 74.7044 153.989 74.0443 153.845 73.5449C153.701 73.0371 153.409 72.5885 152.969 72.1992C152.63 71.903 152.266 71.6745 151.877 71.5137C151.488 71.3444 151.094 71.2598 150.696 71.2598C150.028 71.2598 149.435 71.4756 148.919 71.9072C148.403 72.3389 148.001 72.9144 147.713 73.6338C147.434 74.3447 147.294 75.1149 147.294 75.9443C147.294 76.7484 147.434 77.5186 147.713 78.2549C148.001 78.9827 148.428 79.5794 148.995 80.0449C149.562 80.5104 150.248 80.7432 151.052 80.7432C151.695 80.7432 152.266 80.6035 152.766 80.3242C153.273 80.0365 153.705 79.6556 154.061 79.1816V75.5254ZM165.829 70.2441C166.955 70.2441 167.979 70.4896 168.901 70.9805C169.832 71.4629 170.569 72.1569 171.11 73.0625C171.652 73.9596 171.923 75.0049 171.923 76.1982C171.923 77.3916 171.652 78.4495 171.11 79.3721C170.569 80.2861 169.845 80.9971 168.939 81.5049C168.034 82.0042 167.044 82.2539 165.969 82.2539C164.902 82.2539 163.904 81.9958 162.973 81.4795C162.042 80.9632 161.297 80.248 160.738 79.334C160.18 78.4115 159.9 77.3704 159.9 76.2109C159.9 75.0514 160.171 74.0189 160.713 73.1133C161.255 72.1992 161.978 71.4925 162.884 70.9932C163.798 70.4938 164.78 70.2441 165.829 70.2441ZM166.134 81.2637C167.209 81.2637 168.025 80.8786 168.584 80.1084C169.143 79.3382 169.422 78.3268 169.422 77.0742C169.422 75.9909 169.27 74.9964 168.965 74.0908C168.669 73.1768 168.241 72.4489 167.683 71.9072C167.124 71.3656 166.481 71.0947 165.753 71.0947C165.11 71.0947 164.538 71.2513 164.039 71.5645C163.548 71.8776 163.159 72.36 162.871 73.0117C162.583 73.6634 162.439 74.4801 162.439 75.4619C162.439 76.4268 162.592 77.3577 162.896 78.2549C163.201 79.1436 163.633 79.8672 164.191 80.4258C164.75 80.9844 165.397 81.2637 166.134 81.2637ZM184.821 78.7119C184.821 79.2197 184.847 79.6302 184.897 79.9434C184.957 80.248 185.168 80.5527 185.532 80.8574C185.905 81.1536 186.506 81.3229 187.335 81.3652C187.335 81.6276 187.331 81.8392 187.322 82H180.2C180.183 81.6784 180.175 81.4668 180.175 81.3652C180.378 81.306 180.577 81.2552 180.771 81.2129C181.229 81.0944 181.563 80.9844 181.774 80.8828C181.986 80.7812 182.151 80.612 182.27 80.375C182.396 80.1296 182.46 79.7614 182.46 79.2705V71.5391H180.479L180.454 70.5869H181.33C181.643 70.5869 181.868 70.5742 182.003 70.5488C182.138 70.515 182.24 70.4346 182.308 70.3076C182.375 70.1807 182.409 69.9691 182.409 69.6729C182.443 68.0225 182.854 66.7572 183.641 65.877C184.428 64.9967 185.541 64.5566 186.979 64.5566C187.86 64.5566 188.592 64.7217 189.176 65.0518C189.76 65.3734 190.052 65.8177 190.052 66.3848C190.052 66.7148 189.946 66.9899 189.734 67.21C189.523 67.4215 189.231 67.5273 188.858 67.5273C188.554 67.5273 188.321 67.4385 188.16 67.2607C188.008 67.0745 187.851 66.7995 187.69 66.4355C187.53 66.0716 187.373 65.8008 187.221 65.623C187.077 65.4453 186.857 65.3564 186.561 65.3564C186.171 65.3564 185.85 65.4665 185.596 65.6865C185.35 65.9066 185.16 66.2874 185.024 66.8291C184.889 67.3623 184.821 68.0986 184.821 69.0381V70.5869H187.741L187.767 71.5391H184.821V78.7119ZM196.641 74.2686C196.641 73.6338 196.581 73.0964 196.463 72.6562C196.353 72.2161 196.124 71.8607 195.777 71.5898C195.439 71.319 194.952 71.1836 194.317 71.1836C194.097 71.1836 193.826 71.2301 193.505 71.3232C193.183 71.4163 192.9 71.5518 192.654 71.7295C192.417 71.8988 192.299 72.0977 192.299 72.3262C192.299 72.4193 192.316 72.5124 192.35 72.6055C192.383 72.6901 192.438 72.8001 192.515 72.9355C192.591 73.0625 192.646 73.1725 192.68 73.2656C192.714 73.3587 192.73 73.4561 192.73 73.5576C192.73 73.8962 192.62 74.1797 192.4 74.4082C192.189 74.6283 191.914 74.7383 191.575 74.7383C191.152 74.7383 190.813 74.5817 190.56 74.2686C190.314 73.9554 190.191 73.5788 190.191 73.1387C190.191 72.4785 190.45 71.9326 190.966 71.501C191.482 71.0693 192.104 70.752 192.832 70.5488C193.568 70.3457 194.254 70.2441 194.889 70.2441C196.082 70.2441 196.971 70.4219 197.555 70.7773C198.147 71.1243 198.536 71.6364 198.723 72.3135C198.917 72.9821 199.015 73.9215 199.015 75.1318L198.989 75.7666C198.981 75.9528 198.968 76.2617 198.951 76.6934C198.943 77.125 198.938 77.5228 198.938 77.8867C198.938 79.791 199.137 80.7432 199.535 80.7432C199.823 80.7432 200.195 80.4512 200.652 79.8672L201.186 80.4385C200.813 81.0479 200.445 81.5049 200.081 81.8096C199.717 82.1058 199.239 82.2539 198.646 82.2539C198.088 82.2539 197.627 82.0804 197.263 81.7334C196.907 81.3779 196.713 80.9209 196.679 80.3623C196.137 80.9548 195.528 81.4202 194.851 81.7588C194.182 82.0889 193.471 82.2539 192.718 82.2539C192.193 82.2539 191.706 82.1608 191.258 81.9746C190.818 81.7799 190.462 81.4922 190.191 81.1113C189.929 80.7305 189.798 80.2734 189.798 79.7402C189.798 78.9362 190.107 78.2676 190.725 77.7344C191.342 77.2012 192.053 76.7949 192.857 76.5156C193.661 76.2363 194.643 75.957 195.803 75.6777C195.904 75.6608 196.184 75.5931 196.641 75.4746V74.2686ZM196.641 76.2236C196.514 76.266 196.353 76.3167 196.158 76.376C195.43 76.613 194.808 76.8415 194.292 77.0615C193.776 77.2731 193.314 77.5609 192.908 77.9248C192.502 78.2887 192.299 78.7161 192.299 79.207C192.299 79.7064 192.434 80.0999 192.705 80.3877C192.984 80.6755 193.374 80.8193 193.873 80.8193C194.372 80.8193 194.855 80.6966 195.32 80.4512C195.786 80.1973 196.226 79.8672 196.641 79.4609V76.2236ZM210.288 73.9893C210.17 73.9977 209.971 74.002 209.691 74.002C209.446 73.1471 209.074 72.4489 208.574 71.9072C208.083 71.3656 207.453 71.0947 206.683 71.0947C206.149 71.0947 205.726 71.2259 205.413 71.4883C205.108 71.7507 204.956 72.1315 204.956 72.6309C204.956 72.9779 205.083 73.2995 205.337 73.5957C205.591 73.8919 205.9 74.1543 206.264 74.3828C206.636 74.6029 207.123 74.8652 207.724 75.1699C207.868 75.2376 208.083 75.3477 208.371 75.5C209.319 76.0078 210.009 76.5283 210.44 77.0615C210.881 77.5863 211.101 78.2295 211.101 78.9912C211.101 79.6937 210.927 80.2904 210.58 80.7812C210.233 81.2637 209.755 81.6318 209.146 81.8857C208.536 82.1312 207.838 82.2539 207.051 82.2539C206.357 82.2539 205.654 82.1693 204.943 82C204.232 81.8392 203.648 81.6191 203.191 81.3398V78.2422C203.521 78.1999 203.746 78.1787 203.864 78.1787C204.059 79.1182 204.402 79.8841 204.893 80.4766C205.392 81.069 206.073 81.3652 206.937 81.3652C207.554 81.3652 208.066 81.2129 208.473 80.9082C208.887 80.5951 209.095 80.1846 209.095 79.6768C209.095 79.3551 209.002 79.0716 208.815 78.8262C208.629 78.5807 208.388 78.3649 208.092 78.1787C207.796 77.9925 207.351 77.7428 206.759 77.4297C205.963 77.0065 205.358 76.6637 204.943 76.4014C204.3 76.0036 203.813 75.5592 203.483 75.0684C203.162 74.5775 203.001 73.9935 203.001 73.3164C203.001 72.6647 203.166 72.1104 203.496 71.6533C203.826 71.1878 204.275 70.8366 204.842 70.5996C205.409 70.3626 206.048 70.2441 206.759 70.2441C207.41 70.2441 208.028 70.3245 208.612 70.4854C209.205 70.6462 209.738 70.8747 210.212 71.1709L210.288 73.9893ZM225.548 79.1943C225.548 79.846 225.713 80.3581 226.043 80.7305C226.382 81.0944 226.86 81.306 227.478 81.3652C227.478 81.4922 227.473 81.6191 227.465 81.7461C227.456 81.8646 227.452 81.9492 227.452 82H221.206C221.206 81.9492 221.202 81.8646 221.193 81.7461C221.185 81.6191 221.181 81.4922 221.181 81.3652C221.325 81.2975 221.604 81.2002 222.019 81.0732C222.34 80.9717 222.573 80.8786 222.717 80.7939C222.869 80.7008 222.983 80.54 223.06 80.3115C223.144 80.083 223.187 79.7402 223.187 79.2832V74.6748C223.187 73.7438 222.988 73.0033 222.59 72.4531C222.201 71.8945 221.587 71.6152 220.749 71.6152C220.148 71.6152 219.564 71.776 218.997 72.0977C218.438 72.4108 217.922 72.8171 217.448 73.3164V79.042C217.448 79.8037 217.622 80.3623 217.969 80.7178C218.316 81.0732 218.883 81.2891 219.67 81.3652L219.657 82H212.891C212.891 81.9492 212.886 81.8646 212.878 81.7461C212.869 81.6191 212.865 81.4922 212.865 81.3652C214.346 81.2467 215.087 80.4723 215.087 79.042V67.2227C215.002 67.0957 214.816 66.9434 214.528 66.7656C214.241 66.5794 213.936 66.4144 213.614 66.2705C213.301 66.1266 213.068 66.0462 212.916 66.0293V65.585L216.547 64.6201L217.448 64.5312V72.25C218.117 71.5814 218.773 71.082 219.416 70.752C220.059 70.4134 220.804 70.2441 221.65 70.2441C222.827 70.2441 223.771 70.6208 224.481 71.374C225.192 72.1188 225.548 73.2572 225.548 74.7891V79.1943ZM231.54 64.5312C231.946 64.5312 232.293 64.6751 232.581 64.9629C232.869 65.2507 233.013 65.5977 233.013 66.0039C233.013 66.4186 232.869 66.7699 232.581 67.0576C232.293 67.3369 231.946 67.4766 231.54 67.4766C231.125 67.4766 230.774 67.3369 230.486 67.0576C230.207 66.7699 230.067 66.4186 230.067 66.0039C230.067 65.5977 230.207 65.2507 230.486 64.9629C230.774 64.6751 231.125 64.5312 231.54 64.5312ZM230.524 72.7705C230.414 72.5758 230.207 72.4023 229.902 72.25C229.606 72.0892 229.297 71.958 228.976 71.8564C228.662 71.7464 228.506 71.6956 228.506 71.7041L228.531 71.2598L232.099 70.3965L232.886 70.3457V79.207C232.886 79.5033 232.915 79.7826 232.975 80.0449C233.042 80.3073 233.237 80.5739 233.559 80.8447C233.889 81.1156 234.405 81.2891 235.107 81.3652C235.107 81.6445 235.103 81.8561 235.095 82H228.468C228.451 81.8477 228.442 81.6361 228.442 81.3652L228.798 81.2637C229.17 81.1621 229.471 81.0605 229.699 80.959C229.928 80.8574 230.122 80.7093 230.283 80.5146C230.444 80.3115 230.524 80.0407 230.524 79.7021V72.7705ZM242.331 70.2441C243.457 70.2441 244.481 70.4896 245.403 70.9805C246.334 71.4629 247.071 72.1569 247.612 73.0625C248.154 73.9596 248.425 75.0049 248.425 76.1982C248.425 77.3916 248.154 78.4495 247.612 79.3721C247.071 80.2861 246.347 80.9971 245.441 81.5049C244.536 82.0042 243.546 82.2539 242.471 82.2539C241.404 82.2539 240.406 81.9958 239.475 81.4795C238.544 80.9632 237.799 80.248 237.24 79.334C236.682 78.4115 236.402 77.3704 236.402 76.2109C236.402 75.0514 236.673 74.0189 237.215 73.1133C237.757 72.1992 238.48 71.4925 239.386 70.9932C240.3 70.4938 241.282 70.2441 242.331 70.2441ZM242.636 81.2637C243.711 81.2637 244.527 80.8786 245.086 80.1084C245.645 79.3382 245.924 78.3268 245.924 77.0742C245.924 75.9909 245.771 74.9964 245.467 74.0908C245.171 73.1768 244.743 72.4489 244.185 71.9072C243.626 71.3656 242.983 71.0947 242.255 71.0947C241.612 71.0947 241.04 71.2513 240.541 71.5645C240.05 71.8776 239.661 72.36 239.373 73.0117C239.085 73.6634 238.941 74.4801 238.941 75.4619C238.941 76.4268 239.094 77.3577 239.398 78.2549C239.703 79.1436 240.135 79.8672 240.693 80.4258C241.252 80.9844 241.899 81.2637 242.636 81.2637ZM254.366 79.1816C254.366 79.9095 254.548 80.4385 254.912 80.7686C255.285 81.0902 255.847 81.2891 256.601 81.3652C256.601 81.4922 256.596 81.6191 256.588 81.7461C256.579 81.873 256.575 81.9577 256.575 82H250.037L250.024 81.5938C250.024 81.4583 250.029 81.3652 250.037 81.3145C250.528 81.196 250.896 81.0902 251.142 80.9971C251.396 80.904 251.603 80.7516 251.764 80.54C251.924 80.3285 252.005 80.0322 252.005 79.6514V72.7705C251.903 72.5758 251.704 72.4023 251.408 72.25C251.112 72.0892 250.799 71.958 250.469 71.8564C250.147 71.7464 249.986 71.6956 249.986 71.7041L250.024 71.2725L253.49 70.4092L254.265 70.3584L254.404 72.415C254.87 71.7887 255.462 71.2725 256.182 70.8662C256.91 70.4515 257.692 70.2441 258.53 70.2441C259.757 70.2441 260.71 70.5911 261.387 71.2852C262.064 71.9792 262.432 73.016 262.491 74.3955C262.517 74.9372 262.529 75.4915 262.529 76.0586V78.8896C262.529 79.5075 262.567 79.9561 262.644 80.2354C262.72 80.5146 262.838 80.7093 262.999 80.8193C263.168 80.9209 263.448 81.0309 263.837 81.1494L264.37 81.3145C264.379 81.3652 264.383 81.4583 264.383 81.5938L264.37 82H258.111C258.111 81.9492 258.107 81.8646 258.099 81.7461C258.09 81.6191 258.086 81.4922 258.086 81.3652C258.145 81.3398 258.314 81.2891 258.594 81.2129C259.042 81.0859 259.389 80.9505 259.635 80.8066C259.889 80.6628 260.041 80.43 260.092 80.1084C260.134 79.863 260.155 79.5371 260.155 79.1309V76.2998C260.155 75.1742 260.113 74.3066 260.028 73.6973C259.952 73.0879 259.741 72.5885 259.394 72.1992C259.055 71.8099 258.505 71.6152 257.743 71.6152C257.142 71.6152 256.562 71.7887 256.004 72.1357C255.454 72.4827 254.908 72.944 254.366 73.5195V79.1816ZM269.981 80.5273C269.981 80.832 269.901 81.1156 269.74 81.3779C269.588 81.6403 269.376 81.8519 269.105 82.0127C268.843 82.1735 268.551 82.2539 268.229 82.2539C267.916 82.2539 267.624 82.1735 267.354 82.0127C267.091 81.8604 266.88 81.653 266.719 81.3906C266.566 81.1198 266.49 80.832 266.49 80.5273C266.49 80.2227 266.566 79.9391 266.719 79.6768C266.88 79.4144 267.091 79.207 267.354 79.0547C267.624 78.8939 267.916 78.8135 268.229 78.8135C268.551 78.8135 268.843 78.8939 269.105 79.0547C269.376 79.207 269.588 79.4144 269.74 79.6768C269.901 79.9391 269.981 80.2227 269.981 80.5273ZM284.327 78.6992C284.327 79.3424 284.382 79.8164 284.492 80.1211C284.611 80.4258 284.767 80.6289 284.962 80.7305C285.165 80.832 285.482 80.9209 285.914 80.9971C286.413 81.0817 286.858 81.1917 287.247 81.3271L287.222 82H278.779V81.3398C279.025 81.2298 279.245 81.1536 279.439 81.1113C279.643 81.0605 279.896 81.0098 280.201 80.959C280.582 80.9082 280.861 80.8363 281.039 80.7432C281.217 80.6416 281.352 80.4215 281.445 80.083C281.547 79.7445 281.598 79.207 281.598 78.4707V68.9238C281.598 68.2298 281.538 67.7178 281.42 67.3877C281.301 67.0576 281.145 66.846 280.95 66.7529C280.764 66.6598 280.485 66.5879 280.112 66.5371C279.808 66.4863 279.554 66.4355 279.351 66.3848C279.156 66.334 278.949 66.2451 278.729 66.1182L278.754 65.4707H287.171L287.196 66.1309C287.019 66.1986 286.765 66.2705 286.435 66.3467C285.969 66.4652 285.597 66.5837 285.317 66.7021C285.038 66.8206 284.801 67.0068 284.606 67.2607C284.42 67.5062 284.327 67.8447 284.327 68.2764V78.6992ZM302.215 74.2686C302.215 73.6338 302.156 73.0964 302.037 72.6562C301.927 72.2161 301.699 71.8607 301.352 71.5898C301.013 71.319 300.526 71.1836 299.892 71.1836C299.672 71.1836 299.401 71.2301 299.079 71.3232C298.757 71.4163 298.474 71.5518 298.229 71.7295C297.992 71.8988 297.873 72.0977 297.873 72.3262C297.873 72.4193 297.89 72.5124 297.924 72.6055C297.958 72.6901 298.013 72.8001 298.089 72.9355C298.165 73.0625 298.22 73.1725 298.254 73.2656C298.288 73.3587 298.305 73.4561 298.305 73.5576C298.305 73.8962 298.195 74.1797 297.975 74.4082C297.763 74.6283 297.488 74.7383 297.149 74.7383C296.726 74.7383 296.388 74.5817 296.134 74.2686C295.888 73.9554 295.766 73.5788 295.766 73.1387C295.766 72.4785 296.024 71.9326 296.54 71.501C297.056 71.0693 297.678 70.752 298.406 70.5488C299.143 70.3457 299.828 70.2441 300.463 70.2441C301.656 70.2441 302.545 70.4219 303.129 70.7773C303.721 71.1243 304.111 71.6364 304.297 72.3135C304.492 72.9821 304.589 73.9215 304.589 75.1318L304.563 75.7666C304.555 75.9528 304.542 76.2617 304.525 76.6934C304.517 77.125 304.513 77.5228 304.513 77.8867C304.513 79.791 304.712 80.7432 305.109 80.7432C305.397 80.7432 305.77 80.4512 306.227 79.8672L306.76 80.4385C306.387 81.0479 306.019 81.5049 305.655 81.8096C305.291 82.1058 304.813 82.2539 304.221 82.2539C303.662 82.2539 303.201 82.0804 302.837 81.7334C302.481 81.3779 302.287 80.9209 302.253 80.3623C301.711 80.9548 301.102 81.4202 300.425 81.7588C299.756 82.0889 299.045 82.2539 298.292 82.2539C297.767 82.2539 297.281 82.1608 296.832 81.9746C296.392 81.7799 296.036 81.4922 295.766 81.1113C295.503 80.7305 295.372 80.2734 295.372 79.7402C295.372 78.9362 295.681 78.2676 296.299 77.7344C296.917 77.2012 297.628 76.7949 298.432 76.5156C299.236 76.2363 300.217 75.957 301.377 75.6777C301.479 75.6608 301.758 75.5931 302.215 75.4746V74.2686ZM302.215 76.2236C302.088 76.266 301.927 76.3167 301.732 76.376C301.005 76.613 300.382 76.8415 299.866 77.0615C299.35 77.2731 298.889 77.5609 298.482 77.9248C298.076 78.2887 297.873 78.7161 297.873 79.207C297.873 79.7064 298.008 80.0999 298.279 80.3877C298.559 80.6755 298.948 80.8193 299.447 80.8193C299.947 80.8193 300.429 80.6966 300.895 80.4512C301.36 80.1973 301.8 79.8672 302.215 79.4609V76.2236ZM312.054 79.0166C312.054 79.6598 312.155 80.1423 312.358 80.4639C312.562 80.777 312.794 80.9801 313.057 81.0732C313.319 81.1663 313.729 81.2637 314.288 81.3652C314.288 81.4922 314.284 81.6191 314.275 81.7461C314.267 81.873 314.263 81.9577 314.263 82H307.712V81.3271C307.729 81.3187 307.847 81.2848 308.067 81.2256C308.491 81.124 308.838 81.0055 309.108 80.8701C309.379 80.7262 309.544 80.5104 309.604 80.2227C309.646 80.0788 309.671 79.9349 309.68 79.791C309.688 79.6387 309.692 79.4355 309.692 79.1816V72.7832C309.591 72.5801 309.388 72.4023 309.083 72.25C308.787 72.0892 308.478 71.958 308.156 71.8564C307.835 71.7464 307.674 71.6956 307.674 71.7041L307.712 71.2725L311.203 70.4092L311.952 70.3584L312.092 72.4277C312.591 71.776 313.179 71.2513 313.856 70.8535C314.534 70.4473 315.291 70.2441 316.129 70.2441C316.958 70.2441 317.644 70.4134 318.186 70.752C318.727 71.0905 319.142 71.6025 319.43 72.2881C319.836 71.8395 320.221 71.4756 320.585 71.1963C320.949 70.9085 321.355 70.6842 321.804 70.5234C322.252 70.3542 322.76 70.2695 323.327 70.2695C324.436 70.2695 325.325 70.5319 325.993 71.0566C326.67 71.5729 327.055 72.36 327.148 73.418C327.216 74.2135 327.25 75.0133 327.25 75.8174V79.1436C327.25 79.5667 327.28 79.9264 327.339 80.2227C327.381 80.4681 327.487 80.6628 327.656 80.8066C327.834 80.9505 328.007 81.0521 328.177 81.1113C328.346 81.1621 328.642 81.2467 329.065 81.3652C329.065 81.4922 329.061 81.6191 329.053 81.7461C329.044 81.8646 329.04 81.9492 329.04 82H322.934C322.934 81.9492 322.929 81.8646 322.921 81.7461C322.912 81.6191 322.908 81.4922 322.908 81.3652C322.951 81.3568 322.997 81.3441 323.048 81.3271C323.107 81.3102 323.166 81.2933 323.226 81.2764C323.666 81.1579 324.017 81.0309 324.279 80.8955C324.542 80.7516 324.707 80.5358 324.774 80.248C324.842 79.9095 324.876 79.5413 324.876 79.1436V74.1035C324.876 73.3079 324.673 72.6943 324.267 72.2627C323.86 71.8226 323.281 71.6025 322.527 71.6025C322.003 71.6025 321.482 71.7591 320.966 72.0723C320.45 72.377 319.993 72.7493 319.595 73.1895C319.646 73.7734 319.671 74.7129 319.671 76.0078V79.0801C319.671 79.5625 319.696 79.9349 319.747 80.1973C319.798 80.502 319.954 80.7262 320.217 80.8701C320.488 81.014 320.843 81.1452 321.283 81.2637C321.52 81.3398 321.634 81.3737 321.626 81.3652C321.626 81.4922 321.622 81.6191 321.613 81.7461C321.605 81.873 321.601 81.9577 321.601 82H315.253C315.253 81.9492 315.249 81.8646 315.24 81.7461C315.232 81.6191 315.228 81.4922 315.228 81.3652C315.261 81.3568 315.465 81.3187 315.837 81.251C316.218 81.1748 316.556 80.9505 316.853 80.5781C317.149 80.1973 317.297 79.7021 317.297 79.0928V74.6748C317.297 73.6846 317.14 72.9271 316.827 72.4023C316.514 71.8776 315.968 71.6152 315.189 71.6152C314.58 71.6152 314.026 71.776 313.526 72.0977C313.035 72.4108 312.545 72.8424 312.054 73.3926V79.0166ZM56.751 111.712C56.751 112.22 56.7764 112.63 56.8271 112.943C56.8864 113.248 57.098 113.553 57.4619 113.857C57.8343 114.154 58.4352 114.323 59.2646 114.365C59.2646 114.628 59.2604 114.839 59.252 115H52.1299C52.113 114.678 52.1045 114.467 52.1045 114.365C52.3076 114.306 52.5065 114.255 52.7012 114.213C53.1582 114.094 53.4925 113.984 53.7041 113.883C53.9157 113.781 54.0807 113.612 54.1992 113.375C54.3262 113.13 54.3896 112.761 54.3896 112.271V104.539H52.4092L52.3838 103.587H53.2598C53.5729 103.587 53.7972 103.574 53.9326 103.549C54.068 103.515 54.1696 103.435 54.2373 103.308C54.305 103.181 54.3389 102.969 54.3389 102.673C54.3727 101.022 54.7832 99.7572 55.5703 98.877C56.3574 97.9967 57.4704 97.5566 58.9092 97.5566C59.7894 97.5566 60.5215 97.7217 61.1055 98.0518C61.6895 98.3734 61.9814 98.8177 61.9814 99.3848C61.9814 99.7148 61.8757 99.9899 61.6641 100.21C61.4525 100.422 61.1605 100.527 60.7881 100.527C60.4834 100.527 60.2507 100.438 60.0898 100.261C59.9375 100.075 59.7809 99.7995 59.6201 99.4355C59.4593 99.0716 59.3027 98.8008 59.1504 98.623C59.0065 98.4453 58.7865 98.3564 58.4902 98.3564C58.1009 98.3564 57.7793 98.4665 57.5254 98.6865C57.2799 98.9066 57.0895 99.2874 56.9541 99.8291C56.8187 100.362 56.751 101.099 56.751 102.038V103.587H59.6709L59.6963 104.539H56.751V111.712ZM68.5703 107.269C68.5703 106.634 68.5111 106.096 68.3926 105.656C68.2826 105.216 68.054 104.861 67.707 104.59C67.3685 104.319 66.8818 104.184 66.2471 104.184C66.027 104.184 65.7562 104.23 65.4346 104.323C65.113 104.416 64.8294 104.552 64.584 104.729C64.347 104.899 64.2285 105.098 64.2285 105.326C64.2285 105.419 64.2454 105.512 64.2793 105.605C64.3132 105.69 64.3682 105.8 64.4443 105.936C64.5205 106.062 64.5755 106.173 64.6094 106.266C64.6432 106.359 64.6602 106.456 64.6602 106.558C64.6602 106.896 64.5501 107.18 64.3301 107.408C64.1185 107.628 63.8434 107.738 63.5049 107.738C63.0817 107.738 62.7432 107.582 62.4893 107.269C62.2438 106.955 62.1211 106.579 62.1211 106.139C62.1211 105.479 62.3792 104.933 62.8955 104.501C63.4118 104.069 64.0339 103.752 64.7617 103.549C65.498 103.346 66.1836 103.244 66.8184 103.244C68.0117 103.244 68.9004 103.422 69.4844 103.777C70.0768 104.124 70.4661 104.636 70.6523 105.313C70.847 105.982 70.9443 106.922 70.9443 108.132L70.9189 108.767C70.9105 108.953 70.8978 109.262 70.8809 109.693C70.8724 110.125 70.8682 110.523 70.8682 110.887C70.8682 112.791 71.0671 113.743 71.4648 113.743C71.7526 113.743 72.125 113.451 72.582 112.867L73.1152 113.438C72.7428 114.048 72.3747 114.505 72.0107 114.81C71.6468 115.106 71.1686 115.254 70.5762 115.254C70.0176 115.254 69.5563 115.08 69.1924 114.733C68.8369 114.378 68.6423 113.921 68.6084 113.362C68.0667 113.955 67.4574 114.42 66.7803 114.759C66.1117 115.089 65.4007 115.254 64.6475 115.254C64.1227 115.254 63.6361 115.161 63.1875 114.975C62.7474 114.78 62.3919 114.492 62.1211 114.111C61.8587 113.73 61.7275 113.273 61.7275 112.74C61.7275 111.936 62.0365 111.268 62.6543 110.734C63.2721 110.201 63.9831 109.795 64.7871 109.516C65.5911 109.236 66.5729 108.957 67.7324 108.678C67.834 108.661 68.1133 108.593 68.5703 108.475V107.269ZM68.5703 109.224C68.4434 109.266 68.2826 109.317 68.0879 109.376C67.36 109.613 66.738 109.841 66.2217 110.062C65.7054 110.273 65.2441 110.561 64.8379 110.925C64.4316 111.289 64.2285 111.716 64.2285 112.207C64.2285 112.706 64.3639 113.1 64.6348 113.388C64.9141 113.675 65.3034 113.819 65.8027 113.819C66.3021 113.819 66.7845 113.697 67.25 113.451C67.7155 113.197 68.1556 112.867 68.5703 112.461V109.224ZM82.2178 106.989C82.0993 106.998 81.9004 107.002 81.6211 107.002C81.3757 106.147 81.0033 105.449 80.5039 104.907C80.013 104.366 79.3825 104.095 78.6123 104.095C78.0791 104.095 77.6559 104.226 77.3428 104.488C77.0381 104.751 76.8857 105.132 76.8857 105.631C76.8857 105.978 77.0127 106.299 77.2666 106.596C77.5205 106.892 77.8294 107.154 78.1934 107.383C78.5658 107.603 79.0524 107.865 79.6533 108.17C79.7972 108.238 80.013 108.348 80.3008 108.5C81.2487 109.008 81.9385 109.528 82.3701 110.062C82.8102 110.586 83.0303 111.229 83.0303 111.991C83.0303 112.694 82.8568 113.29 82.5098 113.781C82.1628 114.264 81.6846 114.632 81.0752 114.886C80.4658 115.131 79.7676 115.254 78.9805 115.254C78.2865 115.254 77.584 115.169 76.873 115C76.1621 114.839 75.5781 114.619 75.1211 114.34V111.242C75.4512 111.2 75.6755 111.179 75.7939 111.179C75.9886 112.118 76.3314 112.884 76.8223 113.477C77.3216 114.069 78.0029 114.365 78.8662 114.365C79.484 114.365 79.9961 114.213 80.4023 113.908C80.8171 113.595 81.0244 113.185 81.0244 112.677C81.0244 112.355 80.9313 112.072 80.7451 111.826C80.5589 111.581 80.3177 111.365 80.0215 111.179C79.7253 110.993 79.2809 110.743 78.6885 110.43C77.8929 110.007 77.2878 109.664 76.873 109.401C76.2298 109.004 75.7432 108.559 75.4131 108.068C75.0915 107.577 74.9307 106.993 74.9307 106.316C74.9307 105.665 75.0957 105.11 75.4258 104.653C75.7559 104.188 76.2044 103.837 76.7715 103.6C77.3385 103.363 77.9775 103.244 78.6885 103.244C79.3402 103.244 79.958 103.325 80.542 103.485C81.1344 103.646 81.6676 103.875 82.1416 104.171L82.2178 106.989ZM97.4775 112.194C97.4775 112.846 97.6426 113.358 97.9727 113.73C98.3112 114.094 98.7894 114.306 99.4072 114.365C99.4072 114.492 99.403 114.619 99.3945 114.746C99.3861 114.865 99.3818 114.949 99.3818 115H93.1357C93.1357 114.949 93.1315 114.865 93.123 114.746C93.1146 114.619 93.1104 114.492 93.1104 114.365C93.2542 114.298 93.5335 114.2 93.9482 114.073C94.2699 113.972 94.5026 113.879 94.6465 113.794C94.7988 113.701 94.9131 113.54 94.9893 113.312C95.0739 113.083 95.1162 112.74 95.1162 112.283V107.675C95.1162 106.744 94.9173 106.003 94.5195 105.453C94.1302 104.895 93.5166 104.615 92.6787 104.615C92.0778 104.615 91.4938 104.776 90.9268 105.098C90.3682 105.411 89.8519 105.817 89.3779 106.316V112.042C89.3779 112.804 89.5514 113.362 89.8984 113.718C90.2454 114.073 90.8125 114.289 91.5996 114.365L91.5869 115H84.8203C84.8203 114.949 84.8161 114.865 84.8076 114.746C84.7992 114.619 84.7949 114.492 84.7949 114.365C86.276 114.247 87.0166 113.472 87.0166 112.042V100.223C86.932 100.096 86.7458 99.9434 86.458 99.7656C86.1702 99.5794 85.8656 99.4144 85.5439 99.2705C85.2308 99.1266 84.998 99.0462 84.8457 99.0293V98.585L88.4766 97.6201L89.3779 97.5312V105.25C90.0465 104.581 90.7025 104.082 91.3457 103.752C91.9889 103.413 92.7337 103.244 93.5801 103.244C94.7565 103.244 95.7002 103.621 96.4111 104.374C97.1221 105.119 97.4775 106.257 97.4775 107.789V112.194ZM103.47 97.5312C103.876 97.5312 104.223 97.6751 104.511 97.9629C104.799 98.2507 104.942 98.5977 104.942 99.0039C104.942 99.4186 104.799 99.7699 104.511 100.058C104.223 100.337 103.876 100.477 103.47 100.477C103.055 100.477 102.704 100.337 102.416 100.058C102.137 99.7699 101.997 99.4186 101.997 99.0039C101.997 98.5977 102.137 98.2507 102.416 97.9629C102.704 97.6751 103.055 97.5312 103.47 97.5312ZM102.454 105.771C102.344 105.576 102.137 105.402 101.832 105.25C101.536 105.089 101.227 104.958 100.905 104.856C100.592 104.746 100.436 104.696 100.436 104.704L100.461 104.26L104.028 103.396L104.815 103.346V112.207C104.815 112.503 104.845 112.783 104.904 113.045C104.972 113.307 105.167 113.574 105.488 113.845C105.818 114.116 106.335 114.289 107.037 114.365C107.037 114.645 107.033 114.856 107.024 115H100.397C100.381 114.848 100.372 114.636 100.372 114.365L100.728 114.264C101.1 114.162 101.4 114.061 101.629 113.959C101.857 113.857 102.052 113.709 102.213 113.515C102.374 113.312 102.454 113.041 102.454 112.702V105.771ZM114.261 103.244C115.386 103.244 116.41 103.49 117.333 103.98C118.264 104.463 119 105.157 119.542 106.062C120.084 106.96 120.354 108.005 120.354 109.198C120.354 110.392 120.084 111.45 119.542 112.372C119 113.286 118.277 113.997 117.371 114.505C116.465 115.004 115.475 115.254 114.4 115.254C113.334 115.254 112.335 114.996 111.404 114.479C110.473 113.963 109.729 113.248 109.17 112.334C108.611 111.411 108.332 110.37 108.332 109.211C108.332 108.051 108.603 107.019 109.145 106.113C109.686 105.199 110.41 104.493 111.315 103.993C112.229 103.494 113.211 103.244 114.261 103.244ZM114.565 114.264C115.64 114.264 116.457 113.879 117.016 113.108C117.574 112.338 117.854 111.327 117.854 110.074C117.854 108.991 117.701 107.996 117.396 107.091C117.1 106.177 116.673 105.449 116.114 104.907C115.556 104.366 114.912 104.095 114.185 104.095C113.541 104.095 112.97 104.251 112.471 104.564C111.98 104.878 111.59 105.36 111.303 106.012C111.015 106.663 110.871 107.48 110.871 108.462C110.871 109.427 111.023 110.358 111.328 111.255C111.633 112.144 112.064 112.867 112.623 113.426C113.182 113.984 113.829 114.264 114.565 114.264ZM126.296 112.182C126.296 112.91 126.478 113.438 126.842 113.769C127.214 114.09 127.777 114.289 128.53 114.365C128.53 114.492 128.526 114.619 128.518 114.746C128.509 114.873 128.505 114.958 128.505 115H121.967L121.954 114.594C121.954 114.458 121.958 114.365 121.967 114.314C122.458 114.196 122.826 114.09 123.071 113.997C123.325 113.904 123.533 113.752 123.693 113.54C123.854 113.328 123.935 113.032 123.935 112.651V105.771C123.833 105.576 123.634 105.402 123.338 105.25C123.042 105.089 122.729 104.958 122.398 104.856C122.077 104.746 121.916 104.696 121.916 104.704L121.954 104.272L125.42 103.409L126.194 103.358L126.334 105.415C126.799 104.789 127.392 104.272 128.111 103.866C128.839 103.451 129.622 103.244 130.46 103.244C131.687 103.244 132.639 103.591 133.316 104.285C133.993 104.979 134.362 106.016 134.421 107.396C134.446 107.937 134.459 108.492 134.459 109.059V111.89C134.459 112.507 134.497 112.956 134.573 113.235C134.649 113.515 134.768 113.709 134.929 113.819C135.098 113.921 135.377 114.031 135.767 114.149L136.3 114.314C136.308 114.365 136.312 114.458 136.312 114.594L136.3 115H130.041C130.041 114.949 130.037 114.865 130.028 114.746C130.02 114.619 130.016 114.492 130.016 114.365C130.075 114.34 130.244 114.289 130.523 114.213C130.972 114.086 131.319 113.951 131.564 113.807C131.818 113.663 131.971 113.43 132.021 113.108C132.064 112.863 132.085 112.537 132.085 112.131V109.3C132.085 108.174 132.043 107.307 131.958 106.697C131.882 106.088 131.67 105.589 131.323 105.199C130.985 104.81 130.435 104.615 129.673 104.615C129.072 104.615 128.492 104.789 127.934 105.136C127.383 105.483 126.838 105.944 126.296 106.52V112.182ZM141.911 113.527C141.911 113.832 141.831 114.116 141.67 114.378C141.518 114.64 141.306 114.852 141.035 115.013C140.773 115.174 140.481 115.254 140.159 115.254C139.846 115.254 139.554 115.174 139.283 115.013C139.021 114.86 138.809 114.653 138.648 114.391C138.496 114.12 138.42 113.832 138.42 113.527C138.42 113.223 138.496 112.939 138.648 112.677C138.809 112.414 139.021 112.207 139.283 112.055C139.554 111.894 139.846 111.813 140.159 111.813C140.481 111.813 140.773 111.894 141.035 112.055C141.306 112.207 141.518 112.414 141.67 112.677C141.831 112.939 141.911 113.223 141.911 113.527ZM151.382 104.209C151.433 104.175 151.602 104.082 151.89 103.93C152.287 103.727 152.605 103.549 152.842 103.396C153.079 103.236 153.273 103.033 153.426 102.787C153.587 102.542 153.667 102.241 153.667 101.886C153.54 101.708 153.388 101.564 153.21 101.454C153.041 101.344 152.825 101.268 152.562 101.226C152.122 101.149 151.792 100.989 151.572 100.743C151.352 100.498 151.242 100.176 151.242 99.7783C151.242 99.3128 151.407 98.9235 151.737 98.6104C152.067 98.2972 152.491 98.1406 153.007 98.1406C153.455 98.1406 153.853 98.2507 154.2 98.4707C154.556 98.6908 154.826 98.9997 155.013 99.3975C155.207 99.7868 155.305 100.235 155.305 100.743C155.305 101.369 155.165 101.979 154.886 102.571C154.606 103.164 154.204 103.676 153.68 104.107C153.163 104.531 152.554 104.806 151.852 104.933C151.598 104.713 151.441 104.471 151.382 104.209ZM156.866 104.209C156.976 104.141 157.15 104.048 157.387 103.93C157.793 103.718 158.106 103.536 158.326 103.384C158.555 103.223 158.745 103.02 158.897 102.774C159.058 102.529 159.139 102.233 159.139 101.886C159.012 101.708 158.859 101.564 158.682 101.454C158.512 101.344 158.301 101.268 158.047 101.226C157.607 101.149 157.277 100.989 157.057 100.743C156.837 100.498 156.727 100.176 156.727 99.7783C156.727 99.3128 156.887 98.9235 157.209 98.6104C157.539 98.2972 157.966 98.1406 158.491 98.1406C158.94 98.1406 159.338 98.2507 159.685 98.4707C160.032 98.6908 160.298 98.9997 160.484 99.3975C160.679 99.7868 160.776 100.235 160.776 100.743C160.776 101.369 160.637 101.979 160.357 102.571C160.078 103.164 159.676 103.676 159.151 104.107C158.635 104.531 158.026 104.806 157.323 104.933C157.078 104.721 156.925 104.48 156.866 104.209Z" fill="#CCA298"/>
</svg>
